<?xml version="1.0" standalone="no"?>
<!DOCTYPE svg PUBLIC "-//W3C//DTD SVG 1.1//EN" "http://www.w3.org/Graphics/SVG/1.1/DTD/svg11.dtd" >
<svg xmlns="http://www.w3.org/2000/svg" xmlns:xlink="http://www.w3.org/1999/xlink" version="1.1">
<metadata>
Created by FontForge 20170910 at Tue Nov  1 16:32:32 2005
 By Jimmy Wärting
Academy was designed circa 1910 at the Berthold type foundry (St.-Petersburg). It was based on Sorbonne (H. Berthold, Berlin, 1905), which represented the American Type Founders rework Cheltenham of 1896 (designers Bertram G. Goodhue, Morris F. Benton) and Russian typefaces of the mid-18th century. A low-contrast text typeface with historical flavour. The modern digital version was designed at Polygraphmash type design bureau in 1989 by Lyubov Kuznetsova.
</metadata>
<defs>
<font id="Academy-Bold" horiz-adv-x="796" >
  <font-face 
    font-family="Academy"
    font-weight="700"
    font-stretch="normal"
    units-per-em="1000"
    panose-1="2 5 7 3 5 5 6 2 4 2"
    ascent="800"
    descent="-200"
    x-height="387"
    cap-height="700"
    bbox="-510 -319 1355 1002"
    underline-thickness="50"
    underline-position="-100"
    stemh="53"
    stemv="150"
    unicode-range="U+0020-F6D4"
  />
<missing-glyph horiz-adv-x="233" 
 />
    <glyph glyph-name="fi" unicode="fi" horiz-adv-x="498" 
d="M430 388v-298c0 -26 8 -48 36 -55v-35h-196v35c25 6 37 24 37 55v208c0 29 -12 43 -24 50h-79v-258c0 -31 9 -49 36 -55v-35h-195v35c34 7 36 36 36 55v258h-49v40h49v45c0 76 3 179 94 237c37 23 83 33 123 33c91 0 116 -49 116 -83c0 -38 -30 -58 -56 -58
c-17 0 -36 8 -45 18c-7 8 -13 22 -13 39l1 16c0 17 -12 28 -32 28c-13 0 -31 -6 -44 -27c-21 -32 -21 -89 -21 -133v-115h226z" />
    <glyph glyph-name="fl" unicode="fl" horiz-adv-x="499" 
d="M272 0v35c28 7 36 29 36 55v517c-4 -5 -15 -16 -34 -16c-30 0 -44 23 -44 50c0 5 2 9 2 14c0 12 -11 17 -17 17c-15 0 -39 -16 -39 -44c0 -20 5 -41 13 -60l2 -5c8 -18 13 -30 13 -60v-115h63v-40h-63v-258c0 -31 9 -49 36 -55v-35h-195v35c34 7 36 36 36 55v258h-49v40
h49v115c0 135 48 186 117 204c10 3 21 5 32 5c23 0 38 -5 48 -9h153v-613c0 -19 2 -48 36 -55v-35h-195z" />
    <glyph glyph-name="afii10017.var.accented" unicode="&#x410;`" horiz-adv-x="758" 
d="M0 36c40 13 64 58 73 77l202 427c10 22 12 43 12 61c0 23 -35 21 -47 20v36c76 6 111 37 126 54h36l262 -548c46 -96 72 -116 94 -127v-36h-286v36c40 -1 55 34 55 57c0 8 -7 27 -9 31l-31 65h-319l-26 -59c-10 -22 -37 -78 54 -94v-36h-196v36zM325 520l-127 -274v-4
h260v3l-129 275h-4zM258 772l123 125c21 21 39 41 72 39s47 -26 47 -48c0 -28 -29 -47 -61 -63l-162 -79z" />
    <glyph glyph-name="afii10022.var.accented" unicode="&#x415;`" horiz-adv-x="708" 
d="M40 700h495c28 0 39 2 46 18h25v-179h-36c-23 88 -69 108 -161 108h-167v-253h111c48 0 87 11 86 64h36v-180h-36c-5 60 -49 63 -66 63h-131v-288h240c74 0 137 52 150 124h36v-177h-628v36c47 5 52 39 52 66v496c0 30 -5 60 -52 66v36zM233 772l123 125
c21 21 39 41 72 39s47 -26 47 -48c0 -28 -29 -47 -61 -63l-162 -79z" />
    <glyph glyph-name="afii10026.var.accented" unicode="&#x418;`" horiz-adv-x="798" 
d="M40 700h249v-36c-35 -12 -50 -20 -50 -57v-374h5l315 328v46c0 24 -10 50 -50 57v36h249v-36c-40 -6 -49 -31 -49 -57v-514c0 -26 9 -51 49 -57v-36h-249v36c49 8 50 46 50 57v381h-5l-315 -329v-52c0 -24 10 -50 50 -57v-36h-249v36c40 6 49 31 49 57v514
c0 26 -9 51 -49 57v36zM278 772l123 125c21 21 39 41 72 39s47 -26 47 -48c0 -28 -29 -47 -61 -63l-162 -79z" />
    <glyph glyph-name="afii10032.var.accented" unicode="&#x41e;`" 
d="M398 711c202 0 353 -160 353 -363c0 -197 -148 -359 -353 -359s-353 162 -353 359c0 203 151 363 353 363zM398 658c-113 0 -187 -55 -187 -310c0 -252 74 -306 187 -306s187 54 187 306c0 255 -74 310 -187 310zM277 772l123 125c21 21 39 41 72 39s47 -26 47 -48
c0 -28 -29 -47 -61 -63l-162 -79z" />
    <glyph glyph-name="afii10037.var.accented" unicode="&#x423;`" horiz-adv-x="684" 
d="M40 700h291v-35h-3c-21 0 -45 -10 -45 -35c0 -10 4 -24 14 -40l151 -249h7l99 234c5 11 12 34 12 44c0 31 -34 40 -68 45v36h186v-36c-41 -15 -52 -41 -67 -77l-175 -413c-47 -111 -111 -185 -223 -185c-114 0 -134 68 -134 96c0 43 25 83 77 83c30 0 68 -11 78 -65
c2 -12 6 -37 39 -37c49 0 85 63 99 101l-268 443c-18 31 -44 47 -70 54v36zM221 772l123 125c21 21 39 41 72 39s47 -26 47 -48c0 -28 -29 -47 -61 -63l-162 -79z" />
    <glyph glyph-name="afii10045.var.accented" unicode="&#x42b;`" horiz-adv-x="935" 
d="M289 700v-36c-48 -7 -49 -40 -49 -66v-184h89c227 0 278 -118 278 -207c0 -109 -84 -207 -246 -207h-321v36c47 5 50 43 50 66v496c0 26 -1 59 -49 66v36h248zM240 361v-308h62c66 0 142 19 142 149c0 100 -39 159 -143 159h-61zM641 664v36h249v-36
c-40 -6 -49 -31 -49 -57v-514c0 -26 9 -51 49 -57v-36h-249v36c21 2 50 15 50 57v514c0 42 -29 55 -50 57zM346 772l123 125c21 21 39 41 72 39s47 -26 47 -48c0 -28 -29 -47 -61 -63l-162 -79z" />
    <glyph glyph-name="afii10047.var.accented" unicode="&#x42d;`" horiz-adv-x="700" 
d="M57 694h36c15 -16 30 -21 45 -21c17 0 33 7 46 12c53 20 95 26 137 26c158 0 238 -94 262 -125c67 -87 72 -192 72 -215v-3c0 -37 -1 -155 -82 -258c-52 -65 -134 -121 -273 -121c-141 0 -255 71 -255 163c0 44 29 82 78 82c37 0 69 -27 69 -66c0 -40 -20 -24 -20 -63
c0 -27 54 -63 119 -63c80 0 202 56 202 288v19h-7c-36 -41 -65 -65 -98 -65c-26 0 -72 19 -93 29c-42 20 -67 40 -91 40c-21 0 -49 -17 -66 -36l-27 28c39 39 101 97 158 97c14 0 28 -5 42 -11c20 -8 38 -17 57 -27s39 -20 61 -20c20 0 60 8 60 60c0 49 -33 214 -200 214
c-70 0 -171 -32 -196 -134h-36v170zM229 772l123 125c21 21 39 41 72 39s47 -26 47 -48c0 -28 -29 -47 -61 -63l-162 -79z" />
    <glyph glyph-name="afii10048.var.accented" unicode="&#x42e;`" horiz-adv-x="1113" 
d="M239 377h123c20 182 148 334 353 334c202 0 353 -161 353 -362c0 -198 -148 -360 -353 -360c-221 0 -346 178 -352 335h-124v-231c0 -24 10 -50 50 -57v-36h-249v36c40 6 49 31 49 57v514c0 26 -9 51 -49 57v36h249v-36c-40 -7 -50 -33 -50 -57v-230zM715 658
c-154 0 -187 -125 -187 -310c0 -14 0 -28 1 -42c9 -208 72 -264 186 -264c113 0 187 54 187 306c0 185 -33 310 -187 310zM435 772l123 125c21 21 39 41 72 39s47 -26 47 -48c0 -28 -29 -47 -61 -63l-162 -79z" />
    <glyph glyph-name="afii10049.var.accented" unicode="&#x42f;`" horiz-adv-x="690" 
d="M650 700v-36c-50 -8 -50 -45 -50 -66v-496c0 -25 3 -59 50 -66v-36h-249v36c48 7 49 40 49 66v216h-20c-62 0 -123 0 -163 -147c-21 -76 -53 -182 -207 -182c-5 0 -30 0 -60 8v37c17 3 31 9 43 19c29 24 39 70 54 119c23 77 52 112 103 137c17 9 33 14 51 18v7
c-145 33 -176 115 -176 183c0 93 57 183 267 183h308zM450 647h-59c-58 0 -150 -3 -150 -135c0 -50 10 -141 152 -141h57v276zM224 772l123 125c21 21 39 41 72 39s47 -26 47 -48c0 -28 -29 -47 -61 -63l-162 -79z" />
    <glyph glyph-name="afii10065.var.accented" unicode="&#x430;`" horiz-adv-x="430" 
d="M416 52v-34c-10 -10 -31 -26 -68 -26c-11 0 -53 2 -78 55h-5c-37 -38 -72 -55 -125 -55c-92 0 -112 62 -112 97c0 62 32 146 219 150v28c0 80 -23 88 -48 88c-20 0 -31 -3 -56 -43c-10 -15 -21 -29 -42 -29c-19 0 -37 12 -37 36c0 44 59 76 146 76
c158 0 160 -126 160 -170v-129c0 -21 1 -45 36 -45c3 0 7 0 10 1zM247 130v69c-49 0 -91 -38 -91 -97c0 -45 25 -54 41 -54c50 0 50 61 50 82zM124 517l87 118c16 21 30 36 53 36c25 0 42 -16 42 -40c0 -27 -25 -40 -45 -53l-122 -80z" />
    <glyph glyph-name="afii10070.var.accented" unicode="&#x435;`" horiz-adv-x="409" 
d="M381 210h-216v-50c0 -73 23 -114 82 -114c40 0 68 22 99 58l29 -28c-21 -31 -71 -84 -156 -84c-133 0 -191 103 -191 193c0 92 59 210 192 210c105 0 161 -87 161 -180v-5zM271 250v16c0 81 -30 89 -52 89c-27 0 -54 -15 -54 -89v-16h106zM113 517l87 118
c16 21 30 36 53 36c25 0 42 -16 42 -40c0 -27 -25 -40 -45 -53l-122 -80z" />
    <glyph glyph-name="afii10074.var.accented" unicode="&#x438;`" horiz-adv-x="505" 
d="M32 387h196v-35c-27 -3 -37 -29 -37 -54v-141h2l121 137v3c0 23 -8 50 -36 55v35h195v-35c-34 -4 -36 -40 -36 -54v-208c0 -19 2 -48 36 -55v-35h-195v35c28 7 36 29 36 55v140h-2l-121 -138v-5c0 -28 9 -47 37 -52v-35h-196v35c28 7 36 29 36 55v208c0 6 0 48 -36 54v35
zM161 517l87 118c16 21 30 36 53 36c25 0 42 -16 42 -40c0 -27 -25 -40 -45 -53l-122 -80z" />
    <glyph glyph-name="afii10080.var.accented" unicode="&#x43e;`" horiz-adv-x="458" 
d="M229 -8c-122 0 -201 85 -201 203c0 111 78 200 201 200c119 0 201 -86 201 -200c0 -120 -83 -203 -201 -203zM229 32c58 0 64 51 64 112v102c0 60 -6 109 -64 109s-64 -49 -64 -109v-102c0 -61 6 -112 64 -112zM138 517l87 118c16 21 30 36 53 36c25 0 42 -16 42 -40
c0 -27 -25 -40 -45 -53l-122 -80z" />
    <glyph glyph-name="afii10085.var.accented" unicode="&#x443;`" horiz-adv-x="440" 
d="M447 387v-35h-6c-22 0 -42 -16 -70 -75l-179 -368c-27 -55 -50 -104 -113 -106h-4c-53 0 -75 37 -75 66c0 27 19 51 54 51c17 0 30 -6 40 -11c1 0 1 -1 1 -1c15 -9 24 -17 35 -17c16 0 24 22 32 38l33 66l-125 297c-21 51 -46 59 -63 60v35h231v-35h-5
c-32 0 -33 -20 -33 -27c0 -11 7 -23 10 -32l57 -143h4l66 134c11 23 11 36 11 42v2c0 12 -11 24 -37 24h-3v35h139zM129 517l87 118c16 21 30 36 53 36c25 0 42 -16 42 -40c0 -27 -25 -40 -45 -53l-122 -80z" />
    <glyph glyph-name="afii10093.var.accented" unicode="&#x44b;`" horiz-adv-x="686" 
d="M230 387v-35c-36 -5 -36 -39 -36 -54v-41h2c34 28 76 30 94 30c75 0 142 -58 142 -148c0 -19 -5 -38 -13 -55c-38 -84 -124 -84 -172 -84h-212v35c28 7 36 29 36 55v208c0 25 -10 51 -37 54v35h196zM194 207v-167h29c36 0 72 2 72 91v5c0 44 -1 92 -52 92
c-14 0 -33 -4 -49 -21zM455 387h197v-35c-27 -3 -37 -29 -37 -54v-208c0 -31 12 -49 37 -55v-35h-197v35c25 6 37 24 37 55v208c0 25 -10 51 -37 54v35zM252 517l87 118c16 21 30 36 53 36c25 0 42 -16 42 -40c0 -27 -25 -40 -45 -53l-122 -80z" />
    <glyph glyph-name="afii10095.var.accented" unicode="&#x44d;`" horiz-adv-x="405" 
d="M15 395h38c6 -12 15 -19 32 -19c13 0 25 4 37 8c21 6 43 11 65 11c31 0 66 -7 95 -24c36 -21 91 -75 91 -169c0 -106 -68 -210 -208 -210c-56 0 -162 19 -162 100c0 41 33 54 56 54c35 0 49 -28 49 -47c0 -11 -5 -22 -5 -34c0 -24 26 -33 49 -33c32 0 84 19 84 133v29h-4
c-14 -22 -33 -38 -61 -38c-24 0 -41 14 -55 23c-9 6 -20 12 -30 12c-9 0 -28 -10 -32 -12l-14 23c31 24 61 45 94 45c9 0 18 -2 26 -6s16 -9 24 -15s17 -11 26 -11c7 0 24 6 24 40c0 70 -39 101 -84 101c-59 0 -90 -53 -100 -89h-35v128zM111 517l87 118c16 21 30 36 53 36
c25 0 42 -16 42 -40c0 -27 -25 -40 -45 -53l-122 -80z" />
    <glyph glyph-name="afii10096.var.accented" unicode="&#x44e;`" horiz-adv-x="680" 
d="M191 216h60c8 88 74 179 200 179c119 0 201 -86 201 -200c0 -120 -83 -203 -201 -203c-116 0 -196 79 -200 184h-60v-86c0 -19 2 -48 36 -55v-35h-195v35c28 7 36 29 36 55v208c0 6 0 48 -36 54v35h195v-35c-34 -4 -36 -40 -36 -54v-82zM451 32c58 0 64 51 64 112v102
c0 60 -6 109 -64 109s-64 -49 -64 -109v-102c0 -61 6 -112 64 -112zM249 517l87 118c16 21 30 36 53 36c25 0 42 -16 42 -40c0 -27 -25 -40 -45 -53l-122 -80z" />
    <glyph glyph-name="afii10097.var.accented" unicode="&#x44f;`" horiz-adv-x="450" 
d="M418 387v-35c-28 -5 -36 -27 -36 -54v-208c0 -33 9 -48 36 -55v-35h-195v35c34 7 36 36 36 55v75h-14c-34 0 -51 -16 -59 -28c-20 -28 -13 -84 -63 -122c-15 -11 -40 -23 -78 -23c-3 0 -21 0 -45 5v36c27 1 28 30 34 56c9 35 41 83 113 90v6c-111 8 -129 64 -129 102
c0 19 6 37 16 52c30 44 87 48 139 48h245zM259 348h-16c-28 0 -95 -2 -95 -72s68 -71 94 -71h17v143zM134 517l87 118c16 21 30 36 53 36c25 0 42 -16 42 -40c0 -27 -25 -40 -45 -53l-122 -80z" />
    <glyph glyph-name=".notdef" horiz-adv-x="233" 
 />
    <glyph glyph-name="space" unicode=" " horiz-adv-x="233" 
 />
    <glyph glyph-name="space" unicode="&#xa0;" horiz-adv-x="233" 
 />
    <glyph glyph-name="exclam" unicode="!" horiz-adv-x="300" 
d="M70 684h160l-62 -497h-36zM74 68c0 42 34 76 76 76s76 -34 76 -76s-34 -76 -76 -76s-76 34 -76 76z" />
    <glyph glyph-name="quotedbl" unicode="&#x22;" horiz-adv-x="426" 
d="M188 700l-40 -206h-38l-40 206h118zM356 700l-40 -206h-38l-40 206h118z" />
    <glyph glyph-name="numbersign" unicode="#" horiz-adv-x="847" 
d="M522 0h-76l31 172h-174l-30 -172h-76l31 172h-158l15 82h158l33 190h-158l15 82h158l31 177h76l-31 -177h173l31 177h76l-32 -177h162l-14 -82h-162l-34 -190h162l-15 -82h-162zM492 254l33 190h-173l-34 -190h174z" />
    <glyph glyph-name="dollar" unicode="$" horiz-adv-x="614" 
d="M274 797h48v-70c128 -2 190 -73 190 -132c0 -42 -30 -69 -63 -69c-34 0 -69 19 -69 66c0 19 5 27 9 33c3 5 6 11 6 17c0 14 -21 31 -58 32h-15v-209c135 -43 222 -101 222 -243c0 -138 -108 -220 -222 -229v-79h-48v75c-161 12 -204 102 -204 150c0 43 25 91 80 91
c44 0 79 -35 79 -74c0 -17 -6 -33 -21 -49c-6 -7 -15 -13 -15 -21c0 -30 45 -35 81 -36v279c-104 46 -180 94 -187 195v12c0 98 79 180 187 191v70zM274 486v188c-70 -12 -93 -58 -93 -93c0 -33 25 -72 93 -95zM322 312v-260c85 9 133 63 133 122c0 53 -35 108 -133 138z
" />
    <glyph glyph-name="percent" unicode="%" horiz-adv-x="980" 
d="M70 596c0 135 87 202 171 202s171 -67 171 -202c0 -138 -86 -202 -171 -202s-171 64 -171 202zM184 642v-92c0 -64 1 -120 57 -120s57 56 57 120v98c0 56 -1 113 -57 113s-57 -57 -57 -113v-6zM289 -69l334 779l49 -21l-336 -778zM568 109c0 135 87 202 171 202
s171 -67 171 -202c0 -138 -86 -202 -171 -202s-171 64 -171 202zM682 155v-92c0 -64 1 -120 57 -120s57 56 57 120v98c0 56 -1 113 -57 113s-57 -57 -57 -113v-6z" />
    <glyph glyph-name="ampersand" unicode="&#x26;" horiz-adv-x="853" 
d="M557 427h221v-36c-53 -6 -88 -66 -92 -73c-19 -34 -19 -44 -44 -93c-8 -15 -20 -36 -25 -44l68 -86c18 -23 32 -41 58 -41c7 0 13 2 20 5l20 -36c-39 -26 -59 -34 -90 -34c-76 0 -104 24 -166 84c-81 -67 -157 -84 -221 -84c-146 0 -236 112 -236 225v4
c2 100 64 160 163 207v7c-51 61 -66 104 -66 142c0 75 63 137 151 137c89 0 154 -58 154 -138c0 -27 -12 -77 -76 -115l191 -237c23 34 37 80 37 106c0 38 -29 66 -67 64v36zM359 488c22 23 41 61 41 98c0 7 -1 13 -2 20c-8 41 -38 58 -65 58c-31 0 -60 -17 -60 -55
c0 -25 15 -42 28 -57zM272 395c-54 -41 -62 -88 -62 -118c0 -111 79 -202 181 -202c41 0 83 14 112 35z" />
    <glyph glyph-name="quoteright" unicode="&#x2019;" horiz-adv-x="300" 
d="M90 446l-19 29c53 32 74 62 84 78l-1 4h-7c-33 1 -77 26 -77 77c0 45 34 77 77 77c40 0 83 -26 83 -93c0 -87 -78 -148 -140 -172z" />
    <glyph glyph-name="parenleft" unicode="(" horiz-adv-x="419" 
d="M349 683c0 -9 -14 -19 -37 -55c-39 -61 -102 -182 -102 -376c0 -195 60 -316 102 -377c24 -35 37 -47 37 -55c0 -7 -8 -17 -16 -17c-22 0 -96 67 -110 81c-145 144 -153 315 -153 368c0 132 51 257 136 350c25 28 105 98 127 98c8 0 16 -10 16 -17z" />
    <glyph glyph-name="parenright" unicode=")" horiz-adv-x="419" 
d="M70 683c0 7 8 17 16 17c22 0 102 -70 127 -98c85 -93 136 -218 136 -350c0 -53 -8 -224 -153 -368c-14 -14 -88 -81 -110 -81c-8 0 -16 10 -16 17c0 16 41 41 85 145c26 62 54 151 54 287c0 48 -6 172 -54 286c-45 105 -85 123 -85 145z" />
    <glyph glyph-name="asterisk" unicode="*" horiz-adv-x="510" 
d="M241 561c-2 48 -12 72 -47 92c4 29 27 58 61 58s57 -29 61 -58c-35 -20 -45 -44 -47 -92c9 -3 16 -8 21 -17c40 21 64 28 74 74c6 1 11 1 16 1c42 0 60 -31 60 -59c0 -22 -16 -44 -39 -56c-22 16 -40 23 -62 23c-12 0 -26 -2 -43 -6c0 -10 -3 -18 -8 -25
c30 -35 49 -50 81 -50c5 0 10 0 15 1c5 -12 8 -23 8 -33c0 -34 -26 -60 -55 -60c-16 0 -37 8 -52 23c6 12 9 24 9 35c0 20 -9 40 -26 70c-5 -2 -9 -2 -13 -2s-9 0 -13 2c-17 -30 -26 -50 -26 -70c0 -11 3 -23 9 -35c-15 -15 -36 -23 -52 -23c-29 0 -55 26 -55 60
c0 10 3 21 8 33c5 -1 10 -1 15 -1c32 0 51 15 81 50c-5 7 -8 15 -8 25c-17 4 -31 6 -43 6c-22 0 -40 -7 -62 -23c-23 12 -39 34 -39 56c0 28 18 59 60 59c5 0 10 0 16 -1c10 -46 34 -53 74 -74c5 9 12 14 21 17z" />
    <glyph glyph-name="plus" unicode="+" horiz-adv-x="729" 
d="M70 292v79h255v255h79v-255h255v-79h-255v-255h-79v255h-255z" />
    <glyph glyph-name="comma" unicode="," horiz-adv-x="300" 
d="M90 -119l-19 29c53 32 74 62 84 78l-1 4h-7c-33 1 -77 26 -77 77c0 45 34 77 77 77c40 0 83 -26 83 -93c0 -87 -78 -148 -140 -172z" />
    <glyph glyph-name="hyphen" unicode="-" horiz-adv-x="403" 
d="M70 122l34 119h144c15 0 37 2 56 23h29l-37 -120h-141c-16 0 -38 0 -51 -22h-34z" />
    <glyph glyph-name="hyphen" unicode="&#x2010;" horiz-adv-x="403" 
d="M70 122l34 119h144c15 0 37 2 56 23h29l-37 -120h-141c-16 0 -38 0 -51 -22h-34z" />
    <glyph glyph-name="hyphen" unicode="&#xad;" horiz-adv-x="403" 
d="M70 122l34 119h144c15 0 37 2 56 23h29l-37 -120h-141c-16 0 -38 0 -51 -22h-34z" />
    <glyph glyph-name="period" unicode="." horiz-adv-x="292" 
d="M70 69c0 42 34 76 76 76s76 -34 76 -76s-34 -76 -76 -76s-76 34 -76 76z" />
    <glyph glyph-name="slash" unicode="/" horiz-adv-x="454" 
d="M60 -197h-60l394 897h60z" />
    <glyph glyph-name="zero" unicode="0" horiz-adv-x="580" 
d="M290 -11c-90 0 -245 43 -245 362c0 315 152 360 245 360s245 -45 245 -360c0 -319 -155 -362 -245 -362zM290 658c-79 0 -91 -81 -91 -162v-290c0 -69 9 -164 91 -164c79 0 91 84 91 164v290c0 83 -12 162 -91 162z" />
    <glyph glyph-name="one" unicode="1" horiz-adv-x="394" 
d="M207 700h98v-598c0 -20 0 -59 49 -66v-36h-249v36c50 6 50 48 50 66v457h-7c-31 -32 -67 -63 -108 -92v55c57 38 127 111 167 178z" />
    <glyph glyph-name="two" unicode="2" horiz-adv-x="507" 
d="M455 171l-30 -171h-395v38c200 272 271 397 271 483c0 61 -35 97 -95 97c-50 0 -77 -28 -116 -66l-38 30c59 86 133 129 225 129c114 0 190 -76 190 -166c0 -140 -184 -298 -299 -410v-5h183c17 0 53 2 68 41h36z" />
    <glyph glyph-name="three" unicode="3" horiz-adv-x="476" 
d="M88 546l-43 25c66 123 147 140 210 140c91 0 137 -59 137 -113c0 -78 -81 -145 -113 -168v-8c7 1 15 1 22 1c91 0 145 -61 145 -149c0 -129 -143 -282 -351 -282c-17 0 -33 1 -50 3l12 52c177 5 236 115 236 201c0 59 -29 102 -88 102c-25 0 -49 -7 -73 -23l-23 41
c82 55 169 118 169 199c0 22 -11 68 -69 68c-29 0 -78 -13 -121 -89z" />
    <glyph glyph-name="four" unicode="4" horiz-adv-x="578" 
d="M340 711h105v-407c30 1 50 19 69 64h36l-41 -197h-64v-171h-150v174h-265v70zM127 304h168v239h-7z" />
    <glyph glyph-name="five" unicode="5" horiz-adv-x="496" 
d="M128 698h177c26 0 38 3 49 13h36l-31 -143h-206l-29 -130c46 23 94 31 133 31c76 0 204 -35 204 -188c0 -144 -119 -289 -329 -289c-31 0 -61 4 -92 11l15 44c7 -1 14 -1 21 -1s14 0 21 1c19 1 38 2 56 8c76 24 142 120 142 228c0 91 -58 116 -101 116
c-24 0 -47 -8 -70 -25l-63 25z" />
    <glyph glyph-name="six" unicode="6" horiz-adv-x="565" 
d="M351 711l26 -40c-84 -54 -154 -155 -162 -276h4c15 11 48 33 100 33c92 0 201 -58 201 -216c0 -143 -93 -223 -236 -223c-195 0 -239 154 -239 271c0 132 44 247 147 348c36 35 108 82 159 103zM286 360c-83 0 -83 -70 -83 -162c0 -95 0 -162 83 -162s83 67 83 162
c0 92 0 162 -83 162z" />
    <glyph glyph-name="seven" unicode="7" horiz-adv-x="466" 
d="M50 496l13 204h383v-38c-59 -181 -160 -507 -192 -662h-166c33 164 200 452 277 570h-213c-24 0 -58 -2 -64 -74h-38z" />
    <glyph glyph-name="eight" unicode="8" horiz-adv-x="512" 
d="M154 356v3c-70 51 -88 120 -88 163c0 93 63 189 196 189c127 0 194 -79 194 -163c0 -59 -35 -114 -93 -140l1 -5c61 -32 123 -97 123 -195c0 -127 -87 -219 -224 -219c-107 0 -229 54 -229 195c0 74 38 147 120 172zM302 432c33 39 49 86 49 132c0 65 -45 94 -89 94
c-52 0 -94 -34 -94 -85c0 -65 58 -119 134 -141zM207 325c-46 -58 -49 -122 -49 -154c0 -92 59 -129 112 -129c68 0 113 54 113 119c0 101 -120 148 -176 164z" />
    <glyph glyph-name="nine" unicode="9" horiz-adv-x="565" 
d="M214 -11l-26 40c84 54 154 155 162 276h-4c-15 -11 -48 -33 -100 -33c-92 0 -201 58 -201 216c0 143 93 223 236 223c195 0 239 -154 239 -271c0 -132 -44 -247 -147 -348c-36 -35 -108 -82 -159 -103zM279 340c83 0 83 70 83 162c0 95 0 162 -83 162s-83 -67 -83 -162
c0 -92 0 -162 83 -162z" />
    <glyph glyph-name="colon" unicode=":" horiz-adv-x="292" 
d="M70 317c0 42 34 76 76 76s76 -34 76 -76s-34 -76 -76 -76s-76 34 -76 76zM70 68c0 42 34 76 76 76s76 -34 76 -76s-34 -76 -76 -76s-76 34 -76 76z" />
    <glyph glyph-name="semicolon" unicode=";" horiz-adv-x="300" 
d="M74 317c0 42 34 76 76 76s76 -34 76 -76s-34 -76 -76 -76s-76 34 -76 76zM90 -119l-19 29c53 32 74 62 84 78l-1 4h-7c-33 1 -77 26 -77 77c0 45 34 77 77 77c40 0 83 -26 83 -93c0 -87 -78 -148 -140 -172z" />
    <glyph glyph-name="semicolon" unicode="&#x37e;" horiz-adv-x="300" 
d="M74 317c0 42 34 76 76 76s76 -34 76 -76s-34 -76 -76 -76s-76 34 -76 76zM90 -119l-19 29c53 32 74 62 84 78l-1 4h-7c-33 1 -77 26 -77 77c0 45 34 77 77 77c40 0 83 -26 83 -93c0 -87 -78 -148 -140 -172z" />
    <glyph glyph-name="less" unicode="&#x3c;" horiz-adv-x="630" 
d="M70 335l455 264l35 -63l-340 -198v-6l340 -198l-35 -63z" />
    <glyph glyph-name="equal" unicode="=" horiz-adv-x="759" 
d="M70 219v79h619v-79h-619zM70 363v79h619v-79h-619z" />
    <glyph glyph-name="greater" unicode="&#x3e;" horiz-adv-x="630" 
d="M560 335l-455 -264l-35 63l340 198v6l-340 198l35 63z" />
    <glyph glyph-name="question" unicode="?" horiz-adv-x="459" 
d="M184 203h-36l-16 131h29c11 -8 27 -15 40 -15c4 0 54 3 54 95c0 122 -37 231 -71 231c-13 0 -13 -10 -13 -14c0 -7 1 -13 0 -19c-2 -17 -10 -41 -44 -41s-57 25 -57 55c0 26 22 68 80 68c50 0 106 -27 163 -101c54 -70 76 -147 76 -204c0 -112 -62 -154 -125 -154
c-8 0 -43 2 -85 31zM89 68c0 42 34 76 76 76s76 -34 76 -76s-34 -76 -76 -76s-76 34 -76 76z" />
    <glyph glyph-name="at" unicode="@" horiz-adv-x="1038" 
d="M781 516l-69 -232c-6 -19 -15 -52 -15 -80c0 -48 25 -70 64 -70c75 0 147 80 147 215c0 41 -5 83 -19 122c-51 142 -189 234 -365 234c-229 0 -389 -163 -389 -391c0 -263 193 -395 384 -395c62 0 142 12 227 79l35 -47c-94 -72 -188 -91 -262 -91
c-221 0 -449 157 -449 444c0 222 155 454 454 454c233 0 370 -133 419 -261c18 -48 25 -99 25 -150c0 -135 -69 -271 -227 -271c-27 0 -100 4 -136 74h-8c-66 -59 -121 -74 -164 -74c-92 0 -176 73 -176 188c0 34 2 69 12 101c29 93 111 186 231 186c58 0 112 -25 142 -76h9
l15 41h115zM623 404c-5 34 -28 71 -75 71c-83 0 -163 -94 -163 -219c0 -76 38 -114 85 -114c48 0 93 41 100 67z" />
    <glyph glyph-name="A" unicode="A" horiz-adv-x="758" 
d="M0 36c40 13 64 58 73 77l202 427c10 22 12 43 12 61c0 23 -35 21 -47 20v36c76 6 111 37 126 54h36l262 -548c46 -96 72 -116 94 -127v-36h-286v36c40 -1 55 34 55 57c0 8 -7 27 -9 31l-31 65h-319l-26 -59c-10 -22 -37 -78 54 -94v-36h-196v36zM325 520l-127 -274v-4
h260v3l-129 275h-4z" />
    <glyph glyph-name="B" unicode="B" horiz-adv-x="650" 
d="M40 700h270c96 0 258 -11 258 -173c0 -116 -115 -149 -153 -158v-10c116 -11 190 -87 190 -181c0 -166 -169 -178 -246 -178h-319v36c40 6 49 31 49 57v514c0 26 -9 51 -49 57v36zM239 647v-256h54c80 0 126 55 126 127c0 116 -87 129 -146 129h-34zM239 338v-285h58
c51 0 146 12 146 137c0 121 -105 148 -167 148h-37z" />
    <glyph glyph-name="C" unicode="C" horiz-adv-x="716" 
d="M640 148l31 -39c-103 -87 -185 -120 -276 -120c-212 0 -350 162 -350 365c0 212 147 357 332 357c40 0 72 -4 111 -15c34 -10 51 -13 66 -13c8 0 16 5 23 10c3 2 6 4 8 7h36v-165h-36c-26 71 -106 123 -192 123c-42 0 -72 -16 -92 -30c-83 -57 -90 -157 -90 -286
c0 -102 10 -281 215 -281c70 0 137 26 214 87z" />
    <glyph glyph-name="D" unicode="D" horiz-adv-x="792" 
d="M40 700h296c369 0 411 -247 411 -357s-39 -197 -118 -262c-92 -75 -216 -81 -270 -81h-319v36c49 16 49 35 49 66v496c0 31 0 50 -49 66v36zM239 53h78c98 0 264 28 264 293c0 252 -156 301 -277 301h-65v-594z" />
    <glyph glyph-name="E" unicode="E" horiz-adv-x="708" 
d="M40 700h495c28 0 39 2 46 18h25v-179h-36c-23 88 -69 108 -161 108h-167v-253h111c48 0 87 11 86 64h36v-180h-36c-5 60 -49 63 -66 63h-131v-288h240c74 0 137 52 150 124h36v-177h-628v36c47 5 52 39 52 66v496c0 30 -5 60 -52 66v36z" />
    <glyph glyph-name="F" unicode="F" horiz-adv-x="616" 
d="M40 700h495c28 0 39 2 46 18h25v-179h-36c-23 88 -69 108 -161 108h-167v-253h111c48 0 87 11 86 64h36v-180h-36c-5 60 -49 63 -66 63h-131v-239c0 -32 -6 -49 48 -66v-36h-250v36c47 5 52 39 52 66v496c0 30 -5 60 -52 66v36z" />
    <glyph glyph-name="G" unicode="G" horiz-adv-x="755" 
d="M509 283h206v-253c-58 -19 -146 -41 -242 -41c-271 0 -390 133 -420 272c-7 31 -8 63 -8 95c0 203 156 356 363 356c48 0 83 -10 125 -22c25 -7 44 -11 58 -11c19 0 30 6 38 19h33v-168h-36c-17 48 -67 129 -202 129c-190 0 -213 -180 -213 -295c0 -26 0 -53 2 -79
c18 -222 170 -243 223 -243c60 0 129 29 129 100v33c0 26 -3 67 -56 72v36z" />
    <glyph glyph-name="H" unicode="H" horiz-adv-x="827" 
d="M289 700v-36c-21 -2 -50 -15 -50 -57v-220h348v220c0 26 -9 51 -49 57v36h249v-36c-36 -5 -50 -25 -50 -57v-514c0 -38 15 -46 49 -57v-36h-248v36c34 11 49 19 49 57v241h-348v-241c0 -26 6 -45 50 -57v-36h-249v36c37 12 49 24 49 57v514c0 10 -1 50 -49 57v36h249z
" />
    <glyph glyph-name="I" unicode="I" horiz-adv-x="329" 
d="M40 700h249v-36c-49 -7 -49 -46 -49 -66v-496c0 -20 0 -59 49 -66v-36h-249v36c50 6 50 48 50 66v496c0 18 0 60 -50 66v36z" />
    <glyph glyph-name="J" unicode="J" horiz-adv-x="359" 
d="M70 700h249v-36c-48 -7 -49 -40 -49 -66v-508c0 -195 -114 -254 -194 -254c-73 0 -116 33 -116 77c0 28 18 54 54 54c27 0 48 -16 51 -43c2 -21 -6 -42 21 -42c33 0 34 42 34 63v653c0 26 -3 58 -50 66v36z" />
    <glyph glyph-name="K" unicode="K" horiz-adv-x="753" 
d="M40 700h249v-36c-49 -7 -49 -46 -49 -66v-222h7l258 215c29 24 33 37 33 44s-5 25 -46 29v36h243v-36c-55 -13 -81 -20 -120 -53l-197 -165l207 -307c30 -44 55 -81 118 -103v-36h-315v36c21 0 52 11 52 37c0 8 -3 18 -11 29l-166 248l-63 -50v-198c0 -20 0 -59 49 -66
v-36h-249v36c50 6 50 48 50 66v496c0 18 0 60 -50 66v36z" />
    <glyph glyph-name="L" unicode="L" horiz-adv-x="685" 
d="M40 700h251v-36c-48 -7 -49 -40 -49 -66v-545h227c74 0 137 52 150 124h36v-177h-615v36c47 5 52 39 52 66v496c0 32 -5 58 -52 66v36z" />
    <glyph glyph-name="M" unicode="M" horiz-adv-x="917" 
d="M40 700h241l182 -499h4l182 499h228v-36c-16 -2 -49 -12 -49 -57v-515c0 -43 33 -54 49 -56v-36h-249v36c46 6 50 39 50 56v512h-7l-220 -604h-70l-226 620h-4v-518c0 -60 39 -66 56 -66v-36h-167v36c54 0 56 50 56 67v479c0 14 0 82 -56 82v36z" />
    <glyph glyph-name="N" unicode="N" horiz-adv-x="765" 
d="M42 700h189l371 -445h11v348c0 20 -2 53 -59 61v36h171v-36c-55 -7 -59 -42 -59 -61v-603h-53l-451 542h-10v-445c0 -15 2 -53 59 -61v-36h-171v36c57 8 59 46 59 61v506c0 25 -5 65 -57 61v36z" />
    <glyph glyph-name="O" unicode="O" 
d="M398 711c202 0 353 -160 353 -363c0 -197 -148 -359 -353 -359s-353 162 -353 359c0 203 151 363 353 363zM398 658c-113 0 -187 -55 -187 -310c0 -252 74 -306 187 -306s187 54 187 306c0 255 -74 310 -187 310z" />
    <glyph glyph-name="P" unicode="P" horiz-adv-x="653" 
d="M40 0v36c19 2 49 15 49 58v391c0 164 130 226 268 226c166 0 251 -117 251 -233c0 -53 -13 -172 -130 -223c-28 -12 -57 -20 -87 -20c-41 0 -98 6 -152 44v-185c0 -25 18 -54 53 -58v-36h-252zM239 556v-170c0 -52 54 -85 105 -85c90 0 98 85 98 178c0 92 -2 174 -97 179
h-6c-53 0 -100 -38 -100 -102z" />
    <glyph glyph-name="Q" unicode="Q" 
d="M398 711c202 0 353 -160 353 -363c0 -144 -80 -272 -205 -328c26 -52 51 -105 97 -105c19 0 44 13 48 47h40v-18c-3 -66 -44 -124 -129 -124c-95 0 -131 64 -158 172c-15 -2 -31 -3 -46 -3c-205 0 -353 163 -353 359c0 203 151 363 353 363zM398 658
c-154 0 -187 -125 -187 -310c0 -118 13 -183 50 -245c19 27 56 67 112 67c50 0 99 -29 138 -92c35 30 74 91 74 270c0 185 -33 310 -187 310zM420 43c-13 49 -52 60 -77 60c-17 0 -39 -6 -59 -27c34 -24 68 -34 114 -34c7 0 15 0 22 1z" />
    <glyph glyph-name="R" unicode="R" horiz-adv-x="704" 
d="M40 700h294c88 0 207 -5 259 -108c12 -24 19 -52 19 -79c0 -102 -72 -155 -131 -176l-1 -10l143 -239c19 -32 40 -48 71 -52v-36h-192l-168 282c-26 44 -50 43 -75 43h-19v-223c0 -37 1 -51 49 -66v-36h-249v36c41 14 50 24 50 66v496c0 42 -9 52 -50 66v36zM240 647
v-269h88c58 0 118 37 118 130c0 128 -88 139 -145 139h-61z" />
    <glyph glyph-name="S" unicode="S" horiz-adv-x="590" 
d="M498 683v-163h-39c-26 105 -104 138 -173 138c-83 0 -112 -58 -109 -96c5 -66 79 -94 115 -107c112 -40 253 -84 253 -239c0 -108 -84 -227 -249 -227c-64 0 -106 17 -143 27c-7 2 -18 5 -30 5c-14 0 -28 -4 -35 -19c0 -1 -1 -2 -1 -3h-31l-11 175h39
c34 -71 115 -132 198 -132c57 0 110 24 136 66c11 18 15 40 15 61c0 23 -14 45 -31 61c-22 21 -55 35 -114 57c-80 30 -212 80 -212 222c0 106 82 202 206 202c47 0 81 -11 116 -30c10 -5 25 -14 40 -14c10 0 20 4 26 16h34z" />
    <glyph glyph-name="T" unicode="T" horiz-adv-x="684" 
d="M10 718h40c21 -11 40 -14 64 -14h456c26 0 43 3 65 14h39v-180h-36c-34 75 -85 113 -155 113h-66v-558c0 -26 6 -45 50 -57v-36h-249v36c34 11 49 19 49 57v558h-56c-41 0 -126 -4 -165 -113h-36v180z" />
    <glyph glyph-name="U" unicode="U" horiz-adv-x="789" 
d="M40 700h245v-36c-48 -9 -47 -44 -47 -66v-285c0 -90 -2 -240 198 -240c196 0 204 133 204 198v332c0 22 -1 52 -57 61v36h166v-36c-52 -8 -56 -42 -56 -61v-328c0 -89 -18 -160 -79 -212c-41 -35 -112 -74 -211 -74c-148 0 -218 56 -249 87c-19 19 -66 67 -66 191v331
c0 28 -2 57 -48 66v36z" />
    <glyph glyph-name="V" unicode="V" horiz-adv-x="775" 
d="M10 700h289v-38c-46 3 -66 -20 -66 -44c0 -13 6 -30 12 -42l189 -381h15l173 388c4 10 10 21 10 35c0 38 -45 46 -68 46v36h201v-36c-40 -8 -61 -32 -82 -78l-263 -586h-38l-290 589c-15 31 -34 67 -82 75v36z" />
    <glyph glyph-name="W" unicode="W" horiz-adv-x="1046" 
d="M10 700h274v-36c-24 -3 -43 -13 -43 -40c0 -14 6 -26 13 -43l161 -381h8l69 148l-103 242c-25 59 -49 72 -69 74v36h440v-36c-38 -9 -56 -29 -76 -73l-70 -155l102 -236h6l173 383c3 8 11 26 11 35c0 35 -41 46 -68 46v36h198v-36c-45 -9 -64 -38 -81 -77l-263 -587h-51
l-118 277h-6l-125 -277h-54l-252 593c-18 43 -37 64 -76 71v36zM586 502l49 107c6 12 9 23 9 31c0 16 -12 24 -41 24h-36c-27 0 -35 -12 -35 -25c0 -11 5 -23 8 -30c0 -1 1 -2 1 -2z" />
    <glyph glyph-name="X" unicode="X" horiz-adv-x="842" 
d="M750 700v-36c-16 -1 -59 -7 -118 -77l-156 -183l267 -304c19 -21 41 -49 79 -64v-36h-303v36c28 -1 44 17 44 30c0 10 -9 21 -13 26l-183 212l-171 -197c-8 -9 -22 -24 -22 -40c0 -17 21 -32 52 -31v-36h-206v36c45 9 77 39 91 56l219 253l-228 262c-35 41 -55 52 -72 57
v36h301v-36c-18 -1 -41 -9 -41 -25c0 -15 12 -32 18 -39l134 -154l130 151c20 23 25 35 25 43c0 9 -7 24 -46 24v36h199z" />
    <glyph glyph-name="Y" unicode="Y" horiz-adv-x="722" 
d="M10 700h301v-36c-20 -2 -46 -6 -46 -28c0 -12 7 -24 13 -32l151 -192h17l122 192c10 15 14 22 14 27c0 26 -24 32 -57 33v36h187v-36c-31 -9 -51 -22 -70 -49l-196 -276v-246c0 -26 -1 -40 49 -57v-36h-252v36c26 3 53 21 53 57v247l-208 264c-32 41 -51 55 -77 60z" />
    <glyph glyph-name="Z" unicode="Z" horiz-adv-x="748" 
d="M95 562v138h579v-34l-443 -613h334c52 0 88 15 107 85h36v-138h-668v35l441 612h-228c-44 0 -105 -5 -122 -85h-36z" />
    <glyph glyph-name="bracketleft" unicode="[" horiz-adv-x="406" 
d="M328 700v-53h-94v-791h102v-53h-266v897h258z" />
    <glyph glyph-name="backslash" unicode="\" horiz-adv-x="454" 
d="M394 -197l-394 897h60l394 -897h-60z" />
    <glyph glyph-name="bracketright" unicode="]" horiz-adv-x="406" 
d="M78 700h258v-897h-266v53h102v791h-94v53z" />
    <glyph glyph-name="asciicircum" unicode="^" horiz-adv-x="434" 
d="M217 700l175 -180h-99l-76 78l-76 -78h-99z" />
    <glyph glyph-name="underscore" unicode="_" horiz-adv-x="545" 
d="M0 -118h545v-79h-545v79z" />
    <glyph glyph-name="quoteleft" unicode="&#x2018;" horiz-adv-x="300" 
d="M210 711l19 -29c-53 -32 -74 -62 -84 -78l1 -4h4c41 0 80 -30 80 -77c0 -45 -34 -77 -77 -77c-40 0 -83 26 -83 93c0 87 78 148 140 172z" />
    <glyph glyph-name="a" unicode="a" horiz-adv-x="430" 
d="M416 52v-34c-10 -10 -31 -26 -68 -26c-11 0 -53 2 -78 55h-5c-37 -38 -72 -55 -125 -55c-92 0 -112 62 -112 97c0 62 32 146 219 150v28c0 80 -23 88 -48 88c-20 0 -31 -3 -56 -43c-10 -15 -21 -29 -42 -29c-19 0 -37 12 -37 36c0 44 59 76 146 76
c158 0 160 -126 160 -170v-129c0 -21 1 -45 36 -45c3 0 7 0 10 1zM247 130v69c-49 0 -91 -38 -91 -97c0 -45 25 -54 41 -54c50 0 50 61 50 82z" />
    <glyph glyph-name="b" unicode="b" horiz-adv-x="497" 
d="M32 703h158v-350c29 27 62 42 110 42c96 0 169 -82 169 -195c0 -119 -73 -208 -192 -208c-34 0 -59 7 -85 16c-12 4 -29 11 -46 11s-33 -7 -44 -27h-35v621c0 20 -2 51 -35 55v35zM190 227v-124c0 -43 33 -71 70 -71c69 0 72 67 72 132v21c0 84 -2 146 -73 146
c-59 0 -69 -44 -69 -104z" />
    <glyph glyph-name="c" unicode="c" horiz-adv-x="403" 
d="M352 99l27 -24c-39 -46 -96 -83 -172 -83c-128 0 -179 103 -179 199c0 123 91 204 199 204c92 0 138 -51 138 -90c0 -33 -25 -48 -49 -48c-14 0 -48 6 -56 50c-5 25 -3 49 -36 49c-57 0 -59 -87 -59 -152v-59c0 -70 37 -98 80 -98s84 30 107 52z" />
    <glyph glyph-name="d" unicode="d" horiz-adv-x="495" 
d="M268 703h159v-613c0 -19 2 -48 36 -55v-35h-159v33h-6c-29 -29 -60 -41 -102 -41c-113 0 -168 88 -168 203c0 166 105 200 162 200c19 0 76 -4 110 -50h4v269c0 6 0 48 -36 54v35zM304 127v112c0 19 0 92 -62 92c-74 0 -77 -88 -77 -149v-5c0 -38 2 -132 77 -132
c53 0 62 63 62 82z" />
    <glyph glyph-name="e" unicode="e" horiz-adv-x="409" 
d="M381 210h-216v-50c0 -73 23 -114 82 -114c40 0 68 22 99 58l29 -28c-21 -31 -71 -84 -156 -84c-133 0 -191 103 -191 193c0 92 59 210 192 210c105 0 161 -87 161 -180v-5zM271 250v16c0 81 -30 89 -52 89c-27 0 -54 -15 -54 -89v-16h106z" />
    <glyph glyph-name="f" unicode="f" horiz-adv-x="306" 
d="M289 388v-40h-85v-258c0 -31 9 -49 36 -55v-35h-195v35c34 7 36 36 36 55v258h-49v40h49v115c0 80 15 151 75 187c21 13 51 22 74 22c61 0 90 -38 90 -73c0 -24 -17 -48 -46 -48s-44 22 -44 50l2 14c0 12 -11 17 -17 17c-15 0 -39 -16 -39 -44c0 -20 5 -41 13 -60l2 -5
c8 -18 13 -30 13 -60v-115h85z" />
    <glyph glyph-name="g" unicode="g" horiz-adv-x="479" 
d="M58 -27l-25 40c24 40 60 92 96 130c-51 11 -98 50 -98 114c0 84 79 135 178 135c48 0 83 -9 117 -31c13 15 44 46 79 46c24 0 43 -14 43 -33c0 -24 -13 -38 -32 -38c-29 0 -24 26 -41 26c-9 0 -20 -5 -25 -15c22 -18 42 -44 42 -82c0 -92 -79 -137 -182 -137
c-16 0 -31 2 -47 4c-16 -16 -28 -32 -37 -49l1 -2c47 9 71 14 105 14c118 0 199 -60 199 -139c0 -51 -37 -128 -193 -128h-6c-132 2 -172 42 -172 75c0 24 14 49 51 49c27 0 42 -15 42 -33c0 -9 -1 -17 -1 -26c0 -15 17 -35 80 -35c104 0 129 46 129 74c0 33 -33 64 -131 64
c-55 0 -123 -9 -172 -23zM212 165c50 0 52 47 52 71v47c0 66 -33 72 -52 72c-28 0 -53 -9 -53 -72v-47c0 -45 12 -71 53 -71z" />
    <glyph glyph-name="h" unicode="h" horiz-adv-x="483" 
d="M191 703v-361h6c5 6 46 53 115 53c103 0 103 -89 103 -145v-160c0 -31 9 -49 36 -55v-35h-195v35c34 7 36 36 36 55v183c0 9 -4 49 -48 49c-37 0 -53 -31 -53 -69v-163c0 -19 2 -48 36 -55v-35h-195v35c27 6 36 24 36 55v524c0 27 -8 47 -36 54v35h159z" />
    <glyph glyph-name="i" unicode="i" horiz-adv-x="260" 
d="M192 387v-297c0 -26 8 -48 36 -55v-35h-196v35c25 6 37 24 37 55v208c0 25 -10 51 -37 54v35h160zM63 568c0 34 30 64 64 64c33 0 63 -29 63 -64c0 -33 -30 -63 -63 -63c-35 0 -64 30 -64 63z" />
    <glyph glyph-name="j" unicode="j" horiz-adv-x="252" 
d="M37 387h159v-434c0 -44 -13 -150 -129 -150c-60 0 -81 38 -81 65c0 24 19 40 41 40c20 0 34 -11 39 -26c6 -17 1 -39 29 -39c13 0 25 10 25 29c0 23 -19 53 -27 67c-10 16 -20 32 -20 76v276c0 35 -1 54 -36 61v35zM70 567c0 42 35 64 63 64c33 0 63 -29 63 -64
c0 -27 -22 -62 -64 -62c-35 0 -62 27 -62 62z" />
    <glyph glyph-name="k" unicode="k" horiz-adv-x="464" 
d="M274 387h176v-35c-17 -3 -51 -12 -90 -46l-45 -40l99 -184c7 -12 20 -41 50 -47v-35h-202v35c17 0 23 8 23 18c0 7 -3 14 -16 39l-47 95l-30 -25v-72c0 -26 8 -48 36 -55v-35h-196v35c25 6 37 24 37 55v523c0 19 -4 48 -37 55v35h160v-488h5l77 66c24 21 40 35 40 50
c0 18 -25 21 -40 21v35z" />
    <glyph glyph-name="l" unicode="l" horiz-adv-x="259" 
d="M32 0v35c28 7 36 29 36 55v513c0 24 0 56 -36 65v35h159v-613c0 -19 2 -48 36 -55v-35h-195z" />
    <glyph glyph-name="m" unicode="m" horiz-adv-x="711" 
d="M32 387h159v-52h5c36 51 87 60 117 60c43 0 80 -22 101 -60h5c26 34 68 60 122 60c102 0 102 -97 102 -115v-190c0 -19 2 -48 36 -55v-35h-195v35c20 5 36 21 36 55v168c0 29 -1 65 -41 65c-23 0 -50 -12 -62 -43v-190c0 -31 12 -49 37 -55v-35h-197v35c25 6 37 24 37 55
v168c0 31 -1 65 -42 65c-25 0 -61 -20 -61 -44v-189c0 -18 4 -49 36 -55v-35h-195v35c34 7 36 36 36 55v208c0 15 0 49 -36 54v35z" />
    <glyph glyph-name="n" unicode="n" horiz-adv-x="482" 
d="M32 0v35c27 7 36 22 36 55v208c0 27 -8 49 -36 54v35h159v-49h2c30 36 71 57 117 57c94 0 105 -76 105 -146v-159c0 -25 1 -44 35 -57v-33h-194v35c34 7 36 36 36 55v170c0 27 -5 61 -44 61c-26 0 -57 -21 -57 -61v-170c0 -19 2 -48 36 -55v-35h-195z" />
    <glyph glyph-name="o" unicode="o" horiz-adv-x="458" 
d="M229 -8c-122 0 -201 85 -201 203c0 111 78 200 201 200c119 0 201 -86 201 -200c0 -120 -83 -203 -201 -203zM229 32c58 0 64 51 64 112v102c0 60 -6 109 -64 109s-64 -49 -64 -109v-102c0 -61 6 -112 64 -112z" />
    <glyph glyph-name="p" unicode="p" horiz-adv-x="533" 
d="M32 -197v35c41 5 42 39 42 49v318c0 146 120 190 217 190c127 0 214 -78 214 -196c0 -113 -72 -199 -180 -199c-34 0 -78 4 -122 31h-6v-144c0 -33 27 -46 44 -49v-35h-209zM197 266v-143c0 -41 38 -72 88 -72c76 0 83 73 83 151c0 86 -8 153 -87 153
c-41 0 -84 -26 -84 -89z" />
    <glyph glyph-name="q" unicode="q" horiz-adv-x="492" 
d="M424 395v-502c0 -23 6 -47 36 -55v-35h-196v35c33 7 37 36 37 55v133h-8c-33 -29 -65 -34 -91 -34c-49 0 -127 17 -161 115c-8 23 -13 48 -13 72c0 59 17 116 51 155c26 29 73 61 141 61c34 0 52 -8 79 -18c28 -11 44 -13 56 -13c15 0 32 12 42 31h27zM301 132v162
c0 36 -25 61 -58 61c-67 0 -78 -52 -78 -164c0 -81 5 -136 73 -136c38 0 63 26 63 77z" />
    <glyph glyph-name="r" unicode="r" horiz-adv-x="331" 
d="M32 387h138v-56h5c12 22 39 64 85 64c30 0 57 -16 57 -53c0 -32 -24 -51 -49 -51c-7 0 -15 2 -21 5c-14 7 -20 18 -30 18s-26 -7 -26 -41v-183c0 -18 4 -49 36 -55v-35h-195v35c34 7 36 36 36 55v208c0 15 0 49 -36 54v35z" />
    <glyph glyph-name="s" unicode="s" horiz-adv-x="353" 
d="M176 -8c-99 0 -144 37 -144 76c0 30 21 46 43 46c20 0 41 -9 48 -34c4 -14 2 -27 16 -38c3 -2 14 -10 38 -10c39 0 56 26 56 50c0 35 -28 51 -73 70c-37 16 -75 29 -99 52c-13 13 -29 35 -29 68c0 57 40 123 143 123c76 0 122 -40 122 -74c0 -15 -9 -33 -36 -33
s-34 23 -37 35c-3 10 -11 32 -48 32s-48 -24 -48 -39c0 -28 28 -40 49 -49c62 -26 123 -50 145 -108c4 -11 7 -23 7 -35c0 -71 -51 -132 -153 -132z" />
    <glyph glyph-name="t" unicode="t" horiz-adv-x="314" 
d="M32 391h49v91l123 39v-130h81v-40h-81v-261c0 -46 26 -48 37 -48c18 0 32 6 39 10l13 -29c-38 -28 -84 -31 -103 -31c-55 0 -109 16 -109 117v242h-49v40z" />
    <glyph glyph-name="u" unicode="u" horiz-adv-x="484" 
d="M416 387v-297c0 -33 9 -48 36 -55v-35h-159v45h-6c-22 -24 -61 -53 -115 -53c-83 0 -103 62 -103 102v204c0 25 -10 51 -37 54v35h160v-260c0 -17 2 -61 44 -61c26 0 57 21 57 61v171c0 14 -2 50 -36 54v35h159z" />
    <glyph glyph-name="v" unicode="v" horiz-adv-x="464" 
d="M430 387v-35c-36 -7 -45 -38 -52 -58l-110 -302h-29l-145 309c-15 31 -24 45 -60 51v35h219v-35c-14 0 -27 -7 -32 -16c-3 -5 -4 -10 -4 -14c0 -10 6 -19 10 -28l60 -128h5l46 128c5 14 7 22 7 30c0 17 -17 28 -35 28h-2v35h122z" />
    <glyph glyph-name="w" unicode="w" horiz-adv-x="731" 
d="M34 387h226v-35h-10c-21 0 -42 -14 -42 -37c0 -7 3 -15 6 -21l71 -149h6l91 242h40l117 -242h6l56 149c7 19 8 28 8 33c0 17 -18 25 -28 25h-7v35h126v-35c-31 -7 -43 -28 -54 -58l-114 -302h-44l-111 231h-3l-88 -231h-44l-146 302c-6 13 -21 53 -62 58v35z" />
    <glyph glyph-name="x" unicode="x" horiz-adv-x="481" 
d="M32 387h219v-35h-3c-11 0 -24 -5 -24 -24c0 -10 11 -25 16 -33l23 -33h7l26 32c10 12 17 21 17 32c0 16 -16 25 -32 26v35h143v-35c-20 -4 -41 -16 -73 -54l-62 -74l110 -153c8 -12 20 -29 50 -36v-35h-221v35h5c12 0 23 7 23 23c0 8 -3 19 -18 41l-32 45h-6l-34 -41
c-6 -7 -21 -28 -21 -42c0 -17 13 -23 30 -26v-35h-142v35c32 11 44 24 68 53l78 93l-85 119c-25 35 -39 50 -62 52v35z" />
    <glyph glyph-name="y" unicode="y" horiz-adv-x="440" 
d="M447 387v-35h-6c-22 0 -42 -16 -70 -75l-179 -368c-27 -55 -50 -104 -113 -106h-4c-53 0 -75 37 -75 66c0 27 19 51 54 51c17 0 30 -6 40 -11c1 0 1 -1 1 -1c15 -9 24 -17 35 -17c16 0 24 22 32 38l33 66l-125 297c-21 51 -46 59 -63 60v35h231v-35h-5
c-32 0 -33 -20 -33 -27c0 -11 7 -23 10 -32l57 -143h4l66 134c13 27 11 41 11 44c0 12 -11 24 -37 24h-3v35h139z" />
    <glyph glyph-name="z" unicode="z" horiz-adv-x="420" 
d="M54 283v104h338v-12l-201 -335h89c31 0 66 4 77 64h35v-104h-364v16l200 331h-66c-54 0 -71 -35 -73 -64h-35z" />
    <glyph glyph-name="braceleft" unicode="{" horiz-adv-x="406" 
d="M70 218v67c39 4 88 32 88 137c0 18 -1 37 -2 55s-2 35 -2 53c0 142 93 170 166 170h16v-54c-33 -7 -70 -30 -70 -96c0 -47 6 -72 6 -111c0 -89 -36 -149 -115 -184v-7c79 -35 115 -95 115 -184c0 -39 -6 -64 -6 -111c0 -66 37 -89 70 -96v-54h-16c-73 0 -166 28 -166 170
c0 18 1 35 2 53s2 37 2 55c0 105 -49 133 -88 137z" />
    <glyph glyph-name="bar" unicode="|" horiz-adv-x="219" 
d="M70 829h79v-1053h-79v1053z" />
    <glyph glyph-name="braceright" unicode="}" horiz-adv-x="406" 
d="M336 218c-39 -4 -88 -32 -88 -137c0 -18 1 -37 2 -55s2 -35 2 -53c0 -142 -93 -170 -166 -170h-16v54c33 7 70 30 70 96c0 47 -6 72 -6 111c0 89 36 149 115 184v7c-79 35 -115 95 -115 184c0 39 6 64 6 111c0 66 -37 89 -70 96v54h16c73 0 166 -28 166 -170
c0 -18 -1 -35 -2 -53s-2 -37 -2 -55c0 -105 49 -133 88 -137v-67z" />
    <glyph glyph-name="asciitilde" unicode="~" horiz-adv-x="640" 
d="M127 293h-57c27 65 96 132 174 132c42 0 81 -14 144 -33c21 -6 42 -11 59 -11c30 0 54 20 67 35h56c-41 -98 -113 -131 -167 -131c-24 0 -48 8 -72 16c-76 24 -105 29 -121 29c-32 0 -62 -11 -83 -37z" />
    <glyph glyph-name="exclamdown" unicode="&#xa1;" horiz-adv-x="301" 
d="M70 -197l62 497h36l63 -497h-161zM75 419c0 42 34 76 76 76s76 -34 76 -76s-34 -76 -76 -76s-76 34 -76 76z" />
    <glyph glyph-name="cent" unicode="&#xa2;" horiz-adv-x="403" 
d="M352 99l27 -24c-52 -60 -106 -74 -131 -79v-104h-71v102c-101 13 -149 103 -149 197c0 88 51 173 149 200v103h71v-101c79 -8 117 -53 117 -88c0 -33 -25 -48 -49 -48c-14 0 -48 6 -56 50c-5 25 -3 49 -36 49c-59 0 -59 -93 -59 -159v-52c0 -70 37 -98 80 -98
s84 30 107 52z" />
    <glyph glyph-name="sterling" unicode="&#xa3;" horiz-adv-x="747" 
d="M644 127l33 -31c-54 -60 -109 -107 -178 -107c-58 0 -110 30 -167 67h-11c-41 -51 -98 -67 -138 -67c-80 0 -110 45 -110 80c0 56 52 118 154 118c21 0 50 -5 62 -7l4 2c-14 60 -41 96 -86 159h-137v53h115c-12 32 -18 65 -18 93c0 132 111 224 264 224
c111 0 175 -55 175 -111c0 -46 -31 -78 -69 -78c-33 0 -71 17 -71 68c0 26 10 40 17 48v6c-15 8 -35 15 -52 15c-54 0 -115 -37 -115 -113c0 -51 19 -108 42 -152h183v-53h-170c9 -29 15 -71 15 -124c0 -30 -8 -53 -15 -73c40 -22 121 -59 179 -59c24 0 58 7 94 42zM280 86
c-40 28 -79 32 -91 32c-52 0 -63 -31 -63 -49c0 -16 19 -36 56 -36c36 0 73 25 98 53z" />
    <glyph glyph-name="fraction" unicode="&#x2044;" horiz-adv-x="194" 
d="M-70 -197h-60l394 897h60z" />
    <glyph glyph-name="yen" unicode="&#xa5;" horiz-adv-x="722" 
d="M10 700h301v-36c-20 -2 -46 -6 -46 -28c0 -13 9 -27 13 -32l157 -199l133 199c3 4 14 19 14 27c0 26 -24 32 -57 33v36h187v-36c-30 -8 -51 -22 -70 -49l-156 -226h130v-50h-170v-45h170v-50h-170v-154c0 -24 1 -38 49 -54v-36h-252v36c26 3 53 21 53 57v151h-170v50h170
v45h-170v50h130l-168 215c-31 40 -51 56 -78 60v36z" />
    <glyph glyph-name="florin" unicode="&#x192;" horiz-adv-x="498" 
d="M115 393l11 40h17c26 0 47 13 59 23c18 15 24 28 31 49c11 30 22 64 43 102c45 81 121 105 168 105c17 0 42 -4 59 -15c15 -10 28 -28 28 -49c0 -35 -27 -54 -54 -54c-17 0 -31 9 -38 19c-9 14 -8 30 -12 42c-4 13 -13 18 -20 18c-9 0 -19 -4 -26 -17
c-4 -8 -7 -20 -9 -43c-3 -30 -5 -72 -16 -125l-11 -55h101l-12 -40h-97c-15 -85 -56 -315 -88 -415c-15 -48 -32 -85 -73 -122c-44 -39 -89 -53 -126 -53c-48 0 -82 27 -82 68c0 29 23 55 54 55c29 0 50 -20 53 -67v-2c1 -7 2 -14 12 -14c5 0 25 0 37 43c14 49 2 64 36 249
l47 258h-92z" />
    <glyph glyph-name="section" unicode="&#xa7;" horiz-adv-x="556" 
d="M290 711c85 0 148 -39 148 -93c0 -33 -16 -69 -58 -69c-26 0 -52 12 -52 42l10 42c0 12 -17 34 -52 34c-47 0 -80 -29 -80 -71c0 -49 43 -76 97 -108l19 -11c79 -46 164 -94 164 -187c0 -47 -33 -114 -102 -125v-9c44 -37 69 -76 69 -124c0 -79 -57 -186 -191 -186
c-73 0 -152 32 -152 107c0 37 20 77 62 77c36 0 58 -23 58 -53c0 -31 -17 -36 -17 -52c0 -17 25 -33 66 -33c58 0 87 52 87 92c0 42 -35 61 -63 77l-34 19c-102 57 -199 110 -199 209c0 61 39 115 110 128v5c-33 32 -67 82 -67 131c0 104 84 158 177 158zM413 237
c0 21 -12 60 -174 144c-13 7 -27 11 -42 11c-34 0 -44 -28 -45 -46v-5c0 -33 28 -54 62 -78c89 -63 122 -76 148 -76c42 0 51 31 51 50z" />
    <glyph glyph-name="currency" unicode="&#xa4;" horiz-adv-x="750" 
d="M125 644l91 -91c47 35 104 53 159 53c85 0 141 -40 158 -53l92 92l55 -55l-92 -92c13 -17 53 -73 53 -158c0 -55 -18 -112 -53 -159l91 -91l-54 -55l-91 91c-18 -14 -75 -52 -159 -52s-141 38 -159 52l-91 -91l-55 55l92 92c-13 18 -53 73 -53 158s40 140 53 158l-92 92z
M194 340c0 -99 83 -181 181 -181c99 0 181 82 181 181s-82 181 -181 181c-98 0 -181 -82 -181 -181z" />
    <glyph glyph-name="quotesingle" unicode="'" horiz-adv-x="258" 
d="M188 700l-40 -206h-38l-40 206h118z" />
    <glyph glyph-name="quotedblleft" unicode="&#x201c;" horiz-adv-x="515" 
d="M210 711l19 -29c-53 -32 -74 -62 -84 -78l1 -4h4c41 0 80 -30 80 -77c0 -45 -34 -77 -77 -77c-40 0 -83 26 -83 93c0 87 78 148 140 172zM425 711l19 -29c-53 -32 -74 -62 -84 -78l1 -4h7c33 -1 77 -26 77 -77c0 -45 -34 -77 -77 -77c-40 0 -83 26 -83 93
c0 87 78 148 140 172z" />
    <glyph glyph-name="guillemotleft" unicode="&#xab;" horiz-adv-x="526" 
d="M227 16l-157 177l157 179l43 -39l-96 -140l96 -138zM413 16l-157 177l157 179l43 -39l-96 -140l96 -138z" />
    <glyph glyph-name="guilsinglleft" unicode="&#x2039;" horiz-adv-x="340" 
d="M231 16l-161 177l161 177l39 -39l-92 -138l92 -138z" />
    <glyph glyph-name="guilsinglright" unicode="&#x203a;" horiz-adv-x="340" 
d="M109 16l-39 39l92 138l-92 138l39 39l161 -177z" />
    <glyph glyph-name="endash" unicode="&#x2013;" horiz-adv-x="759" 
d="M70 162v79h619v-79h-619z" />
    <glyph glyph-name="dagger" unicode="&#x2020;" horiz-adv-x="531" 
d="M287 -195h-46l-16 274c-7 115 -12 143 -55 232c40 42 57 83 63 141c-44 -1 -94 -23 -120 -64c-41 1 -71 44 -71 80c0 45 29 78 71 85c18 -36 73 -60 120 -61c1 7 1 14 1 21c0 42 -11 93 -54 127c8 42 50 71 84 71s76 -29 84 -71c-43 -34 -54 -85 -54 -127
c0 -7 0 -14 1 -21c47 1 102 25 120 61c42 -7 71 -40 71 -85c0 -36 -30 -79 -71 -80c-26 41 -76 63 -120 64c6 -58 23 -99 63 -141c-43 -89 -48 -117 -55 -232z" />
    <glyph glyph-name="daggerdbl" unicode="&#x2021;" horiz-adv-x="531" 
d="M264 711c43 -3 77 -34 84 -71c-43 -34 -54 -85 -54 -127c0 -7 0 -14 1 -21c47 1 102 25 120 61c42 -7 71 -40 71 -85c0 -36 -30 -79 -71 -80c-26 41 -76 63 -120 64c-1 -9 -1 -18 -1 -26c0 -102 52 -156 64 -168c-12 -12 -64 -66 -64 -168c0 -8 0 -17 1 -26
c44 1 94 23 120 64c41 -1 71 -44 71 -80c0 -45 -29 -78 -71 -85c-18 36 -73 60 -120 61c-1 -7 -1 -14 -1 -21c0 -42 11 -93 54 -127c-7 -37 -41 -68 -84 -71c-43 3 -77 34 -84 71c43 34 54 85 54 127c0 7 0 14 -1 21c-47 -1 -102 -25 -120 -61c-42 7 -71 40 -71 85
c0 36 30 79 71 80c26 -41 76 -63 120 -64c1 9 1 18 1 26c0 102 -52 156 -64 168c12 12 64 66 64 168c0 8 0 17 -1 26c-44 -1 -94 -23 -120 -64c-41 1 -71 44 -71 80c0 45 29 78 71 85c18 -36 73 -60 120 -61c1 7 1 14 1 21c0 42 -11 93 -54 127c7 37 41 68 84 71z" />
    <glyph glyph-name="periodcentered" unicode="&#xb7;" horiz-adv-x="250" 
d="M49 188c0 42 34 76 76 76s76 -34 76 -76s-34 -76 -76 -76s-76 34 -76 76z" />
    <glyph glyph-name="periodcentered" unicode="&#x22c5;" horiz-adv-x="250" 
d="M49 188c0 42 34 76 76 76s76 -34 76 -76s-34 -76 -76 -76s-76 34 -76 76z" />
    <glyph glyph-name="periodcentered" unicode="&#x2219;" horiz-adv-x="250" 
d="M49 188c0 42 34 76 76 76s76 -34 76 -76s-34 -76 -76 -76s-76 34 -76 76z" />
    <glyph glyph-name="paragraph" unicode="&#xb6;" horiz-adv-x="625" 
d="M555 695v-53h-55v-839h-78v839h-100v-839h-78v626h-9c-64 0 -165 21 -165 132c0 121 101 134 171 134h314z" />
    <glyph glyph-name="bullet" unicode="&#x2022;" horiz-adv-x="352" 
d="M70 325c0 59 47 106 106 106s106 -47 106 -106s-47 -106 -106 -106s-106 47 -106 106z" />
    <glyph glyph-name="quotesinglbase" unicode="&#x201a;" horiz-adv-x="300" 
d="M90 -119l-19 29c53 32 74 62 84 78l-1 4h-7c-33 1 -77 26 -77 77c0 45 34 77 77 77c40 0 83 -26 83 -93c0 -87 -78 -148 -140 -172z" />
    <glyph glyph-name="quotedblbase" unicode="&#x201e;" horiz-adv-x="515" 
d="M90 -119l-19 29c53 32 74 62 84 78l-1 4h-7c-33 1 -77 26 -77 77c0 45 34 77 77 77c40 0 83 -26 83 -93c0 -87 -78 -148 -140 -172zM305 -119l-19 29c53 32 74 62 84 78l-1 4h-4c-41 0 -80 30 -80 77c0 45 34 77 77 77c40 0 83 -26 83 -93c0 -87 -78 -148 -140 -172z" />
    <glyph glyph-name="quotedblright" unicode="&#x201d;" horiz-adv-x="515" 
d="M90 446l-19 29c53 32 74 62 84 78l-1 4h-7c-33 1 -77 26 -77 77c0 45 34 77 77 77c40 0 83 -26 83 -93c0 -87 -78 -148 -140 -172zM305 446l-19 29c53 32 74 62 84 78l-1 4h-4c-41 0 -80 30 -80 77c0 45 34 77 77 77c40 0 83 -26 83 -93c0 -87 -78 -148 -140 -172z" />
    <glyph glyph-name="guillemotright" unicode="&#xbb;" horiz-adv-x="526" 
d="M113 17l-43 39l96 138l-96 140l43 39l157 -179zM299 17l-43 39l96 138l-96 140l43 39l157 -179z" />
    <glyph glyph-name="ellipsis" unicode="&#x2026;" horiz-adv-x="880" 
d="M70 68c0 42 34 76 76 76s76 -34 76 -76s-34 -76 -76 -76s-76 34 -76 76zM364 68c0 42 34 76 76 76s76 -34 76 -76s-34 -76 -76 -76s-76 34 -76 76zM658 68c0 42 34 76 76 76s76 -34 76 -76s-34 -76 -76 -76s-76 34 -76 76z" />
    <glyph glyph-name="perthousand" unicode="&#x2030;" horiz-adv-x="1425" 
d="M70 596c0 135 87 202 171 202s171 -67 171 -202c0 -138 -86 -202 -171 -202s-171 64 -171 202zM184 642v-92c0 -64 1 -120 57 -120s57 56 57 120v98c0 56 -1 113 -57 113s-57 -57 -57 -113v-6zM289 -69l334 779l49 -21l-336 -778zM568 109c0 135 87 202 171 202
s171 -67 171 -202c0 -138 -86 -202 -171 -202s-171 64 -171 202zM682 155v-92c0 -64 1 -120 57 -120s57 56 57 120v98c0 56 -1 113 -57 113s-57 -57 -57 -113v-6zM1013 109c0 135 87 202 171 202s171 -67 171 -202c0 -138 -86 -202 -171 -202s-171 64 -171 202zM1127 155
v-92c0 -64 1 -120 57 -120s57 56 57 120v98c0 56 -1 113 -57 113s-57 -57 -57 -113v-6z" />
    <glyph glyph-name="questiondown" unicode="&#xbf;" horiz-adv-x="459" 
d="M184 294l-5 -63c42 29 77 31 85 31c63 0 125 -42 125 -154c0 -57 -22 -134 -76 -204c-57 -74 -113 -101 -163 -101c-58 0 -80 42 -80 68c0 30 23 55 57 55s42 -24 44 -41c1 -6 0 -12 0 -19c0 -4 0 -14 13 -14c34 0 71 109 71 231c0 92 -50 95 -54 95
c-13 0 -29 -7 -40 -15h-29l16 131h36zM89 429c0 42 34 76 76 76s76 -34 76 -76s-34 -76 -76 -76s-76 34 -76 76z" />
    <glyph glyph-name="grave" unicode="`" horiz-adv-x="322" 
d="M252 517l-15 -19l-122 80c-20 13 -45 26 -45 53c0 24 17 40 42 40c23 0 37 -15 53 -36z" />
    <glyph glyph-name="acute" unicode="&#xb4;" horiz-adv-x="322" 
d="M70 517l87 118c16 21 30 36 53 36c25 0 42 -16 42 -40c0 -27 -25 -40 -45 -53l-122 -80z" />
    <glyph glyph-name="circumflex" unicode="&#x2c6;" horiz-adv-x="408" 
d="M204 594l-97 -96h-37l103 170h62l103 -170h-37z" />
    <glyph glyph-name="tilde" unicode="&#x2dc;" horiz-adv-x="442" 
d="M103 504h-33c17 60 66 101 102 101c8 0 29 -1 90 -24l3 -1c12 -5 23 -9 33 -9c13 0 26 7 40 28h34c-25 -67 -65 -101 -101 -101c-15 0 -30 6 -45 12c-24 10 -47 21 -69 21c-18 0 -36 -7 -54 -27z" />
    <glyph glyph-name="macron" unicode="&#xaf;" horiz-adv-x="385" 
d="M70 498v45h245v-45h-245z" />
    <glyph glyph-name="macron" unicode="&#x2c9;" horiz-adv-x="385" 
d="M70 498v45h245v-45h-245z" />
    <glyph glyph-name="breve" unicode="&#x2d8;" horiz-adv-x="406" 
d="M70 639h35c16 -60 60 -82 98 -82s82 22 98 82h35c-7 -53 -33 -141 -133 -141s-126 88 -133 141z" />
    <glyph glyph-name="dotaccent" unicode="&#x2d9;" horiz-adv-x="268" 
d="M70 562c0 34 30 64 64 64s64 -30 64 -64s-30 -64 -64 -64s-64 30 -64 64z" />
    <glyph glyph-name="dieresis" unicode="&#xa8;" horiz-adv-x="464" 
d="M70 562c0 34 30 64 64 64s64 -30 64 -64s-30 -64 -64 -64s-64 30 -64 64zM266 562c0 34 30 64 64 64s64 -30 64 -64s-30 -64 -64 -64s-64 30 -64 64z" />
    <glyph glyph-name="ring" unicode="&#x2da;" horiz-adv-x="304" 
d="M70 580c0 45 37 82 82 82s82 -37 82 -82s-37 -82 -82 -82s-82 37 -82 82zM100 580c0 -29 23 -52 52 -52s52 23 52 52s-23 52 -52 52s-52 -23 -52 -52z" />
    <glyph glyph-name="cedilla" unicode="&#xb8;" horiz-adv-x="235" 
d="M99 5h43l-45 -40l1 -2c10 3 20 4 30 4c20 0 40 -5 54 -16c11 -9 23 -25 23 -49c0 -21 -10 -37 -25 -49c-20 -16 -43 -21 -70 -21c-41 0 -62 13 -71 24c-5 6 -9 14 -9 23c0 6 2 12 5 17c4 6 11 11 19 11c13 0 26 -9 22 -25c-1 -5 -3 -12 10 -19c8 -4 14 -5 21 -5
c20 0 31 9 37 17c4 5 8 13 8 25c0 13 -4 24 -15 32c-9 6 -19 9 -30 9c-13 0 -27 -4 -44 -14l-20 25z" />
    <glyph glyph-name="hungarumlaut" unicode="&#x2dd;" horiz-adv-x="464" 
d="M70 514l96 121c15 19 29 36 54 36c21 0 32 -15 32 -32c0 -26 -24 -42 -39 -53l-124 -88zM212 514l96 121c15 19 29 36 54 36c21 0 32 -15 32 -32c0 -26 -24 -42 -39 -53l-124 -88z" />
    <glyph glyph-name="ogonek" unicode="&#x2db;" horiz-adv-x="239" 
d="M167 0c-19 -6 -44 -18 -56 -28c-14 -12 -23 -29 -23 -45c0 -9 4 -18 10 -23c5 -5 14 -10 32 -10c28 0 52 14 66 23l13 -19c-9 -9 -17 -16 -29 -23c-24 -15 -48 -25 -79 -25c-16 0 -35 3 -52 18c-15 13 -19 29 -19 41c0 22 12 49 41 67c13 8 39 18 57 24h39z" />
    <glyph glyph-name="caron" unicode="&#x2c7;" horiz-adv-x="408" 
d="M204 572l97 96h37l-103 -170h-62l-103 170h37z" />
    <glyph glyph-name="emdash" unicode="&#x2014;" horiz-adv-x="1088" 
d="M70 162v79h948v-79h-948z" />
    <glyph glyph-name="AE" unicode="&#xc6;" horiz-adv-x="1151" 
d="M441 700h537c28 0 39 2 46 18h25v-179h-36c-23 88 -69 108 -161 108h-147v-253h91c47 0 86 11 86 62v2h36v-180h-36c-5 60 -49 63 -66 63h-111v-288h220c74 0 137 52 150 124h36v-177h-609v36c41 8 53 23 53 66v87h-320l-58 -76c-5 -7 -13 -23 -13 -31
c0 -30 23 -41 52 -46v-36h-216v36c20 2 56 12 108 77l371 462c7 9 25 32 27 47v7c-1 12 -7 31 -65 35v36zM555 581l-274 -339h274v339z" />
    <glyph glyph-name="ordfeminine" unicode="&#xaa;" horiz-adv-x="321" 
d="M306 459v-23c-16 -16 -36 -19 -48 -19c-26 0 -45 19 -54 39h-4c-13 -13 -21 -19 -25 -22c-13 -8 -33 -17 -62 -17c-59 0 -79 39 -79 68c0 40 23 105 151 105h3v20c0 34 -5 62 -34 62c-15 0 -27 -12 -32 -19c-9 -13 -15 -32 -37 -32c-11 0 -26 8 -26 25c0 28 38 54 103 54
c10 0 20 -2 30 -4c25 -5 82 -19 82 -118v-93c0 -11 1 -26 25 -26h7zM188 514v48h-3c-34 0 -61 -30 -61 -68c0 -28 13 -37 29 -37c28 0 35 24 35 57zM28 380h279v-28h-279v28z" />
    <glyph glyph-name="Lslash" unicode="&#x141;" horiz-adv-x="724" 
d="M79 700h251v-36c-48 -7 -49 -40 -49 -66v-129l85 75l40 -44l-125 -110v-337h227c74 0 137 52 150 124h36v-177h-615v36c47 5 52 39 52 66v156l-51 -45l-40 44l91 80v261c0 32 -5 58 -52 66v36z" />
    <glyph glyph-name="Oslash" unicode="&#xd8;" horiz-adv-x="762" 
d="M381 711c60 0 153 -10 246 -100l90 79l40 -44l-91 -80c57 -83 68 -164 68 -217c0 -198 -148 -360 -353 -360c-99 0 -186 35 -253 105l-83 -73l-40 44l86 75c-29 42 -63 111 -63 209c0 201 151 362 353 362zM381 658c-114 0 -187 -55 -187 -310c0 -39 3 -80 6 -112
l345 304c-7 24 -38 118 -164 118zM560 473l-347 -304c33 -104 96 -127 168 -127c113 0 187 54 187 306c0 26 -1 79 -8 125z" />
    <glyph glyph-name="OE" unicode="&#x152;" horiz-adv-x="1118" 
d="M1079 0h-579c-32 -8 -65 -11 -97 -11c-197 0 -355 159 -355 361c0 217 164 361 355 361c32 0 65 -3 97 -11h443c28 0 39 2 46 18h25v-179h-36c-23 88 -69 108 -161 108h-167v-253h111c47 0 86 11 86 62v2h36v-180h-36c-5 62 -46 63 -86 63h-111v-288h243
c74 0 137 52 150 124h36v-177zM404 658c-90 0 -190 -56 -190 -307c0 -254 99 -309 190 -309c30 0 65 9 96 30v556c-31 21 -66 30 -96 30z" />
    <glyph glyph-name="ordmasculine" unicode="&#xba;" horiz-adv-x="324" 
d="M31 380h276v-28h-276v28zM169 417c-48 0 -141 28 -141 143c0 103 83 140 141 140c43 0 141 -30 141 -140c0 -115 -98 -143 -141 -143zM169 445c41 0 45 37 45 80v70c0 42 -4 77 -45 77s-45 -35 -45 -77v-70c0 -43 4 -80 45 -80z" />
    <glyph glyph-name="ae" unicode="&#xe6;" horiz-adv-x="614" 
d="M586 210h-216v-50c0 -110 55 -112 82 -112c45 0 64 16 99 56l29 -28c-51 -77 -117 -84 -156 -84c-58 0 -96 16 -131 55h-7c-36 -38 -76 -55 -125 -55c-100 0 -133 54 -133 97c0 38 8 145 219 150v28c0 80 -23 88 -48 88c-10 0 -28 -1 -46 -27c-13 -19 -22 -45 -52 -45
c-19 0 -37 12 -37 36c0 43 58 76 147 76c31 0 74 -8 107 -32h2c15 11 48 32 105 32c125 0 159 -116 161 -185zM476 250v16c0 81 -30 89 -52 89c-27 0 -54 -15 -54 -89v-16h106zM247 130v69c-49 0 -91 -38 -91 -97c0 -45 25 -54 41 -54c50 0 50 61 50 82z" />
    <glyph glyph-name="dotlessi" unicode="&#x131;" horiz-adv-x="252" 
d="M188 387v-297c0 -26 8 -48 36 -55v-35h-196v35c5 1 10 3 15 6c13 8 22 21 22 49v208c0 25 -10 51 -37 54v35h160z" />
    <glyph glyph-name="lslash" unicode="&#x142;" horiz-adv-x="346" 
d="M77 0v35c28 7 36 29 36 55v169l-94 -67l-26 38l120 86v287c0 24 0 56 -36 65v35h159v-297l91 65l26 -38l-117 -84v-259c0 -19 2 -48 36 -55v-35h-195z" />
    <glyph glyph-name="oslash" unicode="&#xf8;" horiz-adv-x="598" 
d="M144 59l-93 -68l-23 32l94 70c-13 24 -23 55 -23 102c0 111 78 200 201 200c30 0 93 -6 148 -61l96 70l26 -33l-97 -71c16 -26 28 -57 28 -105c0 -120 -83 -203 -201 -203c-42 0 -106 10 -156 67zM364 195v25l-128 -93v-5c0 -54 16 -90 64 -90c58 0 64 51 64 112v51z
M236 177l128 94c-2 52 -17 84 -64 84c-58 0 -64 -49 -64 -109v-69z" />
    <glyph glyph-name="oe" unicode="&#x153;" horiz-adv-x="660" 
d="M626 76c-55 -80 -132 -84 -156 -84c-50 0 -85 13 -116 36h-6c-33 -24 -77 -36 -119 -36c-122 0 -201 85 -201 203c0 111 78 200 201 200c32 0 78 -6 124 -40h2c20 16 56 40 116 40c125 0 159 -117 161 -185h-216v-50c0 -73 23 -114 82 -114c40 0 68 22 99 58zM229 32
c58 0 64 51 64 112v102c0 60 -6 109 -64 109s-64 -49 -64 -109v-102c0 -61 6 -112 64 -112zM522 250v16c0 81 -30 89 -52 89c-27 0 -54 -15 -54 -89v-16h106z" />
    <glyph glyph-name="germandbls" unicode="&#xdf;" horiz-adv-x="498" 
d="M32 0v35c24 3 39 23 39 49v222c0 39 -21 51 -39 55v35h39v112c0 144 101 203 191 203c91 0 173 -51 173 -156c0 -76 -48 -144 -129 -171v-6c101 -16 158 -91 158 -202c0 -114 -73 -184 -153 -184c-48 0 -84 27 -84 75c0 38 20 58 41 58c19 0 25 -14 25 -26
c0 -10 -5 -18 -9 -27c-3 -6 -6 -12 -6 -19c0 -10 8 -21 22 -21c25 0 33 22 33 56v169c0 68 -30 100 -94 103v35h6c69 0 76 33 76 92v78c0 59 -4 105 -60 105c-63 0 -67 -66 -67 -100v-570h-162z" />
    <glyph glyph-name="onesuperior" unicode="&#xb9;" horiz-adv-x="300" 
d="M157 700h69v-419c0 -24 1 -36 34 -46v-25h-174v25c35 8 35 29 35 46v320h-5c-21 -22 -47 -44 -76 -64v38c45 29 94 86 117 125z" />
    <glyph glyph-name="logicalnot" unicode="&#xac;" horiz-adv-x="760" 
d="M70 162v79h620v-194h-79v115h-541z" />
    <glyph glyph-name="mu" unicode="&#xb5;" horiz-adv-x="492" 
d="M413 387v-291c0 -43 22 -44 33 -44h14v-34c-18 -17 -40 -26 -78 -26c-29 0 -73 4 -93 61c-28 -34 -73 -61 -112 -61c-19 0 -49 5 -69 37c17 -104 47 -134 47 -179c0 -58 -42 -65 -64 -65c-24 0 -59 8 -59 62c0 24 7 52 16 99c7 38 17 102 17 133v308h124v-260
c0 -17 1 -61 43 -61c23 0 57 19 57 61v260h124z" />
    <glyph glyph-name="mu" unicode="&#x3bc;" horiz-adv-x="492" 
d="M413 387v-291c0 -43 22 -44 33 -44h14v-34c-18 -17 -40 -26 -78 -26c-29 0 -73 4 -93 61c-28 -34 -73 -61 -112 -61c-19 0 -49 5 -69 37c17 -104 47 -134 47 -179c0 -58 -42 -65 -64 -65c-24 0 -59 8 -59 62c0 24 7 52 16 99c7 38 17 102 17 133v308h124v-260
c0 -17 1 -61 43 -61c23 0 57 19 57 61v260h124z" />
    <glyph glyph-name="trademark" unicode="&#x2122;" horiz-adv-x="801" 
d="M178 678h-23c-39 0 -58 -24 -65 -48h-20v77h17c9 -5 11 -7 19 -7h207c5 0 10 2 19 7h16v-77h-20c-7 30 -31 48 -60 48h-28v-233c0 -17 12 -23 17 -23h4v-16h-104v16h4c7 0 17 11 17 23v233zM648 667l-95 -261h-29l-96 263v-225c0 -18 12 -22 18 -22h5v-16h-69v16
c17 1 23 10 23 22v207c0 12 -1 30 -22 30v19h99l78 -210l76 210h95v-17c-17 -4 -21 -7 -21 -23v-215c0 -16 4 -19 21 -23v-16h-104v16c14 3 21 7 21 23v222z" />
    <glyph glyph-name="Eth" unicode="&#xd0;" horiz-adv-x="833" 
d="M81 700h296c369 0 411 -247 411 -357s-39 -197 -118 -262c-92 -75 -216 -81 -270 -81h-319v36c49 16 49 35 49 66v239h-90v53h90v204c0 31 0 50 -49 66v36zM280 53h78c98 0 264 28 264 293c0 252 -156 301 -277 301h-65v-253h105v-53h-105v-288z" />
    <glyph glyph-name="onehalf" unicode="&#xbd;" horiz-adv-x="747" 
d="M167 700h69v-419c0 -24 1 -36 34 -46v-25h-174v25c35 8 35 29 35 46v320h-5c-21 -22 -47 -44 -76 -64v38c45 29 94 86 117 125zM198 -197h-61l395 897h60zM689 -77l-21 -120h-276v27c139 192 189 275 189 338c0 50 -33 68 -66 68c-32 0 -57 -20 -81 -47l-27 21
c44 62 91 91 157 91c82 0 133 -55 133 -116c0 -97 -115 -196 -209 -287v-4h128c12 0 37 1 48 29h25z" />
    <glyph glyph-name="plusminus" unicode="&#xb1;" horiz-adv-x="729" 
d="M404 134h-79v249h-255v79h255v249h79v-249h255v-79h-255v-249zM70 0v79h589v-79h-589z" />
    <glyph glyph-name="Thorn" unicode="&#xde;" horiz-adv-x="653" 
d="M40 0v36c19 2 49 15 49 58v513c0 10 -1 50 -49 57v36h249v-36c-21 -2 -50 -15 -50 -57v-64c47 29 86 38 129 38c164 0 240 -118 240 -233c0 -53 -13 -172 -130 -223c-28 -12 -57 -20 -87 -20c-41 0 -98 6 -152 44v-55c0 -25 18 -54 53 -58v-36h-252zM239 426v-170
c0 -17 2 -40 33 -62c23 -17 46 -23 72 -23c48 0 69 27 79 45s19 52 19 133c0 72 -2 94 -8 111c-10 32 -40 68 -89 68c-25 0 -49 -7 -67 -20c-35 -25 -39 -56 -39 -82z" />
    <glyph glyph-name="onequarter" unicode="&#xbc;" horiz-adv-x="767" 
d="M167 700h69v-419c0 -24 1 -36 34 -46v-25h-174v25c35 8 35 29 35 46v320h-5c-21 -22 -47 -44 -76 -64v38c45 29 94 86 117 125zM198 -197h-61l395 897h60zM570 301h74v-285c20 0 33 11 48 45h25l-29 -138h-44v-120h-105v122h-186v49zM421 16h118v167h-5z" />
    <glyph glyph-name="divide" unicode="&#xf7;" horiz-adv-x="759" 
d="M70 292v79h619v-79h-619zM304 523c0 42 34 76 76 76s76 -34 76 -76s-34 -76 -76 -76s-76 34 -76 76zM304 140c0 42 34 76 76 76s76 -34 76 -76s-34 -76 -76 -76s-76 34 -76 76z" />
    <glyph glyph-name="brokenbar" unicode="&#xa6;" horiz-adv-x="219" 
d="M70 460v369h79v-369h-79zM70 145h79v-369h-79v369z" />
    <glyph glyph-name="degree" unicode="&#xb0;" horiz-adv-x="340" 
d="M70 601c0 56 44 100 100 100c54 0 100 -43 100 -100c0 -54 -46 -100 -100 -100c-43 0 -100 34 -100 100zM118 601c0 -29 23 -52 52 -52s52 23 52 52s-23 52 -52 52s-52 -23 -52 -52z" />
    <glyph glyph-name="thorn" unicode="&#xfe;" horiz-adv-x="537" 
d="M32 -197v35c41 5 42 39 42 49v616c0 24 0 56 -36 65v35h159v-239c35 23 70 31 94 31c53 0 127 -21 169 -70c21 -24 45 -67 45 -134c0 -29 -5 -80 -43 -126c-29 -35 -77 -65 -152 -65c-54 0 -86 17 -107 31h-6v-144c0 -33 27 -46 44 -49v-35h-209zM197 266v-143
c0 -41 38 -72 88 -72c76 0 83 73 83 151c0 86 -8 153 -87 153c-41 0 -84 -26 -84 -89z" />
    <glyph glyph-name="threequarters" unicode="&#xbe;" horiz-adv-x="790" 
d="M80 591l-30 17c49 86 99 98 147 98c54 0 96 -31 96 -79c0 -22 -5 -64 -79 -117v-6c5 1 10 1 15 1c50 0 102 -32 102 -105c0 -45 -20 -99 -91 -149c-31 -22 -86 -48 -157 -48c-11 0 -22 1 -33 2l9 36c142 8 165 98 165 141c0 53 -33 72 -69 72c-16 0 -30 -7 -44 -17
l-16 29c58 41 118 81 118 139c0 16 -7 48 -48 48c-38 0 -66 -30 -85 -62zM221 -197h-61l395 897h60zM593 301h74v-285c20 0 33 11 48 45h25l-29 -138h-44v-120h-105v122h-186v49zM444 16h118v167h-5z" />
    <glyph glyph-name="twosuperior" unicode="&#xb2;" horiz-adv-x="375" 
d="M327 328l-21 -120h-276v27c139 192 189 275 189 338c0 50 -33 68 -66 68c-32 0 -57 -20 -81 -47l-27 21c44 62 91 91 157 91c82 0 133 -55 133 -116c0 -97 -115 -196 -209 -287v-4h128c12 0 37 1 48 29h25z" />
    <glyph glyph-name="registered" unicode="&#xae;" horiz-adv-x="864" 
d="M70 351c0 201 161 362 362 362s362 -161 362 -362s-161 -362 -362 -362s-362 161 -362 362zM130 351c0 -168 134 -302 302 -302s302 134 302 302s-134 302 -302 302s-302 -134 -302 -302zM286 532h185c38 0 109 -27 109 -97c0 -29 -16 -74 -77 -93c9 -4 11 -10 14 -15
l67 -110c7 -11 13 -23 33 -30v-18h-93l-88 147c-7 11 -13 21 -37 21h-11v-118c0 -10 0 -23 24 -30v-20h-126v20c12 2 26 13 26 30v265c0 20 -11 24 -26 28v20zM432 502h-44v-136h44c55 0 65 44 65 68c0 28 -21 68 -65 68z" />
    <glyph glyph-name="minus" unicode="&#x2212;" horiz-adv-x="759" 
d="M70 292v79h619v-79h-619z" />
    <glyph glyph-name="eth" unicode="&#xf0;" horiz-adv-x="468" 
d="M239 -8c-74 0 -128 31 -160 72c-24 30 -41 73 -41 131c0 79 37 130 70 157s82 43 131 43c4 0 24 -1 51 -7c-14 51 -49 83 -69 99l-120 -49l-27 36l112 46c-16 13 -38 26 -91 43l33 48c79 -21 122 -45 141 -57l113 47l26 -36l-95 -40c87 -72 127 -171 127 -305
c0 -191 -127 -228 -201 -228zM239 32c31 0 47 18 54 33c8 16 10 42 10 130c0 84 -2 111 -10 128c-4 9 -19 32 -54 32s-50 -23 -54 -32c-8 -17 -10 -44 -10 -128c0 -88 2 -114 10 -130c7 -15 23 -33 54 -33z" />
    <glyph glyph-name="multiply" unicode="&#xd7;" horiz-adv-x="612" 
d="M306 388l180 180l56 -56l-180 -180l180 -180l-56 -56l-180 180l-180 -180l-56 56l180 180l-180 180l56 56z" />
    <glyph glyph-name="threesuperior" unicode="&#xb3;" horiz-adv-x="356" 
d="M75 590l-30 18c42 67 73 98 147 98c55 0 96 -33 96 -79c0 -54 -56 -101 -79 -118v-6c5 1 10 1 15 1c37 0 102 -20 102 -104c0 -115 -130 -198 -246 -198c-12 0 -23 1 -35 2l9 37c75 4 128 23 156 97c5 14 9 29 9 44c0 52 -33 71 -69 71c-16 0 -30 -6 -44 -16l-16 29
c58 41 118 79 118 139c0 37 -28 48 -48 48c-36 0 -69 -32 -85 -63z" />
    <glyph glyph-name="copyright" unicode="&#xa9;" horiz-adv-x="864" 
d="M70 349c0 201 161 362 362 362s362 -161 362 -362s-161 -362 -362 -362s-362 161 -362 362zM130 349c0 -168 134 -302 302 -302s302 134 302 302s-134 302 -302 302s-302 -134 -302 -302zM573 238l19 -22c-46 -34 -86 -67 -155 -67c-103 0 -195 83 -195 204
c0 163 131 201 185 201c53 0 79 -16 99 -16c6 0 12 4 17 10h20v-93h-24c-27 49 -62 69 -109 69c-88 0 -97 -78 -97 -177c0 -61 6 -157 121 -157c28 0 67 6 119 48z" />
    <glyph glyph-name="Aacute" unicode="&#xc1;" horiz-adv-x="758" 
d="M0 36c40 13 64 58 73 77l202 427c10 22 12 43 12 61c0 23 -35 21 -47 20v36c76 6 111 37 126 54h36l262 -548c46 -96 72 -116 94 -127v-36h-286v36c40 -1 55 34 55 57c0 8 -7 27 -9 31l-31 65h-319l-26 -59c-10 -22 -37 -78 54 -94v-36h-196v36zM325 520l-127 -274v-4
h260v3l-129 275h-4zM311 772l123 125c21 21 39 41 72 39s47 -26 47 -48c0 -28 -29 -47 -61 -63l-162 -79z" />
    <glyph glyph-name="Acircumflex" unicode="&#xc2;" horiz-adv-x="758" 
d="M0 36c40 13 64 58 73 77l202 427c10 22 12 43 12 61c0 23 -35 21 -47 20v36c76 6 111 37 126 54h36l262 -548c46 -96 72 -116 94 -127v-36h-286v36c40 -1 55 34 55 57c0 8 -7 27 -9 31l-31 65h-319l-26 -59c-10 -22 -37 -78 54 -94v-36h-196v36zM325 520l-127 -274v-4
h260v3l-129 275h-4zM316 903h90l149 -157h-50l-144 89l-144 -89h-50z" />
    <glyph glyph-name="Adieresis" unicode="&#xc4;" horiz-adv-x="758" 
d="M0 36c40 13 64 58 73 77l202 427c10 22 12 43 12 61c0 23 -35 21 -47 20v36c76 6 111 37 126 54h36l262 -548c46 -96 72 -116 94 -127v-36h-286v36c40 -1 55 34 55 57c0 8 -7 27 -9 31l-31 65h-319l-26 -59c-10 -22 -37 -78 54 -94v-36h-196v36zM325 520l-127 -274v-4
h260v3l-129 275h-4zM168 822c0 42 34 76 76 76s76 -34 76 -76s-34 -76 -76 -76s-76 34 -76 76zM421 822c0 42 34 76 76 76s76 -34 76 -76s-34 -76 -76 -76s-76 34 -76 76z" />
    <glyph glyph-name="Agrave" unicode="&#xc0;" horiz-adv-x="758" 
d="M0 36c40 13 64 58 73 77l202 427c10 22 12 43 12 61c0 23 -35 21 -47 20v36c76 6 111 37 126 54h36l262 -548c46 -96 72 -116 94 -127v-36h-286v36c40 -1 55 34 55 57c0 8 -7 27 -9 31l-31 65h-319l-26 -59c-10 -22 -37 -78 54 -94v-36h-196v36zM325 520l-127 -274v-4
h260v3l-129 275h-4zM407 772l-19 -26l-162 79c-32 16 -61 35 -61 63c0 22 14 46 47 48s51 -18 72 -39z" />
    <glyph glyph-name="Aring" unicode="&#xc5;" horiz-adv-x="758" 
d="M0 36c40 13 64 58 73 77l202 427c10 22 12 43 12 61c0 23 -35 21 -47 20v36c76 6 111 37 126 54h36l262 -548c46 -96 72 -116 94 -127v-36h-286v36c40 -1 55 34 55 57c0 8 -7 27 -9 31l-31 65h-319l-26 -59c-10 -22 -37 -78 54 -94v-36h-196v36zM325 520l-127 -274v-4
h260v3l-129 275h-4zM237 844c0 43 41 98 115 98s115 -55 115 -98s-41 -98 -115 -98s-115 55 -115 98zM289 844c0 -31 27 -54 63 -54s63 23 63 54s-27 54 -63 54s-63 -23 -63 -54z" />
    <glyph glyph-name="Atilde" unicode="&#xc3;" horiz-adv-x="758" 
d="M0 36c40 13 64 58 73 77l202 427c10 22 12 43 12 61c0 23 -35 21 -47 20v36c76 6 111 37 126 54h36l262 -548c46 -96 72 -116 94 -127v-36h-286v36c40 -1 55 34 55 57c0 8 -7 27 -9 31l-31 65h-319l-26 -59c-10 -22 -37 -78 54 -94v-36h-196v36zM325 520l-127 -274v-4
h260v3l-129 275h-4zM215 751h-45c25 54 80 104 138 104c36 0 76 -16 115 -26c8 -2 33 -8 48 -8s37 8 52 28h45c-49 -105 -130 -103 -135 -103c-26 0 -48 10 -89 22c-36 10 -52 12 -63 12c-8 0 -41 -1 -66 -29z" />
    <glyph glyph-name="Ccedilla" unicode="&#xc7;" horiz-adv-x="716" 
d="M640 148l31 -39c-118 -100 -201 -119 -276 -120h-14l-42 -40l1 -2c9 1 19 2 28 2c27 0 55 -5 78 -19c22 -14 39 -35 39 -67c0 -23 -7 -50 -35 -70c-26 -18 -68 -27 -101 -27c-27 0 -66 6 -92 29c-13 12 -18 23 -18 38c0 10 2 18 9 25c6 7 13 10 23 10c7 0 15 -2 21 -7
s8 -13 8 -18c0 -10 -3 -3 -3 -14c0 -3 2 -9 16 -15c11 -5 27 -8 38 -8c26 0 59 15 59 47c0 10 -2 29 -22 42c-15 9 -33 11 -51 11c-13 0 -33 -1 -58 -12l-21 27l68 72c-140 34 -281 138 -281 361c0 211 147 357 332 357c35 0 77 -4 111 -14c22 -6 47 -14 66 -14
c11 0 23 8 31 17h36v-165h-36c-26 71 -106 123 -192 123c-42 0 -72 -16 -92 -30c-83 -57 -90 -157 -90 -286c0 -102 10 -281 215 -281c70 0 137 26 214 87z" />
    <glyph glyph-name="Eacute" unicode="&#xc9;" horiz-adv-x="708" 
d="M40 700h495c28 0 39 2 46 18h25v-179h-36c-23 88 -69 108 -161 108h-167v-253h111c48 0 87 11 86 64h36v-180h-36c-5 60 -49 63 -66 63h-131v-288h240c74 0 137 52 150 124h36v-177h-628v36c47 5 52 39 52 66v496c0 30 -5 60 -52 66v36zM299 772l123 125
c21 21 39 41 72 39s47 -26 47 -48c0 -28 -29 -47 -61 -63l-162 -79z" />
    <glyph glyph-name="Ecircumflex" unicode="&#xca;" horiz-adv-x="708" 
d="M40 700h495c28 0 39 2 46 18h25v-179h-36c-23 88 -69 108 -161 108h-167v-253h111c48 0 87 11 86 64h36v-180h-36c-5 60 -49 63 -66 63h-131v-288h240c74 0 137 52 150 124h36v-177h-628v36c47 5 52 39 52 66v496c0 30 -5 60 -52 66v36zM288 903h90l149 -157h-50l-144 89
l-144 -89h-50z" />
    <glyph glyph-name="Edieresis" unicode="&#xcb;" horiz-adv-x="708" 
d="M40 700h495c28 0 39 2 46 18h25v-179h-36c-23 88 -69 108 -161 108h-167v-253h111c48 0 87 11 86 64h36v-180h-36c-5 60 -49 63 -66 63h-131v-288h240c74 0 137 52 150 124h36v-177h-628v36c47 5 52 39 52 66v496c0 30 -5 60 -52 66v36zM134 822c0 42 34 76 76 76
s76 -34 76 -76s-34 -76 -76 -76s-76 34 -76 76zM387 822c0 42 34 76 76 76s76 -34 76 -76s-34 -76 -76 -76s-76 34 -76 76z" />
    <glyph glyph-name="Egrave" unicode="&#xc8;" horiz-adv-x="708" 
d="M40 700h495c28 0 39 2 46 18h25v-179h-36c-23 88 -69 108 -161 108h-167v-253h111c48 0 87 11 86 64h36v-180h-36c-5 60 -49 63 -66 63h-131v-288h240c74 0 137 52 150 124h36v-177h-628v36c47 5 52 39 52 66v496c0 30 -5 60 -52 66v36zM398 772l-19 -26l-162 79
c-32 16 -61 35 -61 63c0 22 14 46 47 48s51 -18 72 -39z" />
    <glyph glyph-name="Iacute" unicode="&#xcd;" horiz-adv-x="329" 
d="M40 700h249v-36c-49 -7 -49 -46 -49 -66v-496c0 -20 0 -59 49 -66v-36h-249v36c50 6 50 48 50 66v496c0 18 0 60 -50 66v36zM100 772l123 125c21 21 39 41 72 39s47 -26 47 -48c0 -28 -29 -47 -61 -63l-162 -79z" />
    <glyph glyph-name="Icircumflex" unicode="&#xce;" horiz-adv-x="329" 
d="M40 700h249v-36c-49 -7 -49 -46 -49 -66v-496c0 -20 0 -59 49 -66v-36h-249v36c50 6 50 48 50 66v496c0 18 0 60 -50 66v36zM119 903h90l149 -157h-50l-144 89l-144 -89h-50z" />
    <glyph glyph-name="Idieresis" unicode="&#xcf;" horiz-adv-x="330" 
d="M290 700v-36c-48 -10 -49 -43 -49 -57v-514c0 -10 1 -50 49 -57v-36h-249v36c21 2 50 15 50 57v514c0 42 -29 55 -50 57v36h249zM-13 842c0 42 37 77 77 77s76 -33 76 -77c0 -42 -33 -76 -76 -76c-41 0 -77 34 -77 76zM190 842c0 42 37 77 77 77s76 -33 76 -77
c0 -42 -33 -76 -76 -76c-41 0 -77 34 -77 76z" />
    <glyph glyph-name="Igrave" unicode="&#xcc;" horiz-adv-x="329" 
d="M40 700h249v-36c-49 -7 -49 -46 -49 -66v-496c0 -20 0 -59 49 -66v-36h-249v36c50 6 50 48 50 66v496c0 18 0 60 -50 66v36zM218 772l-19 -26l-162 79c-32 16 -61 35 -61 63c0 22 14 46 47 48s51 -18 72 -39z" />
    <glyph glyph-name="Ntilde" unicode="&#xd1;" horiz-adv-x="765" 
d="M42 700h189l371 -445h11v348c0 20 -2 53 -59 61v36h171v-36c-55 -7 -59 -42 -59 -61v-603h-53l-451 542h-10v-445c0 -15 2 -53 59 -61v-36h-171v36c57 8 59 46 59 61v506c0 25 -5 65 -57 61v36zM228 751h-45c25 54 80 104 138 104c36 0 76 -16 115 -26c8 -2 33 -8 48 -8
s37 8 52 28h45c-49 -105 -130 -103 -135 -103c-26 0 -48 10 -89 22c-36 10 -52 12 -63 12c-8 0 -41 -1 -66 -29z" />
    <glyph glyph-name="Oacute" unicode="&#xd3;" 
d="M398 711c202 0 353 -160 353 -363c0 -197 -148 -359 -353 -359s-353 162 -353 359c0 203 151 363 353 363zM398 658c-113 0 -187 -55 -187 -310c0 -252 74 -306 187 -306s187 54 187 306c0 255 -74 310 -187 310zM347 772l123 125c21 21 39 41 72 39s47 -26 47 -48
c0 -28 -29 -47 -61 -63l-162 -79z" />
    <glyph glyph-name="Ocircumflex" unicode="&#xd4;" 
d="M398 711c202 0 353 -160 353 -363c0 -197 -148 -359 -353 -359s-353 162 -353 359c0 203 151 363 353 363zM398 658c-113 0 -187 -55 -187 -310c0 -252 74 -306 187 -306s187 54 187 306c0 255 -74 310 -187 310zM349 903h90l149 -157h-50l-144 89l-144 -89h-50z" />
    <glyph glyph-name="Odieresis" unicode="&#xd6;" 
d="M398 711c202 0 353 -160 353 -363c0 -197 -148 -359 -353 -359s-353 162 -353 359c0 203 151 363 353 363zM398 658c-113 0 -187 -55 -187 -310c0 -252 74 -306 187 -306s187 54 187 306c0 255 -74 310 -187 310zM195 822c0 42 34 76 76 76s76 -34 76 -76
s-34 -76 -76 -76s-76 34 -76 76zM448 822c0 42 34 76 76 76s76 -34 76 -76s-34 -76 -76 -76s-76 34 -76 76z" />
    <glyph glyph-name="Ograve" unicode="&#xd2;" 
d="M398 711c202 0 353 -160 353 -363c0 -197 -148 -359 -353 -359s-353 162 -353 359c0 203 151 363 353 363zM398 658c-113 0 -187 -55 -187 -310c0 -252 74 -306 187 -306s187 54 187 306c0 255 -74 310 -187 310zM460 772l-19 -26l-162 79c-32 16 -61 35 -61 63
c0 22 14 46 47 48s51 -18 72 -39z" />
    <glyph glyph-name="Otilde" unicode="&#xd5;" 
d="M398 711c202 0 353 -160 353 -363c0 -197 -148 -359 -353 -359s-353 162 -353 359c0 203 151 363 353 363zM398 658c-113 0 -187 -55 -187 -310c0 -252 74 -306 187 -306s187 54 187 306c0 255 -74 310 -187 310zM244 751h-45c25 54 80 104 138 104c36 0 76 -16 115 -26
c8 -2 33 -8 48 -8s37 8 52 28h45c-49 -105 -130 -103 -135 -103c-26 0 -48 10 -89 22c-36 10 -52 12 -63 12c-8 0 -41 -1 -66 -29z" />
    <glyph glyph-name="Scaron" unicode="&#x160;" horiz-adv-x="590" 
d="M498 683v-163h-39c-26 105 -104 138 -173 138c-83 0 -112 -58 -109 -96c5 -66 79 -94 115 -107c112 -40 253 -84 253 -239c0 -108 -84 -227 -249 -227c-64 0 -106 17 -143 27c-7 2 -18 5 -30 5c-14 0 -28 -4 -35 -19c0 -1 -1 -2 -1 -3h-31l-11 175h39
c34 -71 115 -132 198 -132c57 0 110 24 136 66c11 18 15 40 15 61c0 23 -14 45 -31 61c-22 21 -55 35 -114 57c-80 30 -212 80 -212 222c0 106 82 202 206 202c47 0 81 -11 116 -30c10 -5 25 -14 40 -14c10 0 20 4 26 16h34zM228 746l-149 157h50l144 -89l144 89h50
l-149 -157h-90z" />
    <glyph glyph-name="Uacute" unicode="&#xda;" horiz-adv-x="789" 
d="M40 700h245v-36c-48 -9 -47 -44 -47 -66v-285c0 -90 -2 -240 198 -240c196 0 204 133 204 198v332c0 22 -1 52 -57 61v36h166v-36c-52 -8 -56 -42 -56 -61v-328c0 -89 -18 -160 -79 -212c-41 -35 -112 -74 -211 -74c-148 0 -218 56 -249 87c-19 19 -66 67 -66 191v331
c0 28 -2 57 -48 66v36zM343 772l123 125c21 21 39 41 72 39s47 -26 47 -48c0 -28 -29 -47 -61 -63l-162 -79z" />
    <glyph glyph-name="Ucircumflex" unicode="&#xdb;" horiz-adv-x="789" 
d="M40 700h245v-36c-48 -9 -47 -44 -47 -66v-285c0 -90 -2 -240 198 -240c196 0 204 133 204 198v332c0 22 -1 52 -57 61v36h166v-36c-52 -8 -56 -42 -56 -61v-328c0 -89 -18 -160 -79 -212c-41 -35 -112 -74 -211 -74c-148 0 -218 56 -249 87c-19 19 -66 67 -66 191v331
c0 28 -2 57 -48 66v36zM382 903h90l149 -157h-50l-144 89l-144 -89h-50z" />
    <glyph glyph-name="Udieresis" unicode="&#xdc;" horiz-adv-x="789" 
d="M40 700h245v-36c-48 -9 -47 -44 -47 -66v-285c0 -90 -2 -240 198 -240c196 0 204 133 204 198v332c0 22 -1 52 -57 61v36h166v-36c-52 -8 -56 -42 -56 -61v-328c0 -89 -18 -160 -79 -212c-41 -35 -112 -74 -211 -74c-148 0 -218 56 -249 87c-19 19 -66 67 -66 191v331
c0 28 -2 57 -48 66v36zM223 822c0 42 34 76 76 76s76 -34 76 -76s-34 -76 -76 -76s-76 34 -76 76zM476 822c0 42 34 76 76 76s76 -34 76 -76s-34 -76 -76 -76s-76 34 -76 76z" />
    <glyph glyph-name="Ugrave" unicode="&#xd9;" horiz-adv-x="789" 
d="M40 700h245v-36c-48 -9 -47 -44 -47 -66v-285c0 -90 -2 -240 198 -240c196 0 204 133 204 198v332c0 22 -1 52 -57 61v36h166v-36c-52 -8 -56 -42 -56 -61v-328c0 -89 -18 -160 -79 -212c-41 -35 -112 -74 -211 -74c-148 0 -218 56 -249 87c-19 19 -66 67 -66 191v331
c0 28 -2 57 -48 66v36zM505 772l-19 -26l-162 79c-32 16 -61 35 -61 63c0 22 14 46 47 48s51 -18 72 -39z" />
    <glyph glyph-name="Yacute" unicode="&#xdd;" horiz-adv-x="722" 
d="M10 700h301v-36c-20 -2 -46 -6 -46 -28c0 -12 7 -24 13 -32l151 -192h17l122 192c10 15 14 22 14 27c0 26 -24 32 -57 33v36h187v-36c-31 -9 -51 -22 -70 -49l-196 -276v-246c0 -26 -1 -40 49 -57v-36h-252v36c26 3 53 21 53 57v247l-208 264c-32 41 -51 55 -77 60z
M332 772l123 125c21 21 39 41 72 39s47 -26 47 -48c0 -28 -29 -47 -61 -63l-162 -79z" />
    <glyph glyph-name="Ydieresis" unicode="&#x178;" horiz-adv-x="722" 
d="M10 700h301v-36c-20 -2 -46 -6 -46 -28c0 -12 7 -24 13 -32l151 -192h17l122 192c10 15 14 22 14 27c0 26 -24 32 -57 33v36h187v-36c-31 -9 -51 -22 -70 -49l-196 -276v-246c0 -26 -1 -40 49 -57v-36h-252v36c26 3 53 21 53 57v247l-208 264c-32 41 -51 55 -77 60z
M177 822c0 42 34 76 76 76s76 -34 76 -76s-34 -76 -76 -76s-76 34 -76 76zM430 822c0 42 34 76 76 76s76 -34 76 -76s-34 -76 -76 -76s-76 34 -76 76z" />
    <glyph glyph-name="Zcaron" unicode="&#x17d;" horiz-adv-x="748" 
d="M95 562v138h579v-34l-443 -613h334c52 0 88 15 107 85h36v-138h-668v35l441 612h-228c-44 0 -105 -5 -122 -85h-36zM362 746l-149 157h50l144 -89l144 89h50l-149 -157h-90z" />
    <glyph glyph-name="aacute" unicode="&#xe1;" horiz-adv-x="430" 
d="M416 52v-34c-10 -10 -31 -26 -68 -26c-11 0 -53 2 -78 55h-5c-37 -38 -72 -55 -125 -55c-92 0 -112 62 -112 97c0 62 32 146 219 150v28c0 80 -23 88 -48 88c-20 0 -31 -3 -56 -43c-10 -15 -21 -29 -42 -29c-19 0 -37 12 -37 36c0 44 59 76 146 76
c158 0 160 -126 160 -170v-129c0 -21 1 -45 36 -45c3 0 7 0 10 1zM247 130v69c-49 0 -91 -38 -91 -97c0 -45 25 -54 41 -54c50 0 50 61 50 82zM178 517l87 118c16 21 30 36 53 36c25 0 42 -16 42 -40c0 -27 -25 -40 -45 -53l-122 -80z" />
    <glyph glyph-name="acircumflex" unicode="&#xe2;" horiz-adv-x="430" 
d="M416 52v-34c-10 -10 -31 -26 -68 -26c-11 0 -53 2 -78 55h-5c-37 -38 -72 -55 -125 -55c-92 0 -112 62 -112 97c0 62 32 146 219 150v28c0 80 -23 88 -48 88c-20 0 -31 -3 -56 -43c-10 -15 -21 -29 -42 -29c-19 0 -37 12 -37 36c0 44 59 76 146 76
c158 0 160 -126 160 -170v-129c0 -21 1 -45 36 -45c3 0 7 0 10 1zM247 130v69c-49 0 -91 -38 -91 -97c0 -45 25 -54 41 -54c50 0 50 61 50 82zM212 594l-97 -96h-37l103 170h62l103 -170h-37z" />
    <glyph glyph-name="adieresis" unicode="&#xe4;" horiz-adv-x="430" 
d="M416 52v-34c-10 -10 -31 -26 -68 -26c-11 0 -53 2 -78 55h-5c-37 -38 -72 -55 -125 -55c-92 0 -112 62 -112 97c0 62 32 146 219 150v28c0 80 -23 88 -48 88c-20 0 -31 -3 -56 -43c-10 -15 -21 -29 -42 -29c-19 0 -37 12 -37 36c0 44 59 76 146 76
c158 0 160 -126 160 -170v-129c0 -21 1 -45 36 -45c3 0 7 0 10 1zM247 130v69c-49 0 -91 -38 -91 -97c0 -45 25 -54 41 -54c50 0 50 61 50 82zM54 562c0 34 30 64 64 64s64 -30 64 -64s-30 -64 -64 -64s-64 30 -64 64zM250 562c0 34 30 64 64 64s64 -30 64 -64
s-30 -64 -64 -64s-64 30 -64 64z" />
    <glyph glyph-name="agrave" unicode="&#xe0;" horiz-adv-x="430" 
d="M416 52v-34c-10 -10 -31 -26 -68 -26c-11 0 -53 2 -78 55h-5c-37 -38 -72 -55 -125 -55c-92 0 -112 62 -112 97c0 62 32 146 219 150v28c0 80 -23 88 -48 88c-20 0 -31 -3 -56 -43c-10 -15 -21 -29 -42 -29c-19 0 -37 12 -37 36c0 44 59 76 146 76
c158 0 160 -126 160 -170v-129c0 -21 1 -45 36 -45c3 0 7 0 10 1zM247 130v69c-49 0 -91 -38 -91 -97c0 -45 25 -54 41 -54c50 0 50 61 50 82zM248 517l-15 -19l-122 80c-20 13 -45 26 -45 53c0 24 17 40 42 40c23 0 37 -15 53 -36z" />
    <glyph glyph-name="aring" unicode="&#xe5;" horiz-adv-x="430" 
d="M416 52v-34c-10 -10 -31 -26 -68 -26c-11 0 -53 2 -78 55h-5c-37 -38 -72 -55 -125 -55c-92 0 -112 62 -112 97c0 62 32 146 219 150v28c0 80 -23 88 -48 88c-20 0 -31 -3 -56 -43c-10 -15 -21 -29 -42 -29c-19 0 -37 12 -37 36c0 44 59 76 146 76
c158 0 160 -126 160 -170v-129c0 -21 1 -45 36 -45c3 0 7 0 10 1zM247 130v69c-49 0 -91 -38 -91 -97c0 -45 25 -54 41 -54c50 0 50 61 50 82zM133 580c0 45 37 82 82 82s82 -37 82 -82s-37 -82 -82 -82s-82 37 -82 82zM163 580c0 -29 23 -52 52 -52s52 23 52 52
s-23 52 -52 52s-52 -23 -52 -52z" />
    <glyph glyph-name="atilde" unicode="&#xe3;" horiz-adv-x="430" 
d="M416 52v-34c-10 -10 -31 -26 -68 -26c-11 0 -53 2 -78 55h-5c-37 -38 -72 -55 -125 -55c-92 0 -112 62 -112 97c0 62 32 146 219 150v28c0 80 -23 88 -48 88c-20 0 -31 -3 -56 -43c-10 -15 -21 -29 -42 -29c-19 0 -37 12 -37 36c0 44 59 76 146 76
c158 0 160 -126 160 -170v-129c0 -21 1 -45 36 -45c3 0 7 0 10 1zM247 130v69c-49 0 -91 -38 -91 -97c0 -45 25 -54 41 -54c50 0 50 61 50 82zM97 504h-33c17 60 66 101 102 101c8 0 29 -1 90 -24l3 -1c12 -5 23 -9 33 -9c13 0 26 7 40 28h34c-25 -67 -65 -101 -101 -101
c-15 0 -30 6 -45 12c-24 10 -47 21 -69 21c-18 0 -36 -7 -54 -27z" />
    <glyph glyph-name="ccedilla" unicode="&#xe7;" horiz-adv-x="403" 
d="M352 99l27 -24c-31 -36 -87 -83 -168 -83l-30 -27l1 -2c9 2 18 4 27 4c20 0 41 -4 57 -16c11 -9 23 -25 23 -49c0 -21 -10 -37 -25 -49c-20 -16 -43 -21 -70 -21c-41 0 -62 13 -71 24c-5 6 -9 13 -9 21c0 6 1 14 5 19c4 6 11 11 19 11c11 0 23 -7 23 -19c0 -2 0 -4 -1 -6
s-1 -4 -1 -6c0 -3 2 -8 11 -13c8 -4 14 -5 21 -5c20 0 31 9 37 17c4 5 8 13 8 25c0 13 -4 24 -15 32c-9 6 -19 9 -30 9c-13 0 -27 -4 -44 -14l-20 25l45 43c-94 14 -144 99 -144 196c0 123 91 204 199 204c92 0 138 -51 138 -90c0 -33 -25 -48 -49 -48c-14 0 -48 6 -56 50
c-5 25 -3 49 -36 49c-59 0 -59 -93 -59 -159v-52c0 -70 37 -98 80 -98s84 30 107 52z" />
    <glyph glyph-name="eacute" unicode="&#xe9;" horiz-adv-x="409" 
d="M381 210h-216v-50c0 -73 23 -114 82 -114c40 0 68 22 99 58l29 -28c-21 -31 -71 -84 -156 -84c-133 0 -191 103 -191 193c0 92 59 210 192 210c105 0 161 -87 161 -180v-5zM271 250v16c0 81 -30 89 -52 89c-27 0 -54 -15 -54 -89v-16h106zM178 517l87 118
c16 21 30 36 53 36c25 0 42 -16 42 -40c0 -27 -25 -40 -45 -53l-122 -80z" />
    <glyph glyph-name="ecircumflex" unicode="&#xea;" horiz-adv-x="409" 
d="M381 210h-216v-50c0 -73 23 -114 82 -114c40 0 68 22 99 58l29 -28c-21 -31 -71 -84 -156 -84c-133 0 -191 103 -191 193c0 92 59 210 192 210c105 0 161 -87 161 -180v-5zM271 250v16c0 81 -30 89 -52 89c-27 0 -54 -15 -54 -89v-16h106zM207 594l-97 -96h-37l103 170
h62l103 -170h-37z" />
    <glyph glyph-name="edieresis" unicode="&#xeb;" horiz-adv-x="409" 
d="M381 210h-216v-50c0 -73 23 -114 82 -114c40 0 68 22 99 58l29 -28c-21 -31 -71 -84 -156 -84c-133 0 -191 103 -191 193c0 92 59 210 192 210c105 0 161 -87 161 -180v-5zM271 250v16c0 81 -30 89 -52 89c-27 0 -54 -15 -54 -89v-16h106zM58 562c0 34 30 64 64 64
s64 -30 64 -64s-30 -64 -64 -64s-64 30 -64 64zM254 562c0 34 30 64 64 64s64 -30 64 -64s-30 -64 -64 -64s-64 30 -64 64z" />
    <glyph glyph-name="egrave" unicode="&#xe8;" horiz-adv-x="409" 
d="M381 210h-216v-50c0 -73 23 -114 82 -114c40 0 68 22 99 58l29 -28c-21 -31 -71 -84 -156 -84c-133 0 -191 103 -191 193c0 92 59 210 192 210c105 0 161 -87 161 -180v-5zM271 250v16c0 81 -30 89 -52 89c-27 0 -54 -15 -54 -89v-16h106zM263 517l-15 -19l-122 80
c-20 13 -45 26 -45 53c0 24 17 40 42 40c23 0 37 -15 53 -36z" />
    <glyph glyph-name="iacute" unicode="&#xed;" horiz-adv-x="252" 
d="M188 387v-297c0 -26 8 -48 36 -55v-35h-196v35c5 1 10 3 15 6c13 8 22 21 22 49v208c0 25 -10 51 -37 54v35h160zM72 517l87 118c16 21 30 36 53 36c25 0 42 -16 42 -40c0 -27 -25 -40 -45 -53l-122 -80z" />
    <glyph glyph-name="icircumflex" unicode="&#xee;" horiz-adv-x="252" 
d="M188 387v-297c0 -26 8 -48 36 -55v-35h-196v35c5 1 10 3 15 6c13 8 22 21 22 49v208c0 25 -10 51 -37 54v35h160zM122 594l-97 -96h-37l103 170h62l103 -170h-37z" />
    <glyph glyph-name="idieresis" unicode="&#xef;" horiz-adv-x="252" 
d="M188 387v-297c0 -26 8 -48 36 -55v-35h-196v35c5 1 10 3 15 6c13 8 22 21 22 49v208c0 25 -10 51 -37 54v35h160zM-35 562c0 34 30 64 64 64s64 -30 64 -64s-30 -64 -64 -64s-64 30 -64 64zM161 562c0 34 30 64 64 64s64 -30 64 -64s-30 -64 -64 -64s-64 30 -64 64z" />
    <glyph glyph-name="igrave" unicode="&#xec;" horiz-adv-x="252" 
d="M188 387v-297c0 -26 8 -48 36 -55v-35h-196v35c5 1 10 3 15 6c13 8 22 21 22 49v208c0 25 -10 51 -37 54v35h160zM164 517l-15 -19l-122 80c-20 13 -45 26 -45 53c0 24 17 40 42 40c23 0 37 -15 53 -36z" />
    <glyph glyph-name="ntilde" unicode="&#xf1;" horiz-adv-x="482" 
d="M32 0v35c27 7 36 22 36 55v208c0 27 -8 49 -36 54v35h159v-49h2c30 36 71 57 117 57c94 0 105 -76 105 -146v-159c0 -25 1 -44 35 -57v-33h-194v35c34 7 36 36 36 55v170c0 27 -5 61 -44 61c-26 0 -57 -21 -57 -61v-170c0 -19 2 -48 36 -55v-35h-195zM123 504h-33
c17 60 66 101 102 101c8 0 29 -1 90 -24l3 -1c12 -5 23 -9 33 -9c13 0 26 7 40 28h34c-25 -67 -65 -101 -101 -101c-15 0 -30 6 -45 12c-24 10 -47 21 -69 21c-18 0 -36 -7 -54 -27z" />
    <glyph glyph-name="oacute" unicode="&#xf3;" horiz-adv-x="458" 
d="M229 -8c-122 0 -201 85 -201 203c0 111 78 200 201 200c119 0 201 -86 201 -200c0 -120 -83 -203 -201 -203zM229 32c58 0 64 51 64 112v102c0 60 -6 109 -64 109s-64 -49 -64 -109v-102c0 -61 6 -112 64 -112zM184 517l87 118c16 21 30 36 53 36c25 0 42 -16 42 -40
c0 -27 -25 -40 -45 -53l-122 -80z" />
    <glyph glyph-name="ocircumflex" unicode="&#xf4;" horiz-adv-x="458" 
d="M229 -8c-122 0 -201 85 -201 203c0 111 78 200 201 200c119 0 201 -86 201 -200c0 -120 -83 -203 -201 -203zM229 32c58 0 64 51 64 112v102c0 60 -6 109 -64 109s-64 -49 -64 -109v-102c0 -61 6 -112 64 -112zM231 594l-97 -96h-37l103 170h62l103 -170h-37z" />
    <glyph glyph-name="odieresis" unicode="&#xf6;" horiz-adv-x="458" 
d="M229 -8c-122 0 -201 85 -201 203c0 111 78 200 201 200c119 0 201 -86 201 -200c0 -120 -83 -203 -201 -203zM229 32c58 0 64 51 64 112v102c0 60 -6 109 -64 109s-64 -49 -64 -109v-102c0 -61 6 -112 64 -112zM67 562c0 34 30 64 64 64s64 -30 64 -64s-30 -64 -64 -64
s-64 30 -64 64zM263 562c0 34 30 64 64 64s64 -30 64 -64s-30 -64 -64 -64s-64 30 -64 64z" />
    <glyph glyph-name="ograve" unicode="&#xf2;" horiz-adv-x="458" 
d="M229 -8c-122 0 -201 85 -201 203c0 111 78 200 201 200c119 0 201 -86 201 -200c0 -120 -83 -203 -201 -203zM229 32c58 0 64 51 64 112v102c0 60 -6 109 -64 109s-64 -49 -64 -109v-102c0 -61 6 -112 64 -112zM270 517l-15 -19l-122 80c-20 13 -45 26 -45 53
c0 24 17 40 42 40c23 0 37 -15 53 -36z" />
    <glyph glyph-name="otilde" unicode="&#xf5;" horiz-adv-x="458" 
d="M229 -8c-122 0 -201 85 -201 203c0 111 78 200 201 200c119 0 201 -86 201 -200c0 -120 -83 -203 -201 -203zM229 32c58 0 64 51 64 112v102c0 60 -6 109 -64 109s-64 -49 -64 -109v-102c0 -61 6 -112 64 -112zM111 504h-33c17 60 66 101 102 101c8 0 29 -1 90 -24l3 -1
c12 -5 23 -9 33 -9c13 0 26 7 40 28h34c-25 -67 -65 -101 -101 -101c-15 0 -30 6 -45 12c-24 10 -47 21 -69 21c-18 0 -36 -7 -54 -27z" />
    <glyph glyph-name="scaron" unicode="&#x161;" horiz-adv-x="353" 
d="M176 -8c-99 0 -144 37 -144 76c0 30 21 46 43 46c20 0 41 -9 48 -34c4 -14 2 -27 16 -38c3 -2 14 -10 38 -10c39 0 56 26 56 50c0 35 -28 51 -73 70c-37 16 -75 29 -99 52c-13 13 -29 35 -29 68c0 57 40 123 143 123c76 0 122 -40 122 -74c0 -15 -9 -33 -36 -33
s-34 23 -37 35c-3 10 -11 32 -48 32s-48 -24 -48 -39c0 -28 28 -40 49 -49c62 -26 123 -50 145 -108c4 -11 7 -23 7 -35c0 -71 -51 -132 -153 -132zM180 572l97 96h37l-103 -170h-62l-103 170h37z" />
    <glyph glyph-name="uacute" unicode="&#xfa;" horiz-adv-x="484" 
d="M416 387v-297c0 -33 9 -48 36 -55v-35h-159v45h-6c-22 -24 -61 -53 -115 -53c-83 0 -103 62 -103 102v204c0 25 -10 51 -37 54v35h160v-260c0 -17 2 -61 44 -61c26 0 57 21 57 61v171c0 14 -2 50 -36 54v35h159zM205 517l87 118c16 21 30 36 53 36c25 0 42 -16 42 -40
c0 -27 -25 -40 -45 -53l-122 -80z" />
    <glyph glyph-name="ucircumflex" unicode="&#xfb;" horiz-adv-x="484" 
d="M416 387v-297c0 -33 9 -48 36 -55v-35h-159v45h-6c-22 -24 -61 -53 -115 -53c-83 0 -103 62 -103 102v204c0 25 -10 51 -37 54v35h160v-260c0 -17 2 -61 44 -61c26 0 57 21 57 61v171c0 14 -2 50 -36 54v35h159zM244 594l-97 -96h-37l103 170h62l103 -170h-37z" />
    <glyph glyph-name="udieresis" unicode="&#xfc;" horiz-adv-x="484" 
d="M416 387v-297c0 -33 9 -48 36 -55v-35h-159v45h-6c-22 -24 -61 -53 -115 -53c-83 0 -103 62 -103 102v204c0 25 -10 51 -37 54v35h160v-260c0 -17 2 -61 44 -61c26 0 57 21 57 61v171c0 14 -2 50 -36 54v35h159zM81 562c0 34 30 64 64 64s64 -30 64 -64s-30 -64 -64 -64
s-64 30 -64 64zM277 562c0 34 30 64 64 64s64 -30 64 -64s-30 -64 -64 -64s-64 30 -64 64z" />
    <glyph glyph-name="ugrave" unicode="&#xf9;" horiz-adv-x="484" 
d="M416 387v-297c0 -33 9 -48 36 -55v-35h-159v45h-6c-22 -24 -61 -53 -115 -53c-83 0 -103 62 -103 102v204c0 25 -10 51 -37 54v35h160v-260c0 -17 2 -61 44 -61c26 0 57 21 57 61v171c0 14 -2 50 -36 54v35h159zM294 517l-15 -19l-122 80c-20 13 -45 26 -45 53
c0 24 17 40 42 40c23 0 37 -15 53 -36z" />
    <glyph glyph-name="yacute" unicode="&#xfd;" horiz-adv-x="440" 
d="M447 387v-35h-6c-22 0 -42 -16 -70 -75l-179 -368c-27 -55 -50 -104 -113 -106h-4c-53 0 -75 37 -75 66c0 27 19 51 54 51c17 0 30 -6 40 -11c1 0 1 -1 1 -1c15 -9 24 -17 35 -17c16 0 24 22 32 38l33 66l-125 297c-21 51 -46 59 -63 60v35h231v-35h-5
c-32 0 -33 -20 -33 -27c0 -11 7 -23 10 -32l57 -143h4l66 134c13 27 11 41 11 44c0 12 -11 24 -37 24h-3v35h139zM214 517l87 118c16 21 30 36 53 36c25 0 42 -16 42 -40c0 -27 -25 -40 -45 -53l-122 -80z" />
    <glyph glyph-name="ydieresis" unicode="&#xff;" horiz-adv-x="440" 
d="M447 387v-35h-6c-22 0 -42 -16 -70 -75l-179 -368c-27 -55 -50 -104 -113 -106h-4c-53 0 -75 37 -75 66c0 27 19 51 54 51c17 0 30 -6 40 -11c1 0 1 -1 1 -1c15 -9 24 -17 35 -17c16 0 24 22 32 38l33 66l-125 297c-21 51 -46 59 -63 60v35h231v-35h-5
c-32 0 -33 -20 -33 -27c0 -11 7 -23 10 -32l57 -143h4l66 134c13 27 11 41 11 44c0 12 -11 24 -37 24h-3v35h139zM95 562c0 34 30 64 64 64s64 -30 64 -64s-30 -64 -64 -64s-64 30 -64 64zM291 562c0 34 30 64 64 64s64 -30 64 -64s-30 -64 -64 -64s-64 30 -64 64z" />
    <glyph glyph-name="zcaron" unicode="&#x17e;" horiz-adv-x="420" 
d="M54 283v104h338v-12l-201 -335h89c31 0 66 4 77 64h35v-104h-364v16l200 331h-66c-54 0 -71 -35 -73 -64h-35zM242 572l97 96h37l-103 -170h-62l-103 170h37z" />
    <glyph glyph-name="Amacron" unicode="&#x100;" horiz-adv-x="758" 
d="M0 36c40 13 64 58 73 77l202 427c10 22 12 43 12 61c0 23 -35 21 -47 20v36c76 6 111 37 126 54h36l262 -548c46 -96 72 -116 94 -127v-36h-286v36c40 -1 55 34 55 57c0 8 -7 27 -9 31l-31 65h-319l-26 -59c-10 -22 -37 -78 54 -94v-36h-196v36zM325 520l-127 -274v-4
h260v3l-129 275h-4zM236 746v50h248v-50h-248z" />
    <glyph glyph-name="amacron" unicode="&#x101;" horiz-adv-x="430" 
d="M416 52v-34c-10 -10 -31 -26 -68 -26c-11 0 -53 2 -78 55h-5c-37 -38 -72 -55 -125 -55c-92 0 -112 62 -112 97c0 62 32 146 219 150v28c0 80 -23 88 -48 88c-20 0 -31 -3 -56 -43c-10 -15 -21 -29 -42 -29c-19 0 -37 12 -37 36c0 44 59 76 146 76
c158 0 160 -126 160 -170v-129c0 -21 1 -45 36 -45c3 0 7 0 10 1zM247 130v69c-49 0 -91 -38 -91 -97c0 -45 25 -54 41 -54c50 0 50 61 50 82zM85 498v45h245v-45h-245z" />
    <glyph glyph-name="Abreve" unicode="&#x102;" horiz-adv-x="758" 
d="M0 36c40 13 64 58 73 77l202 427c10 22 12 43 12 61c0 23 -35 21 -47 20v36c76 6 111 37 126 54h36l262 -548c46 -96 72 -116 94 -127v-36h-286v36c40 -1 55 34 55 57c0 8 -7 27 -9 31l-31 65h-319l-26 -59c-10 -22 -37 -78 54 -94v-36h-196v36zM325 520l-127 -274v-4
h260v3l-129 275h-4zM205 878h42c5 -26 28 -48 52 -59c17 -8 41 -11 63 -11s46 3 63 11c24 11 47 33 52 59h42c-8 -48 -29 -85 -72 -111c-28 -17 -58 -21 -85 -21s-57 4 -85 21c-43 26 -64 63 -72 111z" />
    <glyph glyph-name="abreve" unicode="&#x103;" horiz-adv-x="430" 
d="M416 52v-34c-10 -10 -31 -26 -68 -26c-11 0 -53 2 -78 55h-5c-37 -38 -72 -55 -125 -55c-92 0 -112 62 -112 97c0 62 32 146 219 150v28c0 80 -23 88 -48 88c-20 0 -31 -3 -56 -43c-10 -15 -21 -29 -42 -29c-19 0 -37 12 -37 36c0 44 59 76 146 76
c158 0 160 -126 160 -170v-129c0 -21 1 -45 36 -45c3 0 7 0 10 1zM247 130v69c-49 0 -91 -38 -91 -97c0 -45 25 -54 41 -54c50 0 50 61 50 82zM82 639h35c16 -60 60 -82 98 -82s82 22 98 82h35c-7 -53 -33 -141 -133 -141s-126 88 -133 141z" />
    <glyph glyph-name="Aogonek" unicode="&#x104;" horiz-adv-x="758" 
d="M0 36c40 13 64 58 73 77l202 427c10 22 12 43 12 61s-20 21 -35 21c-5 0 -9 -1 -12 -1v36c76 6 111 37 126 54h36l262 -548c46 -96 72 -116 94 -127v-36c-70 -29 -93 -45 -102 -52c-17 -13 -27 -29 -27 -55c0 -10 4 -18 11 -26c12 -12 25 -14 37 -14c31 0 53 8 79 27
l14 -19c-56 -57 -104 -62 -127 -62c-44 0 -93 26 -93 78c0 65 68 99 144 123h-222v36h2c39 0 53 34 53 57c0 8 -7 27 -9 31l-31 65h-319l-26 -59c-10 -22 -37 -78 54 -94v-36h-196v36zM325 520l-127 -274v-4h260v3l-129 275h-4z" />
    <glyph glyph-name="aogonek" unicode="&#x105;" horiz-adv-x="430" 
d="M416 52v-34c-10 -11 -23 -18 -37 -21l-17 -11c-23 -15 -38 -32 -38 -59c0 -6 2 -16 10 -23c5 -5 14 -10 32 -10c28 0 52 14 66 23l13 -19c-9 -9 -17 -16 -29 -23c-24 -15 -48 -25 -79 -25c-16 0 -35 3 -52 18c-13 12 -19 26 -19 41c0 29 11 50 35 67c12 8 25 14 32 17
c-31 6 -53 32 -63 54h-5c-37 -38 -72 -55 -125 -55c-92 0 -112 62 -112 97c0 62 32 146 219 150v28c0 80 -23 88 -48 88c-10 0 -28 -1 -46 -27c-13 -19 -22 -45 -52 -45c-19 0 -37 12 -37 36c0 44 59 76 146 76c158 0 160 -126 160 -170v-129c0 -17 1 -45 33 -45
c4 0 8 0 13 1zM247 130v69c-49 0 -91 -38 -91 -97c0 -45 25 -54 41 -54c50 0 50 61 50 82z" />
    <glyph glyph-name="Cacute" unicode="&#x106;" horiz-adv-x="716" 
d="M640 148l31 -39c-103 -87 -185 -120 -276 -120c-212 0 -350 162 -350 365c0 212 147 357 332 357c40 0 72 -4 111 -15c34 -10 51 -13 66 -13c8 0 16 5 23 10c3 2 6 4 8 7h36v-165h-36c-26 71 -106 123 -192 123c-42 0 -72 -16 -92 -30c-83 -57 -90 -157 -90 -286
c0 -102 10 -281 215 -281c70 0 137 26 214 87zM334 772l123 125c21 21 39 41 72 39s47 -26 47 -48c0 -28 -29 -47 -61 -63l-162 -79z" />
    <glyph glyph-name="cacute" unicode="&#x107;" horiz-adv-x="403" 
d="M352 99l27 -24c-39 -46 -96 -83 -172 -83c-128 0 -179 103 -179 199c0 123 91 204 199 204c92 0 138 -51 138 -90c0 -33 -25 -48 -49 -48c-14 0 -48 6 -56 50c-5 25 -3 49 -36 49c-57 0 -59 -87 -59 -152v-59c0 -70 37 -98 80 -98s84 30 107 52zM180 517l87 118
c16 21 30 36 53 36c25 0 42 -16 42 -40c0 -27 -25 -40 -45 -53l-122 -80z" />
    <glyph glyph-name="Ccircumflex" unicode="&#x108;" horiz-adv-x="716" 
d="M640 148l31 -39c-103 -87 -185 -120 -276 -120c-212 0 -350 162 -350 365c0 212 147 357 332 357c40 0 72 -4 111 -15c34 -10 51 -13 66 -13c8 0 16 5 23 10c3 2 6 4 8 7h36v-165h-36c-26 71 -106 123 -192 123c-42 0 -72 -16 -92 -30c-83 -57 -90 -157 -90 -286
c0 -102 10 -281 215 -281c70 0 137 26 214 87zM346 903h90l149 -157h-50l-144 89l-144 -89h-50z" />
    <glyph glyph-name="ccircumflex" unicode="&#x109;" horiz-adv-x="403" 
d="M352 99l27 -24c-39 -46 -96 -83 -172 -83c-128 0 -179 103 -179 199c0 123 91 204 199 204c92 0 138 -51 138 -90c0 -33 -25 -48 -49 -48c-14 0 -48 6 -56 50c-5 25 -3 49 -36 49c-57 0 -59 -87 -59 -152v-59c0 -70 37 -98 80 -98s84 30 107 52zM219 594l-97 -96h-37
l103 170h62l103 -170h-37z" />
    <glyph glyph-name="Ccaron" unicode="&#x10c;" horiz-adv-x="716" 
d="M640 148l31 -39c-103 -87 -185 -120 -276 -120c-212 0 -350 162 -350 365c0 212 147 357 332 357c40 0 72 -4 111 -15c34 -10 51 -13 66 -13c8 0 16 5 23 10c3 2 6 4 8 7h36v-165h-36c-26 71 -106 123 -192 123c-42 0 -72 -16 -92 -30c-83 -57 -90 -157 -90 -286
c0 -102 10 -281 215 -281c70 0 137 26 214 87zM346 746l-149 157h50l144 -89l144 89h50l-149 -157h-90z" />
    <glyph glyph-name="ccaron" unicode="&#x10d;" horiz-adv-x="403" 
d="M352 99l27 -24c-39 -46 -96 -83 -172 -83c-128 0 -179 103 -179 199c0 123 91 204 199 204c92 0 138 -51 138 -90c0 -33 -25 -48 -49 -48c-14 0 -48 6 -56 50c-5 25 -3 49 -36 49c-57 0 -59 -87 -59 -152v-59c0 -70 37 -98 80 -98s84 30 107 52zM221 572l97 96h37
l-103 -170h-62l-103 170h37z" />
    <glyph glyph-name="Dcaron" unicode="&#x10e;" horiz-adv-x="792" 
d="M40 700h296c369 0 411 -247 411 -357s-39 -197 -118 -262c-92 -75 -216 -81 -270 -81h-319v36c49 16 49 35 49 66v496c0 31 0 50 -49 66v36zM239 53h78c98 0 264 28 264 293c0 252 -156 301 -277 301h-65v-594zM268 746l-149 157h50l144 -89l144 89h50l-149 -157h-90z
" />
    <glyph glyph-name="dcaron" unicode="&#x10f;" horiz-adv-x="592" 
d="M268 703h159v-613c0 -19 2 -48 36 -55v-35h-159v33h-6c-29 -29 -60 -41 -102 -41c-113 0 -168 88 -168 203c0 166 105 200 162 200c19 0 76 -4 110 -50h4v269c0 6 0 48 -36 54v35zM304 127v112c0 19 0 92 -62 92c-74 0 -77 -88 -77 -149v-5c0 -38 2 -132 77 -132
c53 0 62 63 62 82zM514 446l-19 29c53 32 74 62 84 78l-1 4h-7c-33 1 -77 26 -77 77c0 45 34 77 77 77c40 0 83 -26 83 -93c0 -87 -78 -148 -140 -172z" />
    <glyph glyph-name="Dcroat" unicode="&#x110;" horiz-adv-x="833" 
d="M81 700h296c369 0 411 -247 411 -357s-39 -197 -118 -262c-92 -75 -216 -81 -270 -81h-319v36c49 16 49 35 49 66v239h-90v53h90v204c0 31 0 50 -49 66v36zM280 53h78c98 0 264 28 264 293c0 252 -156 301 -277 301h-65v-253h105v-53h-105v-288z" />
    <glyph glyph-name="dcroat" unicode="&#x111;" horiz-adv-x="516" 
d="M268 703h159v-169h89v-45h-89v-399c0 -19 2 -48 36 -55v-35h-159v33h-6c-29 -29 -60 -41 -102 -41c-113 0 -168 88 -168 203c0 166 105 200 162 200c19 0 76 -4 110 -50h4v144h-136v45h136v80c0 6 0 48 -36 54v35zM304 127v112c0 19 0 92 -62 92c-74 0 -77 -88 -77 -149
v-5c0 -38 2 -132 77 -132c53 0 62 63 62 82z" />
    <glyph glyph-name="Emacron" unicode="&#x112;" horiz-adv-x="708" 
d="M40 700h495c28 0 39 2 46 18h25v-179h-36c-23 88 -69 108 -161 108h-167v-253h111c48 0 87 11 86 64h36v-180h-36c-5 60 -49 63 -66 63h-131v-288h240c74 0 137 52 150 124h36v-177h-628v36c47 5 52 39 52 66v496c0 30 -5 60 -52 66v36zM211 746v50h248v-50h-248z" />
    <glyph glyph-name="emacron" unicode="&#x113;" horiz-adv-x="409" 
d="M381 210h-216v-50c0 -73 23 -114 82 -114c40 0 68 22 99 58l29 -28c-21 -31 -71 -84 -156 -84c-133 0 -191 103 -191 193c0 92 59 210 192 210c105 0 161 -87 161 -180v-5zM271 250v16c0 81 -30 89 -52 89c-27 0 -54 -15 -54 -89v-16h106zM93 498v45h245v-45h-245z" />
    <glyph glyph-name="Edotaccent" unicode="&#x116;" horiz-adv-x="708" 
d="M40 700h495c28 0 39 2 46 18h25v-179h-36c-23 88 -69 108 -161 108h-167v-253h111c48 0 87 11 86 64h36v-180h-36c-5 60 -49 63 -66 63h-131v-288h240c74 0 137 52 150 124h36v-177h-628v36c47 5 52 39 52 66v496c0 30 -5 60 -52 66v36zM256 822c0 42 34 76 76 76
s76 -34 76 -76s-34 -76 -76 -76s-76 34 -76 76z" />
    <glyph glyph-name="edotaccent" unicode="&#x117;" horiz-adv-x="409" 
d="M381 210h-216v-50c0 -73 23 -114 82 -114c40 0 68 22 99 58l29 -28c-21 -31 -71 -84 -156 -84c-133 0 -191 103 -191 193c0 92 59 210 192 210c105 0 161 -87 161 -180v-5zM271 250v16c0 81 -30 89 -52 89c-27 0 -54 -15 -54 -89v-16h106zM154 562c0 34 30 64 64 64
s64 -30 64 -64s-30 -64 -64 -64s-64 30 -64 64z" />
    <glyph glyph-name="Eogonek" unicode="&#x118;" horiz-adv-x="708" 
d="M40 700h495c28 0 39 2 46 18h25v-179h-36c-23 88 -69 108 -161 108h-167v-253h111c47 0 86 11 86 62v2h36v-180h-36c-5 60 -49 63 -66 63h-131v-288h240c74 0 137 52 150 124h36v-177c-75 -31 -129 -55 -129 -107c0 -12 4 -20 11 -27c12 -12 24 -13 37 -13
c26 0 47 4 79 27l14 -19c-56 -57 -104 -62 -127 -62c-44 0 -93 26 -93 78c0 65 68 99 144 123h-564v36c47 5 52 39 52 66v496c0 30 -5 60 -52 66v36z" />
    <glyph glyph-name="eogonek" unicode="&#x119;" horiz-adv-x="409" 
d="M381 210h-216v-50c0 -73 23 -114 82 -114c40 0 68 22 99 58l29 -28c-21 -31 -53 -56 -86 -71l-18 -16c-12 -10 -30 -33 -30 -58c0 -9 2 -20 10 -27c5 -5 14 -10 32 -10c28 0 52 14 66 23l13 -19c-9 -9 -17 -16 -29 -23c-24 -15 -48 -25 -79 -25c-16 0 -35 3 -52 18
c-13 12 -19 26 -19 45c0 24 8 42 24 57c9 9 23 18 30 22v1c-6 -1 -12 -1 -18 -1c-51 0 -103 19 -137 54c-30 31 -54 82 -54 139c0 48 15 99 44 137c26 35 72 73 148 73c44 0 86 -13 119 -54c29 -36 42 -83 42 -126v-5zM271 250v16c0 81 -30 89 -52 89c-27 0 -54 -15 -54 -89
v-16h106z" />
    <glyph glyph-name="Ecaron" unicode="&#x11a;" horiz-adv-x="708" 
d="M40 700h495c28 0 39 2 46 18h25v-179h-36c-23 88 -69 108 -161 108h-167v-253h111c48 0 87 11 86 64h36v-180h-36c-5 60 -49 63 -66 63h-131v-288h240c74 0 137 52 150 124h36v-177h-628v36c47 5 52 39 52 66v496c0 30 -5 60 -52 66v36zM313 745l-149 157h50l144 -89
l144 89h50l-149 -157h-90z" />
    <glyph glyph-name="ecaron" unicode="&#x11b;" horiz-adv-x="409" 
d="M381 210h-216v-50c0 -73 23 -114 82 -114c40 0 68 22 99 58l29 -28c-21 -31 -71 -84 -156 -84c-133 0 -191 103 -191 193c0 92 59 210 192 210c105 0 161 -87 161 -180v-5zM271 250v16c0 81 -30 89 -52 89c-27 0 -54 -15 -54 -89v-16h106zM207 572l97 96h37l-103 -170
h-62l-103 170h37z" />
    <glyph glyph-name="Gcircumflex" unicode="&#x11c;" horiz-adv-x="755" 
d="M509 283h206v-253c-58 -19 -146 -41 -242 -41c-271 0 -390 133 -420 272c-7 31 -8 63 -8 95c0 203 156 356 363 356c48 0 83 -10 125 -22c25 -7 44 -11 58 -11c19 0 30 6 38 19h33v-168h-36c-17 48 -67 129 -202 129c-190 0 -213 -180 -213 -295c0 -26 0 -53 2 -79
c18 -222 170 -243 223 -243c60 0 129 29 129 100v33c0 26 -3 67 -56 72v36zM367 903h90l149 -157h-50l-144 89l-144 -89h-50z" />
    <glyph glyph-name="gcircumflex" unicode="&#x11d;" horiz-adv-x="479" 
d="M58 -27l-25 40c24 40 60 92 96 130c-51 11 -98 50 -98 114c0 84 79 135 178 135c48 0 83 -9 117 -31c13 15 44 46 79 46c24 0 43 -14 43 -33c0 -24 -13 -38 -32 -38c-29 0 -24 26 -41 26c-9 0 -20 -5 -25 -15c22 -18 42 -44 42 -82c0 -92 -79 -137 -182 -137
c-16 0 -31 2 -47 4c-16 -16 -28 -32 -37 -49l1 -2c47 9 71 14 105 14c118 0 199 -60 199 -139c0 -51 -37 -128 -193 -128h-6c-132 2 -172 42 -172 75c0 24 14 49 51 49c27 0 42 -15 42 -33c0 -9 -1 -17 -1 -26c0 -15 17 -35 80 -35c104 0 129 46 129 74c0 33 -33 64 -131 64
c-55 0 -123 -9 -172 -23zM212 165c50 0 52 47 52 71v47c0 66 -33 72 -52 72c-28 0 -53 -9 -53 -72v-47c0 -45 12 -71 53 -71zM224 594l-97 -96h-37l103 170h62l103 -170h-37z" />
    <glyph glyph-name="Gbreve" unicode="&#x11e;" horiz-adv-x="755" 
d="M509 283h206v-253c-58 -19 -146 -41 -242 -41c-271 0 -390 133 -420 272c-7 31 -8 63 -8 95c0 203 156 356 363 356c48 0 83 -10 125 -22c25 -7 44 -11 58 -11c19 0 30 6 38 19h33v-168h-36c-17 48 -67 129 -202 129c-190 0 -213 -180 -213 -295c0 -26 0 -53 2 -79
c18 -222 170 -243 223 -243c60 0 129 29 129 100v33c0 26 -3 67 -56 72v36zM237 878h42c5 -26 28 -48 52 -59c17 -8 41 -11 63 -11s46 3 63 11c24 11 47 33 52 59h42c-8 -48 -29 -85 -72 -111c-28 -17 -58 -21 -85 -21s-57 4 -85 21c-43 26 -64 63 -72 111z" />
    <glyph glyph-name="gbreve" unicode="&#x11f;" horiz-adv-x="479" 
d="M58 -27l-25 40c24 40 60 92 96 130c-51 11 -98 50 -98 114c0 84 79 135 178 135c48 0 83 -9 117 -31c13 15 44 46 79 46c24 0 43 -14 43 -33c0 -24 -13 -38 -32 -38c-29 0 -24 26 -41 26c-9 0 -20 -5 -25 -15c22 -18 42 -44 42 -82c0 -92 -79 -137 -182 -137
c-16 0 -31 2 -47 4c-16 -16 -28 -32 -37 -49l1 -2c47 9 71 14 105 14c118 0 199 -60 199 -139c0 -51 -37 -128 -193 -128h-6c-132 2 -172 42 -172 75c0 24 14 49 51 49c27 0 42 -15 42 -33c0 -9 -1 -17 -1 -26c0 -15 17 -35 80 -35c104 0 129 46 129 74c0 33 -33 64 -131 64
c-55 0 -123 -9 -172 -23zM212 165c50 0 52 47 52 71v47c0 66 -33 72 -52 72c-28 0 -53 -9 -53 -72v-47c0 -45 12 -71 53 -71zM82 639h35c16 -60 60 -82 98 -82s82 22 98 82h35c-7 -53 -33 -141 -133 -141s-126 88 -133 141z" />
    <glyph glyph-name="Gcommaaccent" unicode="&#x122;" horiz-adv-x="755" 
d="M509 283h206v-253c-58 -19 -146 -41 -242 -41c-271 0 -390 133 -420 272c-7 31 -8 63 -8 95c0 203 156 356 363 356c48 0 83 -10 125 -22c25 -7 44 -11 58 -11c19 0 30 6 38 19h33v-168h-36c-17 48 -67 129 -202 129c-190 0 -213 -180 -213 -295c0 -26 0 -53 2 -79
c18 -222 170 -243 223 -243c60 0 129 29 129 100v33c0 26 -3 67 -56 72v36zM317 -319l-19 29c53 32 74 62 84 78l-1 4h-7c-33 1 -77 26 -77 77c0 45 34 77 77 77c40 0 83 -26 83 -93c0 -87 -78 -148 -140 -172z" />
    <glyph glyph-name="gcommaaccent" unicode="&#x123;" horiz-adv-x="479" 
d="M58 -27l-25 40c24 40 60 92 96 130c-51 11 -98 50 -98 114c0 84 79 135 178 135c48 0 83 -9 117 -31c13 15 44 46 79 46c24 0 43 -14 43 -33c0 -24 -13 -38 -32 -38c-29 0 -24 26 -41 26c-9 0 -20 -5 -25 -15c22 -18 42 -44 42 -82c0 -92 -79 -137 -182 -137
c-16 0 -31 2 -47 4c-16 -16 -28 -32 -37 -49l1 -2c47 9 71 14 105 14c118 0 199 -60 199 -139c0 -52 -38 -128 -199 -128c-132 0 -172 42 -172 75c0 24 14 49 51 49c27 0 42 -15 42 -33l-1 -26c0 -15 17 -35 80 -35c104 0 129 46 129 74c0 33 -33 64 -131 64
c-55 0 -123 -9 -172 -23zM212 165c50 0 52 47 52 71v47c0 66 -33 72 -52 72c-28 0 -53 -9 -53 -72v-47c0 -45 12 -71 53 -71zM263 687l17 -26c-40 -28 -50 -33 -75 -70v-4h7c30 -1 69 -23 69 -69c0 -45 -35 -70 -69 -70c-36 0 -75 26 -75 84c0 78 72 134 126 155z" />
    <glyph glyph-name="Hcircumflex" unicode="&#x124;" horiz-adv-x="827" 
d="M289 700v-36c-21 -2 -50 -15 -50 -57v-220h348v220c0 26 -9 51 -49 57v36h249v-36c-36 -5 -50 -25 -50 -57v-514c0 -38 15 -46 49 -57v-36h-248v36c34 11 49 19 49 57v241h-348v-241c0 -26 6 -45 50 -57v-36h-249v36c37 12 49 24 49 57v514c0 10 -1 50 -49 57v36h249z
M372 903h90l149 -157h-50l-144 89l-144 -89h-50z" />
    <glyph glyph-name="hcircumflex" unicode="&#x125;" horiz-adv-x="483" 
d="M191 703v-361h6c5 6 46 53 115 53c103 0 103 -89 103 -145v-160c0 -31 9 -49 36 -55v-35h-195v35c34 7 36 36 36 55v183c0 9 -4 49 -48 49c-37 0 -53 -31 -53 -69v-163c0 -19 2 -48 36 -55v-35h-195v35c27 6 36 24 36 55v524c0 27 -8 47 -36 54v35h159zM228 845l-97 -96
h-37l103 170h62l103 -170h-37z" />
    <glyph glyph-name="Imacron" unicode="&#x12a;" horiz-adv-x="329" 
d="M40 700h249v-36c-49 -7 -49 -46 -49 -66v-496c0 -20 0 -59 49 -66v-36h-249v36c50 6 50 48 50 66v496c0 18 0 60 -50 66v36zM34 746v50h248v-50h-248z" />
    <glyph glyph-name="imacron" unicode="&#x12b;" horiz-adv-x="252" 
d="M188 387v-297c0 -26 8 -48 36 -55v-35h-196v35c5 1 10 3 15 6c13 8 22 21 22 49v208c0 25 -10 51 -37 54v35h160zM-18 498v45h245v-45h-245z" />
    <glyph glyph-name="Iogonek" unicode="&#x12e;" horiz-adv-x="329" 
d="M40 700h249v-36c-3 0 -6 -1 -9 -2c-39 -11 -40 -42 -40 -61v-499c0 -20 0 -59 49 -66v-36c-19 -6 -44 -18 -56 -28c-14 -12 -23 -29 -23 -45c0 -9 4 -18 10 -23c5 -5 14 -10 32 -10c28 0 52 14 66 23l13 -19c-9 -9 -17 -16 -29 -23c-24 -15 -48 -25 -79 -25
c-16 0 -35 3 -52 18c-15 13 -19 29 -19 41c0 22 12 49 41 67c13 8 39 18 57 24h-210v36c50 6 50 48 50 66v496c0 18 0 60 -50 66v36z" />
    <glyph glyph-name="iogonek" unicode="&#x12f;" horiz-adv-x="260" 
d="M192 387v-297c0 -26 8 -48 36 -55v-35c-16 -4 -42 -16 -57 -28c-14 -12 -23 -29 -23 -45c0 -9 4 -18 10 -23c5 -5 14 -10 32 -10c28 0 52 14 66 23l13 -19c-9 -9 -17 -16 -29 -23c-24 -15 -48 -25 -79 -25c-16 0 -35 3 -52 18c-15 13 -19 29 -19 41c0 22 12 49 41 67
c13 8 39 18 57 24h-156v35c25 6 37 24 37 55v208c0 25 -10 51 -37 54v35h160zM63 568c0 34 30 64 64 64c33 0 63 -29 63 -64c0 -33 -30 -63 -63 -63c-35 0 -64 30 -64 63z" />
    <glyph glyph-name="Idotaccent" unicode="&#x130;" horiz-adv-x="329" 
d="M40 700h249v-36c-49 -7 -49 -46 -49 -66v-496c0 -20 0 -59 49 -66v-36h-249v36c50 6 50 48 50 66v496c0 18 0 60 -50 66v36zM88 822c0 42 34 76 76 76s76 -34 76 -76s-34 -76 -76 -76s-76 34 -76 76z" />
    <glyph glyph-name="Jcircumflex" unicode="&#x134;" horiz-adv-x="359" 
d="M70 700h249v-36c-48 -7 -49 -40 -49 -66v-508c0 -195 -114 -254 -194 -254c-73 0 -116 33 -116 77c0 28 18 54 54 54c27 0 48 -16 51 -43c2 -21 -6 -42 21 -42c33 0 34 42 34 63v653c0 26 -3 58 -50 66v36zM142 903h90l149 -157h-50l-144 89l-144 -89h-50z" />
    <glyph glyph-name="jcircumflex" unicode="&#x135;" horiz-adv-x="252" 
d="M37 387h159v-434c0 -44 -13 -150 -129 -150c-60 0 -81 38 -81 65c0 24 19 40 41 40c20 0 34 -11 39 -26c6 -17 1 -39 29 -39c13 0 25 10 25 29c0 23 -19 53 -27 67c-10 16 -20 32 -20 76v276c0 35 -1 54 -36 61v35zM126 594l-97 -96h-37l103 170h62l103 -170h-37z" />
    <glyph glyph-name="Kcommaaccent" unicode="&#x136;" horiz-adv-x="753" 
d="M40 700h249v-36c-49 -7 -49 -46 -49 -66v-222h7l258 215c29 24 33 37 33 44s-5 25 -46 29v36h243v-36c-55 -13 -81 -20 -120 -53l-197 -165l207 -307c30 -44 55 -81 118 -103v-36h-315v36c21 0 52 11 52 37c0 8 -3 18 -11 29l-166 248l-63 -50v-198c0 -20 0 -59 49 -66
v-36h-249v36c50 6 50 48 50 66v496c0 18 0 60 -50 66v36zM316 -319l-19 29c53 32 74 62 84 78l-1 4h-7c-33 1 -77 26 -77 77c0 45 34 77 77 77c40 0 83 -26 83 -93c0 -87 -78 -148 -140 -172z" />
    <glyph glyph-name="kcommaaccent" unicode="&#x137;" horiz-adv-x="464" 
d="M274 387h176v-35c-17 -3 -51 -12 -90 -46l-45 -40l99 -184c7 -12 20 -41 50 -47v-35h-202v35c17 0 23 8 23 18c0 7 -3 14 -16 39l-47 95l-30 -25v-72c0 -26 8 -48 36 -55v-35h-196v35c25 6 37 24 37 55v523c0 19 -4 48 -37 55v35h160v-488h5l77 66c24 21 40 35 40 50
c0 18 -25 21 -40 21v35zM172 -319l-19 29c53 32 74 62 84 78l-1 4h-7c-33 1 -77 26 -77 77c0 45 34 77 77 77c40 0 83 -26 83 -93c0 -87 -78 -148 -140 -172z" />
    <glyph glyph-name="Lacute" unicode="&#x139;" horiz-adv-x="685" 
d="M40 700h251v-36c-48 -7 -49 -40 -49 -66v-545h227c74 0 137 52 150 124h36v-177h-615v36c47 5 52 39 52 66v496c0 32 -5 58 -52 66v36zM214 772l123 125c21 21 39 41 72 39s47 -26 47 -48c0 -28 -29 -47 -61 -63l-162 -79z" />
    <glyph glyph-name="lacute" unicode="&#x13a;" horiz-adv-x="259" 
d="M32 0v35c28 7 36 29 36 55v513c0 24 0 56 -36 65v35h159v-613c0 -19 2 -48 36 -55v-35h-195zM82 767l87 118c16 21 30 36 53 36c25 0 42 -16 42 -40c0 -27 -25 -40 -45 -53l-122 -80z" />
    <glyph glyph-name="Lcommaaccent" unicode="&#x13b;" horiz-adv-x="685" 
d="M40 700h251v-36c-48 -7 -49 -40 -49 -66v-545h227c74 0 137 52 150 124h36v-177h-615v36c47 5 52 39 52 66v496c0 32 -5 58 -52 66v36zM282 -319l-19 29c53 32 74 62 84 78l-1 4h-7c-33 1 -77 26 -77 77c0 45 34 77 77 77c40 0 83 -26 83 -93c0 -87 -78 -148 -140 -172z
" />
    <glyph glyph-name="lcommaaccent" unicode="&#x13c;" horiz-adv-x="259" 
d="M32 0v35c28 7 36 29 36 55v513c0 24 0 56 -36 65v35h159v-613c0 -19 2 -48 36 -55v-35h-195zM70 -319l-19 29c53 32 74 62 84 78l-1 4h-7c-33 1 -77 26 -77 77c0 45 34 77 77 77c40 0 83 -26 83 -93c0 -87 -78 -148 -140 -172z" />
    <glyph glyph-name="Lcaron" unicode="&#x13d;" horiz-adv-x="685" 
d="M40 700h251v-36c-48 -7 -49 -40 -49 -66v-545h227c74 0 137 52 150 124h36v-177h-615v36c47 5 52 39 52 66v496c0 32 -5 58 -52 66v36zM426 446l-19 29c53 32 74 62 84 78l-1 4h-7c-33 1 -77 26 -77 77c0 45 34 77 77 77c40 0 83 -26 83 -93c0 -87 -78 -148 -140 -172z
" />
    <glyph glyph-name="lcaron" unicode="&#x13e;" horiz-adv-x="352" 
d="M32 0v35c28 7 36 29 36 55v513c0 24 0 56 -36 65v35h159v-613c0 -19 2 -48 36 -55v-35h-195zM276 446l-19 29c53 32 74 62 84 78l-1 4h-7c-33 1 -77 26 -77 77c0 45 34 77 77 77c40 0 83 -26 83 -93c0 -87 -78 -148 -140 -172z" />
    <glyph glyph-name="Nacute" unicode="&#x143;" horiz-adv-x="765" 
d="M42 700h189l371 -445h11v348c0 20 -2 53 -59 61v36h171v-36c-55 -7 -59 -42 -59 -61v-603h-53l-451 542h-10v-445c0 -15 2 -53 59 -61v-36h-171v36c57 8 59 46 59 61v506c0 25 -5 65 -57 61v36zM336 772l123 125c21 21 39 41 72 39s47 -26 47 -48c0 -28 -29 -47 -61 -63
l-162 -79z" />
    <glyph glyph-name="nacute" unicode="&#x144;" horiz-adv-x="482" 
d="M32 0v35c27 7 36 22 36 55v208c0 27 -8 49 -36 54v35h159v-49h2c30 36 71 57 117 57c94 0 105 -76 105 -146v-159c0 -25 1 -44 35 -57v-33h-194v35c34 7 36 36 36 55v170c0 27 -5 61 -44 61c-26 0 -57 -21 -57 -61v-170c0 -19 2 -48 36 -55v-35h-195zM192 517l87 118
c16 21 30 36 53 36c25 0 42 -16 42 -40c0 -27 -25 -40 -45 -53l-122 -80z" />
    <glyph glyph-name="Ncommaaccent" unicode="&#x145;" horiz-adv-x="765" 
d="M42 700h189l371 -445h11v348c0 20 -2 53 -59 61v36h171v-36c-55 -7 -59 -42 -59 -61v-603h-53l-451 542h-10v-445c0 -15 2 -53 59 -61v-36h-171v36c57 8 59 46 59 61v506c0 25 -5 65 -57 61v36zM322 -319l-19 29c53 32 74 62 84 78l-1 4h-7c-33 1 -77 26 -77 77
c0 45 34 77 77 77c40 0 83 -26 83 -93c0 -87 -78 -148 -140 -172z" />
    <glyph glyph-name="ncommaaccent" unicode="&#x146;" horiz-adv-x="482" 
d="M32 0v35c27 7 36 22 36 55v208c0 27 -8 49 -36 54v35h159v-49h2c30 36 71 57 117 57c94 0 105 -76 105 -146v-159c0 -25 1 -44 35 -57v-33h-194v35c34 7 36 36 36 55v170c0 27 -5 61 -44 61c-26 0 -57 -21 -57 -61v-170c0 -19 2 -48 36 -55v-35h-195zM181 -319l-19 29
c53 32 74 62 84 78l-1 4h-7c-33 1 -77 26 -77 77c0 45 34 77 77 77c40 0 83 -26 83 -93c0 -87 -78 -148 -140 -172z" />
    <glyph glyph-name="Ncaron" unicode="&#x147;" horiz-adv-x="765" 
d="M42 700h189l371 -445h11v348c0 20 -2 53 -59 61v36h171v-36c-55 -7 -59 -42 -59 -61v-603h-53l-451 542h-10v-445c0 -15 2 -53 59 -61v-36h-171v36c57 8 59 46 59 61v506c0 25 -5 65 -57 61v36zM356 746l-149 157h50l144 -89l144 89h50l-149 -157h-90z" />
    <glyph glyph-name="ncaron" unicode="&#x148;" horiz-adv-x="482" 
d="M32 0v35c27 7 36 22 36 55v208c0 27 -8 49 -36 54v35h159v-49h2c30 36 71 57 117 57c94 0 105 -76 105 -146v-159c0 -25 1 -44 35 -57v-33h-194v35c34 7 36 36 36 55v170c0 27 -5 61 -44 61c-26 0 -57 -21 -57 -61v-170c0 -19 2 -48 36 -55v-35h-195zM243 572l97 96h37
l-103 -170h-62l-103 170h37z" />
    <glyph glyph-name="Omacron" unicode="&#x14c;" 
d="M398 711c202 0 353 -160 353 -363c0 -197 -148 -359 -353 -359s-353 162 -353 359c0 203 151 363 353 363zM398 658c-113 0 -187 -55 -187 -310c0 -252 74 -306 187 -306s187 54 187 306c0 255 -74 310 -187 310zM271 746v50h248v-50h-248z" />
    <glyph glyph-name="omacron" unicode="&#x14d;" horiz-adv-x="458" 
d="M229 -8c-122 0 -201 85 -201 203c0 111 78 200 201 200c119 0 201 -86 201 -200c0 -120 -83 -203 -201 -203zM229 32c58 0 64 51 64 112v102c0 60 -6 109 -64 109s-64 -49 -64 -109v-102c0 -61 6 -112 64 -112zM103 498v45h245v-45h-245z" />
    <glyph glyph-name="Obreve" unicode="&#x14e;" 
d="M398 711c202 0 353 -160 353 -363c0 -197 -148 -359 -353 -359s-353 162 -353 359c0 203 151 363 353 363zM398 658c-113 0 -187 -55 -187 -310c0 -252 74 -306 187 -306s187 54 187 306c0 255 -74 310 -187 310zM237 878h42c5 -26 28 -48 52 -59c17 -8 41 -11 63 -11
s46 3 63 11c24 11 47 33 52 59h42c-8 -48 -29 -85 -72 -111c-28 -17 -58 -21 -85 -21s-57 4 -85 21c-43 26 -64 63 -72 111z" />
    <glyph glyph-name="obreve" unicode="&#x14f;" horiz-adv-x="458" 
d="M229 -8c-122 0 -201 85 -201 203c0 111 78 200 201 200c119 0 201 -86 201 -200c0 -120 -83 -203 -201 -203zM229 32c58 0 64 51 64 112v102c0 60 -6 109 -64 109s-64 -49 -64 -109v-102c0 -61 6 -112 64 -112zM96 639h35c16 -60 60 -82 98 -82s82 22 98 82h35
c-7 -53 -33 -141 -133 -141s-126 88 -133 141z" />
    <glyph glyph-name="Ohungarumlaut" unicode="&#x150;" 
d="M398 711c202 0 353 -160 353 -363c0 -197 -148 -359 -353 -359s-353 162 -353 359c0 203 151 363 353 363zM398 658c-113 0 -187 -55 -187 -310c0 -252 74 -306 187 -306s187 54 187 306c0 255 -74 310 -187 310zM293 770l128 127c32 32 52 39 72 39c30 0 40 -22 40 -41
c0 -32 -37 -50 -61 -63l-162 -86zM468 770l128 127c32 32 52 39 72 39c30 0 40 -22 40 -41c0 -32 -37 -50 -61 -63l-162 -86z" />
    <glyph glyph-name="ohungarumlaut" unicode="&#x151;" horiz-adv-x="458" 
d="M229 -8c-122 0 -201 85 -201 203c0 111 78 200 201 200c119 0 201 -86 201 -200c0 -120 -83 -203 -201 -203zM229 32c58 0 64 51 64 112v102c0 60 -6 109 -64 109s-64 -49 -64 -109v-102c0 -61 6 -112 64 -112zM137 513l96 121c15 19 29 36 54 36c21 0 32 -15 32 -32
c0 -26 -24 -42 -39 -53l-124 -88zM279 513l96 121c15 19 29 36 54 36c21 0 32 -15 32 -32c0 -26 -24 -42 -39 -53l-124 -88z" />
    <glyph glyph-name="Racute" unicode="&#x154;" horiz-adv-x="704" 
d="M40 700h294c88 0 207 -5 259 -108c12 -24 19 -52 19 -79c0 -102 -72 -155 -131 -176l-1 -10l143 -239c19 -32 40 -48 71 -52v-36h-192l-168 282c-26 44 -50 43 -75 43h-19v-223c0 -37 1 -51 49 -66v-36h-249v36c41 14 50 24 50 66v496c0 42 -9 52 -50 66v36zM240 647
v-269h88c58 0 118 37 118 130c0 128 -88 139 -145 139h-61zM276 772l123 125c21 21 39 41 72 39s47 -26 47 -48c0 -28 -29 -47 -61 -63l-162 -79z" />
    <glyph glyph-name="racute" unicode="&#x155;" horiz-adv-x="331" 
d="M32 387h138v-56h5c12 22 39 64 85 64c30 0 57 -16 57 -53c0 -32 -24 -51 -49 -51c-7 0 -15 2 -21 5c-14 7 -20 18 -30 18s-26 -7 -26 -41v-183c0 -18 4 -49 36 -55v-35h-195v35c34 7 36 36 36 55v208c0 15 0 49 -36 54v35zM120 517l87 118c16 21 30 36 53 36
c25 0 42 -16 42 -40c0 -27 -25 -40 -45 -53l-122 -80z" />
    <glyph glyph-name="Rcommaaccent" unicode="&#x156;" horiz-adv-x="704" 
d="M40 700h294c88 0 207 -5 259 -108c12 -24 19 -52 19 -79c0 -102 -72 -155 -131 -176l-1 -10l143 -239c19 -32 40 -48 71 -52v-36h-192l-168 282c-26 44 -50 43 -75 43h-19v-223c0 -37 1 -51 49 -66v-36h-249v36c41 14 50 24 50 66v496c0 42 -9 52 -50 66v36zM240 647
v-269h88c58 0 118 37 118 130c0 128 -88 139 -145 139h-61zM292 -319l-19 29c53 32 74 62 84 78l-1 4h-7c-33 1 -77 26 -77 77c0 45 34 77 77 77c40 0 83 -26 83 -93c0 -87 -78 -148 -140 -172z" />
    <glyph glyph-name="rcommaaccent" unicode="&#x157;" horiz-adv-x="331" 
d="M32 387h138v-56h5c12 22 39 64 85 64c30 0 57 -16 57 -53c0 -32 -24 -51 -49 -51c-7 0 -15 2 -21 5c-14 7 -20 18 -30 18s-26 -7 -26 -41v-183c0 -18 4 -49 36 -55v-35h-195v35c34 7 36 36 36 55v208c0 15 0 49 -36 54v35zM105 -319l-19 29c53 32 74 62 84 78l-1 4h-7
c-33 1 -77 26 -77 77c0 45 34 77 77 77c40 0 83 -26 83 -93c0 -87 -78 -148 -140 -172z" />
    <glyph glyph-name="Rcaron" unicode="&#x158;" horiz-adv-x="704" 
d="M40 700h294c88 0 207 -5 259 -108c12 -24 19 -52 19 -79c0 -102 -72 -155 -131 -176l-1 -10l143 -239c19 -32 40 -48 71 -52v-36h-192l-168 282c-26 44 -50 43 -75 43h-19v-223c0 -37 1 -51 49 -66v-36h-249v36c41 14 50 24 50 66v496c0 42 -9 52 -50 66v36zM240 647
v-269h88c58 0 118 37 118 130c0 128 -88 139 -145 139h-61zM284 746l-149 157h50l144 -89l144 89h50l-149 -157h-90z" />
    <glyph glyph-name="rcaron" unicode="&#x159;" horiz-adv-x="331" 
d="M32 387h138v-56h5c12 22 39 64 85 64c30 0 57 -16 57 -53c0 -32 -24 -51 -49 -51c-7 0 -15 2 -21 5c-14 7 -20 18 -30 18s-26 -7 -26 -41v-183c0 -18 4 -49 36 -55v-35h-195v35c34 7 36 36 36 55v208c0 15 0 49 -36 54v35zM148 572l97 96h37l-103 -170h-62l-103 170h37z
" />
    <glyph glyph-name="Sacute" unicode="&#x15a;" horiz-adv-x="590" 
d="M498 683v-163h-39c-26 105 -104 138 -173 138c-83 0 -112 -58 -109 -96c5 -66 79 -94 115 -107c112 -40 253 -84 253 -239c0 -108 -84 -227 -249 -227c-64 0 -106 17 -143 27c-7 2 -18 5 -30 5c-14 0 -28 -4 -35 -19c0 -1 -1 -2 -1 -3h-31l-11 175h39
c34 -71 115 -132 198 -132c57 0 110 24 136 66c11 18 15 40 15 61c0 23 -14 45 -31 61c-22 21 -55 35 -114 57c-80 30 -212 80 -212 222c0 106 82 202 206 202c47 0 81 -11 116 -30c10 -5 25 -14 40 -14c10 0 20 4 26 16h34zM228 772l123 125c21 21 39 41 72 39
s47 -26 47 -48c0 -28 -29 -47 -61 -63l-162 -79z" />
    <glyph glyph-name="sacute" unicode="&#x15b;" horiz-adv-x="353" 
d="M176 -8c-99 0 -144 37 -144 76c0 30 21 46 43 46c20 0 41 -9 48 -34c4 -14 2 -27 16 -38c3 -2 14 -10 38 -10c39 0 56 26 56 50c0 35 -28 51 -73 70c-37 16 -75 29 -99 52c-13 13 -29 35 -29 68c0 57 40 123 143 123c76 0 122 -40 122 -74c0 -15 -9 -33 -36 -33
s-34 23 -37 35c-3 10 -11 32 -48 32s-48 -24 -48 -39c0 -28 28 -40 49 -49c62 -26 123 -50 145 -108c4 -11 7 -23 7 -35c0 -71 -51 -132 -153 -132zM135 517l87 118c16 21 30 36 53 36c25 0 42 -16 42 -40c0 -27 -25 -40 -45 -53l-122 -80z" />
    <glyph glyph-name="Scircumflex" unicode="&#x15c;" horiz-adv-x="590" 
d="M498 683v-163h-39c-26 105 -104 138 -173 138c-83 0 -112 -58 -109 -96c5 -66 79 -94 115 -107c112 -40 253 -84 253 -239c0 -108 -84 -227 -249 -227c-64 0 -106 17 -143 27c-7 2 -18 5 -30 5c-14 0 -28 -4 -35 -19c0 -1 -1 -2 -1 -3h-31l-11 175h39
c34 -71 115 -132 198 -132c57 0 110 24 136 66c11 18 15 40 15 61c0 23 -14 45 -31 61c-22 21 -55 35 -114 57c-80 30 -212 80 -212 222c0 106 82 202 206 202c47 0 81 -11 116 -30c10 -5 25 -14 40 -14c10 0 20 4 26 16h34zM242 903h90l149 -157h-50l-144 89l-144 -89h-50z
" />
    <glyph glyph-name="scircumflex" unicode="&#x15d;" horiz-adv-x="353" 
d="M176 -8c-99 0 -144 37 -144 76c0 30 21 46 43 46c20 0 41 -9 48 -34c4 -14 2 -27 16 -38c3 -2 14 -10 38 -10c39 0 56 26 56 50c0 35 -28 51 -73 70c-37 16 -75 29 -99 52c-13 13 -29 35 -29 68c0 57 40 123 143 123c76 0 122 -40 122 -74c0 -15 -9 -33 -36 -33
s-34 23 -37 35c-3 10 -11 32 -48 32s-48 -24 -48 -39c0 -28 28 -40 49 -49c62 -26 123 -50 145 -108c4 -11 7 -23 7 -35c0 -71 -51 -132 -153 -132zM180 594l-97 -96h-37l103 170h62l103 -170h-37z" />
    <glyph glyph-name="Scedilla" unicode="&#x15e;" horiz-adv-x="590" 
d="M498 683v-163h-39c-26 105 -104 138 -173 138c-83 0 -109 -58 -109 -96c0 -82 102 -100 191 -135c69 -27 177 -79 177 -211c0 -113 -88 -222 -239 -227l-42 -40l1 -2c9 1 19 2 28 2c27 0 55 -5 78 -19c22 -14 39 -35 39 -67c0 -23 -7 -50 -35 -70
c-26 -18 -68 -27 -101 -27c-27 0 -66 6 -92 29c-11 10 -18 20 -18 33s2 22 9 30c6 7 14 10 23 10c7 0 15 -2 21 -7s8 -13 8 -18c0 -10 -3 -3 -3 -14c0 -3 2 -9 16 -15c11 -5 27 -8 38 -8c26 0 59 15 59 47c0 10 -2 29 -22 42c-15 9 -33 11 -51 11c-13 0 -33 -1 -58 -12
l-21 27l67 71c-47 7 -67 16 -97 24c-11 3 -22 5 -33 5c-14 0 -30 -9 -33 -22h-31l-11 175h39c34 -71 115 -132 198 -132c99 0 151 66 151 127c0 64 -62 87 -134 114l-11 4c-80 30 -212 80 -212 222c0 106 82 202 206 202c47 0 81 -11 116 -30c12 -6 24 -14 37 -14
c19 0 26 11 29 16h34z" />
    <glyph glyph-name="Scedilla" unicode="&#xf6c1;" horiz-adv-x="590" 
d="M498 683v-163h-39c-26 105 -104 138 -173 138c-83 0 -109 -58 -109 -96c0 -82 102 -100 191 -135c69 -27 177 -79 177 -211c0 -113 -88 -222 -239 -227l-42 -40l1 -2c9 1 19 2 28 2c27 0 55 -5 78 -19c22 -14 39 -35 39 -67c0 -23 -7 -50 -35 -70
c-26 -18 -68 -27 -101 -27c-27 0 -66 6 -92 29c-11 10 -18 20 -18 33s2 22 9 30c6 7 14 10 23 10c7 0 15 -2 21 -7s8 -13 8 -18c0 -10 -3 -3 -3 -14c0 -3 2 -9 16 -15c11 -5 27 -8 38 -8c26 0 59 15 59 47c0 10 -2 29 -22 42c-15 9 -33 11 -51 11c-13 0 -33 -1 -58 -12
l-21 27l67 71c-47 7 -67 16 -97 24c-11 3 -22 5 -33 5c-14 0 -30 -9 -33 -22h-31l-11 175h39c34 -71 115 -132 198 -132c99 0 151 66 151 127c0 64 -62 87 -134 114l-11 4c-80 30 -212 80 -212 222c0 106 82 202 206 202c47 0 81 -11 116 -30c12 -6 24 -14 37 -14
c19 0 26 11 29 16h34z" />
    <glyph glyph-name="scedilla" unicode="&#x15f;" horiz-adv-x="354" 
d="M188 -8l-31 -27l1 -2c9 2 18 4 27 4c20 0 41 -4 57 -16c11 -9 23 -25 23 -49c0 -21 -10 -37 -25 -49c-20 -16 -43 -21 -70 -21c-41 0 -62 13 -71 24c-5 6 -9 13 -9 21c0 6 1 14 5 19c4 6 11 11 19 11c11 0 23 -7 23 -19c0 -2 0 -4 -1 -6s-1 -4 -1 -6c0 -3 2 -8 11 -13
c8 -4 14 -5 21 -5c20 0 31 9 37 17c4 5 8 13 8 25c0 13 -4 24 -15 32c-9 6 -19 9 -30 9c-13 0 -27 -4 -44 -14l-20 25l44 42c-71 5 -114 36 -114 74c0 30 21 46 43 46c48 0 45 -38 53 -57c5 -12 20 -25 49 -25c39 0 56 25 56 50c0 4 0 9 -1 13c-8 35 -57 50 -106 71
c-2 1 -4 2 -7 3c-35 15 -88 38 -88 103c0 57 39 123 144 123c76 0 122 -41 122 -74c0 -15 -9 -33 -36 -33s-34 23 -37 35c-3 10 -11 32 -48 32s-48 -24 -48 -39c0 -42 66 -54 116 -79c24 -12 85 -44 85 -113c0 -81 -63 -130 -142 -132z" />
    <glyph glyph-name="scedilla" unicode="&#xf6c2;" horiz-adv-x="354" 
d="M188 -8l-31 -27l1 -2c9 2 18 4 27 4c20 0 41 -4 57 -16c11 -9 23 -25 23 -49c0 -21 -10 -37 -25 -49c-20 -16 -43 -21 -70 -21c-41 0 -62 13 -71 24c-5 6 -9 13 -9 21c0 6 1 14 5 19c4 6 11 11 19 11c11 0 23 -7 23 -19c0 -2 0 -4 -1 -6s-1 -4 -1 -6c0 -3 2 -8 11 -13
c8 -4 14 -5 21 -5c20 0 31 9 37 17c4 5 8 13 8 25c0 13 -4 24 -15 32c-9 6 -19 9 -30 9c-13 0 -27 -4 -44 -14l-20 25l44 42c-71 5 -114 36 -114 74c0 30 21 46 43 46c48 0 45 -38 53 -57c5 -12 20 -25 49 -25c39 0 56 25 56 50c0 4 0 9 -1 13c-8 35 -57 50 -106 71
c-2 1 -4 2 -7 3c-35 15 -88 38 -88 103c0 57 39 123 144 123c76 0 122 -41 122 -74c0 -15 -9 -33 -36 -33s-34 23 -37 35c-3 10 -11 32 -48 32s-48 -24 -48 -39c0 -42 66 -54 116 -79c24 -12 85 -44 85 -113c0 -81 -63 -130 -142 -132z" />
    <glyph glyph-name="Tcedilla" unicode="&#x162;" horiz-adv-x="684" 
d="M267 651h-56c-41 0 -126 -4 -165 -113h-36v180h40c21 -11 40 -14 64 -14h456c26 0 43 3 65 14h39v-180h-36c-34 75 -85 113 -155 113h-66v-558c0 -26 6 -45 50 -57v-36h-95l-53 -51l1 -2c9 1 19 2 28 2c27 0 55 -5 78 -19c22 -14 39 -35 39 -67c0 -23 -7 -50 -35 -70
c-26 -18 -68 -27 -101 -27c-27 0 -66 6 -92 29c-11 10 -18 20 -18 33s2 22 9 30c6 7 14 10 23 10c7 0 15 -2 21 -7s8 -13 8 -18c0 -10 -3 -3 -3 -14c0 -3 2 -9 16 -15c11 -5 27 -8 38 -8c26 0 59 15 59 47c0 10 -2 29 -22 42c-15 9 -33 11 -51 11c-13 0 -33 -1 -58 -12
l-21 27l75 79h-95v36c34 11 49 19 49 57v558z" />
    <glyph glyph-name="tcedilla" unicode="&#x163;" horiz-adv-x="314" 
d="M32 391h49v91l123 39v-130h81v-40h-81v-261c0 -46 26 -48 37 -48c18 0 32 6 39 10l13 -29c-30 -22 -68 -31 -103 -31h-3l-30 -27l1 -2c9 2 18 4 27 4c20 0 41 -4 57 -16c11 -9 23 -25 23 -49c0 -21 -10 -37 -25 -49c-20 -16 -43 -21 -70 -21c-41 0 -62 13 -71 24
c-5 6 -9 14 -9 23c0 6 2 12 5 17c4 6 11 11 19 11c11 0 23 -7 23 -19c0 -2 0 -4 -1 -6c-1 -5 -3 -12 10 -19c8 -4 14 -5 21 -5c20 0 31 9 37 17c4 5 8 13 8 25c0 13 -4 24 -15 32c-9 6 -19 9 -30 9c-13 0 -27 -4 -44 -14l-20 25l47 44c-50 12 -69 51 -69 113v242h-49v40z
" />
    <glyph glyph-name="Tcaron" unicode="&#x164;" horiz-adv-x="684" 
d="M10 718h40c21 -11 40 -14 64 -14h456c26 0 43 3 65 14h39v-180h-36c-34 75 -85 113 -155 113h-66v-558c0 -26 6 -45 50 -57v-36h-249v36c34 11 49 19 49 57v558h-56c-41 0 -126 -4 -165 -113h-36v180zM296 746l-149 157h50l144 -89l144 89h50l-149 -157h-90z" />
    <glyph glyph-name="tcaron" unicode="&#x165;" horiz-adv-x="395" 
d="M32 391h49v91l123 39v-130h81v-40h-81v-261c0 -46 26 -48 37 -48c18 0 32 6 39 10l13 -29c-38 -28 -84 -31 -103 -31c-55 0 -109 16 -109 117v242h-49v40zM307 444l-19 29c53 32 74 62 84 78l-1 4h-7c-33 1 -77 26 -77 77c0 45 34 77 77 77c40 0 83 -26 83 -93
c0 -87 -78 -148 -140 -172z" />
    <glyph glyph-name="Utilde" unicode="&#x168;" horiz-adv-x="789" 
d="M40 700h245v-36c-48 -9 -47 -44 -47 -66v-285c0 -90 -2 -240 198 -240c196 0 204 133 204 198v332c0 22 -1 52 -57 61v36h166v-36c-52 -8 -56 -42 -56 -61v-328c0 -89 -18 -160 -79 -212c-41 -35 -112 -74 -211 -74c-148 0 -218 56 -249 87c-19 19 -66 67 -66 191v331
c0 28 -2 57 -48 66v36zM240 751h-45c25 54 80 104 138 104c36 0 76 -16 115 -26c8 -2 33 -8 48 -8s37 8 52 28h45c-49 -105 -130 -103 -135 -103c-26 0 -48 10 -89 22c-36 10 -52 12 -63 12c-8 0 -41 -1 -66 -29z" />
    <glyph glyph-name="utilde" unicode="&#x169;" horiz-adv-x="484" 
d="M416 387v-297c0 -33 9 -48 36 -55v-35h-159v45h-6c-22 -24 -61 -53 -115 -53c-83 0 -103 62 -103 102v204c0 25 -10 51 -37 54v35h160v-260c0 -17 2 -61 44 -61c26 0 57 21 57 61v171c0 14 -2 50 -36 54v35h159zM124 504h-33c17 60 66 101 102 101c8 0 29 -1 90 -24l3 -1
c12 -5 23 -9 33 -9c13 0 26 7 40 28h34c-25 -67 -65 -101 -101 -101c-15 0 -30 6 -45 12c-24 10 -47 21 -69 21c-18 0 -36 -7 -54 -27z" />
    <glyph glyph-name="Umacron" unicode="&#x16a;" horiz-adv-x="789" 
d="M40 700h245v-36c-48 -9 -47 -44 -47 -66v-285c0 -90 -2 -240 198 -240c196 0 204 133 204 198v332c0 22 -1 52 -57 61v36h166v-36c-52 -8 -56 -42 -56 -61v-328c0 -89 -18 -160 -79 -212c-41 -35 -112 -74 -211 -74c-148 0 -218 56 -249 87c-19 19 -66 67 -66 191v331
c0 28 -2 57 -48 66v36zM294 746v50h248v-50h-248z" />
    <glyph glyph-name="umacron" unicode="&#x16b;" horiz-adv-x="484" 
d="M416 387v-297c0 -33 9 -48 36 -55v-35h-159v45h-6c-22 -24 -61 -53 -115 -53c-83 0 -103 62 -103 102v204c0 25 -10 51 -37 54v35h160v-260c0 -17 2 -61 44 -61c26 0 57 21 57 61v171c0 14 -2 50 -36 54v35h159zM97 498v45h245v-45h-245z" />
    <glyph glyph-name="Ubreve" unicode="&#x16c;" horiz-adv-x="789" 
d="M40 700h245v-36c-48 -9 -47 -44 -47 -66v-285c0 -90 -2 -240 198 -240c196 0 204 133 204 198v332c0 22 -1 52 -57 61v36h166v-36c-52 -8 -56 -42 -56 -61v-328c0 -89 -18 -160 -79 -212c-41 -35 -112 -74 -211 -74c-148 0 -218 56 -249 87c-19 19 -66 67 -66 191v331
c0 28 -2 57 -48 66v36zM264 878h42c5 -26 28 -48 52 -59c17 -8 41 -11 63 -11s46 3 63 11c24 11 47 33 52 59h42c-8 -48 -29 -85 -72 -111c-28 -17 -58 -21 -85 -21s-57 4 -85 21c-43 26 -64 63 -72 111z" />
    <glyph glyph-name="ubreve" unicode="&#x16d;" horiz-adv-x="484" 
d="M416 387v-297c0 -33 9 -48 36 -55v-35h-159v45h-6c-22 -24 -61 -53 -115 -53c-83 0 -103 62 -103 102v204c0 25 -10 51 -37 54v35h160v-260c0 -17 2 -61 44 -61c26 0 57 21 57 61v171c0 14 -2 50 -36 54v35h159zM109 639h35c16 -60 60 -82 98 -82s82 22 98 82h35
c-7 -53 -33 -141 -133 -141s-126 88 -133 141z" />
    <glyph glyph-name="Uring" unicode="&#x16e;" horiz-adv-x="789" 
d="M40 700h245v-36c-48 -9 -47 -44 -47 -66v-285c0 -90 -2 -240 198 -240c196 0 204 133 204 198v332c0 22 -1 52 -57 61v36h166v-36c-52 -8 -56 -42 -56 -61v-328c0 -89 -18 -160 -79 -212c-41 -35 -112 -74 -211 -74c-148 0 -218 56 -249 87c-19 19 -66 67 -66 191v331
c0 28 -2 57 -48 66v36zM315 904c0 43 41 98 115 98s115 -55 115 -98s-41 -98 -115 -98s-115 55 -115 98zM367 904c0 -31 27 -54 63 -54s63 23 63 54s-27 54 -63 54s-63 -23 -63 -54z" />
    <glyph glyph-name="uring" unicode="&#x16f;" horiz-adv-x="484" 
d="M416 387v-297c0 -33 9 -48 36 -55v-35h-159v45h-6c-22 -24 -61 -53 -115 -53c-83 0 -103 62 -103 102v204c0 25 -10 51 -37 54v35h160v-260c0 -17 2 -61 44 -61c26 0 57 21 57 61v171c0 14 -2 50 -36 54v35h159zM160 580c0 45 37 82 82 82s82 -37 82 -82s-37 -82 -82 -82
s-82 37 -82 82zM190 580c0 -29 23 -52 52 -52s52 23 52 52s-23 52 -52 52s-52 -23 -52 -52z" />
    <glyph glyph-name="Uhungarumlaut" unicode="&#x170;" horiz-adv-x="789" 
d="M40 700h245v-36c-48 -9 -47 -44 -47 -66v-285c0 -90 -2 -240 198 -240c196 0 204 133 204 198v332c0 22 -1 52 -57 61v36h166v-36c-52 -8 -56 -42 -56 -61v-328c0 -89 -18 -160 -79 -212c-41 -35 -112 -74 -211 -74c-148 0 -218 56 -249 87c-19 19 -66 67 -66 191v331
c0 28 -2 57 -48 66v36zM289 770l128 127c32 32 52 39 72 39c30 0 40 -22 40 -41c0 -32 -37 -50 -61 -63l-162 -86zM464 770l128 127c32 32 52 39 72 39c30 0 40 -22 40 -41c0 -32 -37 -50 -61 -63l-162 -86z" />
    <glyph glyph-name="uhungarumlaut" unicode="&#x171;" horiz-adv-x="484" 
d="M416 387v-297c0 -33 9 -48 36 -55v-35h-159v45h-6c-22 -24 -61 -53 -115 -53c-83 0 -103 62 -103 102v204c0 25 -10 51 -37 54v35h160v-260c0 -17 2 -61 44 -61c26 0 57 21 57 61v171c0 14 -2 50 -36 54v35h159zM142 514l96 121c15 19 29 36 54 36c21 0 32 -15 32 -32
c0 -26 -24 -42 -39 -53l-124 -88zM284 514l96 121c15 19 29 36 54 36c21 0 32 -15 32 -32c0 -26 -24 -42 -39 -53l-124 -88z" />
    <glyph glyph-name="Uogonek" unicode="&#x172;" horiz-adv-x="789" 
d="M40 700h245v-36c-46 -9 -47 -41 -47 -63v-293c0 -90 2 -235 198 -235s204 133 204 198v332c0 22 -1 52 -57 61v36h166v-36c-52 -8 -56 -42 -56 -61v-328c0 -137 -47 -219 -171 -265l-25 -16c-34 -22 -72 -50 -72 -94c0 -12 3 -24 12 -33c11 -12 24 -13 37 -13
c26 0 47 4 79 27l14 -19c-56 -57 -104 -62 -127 -62c-56 0 -93 34 -93 80c0 62 52 95 89 110c-11 -1 -22 -1 -33 -1c-148 0 -219 56 -249 87c-19 19 -66 67 -66 191v331c0 28 -2 57 -48 66v36z" />
    <glyph glyph-name="uogonek" unicode="&#x173;" horiz-adv-x="484" 
d="M416 387v-297c0 -33 9 -48 36 -55v-35c-19 -6 -44 -18 -56 -28c-14 -12 -23 -29 -23 -45c0 -9 4 -18 10 -23c5 -5 14 -10 32 -10c28 0 52 14 66 23l13 -19c-9 -9 -17 -16 -29 -23c-24 -15 -48 -25 -79 -25c-16 0 -35 3 -52 18c-15 13 -19 29 -19 41c0 22 12 49 41 67
c13 8 39 18 57 24h-120v45h-6c-22 -24 -61 -53 -115 -53c-83 0 -103 62 -103 102v204c0 25 -10 51 -37 54v35h160v-260c0 -17 2 -61 44 -61c26 0 57 21 57 61v171c0 14 -2 50 -36 54v35h159z" />
    <glyph glyph-name="Zacute" unicode="&#x179;" horiz-adv-x="748" 
d="M95 562v138h579v-34l-443 -613h334c52 0 88 15 107 85h36v-138h-668v35l441 612h-228c-44 0 -105 -5 -122 -85h-36zM345 772l123 125c21 21 39 41 72 39s47 -26 47 -48c0 -28 -29 -47 -61 -63l-162 -79z" />
    <glyph glyph-name="zacute" unicode="&#x17a;" horiz-adv-x="420" 
d="M54 283v104h338v-12l-201 -335h89c31 0 66 4 77 64h35v-104h-364v16l200 331h-66c-54 0 -71 -35 -73 -64h-35zM213 517l87 118c16 21 30 36 53 36c25 0 42 -16 42 -40c0 -27 -25 -40 -45 -53l-122 -80z" />
    <glyph glyph-name="Zdotaccent" unicode="&#x17b;" horiz-adv-x="748" 
d="M95 562v138h579v-34l-443 -613h334c52 0 88 15 107 85h36v-138h-668v35l441 612h-228c-44 0 -105 -5 -122 -85h-36zM297 822c0 42 34 76 76 76s76 -34 76 -76s-34 -76 -76 -76s-76 34 -76 76z" />
    <glyph glyph-name="zdotaccent" unicode="&#x17c;" horiz-adv-x="420" 
d="M54 283v104h338v-12l-201 -335h89c31 0 66 4 77 64h35v-104h-364v16l200 331h-66c-54 0 -71 -35 -73 -64h-35zM180 562c0 34 30 64 64 64s64 -30 64 -64s-30 -64 -64 -64s-64 30 -64 64z" />
    <glyph glyph-name="Schwa" unicode="&#x18f;" horiz-adv-x="736" 
d="M45 387h484c0 37 -6 123 -40 178c-26 42 -80 93 -164 93c-38 0 -82 -8 -117 -29c-33 -19 -66 -52 -79 -105h-36v170h36c15 -16 30 -21 45 -21c17 0 33 7 46 12c53 20 95 26 137 26c123 0 199 -58 235 -94c63 -63 99 -158 99 -268c0 -87 -28 -166 -70 -227
c-59 -85 -140 -133 -255 -133c-163 0 -241 107 -268 156c-41 73 -53 175 -53 242zM529 334h-318v-14c0 -35 3 -90 19 -146c31 -109 94 -132 141 -132c41 0 110 22 140 138c13 50 18 111 18 154z" />
    <glyph glyph-name="Icaron" unicode="&#x1cf;" horiz-adv-x="329" 
d="M40 700h249v-36c-49 -7 -49 -46 -49 -66v-496c0 -20 0 -59 49 -66v-36h-249v36c50 6 50 48 50 66v496c0 18 0 60 -50 66v36zM123 746l-149 157h50l144 -89l144 89h50l-149 -157h-90z" />
    <glyph glyph-name="icaron" unicode="&#x1d0;" horiz-adv-x="252" 
d="M188 387v-297c0 -26 8 -48 36 -55v-35h-196v35c5 1 10 3 15 6c13 8 22 21 22 49v208c0 25 -10 51 -37 54v35h160zM110 572l97 96h37l-103 -170h-62l-103 170h37z" />
    <glyph glyph-name="eturn" unicode="&#x1dd;" horiz-adv-x="405" 
d="M26 197h216v50c0 44 -10 109 -66 109c-21 0 -48 -7 -72 -35c-13 -15 -23 -34 -28 -54h-35v128h38c6 -12 15 -19 32 -19c13 0 25 4 37 8c21 6 43 11 65 11c108 0 166 -94 166 -193c0 -118 -79 -210 -192 -210c-105 0 -161 97 -161 200v5zM136 157v-36c0 -77 34 -89 55 -89
c47 0 51 58 51 89v36h-106z" />
    <glyph glyph-name="Gcaron" unicode="&#x1e6;" horiz-adv-x="755" 
d="M509 283h206v-253c-58 -19 -146 -41 -242 -41c-271 0 -390 133 -420 272c-7 31 -8 63 -8 95c0 203 156 356 363 356c48 0 83 -10 125 -22c25 -7 44 -11 58 -11c19 0 30 6 38 19h33v-168h-36c-17 48 -67 129 -202 129c-190 0 -213 -180 -213 -295c0 -26 0 -53 2 -79
c18 -222 170 -243 223 -243c60 0 129 29 129 100v33c0 26 -3 67 -56 72v36zM332 746l-149 157h50l144 -89l144 89h50l-149 -157h-90z" />
    <glyph glyph-name="gcaron" unicode="&#x1e7;" horiz-adv-x="479" 
d="M58 -27l-25 40c24 40 60 92 96 130c-51 11 -98 50 -98 114c0 84 79 135 178 135c48 0 83 -9 117 -31c13 15 44 46 79 46c24 0 43 -14 43 -33c0 -24 -13 -38 -32 -38c-29 0 -24 26 -41 26c-9 0 -20 -5 -25 -15c22 -18 42 -44 42 -82c0 -92 -79 -137 -182 -137
c-16 0 -31 2 -47 4c-16 -16 -28 -32 -37 -49l1 -2c47 9 71 14 105 14c118 0 199 -60 199 -139c0 -51 -37 -128 -193 -128h-6c-132 2 -172 42 -172 75c0 24 14 49 51 49c27 0 42 -15 42 -33c0 -9 -1 -17 -1 -26c0 -15 17 -35 80 -35c104 0 129 46 129 74c0 33 -33 64 -131 64
c-55 0 -123 -9 -172 -23zM212 165c50 0 52 47 52 71v47c0 66 -33 72 -52 72c-28 0 -53 -9 -53 -72v-47c0 -45 12 -71 53 -71zM239 572l97 96h37l-103 -170h-62l-103 170h37z" />
    <glyph glyph-name="Scommaaccent" unicode="&#x218;" horiz-adv-x="590" 
d="M498 683v-163h-39c-26 105 -104 138 -173 138c-83 0 -112 -58 -109 -96c5 -66 79 -94 115 -107c112 -40 253 -84 253 -239c0 -108 -84 -227 -249 -227c-64 0 -106 17 -143 27c-7 2 -18 5 -30 5c-14 0 -28 -4 -35 -19c0 -1 -1 -2 -1 -3h-31l-11 175h39
c34 -71 115 -132 198 -132c57 0 110 24 136 66c11 18 15 40 15 61c0 23 -14 45 -31 61c-22 21 -55 35 -114 57c-80 30 -212 80 -212 222c0 106 82 202 206 202c47 0 81 -11 116 -30c10 -5 25 -14 40 -14c10 0 20 4 26 16h34zM235 -319l-19 29c53 32 74 62 84 78l-1 4h-7
c-33 1 -77 26 -77 77c0 45 34 77 77 77c40 0 83 -26 83 -93c0 -87 -78 -148 -140 -172z" />
    <glyph glyph-name="scommaaccent" unicode="&#x219;" horiz-adv-x="353" 
d="M176 -8c-99 0 -144 37 -144 76c0 30 21 46 43 46c20 0 41 -9 48 -34c4 -14 2 -27 16 -38c3 -2 14 -10 38 -10c39 0 56 26 56 50c0 35 -28 51 -73 70c-37 16 -75 29 -99 52c-13 13 -29 35 -29 68c0 57 40 123 143 123c76 0 122 -40 122 -74c0 -15 -9 -33 -36 -33
s-34 23 -37 35c-3 10 -11 32 -48 32s-48 -24 -48 -39c0 -28 28 -40 49 -49c62 -26 123 -50 145 -108c4 -11 7 -23 7 -35c0 -71 -51 -132 -153 -132zM117 -319l-19 29c53 32 74 62 84 78l-1 4h-7c-33 1 -77 26 -77 77c0 45 34 77 77 77c40 0 83 -26 83 -93
c0 -87 -78 -148 -140 -172z" />
    <glyph glyph-name="Tcommaaccent" unicode="&#x21a;" horiz-adv-x="684" 
d="M10 718h40c21 -11 40 -14 64 -14h456c26 0 43 3 65 14h39v-180h-36c-34 75 -85 113 -155 113h-66v-558c0 -26 6 -45 50 -57v-36h-249v36c34 11 49 19 49 57v558h-56c-41 0 -126 -4 -165 -113h-36v180zM282 -319l-19 29c53 32 74 62 84 78l-1 4h-7c-33 1 -77 26 -77 77
c0 45 34 77 77 77c40 0 83 -26 83 -93c0 -87 -78 -148 -140 -172z" />
    <glyph glyph-name="tcommaaccent" unicode="&#x21b;" horiz-adv-x="314" 
d="M32 391h49v91l123 39v-130h81v-40h-81v-261c0 -46 26 -48 37 -48c18 0 32 6 39 10l13 -29c-38 -28 -84 -31 -103 -31c-55 0 -109 16 -109 117v242h-49v40zM97 -319l-19 29c53 32 74 62 84 78l-1 4h-7c-33 1 -77 26 -77 77c0 45 34 77 77 77c40 0 83 -26 83 -93
c0 -87 -78 -148 -140 -172z" />
    <glyph glyph-name="schwa" unicode="&#x259;" horiz-adv-x="405" 
d="M26 197h216v50c0 44 -10 109 -66 109c-21 0 -48 -7 -72 -35c-13 -15 -23 -34 -28 -54h-35v128h38c6 -12 15 -19 32 -19c13 0 25 4 37 8c21 6 43 11 65 11c108 0 166 -94 166 -193c0 -118 -79 -210 -192 -210c-105 0 -161 97 -161 200v5zM136 157v-36c0 -77 34 -89 55 -89
c47 0 51 58 51 89v36h-106z" />
    <glyph glyph-name="afii57929" unicode="&#x2bc;" horiz-adv-x="300" 
d="M90 446l-19 29c53 32 74 62 84 78l-1 4h-7c-33 1 -77 26 -77 77c0 45 34 77 77 77c40 0 83 -26 83 -93c0 -87 -78 -148 -140 -172z" />
    <glyph glyph-name="accent" unicode="&#x301;" horiz-adv-x="2" 
d="M-320 517l87 118c16 21 30 36 53 36c25 0 42 -16 42 -40c0 -27 -25 -40 -45 -53l-122 -80z" />
    <glyph glyph-name="accent" unicode="&#xf400;" horiz-adv-x="2" 
d="M-320 517l87 118c16 21 30 36 53 36c25 0 42 -16 42 -40c0 -27 -25 -40 -45 -53l-122 -80z" />
    <glyph glyph-name="uni0313" unicode="&#x313;" horiz-adv-x="300" 
d="M90 446l-19 29c53 32 74 62 84 78l-1 4h-7c-33 1 -77 26 -77 77c0 45 34 77 77 77c40 0 83 -26 83 -93c0 -87 -78 -148 -140 -172z" />
    <glyph glyph-name="uni0315" unicode="&#x315;" horiz-adv-x="300" 
d="M90 446l-19 29c53 32 74 62 84 78l-1 4h-7c-33 1 -77 26 -77 77c0 45 34 77 77 77c40 0 83 -26 83 -93c0 -87 -78 -148 -140 -172z" />
    <glyph glyph-name="uni0326" unicode="&#x326;" horiz-adv-x="300" 
d="M90 -319l-19 29c53 32 74 62 84 78l-1 4h-7c-33 1 -77 26 -77 77c0 45 34 77 77 77c40 0 83 -26 83 -93c0 -87 -78 -148 -140 -172z" />
    <glyph glyph-name="Delta" unicode="&#x394;" horiz-adv-x="594" 
d="M585 0h-576l281 714h24zM240 456l-158 -403h300z" />
    <glyph glyph-name="Delta" unicode="&#x2206;" horiz-adv-x="594" 
d="M585 0h-576l281 714h24zM240 456l-158 -403h300z" />
    <glyph glyph-name="Omega" unicode="&#x3a9;" horiz-adv-x="826" 
d="M281 106v42c-157 38 -221 160 -221 255c0 149 127 308 353 308s353 -159 353 -308c0 -95 -64 -217 -221 -255v-42h109c56 0 88 17 103 90h39l-23 -196h-290v176c46 27 78 65 98 123c12 35 18 71 18 108c0 36 -1 71 -9 106c-27 112 -109 153 -177 153s-150 -41 -177 -153
c-8 -35 -9 -70 -9 -106c0 -37 6 -73 18 -108c20 -58 52 -96 98 -123v-176h-290l-23 196h39c15 -73 47 -90 103 -90h109z" />
    <glyph glyph-name="Omega" unicode="&#x2126;" horiz-adv-x="826" 
d="M281 106v42c-157 38 -221 160 -221 255c0 149 127 308 353 308s353 -159 353 -308c0 -95 -64 -217 -221 -255v-42h109c56 0 88 17 103 90h39l-23 -196h-290v176c46 27 78 65 98 123c12 35 18 71 18 108c0 36 -1 71 -9 106c-27 112 -109 153 -177 153s-150 -41 -177 -153
c-8 -35 -9 -70 -9 -106c0 -37 6 -73 18 -108c20 -58 52 -96 98 -123v-176h-290l-23 196h39c15 -73 47 -90 103 -90h109z" />
    <glyph glyph-name="pi" unicode="&#x3c0;" horiz-adv-x="550" 
d="M214 370v-300c0 -36 -4 -80 -66 -80c-44 0 -66 26 -66 58c0 43 30 69 53 128c15 40 27 92 27 143v51h-19c-66 0 -87 -39 -89 -73h-29v10c0 154 88 165 143 165h372l-12 -102h-69v-273c0 -31 16 -40 26 -40c12 0 26 7 35 16l20 -23c-36 -43 -88 -60 -129 -60
c-83 0 -88 68 -88 108v272h-109z" />
    <glyph glyph-name="afii10023" unicode="&#x401;" horiz-adv-x="708" 
d="M40 700h495c28 0 39 2 46 18h25v-179h-36c-23 88 -69 108 -161 108h-167v-253h111c47 0 86 11 86 62v2h36v-180h-36c-5 60 -49 63 -66 63h-131v-288h240c74 0 137 52 150 124h36v-177h-628v36c47 5 52 39 52 66v496c0 30 -5 60 -52 66v36zM145 847c0 42 37 77 77 77
s76 -33 76 -77c0 -42 -33 -76 -76 -76c-41 0 -77 34 -77 76zM398 847c0 42 37 77 77 77s76 -33 76 -77c0 -42 -33 -76 -76 -76c-41 0 -77 34 -77 76z" />
    <glyph glyph-name="afii10051" unicode="&#x402;" horiz-adv-x="850" 
d="M197 0v36c21 2 50 15 50 57v554h-46c-43 0 -120 -15 -155 -112h-36v183h40c24 -18 55 -18 64 -18h446c9 0 34 4 55 18h39v-183h-36c-38 86 -99 112 -155 112h-66v-265c44 30 97 51 164 51c142 0 244 -86 244 -214c0 -112 -68 -187 -137 -215c-29 -12 -61 -15 -92 -15
c-65 0 -141 33 -141 113c0 48 33 82 78 82c38 0 69 -27 69 -66c0 -12 -2 -23 -9 -35c-5 -10 -11 -19 -11 -28c0 -7 11 -13 20 -13c53 0 57 70 57 142v35c0 56 -7 151 -116 151c-40 0 -88 -15 -126 -44v-326h-200z" />
    <glyph glyph-name="afii10052" unicode="&#x403;" horiz-adv-x="555" 
d="M40 700h430c19 0 36 5 52 18h23v-182h-36c-33 106 -107 111 -142 111h-128v-554c0 -24 10 -50 50 -57v-36h-249v36c40 6 49 31 49 57v514c0 26 -9 51 -49 57v36zM243 772l123 125c21 21 39 41 72 39s47 -26 47 -48c0 -28 -29 -47 -61 -63l-162 -79z" />
    <glyph glyph-name="afii10053" unicode="&#x404;" horiz-adv-x="709" 
d="M641 148l32 -39c-103 -88 -185 -120 -277 -120c-207 0 -351 161 -351 365c0 212 151 357 333 357c114 0 121 -28 178 -28c11 0 23 8 31 17h36v-165h-36c-26 72 -106 123 -192 123c-90 0 -178 -60 -183 -261h5c41 33 89 61 134 61c26 0 54 -20 65 -27
c27 -17 52 -43 73 -43c23 0 57 19 74 39l27 -28c-50 -49 -111 -99 -164 -99c-21 0 -44 16 -83 39c-27 16 -41 21 -67 21c-14 0 -65 -2 -65 -59s22 -240 217 -240c40 0 117 8 213 87z" />
    <glyph glyph-name="afii10054" unicode="&#x405;" horiz-adv-x="590" 
d="M498 683v-163h-39c-26 105 -104 138 -173 138c-83 0 -112 -58 -109 -96c5 -66 79 -94 115 -107c112 -40 253 -84 253 -239c0 -108 -84 -227 -249 -227c-64 0 -106 17 -143 27c-7 2 -18 5 -30 5c-14 0 -28 -4 -35 -19c0 -1 -1 -2 -1 -3h-31l-11 175h39
c34 -71 115 -132 198 -132c57 0 110 24 136 66c11 18 15 40 15 61c0 23 -14 45 -31 61c-22 21 -55 35 -114 57c-80 30 -212 80 -212 222c0 106 82 202 206 202c47 0 81 -11 116 -30c10 -5 25 -14 40 -14c10 0 20 4 26 16h34z" />
    <glyph glyph-name="afii10055" unicode="&#x406;" horiz-adv-x="329" 
d="M40 700h249v-36c-49 -7 -49 -46 -49 -66v-496c0 -20 0 -59 49 -66v-36h-249v36c50 6 50 48 50 66v496c0 18 0 60 -50 66v36z" />
    <glyph glyph-name="afii10056" unicode="&#x407;" horiz-adv-x="330" 
d="M290 700v-36c-48 -10 -49 -43 -49 -57v-514c0 -10 1 -50 49 -57v-36h-249v36c21 2 50 15 50 57v514c0 42 -29 55 -50 57v36h249zM-13 842c0 42 37 77 77 77s76 -33 76 -77c0 -42 -33 -76 -76 -76c-41 0 -77 34 -77 76zM190 842c0 42 37 77 77 77s76 -33 76 -77
c0 -42 -33 -76 -76 -76c-41 0 -77 34 -77 76z" />
    <glyph glyph-name="afii10057" unicode="&#x408;" horiz-adv-x="359" 
d="M70 700h249v-36c-48 -7 -49 -40 -49 -66v-508c0 -195 -114 -254 -194 -254c-73 0 -116 33 -116 77c0 28 18 54 54 54c27 0 48 -16 51 -43v-13c0 -16 0 -29 21 -29c33 0 34 42 34 63v653c0 26 -3 58 -50 66v36z" />
    <glyph glyph-name="afii10058" unicode="&#x409;" horiz-adv-x="982" 
d="M222 700h236l102 -296c37 8 68 11 95 11c213 0 282 -110 282 -208c0 -133 -123 -207 -237 -207h-164l-179 524h-12c-25 -122 -72 -303 -104 -381c-51 -126 -95 -154 -156 -154c-60 0 -85 37 -85 73c0 41 31 65 64 65c10 0 20 -3 30 -7c14 -6 27 -14 41 -14
c33 0 53 37 99 186c19 61 69 228 69 303c0 10 -1 69 -64 69h-17v36zM575 361l103 -302c60 9 97 72 97 143s-27 160 -161 160c-13 0 -26 0 -39 -1z" />
    <glyph glyph-name="afii10059" unicode="&#x40a;" horiz-adv-x="1151" 
d="M785 700v-36c-48 -7 -49 -40 -49 -66v-184h89c228 0 281 -118 281 -207c0 -98 -74 -207 -249 -207h-321v36c46 5 50 44 50 57v241h-347v-241c0 -26 6 -45 50 -57v-36h-249v36c37 12 49 24 49 57v514c0 10 -1 50 -49 57v36h249v-36c-21 -2 -50 -15 -50 -57v-220h347v211
c0 26 -1 59 -49 66v36h248zM736 361v-308h62c66 0 142 19 142 149c0 100 -39 159 -143 159h-61z" />
    <glyph glyph-name="afii10060" unicode="&#x40b;" horiz-adv-x="829" 
d="M197 0v36c21 2 50 15 50 57v558h-46c-44 0 -120 -15 -155 -113h-36v180h40c21 -11 40 -14 64 -14h447c9 0 30 2 55 14h39v-180h-36c-34 75 -85 113 -155 113h-67v-218c48 18 118 34 179 34c25 0 50 -4 74 -12c81 -29 91 -93 91 -175v-187c0 -42 30 -54 48 -57v-36h-250
v36c47 7 52 38 52 57v187c0 45 -1 120 -94 120c-24 0 -54 -2 -100 -20v-287c0 -38 14 -45 50 -57v-36h-250z" />
    <glyph glyph-name="afii10061" unicode="&#x40c;" horiz-adv-x="732" 
d="M40 700h248v-36c-39 -6 -49 -31 -49 -57v-179h6c100 0 136 75 154 119l7 18c25 65 57 146 167 146c29 0 51 -4 65 -9v-161h-36c-7 23 -26 34 -44 34c-28 0 -48 -23 -62 -41c-48 -61 -71 -105 -143 -129v-7c55 -7 94 -23 101 -26c89 -38 109 -110 124 -174
c11 -46 16 -72 25 -90c13 -28 46 -63 89 -66v-39c-21 -8 -45 -14 -79 -14c-89 0 -139 41 -163 80c-23 37 -27 76 -35 116c-13 62 -26 116 -70 153c-19 16 -53 37 -97 37h-9v-282c0 -26 10 -51 49 -57v-36h-248v36c40 6 49 31 49 57v514c0 26 -9 51 -49 57v36zM320 772
l123 125c21 21 39 41 72 39s47 -26 47 -48c0 -28 -29 -47 -61 -63l-162 -79z" />
    <glyph glyph-name="afii10062" unicode="&#x40e;" horiz-adv-x="684" 
d="M40 700h291v-35h-3c-21 0 -45 -10 -45 -35c0 -10 4 -24 14 -40l151 -249h7l99 234c5 11 12 34 12 44c0 31 -34 40 -68 45v36h186v-36c-41 -15 -52 -41 -67 -77l-175 -413c-47 -111 -111 -185 -223 -185c-114 0 -134 68 -134 96c0 43 25 83 77 83c30 0 68 -11 78 -65
c2 -12 6 -37 39 -37c49 0 85 63 99 101l-268 443c-18 31 -44 47 -70 54v36zM385 824c44 0 154 19 158 69v3c0 7 -3 14 -17 14c-10 0 -19 -5 -28 -9c-10 -4 -19 -6 -27 -6c-24 0 -39 16 -39 34c0 20 15 44 58 44c52 0 90 -30 92 -79v-4c0 -76 -90 -144 -197 -144
c-111 0 -203 70 -203 144v4c2 49 40 79 92 79c42 0 58 -24 58 -44c0 -19 -17 -34 -40 -34c-8 0 -17 2 -26 6c-8 4 -18 9 -28 9c-13 0 -18 -8 -18 -15v-2c2 -27 62 -69 165 -69z" />
    <glyph glyph-name="afii10145" unicode="&#x40f;" horiz-adv-x="775" 
d="M486 700h249v-36c-15 -2 -49 -10 -49 -57v-524c0 -47 34 -55 49 -57v-36h-243c-46 -45 -57 -99 -58 -200h-92c-1 101 -12 155 -58 200h-244v36c22 4 50 18 50 57v524c0 39 -28 53 -50 57v36h249v-36c-46 -7 -49 -43 -49 -57v-564h296v564c0 24 -10 50 -50 57v36z" />
    <glyph glyph-name="afii10017" unicode="&#x410;" horiz-adv-x="758" 
d="M0 36c40 13 64 58 73 77l202 427c10 22 12 43 12 61c0 23 -35 21 -47 20v36c76 6 111 37 126 54h36l262 -548c46 -96 72 -116 94 -127v-36h-286v36c40 -1 55 34 55 57c0 8 -7 27 -9 31l-31 65h-319l-26 -59c-10 -22 -37 -78 54 -94v-36h-196v36zM325 520l-127 -274v-4
h260v3l-129 275h-4z" />
    <glyph glyph-name="afii10018" unicode="&#x411;" horiz-adv-x="649" 
d="M40 700h426c33 0 51 0 64 18h26v-183h-36c-43 109 -85 112 -132 112h-148v-228h97c236 0 267 -136 267 -208c0 -66 -28 -211 -262 -211h-302v36c37 6 50 26 50 66v496c0 40 -13 60 -50 66v36zM240 53h73c89 0 125 27 125 155c0 144 -68 158 -124 158h-74v-313z" />
    <glyph glyph-name="afii10019" unicode="&#x412;" horiz-adv-x="650" 
d="M40 700h270c96 0 258 -11 258 -173c0 -116 -115 -149 -153 -158v-10c116 -11 190 -87 190 -181c0 -166 -169 -178 -246 -178h-319v36c40 6 49 31 49 57v514c0 26 -9 51 -49 57v36zM239 647v-256h54c80 0 126 55 126 127c0 116 -87 129 -146 129h-34zM239 338v-285h58
c51 0 146 12 146 137c0 121 -105 148 -167 148h-37z" />
    <glyph glyph-name="afii10020" unicode="&#x413;" horiz-adv-x="555" 
d="M40 700h430c19 0 36 5 52 18h23v-182h-36c-33 106 -107 111 -142 111h-128v-554c0 -24 10 -50 50 -57v-36h-249v36c40 6 49 31 49 57v514c0 26 -9 51 -49 57v36z" />
    <glyph glyph-name="afii10021" unicode="&#x414;" horiz-adv-x="704" 
d="M664 700v-36c-34 -8 -52 -23 -52 -57v-497c0 -29 1 -57 74 -57h14c15 0 29 -2 29 -30c0 -62 -107 -192 -169 -192c-21 0 -26 15 -26 23c0 11 6 19 20 51c6 14 12 29 12 44c0 14 -5 51 -47 51h-311c-43 0 -57 -12 -57 -38c0 -19 10 -47 17 -66c4 -10 11 -28 11 -42
c0 -13 -6 -23 -26 -23c-9 0 -27 3 -65 37c-39 35 -88 108 -88 155c0 37 31 29 65 37c53 12 70 53 95 116l127 315c4 11 32 75 32 110c0 39 -16 63 -93 63h-5v36h443zM462 647h-10c-46 0 -64 -27 -86 -84l-157 -411c-11 -28 -21 -48 -21 -67c0 -23 10 -32 42 -32h232v594z
" />
    <glyph glyph-name="afii10022" unicode="&#x415;" horiz-adv-x="708" 
d="M40 700h495c28 0 39 2 46 18h25v-179h-36c-23 88 -69 108 -161 108h-167v-253h111c48 0 87 11 86 64h36v-180h-36c-5 60 -49 63 -66 63h-131v-288h240c74 0 137 52 150 124h36v-177h-628v36c47 5 52 39 52 66v496c0 30 -5 60 -52 66v36z" />
    <glyph glyph-name="afii10024" unicode="&#x416;" horiz-adv-x="1010" 
d="M380 700h250v-36c-35 -12 -50 -20 -50 -57v-124l11 -1c57 0 84 43 98 72c27 57 58 159 154 159c19 0 41 -4 66 -13v-161h-45c-2 20 -16 34 -33 34c-9 0 -20 -4 -30 -14c-33 -33 -26 -70 -118 -100v-6c19 -4 104 -25 163 -94c60 -70 72 -156 80 -220c9 -66 3 -89 44 -103
v-36h-235v36c42 14 43 54 43 103c0 79 -10 144 -51 207c-11 17 -58 83 -134 83l-13 -1v-335c0 -37 15 -45 50 -57v-36h-250v36c35 12 50 20 50 57v335l-13 1c-76 0 -123 -66 -134 -83c-41 -63 -51 -128 -51 -207c0 -49 1 -89 43 -103v-36h-235v36c42 14 35 35 45 111
c9 67 22 146 78 212c60 69 145 90 164 94v6c-92 30 -85 67 -118 100c-10 10 -21 14 -30 14c-17 0 -31 -14 -33 -34h-45v161c25 9 47 13 66 13c96 0 127 -102 154 -159c14 -29 41 -72 98 -72l11 1v124c0 37 -15 45 -50 57v36z" />
    <glyph glyph-name="afii10025" unicode="&#x417;" horiz-adv-x="717" 
d="M115 541l11 166h37c5 -11 14 -23 39 -23c28 0 61 15 98 21c22 3 54 6 78 6c149 0 267 -76 267 -188c0 -67 -35 -121 -85 -152v-5c87 -51 112 -114 112 -169c0 -145 -155 -208 -274 -208c-89 0 -158 30 -184 43c-45 22 -77 45 -114 45c-24 0 -56 -8 -76 -17l-24 40
c40 46 103 91 160 91c44 0 73 -27 104 -60c36 -37 55 -61 80 -75c15 -8 31 -14 48 -14c59 0 115 39 115 150c0 55 -17 94 -42 127c-44 -22 -91 -33 -135 -33c-90 0 -136 35 -136 88c0 46 33 84 115 84c39 0 80 -6 160 -39c33 35 38 79 38 105c0 95 -80 140 -155 140
c-63 0 -168 -30 -201 -123h-36zM428 369c-32 21 -81 36 -122 36c-47 0 -59 -16 -59 -31c0 -19 17 -35 80 -35c54 0 83 16 101 30z" />
    <glyph glyph-name="afii10026" unicode="&#x418;" horiz-adv-x="798" 
d="M40 700h249v-36c-35 -12 -50 -20 -50 -57v-374h5l315 328v46c0 24 -10 50 -50 57v36h249v-36c-40 -6 -49 -31 -49 -57v-514c0 -26 9 -51 49 -57v-36h-249v36c49 8 50 46 50 57v381h-5l-315 -329v-52c0 -24 10 -50 50 -57v-36h-249v36c40 6 49 31 49 57v514
c0 26 -9 51 -49 57v36z" />
    <glyph glyph-name="afii10027" unicode="&#x419;" horiz-adv-x="798" 
d="M40 700h249v-36c-35 -12 -50 -20 -50 -57v-374h5l315 328v46c0 24 -10 50 -50 57v36h249v-36c-40 -6 -49 -31 -49 -57v-514c0 -26 9 -51 49 -57v-36h-249v36c49 8 50 46 50 57v381h-5l-315 -329v-52c0 -24 10 -50 50 -57v-36h-249v36c40 6 49 31 49 57v514
c0 26 -9 51 -49 57v36zM402 851c100 0 163 41 163 69c0 8 -4 17 -18 17c-10 0 -20 -5 -28 -9c-9 -4 -18 -6 -26 -6c-23 0 -40 15 -40 34c0 20 16 44 58 44c52 0 92 -30 92 -79c0 -76 -90 -148 -202 -148s-202 72 -202 148c0 49 40 79 92 79c42 0 58 -24 58 -44
c0 -19 -17 -34 -40 -34c-8 0 -17 2 -26 6c-8 4 -18 9 -28 9c-14 0 -18 -9 -18 -17c0 -27 62 -69 165 -69z" />
    <glyph glyph-name="afii10028" unicode="&#x41a;" horiz-adv-x="732" 
d="M40 700h248v-36c-39 -6 -49 -31 -49 -57v-179h6c100 0 136 75 154 119l7 18c25 65 57 146 167 146c29 0 51 -4 65 -9v-161h-36c-7 23 -26 34 -44 34c-28 0 -48 -23 -62 -41c-48 -61 -71 -105 -143 -129v-7c55 -7 94 -23 101 -26c89 -38 109 -110 124 -174
c11 -46 16 -72 25 -90c13 -28 46 -63 89 -66v-39c-21 -8 -45 -14 -79 -14c-89 0 -139 41 -163 80c-23 37 -27 76 -35 116c-13 62 -26 116 -70 153c-19 16 -53 37 -97 37h-9v-282c0 -26 10 -51 49 -57v-36h-248v36c40 6 49 31 49 57v514c0 26 -9 51 -49 57v36z" />
    <glyph glyph-name="afii10029" unicode="&#x41b;" horiz-adv-x="733" 
d="M223 700h236l201 -587c15 -44 25 -69 63 -77v-36h-186l-179 524h-12c-18 -90 -66 -286 -104 -381c-52 -126 -94 -154 -156 -154c-63 0 -86 44 -86 73c0 33 25 65 65 65c10 0 20 -3 30 -7c14 -6 27 -14 41 -14c33 0 53 37 99 186c19 61 69 228 69 303c0 10 -1 69 -64 69
h-17v36z" />
    <glyph glyph-name="afii10030" unicode="&#x41c;" horiz-adv-x="917" 
d="M40 700h241l182 -499h4l182 499h228v-36c-16 -2 -49 -12 -49 -57v-515c0 -43 33 -54 49 -56v-36h-249v36c46 6 50 39 50 56v512h-7l-220 -604h-70l-226 620h-4v-518c0 -60 39 -66 56 -66v-36h-167v36c54 0 56 50 56 67v479c0 14 0 82 -56 82v36z" />
    <glyph glyph-name="afii10031" unicode="&#x41d;" horiz-adv-x="827" 
d="M289 700v-36c-21 -2 -50 -15 -50 -57v-220h348v220c0 26 -9 51 -49 57v36h249v-36c-36 -5 -50 -25 -50 -57v-514c0 -38 15 -46 49 -57v-36h-248v36c34 11 49 19 49 57v241h-348v-241c0 -26 6 -45 50 -57v-36h-249v36c37 12 49 24 49 57v514c0 10 -1 50 -49 57v36h249z
" />
    <glyph glyph-name="afii10032" unicode="&#x41e;" 
d="M398 711c202 0 353 -160 353 -363c0 -197 -148 -359 -353 -359s-353 162 -353 359c0 203 151 363 353 363zM398 658c-113 0 -187 -55 -187 -310c0 -252 74 -306 187 -306s187 54 187 306c0 255 -74 310 -187 310z" />
    <glyph glyph-name="afii10033" unicode="&#x41f;" horiz-adv-x="775" 
d="M735 700v-36c-40 -6 -49 -31 -49 -57v-514c0 -26 9 -51 49 -57v-36h-249v36c40 7 50 33 50 57v554h-296v-554c0 -10 1 -50 49 -57v-36h-249v36c21 2 50 15 50 57v514c0 42 -29 55 -50 57v36h695z" />
    <glyph glyph-name="afii10034" unicode="&#x420;" horiz-adv-x="653" 
d="M40 0v36c19 2 49 15 49 58v391c0 164 130 226 268 226c166 0 251 -117 251 -233c0 -53 -13 -172 -130 -223c-28 -12 -57 -20 -87 -20c-41 0 -98 6 -152 44v-185c0 -25 18 -54 53 -58v-36h-252zM239 556v-170c0 -52 54 -85 105 -85c90 0 98 85 98 178c0 92 -2 174 -97 179
h-6c-53 0 -100 -38 -100 -102z" />
    <glyph glyph-name="afii10035" unicode="&#x421;" horiz-adv-x="716" 
d="M640 148l31 -39c-103 -87 -185 -120 -276 -120c-212 0 -350 162 -350 365c0 212 147 357 332 357c40 0 72 -4 111 -15c34 -10 51 -13 66 -13c8 0 16 5 23 10c3 2 6 4 8 7h36v-165h-36c-26 71 -106 123 -192 123c-42 0 -72 -16 -92 -30c-83 -57 -90 -157 -90 -286
c0 -102 10 -281 215 -281c70 0 137 26 214 87z" />
    <glyph glyph-name="afii10036" unicode="&#x422;" horiz-adv-x="684" 
d="M10 718h40c21 -11 40 -14 64 -14h456c26 0 43 3 65 14h39v-180h-36c-34 75 -85 113 -155 113h-66v-558c0 -26 6 -45 50 -57v-36h-249v36c34 11 49 19 49 57v558h-56c-41 0 -126 -4 -165 -113h-36v180z" />
    <glyph glyph-name="afii10037" unicode="&#x423;" horiz-adv-x="684" 
d="M40 700h291v-35h-3c-21 0 -45 -10 -45 -35c0 -10 4 -24 14 -40l151 -249h7l99 234c5 11 12 34 12 44c0 31 -34 40 -68 45v36h186v-36c-41 -15 -52 -41 -67 -77l-175 -413c-47 -111 -111 -185 -223 -185c-114 0 -134 68 -134 96c0 43 25 83 77 83c30 0 68 -11 78 -65
c2 -12 6 -37 39 -37c49 0 85 63 99 101l-268 443c-18 31 -44 47 -70 54v36z" />
    <glyph glyph-name="afii10038" unicode="&#x424;" horiz-adv-x="928" 
d="M340 700h248v-36c-48 -7 -49 -40 -49 -66v-51h4c45 61 97 68 125 68c107 0 215 -74 215 -250c0 -141 -79 -238 -204 -238c-83 0 -121 48 -134 67h-6v-92c0 -26 1 -59 49 -66v-36h-248v36c3 0 6 1 9 2c40 12 40 39 40 64v92h-6c-13 -19 -51 -67 -134 -67
c-125 0 -204 97 -204 238c0 176 108 250 215 250c28 0 80 -7 125 -68h4v51c0 26 -1 59 -49 66v36zM389 325v85c0 121 -59 138 -92 138c-77 0 -86 -84 -86 -169c0 -98 8 -183 87 -183c56 0 91 57 91 129zM539 410v-85c0 -72 35 -129 91 -129c79 0 87 85 87 183
c0 85 -9 169 -86 169c-33 0 -92 -17 -92 -138z" />
    <glyph glyph-name="afii10039" unicode="&#x425;" horiz-adv-x="842" 
d="M750 700v-36c-16 -1 -59 -7 -118 -77l-156 -183l267 -304c19 -21 41 -49 79 -64v-36h-303v36h2c27 0 42 17 42 30c0 10 -9 21 -13 26l-183 212l-172 -198c-8 -9 -21 -24 -21 -39c0 -16 20 -31 49 -31h3v-36h-206v36c45 9 77 39 91 56l219 253l-228 262
c-35 41 -55 52 -72 57v36h301v-36c-18 -1 -41 -9 -41 -25c0 -15 12 -32 18 -39l134 -154l130 151c20 23 25 35 25 43c0 9 -7 24 -46 24v36h199z" />
    <glyph glyph-name="afii10040" unicode="&#x426;" horiz-adv-x="775" 
d="M40 700h249v-36c-48 -7 -49 -47 -49 -57v-554h296v554c0 24 -10 50 -50 57v36h249v-36c-40 -6 -49 -31 -49 -57v-505c0 -37 10 -45 29 -61c23 -19 56 -50 56 -100c0 -62 -60 -149 -183 -149c-40 0 -88 10 -128 22s-69 24 -97 36c-22 9 -86 34 -122 34
c-19 0 -29 -9 -29 -18c0 -10 6 -11 12 -11h14c20 -2 27 -16 27 -29c0 -19 -16 -35 -43 -35c-32 0 -50 26 -50 56c0 48 53 100 159 100h12c49 -2 99 -13 174 -39c63 -22 98 -36 132 -36c29 0 69 17 69 62c0 40 -36 66 -77 66h-601v36c21 2 50 15 50 57v514
c0 35 -23 55 -50 57v36z" />
    <glyph glyph-name="afii10041" unicode="&#x427;" horiz-adv-x="692" 
d="M260 700v-36c-47 -7 -52 -38 -52 -57v-165c0 -68 6 -119 126 -119c37 0 78 6 118 19v265c0 38 -14 45 -50 57v36h250v-36c-36 -12 -50 -19 -50 -57v-514c0 -13 4 -52 50 -57v-36h-250v36c36 5 50 25 50 57v196c-52 -16 -134 -34 -202 -34c-149 0 -192 55 -192 187v165
c0 42 -30 54 -48 57v36h250z" />
    <glyph glyph-name="afii10042" unicode="&#x428;" horiz-adv-x="1090" 
d="M289 700v-36c-47 -8 -50 -40 -50 -66v-545h231v545c0 26 -1 59 -49 66v36h249v-36c-47 -8 -50 -40 -50 -66v-545h231v545c0 28 -5 54 -41 64c-3 1 -6 2 -9 2v36h249v-36c-48 -7 -49 -40 -49 -66v-505c0 -26 9 -51 49 -57v-36h-1010v36c9 1 15 4 23 8c9 5 26 14 26 49v505
c0 26 -1 59 -49 66v36h249z" />
    <glyph glyph-name="afii10043" unicode="&#x429;" horiz-adv-x="1116" 
d="M40 700h250v-36c-47 -8 -50 -40 -50 -66v-545h231v545c0 23 -1 60 -50 66v36h250v-36c-47 -8 -50 -40 -50 -66v-545h231v545c0 26 -3 58 -50 66v36h250v-36c-49 -6 -50 -43 -50 -66v-497c0 -35 20 -48 37 -59l2 -1c38 -24 71 -56 71 -100c0 -81 -104 -149 -231 -149
c-31 0 -62 3 -92 8c-48 8 -88 18 -132 31c-54 16 -82 25 -119 35c-54 14 -77 18 -94 18c-22 0 -29 -11 -29 -18c0 -10 6 -11 12 -11h14c20 -2 27 -16 27 -29c0 -17 -13 -35 -40 -35c-2 0 -52 -1 -52 51c0 79 93 106 170 106c128 0 221 -34 329 -63c27 -7 55 -13 83 -13
c67 0 88 37 88 62c0 39 -46 66 -86 66h-920v36c46 5 50 40 50 57v505c0 23 -1 60 -50 66v36z" />
    <glyph glyph-name="afii10044" unicode="&#x42a;" horiz-adv-x="794" 
d="M10 700h421v-36c-48 -7 -49 -40 -49 -66v-184h89c227 0 278 -118 278 -207c0 -109 -84 -207 -246 -207h-321v36c47 5 50 43 50 66v545h-26c-91 0 -142 -58 -160 -111h-36v164zM382 361v-308h62c66 0 142 19 142 149c0 100 -39 159 -143 159h-61z" />
    <glyph glyph-name="afii10045" unicode="&#x42b;" horiz-adv-x="935" 
d="M289 700v-36c-48 -7 -49 -40 -49 -66v-184h89c227 0 278 -118 278 -207c0 -109 -84 -207 -246 -207h-321v36c47 5 50 43 50 66v496c0 26 -1 59 -49 66v36h248zM240 361v-308h62c66 0 142 19 142 149c0 100 -39 159 -143 159h-61zM641 664v36h249v-36
c-40 -6 -49 -31 -49 -57v-514c0 -26 9 -51 49 -57v-36h-249v36c21 2 50 15 50 57v514c0 42 -29 55 -50 57z" />
    <glyph glyph-name="afii10046" unicode="&#x42c;" horiz-adv-x="652" 
d="M289 700v-36c-48 -7 -49 -40 -49 -66v-184h89c227 0 278 -118 278 -207c0 -109 -84 -207 -246 -207h-321v36c47 5 50 43 50 66v496c0 26 -1 59 -49 66v36h248zM240 361v-308h62c66 0 142 19 142 149c0 100 -39 159 -143 159h-61z" />
    <glyph glyph-name="afii10047" unicode="&#x42d;" horiz-adv-x="700" 
d="M57 694h36c15 -16 30 -21 45 -21c17 0 33 7 46 12c53 20 95 26 137 26c158 0 238 -94 262 -125c67 -87 72 -192 72 -215v-3c0 -37 -1 -155 -82 -258c-52 -65 -134 -121 -273 -121c-141 0 -255 71 -255 163c0 44 29 82 78 82c37 0 69 -27 69 -66c0 -40 -20 -24 -20 -63
c0 -27 54 -63 119 -63c80 0 202 56 202 288v19h-7c-36 -41 -65 -65 -98 -65c-26 0 -72 19 -93 29c-42 20 -67 40 -91 40c-21 0 -49 -17 -66 -36l-27 28c39 39 101 97 158 97c14 0 28 -5 42 -11c20 -8 38 -17 57 -27s39 -20 61 -20c20 0 60 8 60 60c0 49 -33 214 -200 214
c-70 0 -171 -32 -196 -134h-36v170z" />
    <glyph glyph-name="afii10048" unicode="&#x42e;" horiz-adv-x="1113" 
d="M239 377h123c20 182 148 334 353 334c202 0 353 -161 353 -362c0 -198 -148 -360 -353 -360c-221 0 -346 178 -352 335h-124v-231c0 -24 10 -50 50 -57v-36h-249v36c40 6 49 31 49 57v514c0 26 -9 51 -49 57v36h249v-36c-40 -7 -50 -33 -50 -57v-230zM715 658
c-154 0 -187 -125 -187 -310c0 -14 0 -28 1 -42c9 -208 72 -264 186 -264c113 0 187 54 187 306c0 185 -33 310 -187 310z" />
    <glyph glyph-name="afii10049" unicode="&#x42f;" horiz-adv-x="690" 
d="M650 700v-36c-50 -8 -50 -45 -50 -66v-496c0 -25 3 -59 50 -66v-36h-249v36c48 7 49 40 49 66v216h-20c-62 0 -123 0 -163 -147c-21 -76 -53 -182 -207 -182c-5 0 -30 0 -60 8v37c17 3 31 9 43 19c29 24 39 70 54 119c23 77 52 112 103 137c17 9 33 14 51 18v7
c-145 33 -176 115 -176 183c0 93 57 183 267 183h308zM450 647h-59c-58 0 -150 -3 -150 -135c0 -50 10 -141 152 -141h57v276z" />
    <glyph glyph-name="afii10065" unicode="&#x430;" horiz-adv-x="430" 
d="M416 52v-34c-10 -10 -31 -26 -68 -26c-11 0 -53 2 -78 55h-5c-37 -38 -72 -55 -125 -55c-92 0 -112 62 -112 97c0 62 32 146 219 150v28c0 80 -23 88 -48 88c-20 0 -31 -3 -56 -43c-10 -15 -21 -29 -42 -29c-19 0 -37 12 -37 36c0 44 59 76 146 76
c158 0 160 -126 160 -170v-129c0 -21 1 -45 36 -45c3 0 7 0 10 1zM247 130v69c-49 0 -91 -38 -91 -97c0 -45 25 -54 41 -54c50 0 50 61 50 82z" />
    <glyph glyph-name="afii10066" unicode="&#x431;" horiz-adv-x="461" 
d="M172 373h3c8 6 35 22 82 22c101 0 176 -76 176 -195c0 -147 -103 -208 -203 -208c-68 0 -198 37 -198 237c0 187 92 301 170 339c39 19 75 20 107 20l36 -2c15 0 27 1 39 18h34c-3 -61 -32 -137 -105 -137c-56 0 -66 36 -95 36s-47 -57 -47 -113zM233 355
c-60 0 -64 -44 -64 -120v-90c0 -64 6 -113 64 -113s63 50 63 116v67c0 86 0 140 -63 140z" />
    <glyph glyph-name="afii10067" unicode="&#x432;" horiz-adv-x="459" 
d="M32 387h228c53 0 155 -5 155 -94c0 -23 -8 -89 -123 -95v-4h4c107 0 142 -43 142 -94c0 -94 -97 -100 -169 -100h-237v35c28 7 36 29 36 55v208c0 6 0 48 -36 54v35zM191 347v-126h31c49 0 71 18 71 63c0 28 -7 63 -71 63h-31zM191 181v-141h32c59 0 78 28 78 67
c0 69 -53 74 -81 74h-29z" />
    <glyph glyph-name="afii10068" unicode="&#x433;" horiz-adv-x="369" 
d="M355 387v-135h-35c-13 88 -74 95 -109 95h-20v-257c0 -31 9 -49 36 -55v-35h-195v35c34 7 36 36 36 55v208c0 14 -2 50 -36 54v35h323z" />
    <glyph glyph-name="afii10069" unicode="&#x434;" horiz-adv-x="481" 
d="M429 387v-35c-15 -2 -37 -10 -37 -63v-188c0 -59 15 -59 45 -59c29 0 37 -15 37 -29c0 -41 -80 -126 -112 -126c-5 0 -14 3 -14 15s9 24 15 36c5 10 8 20 8 31c0 31 -36 31 -49 31h-177c-10 0 -42 -1 -42 -33c0 -18 10 -31 16 -42c5 -9 7 -16 7 -22c0 -10 -6 -16 -14 -16
c-39 0 -105 85 -105 124c0 10 1 22 18 28c21 7 27 -2 45 12c28 22 46 79 58 112l2 5c9 25 19 50 28 90c4 18 7 34 7 48c0 28 -13 46 -52 46h-3v35h319zM269 347h-5c-38 0 -45 -32 -57 -82l-4 -15c-41 -155 -61 -157 -61 -190c0 -20 23 -20 43 -20h84v307z" />
    <glyph glyph-name="afii10070" unicode="&#x435;" horiz-adv-x="409" 
d="M381 210h-216v-50c0 -73 23 -114 82 -114c40 0 68 22 99 58l29 -28c-21 -31 -71 -84 -156 -84c-133 0 -191 103 -191 193c0 92 59 210 192 210c105 0 161 -87 161 -180v-5zM271 250v16c0 81 -30 89 -52 89c-27 0 -54 -15 -54 -89v-16h106z" />
    <glyph glyph-name="afii10072" unicode="&#x436;" horiz-adv-x="721" 
d="M263 387h195v-35c-28 -5 -36 -27 -36 -54v-47c50 2 73 36 95 68l7 10c19 27 53 66 103 66c13 0 26 -2 41 -8v-121h-35c-1 20 -14 38 -33 38c-15 0 -25 -9 -35 -18c-17 -15 -60 -48 -85 -53v-5c73 -12 113 -39 136 -65c60 -70 28 -111 77 -128v-35h-186v35c9 2 26 8 26 40
v8c-3 52 -40 119 -111 122v-115c0 -33 9 -48 36 -55v-35h-195v35c27 7 36 22 36 55v115c-71 -3 -108 -70 -111 -122v-8c0 -32 17 -38 26 -40v-35h-186v35c49 17 17 58 77 128c23 26 63 53 136 65v5c-25 5 -68 38 -85 53c-10 9 -20 18 -35 18c-19 0 -32 -18 -33 -38h-35v121
c15 6 28 8 41 8c50 0 84 -39 103 -66l7 -10c22 -32 45 -66 95 -68v47c0 27 -8 49 -36 54v35z" />
    <glyph glyph-name="afii10073" unicode="&#x437;" horiz-adv-x="419" 
d="M56 391h35c7 -8 15 -12 28 -12c14 0 26 4 41 7c19 4 55 9 73 9c94 0 148 -42 148 -99c0 -42 -28 -66 -49 -80l-6 -4v-4c42 -12 72 -49 72 -97c0 -98 -113 -119 -178 -119c-33 0 -68 5 -93 17c-18 8 -37 23 -59 23c-11 0 -26 -4 -41 -29l-27 19c29 46 57 80 99 80
c20 0 35 -8 50 -24c19 -21 33 -46 66 -46c19 0 46 13 46 73c0 33 -6 54 -11 66c-45 -19 -71 -26 -99 -26c-32 0 -62 12 -62 42c0 24 12 60 78 60c27 0 51 -6 79 -13c7 13 13 33 13 50c0 32 -22 67 -74 67c-47 0 -72 -25 -91 -76l-4 -12h-34v128zM221 205
c-18 10 -37 13 -55 13c-33 0 -43 -10 -43 -23c0 -5 3 -19 31 -19c15 0 44 6 67 29z" />
    <glyph glyph-name="afii10074" unicode="&#x438;" horiz-adv-x="505" 
d="M32 387h196v-35c-27 -3 -37 -29 -37 -54v-141h2l121 137v3c0 23 -8 50 -36 55v35h195v-35c-34 -4 -36 -40 -36 -54v-208c0 -19 2 -48 36 -55v-35h-195v35c28 7 36 29 36 55v140h-2l-121 -138v-5c0 -28 9 -47 37 -52v-35h-196v35c28 7 36 29 36 55v208c0 6 0 48 -36 54v35
z" />
    <glyph glyph-name="afii10075" unicode="&#x439;" horiz-adv-x="505" 
d="M32 387h196v-35c-27 -3 -37 -29 -37 -54v-141h2l121 137v3c0 23 -8 50 -36 55v35h195v-35c-34 -4 -36 -40 -36 -54v-208c0 -19 2 -48 36 -55v-35h-195v35c28 7 36 29 36 55v140h-2l-121 -138v-5c0 -28 9 -47 37 -52v-35h-196v35c28 7 36 29 36 55v208c0 6 0 48 -36 54v35
zM254 533c81 0 123 33 123 52c0 10 -7 13 -13 13c-5 0 -12 -3 -21 -7c-7 -3 -14 -4 -20 -4c-18 0 -30 11 -30 25s11 33 44 33c47 0 69 -29 69 -59c0 -58 -67 -112 -152 -112s-152 54 -152 112c0 30 22 59 69 59c33 0 44 -19 44 -33s-12 -25 -30 -25c-6 0 -13 1 -20 4
c-9 4 -16 7 -21 7c-6 0 -13 -3 -13 -13c0 -19 42 -52 123 -52z" />
    <glyph glyph-name="afii10076" unicode="&#x43a;" horiz-adv-x="466" 
d="M32 387h197v-35c-27 -3 -37 -29 -37 -54v-72h15c20 0 52 12 80 78c14 34 36 91 108 91c13 0 25 -2 38 -7v-125h-35v2c0 23 -16 39 -36 39c-25 0 -38 -16 -46 -29c-14 -23 -23 -45 -58 -65v-5h8c15 0 30 -2 49 -8c65 -22 82 -56 99 -120c4 -17 10 -43 40 -51v-34h-30
c-45 1 -73 4 -92 15c-40 23 -54 78 -59 99c-13 52 -24 80 -64 80h-17v-96c0 -31 12 -49 37 -55v-35h-197v35c25 6 37 24 37 55v208c0 25 -10 51 -37 54v35z" />
    <glyph glyph-name="afii10077" unicode="&#x43b;" horiz-adv-x="459" 
d="M129 387h171l89 -289c16 -53 37 -62 56 -63v-35h-156l-68 267h-4c-14 -50 -48 -157 -64 -195c-22 -52 -44 -80 -88 -80c-36 0 -65 17 -65 55c0 37 28 53 52 53c9 0 17 -2 26 -5c6 -2 11 -4 17 -4c26 0 40 58 53 96c1 2 2 5 3 8c12 35 32 96 32 127c0 25 -13 30 -39 30
h-15v35z" />
    <glyph glyph-name="afii10078" unicode="&#x43c;" horiz-adv-x="575" 
d="M213 387l66 -201h5l71 201h188v-35c-34 -4 -36 -40 -36 -54v-208c0 -19 2 -48 36 -55v-35h-195v35c27 7 36 22 36 55v234h-6l-113 -324h-47l-104 322h-6v-240c0 -26 7 -42 36 -47v-35h-112v35c26 4 36 18 36 47v235c0 23 -13 34 -36 35v35h181z" />
    <glyph glyph-name="afii10079" unicode="&#x43d;" horiz-adv-x="505" 
d="M228 387v-35c-27 -3 -37 -29 -37 -54v-82h123v82c0 6 0 48 -36 54v35h195v-35c-34 -4 -36 -40 -36 -54v-208c0 -19 2 -48 36 -55v-35h-195v35c28 7 36 29 36 55v86h-123v-86c0 -31 12 -49 37 -55v-35h-196v35c28 7 36 29 36 55v208c0 6 0 48 -36 54v35h196z" />
    <glyph glyph-name="afii10080" unicode="&#x43e;" horiz-adv-x="458" 
d="M229 -8c-122 0 -201 85 -201 203c0 111 78 200 201 200c119 0 201 -86 201 -200c0 -120 -83 -203 -201 -203zM229 32c58 0 64 51 64 112v102c0 60 -6 109 -64 109s-64 -49 -64 -109v-102c0 -61 6 -112 64 -112z" />
    <glyph glyph-name="afii10081" unicode="&#x43f;" horiz-adv-x="505" 
d="M32 387h441v-35c-34 -4 -36 -40 -36 -54v-208c0 -19 2 -48 36 -55v-35h-195v35c28 7 36 29 36 55v257h-123v-257c0 -31 12 -49 37 -55v-35h-196v35c28 7 36 29 36 55v208c0 6 0 48 -36 54v35z" />
    <glyph glyph-name="afii10082" unicode="&#x440;" horiz-adv-x="533" 
d="M32 -197v35c41 5 42 39 42 49v318c0 146 120 190 217 190c127 0 214 -78 214 -196c0 -113 -72 -199 -180 -199c-34 0 -78 4 -122 31h-6v-144c0 -33 27 -46 44 -49v-35h-209zM197 266v-143c0 -41 38 -72 88 -72c76 0 83 73 83 151c0 86 -8 153 -87 153
c-41 0 -84 -26 -84 -89z" />
    <glyph glyph-name="afii10083" unicode="&#x441;" horiz-adv-x="403" 
d="M352 99l27 -24c-39 -46 -96 -83 -172 -83c-128 0 -179 103 -179 199c0 123 91 204 199 204c92 0 138 -51 138 -90c0 -33 -25 -48 -49 -48c-14 0 -48 6 -56 50c-5 25 -3 49 -36 49c-59 0 -59 -93 -59 -159v-52c0 -70 37 -98 80 -98s84 30 107 52z" />
    <glyph glyph-name="afii10084" unicode="&#x442;" horiz-adv-x="405" 
d="M14 387h377v-133h-32c-11 73 -60 90 -95 93v-257c0 -19 2 -48 36 -55v-35h-195v35c28 7 36 29 36 55v257c-35 -3 -84 -20 -95 -93h-32v133z" />
    <glyph glyph-name="afii10085" unicode="&#x443;" horiz-adv-x="440" 
d="M447 387v-35h-6c-22 0 -42 -16 -70 -75l-179 -368c-27 -55 -50 -104 -113 -106h-4c-53 0 -75 37 -75 66c0 27 19 51 54 51c17 0 30 -6 40 -11c1 0 1 -1 1 -1c15 -9 24 -17 35 -17c16 0 24 22 32 38l33 66l-125 297c-21 51 -46 59 -63 60v35h231v-35h-5
c-32 0 -33 -20 -33 -27c0 -11 7 -23 10 -32l57 -143h4l66 134c11 23 11 36 11 42v2c0 12 -11 24 -37 24h-3v35h139z" />
    <glyph glyph-name="afii10086" unicode="&#x444;" horiz-adv-x="653" 
d="M229 495h195v-35c-36 -6 -36 -48 -36 -54v-40h7c33 27 65 29 87 29c106 0 143 -111 143 -202c0 -142 -72 -201 -143 -201c-32 0 -61 12 -87 40h-7v-139c0 -23 6 -47 36 -55v-35h-195v35c30 8 36 32 36 55v139h-7c-26 -28 -55 -40 -87 -40c-71 0 -143 59 -143 201
c0 91 37 202 143 202c22 0 54 -2 87 -29h7v40c0 6 0 48 -36 54v35zM267 119v150c0 64 -38 71 -52 71c-44 0 -50 -44 -50 -98v-94c0 -43 1 -96 47 -96c27 0 55 15 55 67zM386 269v-150c0 -52 28 -67 55 -67c46 0 47 53 47 96v94c0 54 -6 98 -50 98c-14 0 -52 -7 -52 -71z" />
    <glyph glyph-name="afii10087" unicode="&#x445;" horiz-adv-x="481" 
d="M32 387h219v-35h-3c-11 0 -24 -5 -24 -24c0 -10 11 -25 16 -33l23 -33h7l26 32c10 12 17 21 17 32c0 16 -16 25 -32 26v35h143v-35c-20 -4 -41 -16 -73 -54l-62 -74l110 -153c8 -12 20 -29 50 -36v-35h-221v35h5c12 0 23 7 23 23c0 8 -3 19 -18 41l-32 45h-6l-34 -41
c-6 -7 -21 -28 -21 -42c0 -17 13 -23 30 -26v-35h-142v35c32 11 44 24 68 53l78 93l-85 119c-25 35 -39 50 -62 52v35z" />
    <glyph glyph-name="afii10088" unicode="&#x446;" horiz-adv-x="504" 
d="M32 0v35c25 6 37 24 37 55v208c0 25 -10 51 -37 54v35h196v-35c-36 -6 -36 -48 -36 -54v-258h123v258c0 6 0 48 -36 54v35h196v-35c-27 -3 -37 -29 -37 -54v-216c0 -39 9 -42 31 -62c23 -22 46 -49 46 -90c0 -62 -49 -110 -115 -117c-11 -1 -22 -1 -33 -1
c-17 0 -62 6 -112 38c-28 18 -67 48 -96 48c-20 0 -26 -14 -26 -22c0 -9 8 -7 20 -11c10 -5 17 -14 17 -25s-6 -28 -28 -28c-25 0 -47 18 -47 49c0 56 68 85 123 85c42 0 78 -16 99 -25c1 -1 2 -1 3 -1l4 -2c47 -22 73 -38 99 -38c21 0 53 16 53 56c0 64 -63 64 -82 64h-362
z" />
    <glyph glyph-name="afii10089" unicode="&#x447;" horiz-adv-x="495" 
d="M28 387h195v-35c-34 -4 -36 -40 -36 -54v-65c0 -43 10 -54 41 -54c24 0 56 6 76 12v107c0 25 -10 51 -37 54v35h196v-35c-36 -6 -36 -48 -36 -54v-208c0 -26 8 -48 36 -55v-35h-196v35c25 6 37 24 37 55v58l-4 2c-36 -9 -106 -20 -144 -20c-88 0 -92 68 -92 104v64
c0 6 0 48 -36 54v35z" />
    <glyph glyph-name="afii10090" unicode="&#x448;" horiz-adv-x="751" 
d="M32 387h195v-35c-34 -4 -36 -40 -36 -54v-258h123v258c0 24 -11 51 -36 54v35h195v-35c-34 -4 -36 -40 -36 -54v-258h123v258c0 18 -4 50 -36 54v35h195v-35c-34 -4 -36 -40 -36 -54v-208c0 -19 2 -48 36 -55v-35h-687v35c32 6 36 37 36 55v208c0 24 -11 51 -36 54v35z
" />
    <glyph glyph-name="afii10091" unicode="&#x449;" horiz-adv-x="749" 
d="M32 387h196v-35c-36 -6 -36 -48 -36 -54v-258h123v258c0 6 0 48 -36 54v35h196v-35c-27 -3 -37 -29 -37 -54v-258h123v258c0 24 -11 51 -36 54v35h195v-35c-34 -4 -36 -40 -36 -54v-208c0 -26 2 -36 5 -43c6 -15 24 -28 36 -39c22 -20 35 -39 35 -72
c0 -105 -132 -120 -169 -120c-56 0 -120 18 -169 42c-50 23 -84 41 -111 41c-17 0 -31 -9 -31 -19c0 -8 11 -8 18 -11c9 -3 19 -13 19 -25c0 -15 -10 -28 -30 -28c-21 0 -41 18 -41 47c0 34 33 83 124 83c144 0 177 -64 288 -64c32 0 64 16 64 51c0 64 -69 67 -95 67h-595
v35c25 6 37 24 37 55v208c0 25 -10 51 -37 54v35z" />
    <glyph glyph-name="afii10092" unicode="&#x44a;" horiz-adv-x="551" 
d="M32 253v134h289v-35c-36 -5 -36 -39 -36 -54v-41h2c34 28 76 30 94 30c75 0 142 -58 142 -148c0 -19 -5 -38 -13 -55c-37 -80 -121 -84 -172 -84h-212v35c28 7 36 29 36 55v255c-71 -5 -91 -61 -95 -92h-35zM285 207v-167h29c36 0 72 2 72 91v5c0 44 -1 92 -52 92
c-14 0 -33 -4 -49 -21z" />
    <glyph glyph-name="afii10093" unicode="&#x44b;" horiz-adv-x="686" 
d="M230 387v-35c-36 -5 -36 -39 -36 -54v-41h2c34 28 76 30 94 30c75 0 142 -58 142 -148c0 -19 -5 -38 -13 -55c-38 -84 -124 -84 -172 -84h-212v35c28 7 36 29 36 55v208c0 25 -10 51 -37 54v35h196zM194 207v-167h29c36 0 72 2 72 91v5c0 44 -1 92 -52 92
c-14 0 -33 -4 -49 -21zM455 387h197v-35c-27 -3 -37 -29 -37 -54v-208c0 -31 12 -49 37 -55v-35h-197v35c25 6 37 24 37 55v208c0 25 -10 51 -37 54v35z" />
    <glyph glyph-name="afii10094" unicode="&#x44c;" horiz-adv-x="466" 
d="M230 387v-35c-36 -5 -36 -39 -36 -54v-41h2c34 28 76 30 94 30c75 0 142 -58 142 -148c0 -19 -5 -38 -13 -55c-37 -80 -121 -84 -172 -84h-212v35c28 7 36 29 36 55v208c0 25 -10 51 -37 54v35h196zM194 207v-167h29c36 0 72 2 72 91v5c0 44 -1 92 -52 92
c-14 0 -33 -4 -49 -21z" />
    <glyph glyph-name="afii10095" unicode="&#x44d;" horiz-adv-x="405" 
d="M15 395h38c6 -12 15 -19 32 -19c13 0 25 4 37 8c21 6 43 11 65 11c31 0 66 -7 95 -24c36 -21 91 -75 91 -169c0 -106 -68 -210 -208 -210c-56 0 -162 19 -162 100c0 41 33 54 56 54c35 0 49 -28 49 -47c0 -11 -5 -22 -5 -34c0 -24 26 -33 49 -33c32 0 84 19 84 133v29h-4
c-14 -22 -33 -38 -61 -38c-24 0 -41 14 -55 23c-9 6 -20 12 -30 12c-9 0 -28 -10 -32 -12l-14 23c31 24 61 45 94 45c9 0 18 -2 26 -6s16 -9 24 -15s17 -11 26 -11c7 0 24 6 24 40c0 70 -39 101 -84 101c-59 0 -90 -53 -100 -89h-35v128z" />
    <glyph glyph-name="afii10096" unicode="&#x44e;" horiz-adv-x="680" 
d="M191 216h60c8 88 74 179 200 179c119 0 201 -86 201 -200c0 -120 -83 -203 -201 -203c-116 0 -196 79 -200 184h-60v-86c0 -19 2 -48 36 -55v-35h-195v35c28 7 36 29 36 55v208c0 6 0 48 -36 54v35h195v-35c-34 -4 -36 -40 -36 -54v-82zM451 32c58 0 64 51 64 112v102
c0 60 -6 109 -64 109s-64 -49 -64 -109v-102c0 -61 6 -112 64 -112z" />
    <glyph glyph-name="afii10097" unicode="&#x44f;" horiz-adv-x="450" 
d="M418 387v-35c-28 -5 -36 -27 -36 -54v-208c0 -33 9 -48 36 -55v-35h-195v35c34 7 36 36 36 55v75h-14c-34 0 -51 -16 -59 -28c-20 -28 -13 -84 -63 -122c-15 -11 -40 -23 -78 -23c-3 0 -21 0 -45 5v36c27 1 28 30 34 56c9 35 41 83 113 90v6c-111 8 -129 64 -129 102
c0 19 6 37 16 52c30 44 87 48 139 48h245zM259 348h-16c-28 0 -95 -2 -95 -72s68 -71 94 -71h17v143z" />
    <glyph glyph-name="afii10071" unicode="&#x451;" horiz-adv-x="409" 
d="M381 210h-216v-50c0 -73 23 -114 82 -114c40 0 68 22 99 58l29 -28c-21 -31 -71 -84 -156 -84c-133 0 -191 103 -191 193c0 92 59 210 192 210c105 0 161 -87 161 -180v-5zM271 250v16c0 81 -30 89 -52 89c-27 0 -54 -15 -54 -89v-16h106zM44 566c0 42 35 64 63 64
s63 -22 63 -64c0 -41 -34 -63 -63 -63s-63 22 -63 63zM240 566c0 42 35 64 63 64c25 0 63 -20 63 -64c0 -42 -37 -63 -63 -63c-29 0 -63 23 -63 63z" />
    <glyph glyph-name="afii10099" unicode="&#x452;" horiz-adv-x="499" 
d="M191 703v-169h146v-45h-146v-139h6c21 24 53 45 100 45c69 0 174 -37 174 -234c0 -80 -6 -153 -35 -218c-46 -104 -133 -140 -211 -140c-59 0 -119 25 -119 85c0 28 15 58 47 58c29 0 62 -12 62 -51c0 -4 0 -9 -1 -13c-1 -6 -2 -12 -2 -18c0 -4 5 -19 31 -19
c93 0 95 145 95 265v16c0 104 -2 202 -74 202c-29 0 -73 -9 -73 -77v-161c0 -19 2 -48 36 -55v-35h-195v35c27 6 36 24 36 55v399h-60v45h60v80c0 27 -8 47 -36 54v35h159z" />
    <glyph glyph-name="afii10100" unicode="&#x453;" horiz-adv-x="369" 
d="M355 387v-135h-35c-13 88 -74 95 -109 95h-20v-257c0 -31 9 -49 36 -55v-35h-195v35c34 7 36 36 36 55v208c0 14 -2 50 -36 54v35h323zM145 517l87 118c16 21 30 36 53 36c25 0 42 -16 42 -40c0 -27 -25 -40 -45 -53l-122 -80z" />
    <glyph glyph-name="afii10101" unicode="&#x454;" horiz-adv-x="413" 
d="M354 99l31 -24c-48 -55 -105 -83 -171 -83c-128 0 -186 102 -186 200c0 135 103 203 195 203c45 0 55 -15 76 -15c6 0 11 3 16 6l4 3h35v-92h-33c-21 49 -58 59 -78 59c-68 0 -79 -67 -79 -131v-9h4c10 21 31 37 58 37c12 0 23 -4 33 -9l29 -19c7 -4 16 -7 24 -7
c5 0 13 1 42 12v-23c-37 -32 -64 -45 -87 -45c-10 0 -21 2 -30 6s-16 9 -24 15l-1 1c-7 5 -14 10 -22 10c-10 0 -22 -7 -25 -24c0 -102 48 -123 86 -123c37 0 79 26 103 52z" />
    <glyph glyph-name="afii10102" unicode="&#x455;" horiz-adv-x="353" 
d="M176 -8c-99 0 -144 37 -144 76c0 30 21 46 43 46c20 0 41 -9 48 -34c4 -14 2 -27 16 -38c3 -2 14 -10 38 -10c39 0 56 26 56 50c0 35 -28 51 -73 70c-37 16 -75 29 -99 52c-13 13 -29 35 -29 68c0 57 40 123 143 123c76 0 122 -40 122 -74c0 -15 -9 -33 -36 -33
s-34 23 -37 35c-3 10 -11 32 -48 32s-48 -24 -48 -39c0 -28 28 -40 49 -49c62 -26 123 -50 145 -108c4 -11 7 -23 7 -35c0 -71 -51 -132 -153 -132z" />
    <glyph glyph-name="afii10103" unicode="&#x456;" horiz-adv-x="260" 
d="M192 387v-297c0 -26 8 -48 36 -55v-35h-196v35c25 6 37 24 37 55v208c0 25 -10 51 -37 54v35h160zM63 568c0 34 30 64 64 64c33 0 63 -29 63 -64c0 -33 -30 -63 -63 -63c-35 0 -64 30 -64 63z" />
    <glyph glyph-name="afii10104" unicode="&#x457;" horiz-adv-x="258" 
d="M192 387v-297c0 -26 8 -48 36 -55v-35h-196v35c25 6 37 24 37 55v208c0 25 -10 51 -37 54v35h160zM-22 568c0 35 30 64 63 64c28 0 63 -22 63 -64c0 -41 -35 -63 -63 -63c-34 0 -63 29 -63 63zM154 568c0 47 41 64 63 64c28 0 63 -22 63 -64c0 -40 -35 -63 -63 -63
c-23 0 -63 18 -63 63z" />
    <glyph glyph-name="afii10105" unicode="&#x458;" horiz-adv-x="252" 
d="M37 387h159v-434c0 -44 -13 -150 -129 -150c-60 0 -81 38 -81 65c0 24 19 40 41 40c20 0 34 -11 39 -26c6 -17 1 -39 29 -39c13 0 25 10 25 29c0 23 -19 53 -27 67c-10 16 -20 32 -20 76v276c0 35 -1 54 -36 61v35zM70 567c0 42 35 64 63 64c33 0 63 -29 63 -64
c0 -27 -22 -62 -64 -62c-35 0 -62 27 -62 62z" />
    <glyph glyph-name="afii10106" unicode="&#x459;" horiz-adv-x="603" 
d="M129 387h171l35 -137h5c30 27 65 37 101 37c66 0 118 -44 131 -107c3 -13 3 -27 3 -41c0 -31 -10 -72 -49 -104c-42 -35 -91 -35 -128 -35h-109l-68 267h-4c-14 -50 -48 -157 -64 -195c-22 -52 -44 -80 -88 -80c-36 0 -65 17 -65 55c0 37 28 53 52 53c9 0 17 -2 26 -5
c6 -2 11 -4 17 -4c26 0 40 58 53 96c1 2 2 5 3 8c12 35 32 96 32 127c0 26 -15 30 -40 30h-14v35zM344 212l44 -172l8 2c23 7 43 19 43 89v5c0 45 -1 92 -52 92c-24 0 -37 -10 -43 -16z" />
    <glyph glyph-name="afii10107" unicode="&#x45a;" horiz-adv-x="703" 
d="M473 387v-35c-36 -5 -36 -39 -36 -54v-41h2c34 28 76 30 94 30c80 0 125 -56 138 -107c3 -13 4 -27 4 -41c0 -45 -23 -82 -51 -104c-43 -34 -93 -35 -134 -35h-212v35c28 7 36 29 36 55v86h-123v-86c0 -31 12 -49 37 -55v-35h-196v35c28 7 36 29 36 55v208
c0 6 0 48 -36 54v35h196v-35c-27 -3 -37 -29 -37 -54v-82h123v82c0 25 -10 51 -37 54v35h196zM437 207v-167h29c36 0 72 2 72 91v5c0 44 -1 92 -52 92c-14 0 -33 -4 -49 -21z" />
    <glyph glyph-name="afii10108" unicode="&#x45b;" horiz-adv-x="483" 
d="M191 703v-169h146v-45h-146v-147h6c5 6 46 53 115 53c103 0 103 -89 103 -145v-160c0 -31 9 -49 36 -55v-35h-195v35c34 7 36 36 36 55v183c0 9 -4 49 -48 49c-37 0 -53 -31 -53 -69v-163c0 -19 2 -48 36 -55v-35h-195v35c27 6 36 24 36 55v399h-60v45h60v80
c0 27 -8 47 -36 54v35h159z" />
    <glyph glyph-name="afii10109" unicode="&#x45c;" horiz-adv-x="466" 
d="M32 387h197v-35c-27 -3 -37 -29 -37 -54v-72h15c20 0 52 12 80 78c14 34 36 91 108 91c13 0 25 -2 38 -7v-125h-35v2c0 23 -16 39 -36 39c-25 0 -38 -16 -46 -29c-14 -23 -23 -45 -58 -65v-5h8c15 0 30 -2 49 -8c65 -22 82 -56 99 -120c4 -17 10 -43 40 -51v-34h-30
c-45 1 -73 4 -92 15c-40 23 -54 78 -59 99c-13 52 -24 80 -64 80h-17v-96c0 -31 12 -49 37 -55v-35h-197v35c25 6 37 24 37 55v208c0 25 -10 51 -37 54v35zM216 517l87 118c16 21 30 36 53 36c25 0 42 -16 42 -40c0 -27 -25 -40 -45 -53l-122 -80z" />
    <glyph glyph-name="afii10110" unicode="&#x45e;" horiz-adv-x="440" 
d="M447 387v-35h-6c-22 0 -42 -16 -70 -75l-179 -368c-27 -55 -50 -104 -113 -106h-4c-53 0 -75 37 -75 66c0 27 19 51 54 51c17 0 30 -6 40 -11c1 0 1 -1 1 -1c15 -9 24 -17 35 -17c16 0 24 22 32 38l33 66l-125 297c-21 51 -46 59 -63 60v35h231v-35h-5
c-32 0 -33 -20 -33 -27c0 -11 7 -23 10 -32l57 -143h4l66 134c11 23 11 36 11 42v2c0 12 -11 24 -37 24h-3v35h139zM262 557c77 0 119 33 119 52c0 10 -7 13 -13 13c-5 0 -12 -3 -21 -7c-7 -3 -14 -4 -20 -4c-18 0 -30 11 -30 25s11 33 44 33c47 0 69 -29 69 -59
c0 -44 -47 -112 -149 -112c-85 0 -152 54 -152 112c0 30 22 59 69 59c33 0 44 -19 44 -33s-12 -25 -30 -25c-6 0 -13 1 -20 4c-9 4 -16 7 -21 7c-6 0 -13 -3 -13 -13c0 -18 41 -52 124 -52z" />
    <glyph glyph-name="afii10193" unicode="&#x45f;" horiz-adv-x="505" 
d="M278 387h195v-35c-34 -7 -36 -36 -36 -55v-208c0 -14 2 -50 36 -54v-35h-98c-44 0 -85 -47 -86 -164h-73c-1 117 -42 164 -85 164h-99v35c36 6 36 48 36 54v208c0 26 -8 48 -36 55v35h196v-35c-25 -6 -37 -24 -37 -55v-257h123v257c0 26 -8 48 -36 55v35z" />
    <glyph glyph-name="afii10146" unicode="&#x462;" horiz-adv-x="794" 
d="M10 638h222c1 4 1 8 1 11c0 34 -26 52 -51 55v36h249v-36c-24 -4 -50 -21 -50 -55c0 -3 0 -7 1 -11h252v-164h-36c-18 53 -69 111 -160 111h-56v-171h89c227 0 278 -118 278 -207c0 -109 -84 -207 -246 -207h-321v36c47 5 50 43 50 66v483h-26c-99 0 -141 -68 -154 -96
l-6 -15h-36v164zM382 361v-308h62c66 0 142 19 142 149c0 100 -39 159 -143 159h-61z" />
    <glyph glyph-name="afii10194" unicode="&#x463;" horiz-adv-x="560" 
d="M32 253v134h130v225c0 11 0 20 -2 30c-3 13 -9 22 -20 29c-4 3 -9 5 -14 6v35h159v-325h150v-123h-32c-1 5 -2 11 -4 16c-12 38 -41 70 -114 67v-126h48c76 0 127 -7 162 -33c12 -9 23 -21 29 -35c6 -13 8 -28 8 -43c0 -27 -5 -65 -47 -90c-41 -24 -106 -20 -152 -20
h-207v35c28 7 36 29 36 55v257c-62 -4 -89 -52 -95 -94h-35zM285 181v-141h32c33 0 58 7 71 33c5 10 7 22 7 34c0 13 -2 25 -7 37c-15 33 -49 37 -74 37h-29z" />
    <glyph glyph-name="afii10147" unicode="&#x472;" 
d="M398 711c202 0 353 -160 353 -363c0 -197 -148 -359 -353 -359s-353 162 -353 359c0 203 151 363 353 363zM583 402c-4 221 -98 256 -185 256c-125 0 -177 -64 -187 -288c49 50 90 55 107 55c10 0 46 -1 110 -35c23 -12 53 -30 80 -30c30 0 62 29 75 42zM212 314
c1 -247 106 -272 186 -272c116 0 185 55 187 304c-30 -30 -64 -62 -104 -62c-38 0 -69 14 -98 30c-49 26 -72 35 -89 35c-37 0 -67 -21 -82 -35z" />
    <glyph glyph-name="afii10195" unicode="&#x473;" horiz-adv-x="458" 
d="M229 -8c-122 0 -201 85 -201 203c0 111 78 200 201 200c119 0 201 -86 201 -200c0 -120 -83 -203 -201 -203zM165 161v-14c1 -61 3 -115 64 -115s63 52 64 123v30c-16 -31 -33 -36 -43 -36c-14 0 -23 9 -29 16l-1 2c-7 8 -14 15 -25 15s-23 -10 -30 -21zM293 234v16
c0 55 -7 105 -64 105c-58 0 -64 -47 -64 -109v-33c5 9 22 35 44 35c8 0 20 -2 33 -14c8 -7 17 -19 27 -19c9 0 20 9 24 19z" />
    <glyph glyph-name="afii10148" unicode="&#x474;" horiz-adv-x="820" 
d="M436 0h-113l-241 589c-22 54 -54 71 -82 75v36h299v-38h-8c-41 0 -58 -21 -58 -44c0 -14 6 -28 12 -42l169 -400h10c27 101 77 271 114 358c56 133 116 177 196 177c68 0 86 -37 86 -67c0 -33 -21 -71 -65 -71c-20 0 -31 6 -42 12c-10 4 -21 10 -35 10
c-53 0 -87 -85 -121 -187c-60 -181 -75 -229 -121 -408z" />
    <glyph glyph-name="afii10196" unicode="&#x475;" horiz-adv-x="479" 
d="M264 0h-92l-105 301c-8 23 -18 44 -60 51v35h219v-35c-21 0 -36 -14 -36 -29c0 -6 2 -13 6 -25l55 -178h4c55 194 79 275 157 275c37 0 60 -21 60 -55c0 -28 -16 -53 -52 -53c-26 0 -34 8 -43 8c-38 0 -60 -104 -80 -172c-15 -49 -26 -93 -33 -123z" />
    <glyph glyph-name="afii10050" unicode="&#x490;" horiz-adv-x="552" 
d="M40 700h324c34 0 110 4 142 113h36v-184h-23c-16 13 -33 18 -52 18h-228v-554c0 -24 10 -50 50 -57v-36h-249v36c40 6 49 31 49 57v514c0 26 -9 51 -49 57v36z" />
    <glyph glyph-name="afii10098" unicode="&#x491;" horiz-adv-x="367" 
d="M32 387h177c35 0 96 7 109 95h35v-135h-162v-257c0 -31 9 -49 36 -55v-35h-195v35c34 7 36 36 36 55v208c0 14 -2 50 -36 54v35z" />
    <glyph glyph-name="cyrGebar" unicode="&#x492;" horiz-adv-x="556" 
d="M41 700h430c19 0 36 5 52 18h23v-182h-36c-33 106 -107 111 -142 111h-128v-260h148v-53h-148v-241c0 -24 10 -50 50 -57v-36h-249v36c40 6 49 31 49 57v241h-50v53h50v220c0 26 -9 51 -49 57v36z" />
    <glyph glyph-name="cyrgebar" unicode="&#x493;" horiz-adv-x="369" 
d="M355 387v-135h-35c-13 88 -74 95 -109 95h-20v-131h74v-40h-74v-86c0 -31 9 -49 36 -55v-35h-195v35c34 7 36 36 36 55v86h-36v40h36v82c0 14 -2 50 -36 54v35h323z" />
    <glyph glyph-name="cyrGehook" unicode="&#x494;" horiz-adv-x="657" 
d="M40 700h430c19 0 36 5 52 18h23v-182h-36c-33 106 -107 111 -142 111h-128v-265c44 30 97 51 164 51c142 0 244 -86 244 -214c0 -112 -68 -187 -137 -215c-29 -12 -61 -15 -92 -15c-65 0 -141 33 -141 113c0 48 33 82 78 82c38 0 69 -27 69 -66c0 -42 -20 -37 -20 -63
c0 -7 11 -13 20 -13c53 0 57 70 57 142v35c0 56 -7 151 -116 151c-40 0 -88 -15 -126 -44v-326h-199v36c40 6 49 31 49 57v514c0 26 -9 51 -49 57v36z" />
    <glyph glyph-name="cyrgehook" unicode="&#x495;" horiz-adv-x="460" 
d="M355 387v-115h-35c-13 69 -76 75 -109 75h-20v-158h6c38 30 79 37 116 37c78 0 133 -58 133 -151c0 -84 -26 -162 -88 -220c-39 -36 -76 -52 -133 -52c-19 0 -119 5 -119 85c0 34 20 58 53 58s56 -19 56 -51c0 -14 -3 -22 -3 -31c0 -4 5 -19 31 -19c28 0 52 18 66 43
c24 41 29 131 29 181c0 48 -10 103 -72 103c-47 0 -75 -28 -75 -65v-17c0 -31 9 -49 36 -55v-35h-195v35c34 7 36 36 36 55v208c0 14 -2 50 -36 54v35h323z" />
    <glyph glyph-name="cyrZhedesc" unicode="&#x496;" horiz-adv-x="1049" 
d="M380 700h250v-36c-35 -12 -50 -20 -50 -57v-124l11 -1c57 0 84 43 98 72c27 57 58 159 154 159c19 0 41 -4 66 -13v-161h-45c-2 20 -16 34 -33 34c-9 0 -20 -4 -30 -14c-33 -33 -26 -70 -118 -100v-6c19 -4 104 -25 164 -94c53 -62 69 -136 79 -220c6 -46 6 -86 29 -86
h23c15 0 31 0 31 -30c0 -62 -107 -192 -169 -192c-21 0 -26 15 -26 23c0 11 6 19 20 51c7 16 11 33 11 47c0 28 -15 48 -46 48h-64v36c42 14 43 54 43 103c0 79 -10 144 -51 207c-11 17 -58 83 -134 83l-13 -1v-335c0 -37 15 -45 50 -57v-36h-250v36c35 12 50 20 50 57v335
l-13 1c-76 0 -123 -66 -134 -83c-41 -63 -51 -128 -51 -207c0 -49 1 -89 43 -103v-36h-235v36c42 14 35 35 45 111c9 67 22 146 78 212c60 69 145 90 164 94v6c-92 30 -85 67 -118 100c-10 10 -21 14 -30 14c-17 0 -31 -14 -33 -34h-45v161c25 9 47 13 66 13
c96 0 127 -102 154 -159c14 -29 41 -72 98 -72l11 1v124c0 37 -15 45 -50 57v36z" />
    <glyph glyph-name="cyrzhedesc" unicode="&#x497;" horiz-adv-x="758" 
d="M263 387h195v-35c-28 -5 -36 -27 -36 -54v-47c55 2 78 44 102 78c19 27 53 66 103 66c13 0 26 -2 41 -8v-121h-35c-1 20 -14 38 -33 38c-15 0 -25 -9 -35 -18c-17 -15 -60 -48 -85 -53v-5c72 -12 114 -39 136 -65c36 -42 38 -121 70 -121h7c33 0 37 -20 37 -29
c0 -41 -80 -126 -112 -126c-5 0 -14 3 -14 15s9 24 15 36s9 22 9 30c0 31 -38 32 -49 32h-72v35c10 2 29 9 26 48c-3 52 -40 119 -111 122v-115c0 -33 9 -48 36 -55v-35h-195v35c27 7 36 22 36 55v115c-71 -3 -108 -70 -111 -122c-3 -39 16 -46 26 -48v-35h-186v35
c49 17 17 58 77 128c23 26 63 53 136 65v5c-25 5 -68 38 -85 53c-10 9 -20 18 -35 18c-19 0 -32 -18 -33 -38h-35v121c15 6 28 8 41 8c50 0 84 -39 103 -66c24 -34 47 -76 102 -78v47c0 27 -8 49 -36 54v35z" />
    <glyph glyph-name="cyrZetail" unicode="&#x498;" horiz-adv-x="717" 
d="M115 541l11 166h37c5 -11 14 -23 39 -23c28 0 61 15 98 21c22 3 54 6 78 6c149 0 267 -76 267 -188c0 -67 -35 -121 -85 -152v-5c87 -51 112 -114 112 -169c0 -106 -92 -199 -265 -208c8 -32 19 -90 19 -140c0 -46 -25 -56 -40 -56s-40 10 -40 57c0 49 12 107 19 139
c-68 4 -108 21 -151 43s-79 45 -114 45c-24 0 -56 -8 -76 -17l-24 40c40 46 103 91 160 91c44 0 73 -27 104 -60c36 -37 55 -61 80 -75c15 -8 31 -14 48 -14c59 0 115 39 115 150c0 55 -17 94 -42 127c-44 -22 -91 -33 -135 -33c-90 0 -136 35 -136 88c0 46 33 84 115 84
c39 0 80 -6 160 -39c33 35 38 79 38 105c0 95 -80 140 -155 140c-63 0 -168 -30 -201 -123h-36zM428 369c-32 21 -81 36 -122 36c-47 0 -59 -16 -59 -31c0 -19 17 -35 80 -35c54 0 83 16 101 30z" />
    <glyph glyph-name="cyrzetail" unicode="&#x499;" horiz-adv-x="419" 
d="M56 391h35c7 -8 15 -12 28 -12c14 0 26 4 41 7c19 4 55 9 73 9c94 0 148 -42 148 -99c0 -37 -21 -63 -55 -84v-4c42 -12 72 -49 72 -97c0 -53 -38 -112 -164 -119c6 -20 20 -73 20 -123c0 -46 -25 -56 -40 -56s-40 10 -40 57c0 43 12 93 19 122c-39 7 -56 13 -66 17
c-19 8 -37 23 -59 23c-11 0 -26 -4 -41 -29l-27 19c29 46 57 80 99 80c20 0 35 -8 50 -24c19 -21 33 -46 66 -46c19 0 46 13 46 73c0 33 -6 54 -11 66c-45 -19 -71 -26 -99 -26c-32 0 -62 12 -62 42c0 24 12 60 78 60c27 0 51 -6 79 -13c7 13 13 33 13 50
c0 32 -22 67 -74 67c-22 0 -45 -9 -59 -22c-19 -17 -31 -49 -36 -66h-34v128zM221 205c-18 10 -37 13 -55 13c-33 0 -43 -10 -43 -23c0 -5 3 -19 31 -19c15 0 44 6 67 29z" />
    <glyph glyph-name="cyrKadesc" unicode="&#x49a;" horiz-adv-x="771" 
d="M40 700h248v-36c-39 -6 -49 -31 -49 -57v-179h6c100 0 136 75 154 119c27 67 53 164 174 164c29 0 51 -4 65 -9v-161h-36c-7 23 -26 34 -44 34c-28 0 -48 -23 -62 -41c-48 -61 -71 -105 -143 -129v-7c55 -7 94 -23 101 -26c89 -38 109 -110 124 -174
c11 -47 16 -71 25 -90c12 -26 37 -55 68 -55h28c19 0 32 -2 32 -30c0 -62 -108 -192 -169 -192c-21 0 -26 15 -26 23c0 11 6 18 20 51c4 10 12 28 12 47c0 18 -7 37 -31 49c-45 15 -72 44 -87 68c-23 37 -27 77 -35 116c-13 62 -26 116 -70 153c-19 16 -53 37 -97 37h-9
v-282c0 -26 10 -51 49 -57v-36h-248v36c40 6 49 31 49 57v514c0 28 -10 46 -40 55c-3 1 -6 2 -9 2v36z" />
    <glyph glyph-name="cyrkadesc" unicode="&#x49b;" horiz-adv-x="503" 
d="M32 387h197v-35c-27 -3 -37 -29 -37 -54v-72h15c20 0 52 12 80 78c14 34 36 91 108 91c13 0 25 -2 38 -7v-125h-35v2c0 23 -16 39 -36 39c-25 0 -38 -16 -46 -29c-14 -23 -23 -45 -58 -65v-5h8c15 0 30 -2 49 -8c141 -48 43 -155 130 -155h9c33 0 37 -20 37 -29
c0 -41 -80 -126 -112 -126c-5 0 -14 3 -14 15c0 11 9 24 15 36s8 21 8 29c0 17 -11 25 -15 28c-75 5 -94 87 -100 111c-13 52 -24 80 -64 80h-17v-96c0 -31 12 -49 37 -55v-35h-197v35c25 6 37 24 37 55v208c0 25 -10 51 -37 54v35z" />
    <glyph glyph-name="cyrKavertbar" unicode="&#x49c;" horiz-adv-x="832" 
d="M40 700h248v-36c-39 -6 -49 -31 -49 -57v-179h76v147h53v-147c72 9 105 55 131 119c27 67 53 164 174 164c29 0 51 -4 65 -9v-161h-36c-7 23 -26 34 -44 34c-28 0 -48 -23 -62 -41c-48 -61 -71 -105 -143 -129v-7c55 -7 94 -23 101 -26c89 -38 109 -110 124 -174
c11 -46 16 -72 25 -90c13 -28 46 -63 89 -66v-39c-21 -8 -45 -14 -79 -14c-89 0 -139 41 -163 80c-23 37 -27 76 -35 116c-14 65 -25 114 -70 153c-20 17 -42 30 -72 36l-5 1v-148h-53v148h-76v-282c0 -26 10 -51 49 -57v-36h-248v36c40 6 49 31 49 57v514
c0 26 -9 51 -49 57v36z" />
    <glyph glyph-name="cyrkavertbar" unicode="&#x49d;" horiz-adv-x="526" 
d="M32 387h197v-35c-27 -3 -37 -29 -37 -54v-72h32v62h40v-62h3c20 0 52 12 80 78c14 34 36 91 108 91c13 0 25 -2 38 -7v-125h-35v2c0 23 -16 39 -36 39c-25 0 -38 -16 -46 -29c-14 -23 -23 -45 -58 -65v-5h8c15 0 30 -2 49 -8c65 -22 82 -56 99 -120c4 -17 10 -43 40 -51
v-34h-22c-64 0 -86 8 -100 15c-40 23 -54 78 -59 99c-13 52 -24 80 -64 80h-5v-62h-40v62h-32v-96c0 -31 12 -49 37 -55v-35h-197v35c25 6 37 24 37 55v208c0 25 -10 51 -37 54v35z" />
    <glyph glyph-name="cyrKaback" unicode="&#x4a0;" horiz-adv-x="899" 
d="M485 700v-36c-16 -2 -39 -11 -46 -35c-2 -7 -3 -14 -3 -22v-179h6c100 0 136 75 154 119c27 67 53 164 174 164c29 0 51 -4 65 -9v-161h-36c-7 23 -26 34 -44 34c-28 0 -48 -23 -62 -41c-48 -61 -71 -105 -143 -129v-7c55 -7 94 -23 101 -26c89 -38 109 -110 124 -174
c11 -46 16 -72 25 -90c13 -28 46 -63 89 -66v-39c-21 -8 -45 -14 -79 -14c-89 0 -139 41 -163 80c-23 37 -27 76 -35 116c-13 62 -26 116 -70 153c-19 16 -53 37 -97 37h-9v-282c0 -26 9 -51 49 -57v-36h-249v36c40 7 50 33 50 57v554h-68c-35 0 -109 -5 -142 -111h-36v182
h23c16 -13 33 -18 52 -18h370z" />
    <glyph glyph-name="cyrkaback" unicode="&#x4a1;" horiz-adv-x="565" 
d="M325 387v-35c-34 -4 -36 -40 -36 -54v-72h15c20 0 52 12 80 78c14 34 36 91 108 91c13 0 25 -2 38 -7v-125h-35v2c0 23 -16 39 -36 39c-25 0 -38 -16 -46 -29c-14 -23 -23 -45 -58 -65v-5h8c15 0 30 -2 49 -8c65 -22 82 -56 99 -120c4 -17 10 -43 40 -51v-34h-22
c-64 0 -86 8 -100 15c-40 23 -54 78 -59 99c-13 52 -24 80 -64 80h-17v-96c0 -19 2 -48 36 -55v-35h-195v35c27 6 36 24 36 55v257h-16c-39 0 -75 -43 -83 -95h-35v135h293z" />
    <glyph glyph-name="cyrEndesc" unicode="&#x4a2;" horiz-adv-x="866" 
d="M40 700h249v-36c-21 -2 -50 -15 -50 -57v-220h348v220c0 26 -9 51 -49 57v36h249v-36c-36 -5 -50 -25 -50 -57l1 -514c0 -29 12 -40 25 -40h28c21 0 35 0 35 -30c0 -62 -108 -192 -169 -192c-21 0 -26 15 -26 23c0 11 6 19 20 51c7 16 11 33 11 47c0 28 -15 48 -52 48
h-72v36c34 11 49 19 49 57v241h-348v-241c0 -26 6 -45 50 -57v-36h-249v36c37 12 49 24 49 57v514c0 10 -1 50 -49 57v36z" />
    <glyph glyph-name="cyrendesc" unicode="&#x4a3;" horiz-adv-x="542" 
d="M228 387v-35c-27 -3 -37 -29 -37 -54v-82h123v82c0 6 0 48 -36 54v35h195v-35c-34 -4 -36 -40 -36 -54v-208c0 -42 17 -48 26 -48h10c33 0 37 -20 37 -29c0 -41 -80 -126 -112 -126c-5 0 -14 3 -14 15s9 24 15 36s8 22 8 30c0 31 -37 32 -54 32h-75v35c28 7 36 29 36 55
v86h-123v-86c0 -31 12 -49 37 -55v-35h-196v35c28 7 36 29 36 55v208c0 6 0 48 -36 54v35h196z" />
    <glyph glyph-name="cyrEnGe" unicode="&#x4a4;" horiz-adv-x="1083" 
d="M289 700v-36c-21 -2 -50 -15 -50 -57v-220h348v220c0 26 -9 51 -49 57v36h430c19 0 36 5 52 18h23v-182h-36c-33 106 -107 111 -142 111h-128v-554c0 -24 10 -50 50 -57v-36h-249v36c40 6 49 31 49 57v241h-348v-241c0 -26 6 -45 50 -57v-36h-249v36l9 3
c11 3 40 11 40 54v514c0 10 -1 50 -49 57v36h249z" />
    <glyph glyph-name="cyrenge" unicode="&#x4a5;" horiz-adv-x="633" 
d="M228 387v-35c-27 -3 -37 -29 -37 -54v-82h123v82c0 14 -2 50 -36 54v35h323v-135h-35c-13 88 -74 95 -109 95h-20v-257c0 -31 9 -49 36 -55v-35h-195v35c34 7 36 36 36 55v86h-123v-86c0 -31 12 -49 37 -55v-35h-196v35c28 7 36 29 36 55v208c0 6 0 48 -36 54v35h196z
" />
    <glyph glyph-name="cyrEstail" unicode="&#x4aa;" horiz-adv-x="716" 
d="M621 700v-165h-36c-26 71 -106 123 -192 123c-42 0 -72 -16 -92 -30c-83 -57 -90 -157 -90 -286c0 -102 10 -281 215 -281c70 0 137 26 214 87l31 -39c-94 -80 -174 -116 -264 -120c8 -32 19 -90 19 -140c0 -46 -25 -56 -40 -56s-40 10 -40 57c0 50 11 107 19 139
c-193 11 -320 169 -320 365c0 212 147 357 332 357c40 0 72 -4 111 -15c34 -10 51 -13 66 -13c11 0 23 8 31 17h36z" />
    <glyph glyph-name="cyrestail" unicode="&#x4ab;" horiz-adv-x="403" 
d="M379 75c-37 -44 -82 -72 -145 -82c6 -20 20 -75 20 -124c0 -46 -25 -56 -40 -56s-40 10 -40 57c0 43 12 93 19 122c-63 3 -106 38 -129 70c-28 39 -36 88 -36 129c0 123 91 204 199 204c92 0 138 -51 138 -90c0 -33 -25 -48 -49 -48c-14 0 -48 6 -56 50
c-5 25 -3 49 -36 49c-57 0 -59 -87 -59 -152v-59c0 -70 37 -98 80 -98s84 30 107 52z" />
    <glyph glyph-name="cyrstraightU" unicode="&#x4ae;" horiz-adv-x="722" 
d="M10 700h301v-36c-20 -2 -46 -6 -46 -28c0 -12 7 -24 13 -32l151 -192h17l122 192c10 15 14 22 14 27c0 26 -24 32 -57 33v36h187v-36c-31 -9 -51 -22 -70 -49l-196 -276v-249c0 -24 1 -38 49 -54v-36h-252v36c26 3 53 21 53 57v247l-208 264c-32 41 -51 55 -77 60z" />
    <glyph glyph-name="cyrstraightu" unicode="&#x4af;" horiz-adv-x="459" 
d="M14 387h223v-35h-5c-18 0 -26 -22 -26 -37c0 -2 1 -11 10 -32l55 -132h5l49 132c4 12 9 19 9 34c0 22 -15 35 -30 35h-11v35h152v-35c-51 -9 -65 -47 -78 -82l-75 -199v-178c0 -32 11 -49 38 -55v-35h-197v35c36 8 36 40 36 55v174l-89 211c-20 47 -30 73 -66 74v35z" />
    <glyph glyph-name="cyrstraightUbar" unicode="&#x4b0;" horiz-adv-x="722" 
d="M10 700h301v-36c-20 -2 -46 -6 -46 -28c0 -12 7 -24 13 -32l151 -192h17l122 192c10 15 14 22 14 27c0 26 -24 32 -57 33v36h187v-36c-31 -9 -51 -22 -70 -49l-196 -276v-86h99v-53h-99v-110c0 -24 1 -38 49 -54v-36h-252v36c26 3 53 21 53 57v107h-99v53h99v87l-208 264
c-32 41 -51 55 -78 60v36z" />
    <glyph glyph-name="cyrstraightubar" unicode="&#x4b1;" horiz-adv-x="459" 
d="M14 387h223v-35h-5c-18 0 -26 -22 -26 -37c0 -2 1 -11 10 -32l55 -132h5l49 132c4 12 9 19 9 34c0 22 -15 35 -30 35h-11v35h152v-35c-51 -9 -65 -47 -78 -82l-75 -199v-67h75v-40h-75v-71c0 -32 11 -49 38 -55v-35h-197v35c36 8 36 40 36 55v71h-75v40h75v63l-89 211
c-20 47 -30 73 -66 74v35z" />
    <glyph glyph-name="cyrHadesc" unicode="&#x4b2;" horiz-adv-x="881" 
d="M331 700v-36c-18 -1 -41 -9 -41 -25c0 -15 12 -32 18 -39l134 -154l130 151c20 23 25 35 25 43c0 9 -7 24 -46 24v36h199v-36c-16 -1 -59 -7 -118 -77l-156 -183l267 -304c25 -29 41 -47 57 -47h29c19 0 32 -2 32 -30c0 -62 -108 -192 -169 -192c-21 0 -26 15 -26 23
c0 11 6 19 20 51c3 7 12 28 12 48c0 24 -13 47 -61 47h-118v36h2c27 0 42 17 42 30c0 10 -9 21 -13 26l-183 212l-172 -198c-8 -9 -21 -24 -21 -39c0 -16 20 -31 49 -31h3v-36h-206v36c45 9 77 39 91 56l219 253l-228 262c-35 41 -55 52 -72 57v36h301z" />
    <glyph glyph-name="cyrhadesc" unicode="&#x4b3;" horiz-adv-x="518" 
d="M32 387h219v-35h-3c-11 0 -24 -5 -24 -24c0 -10 11 -25 16 -33l23 -33h7l26 32c10 12 17 21 17 32c0 16 -16 25 -32 26v35h143v-35c-20 -4 -41 -16 -73 -54l-62 -74l110 -153c7 -10 21 -29 40 -29h10c33 0 37 -20 37 -29c0 -41 -80 -126 -112 -126c-5 0 -14 3 -14 15
s9 24 15 36c5 12 8 22 8 30c0 21 -16 32 -46 32h-109v35h5c12 0 23 7 23 23c0 8 -3 19 -18 41l-32 45h-6l-34 -41c-6 -7 -21 -28 -21 -42c0 -17 13 -23 30 -26v-35h-142v35c32 11 44 24 68 53l78 93l-85 119c-25 35 -39 50 -62 52v35z" />
    <glyph glyph-name="cyrChedesc" unicode="&#x4b6;" horiz-adv-x="731" 
d="M10 700h250v-36c-47 -7 -52 -38 -52 -57v-165c0 -68 6 -119 126 -119c37 0 78 6 118 19v265c0 38 -14 45 -50 57v36h250v-36c-36 -12 -50 -19 -50 -57v-514c0 -29 16 -40 32 -40h22c21 0 35 0 35 -30c0 -62 -108 -192 -169 -192c-21 0 -26 15 -26 23c0 11 6 19 20 51
c7 16 11 33 11 47c0 28 -15 48 -52 48h-73v36c36 5 50 25 50 57v196c-52 -16 -134 -34 -202 -34c-149 0 -192 55 -192 187v165c0 42 -30 54 -48 57v36z" />
    <glyph glyph-name="cyrchedesc" unicode="&#x4b7;" horiz-adv-x="532" 
d="M267 387h196v-35c-36 -6 -36 -48 -36 -54v-208c0 -30 12 -48 28 -48h8c33 0 37 -20 37 -29c0 -41 -80 -126 -112 -126c-5 0 -14 3 -14 15s9 24 15 36s9 22 9 30c0 31 -40 32 -50 32h-81v35c25 6 37 24 37 55v58l-4 2c-36 -9 -106 -20 -144 -20c-88 0 -92 68 -92 104v64
c0 6 0 48 -36 54v35h195v-35c-34 -4 -36 -40 -36 -54v-65c0 -43 10 -54 41 -54c24 0 56 6 76 12v107c0 25 -10 51 -37 54v35z" />
    <glyph glyph-name="cyrChevertbar" unicode="&#x4b8;" horiz-adv-x="761" 
d="M260 700v-36c-47 -7 -52 -38 -52 -57v-165c0 -57 0 -119 113 -119h17v177h53v-176c42 3 86 9 130 18v265c0 38 -14 45 -50 57v36h250v-36c-36 -12 -50 -19 -50 -57v-514c0 -13 4 -52 50 -57v-36h-250v36c36 5 50 25 50 57v196c-43 -10 -86 -17 -130 -23v-144h-53v137
c-29 -3 -59 -4 -88 -4c-129 0 -192 33 -192 187v165c0 42 -30 54 -48 57v36h250z" />
    <glyph glyph-name="cyrchevertbar" unicode="&#x4b9;" horiz-adv-x="498" 
d="M32 387h195v-35c-34 -4 -36 -40 -36 -54v-65c0 -49 14 -53 41 -54h7v95h40v-93c16 2 32 5 48 10v107c0 25 -10 51 -37 54v35h196v-35c-36 -6 -36 -48 -36 -54v-208c0 -26 8 -48 36 -55v-35h-196v35c25 6 37 24 37 55v58l-4 2l-44 -10v-60h-40v54c-19 -3 -38 -4 -57 -4
c-111 0 -114 61 -114 97v71c0 6 0 48 -36 54v35z" />
    <glyph glyph-name="cyrH" unicode="&#x4ba;" horiz-adv-x="642" 
d="M10 0v36c21 2 50 15 50 57v514c0 13 -4 52 -50 57v36h250v-36c-36 -5 -50 -25 -50 -57v-174c48 18 118 34 179 34c127 0 165 -65 165 -187v-187c0 -42 30 -54 48 -57v-36h-250v36c47 7 52 38 52 57v187c0 31 -1 62 -19 86c-11 15 -34 34 -75 34c-24 0 -54 -2 -100 -20
v-287c0 -38 14 -45 50 -57v-36h-250z" />
    <glyph glyph-name="cyrh" unicode="&#x4bb;" horiz-adv-x="483" 
d="M191 703v-361h6c5 6 46 53 115 53c103 0 103 -89 103 -145v-160c0 -31 9 -49 36 -55v-35h-195v35c34 7 36 36 36 55v183c0 9 -4 49 -48 49c-37 0 -53 -31 -53 -69v-163c0 -19 2 -48 36 -55v-35h-195v35c27 6 36 24 36 55v524c0 27 -8 47 -36 54v35h159z" />
    <glyph glyph-name="cyrI" unicode="&#x4c0;" horiz-adv-x="259" 
d="M32 0v35c28 7 36 29 36 55v513c0 24 0 56 -36 65v35h159v-613c0 -19 2 -48 36 -55v-35h-195z" />
    <glyph glyph-name="cyrZhecyrbreve" unicode="&#x4c1;" horiz-adv-x="1010" 
d="M380 700h250v-36c-35 -12 -50 -20 -50 -57v-124l11 -1c57 0 84 43 98 72c27 57 58 159 154 159c19 0 41 -4 66 -13v-161h-45c-2 20 -16 34 -33 34c-9 0 -20 -4 -30 -14c-33 -33 -26 -70 -118 -100v-6c19 -4 104 -25 163 -94c60 -70 72 -156 80 -220c9 -66 3 -89 44 -103
v-36h-235v36c42 14 43 54 43 103c0 79 -10 144 -51 207c-11 17 -58 83 -134 83l-13 -1v-335c0 -37 15 -45 50 -57v-36h-250v36c35 12 50 20 50 57v335l-13 1c-76 0 -123 -66 -134 -83c-41 -63 -51 -128 -51 -207c0 -49 1 -89 43 -103v-36h-235v36c42 14 35 35 45 111
c9 67 22 146 78 212c60 69 145 90 164 94v6c-92 30 -85 67 -118 100c-10 10 -21 14 -30 14c-17 0 -31 -14 -33 -34h-45v161c25 9 47 13 66 13c96 0 127 -102 154 -159c14 -29 41 -72 98 -72l11 1v124c0 37 -15 45 -50 57v36zM508 824c44 0 154 19 158 69v3c0 7 -3 14 -17 14
c-10 0 -19 -5 -28 -9c-10 -4 -19 -6 -27 -6c-24 0 -39 16 -39 34c0 20 15 44 58 44c52 0 90 -30 92 -79v-4c0 -76 -90 -144 -197 -144c-111 0 -203 70 -203 144v4c2 49 40 79 92 79c42 0 58 -24 58 -44c0 -19 -17 -34 -40 -34c-8 0 -17 2 -26 6c-8 4 -18 9 -28 9
c-13 0 -18 -8 -18 -15v-2c2 -27 62 -69 165 -69z" />
    <glyph glyph-name="cyrzhecyrbreve" unicode="&#x4c2;" horiz-adv-x="721" 
d="M263 387h195v-35c-28 -5 -36 -27 -36 -54v-47c50 2 73 36 95 68l7 10c19 27 53 66 103 66c13 0 26 -2 41 -8v-121h-35c-1 20 -14 38 -33 38c-15 0 -25 -9 -35 -18c-17 -15 -60 -48 -85 -53v-5c73 -12 113 -39 136 -65c60 -70 28 -111 77 -128v-35h-186v35c9 2 26 8 26 40
v8c-3 52 -40 119 -111 122v-115c0 -33 9 -48 36 -55v-35h-195v35c27 7 36 22 36 55v115c-71 -3 -108 -70 -111 -122v-8c0 -32 17 -38 26 -40v-35h-186v35c49 17 17 58 77 128c23 26 63 53 136 65v5c-25 5 -68 38 -85 53c-10 9 -20 18 -35 18c-19 0 -32 -18 -33 -38h-35v121
c15 6 28 8 41 8c50 0 84 -39 103 -66l7 -10c22 -32 45 -66 95 -68v47c0 27 -8 49 -36 54v35zM363 557c77 0 119 33 119 52c0 10 -7 13 -13 13c-5 0 -12 -3 -21 -7c-7 -3 -14 -4 -20 -4c-18 0 -30 11 -30 25s11 33 44 33c47 0 69 -29 69 -59c0 -44 -47 -112 -149 -112
c-85 0 -152 54 -152 112c0 30 22 59 69 59c33 0 44 -19 44 -33s-12 -25 -30 -25c-6 0 -13 1 -20 4c-9 4 -16 7 -21 7c-6 0 -13 -3 -13 -13c0 -18 41 -52 124 -52z" />
    <glyph glyph-name="cyrKahook" unicode="&#x4c3;" horiz-adv-x="732" 
d="M40 700h248v-36c-39 -6 -49 -31 -49 -57v-179h6c100 0 136 75 154 119c27 67 53 164 174 164c29 0 51 -4 65 -9v-161h-36c-7 23 -26 34 -44 34c-28 0 -48 -23 -62 -41c-48 -61 -71 -105 -143 -129v-7c55 -7 94 -23 101 -26c89 -38 109 -110 124 -174
c11 -46 16 -72 25 -90c13 -28 46 -63 89 -66v-39l-9 -3c-17 -87 -92 -164 -185 -164c-73 0 -116 33 -116 77c0 28 18 54 54 54c27 0 48 -16 51 -43c1 -6 0 -12 0 -18c0 -14 2 -24 21 -24c33 0 34 42 34 63v55c-51 15 -79 48 -92 69c-23 37 -27 77 -35 116
c-13 62 -26 116 -70 153c-19 16 -53 37 -97 37h-9v-282c0 -26 10 -51 49 -57v-36h-248v36c40 6 49 31 49 57v514c0 26 -9 51 -49 57v36z" />
    <glyph glyph-name="cyrkahook" unicode="&#x4c4;" horiz-adv-x="464" 
d="M32 387h197v-35c-27 -3 -37 -29 -37 -54v-72h15c20 0 52 12 80 78c14 34 36 91 108 91c13 0 25 -2 38 -7v-125h-35v2c0 23 -16 39 -36 39c-25 0 -38 -16 -46 -29c-14 -23 -23 -45 -58 -65v-5h8c15 0 30 -2 49 -8c29 -10 47 -22 65 -50c22 -34 44 -97 51 -120
c7 -22 21 -72 21 -99c0 -47 -31 -125 -127 -125c-60 0 -81 38 -81 65c0 24 19 40 41 40c20 0 34 -11 39 -26c6 -17 1 -39 29 -39c21 0 25 20 25 29c0 27 -7 44 -15 62c-15 33 -22 55 -51 111c-22 43 -6 8 -51 102c-10 22 -19 39 -52 39h-17v-96c0 -31 12 -49 37 -55v-35
h-197v35c25 6 37 24 37 55v208c0 25 -10 51 -37 54v35z" />
    <glyph glyph-name="cyrEnhook" unicode="&#x4c7;" horiz-adv-x="826" 
d="M289 700v-36c-21 -2 -50 -15 -50 -57v-220h348v211c0 26 -3 58 -50 66v36h249v-36c-48 -7 -49 -40 -49 -66v-508c0 -195 -114 -254 -194 -254c-73 0 -116 33 -116 77c0 28 18 54 54 54c27 0 48 -16 51 -43c1 -6 0 -12 0 -18c0 -14 2 -24 21 -24c33 0 34 42 34 63v389
h-348v-241c0 -26 6 -45 50 -57v-36h-249v36c37 12 49 24 49 57v514c0 10 -1 50 -49 57v36h249z" />
    <glyph glyph-name="cyrenhook" unicode="&#x4c8;" horiz-adv-x="505" 
d="M228 387v-35c-27 -3 -37 -29 -37 -54v-82h123v82c0 6 0 48 -36 54v35h195v-35c-34 -4 -36 -40 -36 -54v-345c0 -44 -13 -150 -129 -150c-60 0 -81 38 -81 65c0 24 19 40 41 40c20 0 34 -11 39 -26c6 -17 1 -39 29 -39c13 0 25 10 25 29c0 23 -19 53 -27 67
c-10 16 -20 32 -20 76v161h-123v-86c0 -31 12 -49 37 -55v-35h-196v35c28 7 36 29 36 55v208c0 6 0 48 -36 54v35h196z" />
    <glyph glyph-name="cyrAcyrbreve" unicode="&#x4d0;" horiz-adv-x="758" 
d="M0 36c40 13 64 58 73 77l202 427c10 22 12 43 12 61c0 23 -35 21 -47 20v36c76 6 111 37 126 54h36l262 -548c46 -96 72 -116 94 -127v-36h-286v36c40 -1 55 34 55 57c0 8 -7 27 -9 31l-31 65h-319l-26 -59c-10 -22 -37 -78 54 -94v-36h-196v36zM325 520l-127 -274v-4
h260v3l-129 275h-4zM218 878h42c5 -26 28 -48 52 -59c17 -8 41 -11 63 -11s46 3 63 11c24 11 47 33 52 59h42c-8 -48 -29 -85 -72 -111c-28 -17 -58 -21 -85 -21s-57 4 -85 21c-43 26 -64 63 -72 111z" />
    <glyph glyph-name="cyracyrbreve" unicode="&#x4d1;" horiz-adv-x="430" 
d="M416 52v-34c-10 -10 -31 -26 -68 -26c-11 0 -53 2 -78 55h-5c-37 -38 -72 -55 -125 -55c-92 0 -112 62 -112 97c0 62 32 146 219 150v28c0 80 -23 88 -48 88c-20 0 -31 -3 -56 -43c-10 -15 -21 -29 -42 -29c-19 0 -37 12 -37 36c0 44 59 76 146 76
c158 0 160 -126 160 -170v-129c0 -21 1 -45 36 -45c3 0 7 0 10 1zM247 130v69c-49 0 -91 -38 -91 -97c0 -45 25 -54 41 -54c50 0 50 61 50 82zM82 639h35c16 -60 60 -82 98 -82s82 22 98 82h35c-7 -53 -33 -141 -133 -141s-126 88 -133 141z" />
    <glyph glyph-name="cyrAdieresis" unicode="&#x4d2;" horiz-adv-x="758" 
d="M0 36c40 13 64 58 73 77l202 427c10 22 12 43 12 61c0 23 -35 21 -47 20v36c76 6 111 37 126 54h36l262 -548c46 -96 72 -116 94 -127v-36h-286v36c40 -1 55 34 55 57c0 8 -7 27 -9 31l-31 65h-319l-26 -59c-10 -22 -37 -78 54 -94v-36h-196v36zM325 520l-127 -274v-4
h260v3l-129 275h-4zM176 822c0 42 34 76 76 76s76 -34 76 -76s-34 -76 -76 -76s-76 34 -76 76zM429 822c0 42 34 76 76 76s76 -34 76 -76s-34 -76 -76 -76s-76 34 -76 76z" />
    <glyph glyph-name="cyradieresis" unicode="&#x4d3;" horiz-adv-x="430" 
d="M416 52v-34c-10 -10 -31 -26 -68 -26c-11 0 -53 2 -78 55h-5c-37 -38 -72 -55 -125 -55c-92 0 -112 62 -112 97c0 62 32 146 219 150v28c0 80 -23 88 -48 88c-20 0 -31 -3 -56 -43c-10 -15 -21 -29 -42 -29c-19 0 -37 12 -37 36c0 44 59 76 146 76
c158 0 160 -126 160 -170v-129c0 -21 1 -45 36 -45c3 0 7 0 10 1zM247 130v69c-49 0 -91 -38 -91 -97c0 -45 25 -54 41 -54c50 0 50 61 50 82zM54 562c0 34 30 64 64 64s64 -30 64 -64s-30 -64 -64 -64s-64 30 -64 64zM250 562c0 34 30 64 64 64s64 -30 64 -64
s-30 -64 -64 -64s-64 30 -64 64z" />
    <glyph glyph-name="cyrAE" unicode="&#x4d4;" horiz-adv-x="1151" 
d="M441 700h537c28 0 39 2 46 18h25v-179h-36c-23 88 -69 108 -161 108h-147v-253h91c47 0 86 11 86 62v2h36v-180h-36c-5 60 -49 63 -66 63h-111v-288h220c74 0 137 52 150 124h36v-177h-609v36c41 8 53 23 53 66v87h-320l-58 -76c-5 -7 -13 -23 -13 -31
c0 -30 23 -41 52 -46v-36h-216v36c20 2 56 12 108 77l371 462c7 9 25 32 27 47v7c-1 12 -7 31 -65 35v36zM555 581l-274 -339h274v339z" />
    <glyph glyph-name="cyrae" unicode="&#x4d5;" horiz-adv-x="614" 
d="M586 210h-216v-50c0 -110 55 -112 82 -112c45 0 64 16 99 56l29 -28c-51 -77 -117 -84 -156 -84c-58 0 -96 16 -131 55h-7c-36 -38 -76 -55 -125 -55c-100 0 -133 54 -133 97c0 38 8 145 219 150v28c0 80 -23 88 -48 88c-10 0 -28 -1 -46 -27c-13 -19 -22 -45 -52 -45
c-19 0 -37 12 -37 36c0 43 58 76 147 76c31 0 74 -8 107 -32h2c15 11 48 32 105 32c125 0 159 -116 161 -185zM476 250v16c0 81 -30 89 -52 89c-27 0 -54 -15 -54 -89v-16h106zM247 130v69c-49 0 -91 -38 -91 -97c0 -45 25 -54 41 -54c50 0 50 61 50 82z" />
    <glyph glyph-name="cyrIecyrbreve" unicode="&#x4d6;" horiz-adv-x="708" 
d="M40 700h495c28 0 39 2 46 18h25v-179h-36c-23 88 -69 108 -161 108h-167v-253h111c48 0 87 11 86 64h36v-180h-36c-5 60 -49 63 -66 63h-131v-288h240c74 0 137 52 150 124h36v-177h-628v36c47 5 52 39 52 66v496c0 30 -5 60 -52 66v36zM193 878h42c5 -26 28 -48 52 -59
c17 -8 41 -11 63 -11s46 3 63 11c24 11 47 33 52 59h42c-8 -48 -29 -85 -72 -111c-28 -17 -58 -21 -85 -21s-57 4 -85 21c-43 26 -64 63 -72 111z" />
    </font>
</defs>
</svg>
