<?xml version="1.0" standalone="no"?>
<!DOCTYPE svg PUBLIC "-//W3C//DTD SVG 1.1//EN" "http://www.w3.org/Graphics/SVG/1.1/DTD/svg11.dtd" >
<svg xmlns="http://www.w3.org/2000/svg" xmlns:xlink="http://www.w3.org/1999/xlink" version="1.1">
<metadata>
Created by FontForge 20170910 at Tue Nov  1 16:32:09 2005
 By Jimmy Wärting
Academy was designed circa 1910 at the Berthold type foundry (St.-Petersburg). It was based on Sorbonne (H. Berthold, Berlin, 1905), which represented the American Type Founders rework Cheltenham of 1896 (designers Bertram G. Goodhue, Morris F. Benton) and Russian typefaces of the mid-18th century. A low-contrast text typeface with historical flavour. The modern digital version was designed at Polygraphmash type design bureau in 1989 by Lyubov Kuznetsova.
</metadata>
<defs>
<font id="Academy-Regular" horiz-adv-x="432" >
  <font-face 
    font-family="Academy"
    font-weight="400"
    font-stretch="normal"
    units-per-em="1000"
    panose-1="2 5 5 3 5 5 6 2 4 2"
    ascent="800"
    descent="-200"
    x-height="385"
    cap-height="700"
    bbox="-470 -284 1270 970"
    underline-thickness="50"
    underline-position="-100"
    stemh="35"
    stemv="86"
    unicode-range="U+0020-F6D4"
  />
<missing-glyph horiz-adv-x="233" 
 />
    <glyph glyph-name="fi" unicode="fi" horiz-adv-x="441" 
d="M27 385h48v101c0 100 41 162 90 194c28 19 59 28 92 28c65 0 93 -25 93 -50c0 -22 -17 -36 -32 -36c-18 0 -30 13 -39 22c-10 11 -22 21 -49 21s-45 -12 -56 -23c-12 -12 -26 -36 -26 -80v-177h222v-284c0 -37 5 -69 45 -72v-29h-162v29c37 4 44 29 44 72v182
c0 62 -18 70 -47 70h-102v-251c0 -40 9 -77 51 -73v-29h-173v29c45 7 49 32 49 73v251h-48v32z" />
    <glyph glyph-name="fl" unicode="fl" horiz-adv-x="442" 
d="M27 385h48v101c0 136 65 187 106 203c14 5 36 11 73 11h117v-599c0 -37 5 -69 45 -72v-29h-163v29c40 5 45 33 45 72v498c0 34 0 58 -27 67c5 -21 -7 -42 -31 -42c-17 0 -26 9 -33 17c-6 6 -12 10 -23 10c-29 0 -36 -31 -36 -65v-201h107v-31h-107v-252
c0 -40 9 -77 51 -73v-29h-173v29c45 7 49 32 49 73v252h-48v31z" />
    <glyph glyph-name="afii10017.var.accented" unicode="&#x410;`" horiz-adv-x="724" 
d="M379 708l270 -600c18 -41 39 -72 75 -74v-34h-196v34c33 5 36 16 36 39c0 4 -3 15 -9 29l-40 90h-348l-39 -85c-11 -24 -12 -32 -12 -35c0 -11 4 -31 39 -38v-34h-155v34c42 3 70 51 79 71l225 486c8 17 9 21 9 25c0 12 -11 15 -24 15v34c24 6 56 27 70 43h20zM497 231
l-148 329h-11l-153 -329h312zM252 758l121 100c11 9 25 18 38 22c6 2 12 3 18 3c23 0 39 -16 39 -36c0 -22 -15 -34 -25 -40c-14 -8 -24 -11 -37 -16l-143 -54z" />
    <glyph glyph-name="afii10022.var.accented" unicode="&#x415;`" horiz-adv-x="655" 
d="M52 700h394c96 0 53 11 125 8v-133h-34c-20 76 -82 86 -156 86h-183v-287h125c25 0 71 -3 82 56h33v-151h-33c-17 59 -38 56 -82 56h-125v-296h205c104 0 185 21 192 111h34l-11 -150h-566v34c45 5 60 37 60 81v470c0 46 -10 80 -60 81v34zM217 758l121 100
c11 9 25 18 38 22c6 2 12 3 18 3c23 0 39 -16 39 -36c0 -22 -15 -34 -25 -40c-14 -8 -24 -11 -37 -16l-143 -54z" />
    <glyph glyph-name="afii10026.var.accented" unicode="&#x418;`" horiz-adv-x="799" 
d="M52 700h205v-34c-49 -5 -59 -37 -59 -81v-381h3l401 369v32c0 33 -27 58 -60 61v34h205v-34c-49 -5 -59 -37 -59 -81v-470c0 -45 9 -75 59 -81v-34h-205v34c48 4 60 38 60 81v396h-3l-401 -370v-26c0 -45 12 -76 59 -81v-34h-205v34c47 5 60 37 60 81v470
c0 44 -13 76 -60 81v34zM289 758l121 100c11 9 25 18 38 22c6 2 12 3 18 3c23 0 39 -16 39 -36c0 -22 -15 -34 -25 -40c-14 -8 -24 -11 -37 -16l-143 -54z" />
    <glyph glyph-name="afii10032.var.accented" unicode="&#x41e;`" horiz-adv-x="788" 
d="M394 708c232 0 355 -191 355 -358s-123 -358 -355 -358s-355 191 -355 358s123 358 355 358zM394 669c-138 0 -255 -114 -255 -319s117 -319 255 -319s255 114 255 319s-117 319 -255 319zM284 758l121 100c11 9 25 18 38 22c6 2 12 3 18 3c23 0 39 -16 39 -36
c0 -22 -15 -34 -25 -40c-14 -8 -24 -11 -37 -16l-143 -54z" />
    <glyph glyph-name="afii10037.var.accented" unicode="&#x423;`" horiz-adv-x="630" 
d="M630 700v-34c-53 -11 -75 -40 -95 -87l-143 -331c-60 -138 -98 -256 -228 -256c-45 0 -126 18 -126 86c0 36 25 52 48 52c28 0 53 -22 53 -50c0 -8 -1 -15 -1 -23c0 -11 7 -31 43 -31c29 0 88 20 133 144l-236 419c-25 45 -41 75 -78 77v34h205v-34
c-31 -1 -41 -18 -41 -32c0 -17 14 -42 23 -58l169 -301h4l133 304c5 11 11 34 11 43c0 29 -23 47 -51 44v34h177zM205 758l121 100c11 9 25 18 38 22c6 2 12 3 18 3c23 0 39 -16 39 -36c0 -22 -15 -34 -25 -40c-14 -8 -24 -11 -37 -16l-143 -54z" />
    <glyph glyph-name="afii10045.var.accented" unicode="&#x42b;`" horiz-adv-x="851" 
d="M52 700h206v-34c-48 -4 -60 -38 -60 -81v-179h128c61 0 259 0 259 -201c0 -200 -160 -205 -254 -205h-279v34c48 6 60 36 60 81v470c0 45 -12 75 -60 81v34zM198 39h112c160 0 175 80 175 162c0 63 -7 166 -184 166h-103v-328zM818 700v-34c-54 -6 -59 -47 -59 -81v-470
c0 -43 9 -77 59 -81v-34h-205v34c48 4 60 38 60 81v470c0 47 -16 77 -60 81v34h205zM315 758l121 100c11 9 25 18 38 22c6 2 12 3 18 3c23 0 39 -16 39 -36c0 -22 -15 -34 -25 -40c-14 -8 -24 -11 -37 -16l-143 -54z" />
    <glyph glyph-name="afii10047.var.accented" unicode="&#x42d;`" horiz-adv-x="684" 
d="M81 694h39c9 -13 20 -20 37 -20c20 0 47 14 82 22c30 7 76 12 103 12c149 0 303 -125 303 -345c0 -93 -25 -185 -96 -263c-66 -72 -146 -108 -260 -108c-160 0 -250 90 -250 168c0 37 23 67 56 67c34 0 62 -27 62 -60c0 -13 -3 -26 -7 -39c-3 -8 -7 -16 -7 -25
c0 -52 87 -72 141 -72c175 0 256 149 261 303v33c-25 -37 -71 -73 -118 -73c-24 0 -59 8 -83 19c-81 38 -87 53 -124 53c-22 0 -28 -5 -55 -39l-27 18c33 49 68 93 136 93c25 0 55 -10 107 -36c29 -14 64 -31 98 -31c48 0 66 45 66 85c0 80 -64 213 -225 213
c-126 0 -183 -94 -205 -147h-34v172zM232 758l121 100c11 9 25 18 38 22c6 2 12 3 18 3c23 0 39 -16 39 -36c0 -22 -15 -34 -25 -40c-14 -8 -24 -11 -37 -16l-143 -54z" />
    <glyph glyph-name="afii10048.var.accented" unicode="&#x42e;`" horiz-adv-x="1109" 
d="M197 389h165c17 158 141 319 353 319c232 0 355 -191 355 -358s-123 -358 -355 -358c-192 0 -354 147 -355 358h-163v-235c0 -43 10 -77 60 -81v-34h-205v34c49 5 59 38 59 81v469c0 39 -6 72 -59 82v34h205v-34c-55 -9 -60 -45 -60 -81v-196zM715 669
c-138 0 -255 -114 -255 -319s117 -319 255 -319s255 114 255 319s-117 319 -255 319zM444 758l121 100c11 9 25 18 38 22c6 2 12 3 18 3c23 0 39 -16 39 -36c0 -22 -15 -34 -25 -40c-14 -8 -24 -11 -37 -16l-143 -54z" />
    <glyph glyph-name="afii10049.var.accented" unicode="&#x42f;`" horiz-adv-x="694" 
d="M436 34c46 4 60 36 60 81v212h-103c-99 0 -119 -67 -132 -112c-25 -85 -54 -172 -128 -206c-23 -11 -49 -17 -74 -17h-30c-10 0 -19 0 -29 1v34c36 -1 71 16 91 48c34 54 32 167 123 235c19 14 36 23 57 28v3c-84 0 -180 59 -180 168c0 104 56 191 301 191h250v-34
c-48 -4 -60 -38 -60 -81v-470c0 -31 7 -76 60 -81v-34h-206v34zM496 661h-100c-64 0 -205 -2 -205 -147c0 -113 80 -148 188 -148h117v295zM237 758l121 100c11 9 25 18 38 22c6 2 12 3 18 3c23 0 39 -16 39 -36c0 -22 -15 -34 -25 -40c-14 -8 -24 -11 -37 -16l-143 -54z
" />
    <glyph glyph-name="afii10065.var.accented" unicode="&#x430;`" horiz-adv-x="399" 
d="M385 39l7 -11c-16 -24 -37 -36 -64 -36c-38 0 -58 30 -65 55h-2c-26 -28 -65 -55 -118 -55c-77 0 -117 47 -117 106c0 103 101 133 227 141c0 71 -9 123 -74 123c-17 0 -39 -6 -49 -33c-7 -18 -6 -42 -38 -42c-10 0 -32 5 -32 30c0 31 44 76 128 76
c134 0 138 -103 138 -171v-126c0 -15 0 -62 41 -62c6 0 12 2 18 5zM253 171v35c-122 -6 -149 -65 -149 -106c0 -44 33 -66 70 -66c73 0 79 73 79 137zM108 519l105 130c11 13 25 20 40 20c22 0 37 -15 37 -37c0 -15 -7 -24 -16 -32c-6 -5 -13 -10 -31 -21l-122 -76z" />
    <glyph glyph-name="afii10070.var.accented" unicode="&#x435;`" horiz-adv-x="386" 
d="M360 77c-35 -44 -91 -85 -155 -85c-65 0 -179 33 -179 187c0 128 74 214 176 214c103 0 148 -88 148 -163v-7h-239c-1 -14 -1 -28 -1 -42c0 -57 13 -148 108 -148c51 0 97 33 124 61zM271 254v9c0 72 -36 99 -74 99c-41 0 -82 -28 -84 -108h158zM102 519l105 130
c11 13 25 20 40 20c22 0 37 -15 37 -37c0 -15 -7 -24 -16 -32c-6 -5 -13 -10 -31 -21l-122 -76z" />
    <glyph glyph-name="afii10074.var.accented" unicode="&#x438;`" horiz-adv-x="460" 
d="M26 385h162v-29c-42 -9 -44 -32 -44 -73v-143h2l171 160c1 31 -9 48 -43 56v29h160v-29c-39 -8 -44 -30 -44 -73v-182c0 -41 8 -68 44 -72v-29h-162v29c36 4 45 29 45 72v148h-2l-171 -158c-2 -33 7 -57 44 -62v-29h-162v29c36 3 45 31 45 72v182c0 39 -5 69 -45 73v29z
M139 519l105 130c11 13 25 20 40 20c22 0 37 -15 37 -37c0 -15 -7 -24 -16 -32c-6 -5 -13 -10 -31 -21l-122 -76z" />
    <glyph glyph-name="afii10080.var.accented" unicode="&#x43e;`" 
d="M216 393c37 0 149 -11 183 -147c5 -19 7 -39 7 -59c0 -17 -3 -33 -7 -49c-35 -138 -156 -146 -183 -146s-148 8 -183 146c-4 16 -7 32 -7 49c0 20 2 40 7 59c34 136 146 147 183 147zM216 362c-56 0 -106 -25 -106 -170c0 -48 -2 -169 106 -169s106 121 106 169
c0 145 -50 170 -106 170zM125 519l105 130c11 13 25 20 40 20c22 0 37 -15 37 -37c0 -15 -7 -24 -16 -32c-6 -5 -13 -10 -31 -21l-122 -76z" />
    <glyph glyph-name="afii10085.var.accented" unicode="&#x443;`" horiz-adv-x="429" 
d="M429 385v-29c-41 -9 -50 -39 -60 -60l-157 -348c-36 -79 -66 -132 -135 -132c-35 0 -69 16 -69 53c0 30 20 43 37 43c14 0 24 -6 31 -11c9 -7 16 -14 33 -14c26 0 43 21 55 48l30 66l-118 294c-15 39 -36 64 -71 61v29h184v-29h-10c-19 0 -29 -10 -29 -25
c0 -8 6 -25 9 -32l77 -193h4l80 177c3 8 13 28 13 42c0 13 -9 33 -39 31v29h135zM123 519l105 130c11 13 25 20 40 20c22 0 37 -15 37 -37c0 -15 -7 -24 -16 -32c-6 -5 -13 -10 -31 -21l-122 -76z" />
    <glyph glyph-name="afii10093.var.accented" unicode="&#x44b;`" horiz-adv-x="610" 
d="M26 385h163v-29c-42 -7 -45 -35 -45 -73v-29c39 19 71 27 111 27c94 0 143 -62 143 -143c0 -55 -30 -138 -149 -138h-223v29c40 5 45 33 45 72v182c0 41 -3 64 -45 73v29zM144 31h59c35 0 111 6 111 111c0 89 -64 95 -89 95c-27 0 -59 -12 -81 -23v-183zM423 356v29h161
v-29c-42 -9 -44 -32 -44 -73v-202c0 -5 0 -47 44 -52v-29h-161v29c7 1 44 6 44 52v202c0 41 -2 64 -44 73zM214 519l105 130c11 13 25 20 40 20c22 0 37 -15 37 -37c0 -15 -7 -24 -16 -32c-6 -5 -13 -10 -31 -21l-122 -76z" />
    <glyph glyph-name="afii10095.var.accented" unicode="&#x44d;`" horiz-adv-x="420" 
d="M59 389h15c8 -5 16 -9 28 -9s27 4 46 8s31 5 51 5c134 0 195 -101 195 -202c0 -111 -78 -168 -117 -184c-22 -9 -56 -15 -82 -15c-95 0 -148 48 -148 89c0 21 13 43 43 43c23 0 38 -15 38 -35c0 -7 -1 -13 -1 -20c0 -39 38 -46 67 -46c100 0 116 105 116 147
c0 11 0 22 -1 33h-3c-18 -33 -50 -48 -73 -48c-14 0 -27 4 -40 8c-40 13 -56 24 -74 24c-11 0 -25 -4 -37 -10l-8 15c22 21 51 45 84 45c12 0 23 -4 34 -8c38 -14 54 -21 73 -21c33 0 43 24 43 52c0 19 -14 50 -28 67c-20 23 -52 35 -82 35c-62 0 -88 -26 -110 -82h-29v109z
M119 519l105 130c11 13 25 20 40 20c22 0 37 -15 37 -37c0 -15 -7 -24 -16 -32c-6 -5 -13 -10 -31 -21l-122 -76z" />
    <glyph glyph-name="afii10096.var.accented" unicode="&#x44e;`" horiz-adv-x="645" 
d="M144 208h95c10 152 130 185 190 185c94 0 190 -65 190 -200c0 -90 -58 -201 -190 -201c-121 0 -184 90 -190 185h-95v-76c0 -43 7 -68 44 -72v-29h-162v29c39 3 45 30 45 72v182c0 44 -5 65 -45 73v29h162v-29c-42 -9 -44 -32 -44 -73v-75zM429 362
c-102 0 -106 -110 -106 -170c0 -48 -2 -169 106 -169s106 121 106 169c0 58 -5 170 -106 170zM231 519l105 130c11 13 25 20 40 20c22 0 37 -15 37 -37c0 -15 -7 -24 -16 -32c-6 -5 -13 -10 -31 -21l-122 -76z" />
    <glyph glyph-name="afii10097.var.accented" unicode="&#x44f;`" horiz-adv-x="417" 
d="M390 385v-29c-43 -8 -44 -41 -44 -52v-203c0 -37 5 -69 45 -72v-29h-163v29c40 5 45 33 45 72v77h-11c-32 0 -63 -3 -92 -81c-20 -54 -39 -105 -143 -105h-27v28c52 3 66 49 78 79c17 45 40 72 86 85v3c-18 1 -28 4 -47 12c-23 10 -70 30 -70 86c0 46 27 100 155 100h188
zM273 354h-52c-83 0 -90 -45 -90 -74c0 -13 4 -71 79 -71h63v145zM117 519l105 130c11 13 25 20 40 20c22 0 37 -15 37 -37c0 -15 -7 -24 -16 -32c-6 -5 -13 -10 -31 -21l-122 -76z" />
    <glyph glyph-name=".notdef" horiz-adv-x="233" 
 />
    <glyph glyph-name="space" unicode=" " horiz-adv-x="233" 
 />
    <glyph glyph-name="space" unicode="&#xa0;" horiz-adv-x="233" 
 />
    <glyph glyph-name="exclam" unicode="!" horiz-adv-x="248" 
d="M104 149l-32 551h105l-33 -551h-40zM70 46c0 30 24 54 54 54s54 -24 54 -54s-24 -54 -54 -54s-54 24 -54 54z" />
    <glyph glyph-name="quotedbl" unicode="&#x22;" horiz-adv-x="387" 
d="M156 700l-27 -204h-36l-27 204h90zM321 700l-27 -204h-36l-27 204h90z" />
    <glyph glyph-name="numbersign" unicode="#" horiz-adv-x="825" 
d="M504 0h-62l34 194h-188l-34 -194h-62l34 194h-160l9 48h160l40 225h-160l9 48h160l33 185h62l-33 -185h188l33 185h62l-33 -185h163l-9 -48h-163l-40 -225h163l-9 -48h-163zM297 242h188l40 225h-188z" />
    <glyph glyph-name="dollar" unicode="$" horiz-adv-x="599" 
d="M323 776v-68c71 -5 170 -50 170 -126c0 -50 -29 -67 -58 -67c-39 0 -55 29 -55 55c0 30 9 6 9 50c0 17 -16 41 -66 42v-228c102 -49 206 -82 206 -217c0 -66 -39 -195 -206 -217v-76h-45v76c-163 18 -208 91 -208 148c0 42 31 69 69 69s56 -32 56 -61
c0 -24 -16 -40 -16 -57c0 -20 29 -50 99 -52v299c-115 47 -187 94 -187 192c0 91 80 168 187 170v68h45zM278 452v210c-77 -7 -107 -56 -107 -101c0 -58 50 -86 107 -109zM323 328v-281c75 8 132 74 132 142c0 28 -10 102 -132 139z" />
    <glyph glyph-name="percent" unicode="%" horiz-adv-x="870" 
d="M230 707c118 0 160 -100 160 -181c0 -43 -17 -180 -160 -180s-160 137 -160 180c0 81 42 181 160 181zM230 669c-17 0 -75 4 -75 -102v-80c0 -65 21 -103 75 -103c48 0 75 32 75 103v80c0 22 1 102 -75 102zM252 8l328 700l38 -14l-328 -702zM640 353
c118 0 160 -100 160 -181c0 -43 -17 -180 -160 -180s-160 137 -160 180c0 81 42 181 160 181zM640 315c-17 0 -75 4 -75 -102v-80c0 -65 21 -103 75 -103c48 0 75 32 75 103v80c0 22 1 102 -75 102z" />
    <glyph glyph-name="ampersand" unicode="&#x26;" horiz-adv-x="845" 
d="M529 446h201v-39c-47 -10 -72 -36 -96 -71c-29 -42 -56 -103 -115 -175c30 -40 86 -92 146 -92c37 0 73 28 82 71h28c-14 -67 -54 -148 -144 -148c-30 0 -95 10 -171 101c-89 -92 -171 -101 -218 -101c-123 0 -172 85 -172 165c0 59 27 153 202 245
c-30 70 -35 117 -35 143c0 109 70 163 151 163c80 0 135 -53 135 -121c0 -85 -71 -141 -156 -181c37 -86 86 -160 128 -214c36 48 82 138 82 179c0 23 -16 32 -48 36v39zM435 124c-74 94 -101 138 -147 239c-54 -28 -116 -79 -116 -159c0 -93 54 -148 120 -148
c43 0 92 18 143 68zM352 442c45 18 110 63 110 145c0 58 -34 82 -67 82c-37 0 -78 -24 -78 -86c0 -34 9 -76 35 -141z" />
    <glyph glyph-name="quoteright" unicode="&#x2019;" horiz-adv-x="259" 
d="M90 487l-20 21c50 42 63 71 67 91l-2 3c-6 -1 -11 -1 -17 0c-32 3 -48 25 -48 54c0 27 19 52 56 52c32 0 63 -19 63 -70c0 -58 -47 -119 -99 -151z" />
    <glyph glyph-name="parenleft" unicode="(" horiz-adv-x="399" 
d="M329 691c0 -12 -25 -22 -72 -98c-81 -131 -87 -281 -87 -331s6 -200 87 -331c47 -76 72 -86 72 -98c0 -7 -8 -17 -16 -17c-6 0 -16 2 -40 22c-191 160 -203 345 -203 424s12 264 203 424c24 20 34 22 40 22c8 0 16 -10 16 -17z" />
    <glyph glyph-name="parenright" unicode=")" horiz-adv-x="399" 
d="M70 691c0 7 8 17 16 17c6 0 16 -2 40 -22c191 -160 203 -345 203 -424s-12 -264 -203 -424c-24 -20 -34 -22 -40 -22c-8 0 -16 10 -16 17c0 12 25 22 72 98c81 131 87 281 87 331s-6 200 -87 331c-47 76 -72 86 -72 98z" />
    <glyph glyph-name="asterisk" unicode="*" horiz-adv-x="474" 
d="M181 653c7 37 40 47 56 47s49 -10 56 -47c-31 -33 -44 -107 -43 -144c3 -1 6 -3 9 -5c46 11 100 49 124 85h5c45 0 60 -36 60 -53c0 -21 -11 -42 -30 -55c-24 10 -42 11 -72 11c-19 0 -58 -5 -79 -14c0 -4 0 -7 -2 -10c6 -12 11 -16 19 -24c14 -14 52 -57 100 -67
c20 -43 -13 -83 -54 -83c-10 0 -24 4 -37 16c4 42 -21 108 -50 142c-4 -1 -8 -1 -12 0c-29 -34 -54 -100 -50 -142c-13 -12 -27 -16 -37 -16c-41 0 -74 40 -54 83c48 10 86 53 100 67c8 8 13 12 19 24c-2 3 -2 6 -2 10c-21 9 -60 14 -79 14c-30 0 -48 -1 -72 -11
c-19 13 -30 34 -30 55c0 17 15 53 60 53h5c24 -36 78 -74 124 -85c3 2 6 4 9 5c1 37 -12 111 -43 144z" />
    <glyph glyph-name="plus" unicode="+" horiz-adv-x="702" 
d="M376 35h-50v256h-256v50h256v256h50v-256h256v-50h-256v-256z" />
    <glyph glyph-name="comma" unicode="," horiz-adv-x="259" 
d="M90 -123l-20 21c50 42 63 71 67 91l-2 3c-6 -1 -11 -1 -17 0c-32 3 -48 25 -48 54c0 27 19 52 56 52c32 0 63 -19 63 -70c0 -58 -47 -119 -99 -151z" />
    <glyph glyph-name="hyphen" unicode="-" horiz-adv-x="368" 
d="M70 117l21 93h132c14 0 42 -1 51 27h24l-18 -93h-135c-13 0 -30 1 -40 -8c-4 -3 -6 -7 -14 -19h-21z" />
    <glyph glyph-name="hyphen" unicode="&#x2010;" horiz-adv-x="368" 
d="M70 117l21 93h132c14 0 42 -1 51 27h24l-18 -93h-135c-13 0 -30 1 -40 -8c-4 -3 -6 -7 -14 -19h-21z" />
    <glyph glyph-name="hyphen" unicode="&#xad;" horiz-adv-x="368" 
d="M70 117l21 93h132c14 0 42 -1 51 27h24l-18 -93h-135c-13 0 -30 1 -40 -8c-4 -3 -6 -7 -14 -19h-21z" />
    <glyph glyph-name="period" unicode="." horiz-adv-x="248" 
d="M70 45c0 30 24 54 54 54s54 -24 54 -54s-24 -54 -54 -54s-54 24 -54 54z" />
    <glyph glyph-name="slash" unicode="/" horiz-adv-x="546" 
d="M127 -184h-57l347 884h59z" />
    <glyph glyph-name="zero" unicode="0" horiz-adv-x="504" 
d="M252 -8c-109 0 -213 118 -213 358c0 175 68 358 213 358s213 -183 213 -358c0 -240 -104 -358 -213 -358zM252 31c108 0 113 193 113 319s-5 319 -113 319s-113 -193 -113 -319s5 -319 113 -319z" />
    <glyph glyph-name="one" unicode="1" horiz-adv-x="379" 
d="M327 34v-34h-204v34c47 4 59 37 59 81v462h-6c-49 -53 -85 -82 -124 -104v43c65 44 125 111 166 184h50v-585c0 -48 16 -76 59 -81z" />
    <glyph glyph-name="two" unicode="2" horiz-adv-x="498" 
d="M464 155l-38 -155h-392v38c106 118 302 352 302 493c0 65 -34 114 -102 114c-36 0 -88 -12 -141 -87l-30 19c62 101 131 131 204 131c113 0 169 -71 169 -150c0 -60 -30 -182 -309 -468v-4h181c58 0 98 10 122 69h34z" />
    <glyph glyph-name="three" unicode="3" horiz-adv-x="475" 
d="M77 551l-30 19c35 61 102 138 210 138c92 0 132 -61 132 -116c0 -37 -20 -105 -110 -159v-4h7c70 0 142 -46 142 -150c0 -73 -39 -146 -106 -198c-52 -40 -138 -84 -269 -89h-23v33c187 13 304 121 304 240c0 73 -52 108 -107 108c-26 0 -56 -11 -79 -23l-17 29
c82 49 178 118 178 199c0 39 -26 75 -83 75c-64 0 -121 -63 -149 -102z" />
    <glyph glyph-name="four" unicode="4" horiz-adv-x="508" 
d="M340 700h40v-422h9c29 0 50 20 60 64l28 -7l-35 -131h-62v-204h-86v204h-260v46zM294 278v285h-6l-185 -274v-11h191z" />
    <glyph glyph-name="five" unicode="5" horiz-adv-x="469" 
d="M368 708l-25 -95h-177l-44 -168l2 -2c36 20 72 27 102 27c76 0 183 -47 183 -181c0 -38 -8 -112 -70 -189c-74 -91 -169 -108 -224 -108c-33 0 -56 1 -85 11v36c23 -7 47 -8 70 -8c131 0 209 129 209 248c0 110 -58 146 -106 146c-19 0 -49 -3 -103 -28l-18 15l73 288
h146c16 0 50 5 67 8z" />
    <glyph glyph-name="six" unicode="6" horiz-adv-x="524" 
d="M262 -8c-39 0 -132 12 -185 101c-28 47 -37 99 -37 136c0 49 2 115 19 169c22 71 106 255 328 310v-39c-134 -68 -215 -153 -241 -297h3c14 16 55 58 130 58c124 0 205 -95 205 -209c0 -130 -87 -229 -222 -229zM265 391c-33 0 -125 -12 -125 -182
c0 -158 90 -178 124 -178c51 0 120 28 120 178s-72 182 -119 182z" />
    <glyph glyph-name="seven" unicode="7" horiz-adv-x="492" 
d="M55 521l14 179h371v-39l-200 -661h-115l261 614h-242c-37 0 -53 -17 -55 -93h-34z" />
    <glyph glyph-name="eight" unicode="8" horiz-adv-x="519" 
d="M160 389v4c-54 40 -77 99 -77 149c0 76 61 166 186 166c100 0 171 -68 171 -146c0 -89 -70 -138 -87 -148v-4c80 -47 126 -109 126 -196c0 -104 -70 -222 -221 -222c-132 0 -213 92 -213 202c0 39 7 139 115 195zM300 433c62 38 68 104 68 128c0 52 -33 108 -109 108
c-66 0 -104 -52 -104 -99c0 -54 35 -105 145 -137zM187 375c-50 -48 -63 -110 -63 -171c0 -123 72 -173 144 -173c69 0 121 53 121 130c0 48 -18 125 -116 176c-18 9 -37 17 -86 38z" />
    <glyph glyph-name="nine" unicode="9" horiz-adv-x="522" 
d="M261 708c49 0 94 -14 134 -45c59 -45 87 -110 87 -193c0 -48 -4 -116 -20 -169c-34 -112 -141 -264 -325 -309v39c135 70 214 152 241 296h-4c-36 -44 -94 -58 -129 -58c-69 0 -205 47 -205 210c0 90 51 229 221 229zM259 308c32 0 123 12 123 182
c0 153 -78 179 -123 179c-111 0 -119 -126 -119 -179c0 -150 68 -182 119 -182z" />
    <glyph glyph-name="colon" unicode=":" horiz-adv-x="248" 
d="M70 342c0 30 24 54 54 54s54 -24 54 -54s-24 -54 -54 -54s-54 24 -54 54zM70 46c0 30 24 54 54 54s54 -24 54 -54s-24 -54 -54 -54s-54 24 -54 54z" />
    <glyph glyph-name="semicolon" unicode=";" horiz-adv-x="259" 
d="M74 342c0 30 24 54 54 54s54 -24 54 -54s-24 -54 -54 -54s-54 24 -54 54zM90 -123l-20 21c50 42 63 71 67 91l-2 3c-6 -1 -11 -1 -17 0c-32 3 -48 25 -48 54c0 27 19 52 56 52c32 0 63 -19 63 -70c0 -58 -47 -119 -99 -151z" />
    <glyph glyph-name="semicolon" unicode="&#x37e;" horiz-adv-x="259" 
d="M74 342c0 30 24 54 54 54s54 -24 54 -54s-24 -54 -54 -54s-54 24 -54 54zM90 -123l-20 21c50 42 63 71 67 91l-2 3c-6 -1 -11 -1 -17 0c-32 3 -48 25 -48 54c0 27 19 52 56 52c32 0 63 -19 63 -70c0 -58 -47 -119 -99 -151z" />
    <glyph glyph-name="less" unicode="&#x3c;" horiz-adv-x="727" 
d="M195 326l462 -198l-17 -46l-570 244l570 244l17 -46z" />
    <glyph glyph-name="equal" unicode="=" horiz-adv-x="691" 
d="M70 216v42h551v-42h-551zM70 376v42h551v-42h-551z" />
    <glyph glyph-name="greater" unicode="&#x3e;" horiz-adv-x="727" 
d="M532 326l-462 198l17 46l570 -244l-570 -244l-17 46z" />
    <glyph glyph-name="question" unicode="?" horiz-adv-x="435" 
d="M110 158l-17 170l33 6c6 -8 21 -25 53 -25c53 0 90 42 90 128c0 112 -59 228 -88 228c-5 0 -13 -3 -16 -14c-1 -5 -6 -30 -40 -30c-32 0 -37 26 -37 42c0 10 7 45 64 45c77 0 140 -94 155 -116c39 -57 58 -135 58 -205c0 -93 -61 -151 -132 -151c-38 0 -63 14 -90 39h-7
l10 -117h-36zM70 46c0 30 24 54 54 54s54 -24 54 -54s-24 -54 -54 -54s-54 24 -54 54z" />
    <glyph glyph-name="at" unicode="@" horiz-adv-x="995" 
d="M742 531l-78 -257c-4 -13 -17 -55 -17 -79c0 -44 23 -59 45 -59c61 0 178 68 178 252c0 188 -145 333 -348 333c-266 0 -395 -214 -395 -399c0 -202 158 -388 397 -388c76 0 171 31 232 87l29 -49c-88 -65 -152 -91 -256 -91c-290 0 -463 213 -463 436
c0 256 186 451 456 451c242 0 407 -174 407 -380c0 -204 -141 -300 -247 -300c-41 0 -87 24 -110 74c-38 -29 -79 -50 -132 -50c-76 0 -151 58 -151 178c0 138 107 259 250 259c22 0 73 -5 111 -61l15 43h77zM564 204l64 225c-9 53 -47 90 -91 90c-57 0 -122 -63 -147 -178
c-8 -35 -10 -85 -10 -113c0 -38 24 -82 79 -82c57 0 93 41 105 58z" />
    <glyph glyph-name="A" unicode="A" horiz-adv-x="724" 
d="M379 708l270 -600c18 -41 39 -72 75 -74v-34h-196v34c33 5 36 16 36 39c0 4 -3 15 -9 29l-40 90h-348l-39 -85c-11 -24 -12 -32 -12 -35c0 -11 4 -31 39 -38v-34h-155v34c42 3 70 51 79 71l225 486c8 17 9 21 9 25c0 12 -11 15 -24 15v34c24 6 56 27 70 43h20zM497 231
l-148 329h-11l-153 -329h312z" />
    <glyph glyph-name="B" unicode="B" horiz-adv-x="640" 
d="M52 700h272c79 0 193 -6 234 -121c6 -17 10 -36 10 -54c0 -17 -3 -33 -8 -49c-23 -69 -84 -100 -127 -111v-6c2 0 5 -1 7 -1c157 -24 161 -153 161 -173c0 -154 -158 -185 -227 -185h-322v34c47 2 60 32 60 81v470c0 47 -12 79 -60 81v34zM198 375h113c43 0 124 4 151 94
c5 17 6 36 6 54c0 15 -3 30 -8 45c-29 87 -108 93 -162 93h-100v-286zM198 39h134c49 0 169 14 169 146c0 101 -72 151 -177 151h-126v-297z" />
    <glyph glyph-name="C" unicode="C" horiz-adv-x="686" 
d="M620 530h-34c-39 101 -131 139 -208 139c-113 0 -239 -102 -239 -324c0 -204 107 -314 258 -314c87 0 176 48 229 109l21 -23c-61 -69 -152 -125 -269 -125c-193 0 -339 133 -339 354c0 208 137 362 331 362c50 0 92 -8 140 -22c39 -11 57 -14 71 -14c12 0 21 9 24 12h15
v-154z" />
    <glyph glyph-name="D" unicode="D" horiz-adv-x="765" 
d="M52 700h293c137 0 245 -41 318 -145c34 -48 63 -117 63 -211c0 -43 -7 -146 -88 -238c-66 -75 -157 -106 -292 -106h-294v34c50 4 60 38 60 81v470c0 43 -10 77 -60 81v34zM198 39h126c103 0 302 37 302 308c0 292 -238 314 -302 314h-126v-622z" />
    <glyph glyph-name="E" unicode="E" horiz-adv-x="655" 
d="M52 700h394c96 0 53 11 125 8v-133h-34c-20 76 -82 86 -156 86h-183v-287h125c25 0 71 -3 82 56h33v-151h-33c-17 59 -38 56 -82 56h-125v-296h205c104 0 185 21 192 111h34l-11 -150h-566v34c45 5 60 37 60 81v470c0 46 -10 80 -60 81v34z" />
    <glyph glyph-name="F" unicode="F" horiz-adv-x="603" 
d="M58 700h413c58 0 65 5 125 8v-133h-34c-20 76 -82 86 -156 86h-202v-272h145c29 0 72 2 82 56h34v-151h-34c-10 51 -34 56 -76 56h-151v-235c0 -46 12 -75 59 -81v-34h-205v34c44 4 60 34 60 81v470c0 20 -1 76 -60 81v34z" />
    <glyph glyph-name="G" unicode="G" horiz-adv-x="719" 
d="M635 681v-154h-34c-56 142 -195 142 -222 142c-118 0 -240 -87 -240 -305c0 -214 100 -288 150 -311c42 -20 88 -22 127 -22c99 0 170 54 178 141c6 68 -34 82 -59 83v34h145v-243c-127 -43 -188 -54 -267 -54c-55 0 -188 3 -277 93c-75 76 -97 175 -97 281
c0 78 30 161 79 222c17 21 101 120 260 120c72 0 117 -13 152 -27c15 -6 34 -12 54 -12c5 0 9 2 13 5c2 2 4 4 6 7h32z" />
    <glyph glyph-name="H" unicode="H" horiz-adv-x="798" 
d="M256 700v-34c-44 -4 -59 -32 -59 -81v-209h403v209c0 51 -15 76 -59 81v34h205v-34c-55 -5 -60 -52 -60 -81v-470c0 -49 18 -77 60 -81v-34h-205v34c44 5 59 30 59 81v222h-403v-222c0 -44 11 -77 59 -81v-34h-204v34c48 4 59 37 59 81v470c0 44 -11 77 -59 81v34h204z
" />
    <glyph glyph-name="I" unicode="I" horiz-adv-x="308" 
d="M256 700v-34c-50 -3 -59 -46 -59 -81v-470c0 -48 16 -76 59 -81v-34h-204v34c43 5 59 33 59 81v470c0 44 -12 77 -59 81v34h204z" />
    <glyph glyph-name="J" unicode="J" horiz-adv-x="350" 
d="M93 700h205v-34c-54 -6 -59 -51 -59 -81v-490c0 -183 -102 -252 -178 -252c-56 0 -87 34 -87 65c0 27 18 48 42 48c17 0 41 -9 41 -36c0 -15 -2 -11 -2 -18c0 -8 6 -19 27 -19c60 0 71 93 71 174v528c0 29 -5 76 -60 81v34z" />
    <glyph glyph-name="K" unicode="K" horiz-adv-x="741" 
d="M52 700h205v-34c-44 -4 -59 -32 -59 -81v-214h6l271 221c8 7 33 28 33 49c0 19 -20 25 -31 25h-7v34h210v-34c-66 -16 -106 -47 -143 -77l-207 -169l294 -313c42 -44 75 -67 117 -73v-34h-257v34h8c21 0 36 10 36 30c0 17 -11 30 -23 43l-242 258l-65 -53v-197
c0 -42 12 -76 59 -81v-34h-205v34c44 5 60 32 60 81v470c0 47 -16 77 -60 81v34z" />
    <glyph glyph-name="L" unicode="L" horiz-adv-x="616" 
d="M256 700v-34c-42 -4 -59 -30 -59 -81v-546h214c87 0 133 66 145 126h34v-165h-538v34c47 4 59 37 59 81v470c0 51 -17 77 -59 81v34h204z" />
    <glyph glyph-name="M" unicode="M" horiz-adv-x="926" 
d="M233 700l224 -569h4l234 569h179v-34c-47 -5 -59 -37 -59 -81v-470c0 -57 28 -79 59 -81v-34h-204v34c28 2 59 19 59 81v547h-3l-277 -670h-33l-263 669h-3v-548c0 -61 32 -77 60 -79v-34h-158v34c51 5 59 43 59 79v493c0 42 -29 59 -59 60v34h181z" />
    <glyph glyph-name="N" unicode="N" horiz-adv-x="772" 
d="M52 0v34c42 -5 60 40 60 73v475c0 11 -1 83 -60 84v34h143l424 -537h3v424c0 32 -3 72 -59 79v34h157v-34c-51 -11 -59 -36 -59 -79v-587h-30l-476 604h-4v-497c0 -26 11 -73 59 -73v-34h-158z" />
    <glyph glyph-name="O" unicode="O" horiz-adv-x="788" 
d="M394 708c232 0 355 -191 355 -358s-123 -358 -355 -358s-355 191 -355 358s123 358 355 358zM394 669c-138 0 -255 -114 -255 -319s117 -319 255 -319s255 114 255 319s-117 319 -255 319z" />
    <glyph glyph-name="P" unicode="P" horiz-adv-x="654" 
d="M52 0v34c48 2 60 40 60 88v370c0 197 193 216 256 216c81 0 247 -52 247 -247c0 -115 -83 -245 -265 -245c-40 0 -99 8 -149 50h-3v-141c0 -57 10 -91 63 -91v-34h-209zM198 534v-202c45 -66 104 -77 150 -77c155 0 167 119 167 206c0 74 -6 208 -165 208
c-90 0 -152 -58 -152 -135z" />
    <glyph glyph-name="Q" unicode="Q" horiz-adv-x="788" 
d="M707 -37c-20 -85 -47 -142 -115 -142c-80 0 -126 76 -156 174c-14 -2 -28 -3 -42 -3c-233 0 -355 197 -355 358c0 167 123 358 355 358s355 -191 355 -358c0 -150 -93 -290 -230 -337c20 -45 54 -110 96 -110c11 0 42 6 59 66zM422 31c-15 41 -41 74 -87 74
c-24 0 -57 -16 -68 -40c32 -19 70 -32 127 -34h28zM239 87c28 43 78 64 122 64c46 0 100 -22 137 -98c128 60 151 207 151 295s-20 153 -47 199c-37 62 -109 122 -208 122s-171 -60 -208 -122c-27 -46 -47 -111 -47 -199c0 -161 65 -231 100 -261z" />
    <glyph glyph-name="R" unicode="R" horiz-adv-x="690" 
d="M52 700h264c105 0 209 -11 255 -102c12 -23 18 -49 18 -75c0 -105 -68 -162 -144 -181l144 -238c19 -31 40 -68 88 -70v-34h-127l-198 327h-155v-212c0 -42 10 -76 59 -81v-34h-204v34c46 5 59 33 59 81v470c0 44 -11 75 -59 81v34zM197 366h103c58 0 189 7 189 150
c0 140 -117 145 -189 145h-103v-295z" />
    <glyph glyph-name="S" unicode="S" horiz-adv-x="541" 
d="M471 517h-39c-26 71 -78 152 -172 152c-75 0 -126 -46 -126 -113c0 -84 84 -113 142 -130c29 -8 56 -14 101 -34c36 -16 132 -64 132 -187c0 -116 -96 -213 -210 -213c-29 0 -73 5 -104 15c-27 8 -49 18 -73 18c-34 0 -41 -19 -43 -25h-33v216h34
c28 -95 120 -185 227 -185c71 0 131 61 131 137c0 54 -28 103 -109 137c-43 18 -81 23 -121 38c-121 45 -142 130 -142 185c0 106 87 180 203 180c43 0 79 -10 123 -36c8 -5 19 -11 30 -11s16 6 24 14h25v-158z" />
    <glyph glyph-name="T" unicode="T" horiz-adv-x="680" 
d="M13 573v135l227 -8h200l227 8v-135h-34c-1 30 -21 88 -109 88h-141v-546c0 -44 10 -76 59 -81v-34h-205v34c48 6 60 36 60 81v546h-142c-73 0 -98 -39 -108 -88h-34z" />
    <glyph glyph-name="U" unicode="U" horiz-adv-x="799" 
d="M52 700h202v-34c-49 -5 -58 -38 -58 -81v-274c0 -97 14 -190 115 -240c36 -18 73 -22 112 -22c45 0 87 10 127 34c100 60 100 166 100 251v259c0 46 -17 70 -58 73v34h155v-34c-56 -4 -58 -51 -58 -73v-306c0 -142 -56 -295 -283 -295c-221 0 -296 118 -296 323v270
c0 50 -13 77 -58 81v34z" />
    <glyph glyph-name="V" unicode="V" horiz-adv-x="754" 
d="M0 700h216v-34c-16 0 -51 -4 -51 -38c0 -12 14 -43 17 -50l215 -461h6l219 458c4 9 15 33 15 48c0 33 -31 44 -56 43v34h173v-34c-49 -7 -69 -47 -89 -89l-284 -585h-25l-283 617c-14 31 -39 54 -73 57v34z" />
    <glyph glyph-name="W" unicode="W" horiz-adv-x="996" 
d="M996 700v-34c-16 -1 -45 -8 -80 -88l-255 -586h-27l-130 319h-3l-135 -319h-31l-248 603c-15 37 -35 70 -87 71v34h222v-34c-22 0 -48 -11 -48 -40c0 -11 5 -25 14 -47l189 -450h3l101 238l-100 240c-14 32 -33 55 -70 59v34h386v-34c-36 -6 -60 -34 -83 -88l-64 -152
l128 -299h2l185 438c7 17 16 41 16 56c0 34 -28 47 -52 45v34h167zM531 486l50 118c4 9 9 22 9 34c0 15 -8 28 -40 28h-22c-36 0 -61 -2 -61 -32c0 -15 8 -26 13 -39l46 -109h5z" />
    <glyph glyph-name="X" unicode="X" horiz-adv-x="790" 
d="M753 700v-34c-50 -3 -78 -24 -116 -66l-197 -219l201 -259c57 -73 113 -85 136 -88v-34h-243v34h10c15 0 23 11 23 22c0 7 -3 20 -20 42l-170 218l-197 -223c-14 -16 -17 -28 -17 -35c0 -17 15 -24 31 -24h7v-34h-188v34c39 3 79 27 108 59l231 256l-170 218
c-31 40 -80 99 -127 99h-13v34h235v-34c-13 0 -27 -6 -27 -16c0 -16 4 -31 10 -38l155 -200l166 191c7 8 20 26 20 37c0 12 -11 26 -32 26v34h184z" />
    <glyph glyph-name="Y" unicode="Y" horiz-adv-x="677" 
d="M0 700h230v-34c-20 -3 -36 -10 -36 -30c0 -12 6 -23 12 -31l169 -229h6l142 220c15 23 21 34 21 44c0 15 -17 26 -38 26v34h171v-34c-56 1 -90 -40 -119 -86l-166 -260v-205c0 -43 13 -76 59 -81v-34h-204v34c44 5 59 33 59 81v210l-189 258c-53 72 -97 81 -117 83v34z
" />
    <glyph glyph-name="Z" unicode="Z" horiz-adv-x="743" 
d="M89 572v128h572v-31l-493 -630h370c46 0 105 8 119 87h34v-126h-639v37l492 624h-290c-75 0 -119 -24 -131 -89h-34z" />
    <glyph glyph-name="bracketleft" unicode="[" horiz-adv-x="354" 
d="M284 700v-37h-128v-810h128v-37h-214v884h214z" />
    <glyph glyph-name="backslash" unicode="\" horiz-adv-x="546" 
d="M419 -184l-349 884h59l347 -884h-57z" />
    <glyph glyph-name="bracketright" unicode="]" horiz-adv-x="354" 
d="M70 700h214v-884h-214v37h128v810h-128v37z" />
    <glyph glyph-name="asciicircum" unicode="^" horiz-adv-x="528" 
d="M264 621l-116 -116h-78l194 195l194 -195h-78z" />
    <glyph glyph-name="underscore" unicode="_" horiz-adv-x="543" 
d="M0 -233v49h543v-49h-543z" />
    <glyph glyph-name="quoteleft" unicode="&#x2018;" horiz-adv-x="259" 
d="M169 708l20 -21c-50 -42 -63 -71 -67 -91l2 -3c6 1 11 1 17 0c32 -3 48 -25 48 -54c0 -27 -19 -52 -56 -52c-32 0 -63 19 -63 70c0 58 47 119 99 151z" />
    <glyph glyph-name="a" unicode="a" horiz-adv-x="399" 
d="M385 39l7 -11c-16 -24 -37 -36 -64 -36c-38 0 -58 30 -65 55h-2c-26 -28 -65 -55 -118 -55c-77 0 -117 47 -117 106c0 103 101 133 227 141c0 71 -9 123 -74 123c-17 0 -39 -6 -49 -33c-7 -18 -6 -42 -38 -42c-10 0 -32 5 -32 30c0 31 44 76 128 76
c134 0 138 -103 138 -171v-126c0 -15 0 -62 41 -62c6 0 12 2 18 5zM253 171v35c-122 -6 -149 -65 -149 -106c0 -44 33 -66 70 -66c73 0 79 73 79 137z" />
    <glyph glyph-name="b" unicode="b" horiz-adv-x="499" 
d="M151 700v-345c31 23 68 38 124 38c112 0 188 -78 188 -192c0 -119 -80 -210 -188 -210c-6 0 -12 0 -18 1c-43 4 -86 22 -120 44l-46 -43h-13v627c0 24 -14 48 -44 51v29h117zM151 320v-172c0 -90 46 -123 99 -123c93 0 129 64 129 176c0 57 -8 161 -124 161
c-33 0 -73 -10 -104 -42z" />
    <glyph glyph-name="c" unicode="c" horiz-adv-x="392" 
d="M355 89l17 -18c-34 -39 -87 -79 -160 -79c-95 0 -186 66 -186 193c0 118 80 208 191 208c84 0 125 -39 125 -74c0 -17 -13 -35 -37 -35c-10 0 -38 2 -40 39v2c-1 14 -3 37 -46 37c-53 0 -109 -44 -109 -177c0 -130 89 -147 124 -147c38 0 94 21 121 51z" />
    <glyph glyph-name="d" unicode="d" horiz-adv-x="484" 
d="M414 708v-627c0 -29 17 -50 44 -52v-29h-117v33h-6c-43 -34 -80 -41 -112 -41c-89 0 -197 51 -197 195c0 140 92 206 181 206c38 0 84 -7 125 -34h9v266c0 35 -23 49 -39 54v29h112zM341 101v203c-19 44 -66 58 -99 58c-54 0 -132 -30 -132 -170c0 -112 48 -169 117 -169
c51 0 104 35 114 78z" />
    <glyph glyph-name="e" unicode="e" horiz-adv-x="386" 
d="M360 77c-35 -44 -91 -85 -155 -85c-65 0 -179 33 -179 187c0 128 74 214 176 214c103 0 148 -88 148 -163v-7h-239c-1 -14 -1 -28 -1 -42c0 -57 13 -148 108 -148c51 0 97 33 124 61zM271 254v9c0 72 -36 99 -74 99c-41 0 -82 -28 -84 -108h158z" />
    <glyph glyph-name="f" unicode="f" horiz-adv-x="252" 
d="M27 385h48v101c0 147 84 214 142 214c34 0 55 -20 55 -42c0 -17 -10 -34 -32 -34c-17 0 -26 9 -33 17c-6 6 -12 10 -23 10c-29 0 -36 -31 -36 -65v-201h107v-31h-107v-252c0 -40 9 -77 51 -73v-29h-173v29c45 7 49 32 49 73v252h-48v31z" />
    <glyph glyph-name="g" unicode="g" horiz-adv-x="435" 
d="M41 -8l-15 34l78 128c-31 17 -62 49 -62 104c0 84 68 135 154 135c41 0 93 -13 126 -44c5 15 18 42 51 42c32 0 49 -21 49 -47c0 -22 -13 -34 -31 -34c-13 0 -24 8 -24 23c0 3 1 7 2 10c2 5 6 8 6 13c0 3 -1 8 -9 8c-11 0 -21 -11 -23 -25c-1 -2 -1 -4 -1 -6s0 -4 1 -6
c2 -12 14 -27 14 -66c0 -92 -82 -132 -155 -132c-16 0 -40 2 -66 11l-46 -73l3 -4c25 8 32 12 48 18c25 9 56 15 85 15c78 0 175 -42 175 -135c0 -74 -72 -127 -175 -127c-89 0 -163 37 -163 96c0 26 17 46 44 46c30 0 38 -20 38 -34c0 -6 -2 -12 -5 -17
c-5 -9 -14 -17 -14 -26c0 -13 21 -34 87 -34c129 0 137 65 137 84c0 60 -60 77 -135 77c-31 0 -96 -5 -174 -34zM200 362c-60 0 -74 -41 -74 -101c0 -91 41 -101 74 -101c32 0 73 9 73 102c0 58 -15 100 -73 100z" />
    <glyph glyph-name="h" unicode="h" horiz-adv-x="451" 
d="M27 700h117v-358h7c31 28 75 51 125 51c76 0 105 -45 105 -126v-167c0 -25 -2 -66 44 -71v-29h-161v29c44 6 44 38 44 71v170c0 46 -10 81 -60 81c-42 0 -84 -31 -104 -72v-178c0 -37 5 -69 45 -72v-29h-163v29c40 5 45 33 45 72v518c0 46 -37 51 -44 52v29z" />
    <glyph glyph-name="i" unicode="i" horiz-adv-x="214" 
d="M26 385h117v-284c0 -37 5 -69 45 -72v-29h-162v29c37 4 44 29 44 72v182c0 41 -2 64 -44 73v29zM47 565c0 21 18 48 49 48c27 0 48 -21 48 -48c0 -31 -27 -49 -48 -49c-26 0 -49 23 -49 49z" />
    <glyph glyph-name="j" unicode="j" horiz-adv-x="210" 
d="M11 385h144v-361c0 -55 -5 -106 -29 -147c-29 -50 -76 -61 -105 -61c-38 0 -60 22 -60 45c0 22 17 31 34 31c13 0 22 -7 29 -15c9 -10 15 -20 34 -20c8 0 24 3 24 30v396c0 48 -13 73 -55 73h-16v29zM58 584c0 26 23 49 49 49c21 0 48 -18 48 -49c0 -27 -21 -48 -48 -48
c-31 0 -49 27 -49 48z" />
    <glyph glyph-name="k" unicode="k" horiz-adv-x="423" 
d="M143 700v-472l97 83c18 15 23 22 23 28c0 9 -11 17 -28 17v29h155v-29c-44 -4 -75 -28 -103 -52l-57 -49l133 -171c29 -38 44 -54 67 -55v-29h-181v29c22 -2 37 7 37 20c0 9 -6 17 -11 23l-102 131l-30 -26v-76c0 -43 7 -68 44 -72v-29h-161v29c37 4 44 29 44 72v498
c0 43 -7 68 -44 72v29h117z" />
    <glyph glyph-name="l" unicode="l" horiz-adv-x="215" 
d="M27 700h117v-599c0 -37 5 -69 45 -72v-29h-163v29c40 5 45 33 45 72v498c0 47 -4 66 -44 72v29z" />
    <glyph glyph-name="m" unicode="m" horiz-adv-x="689" 
d="M26 29c40 5 45 33 45 72v203c0 21 -6 43 -44 52v29h117v-49h3c41 43 92 57 131 57c34 0 77 -14 94 -57h2c54 52 103 57 133 57c109 0 111 -77 111 -123v-169c0 -37 5 -69 45 -72v-29h-163v29c40 5 45 33 45 72v169c0 53 -16 81 -59 81c-27 0 -72 -9 -105 -66v-184
c0 -37 5 -69 45 -72v-29h-163v29c40 5 45 33 45 72v169c0 30 -1 81 -59 81c-14 0 -65 -6 -105 -67v-183c0 -43 9 -68 45 -72v-29h-163v29z" />
    <glyph glyph-name="n" unicode="n" horiz-adv-x="452" 
d="M26 29c40 5 45 33 45 72v203c0 21 -6 43 -44 52v29h117v-49h3c40 42 89 57 127 57h4c104 -2 103 -79 103 -126v-166c0 -37 5 -69 45 -72v-29h-163v29c40 5 45 33 45 72v169c0 30 -1 81 -59 81c-14 0 -65 -6 -105 -67v-183c0 -43 9 -68 45 -72v-29h-163v29z" />
    <glyph glyph-name="o" unicode="o" 
d="M216 393c37 0 149 -11 183 -147c5 -19 7 -39 7 -59c0 -17 -3 -33 -7 -49c-35 -138 -156 -146 -183 -146s-148 8 -183 146c-4 16 -7 32 -7 49c0 20 2 40 7 59c34 136 146 147 183 147zM216 362c-56 0 -106 -25 -106 -170c0 -48 -2 -169 106 -169s106 121 106 169
c0 145 -50 170 -106 170z" />
    <glyph glyph-name="p" unicode="p" horiz-adv-x="455" 
d="M13 -184v29c37 3 44 32 44 72v312c0 121 103 164 181 164c85 0 191 -57 191 -200c0 -48 -17 -113 -65 -157c-31 -28 -80 -44 -120 -44c-25 0 -77 5 -111 41h-3v-115c0 -43 8 -73 51 -73v-29h-168zM130 252v-116c0 -22 5 -113 107 -113c62 0 108 35 108 169
c0 85 -17 170 -107 170c-84 0 -108 -78 -108 -110z" />
    <glyph glyph-name="q" unicode="q" horiz-adv-x="490" 
d="M295 -184v29c44 8 51 34 51 72v126h-4c-46 -46 -98 -51 -121 -51c-139 0 -195 105 -195 195c0 69 39 206 209 206c31 0 71 -4 117 -33h5l39 33h23v-475c0 -45 8 -72 45 -73v-29h-169zM346 101v203c-30 47 -76 58 -104 58c-54 0 -132 -30 -132 -170
c0 -112 48 -169 117 -169c50 0 100 33 119 78z" />
    <glyph glyph-name="r" unicode="r" horiz-adv-x="295" 
d="M27 385h117v-62h4c26 40 54 70 98 70c36 0 49 -22 49 -44c0 -19 -14 -36 -35 -36c-19 0 -29 10 -32 14c-5 7 -10 13 -21 13c-29 0 -63 -53 -63 -130v-109c0 -36 4 -69 45 -72v-29h-163v29c41 5 45 34 45 72v203c0 32 -15 46 -44 52v29z" />
    <glyph glyph-name="s" unicode="s" horiz-adv-x="341" 
d="M166 393c82 0 123 -39 123 -75c0 -22 -16 -30 -31 -30c-32 0 -38 32 -40 42c0 5 -5 32 -50 32c-41 0 -75 -20 -75 -60c0 -44 32 -55 84 -69c48 -13 138 -34 138 -120c0 -71 -65 -121 -150 -121c-100 0 -139 53 -139 89c0 21 13 42 40 42c28 0 38 -18 38 -32
c0 -10 -4 -19 -4 -29c0 -14 16 -39 64 -39c56 0 81 33 81 66c0 41 -40 55 -63 63c-42 14 -70 19 -99 40c-38 27 -44 58 -44 84c0 72 54 117 127 117z" />
    <glyph glyph-name="t" unicode="t" horiz-adv-x="270" 
d="M20 385h44v87l73 40v-127h83v-31h-83v-257c0 -24 5 -56 48 -56c19 0 38 8 55 21l17 -20c-20 -22 -54 -50 -105 -50c-52 0 -88 22 -88 102v260h-44v31z" />
    <glyph glyph-name="u" unicode="u" horiz-adv-x="450" 
d="M379 385v-283c0 -41 3 -64 45 -73v-29h-118v49h-3c-44 -46 -96 -57 -125 -57c-99 0 -108 73 -108 111v200c0 32 -12 53 -44 53v29h117v-270c0 -29 1 -81 59 -81c13 0 64 6 104 67v203c0 20 -5 48 -44 52v29h117z" />
    <glyph glyph-name="v" unicode="v" horiz-adv-x="413" 
d="M406 385v-29c-36 -4 -50 -20 -63 -51l-127 -313h-19l-130 301c-8 18 -19 53 -67 63v29h167v-29c-25 -1 -33 -15 -33 -25c0 -7 3 -14 8 -26l81 -184h4l72 184c2 6 7 21 7 28c0 18 -20 22 -37 23v29h137z" />
    <glyph glyph-name="w" unicode="w" horiz-adv-x="584" 
d="M577 385v-29c-25 -1 -36 -18 -48 -45l-140 -319h-29l-69 164h-4l-77 -164h-26l-136 330c-11 25 -23 36 -48 34v29h139v-29c-7 1 -22 0 -22 -13c0 -6 2 -14 4 -18l96 -237h4l51 109l-53 124c-9 21 -16 35 -38 35v29h227v-29c-30 -2 -40 -27 -50 -49l-34 -73l63 -150h3
l98 224c2 4 9 20 9 29c0 10 -10 21 -31 19v29h111zM309 275l28 60c5 11 8 16 8 21c0 6 -4 7 -10 7h-12h-31c-11 0 -18 0 -18 -9c0 -4 3 -9 7 -19l26 -60h2z" />
    <glyph glyph-name="x" unicode="x" horiz-adv-x="416" 
d="M392 385v-29c-34 0 -54 -23 -82 -59l-59 -78l97 -135c26 -36 41 -56 68 -55v-29h-175v29h9c18 0 27 14 27 24c0 11 -13 29 -15 31l-57 74h-1l-52 -68c-18 -23 -20 -33 -20 -39c0 -20 19 -23 40 -22v-29h-152v29h11c28 0 56 29 88 72l65 87l-72 99c-38 52 -54 67 -82 69
v29h170v-29c-19 -1 -32 -3 -32 -13c0 -3 1 -11 27 -47l35 -48l40 57c8 11 18 23 18 35c0 9 -8 17 -25 16v29h129z" />
    <glyph glyph-name="y" unicode="y" horiz-adv-x="429" 
d="M429 385v-29c-41 -9 -50 -39 -60 -60l-157 -348c-36 -79 -66 -132 -135 -132c-35 0 -69 16 -69 53c0 30 20 43 37 43c14 0 24 -6 31 -11c9 -7 16 -14 33 -14c26 0 43 21 55 48l30 66l-118 294c-15 39 -36 64 -71 61v29h184v-29h-10c-19 0 -29 -10 -29 -25
c0 -8 6 -25 9 -32l77 -193h4l80 177c3 8 13 28 13 42c0 13 -9 33 -39 31v29h135z" />
    <glyph glyph-name="z" unicode="z" horiz-adv-x="385" 
d="M45 303v82h307v-19l-227 -331v-4h121c39 0 84 3 97 57h29v-88h-346v27l222 327h-91c-26 0 -77 -2 -83 -51h-29z" />
    <glyph glyph-name="braceleft" unicode="{" horiz-adv-x="347" 
d="M99 288c98 -48 111 -122 114 -173c1 -17 1 -35 0 -52c-2 -38 -4 -65 -4 -92c0 -61 41 -84 72 -89l-5 -32c-135 26 -139 114 -139 187c0 23 2 45 2 68c0 54 -3 150 -87 164v38c84 14 87 110 87 164c0 23 -2 45 -2 68c0 73 4 161 139 187l5 -32c-31 -5 -72 -28 -72 -89
c0 -27 2 -54 4 -92c1 -17 1 -35 0 -52c-3 -51 -16 -125 -114 -173z" />
    <glyph glyph-name="bar" unicode="|" horiz-adv-x="190" 
d="M70 -224v1053h50v-1053h-50z" />
    <glyph glyph-name="braceright" unicode="}" horiz-adv-x="347" 
d="M71 -150l-5 32c31 5 72 28 72 89c0 27 -2 54 -4 92c-1 17 -1 35 0 52c3 51 16 125 114 173c-98 48 -111 122 -114 173c-1 17 -1 35 0 52c2 38 4 65 4 92c0 61 -41 84 -72 89l5 32c135 -26 139 -114 139 -187c0 -23 -2 -45 -2 -68c0 -54 3 -150 87 -164v-38
c-84 -14 -87 -110 -87 -164c0 -23 2 -45 2 -68c0 -73 -4 -161 -139 -187z" />
    <glyph glyph-name="asciitilde" unicode="~" horiz-adv-x="725" 
d="M70 253c19 44 76 144 194 144c32 0 79 -8 160 -43c19 -8 53 -21 87 -21c39 0 78 16 98 76h46c-24 -97 -104 -156 -192 -156c-39 0 -78 13 -116 28c-44 17 -87 40 -130 40c-51 0 -78 -25 -102 -68h-45z" />
    <glyph glyph-name="exclamdown" unicode="&#xa1;" horiz-adv-x="255" 
d="M104 367h40l41 -551h-113zM70 465c0 30 24 54 54 54s54 -24 54 -54s-24 -54 -54 -54s-54 24 -54 54z" />
    <glyph glyph-name="cent" unicode="&#xa2;" horiz-adv-x="392" 
d="M355 89l17 -18c-51 -59 -106 -77 -150 -79v-60h-32v61c-97 10 -164 88 -164 192c0 115 77 197 164 206v66h32v-64c72 3 120 -36 120 -74c0 -17 -13 -35 -37 -35c-21 0 -38 11 -39 39c-1 13 -2 39 -44 39v-323c5 -1 9 -1 14 -1c37 0 91 19 119 51zM190 47v311
c-57 -16 -81 -96 -81 -173c0 -70 24 -118 81 -138z" />
    <glyph glyph-name="sterling" unicode="&#xa3;" horiz-adv-x="666" 
d="M477 393v-39h-159c7 -28 13 -68 13 -97c0 -33 -9 -85 -18 -123c125 -91 163 -92 172 -92c21 0 24 18 24 30c0 21 -14 26 -14 47c0 23 16 50 49 50c25 0 52 -21 52 -64c0 -63 -53 -113 -133 -113c-61 0 -121 31 -174 72c-32 -46 -66 -72 -120 -72c-80 0 -99 53 -99 84
c0 48 43 90 118 90c24 0 47 -5 70 -13c-3 77 -21 131 -43 201h-137v39h124c-13 51 -14 80 -14 113c0 117 77 202 189 202c80 0 146 -42 146 -107c0 -43 -27 -64 -52 -64c-22 0 -49 15 -49 50c0 10 3 20 8 30c3 6 7 11 7 17c0 16 -26 35 -55 35c-68 0 -110 -62 -110 -135
c0 -50 16 -104 30 -141h175zM119 76c0 -15 9 -39 50 -39c29 0 65 19 84 52c-22 17 -59 36 -84 36c-33 0 -50 -23 -50 -49z" />
    <glyph glyph-name="fraction" unicode="&#x2044;" horiz-adv-x="226" 
d="M-33 -184h-57l347 884h59z" />
    <glyph glyph-name="yen" unicode="&#xa5;" horiz-adv-x="677" 
d="M392 320v-17h176v-39h-176v-149c0 -43 13 -76 59 -81v-34h-204v34c44 5 59 33 59 81v149h-176v39h176v22l-35 48h-141v39h112l-125 171c-52 72 -97 81 -117 83v34h230v-34c-20 -3 -36 -10 -36 -30c0 -12 6 -23 12 -31l169 -229h6l142 220c15 23 21 34 21 44
c0 15 -17 26 -38 26v34h171v-34c-56 1 -90 -40 -119 -86l-107 -168h117v-39h-142z" />
    <glyph glyph-name="florin" unicode="&#x192;" horiz-adv-x="335" 
d="M318 385l-7 -31h-77l-40 -188c-45 -210 -78 -284 -158 -284c-39 0 -51 27 -51 47c0 25 15 42 35 42c19 0 33 -14 33 -35c0 -2 0 -5 -1 -7c0 -1 -1 -3 -1 -4c0 -3 3 -8 10 -8c38 0 39 98 45 144c10 76 20 107 35 181l22 112h-88l6 31c81 4 101 22 125 101
c21 71 34 204 127 204c32 0 52 -20 52 -40c0 -24 -10 -49 -35 -49c-20 0 -33 16 -33 32c0 3 1 7 1 10v4c0 4 -1 8 -9 8c-24 0 -30 -42 -34 -70c-7 -49 -2 -44 -33 -200h76z" />
    <glyph glyph-name="section" unicode="&#xa7;" horiz-adv-x="558" 
d="M176 456c-44 51 -47 102 -47 114c0 78 57 138 156 138c94 0 159 -57 159 -122c0 -29 -16 -56 -48 -56c-30 0 -49 19 -49 45c0 8 2 16 4 24c2 7 4 15 4 22c0 24 -34 48 -77 48c-46 0 -85 -29 -85 -67c0 -41 31 -76 69 -106l109 -88c60 -48 117 -99 117 -174
c0 -78 -64 -131 -109 -157c21 -22 46 -58 46 -111c0 -80 -67 -150 -159 -150c-83 0 -157 45 -157 120c0 37 18 70 54 70c23 0 53 -14 53 -49c0 -8 -2 -18 -6 -29c-3 -9 -8 -17 -8 -26c0 -25 26 -47 71 -47c31 0 88 19 88 81c0 51 -40 81 -85 119l-130 110
c-37 31 -76 70 -76 141c0 66 34 109 106 150zM340 317l-136 113c-38 -21 -70 -48 -70 -86c0 -50 39 -83 73 -112l148 -127c43 27 69 56 69 95c0 46 -41 81 -84 117z" />
    <glyph glyph-name="currency" unicode="&#xa4;" horiz-adv-x="733" 
d="M625 620l38 -38l-95 -93c44 -54 60 -116 60 -166s-16 -112 -60 -166l95 -93l-38 -38l-93 95c-54 -44 -116 -60 -166 -60s-112 16 -166 60l-93 -95l-37 38l94 93c-44 54 -60 116 -60 166s16 112 60 166l-94 93l37 38l93 -95c54 44 116 60 166 60s112 -16 166 -60zM157 323
c0 -119 93 -215 209 -215s209 96 209 215s-93 215 -209 215s-209 -96 -209 -215z" />
    <glyph glyph-name="quotesingle" unicode="'" horiz-adv-x="222" 
d="M156 700l-27 -204h-36l-27 204h90z" />
    <glyph glyph-name="quotedblleft" unicode="&#x201c;" horiz-adv-x="418" 
d="M328 708l20 -21c-50 -42 -63 -71 -67 -91l2 -3c32 3 68 -13 65 -54c-2 -27 -19 -52 -56 -52c-32 0 -63 19 -63 70c0 58 47 119 99 151zM169 708l20 -21c-50 -42 -63 -71 -67 -91l2 -3c6 1 11 1 17 0c32 -3 50 -25 48 -54c-2 -27 -19 -52 -56 -52c-32 0 -63 19 -63 70
c0 58 47 119 99 151z" />
    <glyph glyph-name="guillemotleft" unicode="&#xab;" horiz-adv-x="481" 
d="M133 183l114 -144l-25 -20l-152 164l152 164l25 -20zM297 183l114 -144l-25 -20l-152 164l152 164l25 -20z" />
    <glyph glyph-name="guilsinglleft" unicode="&#x2039;" horiz-adv-x="323" 
d="M145 203l108 -144l-25 -20l-158 164l158 164l25 -20z" />
    <glyph glyph-name="guilsinglright" unicode="&#x203a;" horiz-adv-x="323" 
d="M178 203l-108 144l25 20l158 -164l-158 -164l-25 20z" />
    <glyph glyph-name="endash" unicode="&#x2013;" horiz-adv-x="757" 
d="M70 160v50h617v-50h-617z" />
    <glyph glyph-name="dagger" unicode="&#x2020;" horiz-adv-x="556" 
d="M292 -199h-28v164c0 53 -9 227 -48 351c29 36 45 72 48 121c-7 2 -12 7 -15 14c-46 -1 -99 -19 -127 -46c-31 6 -52 30 -52 63c0 49 40 57 52 59c26 -27 60 -43 127 -48c2 9 8 14 15 17c3 54 -4 125 -48 159v5c0 28 33 47 62 47s62 -19 62 -47v-5
c-44 -34 -51 -105 -48 -159c7 -3 13 -8 15 -17c67 5 101 21 127 48c12 -2 52 -10 52 -59c0 -33 -21 -57 -52 -63c-28 27 -81 45 -127 46c-3 -7 -8 -12 -15 -14c3 -49 19 -85 48 -121c-39 -124 -48 -298 -48 -351v-164z" />
    <glyph glyph-name="daggerdbl" unicode="&#x2021;" horiz-adv-x="556" 
d="M340 254c-45 -60 -51 -101 -48 -183c7 -2 12 -7 15 -14c46 1 99 19 127 46c31 -6 52 -30 52 -63c0 -49 -40 -57 -52 -59c-26 27 -60 43 -127 48c-2 -9 -8 -14 -15 -17c-3 -54 4 -125 48 -159c4 -30 -31 -52 -62 -52s-66 22 -62 52c44 34 51 105 48 159c-7 3 -13 8 -15 17
c-67 -5 -101 -21 -127 -48c-12 2 -52 10 -52 59c0 33 21 57 52 63c28 -27 81 -45 127 -46c3 7 8 12 15 14c3 82 -3 123 -48 183c46 61 47 102 48 148v35c-7 2 -12 7 -15 14c-46 -1 -99 -19 -127 -46c-31 6 -52 30 -52 63c0 49 40 57 52 59c26 -27 60 -43 127 -48
c2 9 8 14 15 17c3 54 -4 125 -48 159v5c0 28 33 47 62 47s62 -19 62 -47v-5c-44 -34 -51 -105 -48 -159c7 -3 13 -8 15 -17c67 5 101 21 127 48c12 -2 52 -10 52 -59c0 -33 -21 -57 -52 -63c-28 27 -81 45 -127 46c-3 -7 -8 -12 -15 -14v-35c1 -46 2 -87 48 -148z" />
    <glyph glyph-name="periodcentered" unicode="&#xb7;" horiz-adv-x="248" 
d="M70 325c0 30 24 54 54 54s54 -24 54 -54s-24 -54 -54 -54s-54 24 -54 54z" />
    <glyph glyph-name="periodcentered" unicode="&#x22c5;" horiz-adv-x="248" 
d="M70 325c0 30 24 54 54 54s54 -24 54 -54s-24 -54 -54 -54s-54 24 -54 54z" />
    <glyph glyph-name="periodcentered" unicode="&#x2219;" horiz-adv-x="248" 
d="M70 325c0 30 24 54 54 54s54 -24 54 -54s-24 -54 -54 -54s-54 24 -54 54z" />
    <glyph glyph-name="paragraph" unicode="&#xb6;" horiz-adv-x="605" 
d="M244 -197v626c-61 -2 -174 14 -174 134c0 105 79 132 159 132h306v-39h-55v-853h-60v853h-116v-853h-60z" />
    <glyph glyph-name="bullet" unicode="&#x2022;" horiz-adv-x="310" 
d="M70 324c0 48 37 85 85 85c47 0 85 -36 85 -85c0 -47 -38 -85 -85 -85c-49 0 -85 38 -85 85z" />
    <glyph glyph-name="quotesinglbase" unicode="&#x201a;" horiz-adv-x="259" 
d="M90 -123l-20 21c50 42 63 71 67 91l-2 3c-6 -1 -11 -1 -17 0c-32 3 -50 25 -48 54c2 27 19 52 56 52c32 0 63 -19 63 -70c0 -58 -47 -119 -99 -151z" />
    <glyph glyph-name="quotedblbase" unicode="&#x201e;" horiz-adv-x="428" 
d="M90 -123l-20 21c50 42 63 71 67 91l-2 3c-32 -3 -68 13 -65 54c2 27 19 52 56 52c32 0 63 -19 63 -70c0 -58 -47 -119 -99 -151zM259 -123l-20 21c50 42 63 71 67 91l-2 3c-6 -1 -11 -1 -17 0c-32 3 -50 25 -48 54c2 27 19 52 56 52c32 0 63 -19 63 -70
c0 -58 -47 -119 -99 -151z" />
    <glyph glyph-name="quotedblright" unicode="&#x201d;" horiz-adv-x="418" 
d="M90 487l-20 21c50 42 63 71 67 91l-2 3c-32 -3 -68 13 -65 54c2 27 19 52 56 52c32 0 63 -19 63 -70c0 -58 -47 -119 -99 -151zM249 487l-20 21c50 42 63 71 67 91l-2 3c-6 -1 -11 -1 -17 0c-32 3 -50 25 -48 54c2 27 19 52 56 52c32 0 63 -19 63 -70
c0 -58 -47 -119 -99 -151z" />
    <glyph glyph-name="guillemotright" unicode="&#xbb;" horiz-adv-x="481" 
d="M184 183l-114 144l25 20l152 -164l-152 -164l-25 20zM348 183l-114 144l25 20l152 -164l-152 -164l-25 20z" />
    <glyph glyph-name="ellipsis" unicode="&#x2026;" horiz-adv-x="994" 
d="M98 68c0 38 30 68 68 68s68 -30 68 -68s-30 -68 -68 -68s-68 30 -68 68zM429 68c0 38 30 68 68 68s68 -30 68 -68s-30 -68 -68 -68s-68 30 -68 68zM760 68c0 38 30 68 68 68s68 -30 68 -68s-30 -68 -68 -68s-68 30 -68 68z" />
    <glyph glyph-name="perthousand" unicode="&#x2030;" horiz-adv-x="1340" 
d="M230 795c136 0 160 -141 160 -201c0 -159 -100 -201 -160 -201s-160 42 -160 201c0 60 24 201 160 201zM230 752c-29 0 -76 -8 -76 -115v-88c0 -98 42 -113 76 -113s76 15 76 113v88c0 107 -47 115 -76 115zM282 18l328 778l38 -16l-328 -780zM718 402
c136 0 160 -141 160 -201c0 -159 -100 -201 -160 -201s-160 42 -160 201c0 60 24 201 160 201zM718 359c-29 0 -76 -8 -76 -115v-88c0 -98 42 -113 76 -113s76 15 76 113v88c0 107 -47 115 -76 115zM1110 402c136 0 160 -141 160 -201c0 -159 -100 -201 -160 -201
s-160 42 -160 201c0 60 24 201 160 201zM1110 359c-29 0 -76 -8 -76 -115v-88c0 -98 42 -113 76 -113s76 15 76 113v88c0 107 -47 115 -76 115z" />
    <glyph glyph-name="questiondown" unicode="&#xbf;" horiz-adv-x="435" 
d="M325 366l17 -170l-33 -6c-6 8 -21 25 -53 25c-53 0 -90 -42 -90 -128c0 -112 59 -228 88 -228c5 0 13 3 16 14c1 5 6 30 40 30c32 0 37 -26 37 -42c0 -10 -7 -45 -64 -45c-77 0 -140 94 -155 116c-39 57 -58 135 -58 205c0 93 61 151 132 151c38 0 63 -14 90 -39h7
l-10 117h36zM257 478c0 30 24 54 54 54s54 -24 54 -54s-24 -54 -54 -54s-54 24 -54 54z" />
    <glyph glyph-name="grave" unicode="`" horiz-adv-x="314" 
d="M248 519l-13 -16l-122 76c-18 11 -25 16 -31 21c-9 8 -16 17 -16 32c0 22 15 37 37 37c15 0 29 -7 40 -20z" />
    <glyph glyph-name="acute" unicode="&#xb4;" horiz-adv-x="314" 
d="M66 519l105 130c11 13 25 20 40 20c22 0 37 -15 37 -37c0 -15 -7 -24 -16 -32c-6 -5 -13 -10 -31 -21l-122 -76z" />
    <glyph glyph-name="circumflex" unicode="&#x2c6;" horiz-adv-x="410" 
d="M205 594l-104 -91h-31l110 152h50l110 -152h-31z" />
    <glyph glyph-name="tilde" unicode="&#x2dc;" horiz-adv-x="453" 
d="M356 596h27c-14 -45 -46 -93 -105 -93c-23 0 -46 6 -70 13l-8 3c-18 5 -34 10 -50 10c-19 0 -37 -6 -55 -26h-25c28 69 70 87 102 87c41 0 102 -27 133 -27c18 0 43 10 51 33z" />
    <glyph glyph-name="macron" unicode="&#xaf;" horiz-adv-x="418" 
d="M70 556h278v-53h-278v53z" />
    <glyph glyph-name="macron" unicode="&#x2c9;" horiz-adv-x="418" 
d="M70 556h278v-53h-278v53z" />
    <glyph glyph-name="breve" unicode="&#x2d8;" horiz-adv-x="408" 
d="M70 636h33c3 -44 51 -82 101 -82c48 0 95 33 101 82h33c-3 -54 -34 -133 -131 -133c-105 0 -133 84 -137 133z" />
    <glyph glyph-name="dotaccent" unicode="&#x2d9;" horiz-adv-x="496" 
d="M200 551c0 27 21 48 48 48s48 -21 48 -48s-21 -48 -48 -48s-48 21 -48 48z" />
    <glyph glyph-name="dieresis" unicode="&#xa8;" horiz-adv-x="391" 
d="M70 551c0 27 21 48 48 48s48 -21 48 -48s-21 -48 -48 -48s-48 21 -48 48zM225 551c0 27 21 48 48 48s48 -21 48 -48s-21 -48 -48 -48s-48 21 -48 48z" />
    <glyph glyph-name="ring" unicode="&#x2da;" horiz-adv-x="316" 
d="M70 591c0 58 48 88 88 88s88 -30 88 -88c0 -51 -37 -88 -88 -88s-88 37 -88 88zM101 591c0 -33 29 -57 57 -57c31 0 57 26 57 57c0 28 -24 57 -57 57c-31 0 -57 -26 -57 -57z" />
    <glyph glyph-name="cedilla" unicode="&#xb8;" horiz-adv-x="197" 
d="M23 -46l48 50h37l-37 -40c10 2 19 2 29 2c15 0 39 -2 59 -15c26 -17 28 -41 28 -51c0 -19 -10 -38 -31 -52c-20 -13 -43 -16 -61 -16c-27 0 -51 6 -64 14c-10 6 -21 18 -21 31c0 14 11 24 24 24c16 0 24 -11 24 -24v-5c0 -12 17 -18 36 -18c18 0 31 5 42 15
c6 6 14 15 14 29c0 13 -6 28 -23 38c-13 7 -28 8 -37 8c-15 0 -32 -4 -48 -11z" />
    <glyph glyph-name="hungarumlaut" unicode="&#x2dd;" horiz-adv-x="447" 
d="M66 519l108 133c6 7 14 22 34 22c9 0 17 -2 22 -7s11 -14 11 -25c0 -3 -1 -7 -2 -11c-6 -15 -23 -27 -45 -44l-113 -84zM206 519l108 133c6 7 14 22 34 22c9 0 17 -2 22 -7c6 -5 11 -16 11 -22c0 -5 0 -10 -2 -14c-6 -15 -23 -27 -45 -44l-113 -84z" />
    <glyph glyph-name="ogonek" unicode="&#x2db;" horiz-adv-x="196" 
d="M153 3c-18 -10 -35 -23 -50 -36c-11 -10 -24 -24 -23 -46c1 -18 13 -35 43 -35s53 15 66 25l9 -13c-25 -28 -62 -48 -101 -48c-45 0 -67 30 -67 61c0 46 52 72 91 92h32z" />
    <glyph glyph-name="caron" unicode="&#x2c7;" horiz-adv-x="410" 
d="M205 564l104 91h31l-110 -152h-50l-110 152h31z" />
    <glyph glyph-name="emdash" unicode="&#x2014;" horiz-adv-x="1052" 
d="M70 160v50h912v-50h-912z" />
    <glyph glyph-name="AE" unicode="&#xc6;" horiz-adv-x="1110" 
d="M532 211h-272l-84 -105c-26 -33 -34 -42 -34 -50c0 -17 23 -20 42 -22v-34h-184v35c64 -1 103 49 151 111l332 424c31 40 36 55 36 68c0 4 1 28 -37 28h-7v34h402c31 0 52 5 81 8h13v-133h-34c-20 76 -80 86 -156 86h-163v-287h105c31 0 71 -1 82 56h34v-151h-34
c-10 56 -41 56 -82 56h-105v-296h214c134 0 172 33 193 111h33l-11 -150h-575v34c48 4 60 38 60 81v96zM294 250h238v305h-5l-233 -299v-6z" />
    <glyph glyph-name="ordfeminine" unicode="&#xaa;" horiz-adv-x="296" 
d="M283 460l5 -7c-11 -19 -30 -26 -45 -26c-21 0 -39 16 -45 39h-2c-30 -31 -61 -39 -85 -39c-8 0 -16 1 -22 2c-39 9 -57 42 -57 73c0 60 51 94 159 98c-2 48 -3 86 -52 86c-19 0 -29 -8 -35 -23c-5 -13 -2 -29 -26 -29c-12 0 -21 8 -22 15v6c4 31 36 53 89 53
c95 0 97 -72 97 -120v-88c0 -39 17 -43 29 -43c4 0 8 1 12 3zM191 553v24c-43 0 -104 -19 -104 -74c0 -32 21 -46 49 -46c48 0 55 45 55 96zM26 375v23h263v-23h-263z" />
    <glyph glyph-name="Lslash" unicode="&#x141;" horiz-adv-x="658" 
d="M298 700v-34c-42 -4 -59 -30 -59 -81v-188l92 82l26 -29l-118 -105v-306h214c87 0 133 66 145 126h34v-165h-538v34c47 4 59 37 59 81v154l-75 -67l-26 29l101 90v264c0 51 -17 77 -59 81v34h204z" />
    <glyph glyph-name="Oslash" unicode="&#xd8;" horiz-adv-x="788" 
d="M392 708c63 0 168 -10 256 -108l86 77l34 -38l-88 -77c55 -81 67 -156 67 -212c0 -166 -122 -358 -355 -358c-87 0 -164 20 -246 97l-100 -90l-33 36l101 90c-56 73 -76 155 -76 225c0 167 124 358 354 358zM393 669c-68 0 -156 -32 -208 -121c-28 -47 -47 -111 -47 -200
c0 -37 4 -99 33 -172l424 378c-64 99 -155 115 -202 115zM619 507l-424 -375c62 -84 145 -101 197 -101c67 0 154 31 208 120c46 77 47 176 47 197c0 53 -10 116 -28 159z" />
    <glyph glyph-name="OE" unicode="&#x152;" horiz-adv-x="1077" 
d="M1017 150h34l-12 -150h-562c-28 -5 -56 -8 -84 -8c-211 0 -354 155 -354 358c0 210 151 358 354 358c28 0 56 -3 84 -8h393c34 0 47 5 81 8h12v-133h-33c-27 76 -75 86 -156 86h-183v-287h125c26 0 72 -1 82 56h33v-151h-33c-16 56 -37 56 -82 56h-125v-296h234
c78 0 186 10 192 111zM393 672c-156 0 -243 -132 -253 -291c-1 -22 -1 -43 -1 -65c0 -32 6 -63 16 -96c33 -112 119 -192 238 -192c87 0 111 29 111 69v508c0 65 -47 67 -111 67z" />
    <glyph glyph-name="ordmasculine" unicode="&#xba;" horiz-adv-x="299" 
d="M34 375v23h250v-23h-250zM159 708c104 0 133 -91 133 -140c0 -118 -102 -141 -133 -141s-133 23 -133 141c0 49 29 140 133 140zM159 686c-34 0 -74 -10 -74 -119v-3c0 -33 1 -115 74 -115c71 0 74 76 74 118c0 103 -34 119 -74 119z" />
    <glyph glyph-name="ae" unicode="&#xe6;" horiz-adv-x="599" 
d="M563 223h-238c-1 -19 0 -37 0 -56c1 -29 2 -134 106 -134c50 0 96 33 123 61l19 -17c-56 -63 -107 -85 -156 -85c-28 0 -93 5 -136 55h-4c-43 -43 -109 -55 -139 -55c-79 0 -112 55 -112 106c0 103 103 133 226 141v26c0 86 -39 97 -73 97c-41 0 -47 -27 -49 -33
c-3 -16 -8 -42 -37 -42c-11 0 -32 6 -32 34c0 39 56 72 128 72c37 0 79 -11 108 -43h2c35 36 83 43 114 43c99 0 151 -85 150 -170zM252 149v57c-122 -7 -147 -62 -147 -106c0 -40 25 -63 58 -67c58 -8 89 38 89 116zM325 254h158c1 21 0 108 -74 108
c-37 0 -78 -21 -84 -108z" />
    <glyph glyph-name="dotlessi" unicode="&#x131;" horiz-adv-x="215" 
d="M26 385h118v-284c0 -37 5 -69 45 -72v-29h-163v29c37 4 44 29 44 72v182c0 41 -2 64 -44 73v29z" />
    <glyph glyph-name="lslash" unicode="&#x142;" horiz-adv-x="294" 
d="M61 700h117v-352l84 58l17 -23l-101 -69v-213c0 -37 5 -69 45 -72v-29h-163v29c40 5 45 33 45 72v163l-73 -51l-17 23l90 62v301c0 47 -4 66 -44 72v29z" />
    <glyph glyph-name="oslash" unicode="&#xf8;" horiz-adv-x="434" 
d="M70 62l-47 -34l-16 24l48 34c-18 29 -27 74 -27 107c0 97 60 200 190 200c21 0 106 -2 156 -81l35 25l17 -23l-38 -28c14 -29 20 -58 20 -93c0 -108 -67 -201 -190 -201c-100 0 -143 63 -148 70zM115 129l203 143c-8 37 -35 90 -100 90c-50 0 -106 -21 -106 -170
c0 -31 1 -47 3 -63zM322 240l-200 -142c24 -74 72 -75 96 -75c34 0 106 -3 106 169c0 16 -1 32 -2 48z" />
    <glyph glyph-name="oe" unicode="&#x153;" horiz-adv-x="676" 
d="M640 222h-236c-2 -46 -2 -59 -2 -74s8 -54 25 -77c10 -13 34 -38 81 -38c40 0 92 26 123 61l19 -17c-35 -44 -91 -85 -155 -85c-42 0 -99 9 -139 59h-1c-49 -56 -117 -59 -139 -59c-122 0 -190 93 -190 201c0 122 80 200 190 200c51 0 102 -19 138 -57h6
c27 29 71 57 131 57c103 0 149 -90 149 -164v-7zM560 253c1 21 0 109 -74 109c-72 0 -82 -78 -83 -109h157zM216 362c-65 0 -106 -39 -106 -170c0 -74 7 -169 106 -169c104 0 105 106 105 169c0 18 1 36 -1 54c-6 67 -41 116 -104 116z" />
    <glyph glyph-name="germandbls" unicode="&#xdf;" horiz-adv-x="453" 
d="M33 385h43v147c0 155 110 168 156 168c69 0 150 -50 150 -151c0 -72 -41 -137 -107 -162v-5c82 -7 152 -87 152 -196c0 -83 -40 -194 -135 -194c-59 0 -85 42 -85 77s25 52 43 52c16 0 37 -13 37 -35c0 -9 -2 -18 -7 -25c-8 -11 -19 -16 -19 -25c0 -5 4 -19 24 -19
c30 0 58 13 58 159c0 92 -17 179 -153 180v29c105 6 116 77 116 164c0 43 -8 120 -74 120c-30 0 -82 -12 -82 -116v-437c0 -51 0 -79 40 -87v-29h-157v29c45 8 43 38 43 87v174c0 22 2 55 -43 66v29z" />
    <glyph glyph-name="onesuperior" unicode="&#xb9;" horiz-adv-x="297" 
d="M245 234v-24h-143v24c39 1 41 38 41 57v323h-4c-26 -30 -51 -51 -87 -73v30c43 27 92 83 116 129h35v-409c0 -30 9 -55 42 -57z" />
    <glyph glyph-name="logicalnot" unicode="&#xac;" horiz-adv-x="691" 
d="M70 161v49h551v-153h-49v104h-502z" />
    <glyph glyph-name="mu" unicode="&#xb5;" horiz-adv-x="407" 
d="M341 386v-281c0 -31 0 -71 40 -71c6 0 13 1 19 4l7 -11c-20 -24 -34 -34 -64 -34c-59 0 -67 61 -67 89v6c-24 -57 -56 -96 -107 -96c-25 0 -77 7 -102 66c0 -18 1 -42 7 -70c10 -44 28 -82 28 -120c0 -60 -36 -62 -55 -62c-47 0 -47 43 -47 60c0 13 1 25 3 38
c9 59 16 49 24 136c3 32 5 64 5 96v250h73v-210c0 -120 56 -126 78 -126c8 0 15 5 22 9c40 26 63 90 63 165v162h73z" />
    <glyph glyph-name="mu" unicode="&#x3bc;" horiz-adv-x="407" 
d="M341 386v-281c0 -31 0 -71 40 -71c6 0 13 1 19 4l7 -11c-20 -24 -34 -34 -64 -34c-59 0 -67 61 -67 89v6c-24 -57 -56 -96 -107 -96c-25 0 -77 7 -102 66c0 -18 1 -42 7 -70c10 -44 28 -82 28 -120c0 -60 -36 -62 -55 -62c-47 0 -47 43 -47 60c0 13 1 25 3 38
c9 59 16 49 24 136c3 32 5 64 5 96v250h73v-210c0 -120 56 -126 78 -126c8 0 15 5 22 9c40 26 63 90 63 165v162h73z" />
    <glyph glyph-name="trademark" unicode="&#x2122;" horiz-adv-x="827" 
d="M70 629v71c47 -2 93 -3 140 -3c45 0 91 1 136 3v-71h-18c-6 37 -37 38 -46 38h-48v-213c0 -11 -4 -29 25 -35v-18h-102v18c25 3 25 26 25 35v213h-49c-14 0 -40 -3 -45 -38h-18zM573 493h4l83 204h97v-19c-17 -1 -25 -14 -25 -25v-199c0 -22 7 -31 25 -35v-18h-107v18
c18 5 25 14 25 35v207h-3l-109 -263h-21l-108 274h-4v-226c0 -12 11 -25 25 -27v-18h-80v18c15 5 25 11 25 26v207c0 15 -9 26 -25 26v19h117z" />
    <glyph glyph-name="Eth" unicode="&#xd0;" horiz-adv-x="795" 
d="M82 700h293c137 0 245 -41 318 -145c34 -48 63 -117 63 -211c0 -43 -7 -146 -88 -238c-66 -75 -157 -106 -292 -106h-294v34c50 4 60 38 60 81v224h-90v39h90v207c0 43 -10 77 -60 81v34zM228 39h126c103 0 302 37 302 308c0 292 -238 314 -302 314h-126v-283h105v-39
h-105v-300z" />
    <glyph glyph-name="onehalf" unicode="&#xbd;" horiz-adv-x="823" 
d="M263 233v-24h-143v24c39 1 41 38 41 57v323h-4c-26 -30 -51 -51 -87 -73v30c43 27 92 83 116 129h35v-409c0 -30 9 -55 42 -57zM228 -184h-39l347 884h41zM753 -75l-27 -109h-274v27c145 169 211 269 211 345c0 53 -33 80 -71 80c-41 0 -69 -23 -99 -61l-21 13
c17 29 63 92 143 92c65 0 118 -38 118 -105c0 -52 -29 -131 -216 -328v-3h126c46 0 71 10 86 49h24z" />
    <glyph glyph-name="plusminus" unicode="&#xb1;" horiz-adv-x="638" 
d="M340 164h-42v140h-228v42h228v181h42v-181h228v-42h-228v-140zM70 52v43h498v-43h-498z" />
    <glyph glyph-name="Thorn" unicode="&#xde;" horiz-adv-x="654" 
d="M52 0v34c48 2 60 40 60 88v263v200c0 44 -11 77 -59 81v34h204v-34c-44 -4 -59 -32 -59 -81v-24c38 25 96 49 170 49c38 0 87 -10 131 -35c102 -59 116 -160 116 -212c0 -115 -83 -245 -265 -245c-40 0 -99 8 -149 50h-3v-43c0 -57 10 -91 63 -91v-34h-209zM198 436v-202
c45 -66 104 -77 150 -77c155 0 167 119 167 206c0 74 -6 208 -165 208c-32 0 -92 -6 -133 -65c-21 -30 -19 -47 -19 -70z" />
    <glyph glyph-name="onequarter" unicode="&#xbc;" horiz-adv-x="765" 
d="M263 233v-24h-143v24c39 1 41 38 41 57v323h-4c-26 -30 -51 -51 -87 -73v30c43 27 92 83 116 129h35v-409c0 -30 9 -55 42 -57zM228 -184h-39l347 884h41zM599 306h28v-295h6c24 0 33 16 42 44l20 -4l-25 -92h-43v-143h-61v143h-182v32zM566 11v199h-4l-129 -192v-7h133z
" />
    <glyph glyph-name="divide" unicode="&#xf7;" horiz-adv-x="638" 
d="M70 309v42h498v-42h-498zM261 469c0 32 26 58 58 58s58 -26 58 -58s-26 -58 -58 -58s-58 26 -58 58zM261 191c0 32 26 58 58 58s58 -26 58 -58s-26 -58 -58 -58s-58 26 -58 58z" />
    <glyph glyph-name="brokenbar" unicode="&#xa6;" horiz-adv-x="190" 
d="M70 460v369h50v-369h-50zM70 145h50v-369h-50v369z" />
    <glyph glyph-name="degree" unicode="&#xb0;" horiz-adv-x="340" 
d="M70 608c0 55 46 100 100 100s100 -45 100 -100c0 -56 -46 -99 -100 -99s-100 43 -100 99zM107 608c0 -31 27 -63 63 -63c33 0 63 29 63 63c0 29 -23 63 -63 63c-43 0 -63 -37 -63 -63z" />
    <glyph glyph-name="thorn" unicode="&#xfe;" horiz-adv-x="455" 
d="M181 -184h-168v29c37 3 44 32 44 72v682c0 47 -4 66 -44 72v29h117v-349h3c34 36 86 41 111 41c40 0 89 -16 120 -44c51 -46 65 -115 65 -156s-14 -110 -65 -156c-31 -28 -80 -44 -120 -44c-25 0 -77 5 -111 41h-3v-115c0 -43 8 -73 51 -73v-29zM130 252v-116
c0 -22 5 -113 107 -113c62 0 108 35 108 169c0 85 -17 170 -107 170c-84 0 -108 -78 -108 -110z" />
    <glyph glyph-name="threequarters" unicode="&#xbe;" horiz-adv-x="771" 
d="M103 598l-21 13c25 47 77 97 147 97c63 0 92 -43 92 -82c0 -28 -14 -72 -77 -111v-3h6c50 0 98 -33 98 -105c0 -71 -47 -126 -109 -160c-75 -41 -150 -41 -167 -41h-2v24c143 5 213 99 213 168c0 42 -28 75 -75 75c-20 0 -40 -7 -56 -16l-12 20c57 35 125 82 125 140
c0 26 -17 52 -58 52c-44 0 -85 -45 -104 -71zM234 -184h-39l347 884h41zM605 306h28v-295h6c24 0 33 16 42 44l20 -4l-25 -92h-43v-143h-61v143h-182v32zM572 11v199h-4l-129 -192v-7h133z" />
    <glyph glyph-name="twosuperior" unicode="&#xb2;" horiz-adv-x="369" 
d="M335 319l-27 -109h-274v27c145 169 211 269 211 345c0 53 -33 80 -71 80c-41 0 -69 -23 -99 -61l-21 13c17 29 63 92 143 92c65 0 118 -38 118 -105c0 -52 -29 -131 -216 -328v-3h126c46 0 71 10 86 49h24z" />
    <glyph glyph-name="registered" unicode="&#xae;" horiz-adv-x="856" 
d="M70 349c0 198 160 358 358 358s358 -160 358 -358s-160 -358 -358 -358s-358 160 -358 358zM112 349c0 -175 141 -316 316 -316s316 141 316 316s-141 316 -316 316s-316 -141 -316 -316zM293 535h174c26 0 112 -6 112 -91c0 -55 -27 -78 -74 -93l74 -115
c21 -33 13 -25 46 -37v-22h-72l-98 162h-81v-108c0 -9 2 -24 28 -32v-22h-109v22c23 6 31 16 31 42v235c0 29 -6 34 -31 42v17zM374 365h51c28 0 97 4 97 76c0 67 -62 68 -97 68h-51v-144z" />
    <glyph glyph-name="minus" unicode="&#x2212;" horiz-adv-x="757" 
d="M70 301v50h617v-50h-617z" />
    <glyph glyph-name="eth" unicode="&#xf0;" 
d="M124 463l-11 22l83 40c-26 37 -40 56 -60 77l16 17l29 -27c14 -13 13 -14 26 -27l23 -23l86 42l10 -23l-80 -38c66 -69 160 -202 160 -331c0 -159 -128 -200 -190 -200c-57 0 -190 40 -190 201c0 69 40 200 190 200c18 0 37 -3 55 -8c-18 46 -40 86 -63 120zM216 362
c-102 0 -106 -105 -106 -170v-5c0 -51 2 -164 106 -164s106 113 106 164v5c0 145 -50 170 -106 170z" />
    <glyph glyph-name="multiply" unicode="&#xd7;" horiz-adv-x="572" 
d="M286 280l-180 -180l-36 36l180 180l-180 180l36 36l180 -180l180 180l36 -36l-180 -180l180 -180l-36 -36z" />
    <glyph glyph-name="threesuperior" unicode="&#xb3;" horiz-adv-x="355" 
d="M63 598l-21 13c25 47 77 97 147 97c63 0 92 -43 92 -82c0 -28 -14 -72 -77 -111v-3h6c50 0 98 -33 98 -105c0 -82 -67 -133 -74 -138c-36 -27 -97 -60 -188 -63h-16v24c143 5 213 99 213 168c0 42 -28 75 -75 75c-20 0 -40 -7 -56 -16l-12 20c57 35 125 82 125 140
c0 26 -17 52 -58 52c-44 0 -85 -45 -104 -71z" />
    <glyph glyph-name="copyright" unicode="&#xa9;" horiz-adv-x="856" 
d="M70 350c0 198 160 358 358 358s358 -160 358 -358s-160 -358 -358 -358s-358 160 -358 358zM112 350c0 -175 141 -316 316 -316s316 141 316 316s-141 316 -316 316s-316 -141 -316 -316zM567 244l16 -16c-26 -23 -11 -12 -32 -30c-46 -40 -97 -40 -130 -40
c-123 0 -163 100 -169 120c-6 17 -10 54 -10 71c0 37 10 85 32 117c39 56 88 82 153 82c84 0 66 -19 114 -19c4 0 8 2 12 6h12v-84h-24c-18 59 -85 69 -110 69c-37 0 -121 -35 -121 -170c0 -153 95 -161 136 -161c39 0 94 19 121 55z" />
    <glyph glyph-name="Aacute" unicode="&#xc1;" horiz-adv-x="724" 
d="M379 708l270 -600c18 -41 39 -72 75 -74v-34h-196v34c33 5 36 16 36 39c0 4 -3 15 -9 29l-40 90h-348l-39 -85c-11 -24 -12 -32 -12 -35c0 -11 4 -31 39 -38v-34h-155v34c42 3 70 51 79 71l225 486c8 17 9 21 9 25c0 12 -11 15 -24 15v34c24 6 56 27 70 43h20zM497 231
l-148 329h-11l-153 -329h312zM310 758l121 100c11 9 25 18 38 22c6 2 12 3 18 3c23 0 39 -16 39 -36c0 -22 -15 -34 -25 -40c-14 -8 -24 -11 -37 -16l-143 -54z" />
    <glyph glyph-name="Acircumflex" unicode="&#xc2;" horiz-adv-x="724" 
d="M379 708l270 -600c18 -41 39 -72 75 -74v-34h-196v34c33 5 36 16 36 39c0 4 -3 15 -9 29l-40 90h-348l-39 -85c-11 -24 -12 -32 -12 -35c0 -11 4 -31 39 -38v-34h-155v34c42 3 70 51 79 71l225 486c8 17 9 21 9 25c0 12 -11 15 -24 15v34c24 6 56 27 70 43h20zM497 231
l-148 329h-11l-153 -329h312zM363 816l-112 -79h-40l126 145h52l126 -145h-40z" />
    <glyph glyph-name="Adieresis" unicode="&#xc4;" horiz-adv-x="724" 
d="M379 708l270 -600c18 -41 39 -72 75 -74v-34h-196v34c33 5 36 16 36 39c0 4 -3 15 -9 29l-40 90h-348l-39 -85c-11 -24 -12 -32 -12 -35c0 -11 4 -31 39 -38v-34h-155v34c42 3 70 51 79 71l225 486c8 17 9 21 9 25c0 12 -11 15 -24 15v34c24 6 56 27 70 43h20zM497 231
l-148 329h-11l-153 -329h312zM161 814c0 36 30 66 66 66s66 -30 66 -66s-30 -66 -66 -66s-66 30 -66 66zM407 814c0 36 30 66 66 66s66 -30 66 -66s-30 -66 -66 -66s-66 30 -66 66z" />
    <glyph glyph-name="Agrave" unicode="&#xc0;" horiz-adv-x="724" 
d="M379 708l270 -600c18 -41 39 -72 75 -74v-34h-196v34c33 5 36 16 36 39c0 4 -3 15 -9 29l-40 90h-348l-39 -85c-11 -24 -12 -32 -12 -35c0 -11 4 -31 39 -38v-34h-155v34c42 3 70 51 79 71l225 486c8 17 9 21 9 25c0 12 -11 15 -24 15v34c24 6 56 27 70 43h20zM497 231
l-148 329h-11l-153 -329h312zM405 758l-11 -21l-143 54c-13 5 -23 8 -37 16c-10 6 -25 18 -25 40c0 20 16 36 39 36c6 0 12 -1 18 -3c13 -4 27 -13 38 -22z" />
    <glyph glyph-name="Aring" unicode="&#xc5;" horiz-adv-x="724" 
d="M379 708l270 -600c18 -41 39 -72 75 -74v-34h-196v34c33 5 36 16 36 39c0 4 -3 15 -9 29l-40 90h-348l-39 -85c-11 -24 -12 -32 -12 -35c0 -11 4 -31 39 -38v-34h-155v34c42 3 70 51 79 71l225 486c8 17 9 21 9 25c0 12 -11 15 -24 15v34c24 6 56 27 70 43h20zM497 231
l-148 329h-11l-153 -329h312zM298 844c0 -34 30 -64 64 -64s64 30 64 64s-30 64 -64 64s-64 -30 -64 -64zM262 844c0 56 44 100 100 100s100 -44 100 -100s-44 -100 -100 -100s-100 44 -100 100z" />
    <glyph glyph-name="Atilde" unicode="&#xc3;" horiz-adv-x="724" 
d="M379 708l270 -600c18 -41 39 -72 75 -74v-34h-196v34c33 5 36 16 36 39c0 4 -3 15 -9 29l-40 90h-348l-39 -85c-11 -24 -12 -32 -12 -35c0 -11 4 -31 39 -38v-34h-155v34c42 3 70 51 79 71l225 486c8 17 9 21 9 25c0 12 -11 15 -24 15v34c24 6 56 27 70 43h20zM497 231
l-148 329h-11l-153 -329h312zM524 831h24c-32 -52 -66 -83 -114 -83c-24 0 -48 4 -89 14c-31 8 -54 16 -76 16c-25 0 -48 -11 -62 -30h-19c28 60 69 83 116 83c19 0 43 -3 78 -12c39 -10 58 -17 81 -17c21 0 46 9 61 29z" />
    <glyph glyph-name="Ccedilla" unicode="&#xc7;" horiz-adv-x="686" 
d="M620 530h-34c-39 101 -131 139 -208 139c-113 0 -239 -102 -239 -324c0 -204 107 -314 258 -314c87 0 176 48 229 109l21 -23c-73 -82 -171 -125 -269 -125c-10 0 -19 0 -29 1l-47 -49l1 -1c15 4 30 6 45 6c35 0 64 -9 84 -25s29 -36 29 -62c0 -28 -13 -48 -28 -62
c-22 -21 -59 -34 -100 -34c-30 0 -68 9 -91 29c-12 10 -16 19 -16 30c0 18 11 34 30 34c15 0 27 -7 29 -25v-8v-8c2 -10 17 -23 49 -23c17 0 36 1 54 14c16 12 25 27 25 47c0 29 -17 44 -27 50c-14 9 -36 13 -54 13c-22 0 -45 -6 -66 -17l-20 28l67 66
c-130 21 -274 126 -274 350c0 208 137 362 331 362c102 0 182 -36 211 -36c13 0 22 10 24 12h15v-154z" />
    <glyph glyph-name="Eacute" unicode="&#xc9;" horiz-adv-x="655" 
d="M52 700h394c96 0 53 11 125 8v-133h-34c-20 76 -82 86 -156 86h-183v-287h125c25 0 71 -3 82 56h33v-151h-33c-17 59 -38 56 -82 56h-125v-296h205c104 0 185 21 192 111h34l-11 -150h-566v34c45 5 60 37 60 81v470c0 46 -10 80 -60 81v34zM255 758l121 100
c11 9 25 18 38 22c6 2 12 3 18 3c23 0 39 -16 39 -36c0 -22 -15 -34 -25 -40c-14 -8 -24 -11 -37 -16l-143 -54z" />
    <glyph glyph-name="Ecircumflex" unicode="&#xca;" horiz-adv-x="655" 
d="M52 700h394c96 0 53 11 125 8v-133h-34c-20 76 -82 86 -156 86h-183v-287h125c25 0 71 -3 82 56h33v-151h-33c-17 59 -38 56 -82 56h-125v-296h205c104 0 185 21 192 111h34l-11 -150h-566v34c45 5 60 37 60 81v470c0 46 -10 80 -60 81v34zM314 816l-112 -79h-40l126 145
h52l126 -145h-40z" />
    <glyph glyph-name="Edieresis" unicode="&#xcb;" horiz-adv-x="655" 
d="M52 700h394c96 0 53 11 125 8v-133h-34c-20 76 -82 86 -156 86h-183v-287h125c25 0 71 -3 82 56h33v-151h-33c-17 59 -38 56 -82 56h-125v-296h205c104 0 185 21 192 111h34l-11 -150h-566v34c45 5 60 37 60 81v470c0 46 -10 80 -60 81v34zM132 814c0 36 30 66 66 66
s66 -30 66 -66s-30 -66 -66 -66s-66 30 -66 66zM378 814c0 36 30 66 66 66s66 -30 66 -66s-30 -66 -66 -66s-66 30 -66 66z" />
    <glyph glyph-name="Egrave" unicode="&#xc8;" horiz-adv-x="655" 
d="M52 700h394c96 0 53 11 125 8v-133h-34c-20 76 -82 86 -156 86h-183v-287h125c25 0 71 -3 82 56h33v-151h-33c-17 59 -38 56 -82 56h-125v-296h205c104 0 185 21 192 111h34l-11 -150h-566v34c45 5 60 37 60 81v470c0 46 -10 80 -60 81v34zM361 758l-11 -21l-143 54
c-13 5 -23 8 -37 16c-10 6 -25 18 -25 40c0 20 16 36 39 36c6 0 12 -1 18 -3c13 -4 27 -13 38 -22z" />
    <glyph glyph-name="Iacute" unicode="&#xcd;" horiz-adv-x="308" 
d="M256 700v-34c-50 -3 -59 -46 -59 -81v-470c0 -48 16 -76 59 -81v-34h-204v34c43 5 59 33 59 81v470c0 44 -12 77 -59 81v34h204zM94 758l121 100c11 9 25 18 38 22c6 2 12 3 18 3c23 0 39 -16 39 -36c0 -22 -15 -34 -25 -40c-14 -8 -24 -11 -37 -16l-143 -54z" />
    <glyph glyph-name="Icircumflex" unicode="&#xce;" horiz-adv-x="308" 
d="M256 700v-34c-50 -3 -59 -46 -59 -81v-470c0 -48 16 -76 59 -81v-34h-204v34c43 5 59 33 59 81v470c0 44 -12 77 -59 81v34h204zM153 816l-112 -79h-40l126 145h52l126 -145h-40z" />
    <glyph glyph-name="Idieresis" unicode="&#xcf;" horiz-adv-x="309" 
d="M256 700v-34c-25 -1 -59 -15 -59 -81v-470c0 -47 16 -77 60 -81v-34h-206v34c44 4 60 34 60 81v470c0 21 -2 76 -60 81v34h205zM69 854c35 0 59 -29 59 -59c0 -33 -26 -60 -59 -60c-32 0 -59 26 -59 60c0 32 27 59 59 59zM240 854c32 0 59 -27 59 -59
c0 -34 -27 -60 -59 -60c-33 0 -59 27 -59 60c0 30 24 59 59 59z" />
    <glyph glyph-name="Igrave" unicode="&#xcc;" horiz-adv-x="308" 
d="M256 700v-34c-50 -3 -59 -46 -59 -81v-470c0 -48 16 -76 59 -81v-34h-204v34c43 5 59 33 59 81v470c0 44 -12 77 -59 81v34h204zM196 757l-11 -21l-143 54c-13 5 -23 8 -37 16c-10 6 -25 18 -25 40c0 20 16 36 39 36c6 0 12 -1 18 -3c13 -4 27 -13 38 -22z" />
    <glyph glyph-name="Ntilde" unicode="&#xd1;" horiz-adv-x="772" 
d="M52 0v34c42 -5 60 40 60 73v475c0 11 -1 83 -60 84v34h143l424 -537h3v424c0 32 -3 72 -59 79v34h157v-34c-51 -11 -59 -36 -59 -79v-587h-30l-476 604h-4v-497c0 -26 11 -73 59 -73v-34h-158zM553 831h24c-32 -52 -66 -83 -114 -83c-24 0 -48 4 -89 14
c-31 8 -54 16 -76 16c-25 0 -48 -11 -62 -30h-19c28 60 69 83 116 83c19 0 43 -3 78 -12c39 -10 58 -17 81 -17c21 0 46 9 61 29z" />
    <glyph glyph-name="Oacute" unicode="&#xd3;" horiz-adv-x="788" 
d="M394 708c232 0 355 -191 355 -358s-123 -358 -355 -358s-355 191 -355 358s123 358 355 358zM394 669c-138 0 -255 -114 -255 -319s117 -319 255 -319s255 114 255 319s-117 319 -255 319zM341 758l121 100c11 9 25 18 38 22c6 2 12 3 18 3c23 0 39 -16 39 -36
c0 -22 -15 -34 -25 -40c-14 -8 -24 -11 -37 -16l-143 -54z" />
    <glyph glyph-name="Ocircumflex" unicode="&#xd4;" horiz-adv-x="788" 
d="M394 708c232 0 355 -191 355 -358s-123 -358 -355 -358s-355 191 -355 358s123 358 355 358zM394 669c-138 0 -255 -114 -255 -319s117 -319 255 -319s255 114 255 319s-117 319 -255 319zM386 816l-112 -79h-40l126 145h52l126 -145h-40z" />
    <glyph glyph-name="Odieresis" unicode="&#xd6;" horiz-adv-x="788" 
d="M394 708c232 0 355 -191 355 -358s-123 -358 -355 -358s-355 191 -355 358s123 358 355 358zM394 669c-138 0 -255 -114 -255 -319s117 -319 255 -319s255 114 255 319s-117 319 -255 319zM203 814c0 36 30 66 66 66s66 -30 66 -66s-30 -66 -66 -66s-66 30 -66 66z
M449 814c0 36 30 66 66 66s66 -30 66 -66s-30 -66 -66 -66s-66 30 -66 66z" />
    <glyph glyph-name="Ograve" unicode="&#xd2;" horiz-adv-x="788" 
d="M394 708c232 0 355 -191 355 -358s-123 -358 -355 -358s-355 191 -355 358s123 358 355 358zM394 669c-138 0 -255 -114 -255 -319s117 -319 255 -319s255 114 255 319s-117 319 -255 319zM442 759l-11 -21l-143 54c-13 5 -23 8 -37 16c-10 6 -25 18 -25 40
c0 20 16 36 39 36c6 0 12 -1 18 -3c13 -4 27 -13 38 -22z" />
    <glyph glyph-name="Otilde" unicode="&#xd5;" horiz-adv-x="788" 
d="M394 708c232 0 355 -191 355 -358s-123 -358 -355 -358s-355 191 -355 358s123 358 355 358zM394 669c-138 0 -255 -114 -255 -319s117 -319 255 -319s255 114 255 319s-117 319 -255 319zM550 831h24c-32 -52 -66 -83 -114 -83c-24 0 -48 4 -89 14c-31 8 -54 16 -76 16
c-25 0 -48 -11 -62 -30h-19c28 60 69 83 116 83c19 0 43 -3 78 -12c39 -10 58 -17 81 -17c21 0 46 9 61 29z" />
    <glyph glyph-name="Scaron" unicode="&#x160;" horiz-adv-x="541" 
d="M471 517h-39c-26 71 -78 152 -172 152c-75 0 -126 -46 -126 -113c0 -84 84 -113 142 -130c29 -8 56 -14 101 -34c36 -16 132 -64 132 -187c0 -116 -96 -213 -210 -213c-29 0 -73 5 -104 15c-27 8 -49 18 -73 18c-34 0 -41 -19 -43 -25h-33v216h34
c28 -95 120 -185 227 -185c71 0 131 61 131 137c0 54 -28 103 -109 137c-43 18 -81 23 -121 38c-121 45 -142 130 -142 185c0 106 87 180 203 180c43 0 79 -10 123 -36c8 -5 19 -11 30 -11s16 6 24 14h25v-158zM274 803l112 79h40l-126 -145h-52l-126 145h40z" />
    <glyph glyph-name="Uacute" unicode="&#xda;" horiz-adv-x="799" 
d="M52 700h202v-34c-49 -5 -58 -38 -58 -81v-274c0 -97 14 -190 115 -240c36 -18 73 -22 112 -22c45 0 87 10 127 34c100 60 100 166 100 251v259c0 46 -17 70 -58 73v34h155v-34c-56 -4 -58 -51 -58 -73v-306c0 -142 -56 -295 -283 -295c-221 0 -296 118 -296 323v270
c0 50 -13 77 -58 81v34zM381 758l121 100c11 9 25 18 38 22c6 2 12 3 18 3c23 0 39 -16 39 -36c0 -22 -15 -34 -25 -40c-14 -8 -24 -11 -37 -16l-143 -54z" />
    <glyph glyph-name="Ucircumflex" unicode="&#xdb;" horiz-adv-x="799" 
d="M52 700h202v-34c-49 -5 -58 -38 -58 -81v-274c0 -97 14 -190 115 -240c36 -18 73 -22 112 -22c45 0 87 10 127 34c100 60 100 166 100 251v259c0 46 -17 70 -58 73v34h155v-34c-56 -4 -58 -51 -58 -73v-306c0 -142 -56 -295 -283 -295c-221 0 -296 118 -296 323v270
c0 50 -13 77 -58 81v34zM409 816l-112 -79h-40l126 145h52l126 -145h-40z" />
    <glyph glyph-name="Udieresis" unicode="&#xdc;" horiz-adv-x="799" 
d="M52 700h202v-34c-49 -5 -58 -38 -58 -81v-274c0 -97 14 -190 115 -240c36 -18 73 -22 112 -22c45 0 87 10 127 34c100 60 100 166 100 251v259c0 46 -17 70 -58 73v34h155v-34c-56 -4 -58 -51 -58 -73v-306c0 -142 -56 -295 -283 -295c-221 0 -296 118 -296 323v270
c0 50 -13 77 -58 81v34zM226 814c0 36 30 66 66 66s66 -30 66 -66s-30 -66 -66 -66s-66 30 -66 66zM472 814c0 36 30 66 66 66s66 -30 66 -66s-30 -66 -66 -66s-66 30 -66 66z" />
    <glyph glyph-name="Ugrave" unicode="&#xd9;" horiz-adv-x="799" 
d="M52 700h202v-34c-49 -5 -58 -38 -58 -81v-274c0 -97 14 -190 115 -240c36 -18 73 -22 112 -22c45 0 87 10 127 34c100 60 100 166 100 251v259c0 46 -17 70 -58 73v34h155v-34c-56 -4 -58 -51 -58 -73v-306c0 -142 -56 -295 -283 -295c-221 0 -296 118 -296 323v270
c0 50 -13 77 -58 81v34zM459 758l-11 -21l-143 54c-13 5 -23 8 -37 16c-10 6 -25 18 -25 40c0 20 16 36 39 36c6 0 12 -1 18 -3c13 -4 27 -13 38 -22z" />
    <glyph glyph-name="Yacute" unicode="&#xdd;" horiz-adv-x="677" 
d="M0 700h230v-34c-20 -3 -36 -10 -36 -30c0 -12 6 -23 12 -31l169 -229h6l142 220c15 23 21 34 21 44c0 15 -17 26 -38 26v34h171v-34c-56 1 -90 -40 -119 -86l-166 -260v-205c0 -43 13 -76 59 -81v-34h-204v34c44 5 59 33 59 81v210l-189 258c-53 72 -97 81 -117 83v34z
M325 760l121 100c11 9 25 18 38 22c6 2 12 3 18 3c23 0 39 -16 39 -36c0 -22 -15 -34 -25 -40c-14 -8 -24 -11 -37 -16l-143 -54z" />
    <glyph glyph-name="Ydieresis" unicode="&#x178;" horiz-adv-x="677" 
d="M0 700h230v-34c-20 -3 -36 -10 -36 -30c0 -12 6 -23 12 -31l169 -229h6l142 220c15 23 21 34 21 44c0 15 -17 26 -38 26v34h171v-34c-56 1 -90 -40 -119 -86l-166 -260v-205c0 -43 13 -76 59 -81v-34h-204v34c44 5 59 33 59 81v210l-189 258c-53 72 -97 81 -117 83v34z
M155 814c0 36 30 66 66 66s66 -30 66 -66s-30 -66 -66 -66s-66 30 -66 66zM401 814c0 36 30 66 66 66s66 -30 66 -66s-30 -66 -66 -66s-66 30 -66 66z" />
    <glyph glyph-name="Zcaron" unicode="&#x17d;" horiz-adv-x="743" 
d="M89 572v128h572v-31l-493 -630h370c46 0 105 8 119 87h34v-126h-639v37l492 624h-290c-75 0 -119 -24 -131 -89h-34zM377 803l112 79h40l-126 -145h-52l-126 145h40z" />
    <glyph glyph-name="aacute" unicode="&#xe1;" horiz-adv-x="399" 
d="M385 39l7 -11c-16 -24 -37 -36 -64 -36c-38 0 -58 30 -65 55h-2c-26 -28 -65 -55 -118 -55c-77 0 -117 47 -117 106c0 103 101 133 227 141c0 71 -9 123 -74 123c-17 0 -39 -6 -49 -33c-7 -18 -6 -42 -38 -42c-10 0 -32 5 -32 30c0 31 44 76 128 76
c134 0 138 -103 138 -171v-126c0 -15 0 -62 41 -62c6 0 12 2 18 5zM253 171v35c-122 -6 -149 -65 -149 -106c0 -44 33 -66 70 -66c73 0 79 73 79 137zM137 519l105 130c11 13 25 20 40 20c22 0 37 -15 37 -37c0 -15 -7 -24 -16 -32c-6 -5 -13 -10 -31 -21l-122 -76z" />
    <glyph glyph-name="acircumflex" unicode="&#xe2;" horiz-adv-x="399" 
d="M385 39l7 -11c-16 -24 -37 -36 -64 -36c-38 0 -58 30 -65 55h-2c-26 -28 -65 -55 -118 -55c-77 0 -117 47 -117 106c0 103 101 133 227 141c0 71 -9 123 -74 123c-17 0 -39 -6 -49 -33c-7 -18 -6 -42 -38 -42c-10 0 -32 5 -32 30c0 31 44 76 128 76
c134 0 138 -103 138 -171v-126c0 -15 0 -62 41 -62c6 0 12 2 18 5zM253 171v35c-122 -6 -149 -65 -149 -106c0 -44 33 -66 70 -66c73 0 79 73 79 137zM189 594l-104 -91h-31l110 152h50l110 -152h-31z" />
    <glyph glyph-name="adieresis" unicode="&#xe4;" horiz-adv-x="399" 
d="M385 39l7 -11c-16 -24 -37 -36 -64 -36c-38 0 -58 30 -65 55h-2c-26 -28 -65 -55 -118 -55c-77 0 -117 47 -117 106c0 103 101 133 227 141c0 71 -9 123 -74 123c-17 0 -39 -6 -49 -33c-7 -18 -6 -42 -38 -42c-10 0 -32 5 -32 30c0 31 44 76 128 76
c134 0 138 -103 138 -171v-126c0 -15 0 -62 41 -62c6 0 12 2 18 5zM253 171v35c-122 -6 -149 -65 -149 -106c0 -44 33 -66 70 -66c73 0 79 73 79 137zM74 551c0 27 21 48 48 48s48 -21 48 -48s-21 -48 -48 -48s-48 21 -48 48zM229 551c0 27 21 48 48 48s48 -21 48 -48
s-21 -48 -48 -48s-48 21 -48 48z" />
    <glyph glyph-name="agrave" unicode="&#xe0;" horiz-adv-x="399" 
d="M385 39l7 -11c-16 -24 -37 -36 -64 -36c-38 0 -58 30 -65 55h-2c-26 -28 -65 -55 -118 -55c-77 0 -117 47 -117 106c0 103 101 133 227 141c0 71 -9 123 -74 123c-17 0 -39 -6 -49 -33c-7 -18 -6 -42 -38 -42c-10 0 -32 5 -32 30c0 31 44 76 128 76
c134 0 138 -103 138 -171v-126c0 -15 0 -62 41 -62c6 0 12 2 18 5zM253 171v35c-122 -6 -149 -65 -149 -106c0 -44 33 -66 70 -66c73 0 79 73 79 137zM246 519l-13 -16l-122 76c-18 11 -25 16 -31 21c-9 8 -16 17 -16 32c0 22 15 37 37 37c15 0 29 -7 40 -20z" />
    <glyph glyph-name="aring" unicode="&#xe5;" horiz-adv-x="399" 
d="M385 39l7 -11c-16 -24 -37 -36 -64 -36c-38 0 -58 30 -65 55h-2c-26 -28 -65 -55 -118 -55c-77 0 -117 47 -117 106c0 103 101 133 227 141c0 71 -9 123 -74 123c-17 0 -39 -6 -49 -33c-7 -18 -6 -42 -38 -42c-10 0 -32 5 -32 30c0 31 44 76 128 76
c134 0 138 -103 138 -171v-126c0 -15 0 -62 41 -62c6 0 12 2 18 5zM253 171v35c-122 -6 -149 -65 -149 -106c0 -44 33 -66 70 -66c73 0 79 73 79 137zM102 591c0 58 48 88 88 88s88 -30 88 -88c0 -51 -37 -88 -88 -88s-88 37 -88 88zM133 591c0 -33 29 -57 57 -57
c31 0 57 26 57 57c0 28 -24 57 -57 57c-31 0 -57 -26 -57 -57z" />
    <glyph glyph-name="atilde" unicode="&#xe3;" horiz-adv-x="399" 
d="M385 39l7 -11c-16 -24 -37 -36 -64 -36c-38 0 -58 30 -65 55h-2c-26 -28 -65 -55 -118 -55c-77 0 -117 47 -117 106c0 103 101 133 227 141c0 71 -9 123 -74 123c-17 0 -39 -6 -49 -33c-7 -18 -6 -42 -38 -42c-10 0 -32 5 -32 30c0 31 44 76 128 76
c134 0 138 -103 138 -171v-126c0 -15 0 -62 41 -62c6 0 12 2 18 5zM253 171v35c-122 -6 -149 -65 -149 -106c0 -44 33 -66 70 -66c73 0 79 73 79 137zM329 596h27c-14 -45 -46 -93 -105 -93c-23 0 -46 6 -70 13l-8 3c-18 5 -34 10 -50 10c-19 0 -37 -6 -55 -26h-25
c28 69 70 87 102 87c41 0 102 -27 133 -27c18 0 43 10 51 33z" />
    <glyph glyph-name="ccedilla" unicode="&#xe7;" horiz-adv-x="392" 
d="M355 89l17 -18c-61 -71 -129 -79 -163 -79c-5 0 -11 0 -16 1l-26 -28v-1c10 2 19 2 29 2c15 0 39 -2 59 -15c26 -17 28 -41 28 -51c0 -19 -10 -38 -31 -52c-20 -13 -43 -16 -61 -16c-27 0 -51 6 -64 14c-10 6 -21 18 -21 31c0 14 11 24 24 24c16 0 24 -11 24 -24v-5
c0 -12 17 -18 36 -18c18 0 31 5 42 15c6 6 14 15 14 29c0 13 -6 28 -23 38c-13 7 -28 8 -37 8c-15 0 -32 -4 -48 -11l-19 21l42 44c-83 22 -135 91 -135 187c0 118 80 208 191 208c79 0 124 -34 124 -74c0 -22 -15 -35 -36 -35c-10 0 -38 2 -40 39c-1 14 -1 39 -46 39
c-53 0 -109 -44 -109 -177c0 -130 89 -147 124 -147c38 0 94 21 121 51z" />
    <glyph glyph-name="eacute" unicode="&#xe9;" horiz-adv-x="386" 
d="M360 77c-35 -44 -91 -85 -155 -85c-65 0 -179 33 -179 187c0 128 74 214 176 214c103 0 148 -88 148 -163v-7h-239c-1 -14 -1 -28 -1 -42c0 -57 13 -148 108 -148c51 0 97 33 124 61zM271 254v9c0 72 -36 99 -74 99c-41 0 -82 -28 -84 -108h158zM162 519l105 130
c11 13 25 20 40 20c22 0 37 -15 37 -37c0 -15 -7 -24 -16 -32c-6 -5 -13 -10 -31 -21l-122 -76z" />
    <glyph glyph-name="ecircumflex" unicode="&#xea;" horiz-adv-x="386" 
d="M360 77c-35 -44 -91 -85 -155 -85c-65 0 -179 33 -179 187c0 128 74 214 176 214c103 0 148 -88 148 -163v-7h-239c-1 -14 -1 -28 -1 -42c0 -57 13 -148 108 -148c51 0 97 33 124 61zM271 254v9c0 72 -36 99 -74 99c-41 0 -82 -28 -84 -108h158zM193 594l-104 -91h-31
l110 152h50l110 -152h-31z" />
    <glyph glyph-name="edieresis" unicode="&#xeb;" horiz-adv-x="386" 
d="M360 77c-35 -44 -91 -85 -155 -85c-65 0 -179 33 -179 187c0 128 74 214 176 214c103 0 148 -88 148 -163v-7h-239c-1 -14 -1 -28 -1 -42c0 -57 13 -148 108 -148c51 0 97 33 124 61zM271 254v9c0 72 -36 99 -74 99c-41 0 -82 -28 -84 -108h158zM68 551c0 27 21 48 48 48
s48 -21 48 -48s-21 -48 -48 -48s-48 21 -48 48zM223 551c0 27 21 48 48 48s48 -21 48 -48s-21 -48 -48 -48s-48 21 -48 48z" />
    <glyph glyph-name="egrave" unicode="&#xe8;" horiz-adv-x="386" 
d="M360 77c-35 -44 -91 -85 -155 -85c-65 0 -179 33 -179 187c0 128 74 214 176 214c103 0 148 -88 148 -163v-7h-239c-1 -14 -1 -28 -1 -42c0 -57 13 -148 108 -148c51 0 97 33 124 61zM271 254v9c0 72 -36 99 -74 99c-41 0 -82 -28 -84 -108h158zM238 520l-13 -16l-122 76
c-18 11 -25 16 -31 21c-9 8 -16 17 -16 32c0 22 15 37 37 37c15 0 29 -7 40 -20z" />
    <glyph glyph-name="iacute" unicode="&#xed;" horiz-adv-x="215" 
d="M26 385h118v-284c0 -37 5 -69 45 -72v-29h-163v29c37 4 44 29 44 72v182c0 41 -2 64 -44 73v29zM43 519l105 130c11 13 25 20 40 20c22 0 37 -15 37 -37c0 -15 -7 -24 -16 -32c-6 -5 -13 -10 -31 -21l-122 -76z" />
    <glyph glyph-name="icircumflex" unicode="&#xee;" horiz-adv-x="215" 
d="M26 385h118v-284c0 -37 5 -69 45 -72v-29h-163v29c37 4 44 29 44 72v182c0 41 -2 64 -44 73v29zM108 594l-104 -91h-31l110 152h50l110 -152h-31z" />
    <glyph glyph-name="idieresis" unicode="&#xef;" horiz-adv-x="224" 
d="M36 385h117v-284c0 -37 5 -69 45 -72v-29h-162v29c37 4 44 29 44 72v182c0 41 -2 64 -44 73v29zM-13 573c0 28 21 48 48 48c34 0 49 -29 49 -48c0 -24 -21 -49 -49 -49c-21 0 -48 17 -48 49zM123 573c0 19 15 48 49 48c27 0 48 -20 48 -48c0 -32 -27 -49 -48 -49
c-28 0 -49 25 -49 49z" />
    <glyph glyph-name="igrave" unicode="&#xec;" horiz-adv-x="215" 
d="M26 385h118v-284c0 -37 5 -69 45 -72v-29h-163v29c37 4 44 29 44 72v182c0 41 -2 64 -44 73v29zM122 519l-13 -16l-122 76c-18 11 -25 16 -31 21c-9 8 -16 17 -16 32c0 22 15 37 37 37c15 0 29 -7 40 -20z" />
    <glyph glyph-name="ntilde" unicode="&#xf1;" horiz-adv-x="452" 
d="M26 29c40 5 45 33 45 72v203c0 21 -6 43 -44 52v29h117v-49h3c40 42 89 57 127 57h4c104 -2 103 -79 103 -126v-166c0 -37 5 -69 45 -72v-29h-163v29c40 5 45 33 45 72v169c0 30 -1 81 -59 81c-14 0 -65 -6 -105 -67v-183c0 -43 9 -68 45 -72v-29h-163v29zM362 596h27
c-14 -45 -46 -93 -105 -93c-23 0 -46 6 -70 13l-8 3c-18 5 -34 10 -50 10c-19 0 -37 -6 -55 -26h-25c28 69 70 87 102 87c41 0 102 -27 133 -27c18 0 43 10 51 33z" />
    <glyph glyph-name="oacute" unicode="&#xf3;" 
d="M216 393c37 0 149 -11 183 -147c5 -19 7 -39 7 -59c0 -17 -3 -33 -7 -49c-35 -138 -156 -146 -183 -146s-148 8 -183 146c-4 16 -7 32 -7 49c0 20 2 40 7 59c34 136 146 147 183 147zM216 362c-56 0 -106 -25 -106 -170c0 -48 -2 -169 106 -169s106 121 106 169
c0 145 -50 170 -106 170zM172 519l105 130c11 13 25 20 40 20c22 0 37 -15 37 -37c0 -15 -7 -24 -16 -32c-6 -5 -13 -10 -31 -21l-122 -76z" />
    <glyph glyph-name="ocircumflex" unicode="&#xf4;" 
d="M216 393c37 0 149 -11 183 -147c5 -19 7 -39 7 -59c0 -17 -3 -33 -7 -49c-35 -138 -156 -146 -183 -146s-148 8 -183 146c-4 16 -7 32 -7 49c0 20 2 40 7 59c34 136 146 147 183 147zM216 362c-56 0 -106 -25 -106 -170c0 -48 -2 -169 106 -169s106 121 106 169
c0 145 -50 170 -106 170zM216 594l-104 -91h-31l110 152h50l110 -152h-31z" />
    <glyph glyph-name="odieresis" unicode="&#xf6;" 
d="M216 393c37 0 149 -11 183 -147c5 -19 7 -39 7 -59c0 -17 -3 -33 -7 -49c-35 -138 -156 -146 -183 -146s-148 8 -183 146c-4 16 -7 32 -7 49c0 20 2 40 7 59c34 136 146 147 183 147zM216 362c-56 0 -106 -25 -106 -170c0 -48 -2 -169 106 -169s106 121 106 169
c0 145 -50 170 -106 170zM91 551c0 27 21 48 48 48s48 -21 48 -48s-21 -48 -48 -48s-48 21 -48 48zM246 551c0 27 21 48 48 48s48 -21 48 -48s-21 -48 -48 -48s-48 21 -48 48z" />
    <glyph glyph-name="ograve" unicode="&#xf2;" 
d="M216 393c37 0 149 -11 183 -147c5 -19 7 -39 7 -59c0 -17 -3 -33 -7 -49c-35 -138 -156 -146 -183 -146s-148 8 -183 146c-4 16 -7 32 -7 49c0 20 2 40 7 59c34 136 146 147 183 147zM216 362c-56 0 -106 -25 -106 -170c0 -48 -2 -169 106 -169s106 121 106 169
c0 145 -50 170 -106 170zM255 519l-13 -16l-122 76c-18 11 -25 16 -31 21c-9 8 -16 17 -16 32c0 22 15 37 37 37c15 0 29 -7 40 -20z" />
    <glyph glyph-name="otilde" unicode="&#xf5;" 
d="M216 393c37 0 149 -11 183 -147c5 -19 7 -39 7 -59c0 -17 -3 -33 -7 -49c-35 -138 -156 -146 -183 -146s-148 8 -183 146c-4 16 -7 32 -7 49c0 20 2 40 7 59c34 136 146 147 183 147zM216 362c-56 0 -106 -25 -106 -170c0 -48 -2 -169 106 -169s106 121 106 169
c0 145 -50 170 -106 170zM346 596h27c-14 -45 -46 -93 -105 -93c-23 0 -46 6 -70 13l-8 3c-18 5 -34 10 -50 10c-19 0 -37 -6 -55 -26h-25c28 69 70 87 102 87c41 0 102 -27 133 -27c18 0 43 10 51 33z" />
    <glyph glyph-name="scaron" unicode="&#x161;" horiz-adv-x="341" 
d="M166 393c82 0 123 -39 123 -75c0 -22 -16 -30 -31 -30c-32 0 -38 32 -40 42c0 5 -5 32 -50 32c-41 0 -75 -20 -75 -60c0 -44 32 -55 84 -69c48 -13 138 -34 138 -120c0 -71 -65 -121 -150 -121c-100 0 -139 53 -139 89c0 21 13 42 40 42c28 0 38 -18 38 -32
c0 -10 -4 -19 -4 -29c0 -14 16 -39 64 -39c56 0 81 33 81 66c0 41 -40 55 -63 63c-42 14 -70 19 -99 40c-38 27 -44 58 -44 84c0 72 54 117 127 117zM171 564l104 91h31l-110 -152h-50l-110 152h31z" />
    <glyph glyph-name="uacute" unicode="&#xfa;" horiz-adv-x="450" 
d="M379 385v-283c0 -41 3 -64 45 -73v-29h-118v49h-3c-44 -46 -96 -57 -125 -57c-99 0 -108 73 -108 111v200c0 32 -12 53 -44 53v29h117v-270c0 -29 1 -81 59 -81c13 0 64 6 104 67v203c0 20 -5 48 -44 52v29h117zM176 519l105 130c11 13 25 20 40 20c22 0 37 -15 37 -37
c0 -15 -7 -24 -16 -32c-6 -5 -13 -10 -31 -21l-122 -76z" />
    <glyph glyph-name="ucircumflex" unicode="&#xfb;" horiz-adv-x="450" 
d="M379 385v-283c0 -41 3 -64 45 -73v-29h-118v49h-3c-44 -46 -96 -57 -125 -57c-99 0 -108 73 -108 111v200c0 32 -12 53 -44 53v29h117v-270c0 -29 1 -81 59 -81c13 0 64 6 104 67v203c0 20 -5 48 -44 52v29h117zM225 594l-104 -91h-31l110 152h50l110 -152h-31z" />
    <glyph glyph-name="udieresis" unicode="&#xfc;" horiz-adv-x="450" 
d="M379 385v-283c0 -41 3 -64 45 -73v-29h-118v49h-3c-44 -46 -96 -57 -125 -57c-99 0 -108 73 -108 111v200c0 32 -12 53 -44 53v29h117v-270c0 -29 1 -81 59 -81c13 0 64 6 104 67v203c0 20 -5 48 -44 52v29h117zM100 551c0 27 21 48 48 48s48 -21 48 -48s-21 -48 -48 -48
s-48 21 -48 48zM255 551c0 27 21 48 48 48s48 -21 48 -48s-21 -48 -48 -48s-48 21 -48 48z" />
    <glyph glyph-name="ugrave" unicode="&#xf9;" horiz-adv-x="450" 
d="M379 385v-283c0 -41 3 -64 45 -73v-29h-118v49h-3c-44 -46 -96 -57 -125 -57c-99 0 -108 73 -108 111v200c0 32 -12 53 -44 53v29h117v-270c0 -29 1 -81 59 -81c13 0 64 6 104 67v203c0 20 -5 48 -44 52v29h117zM263 519l-13 -16l-122 76c-18 11 -25 16 -31 21
c-9 8 -16 17 -16 32c0 22 15 37 37 37c15 0 29 -7 40 -20z" />
    <glyph glyph-name="yacute" unicode="&#xfd;" horiz-adv-x="429" 
d="M429 385v-29c-41 -9 -50 -39 -60 -60l-157 -348c-36 -79 -66 -132 -135 -132c-35 0 -69 16 -69 53c0 30 20 43 37 43c14 0 24 -6 31 -11c9 -7 16 -14 33 -14c26 0 43 21 55 48l30 66l-118 294c-15 39 -36 64 -71 61v29h184v-29h-10c-19 0 -29 -10 -29 -25
c0 -8 6 -25 9 -32l77 -193h4l80 177c3 8 13 28 13 42c0 13 -9 33 -39 31v29h135zM179 519l105 130c11 13 25 20 40 20c22 0 37 -15 37 -37c0 -15 -7 -24 -16 -32c-6 -5 -13 -10 -31 -21l-122 -76z" />
    <glyph glyph-name="ydieresis" unicode="&#xff;" horiz-adv-x="429" 
d="M429 385v-29c-41 -9 -50 -39 -60 -60l-157 -348c-36 -79 -66 -132 -135 -132c-35 0 -69 16 -69 53c0 30 20 43 37 43c14 0 24 -6 31 -11c9 -7 16 -14 33 -14c26 0 43 21 55 48l30 66l-118 294c-15 39 -36 64 -71 61v29h184v-29h-10c-19 0 -29 -10 -29 -25
c0 -8 6 -25 9 -32l77 -193h4l80 177c3 8 13 28 13 42c0 13 -9 33 -39 31v29h135zM94 551c0 27 21 48 48 48s48 -21 48 -48s-21 -48 -48 -48s-48 21 -48 48zM249 551c0 27 21 48 48 48s48 -21 48 -48s-21 -48 -48 -48s-48 21 -48 48z" />
    <glyph glyph-name="zcaron" unicode="&#x17e;" horiz-adv-x="385" 
d="M45 303v82h307v-19l-227 -331v-4h121c39 0 84 3 97 57h29v-88h-346v27l222 327h-91c-26 0 -77 -2 -83 -51h-29zM193 564l104 91h31l-110 -152h-50l-110 152h31z" />
    <glyph glyph-name="Amacron" unicode="&#x100;" horiz-adv-x="724" 
d="M379 708l270 -600c18 -41 39 -72 75 -74v-34h-196v34c33 5 36 16 36 39c0 4 -3 15 -9 29l-40 90h-348l-39 -85c-11 -24 -12 -32 -12 -35c0 -11 4 -31 39 -38v-34h-155v34c42 3 70 51 79 71l225 486c8 17 9 21 9 25c0 12 -11 15 -24 15v34c24 6 56 27 70 43h20zM497 231
l-148 329h-11l-153 -329h312zM220 756v46h274v-46h-274z" />
    <glyph glyph-name="amacron" unicode="&#x101;" horiz-adv-x="399" 
d="M385 39l7 -11c-16 -24 -37 -36 -64 -36c-38 0 -58 30 -65 55h-2c-26 -28 -65 -55 -118 -55c-77 0 -117 47 -117 106c0 103 101 133 227 141c0 71 -9 123 -74 123c-17 0 -39 -6 -49 -33c-7 -18 -6 -42 -38 -42c-10 0 -32 5 -32 30c0 31 44 76 128 76
c134 0 138 -103 138 -171v-126c0 -15 0 -62 41 -62c6 0 12 2 18 5zM253 171v35c-122 -6 -149 -65 -149 -106c0 -44 33 -66 70 -66c73 0 79 73 79 137zM61 556h278v-53h-278v53z" />
    <glyph glyph-name="Abreve" unicode="&#x102;" horiz-adv-x="724" 
d="M379 708l270 -600c18 -41 39 -72 75 -74v-34h-196v34c33 5 36 16 36 39c0 4 -3 15 -9 29l-40 90h-348l-39 -85c-11 -24 -12 -32 -12 -35c0 -11 4 -31 39 -38v-34h-155v34c42 3 70 51 79 71l225 486c8 17 9 21 9 25c0 12 -11 15 -24 15v34c24 6 56 27 70 43h20zM497 231
l-148 329h-11l-153 -329h312zM452 860h33c-2 -36 -20 -74 -47 -96c-12 -9 -39 -27 -87 -27s-75 18 -87 27c-27 22 -45 60 -47 96h33c2 -10 9 -32 32 -50c17 -13 42 -22 69 -22s52 9 69 22c23 18 30 40 32 50z" />
    <glyph glyph-name="abreve" unicode="&#x103;" horiz-adv-x="399" 
d="M385 39l7 -11c-16 -24 -37 -36 -64 -36c-38 0 -58 30 -65 55h-2c-26 -28 -65 -55 -118 -55c-77 0 -117 47 -117 106c0 103 101 133 227 141c0 71 -9 123 -74 123c-17 0 -39 -6 -49 -33c-7 -18 -6 -42 -38 -42c-10 0 -32 5 -32 30c0 31 44 76 128 76
c134 0 138 -103 138 -171v-126c0 -15 0 -62 41 -62c6 0 12 2 18 5zM253 171v35c-122 -6 -149 -65 -149 -106c0 -44 33 -66 70 -66c73 0 79 73 79 137zM66 636h33c3 -44 51 -82 101 -82c48 0 95 33 101 82h33c-3 -54 -34 -133 -131 -133c-105 0 -133 84 -137 133z" />
    <glyph glyph-name="Aogonek" unicode="&#x104;" horiz-adv-x="724" 
d="M379 708l270 -600c18 -41 39 -72 75 -74v-34c-22 -7 -57 -21 -72 -29c-29 -16 -56 -37 -56 -73c0 -9 3 -43 53 -43c21 0 45 5 73 31l14 -18c-38 -37 -74 -59 -118 -59c-49 0 -82 31 -82 69c0 21 8 43 21 59c22 27 56 42 107 63h-136v34c33 5 36 16 36 39c0 4 -3 15 -9 29
l-40 90h-348l-39 -85c-11 -24 -12 -32 -12 -35c0 -11 4 -31 39 -38v-34h-155v34c42 3 70 51 79 71l225 486c8 17 9 21 9 25c0 12 -11 15 -24 15v34c24 6 56 27 70 43h20zM497 231l-148 329h-11l-153 -329h312z" />
    <glyph glyph-name="aogonek" unicode="&#x105;" horiz-adv-x="399" 
d="M385 39l7 -11c-10 -15 -21 -23 -31 -29c-28 -18 -69 -42 -67 -78c1 -18 13 -35 43 -35s53 15 66 25l9 -13c-25 -28 -62 -48 -101 -48c-45 0 -67 30 -67 61c0 37 31 60 73 82c-27 5 -47 27 -54 54h-2c-26 -28 -65 -55 -118 -55c-77 0 -117 47 -117 106
c0 103 101 133 227 141c0 71 -9 123 -74 123c-17 0 -39 -6 -49 -33c-7 -18 -6 -42 -38 -42c-10 0 -32 5 -32 30c0 31 44 76 128 76c134 0 138 -103 138 -171v-126c0 -15 0 -62 41 -62c6 0 12 2 18 5zM253 171v35c-122 -6 -149 -65 -149 -106c0 -44 33 -66 70 -66
c73 0 79 73 79 137z" />
    <glyph glyph-name="Cacute" unicode="&#x106;" horiz-adv-x="686" 
d="M620 530h-34c-39 101 -131 139 -208 139c-113 0 -239 -102 -239 -324c0 -204 107 -314 258 -314c87 0 176 48 229 109l21 -23c-61 -69 -152 -125 -269 -125c-193 0 -339 133 -339 354c0 208 137 362 331 362c50 0 92 -8 140 -22c39 -11 57 -14 71 -14c12 0 21 9 24 12h15
v-154zM336 758l121 100c11 9 25 18 38 22c6 2 12 3 18 3c23 0 39 -16 39 -36c0 -22 -15 -34 -25 -40c-14 -8 -24 -11 -37 -16l-143 -54z" />
    <glyph glyph-name="cacute" unicode="&#x107;" horiz-adv-x="392" 
d="M355 89l17 -18c-34 -39 -87 -79 -160 -79c-95 0 -186 66 -186 193c0 118 80 208 191 208c84 0 125 -39 125 -74c0 -17 -13 -35 -37 -35c-10 0 -38 2 -40 39v2c-1 14 -3 37 -46 37c-53 0 -109 -44 -109 -177c0 -130 89 -147 124 -147c38 0 94 21 121 51zM157 519l105 130
c11 13 25 20 40 20c22 0 37 -15 37 -37c0 -15 -7 -24 -16 -32c-6 -5 -13 -10 -31 -21l-122 -76z" />
    <glyph glyph-name="Ccircumflex" unicode="&#x108;" horiz-adv-x="686" 
d="M620 530h-34c-39 101 -131 139 -208 139c-113 0 -239 -102 -239 -324c0 -204 107 -314 258 -314c87 0 176 48 229 109l21 -23c-61 -69 -152 -125 -269 -125c-193 0 -339 133 -339 354c0 208 137 362 331 362c50 0 92 -8 140 -22c39 -11 57 -14 71 -14c12 0 21 9 24 12h15
v-154zM386 816l-112 -79h-40l126 145h52l126 -145h-40z" />
    <glyph glyph-name="ccircumflex" unicode="&#x109;" horiz-adv-x="392" 
d="M355 89l17 -18c-34 -39 -87 -79 -160 -79c-95 0 -186 66 -186 193c0 118 80 208 191 208c84 0 125 -39 125 -74c0 -17 -13 -35 -37 -35c-10 0 -38 2 -40 39v2c-1 14 -3 37 -46 37c-53 0 -109 -44 -109 -177c0 -130 89 -147 124 -147c38 0 94 21 121 51zM201 594l-104 -91
h-31l110 152h50l110 -152h-31z" />
    <glyph glyph-name="Ccaron" unicode="&#x10c;" horiz-adv-x="686" 
d="M620 530h-34c-39 101 -131 139 -208 139c-113 0 -239 -102 -239 -324c0 -204 107 -314 258 -314c87 0 176 48 229 109l21 -23c-61 -69 -152 -125 -269 -125c-193 0 -339 133 -339 354c0 208 137 362 331 362c50 0 92 -8 140 -22c39 -11 57 -14 71 -14c12 0 21 9 24 12h15
v-154zM377 803l112 79h40l-126 -145h-52l-126 145h40z" />
    <glyph glyph-name="ccaron" unicode="&#x10d;" horiz-adv-x="392" 
d="M355 89l17 -18c-34 -39 -87 -79 -160 -79c-95 0 -186 66 -186 193c0 118 80 208 191 208c84 0 125 -39 125 -74c0 -17 -13 -35 -37 -35c-10 0 -38 2 -40 39v2c-1 14 -3 37 -46 37c-53 0 -109 -44 -109 -177c0 -130 89 -147 124 -147c38 0 94 21 121 51zM199 564l104 91
h31l-110 -152h-50l-110 152h31z" />
    <glyph glyph-name="Dcaron" unicode="&#x10e;" horiz-adv-x="765" 
d="M52 700h293c137 0 245 -41 318 -145c34 -48 63 -117 63 -211c0 -43 -7 -146 -88 -238c-66 -75 -157 -106 -292 -106h-294v34c50 4 60 38 60 81v470c0 43 -10 77 -60 81v34zM198 39h126c103 0 302 37 302 308c0 292 -238 314 -302 314h-126v-622zM295 803l112 79h40
l-126 -145h-52l-126 145h40z" />
    <glyph glyph-name="dcaron" unicode="&#x10f;" horiz-adv-x="533" 
d="M414 708v-627c0 -29 17 -50 44 -52v-29h-117v33h-6c-43 -34 -80 -41 -112 -41c-89 0 -197 51 -197 195c0 140 92 206 181 206c38 0 84 -7 125 -34h9v266c0 35 -23 49 -39 54v29h112zM341 101v203c-19 44 -66 58 -99 58c-54 0 -132 -30 -132 -170c0 -112 48 -169 117 -169
c51 0 104 35 114 78zM487 487l-20 21c50 42 63 71 67 91l-2 3c-6 -1 -11 -1 -17 0c-30 3 -48 23 -48 50v4c2 27 19 52 56 52c32 0 63 -19 63 -70c0 -58 -47 -119 -99 -151z" />
    <glyph glyph-name="Dcroat" unicode="&#x110;" horiz-adv-x="795" 
d="M82 700h293c137 0 245 -41 318 -145c34 -48 63 -117 63 -211c0 -43 -7 -146 -88 -238c-66 -75 -157 -106 -292 -106h-294v34c50 4 60 38 60 81v224h-90v39h90v207c0 43 -10 77 -60 81v34zM228 39h126c103 0 302 37 302 308c0 292 -238 314 -302 314h-126v-283h105v-39
h-105v-300z" />
    <glyph glyph-name="dcroat" unicode="&#x111;" horiz-adv-x="521" 
d="M414 708v-187h81v-31h-81v-409c0 -29 17 -50 44 -52v-29h-117v33h-6c-43 -34 -80 -41 -112 -41c-89 0 -197 51 -197 195c0 145 100 206 197 206c56 0 93 -24 109 -34h9v131h-160v31h160v104c0 35 -23 49 -39 54v29h112zM341 101v203c-19 44 -66 58 -99 58
c-54 0 -132 -30 -132 -170c0 -112 48 -169 117 -169c51 0 104 35 114 78z" />
    <glyph glyph-name="Emacron" unicode="&#x112;" horiz-adv-x="655" 
d="M52 700h394c96 0 53 11 125 8v-133h-34c-20 76 -82 86 -156 86h-183v-287h125c25 0 71 -3 82 56h33v-151h-33c-17 59 -38 56 -82 56h-125v-296h205c104 0 185 21 192 111h34l-11 -150h-566v34c45 5 60 37 60 81v470c0 46 -10 80 -60 81v34zM174 756v46h274v-46h-274z" />
    <glyph glyph-name="emacron" unicode="&#x113;" horiz-adv-x="386" 
d="M360 77c-35 -44 -91 -85 -155 -85c-65 0 -179 33 -179 187c0 128 74 214 176 214c103 0 148 -88 148 -163v-7h-239c-1 -14 -1 -28 -1 -42c0 -57 13 -148 108 -148c51 0 97 33 124 61zM271 254v9c0 72 -36 99 -74 99c-41 0 -82 -28 -84 -108h158zM54 556h278v-53h-278v53z
" />
    <glyph glyph-name="Edotaccent" unicode="&#x116;" horiz-adv-x="655" 
d="M52 700h394c96 0 53 11 125 8v-133h-34c-20 76 -82 86 -156 86h-183v-287h125c25 0 71 -3 82 56h33v-151h-33c-17 59 -38 56 -82 56h-125v-296h205c104 0 185 21 192 111h34l-11 -150h-566v34c45 5 60 37 60 81v470c0 46 -10 80 -60 81v34zM258 814c0 36 30 66 66 66
s66 -30 66 -66s-30 -66 -66 -66s-66 30 -66 66z" />
    <glyph glyph-name="edotaccent" unicode="&#x117;" horiz-adv-x="386" 
d="M360 77c-35 -44 -91 -85 -155 -85c-65 0 -179 33 -179 187c0 128 74 214 176 214c103 0 148 -88 148 -163v-7h-239c-1 -14 -1 -28 -1 -42c0 -57 13 -148 108 -148c51 0 97 33 124 61zM271 254v9c0 72 -36 99 -74 99c-41 0 -82 -28 -84 -108h158zM144 551
c0 27 21 48 48 48s48 -21 48 -48s-21 -48 -48 -48s-48 21 -48 48z" />
    <glyph glyph-name="Eogonek" unicode="&#x118;" horiz-adv-x="655" 
d="M52 700h394c96 0 53 11 125 8v-133h-34c-20 76 -82 86 -156 86h-183v-287h125c25 0 71 -3 82 56h33v-151h-33c-17 59 -38 56 -82 56h-125v-296h205c104 0 185 21 192 111h34l-11 -150h-34c-22 -7 -57 -21 -72 -29c-29 -16 -56 -37 -56 -73c0 -9 3 -43 53 -43
c21 0 45 5 73 31l14 -18c-38 -37 -74 -59 -118 -59c-49 0 -82 31 -82 69c0 21 8 43 21 59c22 27 56 42 107 63h-472v34c45 5 60 37 60 81v470c0 46 -10 80 -60 81v34z" />
    <glyph glyph-name="eogonek" unicode="&#x119;" horiz-adv-x="386" 
d="M360 77c-25 -32 -35 -37 -70 -61l-31 -29c-32 -29 -35 -52 -34 -66c2 -22 17 -35 43 -35c30 0 53 15 66 25l9 -13c-25 -28 -62 -48 -101 -48c-46 0 -67 31 -67 61c0 26 13 55 57 82l-1 2c-9 -2 -17 -3 -26 -3c-65 0 -179 33 -179 187c0 128 74 214 176 214
c106 0 151 -93 148 -170h-239c-1 -14 -1 -28 -1 -42c0 -57 13 -148 108 -148c51 0 97 33 124 61zM271 254c3 78 -35 108 -74 108c-41 0 -82 -28 -84 -108h158z" />
    <glyph glyph-name="Ecaron" unicode="&#x11a;" horiz-adv-x="655" 
d="M52 700h394c96 0 53 11 125 8v-133h-34c-20 76 -82 86 -156 86h-183v-287h125c25 0 71 -3 82 56h33v-151h-33c-17 59 -38 56 -82 56h-125v-296h205c104 0 185 21 192 111h34l-11 -150h-566v34c45 5 60 37 60 81v470c0 46 -10 80 -60 81v34zM314 803l112 79h40l-126 -145
h-52l-126 145h40z" />
    <glyph glyph-name="ecaron" unicode="&#x11b;" horiz-adv-x="386" 
d="M360 77c-35 -44 -91 -85 -155 -85c-65 0 -179 33 -179 187c0 128 74 214 176 214c103 0 148 -88 148 -163v-7h-239c-1 -14 -1 -28 -1 -42c0 -57 13 -148 108 -148c51 0 97 33 124 61zM271 254v9c0 72 -36 99 -74 99c-41 0 -82 -28 -84 -108h158zM193 564l104 91h31
l-110 -152h-50l-110 152h31z" />
    <glyph glyph-name="Gcircumflex" unicode="&#x11c;" horiz-adv-x="719" 
d="M635 681v-154h-34c-56 142 -195 142 -222 142c-118 0 -240 -87 -240 -305c0 -214 100 -288 150 -311c42 -20 88 -22 127 -22c99 0 170 54 178 141c6 68 -34 82 -59 83v34h145v-243c-127 -43 -188 -54 -267 -54c-55 0 -188 3 -277 93c-75 76 -97 175 -97 281
c0 78 30 161 79 222c17 21 101 120 260 120c72 0 117 -13 152 -27c15 -6 34 -12 54 -12c5 0 9 2 13 5c2 2 4 4 6 7h32zM383 817l-112 -79h-40l126 145h52l126 -145h-40z" />
    <glyph glyph-name="gcircumflex" unicode="&#x11d;" horiz-adv-x="435" 
d="M41 -8l-15 34l78 128c-31 17 -62 49 -62 104c0 84 68 135 154 135c41 0 93 -13 126 -44c5 15 18 42 51 42c32 0 49 -21 49 -47c0 -22 -13 -34 -31 -34c-13 0 -24 8 -24 23c0 3 1 7 2 10c2 5 6 8 6 13c0 3 -1 8 -9 8c-11 0 -21 -11 -23 -25c-1 -2 -1 -4 -1 -6s0 -4 1 -6
c2 -12 14 -27 14 -66c0 -92 -82 -132 -155 -132c-16 0 -40 2 -66 11l-46 -73l3 -4c25 8 32 12 48 18c25 9 56 15 85 15c78 0 175 -42 175 -135c0 -74 -72 -127 -175 -127c-89 0 -163 37 -163 96c0 26 17 46 44 46c30 0 38 -20 38 -34c0 -6 -2 -12 -5 -17
c-5 -9 -14 -17 -14 -26c0 -13 21 -34 87 -34c129 0 137 65 137 84c0 60 -60 77 -135 77c-31 0 -96 -5 -174 -34zM200 362c-60 0 -74 -41 -74 -101c0 -91 41 -101 74 -101c32 0 73 9 73 102c0 58 -15 100 -73 100zM206 594l-104 -91h-31l110 152h50l110 -152h-31z" />
    <glyph glyph-name="Gbreve" unicode="&#x11e;" horiz-adv-x="719" 
d="M635 681v-154h-34c-56 142 -195 142 -222 142c-118 0 -240 -87 -240 -305c0 -214 100 -288 150 -311c42 -20 88 -22 127 -22c99 0 170 54 178 141c6 68 -34 82 -59 83v34h145v-243c-127 -43 -188 -54 -267 -54c-55 0 -188 3 -277 93c-75 76 -97 175 -97 281
c0 78 30 161 79 222c17 21 101 120 260 120c72 0 117 -13 152 -27c15 -6 34 -12 54 -12c5 0 9 2 13 5c2 2 4 4 6 7h32zM482 860h33c-2 -36 -20 -74 -47 -96c-12 -9 -39 -27 -87 -27s-75 18 -87 27c-27 22 -45 60 -47 96h33c2 -10 9 -32 32 -50c17 -13 42 -22 69 -22
s52 9 69 22c23 18 30 40 32 50z" />
    <glyph glyph-name="gbreve" unicode="&#x11f;" horiz-adv-x="435" 
d="M41 -8l-15 34l78 128c-31 17 -62 49 -62 104c0 84 68 135 154 135c41 0 93 -13 126 -44c5 15 18 42 51 42c32 0 49 -21 49 -47c0 -22 -13 -34 -31 -34c-13 0 -24 8 -24 23c0 3 1 7 2 10c2 5 6 8 6 13c0 3 -1 8 -9 8c-11 0 -21 -11 -23 -25c-1 -2 -1 -4 -1 -6s0 -4 1 -6
c2 -12 14 -27 14 -66c0 -92 -82 -132 -155 -132c-16 0 -40 2 -66 11l-46 -73l3 -4c25 8 32 12 48 18c25 9 56 15 85 15c78 0 175 -42 175 -135c0 -74 -72 -127 -175 -127c-89 0 -163 37 -163 96c0 26 17 46 44 46c30 0 38 -20 38 -34c0 -6 -2 -12 -5 -17
c-5 -9 -14 -17 -14 -26c0 -13 21 -34 87 -34c129 0 137 65 137 84c0 60 -60 77 -135 77c-31 0 -96 -5 -174 -34zM200 362c-60 0 -74 -41 -74 -101c0 -91 41 -101 74 -101c32 0 73 9 73 102c0 58 -15 100 -73 100zM79 636h33c3 -44 51 -82 101 -82c48 0 95 33 101 82h33
c-3 -54 -34 -133 -131 -133c-105 0 -133 84 -137 133z" />
    <glyph glyph-name="Gcommaaccent" unicode="&#x122;" horiz-adv-x="719" 
d="M635 681v-154h-34c-56 142 -195 142 -222 142c-118 0 -240 -87 -240 -305c0 -214 100 -288 150 -311c42 -20 88 -22 127 -22c99 0 170 54 178 141c6 68 -34 82 -59 83v34h145v-243c-127 -43 -188 -54 -267 -54c-55 0 -188 3 -277 93c-75 76 -97 175 -97 281
c0 78 30 161 79 222c17 21 101 120 260 120c72 0 117 -13 152 -27c15 -6 34 -12 54 -12c5 0 9 2 13 5c2 2 4 4 6 7h32zM320 -284l-20 21c50 42 63 71 67 91l-2 3c-6 -1 -11 -1 -17 0c-32 3 -48 25 -48 54c0 27 19 52 56 52c32 0 63 -19 63 -70c0 -58 -47 -119 -99 -151z" />
    <glyph glyph-name="gcommaaccent" unicode="&#x123;" horiz-adv-x="435" 
d="M41 -8l-15 34l78 128c-31 17 -62 49 -62 104c0 84 68 135 154 135c41 0 93 -13 126 -44c5 15 18 42 51 42c32 0 49 -21 49 -47c0 -22 -13 -34 -31 -34c-13 0 -24 8 -24 23c0 3 1 7 2 10c2 5 6 8 6 13c0 3 -1 8 -9 8c-11 0 -21 -11 -23 -25c-1 -4 -1 -8 0 -12
c2 -12 14 -27 14 -66c0 -92 -82 -132 -155 -132c-16 0 -40 2 -66 11l-46 -73l3 -4c13 5 33 13 48 18c23 8 51 15 85 15c78 0 175 -42 175 -135c0 -74 -72 -127 -175 -127c-89 0 -163 37 -163 96c0 26 17 46 44 46c30 0 38 -20 38 -34c0 -6 -2 -12 -5 -17
c-5 -9 -14 -17 -14 -26c0 -14 25 -33 87 -33c114 0 137 50 137 83c0 60 -60 77 -135 77c-31 0 -96 -5 -174 -34zM200 362c-60 0 -74 -41 -74 -101c0 -91 41 -101 74 -101c32 0 73 9 73 102c0 58 -15 100 -73 100zM257 708l20 -21c-50 -42 -63 -71 -67 -91l2 -3
c6 1 11 1 17 0c32 -3 48 -25 48 -54c0 -27 -19 -52 -56 -52c-32 0 -63 19 -63 70c0 58 47 119 99 151z" />
    <glyph glyph-name="Hcircumflex" unicode="&#x124;" horiz-adv-x="798" 
d="M256 700v-34c-44 -4 -59 -32 -59 -81v-209h403v209c0 51 -15 76 -59 81v34h205v-34c-55 -5 -60 -52 -60 -81v-470c0 -49 18 -77 60 -81v-34h-205v34c44 5 59 30 59 81v222h-403v-222c0 -44 11 -77 59 -81v-34h-204v34c48 4 59 37 59 81v470c0 44 -11 77 -59 81v34h204z
M392 816l-112 -79h-40l126 145h52l126 -145h-40z" />
    <glyph glyph-name="hcircumflex" unicode="&#x125;" horiz-adv-x="451" 
d="M27 700h117v-358h7c31 28 75 51 125 51c76 0 105 -45 105 -126v-167c0 -25 -2 -66 44 -71v-29h-161v29c44 6 44 38 44 71v170c0 46 -10 81 -60 81c-42 0 -84 -31 -104 -72v-178c0 -37 5 -69 45 -72v-29h-163v29c40 5 45 33 45 72v518c0 46 -37 51 -44 52v29zM216 823
l-104 -91h-31l110 152h50l110 -152h-31z" />
    <glyph glyph-name="Imacron" unicode="&#x12a;" horiz-adv-x="308" 
d="M256 700v-34c-50 -3 -59 -46 -59 -81v-470c0 -48 16 -76 59 -81v-34h-204v34c43 5 59 33 59 81v470c0 44 -12 77 -59 81v34h204zM16 756v46h274v-46h-274z" />
    <glyph glyph-name="imacron" unicode="&#x12b;" horiz-adv-x="215" 
d="M26 385h118v-284c0 -37 5 -69 45 -72v-29h-163v29c37 4 44 29 44 72v182c0 41 -2 64 -44 73v29zM-33 556h278v-53h-278v53z" />
    <glyph glyph-name="Iogonek" unicode="&#x12e;" horiz-adv-x="308" 
d="M256 700v-34c-50 -3 -59 -46 -59 -81v-470c0 -48 16 -76 59 -81v-34h-19c-29 -18 -70 -44 -68 -79c1 -18 13 -35 43 -35s53 15 66 25l9 -13c-25 -28 -62 -48 -101 -48c-45 0 -67 30 -67 61c0 44 45 68 85 89h-152v34c43 5 59 33 59 81v470c0 44 -12 77 -59 81v34h204z
" />
    <glyph glyph-name="iogonek" unicode="&#x12f;" horiz-adv-x="214" 
d="M26 385h117v-284c0 -37 5 -69 45 -72v-29c-29 -13 -75 -43 -73 -79c1 -18 13 -35 43 -35s53 15 66 25l9 -13c-25 -28 -62 -48 -101 -48c-45 0 -67 30 -67 61c0 44 45 68 85 89h-124v29c37 4 44 29 44 72v182c0 41 -2 64 -44 73v29zM47 565c0 21 18 48 49 48
c27 0 48 -21 48 -48c0 -31 -27 -49 -48 -49c-26 0 -49 23 -49 49z" />
    <glyph glyph-name="Idotaccent" unicode="&#x130;" horiz-adv-x="308" 
d="M256 700v-34c-50 -3 -59 -46 -59 -81v-470c0 -48 16 -76 59 -81v-34h-204v34c43 5 59 33 59 81v470c0 44 -12 77 -59 81v34h204zM89 814c0 36 30 66 66 66s66 -30 66 -66s-30 -66 -66 -66s-66 30 -66 66z" />
    <glyph glyph-name="Jcircumflex" unicode="&#x134;" horiz-adv-x="350" 
d="M93 700h205v-34c-54 -6 -59 -51 -59 -81v-490c0 -183 -102 -252 -178 -252c-56 0 -87 34 -87 65c0 27 18 48 42 48c17 0 41 -9 41 -36c0 -15 -2 -11 -2 -18c0 -8 6 -19 27 -19c60 0 71 93 71 174v528c0 29 -5 76 -60 81v34zM161 816l-112 -79h-40l126 145h52l126 -145
h-40z" />
    <glyph glyph-name="jcircumflex" unicode="&#x135;" horiz-adv-x="210" 
d="M11 385h144v-361c0 -55 -5 -106 -29 -147c-29 -50 -76 -61 -105 -61c-38 0 -60 22 -60 45c0 22 17 31 34 31c13 0 22 -7 29 -15c9 -10 15 -20 34 -20c8 0 24 3 24 30v396c0 48 -13 73 -55 73h-16v29zM105 587l-104 -91h-31l110 152h50l110 -152h-31z" />
    <glyph glyph-name="Kcommaaccent" unicode="&#x136;" horiz-adv-x="741" 
d="M52 700h205v-34c-44 -4 -59 -32 -59 -81v-214h6l271 221c8 7 33 28 33 49c0 19 -20 25 -31 25h-7v34h210v-34c-66 -16 -106 -47 -143 -77l-207 -169l294 -313c42 -44 75 -67 117 -73v-34h-257v34h8c21 0 36 10 36 30c0 17 -11 30 -23 43l-242 258l-65 -53v-197
c0 -42 12 -76 59 -81v-34h-205v34c44 5 60 32 60 81v470c0 47 -16 77 -60 81v34zM331 -284l-20 21c50 42 63 71 67 91l-2 3c-6 -1 -11 -1 -17 0c-32 3 -48 25 -48 54c0 27 19 52 56 52c32 0 63 -19 63 -70c0 -58 -47 -119 -99 -151z" />
    <glyph glyph-name="kcommaaccent" unicode="&#x137;" horiz-adv-x="423" 
d="M143 700v-472l97 83c18 15 23 22 23 28c0 9 -11 17 -28 17v29h155v-29c-44 -4 -75 -28 -103 -52l-57 -49l133 -171c29 -38 44 -54 67 -55v-29h-181v29c22 -2 37 7 37 20c0 9 -6 17 -11 23l-102 131l-30 -26v-76c0 -43 7 -68 44 -72v-29h-161v29c37 4 44 29 44 72v498
c0 43 -7 68 -44 72v29h117zM172 -284l-20 21c50 42 63 71 67 91l-2 3c-6 -1 -11 -1 -17 0c-30 3 -48 23 -48 50v4c2 27 19 52 56 52c32 0 63 -19 63 -70c0 -58 -47 -119 -99 -151z" />
    <glyph glyph-name="Lacute" unicode="&#x139;" horiz-adv-x="616" 
d="M256 700v-34c-42 -4 -59 -30 -59 -81v-546h214c87 0 133 66 145 126h34v-165h-538v34c47 4 59 37 59 81v470c0 51 -17 77 -59 81v34h204zM166 758l121 100c11 9 25 18 38 22c6 2 12 3 18 3c23 0 39 -16 39 -36c0 -22 -15 -34 -25 -40c-14 -8 -24 -11 -37 -16l-143 -54z
" />
    <glyph glyph-name="lacute" unicode="&#x13a;" horiz-adv-x="215" 
d="M27 700h117v-599c0 -37 5 -69 45 -72v-29h-163v29c40 5 45 33 45 72v498c0 47 -4 66 -44 72v29zM57 784l105 130c11 13 25 20 40 20c22 0 37 -15 37 -37c0 -15 -7 -24 -16 -32c-6 -5 -13 -10 -31 -21l-122 -76z" />
    <glyph glyph-name="Lcommaaccent" unicode="&#x13b;" horiz-adv-x="616" 
d="M256 700v-34c-42 -4 -59 -30 -59 -81v-546h214c87 0 133 66 145 126h34v-165h-538v34c47 4 59 37 59 81v470c0 51 -17 77 -59 81v34h204zM268 -284l-20 21c50 42 63 71 67 91l-2 3c-6 -1 -11 -1 -17 0c-32 3 -48 25 -48 54c0 27 19 52 56 52c32 0 63 -19 63 -70
c0 -58 -47 -119 -99 -151z" />
    <glyph glyph-name="lcommaaccent" unicode="&#x13c;" horiz-adv-x="215" 
d="M27 700h117v-599c0 -37 5 -69 45 -72v-29h-163v29c40 5 45 33 45 72v498c0 47 -4 66 -44 72v29zM70 -284l-20 21c50 42 63 71 67 91l-2 3c-6 -1 -11 -1 -17 0c-30 3 -48 23 -48 50v4c2 27 19 52 56 52c32 0 63 -19 63 -70c0 -58 -47 -119 -99 -151z" />
    <glyph glyph-name="Lcaron" unicode="&#x13d;" horiz-adv-x="616" 
d="M256 700v-34c-42 -4 -59 -30 -59 -81v-546h214c87 0 133 66 145 126h34v-165h-538v34c47 4 59 37 59 81v470c0 51 -17 77 -59 81v34h204zM379 487l-20 21c50 42 63 71 67 91l-2 3c-6 -1 -11 -1 -17 0c-32 3 -48 25 -48 54c0 27 19 52 56 52c32 0 63 -19 63 -70
c0 -58 -47 -119 -99 -151z" />
    <glyph glyph-name="lcaron" unicode="&#x13e;" horiz-adv-x="330" 
d="M27 700h117v-599c0 -37 5 -69 45 -72v-29h-163v29c40 5 45 33 45 72v498c0 47 -4 66 -44 72v29zM211 487l-20 21c50 42 63 71 67 91l-2 3c-6 -1 -11 -1 -17 0c-30 3 -48 23 -48 50v4c2 27 19 52 56 52c32 0 63 -19 63 -70c0 -58 -47 -119 -99 -151z" />
    <glyph glyph-name="Nacute" unicode="&#x143;" horiz-adv-x="772" 
d="M52 0v34c42 -5 60 40 60 73v475c0 11 -1 83 -60 84v34h143l424 -537h3v424c0 32 -3 72 -59 79v34h157v-34c-51 -11 -59 -36 -59 -79v-587h-30l-476 604h-4v-497c0 -26 11 -73 59 -73v-34h-158zM344 758l121 100c11 9 25 18 38 22c6 2 12 3 18 3c23 0 39 -16 39 -36
c0 -22 -15 -34 -25 -40c-14 -8 -24 -11 -37 -16l-143 -54z" />
    <glyph glyph-name="nacute" unicode="&#x144;" horiz-adv-x="452" 
d="M26 29c40 5 45 33 45 72v203c0 21 -6 43 -44 52v29h117v-49h3c40 42 89 57 127 57h4c104 -2 103 -79 103 -126v-166c0 -37 5 -69 45 -72v-29h-163v29c40 5 45 33 45 72v169c0 30 -1 81 -59 81c-14 0 -65 -6 -105 -67v-183c0 -43 9 -68 45 -72v-29h-163v29zM198 519
l105 130c11 13 25 20 40 20c22 0 37 -15 37 -37c0 -15 -7 -24 -16 -32c-6 -5 -13 -10 -31 -21l-122 -76z" />
    <glyph glyph-name="Ncommaaccent" unicode="&#x145;" horiz-adv-x="772" 
d="M52 0v34c42 -5 60 40 60 73v475c0 11 -1 83 -60 84v34h143l424 -537h3v424c0 32 -3 72 -59 79v34h157v-34c-51 -11 -59 -36 -59 -79v-587h-30l-476 604h-4v-497c0 -26 11 -73 59 -73v-34h-158zM346 -284l-20 21c50 42 63 71 67 91l-2 3c-6 -1 -11 -1 -17 0
c-32 3 -48 25 -48 54c0 27 19 52 56 52c32 0 63 -19 63 -70c0 -58 -47 -119 -99 -151z" />
    <glyph glyph-name="ncommaaccent" unicode="&#x146;" horiz-adv-x="452" 
d="M26 29c40 5 45 33 45 72v203c0 21 -6 43 -44 52v29h117v-49h3c40 42 89 57 127 57h4c104 -2 103 -79 103 -126v-166c0 -37 5 -69 45 -72v-29h-163v29c40 5 45 33 45 72v169c0 30 -1 81 -59 81c-14 0 -65 -6 -105 -67v-183c0 -43 9 -68 45 -72v-29h-163v29zM191 -284
l-20 21c50 42 63 71 67 91l-2 3c-6 -1 -11 -1 -17 0c-30 3 -48 23 -48 50v4c2 27 19 52 56 52c32 0 63 -19 63 -70c0 -58 -47 -119 -99 -151z" />
    <glyph glyph-name="Ncaron" unicode="&#x147;" horiz-adv-x="772" 
d="M52 0v34c42 -5 60 40 60 73v475c0 11 -1 83 -60 84v34h143l424 -537h3v424c0 32 -3 72 -59 79v34h157v-34c-51 -11 -59 -36 -59 -79v-587h-30l-476 604h-4v-497c0 -26 11 -73 59 -73v-34h-158zM374 803l112 79h40l-126 -145h-52l-126 145h40z" />
    <glyph glyph-name="ncaron" unicode="&#x148;" horiz-adv-x="452" 
d="M26 29c40 5 45 33 45 72v203c0 21 -6 43 -44 52v29h117v-49h3c40 42 89 57 127 57h4c104 -2 103 -79 103 -126v-166c0 -37 5 -69 45 -72v-29h-163v29c40 5 45 33 45 72v169c0 30 -1 81 -59 81c-14 0 -65 -6 -105 -67v-183c0 -43 9 -68 45 -72v-29h-163v29zM226 564
l104 91h31l-110 -152h-50l-110 152h31z" />
    <glyph glyph-name="Omacron" unicode="&#x14c;" horiz-adv-x="788" 
d="M394 708c232 0 355 -191 355 -358s-123 -358 -355 -358s-355 191 -355 358s123 358 355 358zM394 669c-138 0 -255 -114 -255 -319s117 -319 255 -319s255 114 255 319s-117 319 -255 319zM257 757v46h274v-46h-274z" />
    <glyph glyph-name="omacron" unicode="&#x14d;" 
d="M216 393c37 0 149 -11 183 -147c5 -19 7 -39 7 -59c0 -17 -3 -33 -7 -49c-35 -138 -156 -146 -183 -146s-148 8 -183 146c-4 16 -7 32 -7 49c0 20 2 40 7 59c34 136 146 147 183 147zM216 362c-56 0 -106 -25 -106 -170c0 -48 -2 -169 106 -169s106 121 106 169
c0 145 -50 170 -106 170zM77 556h278v-53h-278v53z" />
    <glyph glyph-name="Obreve" unicode="&#x14e;" horiz-adv-x="788" 
d="M394 708c232 0 355 -191 355 -358s-123 -358 -355 -358s-355 191 -355 358s123 358 355 358zM394 669c-138 0 -255 -114 -255 -319s117 -319 255 -319s255 114 255 319s-117 319 -255 319zM488 860h33c-2 -36 -20 -74 -47 -96c-12 -9 -39 -27 -87 -27s-75 18 -87 27
c-27 22 -45 60 -47 96h33c2 -10 9 -32 32 -50c17 -13 42 -22 69 -22s52 9 69 22c23 18 30 40 32 50z" />
    <glyph glyph-name="obreve" unicode="&#x14f;" 
d="M216 393c37 0 149 -11 183 -147c5 -19 7 -39 7 -59c0 -17 -3 -33 -7 -49c-35 -138 -156 -146 -183 -146s-148 8 -183 146c-4 16 -7 32 -7 49c0 20 2 40 7 59c34 136 146 147 183 147zM216 362c-56 0 -106 -25 -106 -170c0 -48 -2 -169 106 -169s106 121 106 169
c0 145 -50 170 -106 170zM82 636h33c3 -44 51 -82 101 -82c48 0 95 33 101 82h33c-3 -54 -34 -133 -131 -133c-105 0 -133 84 -137 133z" />
    <glyph glyph-name="Ohungarumlaut" unicode="&#x150;" horiz-adv-x="788" 
d="M394 708c232 0 355 -191 355 -358s-123 -358 -355 -358s-355 191 -355 358s123 358 355 358zM394 669c-138 0 -255 -114 -255 -319s117 -319 255 -319s255 114 255 319s-117 319 -255 319zM281 762l109 96c16 14 32 31 55 31c22 0 38 -13 38 -34c0 -17 -9 -26 -21 -34
c-11 -7 -23 -12 -39 -19l-129 -58zM455 762l109 96c16 14 32 31 55 31c22 0 38 -13 38 -34c0 -17 -9 -26 -21 -34c-11 -7 -23 -12 -39 -19l-129 -58z" />
    <glyph glyph-name="ohungarumlaut" unicode="&#x151;" 
d="M216 393c37 0 149 -11 183 -147c5 -19 7 -39 7 -59c0 -17 -3 -33 -7 -49c-35 -138 -156 -146 -183 -146s-148 8 -183 146c-4 16 -7 32 -7 49c0 20 2 40 7 59c34 136 146 147 183 147zM216 362c-56 0 -106 -25 -106 -170c0 -48 -2 -169 106 -169s106 121 106 169
c0 145 -50 170 -106 170zM122 519l108 133c6 7 14 22 34 22c9 0 17 -2 22 -7s11 -14 11 -25c0 -3 -1 -7 -2 -11c-6 -15 -23 -27 -45 -44l-113 -84zM262 519l108 133c6 7 14 22 34 22c9 0 17 -2 22 -7c6 -5 11 -16 11 -22c0 -5 0 -10 -2 -14c-6 -15 -23 -27 -45 -44l-113 -84
z" />
    <glyph glyph-name="Racute" unicode="&#x154;" horiz-adv-x="690" 
d="M52 700h264c105 0 209 -11 255 -102c12 -23 18 -49 18 -75c0 -105 -68 -162 -144 -181l144 -238c19 -31 40 -68 88 -70v-34h-127l-198 327h-155v-212c0 -42 10 -76 59 -81v-34h-204v34c46 5 59 33 59 81v470c0 44 -11 75 -59 81v34zM197 366h103c58 0 189 7 189 150
c0 140 -117 145 -189 145h-103v-295zM275 758l121 100c11 9 25 18 38 22c6 2 12 3 18 3c23 0 39 -16 39 -36c0 -22 -15 -34 -25 -40c-14 -8 -24 -11 -37 -16l-143 -54z" />
    <glyph glyph-name="racute" unicode="&#x155;" horiz-adv-x="295" 
d="M27 385h117v-62h4c26 40 54 70 98 70c36 0 49 -22 49 -44c0 -19 -14 -36 -35 -36c-19 0 -29 10 -32 14c-5 7 -10 13 -21 13c-29 0 -63 -53 -63 -130v-109c0 -36 4 -69 45 -72v-29h-163v29c41 5 45 34 45 72v203c0 32 -15 46 -44 52v29zM101 519l105 130
c11 13 25 20 40 20c22 0 37 -15 37 -37c0 -15 -7 -24 -16 -32c-6 -5 -13 -10 -31 -21l-122 -76z" />
    <glyph glyph-name="Rcommaaccent" unicode="&#x156;" horiz-adv-x="690" 
d="M52 700h264c105 0 209 -11 255 -102c12 -23 18 -49 18 -75c0 -105 -68 -162 -144 -181l144 -238c19 -31 40 -68 88 -70v-34h-127l-198 327h-155v-212c0 -42 10 -76 59 -81v-34h-204v34c46 5 59 33 59 81v470c0 44 -11 75 -59 81v34zM197 366h103c58 0 189 7 189 150
c0 140 -117 145 -189 145h-103v-295zM305 -284l-20 21c50 42 63 71 67 91l-2 3c-6 -1 -11 -1 -17 0c-32 3 -48 25 -48 54c0 27 19 52 56 52c32 0 63 -19 63 -70c0 -58 -47 -119 -99 -151z" />
    <glyph glyph-name="rcommaaccent" unicode="&#x157;" horiz-adv-x="295" 
d="M27 385h117v-62h4c26 40 54 70 98 70c36 0 49 -22 49 -44c0 -19 -14 -36 -35 -36c-19 0 -29 10 -32 14c-5 7 -10 13 -21 13c-29 0 -63 -53 -63 -130v-109c0 -36 4 -69 45 -72v-29h-163v29c41 5 45 34 45 72v203c0 32 -15 46 -44 52v29zM108 -284l-20 21
c50 42 63 71 67 91l-2 3c-6 -1 -11 -1 -17 0c-30 3 -48 23 -48 50v4c2 27 19 52 56 52c32 0 63 -19 63 -70c0 -58 -47 -119 -99 -151z" />
    <glyph glyph-name="Rcaron" unicode="&#x158;" horiz-adv-x="690" 
d="M52 700h264c105 0 209 -11 255 -102c12 -23 18 -49 18 -75c0 -105 -68 -162 -144 -181l144 -238c19 -31 40 -68 88 -70v-34h-127l-198 327h-155v-212c0 -42 10 -76 59 -81v-34h-204v34c46 5 59 33 59 81v470c0 44 -11 75 -59 81v34zM197 366h103c58 0 189 7 189 150
c0 140 -117 145 -189 145h-103v-295zM309 803l112 79h40l-126 -145h-52l-126 145h40z" />
    <glyph glyph-name="rcaron" unicode="&#x159;" horiz-adv-x="295" 
d="M27 385h117v-62h4c26 40 54 70 98 70c36 0 49 -22 49 -44c0 -19 -14 -36 -35 -36c-19 0 -29 10 -32 14c-5 7 -10 13 -21 13c-29 0 -63 -53 -63 -130v-109c0 -36 4 -69 45 -72v-29h-163v29c41 5 45 34 45 72v203c0 32 -15 46 -44 52v29zM135 564l104 91h31l-110 -152h-50
l-110 152h31z" />
    <glyph glyph-name="Sacute" unicode="&#x15a;" horiz-adv-x="541" 
d="M471 517h-39c-26 71 -78 152 -172 152c-75 0 -126 -46 -126 -113c0 -84 84 -113 142 -130c29 -8 56 -14 101 -34c36 -16 132 -64 132 -187c0 -116 -96 -213 -210 -213c-29 0 -73 5 -104 15c-27 8 -49 18 -73 18c-34 0 -41 -19 -43 -25h-33v216h34
c28 -95 120 -185 227 -185c71 0 131 61 131 137c0 54 -28 103 -109 137c-43 18 -81 23 -121 38c-121 45 -142 130 -142 185c0 106 87 180 203 180c43 0 79 -10 123 -36c8 -5 19 -11 30 -11s16 6 24 14h25v-158zM215 758l121 100c11 9 25 18 38 22c6 2 12 3 18 3
c23 0 39 -16 39 -36c0 -22 -15 -34 -25 -40c-14 -8 -24 -11 -37 -16l-143 -54z" />
    <glyph glyph-name="sacute" unicode="&#x15b;" horiz-adv-x="341" 
d="M166 393c82 0 123 -39 123 -75c0 -22 -16 -30 -31 -30c-32 0 -38 32 -40 42c0 5 -5 32 -50 32c-41 0 -75 -20 -75 -60c0 -44 32 -55 84 -69c48 -13 138 -34 138 -120c0 -71 -65 -121 -150 -121c-100 0 -139 53 -139 89c0 21 13 42 40 42c28 0 38 -18 38 -32
c0 -10 -4 -19 -4 -29c0 -14 16 -39 64 -39c56 0 81 33 81 66c0 41 -40 55 -63 63c-42 14 -70 19 -99 40c-38 27 -44 58 -44 84c0 72 54 117 127 117zM132 519l105 130c11 13 25 20 40 20c22 0 37 -15 37 -37c0 -15 -7 -24 -16 -32c-6 -5 -13 -10 -31 -21l-122 -76z" />
    <glyph glyph-name="Scircumflex" unicode="&#x15c;" horiz-adv-x="541" 
d="M471 517h-39c-26 71 -78 152 -172 152c-75 0 -126 -46 -126 -113c0 -84 84 -113 142 -130c29 -8 56 -14 101 -34c36 -16 132 -64 132 -187c0 -116 -96 -213 -210 -213c-29 0 -73 5 -104 15c-27 8 -49 18 -73 18c-34 0 -41 -19 -43 -25h-33v216h34
c28 -95 120 -185 227 -185c71 0 131 61 131 137c0 54 -28 103 -109 137c-43 18 -81 23 -121 38c-121 45 -142 130 -142 185c0 106 87 180 203 180c43 0 79 -10 123 -36c8 -5 19 -11 30 -11s16 6 24 14h25v-158zM283 816l-112 -79h-40l126 145h52l126 -145h-40z" />
    <glyph glyph-name="scircumflex" unicode="&#x15d;" horiz-adv-x="341" 
d="M166 393c82 0 123 -39 123 -75c0 -22 -16 -30 -31 -30c-32 0 -38 32 -40 42c0 5 -5 32 -50 32c-41 0 -75 -20 -75 -60c0 -44 32 -55 84 -69c48 -13 138 -34 138 -120c0 -71 -65 -121 -150 -121c-100 0 -139 53 -139 89c0 21 13 42 40 42c28 0 38 -18 38 -32
c0 -10 -4 -19 -4 -29c0 -14 16 -39 64 -39c56 0 81 33 81 66c0 41 -40 55 -63 63c-42 14 -70 19 -99 40c-38 27 -44 58 -44 84c0 72 54 117 127 117zM171 594l-104 -91h-31l110 152h50l110 -152h-31z" />
    <glyph glyph-name="Scedilla" unicode="&#x15e;" horiz-adv-x="541" 
d="M471 517h-39c-11 28 -36 78 -61 103c-17 18 -58 49 -111 49c-75 0 -126 -46 -126 -113c0 -84 84 -113 142 -130c90 -26 233 -66 233 -221c0 -116 -96 -213 -210 -213c-8 0 -15 0 -23 1l-47 -49l1 -1c15 4 30 6 45 6c35 0 64 -9 84 -25s29 -36 29 -62
c0 -28 -13 -48 -28 -62c-22 -21 -59 -34 -100 -34c-30 0 -68 9 -91 29c-12 10 -16 19 -16 30c0 18 11 34 30 34c15 0 27 -7 29 -25v-8v-8c2 -10 17 -23 49 -23c17 0 36 1 54 14c16 12 25 27 25 47c0 29 -17 44 -27 50c-14 9 -36 13 -54 13c-22 0 -45 -6 -66 -17l-20 28
l68 67c-67 12 -87 28 -119 28c-34 0 -41 -19 -43 -25h-33v216h34c16 -56 56 -106 94 -136c45 -36 92 -49 133 -49c71 0 131 61 131 137c0 101 -101 138 -173 158c-52 14 -199 51 -199 202c0 106 87 180 203 180c38 0 65 -8 96 -22c24 -11 41 -25 57 -25c11 0 16 6 24 14h25
v-158z" />
    <glyph glyph-name="Scedilla" unicode="&#xf6c1;" horiz-adv-x="541" 
d="M471 517h-39c-11 28 -36 78 -61 103c-17 18 -58 49 -111 49c-75 0 -126 -46 -126 -113c0 -84 84 -113 142 -130c90 -26 233 -66 233 -221c0 -116 -96 -213 -210 -213c-8 0 -15 0 -23 1l-47 -49l1 -1c15 4 30 6 45 6c35 0 64 -9 84 -25s29 -36 29 -62
c0 -28 -13 -48 -28 -62c-22 -21 -59 -34 -100 -34c-30 0 -68 9 -91 29c-12 10 -16 19 -16 30c0 18 11 34 30 34c15 0 27 -7 29 -25v-8v-8c2 -10 17 -23 49 -23c17 0 36 1 54 14c16 12 25 27 25 47c0 29 -17 44 -27 50c-14 9 -36 13 -54 13c-22 0 -45 -6 -66 -17l-20 28
l68 67c-67 12 -87 28 -119 28c-34 0 -41 -19 -43 -25h-33v216h34c16 -56 56 -106 94 -136c45 -36 92 -49 133 -49c71 0 131 61 131 137c0 101 -101 138 -173 158c-52 14 -199 51 -199 202c0 106 87 180 203 180c38 0 65 -8 96 -22c24 -11 41 -25 57 -25c11 0 16 6 24 14h25
v-158z" />
    <glyph glyph-name="scedilla" unicode="&#x15f;" horiz-adv-x="341" 
d="M172 393c82 0 117 -43 117 -75c0 -22 -16 -30 -31 -30c-32 0 -38 32 -40 42c0 5 -5 32 -50 32c-41 0 -75 -20 -75 -60c0 -55 52 -60 111 -76c39 -11 111 -38 111 -113c0 -81 -81 -122 -146 -121l-26 -27v-1c10 2 19 2 29 2c15 0 39 -2 59 -15c26 -17 28 -41 28 -51
c0 -19 -10 -38 -31 -52c-20 -13 -43 -16 -61 -16c-27 0 -51 6 -64 14c-10 6 -21 18 -21 31c0 14 11 24 24 24c16 0 24 -11 24 -24v-5c0 -12 17 -18 36 -18c18 0 31 5 42 15c6 6 14 15 14 29c0 13 -6 28 -23 38c-13 7 -28 8 -37 8c-15 0 -32 -4 -48 -11l-19 21l38 40
c-76 12 -107 53 -107 87c0 21 13 42 40 42c28 0 38 -18 38 -32c0 -10 -4 -19 -4 -29c0 -14 16 -39 64 -39c56 0 81 33 81 66c0 55 -69 64 -112 79c-92 30 -94 86 -94 108c0 74 57 117 133 117z" />
    <glyph glyph-name="scedilla" unicode="&#xf6c2;" horiz-adv-x="341" 
d="M172 393c82 0 117 -43 117 -75c0 -22 -16 -30 -31 -30c-32 0 -38 32 -40 42c0 5 -5 32 -50 32c-41 0 -75 -20 -75 -60c0 -55 52 -60 111 -76c39 -11 111 -38 111 -113c0 -81 -81 -122 -146 -121l-26 -27v-1c10 2 19 2 29 2c15 0 39 -2 59 -15c26 -17 28 -41 28 -51
c0 -19 -10 -38 -31 -52c-20 -13 -43 -16 -61 -16c-27 0 -51 6 -64 14c-10 6 -21 18 -21 31c0 14 11 24 24 24c16 0 24 -11 24 -24v-5c0 -12 17 -18 36 -18c18 0 31 5 42 15c6 6 14 15 14 29c0 13 -6 28 -23 38c-13 7 -28 8 -37 8c-15 0 -32 -4 -48 -11l-19 21l38 40
c-76 12 -107 53 -107 87c0 21 13 42 40 42c28 0 38 -18 38 -32c0 -10 -4 -19 -4 -29c0 -14 16 -39 64 -39c56 0 81 33 81 66c0 55 -69 64 -112 79c-92 30 -94 86 -94 108c0 74 57 117 133 117z" />
    <glyph glyph-name="Tcedilla" unicode="&#x162;" horiz-adv-x="680" 
d="M13 573v135l227 -8h200l227 8v-135h-34c-1 30 -21 88 -109 88h-141v-546c0 -44 10 -76 59 -81v-34h-89l-54 -56l1 -1c15 4 30 6 45 6c35 0 64 -9 84 -25s29 -36 29 -62c0 -28 -13 -48 -28 -62c-22 -21 -59 -34 -100 -34c-30 0 -68 9 -91 29c-12 10 -16 19 -16 30
c0 18 11 34 30 34c15 0 27 -7 29 -25v-8v-8c2 -10 17 -23 49 -23c17 0 36 1 54 14c16 12 25 27 25 47c0 29 -17 44 -27 50c-14 9 -36 13 -54 13c-22 0 -45 -6 -66 -17l-20 28l71 70h-77v34c48 6 60 36 60 81v546h-142c-73 0 -98 -39 -108 -88h-34z" />
    <glyph glyph-name="tcedilla" unicode="&#x163;" horiz-adv-x="271" 
d="M20 385h44v87l73 40v-127h83v-31h-83v-257c0 -24 5 -56 48 -56c19 0 38 8 55 21l17 -20c-23 -25 -57 -45 -88 -49l-27 -28v-1c10 2 19 2 29 2c15 0 39 -2 59 -15c26 -17 28 -41 28 -51c0 -19 -10 -38 -31 -52c-20 -13 -43 -16 -61 -16c-27 0 -51 6 -64 14
c-10 6 -21 18 -21 31c0 14 11 24 24 24c16 0 24 -11 24 -24v-5c0 -12 17 -18 36 -18c18 0 31 5 42 15c6 6 14 15 14 29c0 13 -6 28 -23 38c-13 7 -28 8 -37 8c-15 0 -32 -4 -48 -11l-19 21l38 39c-55 7 -68 50 -68 101v260h-44v31z" />
    <glyph glyph-name="Tcaron" unicode="&#x164;" horiz-adv-x="680" 
d="M13 573v135l227 -8h200l227 8v-135h-34c-1 30 -21 88 -109 88h-141v-546c0 -44 10 -76 59 -81v-34h-205v34c48 6 60 36 60 81v546h-142c-73 0 -98 -39 -108 -88h-34zM339 803l112 79h40l-126 -145h-52l-126 145h40z" />
    <glyph glyph-name="tcaron" unicode="&#x165;" horiz-adv-x="279" 
d="M20 385h44v87l73 40v-127h83v-31h-83v-257c0 -24 5 -56 48 -56c19 0 38 8 55 21l17 -20c-20 -22 -54 -50 -105 -50c-52 0 -88 22 -88 102v260h-44v31zM207 452l-20 21c50 42 63 71 67 91l-2 3c-6 -1 -11 -1 -17 0c-30 3 -48 23 -48 50v4c2 27 19 52 56 52
c32 0 63 -19 63 -70c0 -58 -47 -119 -99 -151z" />
    <glyph glyph-name="Utilde" unicode="&#x168;" horiz-adv-x="799" 
d="M52 700h202v-34c-49 -5 -58 -38 -58 -81v-274c0 -97 14 -190 115 -240c36 -18 73 -22 112 -22c45 0 87 10 127 34c100 60 100 166 100 251v259c0 46 -17 70 -58 73v34h155v-34c-56 -4 -58 -51 -58 -73v-306c0 -142 -56 -295 -283 -295c-221 0 -296 118 -296 323v270
c0 50 -13 77 -58 81v34zM555 831h24c-32 -52 -66 -83 -114 -83c-24 0 -48 4 -89 14c-31 8 -54 16 -76 16c-25 0 -48 -11 -62 -30h-19c28 60 69 83 116 83c19 0 43 -3 78 -12c39 -10 58 -17 81 -17c21 0 46 9 61 29z" />
    <glyph glyph-name="utilde" unicode="&#x169;" horiz-adv-x="450" 
d="M379 385v-283c0 -41 3 -64 45 -73v-29h-118v49h-3c-44 -46 -96 -57 -125 -57c-99 0 -108 73 -108 111v200c0 32 -12 53 -44 53v29h117v-270c0 -29 1 -81 59 -81c13 0 64 6 104 67v203c0 20 -5 48 -44 52v29h117zM354 596h27c-14 -45 -46 -93 -105 -93c-23 0 -46 6 -70 13
l-8 3c-18 5 -34 10 -50 10c-19 0 -37 -6 -55 -26h-25c28 69 70 87 102 87c41 0 102 -27 133 -27c18 0 43 10 51 33z" />
    <glyph glyph-name="Umacron" unicode="&#x16a;" horiz-adv-x="799" 
d="M52 700h202v-34c-49 -5 -58 -38 -58 -81v-274c0 -97 14 -190 115 -240c36 -18 73 -22 112 -22c45 0 87 10 127 34c100 60 100 166 100 251v259c0 46 -17 70 -58 73v34h155v-34c-56 -4 -58 -51 -58 -73v-306c0 -142 -56 -295 -283 -295c-221 0 -296 118 -296 323v270
c0 50 -13 77 -58 81v34zM273 756v46h274v-46h-274z" />
    <glyph glyph-name="umacron" unicode="&#x16b;" horiz-adv-x="450" 
d="M379 385v-283c0 -41 3 -64 45 -73v-29h-118v49h-3c-44 -46 -96 -57 -125 -57c-99 0 -108 73 -108 111v200c0 32 -12 53 -44 53v29h117v-270c0 -29 1 -81 59 -81c13 0 64 6 104 67v203c0 20 -5 48 -44 52v29h117zM86 556h278v-53h-278v53z" />
    <glyph glyph-name="Ubreve" unicode="&#x16c;" horiz-adv-x="799" 
d="M52 700h202v-34c-49 -5 -58 -38 -58 -81v-274c0 -97 14 -190 115 -240c36 -18 73 -22 112 -22c45 0 87 10 127 34c100 60 100 166 100 251v259c0 46 -17 70 -58 73v34h155v-34c-56 -4 -58 -51 -58 -73v-306c0 -142 -56 -295 -283 -295c-221 0 -296 118 -296 323v270
c0 50 -13 77 -58 81v34zM507 860h33c-2 -36 -20 -74 -47 -96c-12 -9 -39 -27 -87 -27s-75 18 -87 27c-27 22 -45 60 -47 96h33c2 -10 9 -32 32 -50c17 -13 42 -22 69 -22s52 9 69 22c23 18 30 40 32 50z" />
    <glyph glyph-name="ubreve" unicode="&#x16d;" horiz-adv-x="450" 
d="M379 385v-283c0 -41 3 -64 45 -73v-29h-118v49h-3c-44 -46 -96 -57 -125 -57c-99 0 -108 73 -108 111v200c0 32 -12 53 -44 53v29h117v-270c0 -29 1 -81 59 -81c13 0 64 6 104 67v203c0 20 -5 48 -44 52v29h117zM91 636h33c3 -44 51 -82 101 -82c48 0 95 33 101 82h33
c-3 -54 -34 -133 -131 -133c-105 0 -133 84 -137 133z" />
    <glyph glyph-name="Uring" unicode="&#x16e;" horiz-adv-x="799" 
d="M52 700h202v-34c-49 -5 -58 -38 -58 -81v-274c0 -97 14 -190 115 -240c36 -18 73 -22 112 -22c45 0 87 10 127 34c100 60 100 166 100 251v259c0 46 -17 70 -58 73v34h155v-34c-56 -4 -58 -51 -58 -73v-306c0 -142 -56 -295 -283 -295c-221 0 -296 118 -296 323v270
c0 50 -13 77 -58 81v34zM336 844c0 -34 30 -64 64 -64s64 30 64 64s-30 64 -64 64s-64 -30 -64 -64zM300 844c0 56 44 100 100 100s100 -44 100 -100s-44 -100 -100 -100s-100 44 -100 100z" />
    <glyph glyph-name="uring" unicode="&#x16f;" horiz-adv-x="450" 
d="M379 385v-283c0 -41 3 -64 45 -73v-29h-118v49h-3c-44 -46 -96 -57 -125 -57c-99 0 -108 73 -108 111v200c0 32 -12 53 -44 53v29h117v-270c0 -29 1 -81 59 -81c13 0 64 6 104 67v203c0 20 -5 48 -44 52v29h117zM113 591c0 58 48 88 88 88s88 -30 88 -88
c0 -51 -37 -88 -88 -88s-88 37 -88 88zM144 591c0 -33 29 -57 57 -57c31 0 57 26 57 57c0 28 -24 57 -57 57c-31 0 -57 -26 -57 -57z" />
    <glyph glyph-name="Uhungarumlaut" unicode="&#x170;" horiz-adv-x="799" 
d="M52 700h202v-34c-49 -5 -58 -38 -58 -81v-274c0 -97 14 -190 115 -240c36 -18 73 -22 112 -22c45 0 87 10 127 34c100 60 100 166 100 251v259c0 46 -17 70 -58 73v34h155v-34c-56 -4 -58 -51 -58 -73v-306c0 -142 -56 -295 -283 -295c-221 0 -296 118 -296 323v270
c0 50 -13 77 -58 81v34zM312 762l109 96c16 14 32 31 55 31c22 0 38 -13 38 -34c0 -17 -9 -26 -21 -34c-11 -7 -23 -12 -39 -19l-129 -58zM486 762l109 96c16 14 32 31 55 31c22 0 38 -13 38 -34c0 -17 -9 -26 -21 -34c-11 -7 -23 -12 -39 -19l-129 -58z" />
    <glyph glyph-name="uhungarumlaut" unicode="&#x171;" horiz-adv-x="450" 
d="M379 385v-283c0 -41 3 -64 45 -73v-29h-118v49h-3c-44 -46 -96 -57 -125 -57c-99 0 -108 73 -108 111v200c0 32 -12 53 -44 53v29h117v-270c0 -29 1 -81 59 -81c13 0 64 6 104 67v203c0 20 -5 48 -44 52v29h117zM126 519l108 133c6 7 14 22 34 22c9 0 17 -2 22 -7
s11 -14 11 -25c0 -3 -1 -7 -2 -11c-6 -15 -23 -27 -45 -44l-113 -84zM266 519l108 133c6 7 14 22 34 22c9 0 17 -2 22 -7c6 -5 11 -16 11 -22c0 -5 0 -10 -2 -14c-6 -15 -23 -27 -45 -44l-113 -84z" />
    <glyph glyph-name="Uogonek" unicode="&#x172;" horiz-adv-x="799" 
d="M52 700h202v-34c-49 -5 -58 -38 -58 -81v-274c0 -97 14 -190 115 -240c36 -18 73 -22 112 -22c45 0 87 10 127 34c100 60 100 166 100 251v259c0 46 -17 70 -58 73v34h155v-34c-56 -4 -58 -51 -58 -73v-306c0 -97 -17 -188 -107 -247c-19 -13 -48 -27 -94 -40
c-22 -7 -57 -21 -72 -29c-29 -16 -56 -37 -56 -73c0 -9 3 -43 53 -43c21 0 45 5 73 31l14 -18c-38 -37 -74 -59 -118 -59c-49 0 -82 31 -82 69c0 21 8 43 21 59c20 24 50 39 89 55h-4c-70 0 -199 13 -259 124c-23 43 -37 105 -37 199v270c0 50 -13 77 -58 81v34z" />
    <glyph glyph-name="uogonek" unicode="&#x173;" horiz-adv-x="450" 
d="M379 385v-283c0 -41 3 -64 45 -73v-29c-31 -17 -75 -44 -73 -79c1 -18 13 -35 43 -35s53 15 66 25l9 -13c-25 -28 -62 -48 -101 -48c-45 0 -67 30 -67 61c0 42 45 70 85 89h-80v49h-3c-41 -43 -92 -57 -130 -57c-104 0 -103 83 -103 126v185c0 32 -12 53 -44 53v29h117
v-270c0 -29 1 -81 59 -81c13 0 64 6 104 67v203c0 20 -5 48 -44 52v29h117z" />
    <glyph glyph-name="Zacute" unicode="&#x179;" horiz-adv-x="743" 
d="M89 572v128h572v-31l-493 -630h370c46 0 105 8 119 87h34v-126h-639v37l492 624h-290c-75 0 -119 -24 -131 -89h-34zM341 758l121 100c11 9 25 18 38 22c6 2 12 3 18 3c23 0 39 -16 39 -36c0 -22 -15 -34 -25 -40c-14 -8 -24 -11 -37 -16l-143 -54z" />
    <glyph glyph-name="zacute" unicode="&#x17a;" horiz-adv-x="385" 
d="M45 303v82h307v-19l-227 -331v-4h121c39 0 84 3 97 57h29v-88h-346v27l222 327h-91c-26 0 -77 -2 -83 -51h-29zM169 519l105 130c11 13 25 20 40 20c22 0 37 -15 37 -37c0 -15 -7 -24 -16 -32c-6 -5 -13 -10 -31 -21l-122 -76z" />
    <glyph glyph-name="Zdotaccent" unicode="&#x17b;" horiz-adv-x="743" 
d="M89 572v128h572v-31l-493 -630h370c46 0 105 8 119 87h34v-126h-639v37l492 624h-290c-75 0 -119 -24 -131 -89h-34zM315 814c0 36 30 66 66 66s66 -30 66 -66s-30 -66 -66 -66s-66 30 -66 66z" />
    <glyph glyph-name="zdotaccent" unicode="&#x17c;" horiz-adv-x="385" 
d="M45 303v82h307v-19l-227 -331v-4h121c39 0 84 3 97 57h29v-88h-346v27l222 327h-91c-26 0 -77 -2 -83 -51h-29zM157 551c0 27 21 48 48 48s48 -21 48 -48s-21 -48 -48 -48s-48 21 -48 48z" />
    <glyph glyph-name="Schwa" unicode="&#x18f;" horiz-adv-x="748" 
d="M608 356c-1 38 -7 120 -46 187c-33 57 -100 126 -214 126c-13 0 -70 -1 -121 -29c-34 -18 -73 -53 -100 -118h-34v172h39c9 -13 20 -20 37 -20c20 0 47 14 82 22c31 7 73 12 107 12c48 0 175 -8 269 -125c36 -45 82 -122 82 -233c0 -110 -44 -189 -79 -233
c-39 -48 -120 -125 -261 -125c-108 0 -198 44 -256 121c-49 66 -74 157 -74 227v16h569zM609 317h-470c0 -51 11 -119 42 -174c30 -53 87 -112 185 -112c100 0 165 60 198 114c32 53 44 120 45 172z" />
    <glyph glyph-name="Icaron" unicode="&#x1cf;" horiz-adv-x="308" 
d="M256 700v-34c-50 -3 -59 -46 -59 -81v-470c0 -48 16 -76 59 -81v-34h-204v34c43 5 59 33 59 81v470c0 44 -12 77 -59 81v34h204zM151 803l112 79h40l-126 -145h-52l-126 145h40z" />
    <glyph glyph-name="icaron" unicode="&#x1d0;" horiz-adv-x="215" 
d="M26 385h118v-284c0 -37 5 -69 45 -72v-29h-163v29c37 4 44 29 44 72v182c0 41 -2 64 -44 73v29zM93 564l104 91h31l-110 -152h-50l-110 152h31z" />
    <glyph glyph-name="eturn" unicode="&#x1dd;" horiz-adv-x="376" 
d="M265 196v16c0 32 0 149 -88 149c-27 0 -53 -11 -73 -30c-13 -12 -27 -34 -33 -51h-29v109h15c8 -8 19 -12 28 -12c10 0 24 5 37 8c17 4 45 8 66 8c23 0 74 -4 115 -51c32 -37 47 -93 47 -146c0 -17 -2 -68 -25 -113c-22 -43 -64 -91 -147 -91c-75 0 -112 42 -131 82
c-15 32 -23 81 -21 122h239zM103 165c-1 -29 5 -68 15 -93c18 -44 50 -49 63 -49c43 0 62 41 69 58c11 28 16 57 15 84h-162z" />
    <glyph glyph-name="Gcaron" unicode="&#x1e6;" horiz-adv-x="719" 
d="M635 681v-154h-34c-56 142 -195 142 -222 142c-118 0 -240 -87 -240 -305c0 -214 100 -288 150 -311c42 -20 88 -22 127 -22c99 0 170 54 178 141c6 68 -34 82 -59 83v34h145v-243c-127 -43 -188 -54 -267 -54c-55 0 -188 3 -277 93c-75 76 -97 175 -97 281
c0 78 30 161 79 222c17 21 101 120 260 120c72 0 117 -13 152 -27c15 -6 34 -12 54 -12c5 0 9 2 13 5c2 2 4 4 6 7h32zM359 803l112 79h40l-126 -145h-52l-126 145h40z" />
    <glyph glyph-name="gcaron" unicode="&#x1e7;" horiz-adv-x="435" 
d="M41 -8l-15 34l78 128c-31 17 -62 49 -62 104c0 84 68 135 154 135c41 0 93 -13 126 -44c5 15 18 42 51 42c32 0 49 -21 49 -47c0 -22 -13 -34 -31 -34c-13 0 -24 8 -24 23c0 3 1 7 2 10c2 5 6 8 6 13c0 3 -1 8 -9 8c-11 0 -21 -11 -23 -25c-1 -2 -1 -4 -1 -6s0 -4 1 -6
c2 -12 14 -27 14 -66c0 -92 -82 -132 -155 -132c-16 0 -40 2 -66 11l-46 -73l3 -4c25 8 32 12 48 18c25 9 56 15 85 15c78 0 175 -42 175 -135c0 -74 -72 -127 -175 -127c-89 0 -163 37 -163 96c0 26 17 46 44 46c30 0 38 -20 38 -34c0 -6 -2 -12 -5 -17
c-5 -9 -14 -17 -14 -26c0 -13 21 -34 87 -34c129 0 137 65 137 84c0 60 -60 77 -135 77c-31 0 -96 -5 -174 -34zM200 362c-60 0 -74 -41 -74 -101c0 -91 41 -101 74 -101c32 0 73 9 73 102c0 58 -15 100 -73 100zM217 564l104 91h31l-110 -152h-50l-110 152h31z" />
    <glyph glyph-name="Scommaaccent" unicode="&#x218;" horiz-adv-x="541" 
d="M471 517h-39c-26 71 -78 152 -172 152c-75 0 -126 -46 -126 -113c0 -84 84 -113 142 -130c29 -8 56 -14 101 -34c36 -16 132 -64 132 -187c0 -116 -96 -213 -210 -213c-29 0 -73 5 -104 15c-27 8 -49 18 -73 18c-34 0 -41 -19 -43 -25h-33v216h34
c28 -95 120 -185 227 -185c71 0 131 61 131 137c0 54 -28 103 -109 137c-43 18 -81 23 -121 38c-121 45 -142 130 -142 185c0 106 87 180 203 180c43 0 79 -10 123 -36c8 -5 19 -11 30 -11s16 6 24 14h25v-158zM231 -284l-20 21c50 42 63 71 67 91l-2 3c-6 -1 -11 -1 -17 0
c-32 3 -48 25 -48 54c0 27 19 52 56 52c32 0 63 -19 63 -70c0 -58 -47 -119 -99 -151z" />
    <glyph glyph-name="scommaaccent" unicode="&#x219;" horiz-adv-x="341" 
d="M166 393c82 0 123 -39 123 -75c0 -22 -16 -30 -31 -30c-32 0 -38 32 -40 42c0 5 -5 32 -50 32c-41 0 -75 -20 -75 -60c0 -44 32 -55 84 -69c48 -13 138 -34 138 -120c0 -71 -65 -121 -150 -121c-100 0 -139 53 -139 89c0 21 13 42 40 42c28 0 38 -18 38 -32
c0 -10 -4 -19 -4 -29c0 -14 16 -39 64 -39c56 0 81 33 81 66c0 41 -40 55 -63 63c-42 14 -70 19 -99 40c-38 27 -44 58 -44 84c0 72 54 117 127 117zM131 -284l-20 21c50 42 63 71 67 91l-2 3c-6 -1 -11 -1 -17 0c-30 3 -48 23 -48 50v4c2 27 19 52 56 52
c32 0 63 -19 63 -70c0 -58 -47 -119 -99 -151z" />
    <glyph glyph-name="Tcommaaccent" unicode="&#x21a;" horiz-adv-x="680" 
d="M13 573v135l227 -8h200l227 8v-135h-34c-1 30 -21 88 -109 88h-141v-546c0 -44 10 -76 59 -81v-34h-205v34c48 6 60 36 60 81v546h-142c-73 0 -98 -39 -108 -88h-34zM300 -284l-20 21c50 42 63 71 67 91l-2 3c-6 -1 -11 -1 -17 0c-32 3 -48 25 -48 54c0 27 19 52 56 52
c32 0 63 -19 63 -70c0 -58 -47 -119 -99 -151z" />
    <glyph glyph-name="tcommaaccent" unicode="&#x21b;" horiz-adv-x="270" 
d="M20 385h44v87l73 40v-127h83v-31h-83v-257c0 -24 5 -56 48 -56c19 0 38 8 55 21l17 -20c-20 -22 -54 -50 -105 -50c-52 0 -88 22 -88 102v260h-44v31zM95 -284l-20 21c50 42 63 71 67 91l-2 3c-6 -1 -11 -1 -17 0c-30 3 -48 23 -48 50v4c2 27 19 52 56 52
c32 0 63 -19 63 -70c0 -58 -47 -119 -99 -151z" />
    <glyph glyph-name="schwa" unicode="&#x259;" horiz-adv-x="376" 
d="M265 196v16c0 32 0 149 -88 149c-27 0 -53 -11 -73 -30c-13 -12 -27 -34 -33 -51h-29v109h15c8 -8 19 -12 28 -12c10 0 24 5 37 8c17 4 45 8 66 8c23 0 74 -4 115 -51c32 -37 47 -93 47 -146c0 -17 -2 -68 -25 -113c-22 -43 -64 -91 -147 -91c-75 0 -112 42 -131 82
c-15 32 -23 81 -21 122h239zM103 165c-1 -29 5 -68 15 -93c18 -44 50 -49 63 -49c43 0 62 41 69 58c11 28 16 57 15 84h-162z" />
    <glyph glyph-name="afii57929" unicode="&#x2bc;" horiz-adv-x="259" 
d="M90 487l-20 21c50 42 63 71 67 91l-2 3c-6 -1 -11 -1 -17 0c-30 3 -48 23 -48 50v4c2 27 19 52 56 52c32 0 63 -19 63 -70c0 -58 -47 -119 -99 -151z" />
    <glyph glyph-name="accent" unicode="&#x301;" horiz-adv-x="2" 
d="M-320 519l105 130c11 13 25 20 40 20c22 0 37 -15 37 -37c0 -15 -7 -24 -16 -32c-6 -5 -13 -10 -31 -21l-122 -76z" />
    <glyph glyph-name="accent" unicode="&#xf400;" horiz-adv-x="2" 
d="M-320 519l105 130c11 13 25 20 40 20c22 0 37 -15 37 -37c0 -15 -7 -24 -16 -32c-6 -5 -13 -10 -31 -21l-122 -76z" />
    <glyph glyph-name="uni0313" unicode="&#x313;" horiz-adv-x="259" 
d="M90 487l-20 21c50 42 63 71 67 91l-2 3c-6 -1 -11 -1 -17 0c-30 3 -48 23 -48 50v4c2 27 19 52 56 52c32 0 63 -19 63 -70c0 -58 -47 -119 -99 -151z" />
    <glyph glyph-name="uni0315" unicode="&#x315;" horiz-adv-x="259" 
d="M90 487l-20 21c50 42 63 71 67 91l-2 3c-6 -1 -11 -1 -17 0c-30 3 -48 23 -48 50v4c2 27 19 52 56 52c32 0 63 -19 63 -70c0 -58 -47 -119 -99 -151z" />
    <glyph glyph-name="uni0326" unicode="&#x326;" horiz-adv-x="259" 
d="M90 -284l-20 21c50 42 63 71 67 91l-2 3c-6 -1 -11 -1 -17 0c-30 3 -48 23 -48 50v4c2 27 19 52 56 52c32 0 63 -19 63 -70c0 -58 -47 -119 -99 -151z" />
    <glyph glyph-name="Delta" unicode="&#x394;" horiz-adv-x="626" 
d="M617 0h-608l282 700h13zM77 38h402l-208 483z" />
    <glyph glyph-name="Delta" unicode="&#x2206;" horiz-adv-x="626" 
d="M617 0h-608l282 700h13zM77 38h402l-208 483z" />
    <glyph glyph-name="Omega" unicode="&#x3a9;" horiz-adv-x="802" 
d="M20 166h27c17 -93 57 -100 103 -100h131v34c-111 40 -229 135 -229 291c0 157 111 318 349 318s349 -161 349 -318c0 -156 -118 -251 -229 -291v-34h131c46 0 86 7 103 100h27l-21 -166h-287v116c132 58 154 182 154 268c0 193 -100 285 -227 285s-227 -92 -227 -285
c0 -86 22 -210 154 -268v-116h-287z" />
    <glyph glyph-name="Omega" unicode="&#x2126;" horiz-adv-x="802" 
d="M20 166h27c17 -93 57 -100 103 -100h131v34c-111 40 -229 135 -229 291c0 157 111 318 349 318s349 -161 349 -318c0 -156 -118 -251 -229 -291v-34h131c46 0 86 7 103 100h27l-21 -166h-287v116c132 58 154 182 154 268c0 193 -100 285 -227 285s-227 -92 -227 -285
c0 -86 22 -210 154 -268v-116h-287z" />
    <glyph glyph-name="pi" unicode="&#x3c0;" horiz-adv-x="527" 
d="M495 416h-73v-291c0 -40 0 -93 36 -93c15 0 27 12 35 25l5 8l19 -11c-24 -47 -57 -67 -93 -67c-92 0 -87 92 -87 143v286h-149v-283c0 -68 3 -148 -51 -148c-29 0 -44 21 -44 50c0 26 14 43 25 60c19 30 27 59 31 96c3 26 6 114 6 153v72h-22c-70 0 -88 -55 -89 -91h-19
v10c0 135 89 144 143 144h349z" />
    <glyph glyph-name="afii10023" unicode="&#x401;" horiz-adv-x="655" 
d="M52 700h394c96 0 53 11 125 8v-133h-34c-20 76 -82 86 -156 86h-183v-287h125c25 0 71 -3 82 56h33v-151h-33c-17 59 -38 56 -82 56h-125v-296h205c104 0 185 21 192 111h34l-11 -150h-566v34c45 5 60 37 60 81v470c0 46 -10 80 -60 81v34zM145 814c0 36 30 66 65 66
c36 0 66 -30 66 -66s-30 -66 -66 -66c-35 0 -65 30 -65 66zM391 814c0 36 30 66 66 66c30 0 65 -22 65 -66s-35 -66 -65 -66c-36 0 -66 30 -66 66z" />
    <glyph glyph-name="afii10051" unicode="&#x402;" horiz-adv-x="764" 
d="M629 708v-136h-34c-9 44 -27 89 -109 89h-142v-283c56 26 102 37 145 37c137 0 236 -71 236 -202c0 -128 -82 -221 -197 -221c-105 0 -130 44 -130 72c0 31 17 56 49 56c37 0 47 -23 47 -36s-3 -19 -3 -28c0 -22 21 -25 38 -25c43 0 96 21 96 176c0 125 -65 163 -139 163
c-46 0 -106 -19 -142 -33v-337h-145v34c46 6 59 36 59 81v546h-102c-64 0 -99 -29 -109 -89h-34v136l165 -7h301z" />
    <glyph glyph-name="afii10052" unicode="&#x403;" horiz-adv-x="543" 
d="M52 700h373c54 0 31 4 105 8v-170h-34c-10 42 -34 82 -70 104c-32 20 -67 24 -112 24h-117v-551c0 -55 21 -80 59 -81v-34h-204v34c47 5 59 36 59 81v470c0 49 -15 81 -59 81v34zM226 758l121 100c11 9 25 18 38 22c6 2 12 3 18 3c23 0 39 -16 39 -36
c0 -22 -15 -34 -25 -40c-14 -8 -24 -11 -37 -16l-143 -54z" />
    <glyph glyph-name="afii10053" unicode="&#x404;" horiz-adv-x="689" 
d="M625 140l25 -18c-21 -25 -113 -130 -274 -130c-111 0 -178 34 -224 76c-81 74 -113 181 -113 278c0 208 137 362 330 362c102 0 181 -36 211 -36c9 0 17 6 24 12h15v-154h-30c-51 133 -173 139 -211 139c-67 0 -166 -32 -217 -176c-18 -50 -22 -93 -23 -123h5
c43 53 80 69 117 69c8 0 16 -1 24 -2c50 -7 75 -26 103 -42c21 -12 50 -28 71 -28c31 0 43 15 62 39l27 -18c-34 -56 -74 -92 -140 -92c-17 0 -33 5 -49 11c-41 15 -56 29 -98 45c-16 6 -33 10 -51 10c-42 0 -67 -35 -67 -73c0 -36 22 -126 75 -185c40 -45 93 -73 161 -73
c79 0 188 35 247 109z" />
    <glyph glyph-name="afii10054" unicode="&#x405;" horiz-adv-x="541" 
d="M471 517h-39c-26 71 -78 152 -172 152c-75 0 -126 -46 -126 -113c0 -84 84 -113 142 -130c29 -8 56 -14 101 -34c36 -16 132 -64 132 -187c0 -116 -96 -213 -210 -213c-29 0 -73 5 -104 15c-27 8 -49 18 -73 18c-34 0 -41 -19 -43 -25h-33v216h34
c28 -95 120 -185 227 -185c71 0 131 61 131 137c0 54 -28 103 -109 137c-43 18 -81 23 -121 38c-121 45 -142 130 -142 185c0 106 87 180 203 180c43 0 79 -10 123 -36c8 -5 19 -11 30 -11s16 6 24 14h25v-158z" />
    <glyph glyph-name="afii10055" unicode="&#x406;" horiz-adv-x="308" 
d="M256 700v-34c-50 -3 -59 -46 -59 -81v-470c0 -48 16 -76 59 -81v-34h-204v34c43 5 59 33 59 81v470c0 44 -12 77 -59 81v34h204z" />
    <glyph glyph-name="afii10056" unicode="&#x407;" horiz-adv-x="309" 
d="M256 700v-34c-25 -1 -59 -15 -59 -81v-470c0 -47 16 -77 60 -81v-34h-206v34c44 4 60 34 60 81v470c0 21 -2 76 -60 81v34h205zM69 854c35 0 59 -29 59 -59c0 -33 -26 -60 -59 -60c-32 0 -59 26 -59 60c0 32 27 59 59 59zM240 854c32 0 59 -27 59 -59
c0 -34 -27 -60 -59 -60c-33 0 -59 27 -59 60c0 30 24 59 59 59z" />
    <glyph glyph-name="afii10057" unicode="&#x408;" horiz-adv-x="350" 
d="M93 700h205v-34c-54 -6 -59 -51 -59 -81v-490c0 -183 -102 -252 -178 -252c-56 0 -87 34 -87 65c0 27 18 48 42 48c17 0 41 -9 41 -36c0 -15 -2 -11 -2 -18c0 -8 6 -19 27 -19c60 0 71 93 71 174v528c0 29 -5 76 -60 81v34z" />
    <glyph glyph-name="afii10058" unicode="&#x409;" horiz-adv-x="974" 
d="M276 700h174l98 -299c61 8 110 9 132 9h10c181 0 251 -94 251 -205c0 -73 -28 -205 -224 -205h-131l-198 613h-3c-11 -38 -6 -27 -22 -90c-22 -88 -50 -211 -102 -351c-46 -126 -102 -180 -176 -180c-39 0 -72 19 -72 55c0 30 19 54 53 54c12 0 25 -3 41 -9
c8 -3 16 -7 24 -7c64 0 112 174 141 269c56 188 65 247 65 268c0 27 -11 40 -61 44v34zM667 44h32c93 0 146 57 146 156c0 159 -134 166 -171 166c-42 0 -82 -3 -110 -8z" />
    <glyph glyph-name="afii10059" unicode="&#x40a;" horiz-adv-x="1107" 
d="M542 700h205v-34c-50 -4 -60 -38 -60 -81v-179h128c61 0 259 2 259 -201c0 -200 -160 -205 -254 -205h-278v34c46 6 59 36 59 81v222h-403v-222c0 -44 11 -77 59 -81v-34h-205v34c42 4 60 31 60 81v470c0 50 -18 77 -60 81v34h205v-34c-44 -4 -59 -32 -59 -81v-209h403
v209c0 45 -13 75 -59 81v34zM687 39h112c54 0 175 -8 175 161c0 89 -23 167 -184 167h-103v-328z" />
    <glyph glyph-name="afii10060" unicode="&#x40b;" horiz-adv-x="781" 
d="M629 708v-136h-34c-9 43 -28 88 -109 88h-142v-262h4c65 63 139 69 165 69c165 0 172 -108 172 -155v-197c0 -46 4 -71 44 -81v-34h-174v34c40 3 44 36 44 81v209c0 69 -23 100 -99 100c-23 0 -99 -9 -156 -82v-227c0 -44 10 -76 59 -81v-34h-204v34c47 7 59 35 59 81
v545h-102c-58 0 -98 -24 -109 -88h-34v136l212 -9h211z" />
    <glyph glyph-name="afii10061" unicode="&#x40c;" horiz-adv-x="704" 
d="M52 700h204v-34c-53 -6 -59 -49 -59 -81v-151c8 -1 15 -1 22 -1c118 0 152 76 174 124c29 66 68 151 159 151c18 0 39 -2 61 -11v-155h-34c-6 52 -33 59 -51 59c-39 0 -58 -38 -87 -78c-26 -35 -78 -87 -126 -100v-6c125 -16 175 -93 210 -181c26 -67 62 -210 179 -194
v-45c-20 -5 -37 -6 -60 -5c-145 7 -169 86 -238 257c-57 143 -131 146 -192 146h-17v-280c0 -48 12 -78 59 -81v-34h-204v34c41 4 59 32 59 81v470c0 48 -16 76 -59 81v34zM266 758l121 100c11 9 25 18 38 22c6 2 12 3 18 3c23 0 39 -16 39 -36c0 -22 -15 -34 -25 -40
c-14 -8 -24 -11 -37 -16l-143 -54z" />
    <glyph glyph-name="afii10062" unicode="&#x40e;" horiz-adv-x="630" 
d="M630 700v-34c-51 -9 -77 -42 -96 -87l-143 -331c-60 -138 -96 -256 -227 -256c-76 0 -127 36 -127 86c0 36 28 52 49 52c27 0 51 -22 52 -50c0 -8 -1 -15 0 -23c2 -14 10 -30 43 -30c64 0 105 73 133 143l-237 419c-21 37 -35 73 -77 77v34h204v-34
c-35 -2 -41 -21 -41 -32c0 -17 14 -42 23 -58l170 -301h4l132 304c6 14 12 31 12 43c0 29 -24 47 -52 44v34h178zM328 796c99 0 125 20 125 35c0 5 -5 11 -12 12c-3 1 -6 0 -9 0c-4 0 -9 -1 -13 0c-17 2 -27 16 -27 27s7 34 42 34c40 0 64 -30 64 -60
c0 -33 -28 -104 -170 -104c-141 0 -171 72 -171 104c0 30 26 60 65 60c35 0 42 -23 42 -34s-10 -25 -27 -27c-4 -1 -9 0 -13 0c-3 0 -6 1 -9 0c-7 -1 -12 -6 -12 -12c0 -10 13 -35 125 -35z" />
    <glyph glyph-name="afii10145" unicode="&#x40f;" horiz-adv-x="797" 
d="M541 700h204v-34c-42 -4 -59 -30 -59 -81v-470c0 -51 17 -77 59 -81v-34h-178c-114 0 -143 -138 -152 -259h-33c-11 138 -46 259 -151 259h-179v34c44 4 59 32 59 81v470c0 46 -13 77 -59 81v34h204v-34c-46 -4 -59 -35 -59 -81v-546h403v546c0 48 -16 76 -59 81v34z" />
    <glyph glyph-name="afii10017" unicode="&#x410;" horiz-adv-x="724" 
d="M379 708l270 -600c18 -41 39 -72 75 -74v-34h-196v34c33 5 36 16 36 39c0 4 -3 15 -9 29l-40 90h-348l-39 -85c-11 -24 -12 -32 -12 -35c0 -11 4 -31 39 -38v-34h-155v34c42 3 70 51 79 71l225 486c8 17 9 21 9 25c0 12 -11 15 -24 15v34c24 6 56 27 70 43h20zM497 231
l-148 329h-11l-153 -329h312z" />
    <glyph glyph-name="afii10018" unicode="&#x411;" horiz-adv-x="642" 
d="M52 700h361c48 0 48 4 112 8v-154h-34c-29 101 -105 107 -169 107h-124v-248h138c237 0 256 -150 256 -199c0 -100 -70 -214 -219 -214h-321v34c48 6 60 36 60 81v470c0 45 -12 75 -60 81v34zM198 39h106c69 0 188 11 188 173c0 114 -69 162 -163 162h-131v-335z" />
    <glyph glyph-name="afii10019" unicode="&#x412;" horiz-adv-x="640" 
d="M52 700h272c79 0 193 -6 234 -121c6 -17 10 -36 10 -54c0 -17 -3 -33 -8 -49c-23 -69 -84 -100 -127 -111v-6c2 0 5 -1 7 -1c157 -24 161 -153 161 -173c0 -154 -158 -185 -227 -185h-322v34c47 2 60 32 60 81v470c0 47 -12 79 -60 81v34zM198 375h113c43 0 124 4 151 94
c5 17 6 36 6 54c0 15 -3 30 -8 45c-29 87 -108 93 -162 93h-100v-286zM198 39h134c49 0 169 14 169 146c0 101 -72 151 -177 151h-126v-297z" />
    <glyph glyph-name="afii10020" unicode="&#x413;" horiz-adv-x="543" 
d="M52 700h373c54 0 31 4 105 8v-170h-34c-10 42 -34 82 -70 104c-32 20 -67 24 -112 24h-117v-551c0 -55 21 -80 59 -81v-34h-204v34c47 5 59 36 59 81v470c0 49 -15 81 -59 81v34z" />
    <glyph glyph-name="afii10021" unicode="&#x414;" horiz-adv-x="711" 
d="M282 700h357v-34c-47 -9 -51 -39 -51 -82v-490c0 -25 4 -51 47 -51c12 0 23 2 35 2c20 0 34 -10 34 -32c0 -33 -45 -95 -71 -124c-14 -16 -47 -55 -63 -55c-15 0 -22 4 -22 12c0 32 47 53 47 113c0 39 -39 41 -66 41h-358c-25 0 -63 2 -63 -57c0 -16 8 -28 14 -39
c15 -30 25 -38 25 -50c0 -14 -3 -19 -14 -19c-20 0 -61 47 -75 66c-12 16 -51 58 -51 103c0 57 31 29 82 50c24 10 51 33 111 150c33 63 163 325 163 403c0 55 -50 59 -69 59h-12v34zM502 39v613h-20c-65 0 -73 -75 -102 -156c-39 -109 -87 -214 -112 -263
c-62 -123 -87 -140 -87 -167c0 -22 14 -27 59 -27h262z" />
    <glyph glyph-name="afii10022" unicode="&#x415;" horiz-adv-x="655" 
d="M52 700h394c96 0 53 11 125 8v-133h-34c-20 76 -82 86 -156 86h-183v-287h125c25 0 71 -3 82 56h33v-151h-33c-17 59 -38 56 -82 56h-125v-296h205c104 0 185 21 192 111h34l-11 -150h-566v34c45 5 60 37 60 81v470c0 46 -10 80 -60 81v34z" />
    <glyph glyph-name="afii10024" unicode="&#x416;" horiz-adv-x="946" 
d="M370 700h206v-34c-38 -1 -60 -26 -60 -81v-104c9 -1 18 -2 26 -2c66 0 97 39 122 84c43 78 55 145 131 145c14 0 32 -3 51 -13v-140h-34c-6 28 -15 55 -36 55c-5 0 -10 -2 -16 -5c-19 -10 -30 -34 -67 -83c-15 -20 -31 -42 -67 -59v-6c138 -41 216 -188 234 -311
c8 -55 3 -105 60 -112v-34h-214v34c42 2 52 41 52 85c0 41 -9 145 -62 225c-41 63 -91 96 -154 96c-8 0 -17 -1 -26 -2v-323c0 -53 13 -75 60 -81v-34h-206v34c47 6 60 28 60 81v323c-9 1 -18 2 -26 2c-63 0 -113 -33 -154 -96c-53 -80 -62 -184 -62 -225
c0 -44 10 -83 52 -85v-34h-214v34c57 7 52 57 60 112c18 123 96 270 234 311v6c-36 17 -52 39 -67 59c-37 49 -48 73 -67 83c-5 3 -10 3 -16 3h-8c-22 0 -23 -29 -28 -53h-34v140c19 10 37 13 51 13c76 0 88 -67 131 -145c25 -45 56 -84 122 -84c8 0 17 1 26 2v104
c0 55 -22 80 -60 81v34z" />
    <glyph glyph-name="afii10025" unicode="&#x417;" horiz-adv-x="679" 
d="M128 526v163h33c8 -15 19 -22 37 -22c15 0 34 5 60 14c39 14 79 27 136 27c159 0 235 -88 235 -183c0 -61 -31 -99 -74 -136v-6c60 -34 105 -98 105 -178c0 -131 -133 -213 -269 -213c-88 0 -159 20 -226 63c-26 17 -54 34 -76 34s-45 -33 -52 -42l-21 25
c37 53 71 96 121 96c34 0 71 -24 117 -60c44 -35 96 -77 160 -77c71 0 146 67 146 170c0 61 -24 107 -63 139c-40 -24 -106 -52 -176 -52c-76 0 -101 39 -101 65c0 15 7 48 61 67c21 7 51 11 96 11c36 0 71 -7 110 -21c36 33 51 78 51 114c0 47 -19 86 -50 111
c-22 18 -52 34 -95 34c-49 0 -177 -5 -237 -143h-28zM450 369c-36 20 -72 26 -108 26c-63 0 -81 -25 -81 -42c0 -9 6 -33 61 -33c24 0 86 7 128 49z" />
    <glyph glyph-name="afii10026" unicode="&#x418;" horiz-adv-x="799" 
d="M52 700h205v-34c-49 -5 -59 -37 -59 -81v-381h3l401 369v32c0 33 -27 58 -60 61v34h205v-34c-49 -5 -59 -37 -59 -81v-470c0 -45 9 -75 59 -81v-34h-205v34c48 4 60 38 60 81v396h-3l-401 -370v-26c0 -45 12 -76 59 -81v-34h-205v34c47 5 60 37 60 81v470
c0 44 -13 76 -60 81v34z" />
    <glyph glyph-name="afii10027" unicode="&#x419;" horiz-adv-x="799" 
d="M52 700h205v-34c-49 -5 -59 -37 -59 -81v-381h3l401 369v32c0 33 -27 58 -60 61v34h205v-34c-49 -5 -59 -37 -59 -81v-470c0 -45 9 -75 59 -81v-34h-205v34c48 4 60 38 60 81v396h-3l-401 -370v-26c0 -45 12 -76 59 -81v-34h-205v34c47 5 60 37 60 81v470
c0 44 -13 76 -60 81v34zM400 747c-95 0 -200 48 -200 129c0 67 59 94 104 94c30 0 59 -15 59 -47c0 -25 -20 -40 -43 -40c-25 0 -38 16 -57 16c-13 0 -23 -8 -23 -23c0 -29 51 -66 160 -66s160 37 160 66c0 15 -10 23 -23 23c-19 0 -32 -16 -57 -16c-23 0 -43 15 -43 40
c0 32 29 47 59 47c45 0 104 -27 104 -94c0 -81 -105 -129 -200 -129z" />
    <glyph glyph-name="afii10028" unicode="&#x41a;" horiz-adv-x="704" 
d="M52 700h204v-34c-53 -6 -59 -49 -59 -81v-151c8 -1 15 -1 22 -1c118 0 152 76 174 124c29 66 68 151 159 151c18 0 39 -2 61 -11v-155h-34c-6 52 -33 59 -51 59c-39 0 -58 -38 -87 -78c-26 -35 -78 -87 -126 -100v-6c125 -16 175 -93 210 -181c26 -67 62 -210 179 -194
v-45c-20 -5 -37 -6 -60 -5c-145 7 -169 86 -238 257c-57 143 -131 146 -192 146h-17v-280c0 -48 12 -78 59 -81v-34h-204v34c41 4 59 32 59 81v470c0 48 -16 76 -59 81v34z" />
    <glyph glyph-name="afii10029" unicode="&#x41b;" horiz-adv-x="732" 
d="M276 708h174l194 -596c14 -42 27 -82 80 -78v-34h-138l-198 613h-3c-35 -117 -25 -136 -89 -334c-45 -140 -90 -287 -211 -287c-39 0 -72 19 -72 55s22 54 53 54c13 0 26 -3 41 -9c8 -3 16 -7 24 -7c64 0 112 174 141 269c56 188 65 247 65 268c0 30 -11 49 -61 52v34z
" />
    <glyph glyph-name="afii10030" unicode="&#x41c;" horiz-adv-x="926" 
d="M233 700l224 -569h4l234 569h179v-34c-47 -5 -59 -37 -59 -81v-470c0 -57 28 -79 59 -81v-34h-204v34c28 2 59 19 59 81v547h-3l-277 -670h-33l-263 669h-3v-548c0 -61 32 -77 60 -79v-34h-158v34c51 5 59 43 59 79v493c0 42 -29 59 -59 60v34h181z" />
    <glyph glyph-name="afii10031" unicode="&#x41d;" horiz-adv-x="798" 
d="M256 700v-34c-44 -4 -59 -32 -59 -81v-209h403v209c0 51 -15 76 -59 81v34h205v-34c-55 -5 -60 -52 -60 -81v-470c0 -49 18 -77 60 -81v-34h-205v34c44 5 59 30 59 81v222h-403v-222c0 -44 11 -77 59 -81v-34h-204v34c48 4 59 37 59 81v470c0 44 -11 77 -59 81v34h204z
" />
    <glyph glyph-name="afii10032" unicode="&#x41e;" horiz-adv-x="788" 
d="M394 708c232 0 355 -191 355 -358s-123 -358 -355 -358s-355 191 -355 358s123 358 355 358zM394 669c-138 0 -255 -114 -255 -319s117 -319 255 -319s255 114 255 319s-117 319 -255 319z" />
    <glyph glyph-name="afii10033" unicode="&#x41f;" horiz-adv-x="797" 
d="M52 700h693v-34c-42 -4 -59 -30 -59 -81v-470c0 -45 11 -77 59 -81v-34h-205v34c44 4 60 34 60 81v546h-403v-546c0 -46 13 -77 59 -81v-34h-204v34c46 4 59 35 59 81v470c0 49 -15 77 -59 81v34z" />
    <glyph glyph-name="afii10034" unicode="&#x420;" horiz-adv-x="654" 
d="M52 0v34c48 2 60 40 60 88v370c0 197 193 216 256 216c81 0 247 -52 247 -247c0 -115 -83 -245 -265 -245c-40 0 -99 8 -149 50h-3v-141c0 -57 10 -91 63 -91v-34h-209zM198 534v-202c45 -66 104 -77 150 -77c155 0 167 119 167 206c0 74 -6 208 -165 208
c-90 0 -152 -58 -152 -135z" />
    <glyph glyph-name="afii10035" unicode="&#x421;" horiz-adv-x="686" 
d="M620 530h-34c-39 101 -131 139 -208 139c-113 0 -239 -102 -239 -324c0 -204 107 -314 258 -314c87 0 176 48 229 109l21 -23c-61 -69 -152 -125 -269 -125c-193 0 -339 133 -339 354c0 208 137 362 331 362c50 0 92 -8 140 -22c39 -11 57 -14 71 -14c12 0 21 9 24 12h15
v-154z" />
    <glyph glyph-name="afii10036" unicode="&#x422;" horiz-adv-x="680" 
d="M13 573v135l227 -8h200l227 8v-135h-34c-1 30 -21 88 -109 88h-141v-546c0 -44 10 -76 59 -81v-34h-205v34c48 6 60 36 60 81v546h-142c-73 0 -98 -39 -108 -88h-34z" />
    <glyph glyph-name="afii10037" unicode="&#x423;" horiz-adv-x="630" 
d="M630 700v-34c-53 -11 -75 -40 -95 -87l-143 -331c-60 -138 -98 -256 -228 -256c-45 0 -126 18 -126 86c0 36 25 52 48 52c28 0 53 -22 53 -50c0 -8 -1 -15 -1 -23c0 -11 7 -31 43 -31c29 0 88 20 133 144l-236 419c-25 45 -41 75 -78 77v34h205v-34
c-31 -1 -41 -18 -41 -32c0 -17 14 -42 23 -58l169 -301h4l133 304c5 11 11 34 11 43c0 29 -23 47 -51 44v34h177z" />
    <glyph glyph-name="afii10038" unicode="&#x424;" horiz-adv-x="918" 
d="M355 700h208v-34c-48 -4 -61 -38 -61 -81v-46h4c32 54 95 90 159 90c126 0 214 -133 214 -290c0 -178 -114 -268 -219 -268c-74 0 -120 41 -155 98h-3v-54c0 -43 13 -77 61 -81v-34h-208v34c48 4 61 38 61 81v54h-3c-35 -57 -81 -98 -155 -98c-105 0 -219 90 -219 268
c0 157 88 290 214 290c64 0 127 -36 159 -90h4v46c0 43 -13 77 -61 81v34zM502 394v-59c0 -203 104 -217 140 -217c52 0 137 35 137 225c0 206 -78 239 -140 239c-58 0 -137 -43 -137 -188zM416 335v59c0 142 -76 188 -137 188c-59 0 -140 -37 -140 -239
c0 -191 86 -225 137 -225c65 0 140 50 140 217z" />
    <glyph glyph-name="afii10039" unicode="&#x425;" horiz-adv-x="790" 
d="M753 700v-34c-50 -3 -78 -24 -116 -66l-197 -219l201 -259c57 -73 113 -85 136 -88v-34h-243v34h10c15 0 23 11 23 22c0 7 -3 20 -20 42l-170 218l-197 -223c-14 -16 -17 -28 -17 -35c0 -17 15 -24 31 -24h7v-34h-188v34c39 3 79 27 108 59l231 256l-170 218
c-31 40 -80 99 -127 99h-13v34h235v-34c-13 0 -27 -6 -27 -16c0 -16 4 -31 10 -38l155 -200l166 191c7 8 20 26 20 37c0 12 -11 26 -32 26v34h184z" />
    <glyph glyph-name="afii10040" unicode="&#x426;" horiz-adv-x="804" 
d="M52 700h205v-34c-56 -9 -59 -57 -59 -81v-546h404v546c0 44 -12 73 -59 81v34h204v-34c-47 -5 -59 -37 -59 -81v-491c0 -22 -4 -42 31 -75c24 -22 50 -48 50 -100c0 -51 -39 -125 -160 -125c-66 0 -148 24 -152 25c-102 30 -171 72 -258 72c-14 0 -55 0 -61 -31
c2 1 5 1 7 1c22 0 35 -17 35 -35c0 -20 -15 -35 -35 -35c-22 0 -41 18 -41 53c0 54 56 99 155 99c34 0 77 -7 116 -17c121 -30 211 -79 284 -79c56 0 76 43 76 71c0 76 -62 82 -94 82h-589v34c50 4 60 38 60 81v470c0 43 -10 77 -60 81v34z" />
    <glyph glyph-name="afii10041" unicode="&#x427;" horiz-adv-x="695" 
d="M13 700h204v-34c-47 -5 -59 -37 -59 -81v-135c0 -56 16 -132 152 -132c58 0 136 23 187 48v219c0 43 -10 76 -59 81v34h205v-34c-53 -5 -60 -50 -60 -81v-470c0 -47 16 -77 60 -81v-34h-205v34c45 5 59 35 59 81v204c-55 -22 -126 -44 -206 -44c-199 0 -219 101 -219 183
v127c0 44 -10 76 -59 81v34z" />
    <glyph glyph-name="afii10042" unicode="&#x428;" horiz-adv-x="1110" 
d="M52 0v34c47 5 59 37 59 81v470c0 44 -12 76 -59 81v34h204v-34c-47 -5 -59 -37 -59 -81v-546h315v546c0 43 -10 77 -60 81v34h205v-34c-50 -6 -59 -36 -59 -81v-546h315v546c0 45 -14 77 -60 81v34h205v-34c-47 -5 -59 -36 -59 -81v-470c0 -44 10 -76 59 -81v-34h-1006z
" />
    <glyph glyph-name="afii10043" unicode="&#x429;" horiz-adv-x="1128" 
d="M1058 700v-34c-47 -5 -59 -36 -59 -81v-475c0 -77 23 -77 53 -105c20 -17 41 -45 41 -84c0 -66 -59 -127 -218 -127c-124 0 -257 40 -315 58c-66 20 -124 39 -181 39c-19 0 -57 -1 -63 -31c21 5 42 -10 42 -34c0 -20 -15 -35 -35 -35c-16 0 -41 10 -41 52
c0 87 112 102 165 101c50 0 122 -7 261 -49c103 -30 183 -49 241 -49c34 0 111 9 111 72c0 33 -16 82 -131 82h-877v34c47 5 59 37 59 81v470c0 44 -12 76 -59 81v34h204v-34c-47 -5 -59 -37 -59 -81v-546h315v546c0 43 -10 77 -60 81v34h205v-34c-50 -6 -59 -36 -59 -81
v-546h315v546c0 45 -14 77 -60 81v34h205z" />
    <glyph glyph-name="afii10044" unicode="&#x42a;" horiz-adv-x="760" 
d="M13 700h380v-34c-27 -2 -59 -19 -59 -81v-179h128c82 0 259 -11 259 -201c0 -197 -169 -205 -254 -205h-278v34c49 5 59 38 59 81v546h-73c-75 0 -104 -64 -126 -127h-36v166zM334 39h112c69 0 175 2 175 162c0 62 -6 166 -184 166h-103v-328z" />
    <glyph glyph-name="afii10045" unicode="&#x42b;" horiz-adv-x="851" 
d="M52 700h206v-34c-48 -4 -60 -38 -60 -81v-179h128c61 0 259 0 259 -201c0 -200 -160 -205 -254 -205h-279v34c48 6 60 36 60 81v470c0 45 -12 75 -60 81v34zM198 39h112c160 0 175 80 175 162c0 63 -7 166 -184 166h-103v-328zM818 700v-34c-54 -6 -59 -47 -59 -81v-470
c0 -43 9 -77 59 -81v-34h-205v34c48 4 60 38 60 81v470c0 47 -16 77 -60 81v34h205z" />
    <glyph glyph-name="afii10046" unicode="&#x42c;" horiz-adv-x="618" 
d="M52 700h206v-34c-48 -4 -60 -38 -60 -81v-179h128c61 0 259 0 259 -201c0 -200 -160 -205 -254 -205h-279v34c48 6 60 36 60 81v470c0 45 -12 75 -60 81v34zM198 39h112c55 0 175 -8 175 161c0 64 -7 167 -184 167h-103v-328z" />
    <glyph glyph-name="afii10047" unicode="&#x42d;" horiz-adv-x="684" 
d="M81 694h39c9 -13 20 -20 37 -20c20 0 47 14 82 22c30 7 76 12 103 12c149 0 303 -125 303 -345c0 -93 -25 -185 -96 -263c-66 -72 -146 -108 -260 -108c-160 0 -250 90 -250 168c0 37 23 67 56 67c34 0 62 -27 62 -60c0 -13 -3 -26 -7 -39c-3 -8 -7 -16 -7 -25
c0 -52 87 -72 141 -72c175 0 256 149 261 303v33c-25 -37 -71 -73 -118 -73c-24 0 -59 8 -83 19c-81 38 -87 53 -124 53c-22 0 -28 -5 -55 -39l-27 18c33 49 68 93 136 93c25 0 55 -10 107 -36c29 -14 64 -31 98 -31c48 0 66 45 66 85c0 80 -64 213 -225 213
c-126 0 -183 -94 -205 -147h-34v172z" />
    <glyph glyph-name="afii10048" unicode="&#x42e;" horiz-adv-x="1109" 
d="M197 389h165c17 158 141 319 353 319c232 0 355 -191 355 -358s-123 -358 -355 -358c-192 0 -354 147 -355 358h-163v-235c0 -43 10 -77 60 -81v-34h-205v34c49 5 59 38 59 81v469c0 39 -6 72 -59 82v34h205v-34c-55 -9 -60 -45 -60 -81v-196zM715 669
c-138 0 -255 -114 -255 -319s117 -319 255 -319s255 114 255 319s-117 319 -255 319z" />
    <glyph glyph-name="afii10049" unicode="&#x42f;" horiz-adv-x="694" 
d="M436 34c46 4 60 36 60 81v212h-103c-99 0 -119 -67 -132 -112c-25 -85 -54 -172 -128 -206c-23 -11 -49 -17 -74 -17h-30c-10 0 -19 0 -29 1v34c36 -1 71 16 91 48c34 54 32 167 123 235c19 14 36 23 57 28v3c-84 0 -180 59 -180 168c0 104 56 191 301 191h250v-34
c-48 -4 -60 -38 -60 -81v-470c0 -31 7 -76 60 -81v-34h-206v34zM496 661h-100c-64 0 -205 -2 -205 -147c0 -113 80 -148 188 -148h117v295z" />
    <glyph glyph-name="afii10065" unicode="&#x430;" horiz-adv-x="399" 
d="M385 39l7 -11c-16 -24 -37 -36 -64 -36c-38 0 -58 30 -65 55h-2c-26 -28 -65 -55 -118 -55c-77 0 -117 47 -117 106c0 103 101 133 227 141c0 71 -9 123 -74 123c-17 0 -39 -6 -49 -33c-7 -18 -6 -42 -38 -42c-10 0 -32 5 -32 30c0 31 44 76 128 76
c134 0 138 -103 138 -171v-126c0 -15 0 -62 41 -62c6 0 12 2 18 5zM253 171v35c-122 -6 -149 -65 -149 -106c0 -44 33 -66 70 -66c73 0 79 73 79 137z" />
    <glyph glyph-name="afii10066" unicode="&#x431;" horiz-adv-x="449" 
d="M378 598c0 -44 -18 -101 -114 -101c-16 0 -31 2 -47 2c-69 0 -106 -35 -107 -157h5c37 39 88 51 124 51c87 0 184 -61 184 -197c0 -106 -71 -204 -194 -204c-63 0 -132 25 -171 92c-22 39 -32 84 -32 127c0 53 4 94 20 144c62 193 191 219 272 225c22 2 32 3 42 18h18z
M226 362c-47 0 -116 -28 -116 -170c0 -152 81 -169 115 -169c48 0 114 25 114 169c0 124 -53 170 -113 170z" />
    <glyph glyph-name="afii10067" unicode="&#x432;" horiz-adv-x="424" 
d="M26 385h199c56 0 152 -1 152 -91c0 -17 -5 -72 -80 -88v-2c102 -9 101 -83 101 -99c0 -32 -13 -105 -154 -105h-218v29c40 3 45 35 45 72v182c0 38 -3 66 -45 73v29zM144 354v-137h65c51 0 88 15 88 70c0 48 -30 67 -88 67h-65zM144 186v-155h68c62 0 102 21 102 79
c0 60 -44 76 -110 76h-60z" />
    <glyph glyph-name="afii10068" unicode="&#x433;" horiz-adv-x="345" 
d="M26 385h306v-123h-29c-10 39 -21 59 -34 70c-16 13 -41 22 -80 22h-45v-253c0 -37 6 -74 49 -72v-29h-167v29c40 5 45 33 45 72v182c0 41 -3 64 -45 73v29z" />
    <glyph glyph-name="afii10069" unicode="&#x434;" horiz-adv-x="468" 
d="M409 385v-29c-40 -1 -43 -23 -43 -64v-199c0 -39 6 -56 41 -59c27 -3 54 4 54 -25c0 -17 -9 -36 -22 -56c-33 -52 -48 -57 -57 -57c-8 0 -11 5 -11 11s3 13 4 16c6 14 10 31 10 43c0 30 -17 34 -45 34h-211c-35 0 -39 -21 -39 -34c0 -10 4 -19 7 -27c3 -9 7 -21 7 -30
c0 -7 -3 -13 -9 -13c-16 0 -45 32 -56 47c-9 12 -32 50 -32 68c0 9 4 15 14 16h11c39 -1 54 34 68 64c56 122 87 196 87 227c0 37 -38 38 -46 38h-12v29h280zM293 352h-15c-30 0 -39 -16 -46 -34c-20 -49 -25 -82 -72 -189c-25 -56 -32 -68 -32 -78c0 -13 7 -20 37 -20h128
v321z" />
    <glyph glyph-name="afii10070" unicode="&#x435;" horiz-adv-x="386" 
d="M360 77c-35 -44 -91 -85 -155 -85c-65 0 -179 33 -179 187c0 128 74 214 176 214c103 0 148 -88 148 -163v-7h-239c-1 -14 -1 -28 -1 -42c0 -57 13 -148 108 -148c51 0 97 33 124 61zM271 254v9c0 72 -36 99 -74 99c-41 0 -82 -28 -84 -108h158z" />
    <glyph glyph-name="afii10072" unicode="&#x436;" horiz-adv-x="671" 
d="M255 385h161v-29c-39 -8 -44 -31 -44 -73v-39h7c77 0 95 52 123 96c27 43 50 54 92 54l19 -1v-107h-29c-5 18 -10 31 -30 31c-25 0 -39 -31 -68 -59c-14 -13 -23 -20 -33 -25v-3c16 -5 26 -8 36 -12c78 -33 104 -103 111 -126c12 -37 11 -67 58 -63v-29h-176v29
c40 -1 41 19 41 36c0 19 -8 41 -16 59c-13 31 -47 89 -135 89v-112c0 -42 7 -68 44 -72v-29h-161v29c37 4 44 30 44 72v112c-88 0 -122 -58 -135 -89c-8 -18 -16 -40 -16 -59c0 -17 1 -37 41 -36v-29h-176v29c47 -4 46 26 58 63c7 23 33 93 111 126c10 4 20 7 36 12v3
c-10 5 -19 12 -33 25c-29 28 -43 59 -68 59c-20 0 -25 -13 -30 -31h-29v107l19 1c42 0 65 -11 92 -54c28 -44 46 -96 123 -96h7v39c0 42 -5 65 -44 73v29z" />
    <glyph glyph-name="afii10073" unicode="&#x437;" horiz-adv-x="408" 
d="M63 275v113h20c5 -6 13 -12 27 -12c15 0 26 5 48 10c15 4 35 7 56 7c101 0 142 -54 142 -99c0 -26 -9 -61 -37 -84v-3c39 -12 63 -47 63 -85c0 -81 -68 -130 -166 -130c-16 0 -33 2 -49 5c-36 7 -60 17 -83 25c-7 3 -14 5 -21 5c-13 0 -33 -11 -43 -19l-13 11
c22 36 47 67 83 67c28 0 47 -19 66 -34c20 -16 44 -29 71 -29c38 0 77 23 77 85c0 24 -10 49 -31 68c-32 -24 -74 -32 -97 -32c-43 0 -64 23 -64 47c0 25 22 51 73 51c24 0 55 -6 81 -16c10 17 16 43 16 60c0 29 -13 76 -81 76c-43 0 -85 -18 -109 -87h-29zM248 200
c-23 13 -42 18 -69 18c-26 0 -37 -14 -37 -27c0 -9 7 -23 34 -23c24 0 54 12 72 32z" />
    <glyph glyph-name="afii10074" unicode="&#x438;" horiz-adv-x="460" 
d="M26 385h162v-29c-42 -9 -44 -32 -44 -73v-143h2l171 160c1 31 -9 48 -43 56v29h160v-29c-39 -8 -44 -30 -44 -73v-182c0 -41 8 -68 44 -72v-29h-162v29c36 4 45 29 45 72v148h-2l-171 -158c-2 -33 7 -57 44 -62v-29h-162v29c36 3 45 31 45 72v182c0 39 -5 69 -45 73v29z
" />
    <glyph glyph-name="afii10075" unicode="&#x439;" horiz-adv-x="460" 
d="M26 385h162v-29c-42 -9 -44 -32 -44 -73v-143h2l171 160c1 31 -9 48 -43 56v29h160v-29c-39 -8 -44 -30 -44 -73v-182c0 -41 8 -68 44 -72v-29h-162v29c36 4 45 29 45 72v148h-2l-171 -158c-2 -33 7 -57 44 -62v-29h-162v29c36 3 45 31 45 72v182c0 39 -5 69 -45 73v29z
M229 484c-96 0 -140 51 -141 90c-1 38 34 66 73 66c21 0 41 -11 41 -33c0 -18 -14 -28 -30 -28c-10 0 -19 5 -24 7c-4 2 -9 4 -16 4c-11 0 -16 -8 -16 -16c0 -25 45 -46 113 -46s113 21 113 46c0 8 -5 16 -16 16c-7 0 -12 -2 -16 -4c-5 -2 -14 -7 -24 -7
c-16 0 -30 10 -30 28c0 22 20 33 41 33c39 0 74 -28 73 -66c-1 -39 -45 -90 -141 -90z" />
    <glyph glyph-name="afii10076" unicode="&#x43a;" horiz-adv-x="445" 
d="M143 225h11c70 0 79 37 101 82c28 58 53 87 111 87c6 0 13 0 20 -1v-106h-29c-9 19 -16 30 -34 30c-35 0 -43 -68 -91 -95v-3c78 -14 105 -70 139 -146c14 -32 12 -41 61 -55v-20c-12 -4 -24 -6 -37 -6c-86 0 -105 43 -136 118c-19 45 -35 84 -89 84h-27v-93
c0 -43 7 -68 44 -72v-29h-161v29c37 4 44 29 44 72v182c0 41 -2 64 -44 73v29h161v-29c-42 -9 -44 -32 -44 -73v-58z" />
    <glyph glyph-name="afii10077" unicode="&#x43b;" horiz-adv-x="435" 
d="M148 385h133l85 -290c12 -41 26 -70 62 -66v-29h-112l-88 299h-3c-19 -65 -30 -112 -49 -165c-29 -81 -60 -142 -118 -142c-9 0 -19 0 -27 4c-17 8 -24 25 -24 41s16 31 39 31c15 0 23 -9 35 -9c5 0 10 0 15 2c20 8 36 42 55 100c12 38 42 135 42 163c0 7 -1 35 -45 32
v29z" />
    <glyph glyph-name="afii10078" unicode="&#x43c;" horiz-adv-x="545" 
d="M163 385l106 -275h2l125 275h123v-29c-42 -9 -44 -32 -44 -73v-182c0 -40 5 -70 44 -72v-29h-162v29c40 0 45 36 45 72v207h-6l-143 -317h-15l-128 330h-9v-242c0 -35 15 -50 44 -50v-29h-119v29c31 4 44 22 44 50v233c0 17 -3 44 -44 44v29h137z" />
    <glyph glyph-name="afii10079" unicode="&#x43d;" horiz-adv-x="466" 
d="M26 0v29c37 4 44 29 44 72v182c0 41 -2 64 -44 73v29h162v-29c-40 -8 -45 -29 -45 -73v-75h179v75c0 38 -3 66 -45 73v29h163v-29c-42 -9 -45 -32 -45 -73v-182c0 -39 5 -67 45 -72v-29h-163v29c40 3 45 35 45 72v76h-179v-76c0 -42 6 -69 45 -72v-29h-162z" />
    <glyph glyph-name="afii10080" unicode="&#x43e;" 
d="M216 393c37 0 149 -11 183 -147c5 -19 7 -39 7 -59c0 -17 -3 -33 -7 -49c-35 -138 -156 -146 -183 -146s-148 8 -183 146c-4 16 -7 32 -7 49c0 20 2 40 7 59c34 136 146 147 183 147zM216 362c-56 0 -106 -25 -106 -170c0 -48 -2 -169 106 -169s106 121 106 169
c0 145 -50 170 -106 170z" />
    <glyph glyph-name="afii10081" unicode="&#x43f;" horiz-adv-x="466" 
d="M440 385v-29c-42 -9 -45 -32 -45 -73v-182c0 -39 5 -67 45 -72v-29h-163v29c40 3 45 35 45 72v253h-179v-253c0 -37 5 -69 45 -72v-29h-162v29c37 4 44 29 44 72v182c0 41 -2 64 -44 73v29h414z" />
    <glyph glyph-name="afii10082" unicode="&#x440;" horiz-adv-x="455" 
d="M13 -184v29c37 3 44 32 44 72v287c0 28 -3 59 12 93c17 39 68 96 169 96c85 0 191 -57 191 -200c0 -48 -17 -113 -65 -157c-31 -28 -80 -44 -120 -44c-25 0 -77 5 -111 41h-3v-115c0 -43 8 -73 51 -73v-29h-168zM130 252v-116c0 -22 5 -113 107 -113c62 0 108 35 108 169
c0 85 -17 170 -107 170c-84 0 -108 -78 -108 -110z" />
    <glyph glyph-name="afii10083" unicode="&#x441;" horiz-adv-x="392" 
d="M355 89l17 -18c-34 -39 -87 -79 -160 -79c-95 0 -186 66 -186 193c0 118 80 208 191 208c84 0 125 -39 125 -74c0 -17 -13 -35 -37 -35c-10 0 -38 2 -40 39v2c-1 14 -3 37 -46 37c-53 0 -109 -44 -109 -177c0 -130 89 -147 124 -147c38 0 94 21 121 51z" />
    <glyph glyph-name="afii10084" unicode="&#x442;" horiz-adv-x="393" 
d="M13 385h367v-123h-29c-6 68 -47 92 -102 92h-16v-253c0 -42 9 -69 46 -72v-29h-164v29c39 5 45 28 45 72v253h-15c-61 0 -95 -28 -103 -92h-29v123z" />
    <glyph glyph-name="afii10085" unicode="&#x443;" horiz-adv-x="429" 
d="M429 385v-29c-41 -9 -50 -39 -60 -60l-157 -348c-36 -79 -66 -132 -135 -132c-35 0 -69 16 -69 53c0 30 20 43 37 43c14 0 24 -6 31 -11c9 -7 16 -14 33 -14c26 0 43 21 55 48l30 66l-118 294c-15 39 -36 64 -71 61v29h184v-29h-10c-19 0 -29 -10 -29 -25
c0 -8 6 -25 9 -32l77 -193h4l80 177c3 8 13 28 13 42c0 13 -9 33 -39 31v29h135z" />
    <glyph glyph-name="afii10086" unicode="&#x444;" horiz-adv-x="583" 
d="M372 482v-29c-40 -5 -44 -36 -44 -53v-35h1c28 25 57 28 76 28c76 0 152 -65 152 -193c0 -135 -73 -208 -152 -208c-32 0 -57 14 -74 29h-3v-103c0 -37 5 -70 45 -73v-29h-163v29c40 5 45 34 45 73v103h-3c-12 -11 -37 -29 -74 -29c-90 0 -152 97 -152 208
c0 92 50 193 152 193c19 0 48 -3 76 -28h1v35c0 39 -26 51 -44 53v29h161zM255 267c0 36 -4 97 -68 97c-78 0 -77 -85 -77 -154c0 -91 -3 -189 76 -189c68 0 69 66 69 83v163zM328 267v-163c0 -17 1 -83 69 -83c79 0 76 98 76 189c0 69 1 154 -77 154c-64 0 -68 -61 -68 -97
z" />
    <glyph glyph-name="afii10087" unicode="&#x445;" horiz-adv-x="416" 
d="M392 385v-29c-34 0 -54 -23 -82 -59l-59 -78l97 -135c26 -36 41 -56 68 -55v-29h-175v29h9c18 0 27 14 27 24c0 11 -13 29 -15 31l-57 74h-1l-52 -68c-18 -23 -20 -33 -20 -39c0 -20 19 -23 40 -22v-29h-152v29h11c28 0 56 29 88 72l65 87l-72 99c-38 52 -54 67 -82 69
v29h170v-29c-19 -1 -32 -3 -32 -13c0 -3 1 -11 27 -47l35 -48l40 57c8 11 18 23 18 35c0 9 -8 17 -25 16v29h129z" />
    <glyph glyph-name="afii10088" unicode="&#x446;" horiz-adv-x="481" 
d="M441 385v-29c-39 -3 -45 -29 -45 -71v-220c0 -19 13 -28 24 -35c25 -17 71 -40 71 -91c0 -56 -45 -110 -126 -110c-26 0 -77 12 -104 21c-43 15 -85 36 -130 36c-20 0 -27 -12 -27 -22c0 -3 1 -7 8 -7c16 0 7 7 19 7c11 0 23 -7 23 -24c0 -14 -9 -29 -31 -29
c-26 0 -41 19 -41 42c0 32 30 82 120 82c34 0 63 -10 90 -19c62 -20 90 -32 114 -32c36 0 56 25 56 56c0 41 -42 60 -83 60h-353v29c40 3 45 35 45 72v184c0 39 -5 70 -45 71v29h163v-29c-41 -2 -45 -30 -45 -71v-254h179v254c0 41 -4 69 -45 71v29h163z" />
    <glyph glyph-name="afii10089" unicode="&#x447;" 
d="M13 385h160v-29c-25 -2 -43 -20 -43 -52v-35c0 -60 25 -68 60 -68c19 0 59 2 98 17v65c0 41 -3 64 -45 73v29h163v-29c-42 -9 -45 -32 -45 -73v-182c0 -39 5 -67 45 -72v-29h-169v29c48 3 51 30 51 72v85c-31 -11 -90 -26 -128 -26c-102 0 -103 63 -103 84v61
c0 10 -1 45 -44 51v29z" />
    <glyph glyph-name="afii10090" unicode="&#x448;" horiz-adv-x="669" 
d="M480 385h163v-29c-40 -8 -45 -29 -45 -73v-182c0 -42 6 -69 45 -72v-29h-617v29c42 6 45 34 45 72v182c0 39 -5 68 -45 73v29h163v-29c-39 -8 -45 -34 -45 -73v-252h154v252c0 41 -3 64 -45 73v29h163v-29c-43 -6 -45 -32 -45 -73v-252h154v252c0 38 -3 66 -45 73v29z
" />
    <glyph glyph-name="afii10091" unicode="&#x449;" horiz-adv-x="690" 
d="M480 385h162v-29c-40 -8 -45 -29 -45 -73v-202c0 -18 3 -32 11 -41c15 -16 64 -39 57 -107c-6 -61 -61 -104 -139 -104c-34 0 -81 8 -119 21c-75 25 -111 37 -144 37c-23 0 -32 -14 -32 -23c0 -3 2 -7 8 -7c3 0 6 2 9 3c5 2 10 4 15 4c14 0 25 -10 25 -22s-9 -31 -38 -31
c-28 0 -44 21 -44 42c0 39 44 82 135 82c39 0 72 -10 101 -19c80 -24 105 -32 125 -32c45 0 66 29 66 56c0 44 -52 60 -88 60h-520v29c42 6 45 34 45 72v182c0 39 -5 68 -45 73v29h163v-29c-39 -8 -45 -34 -45 -73v-252h154v252c0 41 -3 64 -45 73v29h163v-29
c-43 -6 -45 -32 -45 -73v-252h154v252c0 40 -5 67 -44 73v29z" />
    <glyph glyph-name="afii10092" unicode="&#x44a;" horiz-adv-x="499" 
d="M13 385h251v-29c-42 -7 -45 -35 -45 -73v-29c39 19 71 27 111 27c94 0 143 -62 143 -143c0 -55 -30 -138 -149 -138h-223v29c40 5 45 33 45 72v253c-70 1 -100 -27 -104 -104h-29v135zM219 31h59c35 0 111 6 111 111c0 89 -64 95 -89 95c-27 0 -59 -12 -81 -23v-183z" />
    <glyph glyph-name="afii10093" unicode="&#x44b;" horiz-adv-x="610" 
d="M26 385h163v-29c-42 -7 -45 -35 -45 -73v-29c39 19 71 27 111 27c94 0 143 -62 143 -143c0 -55 -30 -138 -149 -138h-223v29c40 5 45 33 45 72v182c0 41 -3 64 -45 73v29zM144 31h59c35 0 111 6 111 111c0 89 -64 95 -89 95c-27 0 -59 -12 -81 -23v-183zM423 356v29h161
v-29c-42 -9 -44 -32 -44 -73v-202c0 -5 0 -47 44 -52v-29h-161v29c7 1 44 6 44 52v202c0 41 -2 64 -44 73z" />
    <glyph glyph-name="afii10094" unicode="&#x44c;" horiz-adv-x="424" 
d="M26 385h163v-29c-42 -7 -45 -35 -45 -73v-29c39 19 71 27 111 27c94 0 143 -62 143 -143c0 -55 -30 -138 -149 -138h-223v29c40 5 45 33 45 72v182c0 41 -3 64 -45 73v29zM144 31h59c35 0 111 6 111 111c0 89 -64 95 -89 95c-27 0 -59 -12 -81 -23v-183z" />
    <glyph glyph-name="afii10095" unicode="&#x44d;" horiz-adv-x="420" 
d="M59 389h15c8 -5 16 -9 28 -9s27 4 46 8s31 5 51 5c134 0 195 -101 195 -202c0 -111 -78 -168 -117 -184c-22 -9 -56 -15 -82 -15c-95 0 -148 48 -148 89c0 21 13 43 43 43c23 0 38 -15 38 -35c0 -7 -1 -13 -1 -20c0 -39 38 -46 67 -46c100 0 116 105 116 147
c0 11 0 22 -1 33h-3c-18 -33 -50 -48 -73 -48c-14 0 -27 4 -40 8c-40 13 -56 24 -74 24c-11 0 -25 -4 -37 -10l-8 15c22 21 51 45 84 45c12 0 23 -4 34 -8c38 -14 54 -21 73 -21c33 0 43 24 43 52c0 19 -14 50 -28 67c-20 23 -52 35 -82 35c-62 0 -88 -26 -110 -82h-29v109z
" />
    <glyph glyph-name="afii10096" unicode="&#x44e;" horiz-adv-x="645" 
d="M144 208h95c10 152 130 185 190 185c94 0 190 -65 190 -200c0 -90 -58 -201 -190 -201c-121 0 -184 90 -190 185h-95v-76c0 -43 7 -68 44 -72v-29h-162v29c39 3 45 30 45 72v182c0 44 -5 65 -45 73v29h162v-29c-42 -9 -44 -32 -44 -73v-75zM429 362
c-102 0 -106 -110 -106 -170c0 -48 -2 -169 106 -169s106 121 106 169c0 58 -5 170 -106 170z" />
    <glyph glyph-name="afii10097" unicode="&#x44f;" horiz-adv-x="417" 
d="M390 385v-29c-43 -8 -44 -41 -44 -52v-203c0 -37 5 -69 45 -72v-29h-163v29c40 5 45 33 45 72v77h-11c-32 0 -63 -3 -92 -81c-20 -54 -39 -105 -143 -105h-27v28c52 3 66 49 78 79c17 45 40 72 86 85v3c-18 1 -28 4 -47 12c-23 10 -70 30 -70 86c0 46 27 100 155 100h188
zM273 354h-52c-83 0 -90 -45 -90 -74c0 -13 4 -71 79 -71h63v145z" />
    <glyph glyph-name="afii10071" unicode="&#x451;" horiz-adv-x="386" 
d="M360 77c-35 -44 -91 -85 -155 -85c-65 0 -179 33 -179 187c0 128 74 214 176 214c106 0 151 -93 148 -170h-239l-1 -42c-2 -96 38 -148 108 -148c51 0 97 33 124 61zM271 254c3 78 -35 108 -74 108c-41 0 -82 -28 -84 -108h158zM67 582c0 28 21 49 49 49
c31 0 49 -26 49 -49c0 -26 -23 -49 -49 -49c-23 0 -49 18 -49 49zM220 582c0 23 18 49 49 49c28 0 49 -21 49 -49c0 -31 -26 -49 -49 -49c-26 0 -49 23 -49 49z" />
    <glyph glyph-name="afii10099" unicode="&#x452;" horiz-adv-x="447" 
d="M26 700h118v-184h154v-31h-154v-135h6c42 33 88 43 121 43c128 0 150 -110 150 -240c0 -319 -138 -337 -178 -337c-12 0 -24 2 -36 5c-49 12 -57 44 -57 58c0 13 6 43 38 43c24 0 43 -15 43 -37v-3c-1 -6 -2 -11 -2 -16c0 -3 0 -6 2 -9c2 -4 8 -10 20 -10c10 0 19 3 28 7
c55 28 58 120 58 255c0 115 -5 238 -101 238c-30 0 -72 -13 -92 -34v-212c0 -43 7 -68 44 -72v-29h-162v29c40 3 45 35 45 72v384h-59v31h59v83c0 37 -5 69 -45 72v29z" />
    <glyph glyph-name="afii10100" unicode="&#x453;" horiz-adv-x="345" 
d="M26 385h306v-123h-29c-10 39 -21 59 -34 70c-16 13 -41 22 -80 22h-45v-253c0 -37 6 -74 49 -72v-29h-167v29c40 5 45 33 45 72v182c0 41 -3 64 -45 73v29zM81 519l105 130c11 13 25 20 40 20c22 0 37 -15 37 -37c0 -15 -7 -24 -16 -32c-6 -5 -13 -10 -31 -21l-122 -76z
" />
    <glyph glyph-name="afii10101" unicode="&#x454;" horiz-adv-x="423" 
d="M362 389v-109h-24c-20 53 -53 82 -110 82c-70 0 -122 -40 -119 -158h3c26 27 66 42 91 42c18 0 38 -10 58 -18c26 -10 35 -13 41 -13c11 0 25 4 35 10l8 -16c-24 -22 -47 -44 -80 -44c-11 0 -22 4 -32 8c-18 7 -40 20 -63 20c-24 0 -59 -6 -59 -39
c0 -74 61 -122 115 -122c40 0 95 14 134 57l16 -18c-57 -65 -119 -79 -164 -79c-87 0 -186 71 -186 199c0 95 56 202 198 202c28 0 38 -3 73 -10c7 -1 14 -3 21 -3c11 0 20 3 28 9h16z" />
    <glyph glyph-name="afii10102" unicode="&#x455;" horiz-adv-x="341" 
d="M166 393c82 0 123 -39 123 -75c0 -22 -16 -30 -31 -30c-32 0 -38 32 -40 42c0 5 -5 32 -50 32c-41 0 -75 -20 -75 -60c0 -44 32 -55 84 -69c48 -13 138 -34 138 -120c0 -71 -65 -121 -150 -121c-100 0 -139 53 -139 89c0 21 13 42 40 42c28 0 38 -18 38 -32
c0 -10 -4 -19 -4 -29c0 -14 16 -39 64 -39c56 0 81 33 81 66c0 41 -40 55 -63 63c-42 14 -70 19 -99 40c-38 27 -44 58 -44 84c0 72 54 117 127 117z" />
    <glyph glyph-name="afii10103" unicode="&#x456;" horiz-adv-x="214" 
d="M26 385h117v-284c0 -37 5 -69 45 -72v-29h-162v29c37 4 44 29 44 72v182c0 41 -2 64 -44 73v29zM47 565c0 21 18 48 49 48c27 0 48 -21 48 -48c0 -31 -27 -49 -48 -49c-26 0 -49 23 -49 49z" />
    <glyph glyph-name="afii10104" unicode="&#x457;" horiz-adv-x="224" 
d="M36 385h117v-284c0 -37 5 -69 45 -72v-29h-162v29c37 4 44 29 44 72v182c0 41 -2 64 -44 73v29zM-13 573c0 28 21 48 48 48c34 0 49 -29 49 -48c0 -24 -21 -49 -49 -49c-21 0 -48 17 -48 49zM123 573c0 19 15 48 49 48c27 0 48 -20 48 -48c0 -32 -27 -49 -48 -49
c-28 0 -49 25 -49 49z" />
    <glyph glyph-name="afii10105" unicode="&#x458;" horiz-adv-x="210" 
d="M11 385h144v-361c0 -55 -5 -106 -29 -147c-29 -50 -76 -61 -105 -61c-38 0 -60 22 -60 45c0 22 17 31 34 31c13 0 22 -7 29 -15c9 -10 15 -20 34 -20c8 0 24 3 24 30v396c0 48 -13 73 -55 73h-16v29zM58 584c0 26 23 49 49 49c21 0 48 -18 48 -49c0 -27 -21 -48 -48 -48
c-31 0 -49 27 -49 48z" />
    <glyph glyph-name="afii10106" unicode="&#x459;" horiz-adv-x="611" 
d="M147 393h133l41 -139c46 19 67 27 112 27c87 0 152 -53 152 -143c0 -82 -59 -138 -158 -138h-112l-88 305h-3c-22 -77 -28 -108 -49 -169c-34 -96 -68 -144 -118 -144c-27 0 -40 11 -45 19c-4 6 -6 13 -6 20c0 19 14 40 37 40c5 0 10 -1 15 -3c7 -2 14 -8 22 -8
c31 0 47 44 61 82c15 40 51 160 51 190c0 26 -21 32 -35 32h-10v29zM332 219l54 -182h20c71 0 98 51 98 105c0 51 -31 95 -101 95c-20 0 -42 -6 -71 -18z" />
    <glyph glyph-name="afii10107" unicode="&#x45a;" horiz-adv-x="675" 
d="M26 385h162v-29c-40 -8 -45 -29 -45 -73v-75h180v75c0 38 -3 66 -45 73v29h163v-29c-42 -9 -45 -32 -45 -73v-29c39 18 69 27 110 27c43 0 143 -21 143 -143c0 -45 -24 -138 -149 -138h-222v29c40 3 45 35 45 72v76h-180v-76c0 -42 6 -69 45 -72v-29h-162v29
c37 4 44 29 44 72v182c0 41 -2 64 -44 73v29zM396 214v-183h60c21 0 108 0 108 111c0 75 -41 95 -87 95c-29 0 -58 -11 -81 -23z" />
    <glyph glyph-name="afii10108" unicode="&#x45b;" horiz-adv-x="449" 
d="M26 700h117v-184h154v-31h-154v-143h9c46 42 86 51 126 51c34 0 101 -9 101 -126v-167c0 -25 -2 -66 44 -71v-29h-161v29c44 6 44 38 44 71v170c0 50 -14 81 -61 81c-39 0 -82 -31 -102 -72v-178c0 -37 5 -69 45 -72v-29h-163v29c40 5 45 33 45 72v384h-58v31h58v103
c0 46 -37 51 -44 52v29z" />
    <glyph glyph-name="afii10109" unicode="&#x45c;" horiz-adv-x="445" 
d="M143 225h11c70 0 79 37 101 82c28 58 53 87 111 87c6 0 13 0 20 -1v-106h-29c-9 19 -16 30 -34 30c-35 0 -43 -68 -91 -95v-3c78 -14 105 -70 139 -146c14 -32 12 -41 61 -55v-20c-12 -4 -24 -6 -37 -6c-86 0 -105 43 -136 118c-19 45 -35 84 -89 84h-27v-93
c0 -43 7 -68 44 -72v-29h-161v29c37 4 44 29 44 72v182c0 41 -2 64 -44 73v29h161v-29c-42 -9 -44 -32 -44 -73v-58zM131 519l105 130c11 13 25 20 40 20c22 0 37 -15 37 -37c0 -15 -7 -24 -16 -32c-6 -5 -13 -10 -31 -21l-122 -76z" />
    <glyph glyph-name="afii10110" unicode="&#x45e;" horiz-adv-x="415" 
d="M424 385v-29c-33 -7 -46 -27 -61 -60l-156 -348c-33 -74 -66 -132 -139 -132c-16 0 -65 8 -65 53c0 27 15 42 37 42c14 0 21 -2 31 -10c8 -6 16 -14 33 -14c31 0 43 21 55 48l30 66l-119 294c-16 38 -34 64 -70 61v29h184v-29h-10c-14 0 -29 -6 -29 -27
c0 -12 5 -20 9 -30l79 -198l88 195c2 5 7 20 7 29c0 26 -22 33 -39 31v29h135zM230 484c-94 0 -139 52 -139 93c0 47 45 63 72 63c17 0 41 -9 41 -34c0 -16 -13 -26 -30 -26c-8 0 -12 1 -19 4c-5 3 -10 6 -20 6c-11 0 -17 -7 -17 -14c0 -16 25 -49 114 -49
c60 0 115 20 115 49c0 6 -3 13 -17 13c-20 0 -15 -9 -39 -9c-23 0 -31 17 -31 26c0 16 14 34 42 34c27 0 72 -16 72 -63c0 -46 -52 -93 -144 -93z" />
    <glyph glyph-name="afii10193" unicode="&#x45f;" horiz-adv-x="467" 
d="M278 385h163v-29c-42 -7 -45 -35 -45 -73v-182c0 -37 5 -69 45 -72v-29h-68c-46 0 -82 -20 -96 -36c-24 -27 -28 -84 -29 -117h-29c0 45 -2 90 -28 117c-15 16 -49 36 -97 36h-68v29c39 3 45 30 45 72v182c0 44 -5 65 -45 73v29h162v-29c-42 -9 -44 -32 -44 -73v-252h179
v252c0 41 -3 64 -45 73v29z" />
    <glyph glyph-name="afii10146" unicode="&#x462;" horiz-adv-x="760" 
d="M13 625h235c1 52 -20 78 -59 81v34h204v-34c-28 -2 -61 -19 -59 -81h285v-136h-36c-14 87 -75 97 -106 97h-143v-180h128c82 0 259 -11 259 -201c0 -197 -169 -205 -254 -205h-278v34c49 5 59 38 59 81v471h-73c-68 0 -104 -48 -126 -127h-36v166zM334 39h112
c69 0 175 2 175 162c0 62 -6 166 -184 166h-103v-328z" />
    <glyph glyph-name="afii10194" unicode="&#x463;" horiz-adv-x="500" 
d="M13 385h133v214c0 18 3 43 -13 59c-4 5 -10 8 -16 10c-5 2 -10 3 -15 3v29h117v-315h147v-103h-29c-3 56 -42 67 -62 70c-10 1 -20 2 -30 2h-26v-137h101c21 0 42 -2 62 -6c14 -3 29 -6 42 -13c31 -16 50 -44 50 -92c0 -10 -1 -20 -4 -30c-6 -20 -22 -43 -51 -58
c-30 -16 -65 -18 -99 -18h-218v29c37 4 44 29 44 72v253c-51 4 -108 -22 -104 -104h-29v135zM219 186v-155h68c11 0 39 3 47 5c11 3 21 8 30 15c14 12 25 33 25 59c0 10 -2 20 -5 29c-4 10 -10 20 -18 27c-17 15 -40 18 -60 19c-9 1 -18 1 -27 1h-60z" />
    <glyph glyph-name="afii10147" unicode="&#x472;" horiz-adv-x="787" 
d="M393 708c232 0 355 -192 355 -358s-123 -358 -355 -358c-231 0 -354 192 -354 358s123 358 354 358zM645 407c-14 154 -120 262 -252 262c-135 0 -257 -116 -255 -313c43 44 91 70 153 70c40 0 77 -14 117 -30c64 -26 103 -43 136 -43c44 0 81 31 101 54zM139 312
c12 -182 129 -281 254 -281c107 0 253 78 255 319v14c-47 -41 -95 -69 -153 -69c-47 0 -89 19 -125 34c-64 27 -99 39 -130 39c-42 0 -69 -24 -101 -56z" />
    <glyph glyph-name="afii10195" unicode="&#x473;" horiz-adv-x="431" 
d="M215 393c150 0 190 -131 190 -200c0 -161 -133 -201 -190 -201c-55 0 -189 40 -189 201c0 144 107 200 189 200zM321 215c-1 144 -82 147 -106 147c-95 0 -108 -96 -106 -158c15 17 40 33 69 33c19 0 37 -8 57 -18c17 -9 35 -19 52 -19c11 0 26 5 34 15zM109 175
c-1 -119 52 -152 106 -152c85 0 107 74 107 161c-23 -21 -47 -29 -70 -29c-13 0 -25 4 -37 9c-30 12 -45 27 -68 27c-14 0 -27 -3 -38 -16z" />
    <glyph glyph-name="afii10148" unicode="&#x474;" horiz-adv-x="886" 
d="M410 117l162 338c42 87 51 108 64 132c19 34 45 70 69 90c26 22 55 31 84 31c53 0 90 -26 90 -66c0 -32 -23 -66 -71 -66c-22 0 -38 9 -52 13c-7 2 -13 4 -20 4c-48 0 -79 -42 -102 -91l-246 -510h-25l-283 617c-14 31 -39 54 -73 57v34h216v-34c-16 0 -51 -4 -51 -38
c0 -12 14 -43 17 -50l215 -461h6z" />
    <glyph glyph-name="afii10196" unicode="&#x475;" horiz-adv-x="500" 
d="M268 0h-60l-134 293c-9 19 -25 60 -67 63v29h171v-29c-25 -1 -33 -15 -33 -25c0 -6 3 -14 8 -26l98 -219h3c11 39 29 98 39 129c21 63 61 178 151 178c30 0 49 -15 49 -40c0 -26 -21 -36 -39 -36c-12 0 -20 5 -28 7c-4 1 -7 2 -11 2c-30 0 -48 -34 -56 -50
c-28 -57 -46 -126 -91 -276z" />
    <glyph glyph-name="afii10050" unicode="&#x490;" horiz-adv-x="543" 
d="M52 700h262c45 0 80 4 112 24c36 22 60 62 70 104h34v-162h-333v-551c0 -55 21 -80 59 -81v-34h-204v34c47 5 59 36 59 81v470c0 49 -15 81 -59 81v34z" />
    <glyph glyph-name="afii10098" unicode="&#x491;" horiz-adv-x="340" 
d="M26 385h158c34 0 57 2 80 22c14 12 23 27 34 69h29v-122h-183v-253c0 -39 9 -72 45 -72h4v-29h-167v29c40 3 45 35 45 72v182c0 38 -3 66 -45 73v29z" />
    <glyph glyph-name="cyrGebar" unicode="&#x492;" horiz-adv-x="543" 
d="M52 700h373c54 0 31 4 105 8v-170h-34c-10 42 -34 82 -70 104c-32 20 -67 24 -112 24h-117v-290h172v-39h-172v-222c0 -55 21 -80 59 -81v-34h-204v34c47 5 59 36 59 81v222h-59v39h59v209c0 49 -15 81 -59 81v34z" />
    <glyph glyph-name="cyrgebar" unicode="&#x493;" horiz-adv-x="350" 
d="M31 385h306v-123h-29c-10 39 -21 59 -34 70c-16 13 -41 22 -80 22h-45v-146h86v-31h-86v-76c0 -37 6 -74 49 -72v-29h-167v29c40 5 45 33 45 72v76h-60v31h60v75c0 41 -3 64 -45 73v29z" />
    <glyph glyph-name="cyrGehook" unicode="&#x494;" horiz-adv-x="591" 
d="M52 700h373c54 0 31 4 105 8v-170h-34c-10 42 -34 82 -70 104c-32 20 -67 24 -112 24h-117v-288c56 26 102 37 145 37c137 0 236 -71 236 -202c0 -128 -82 -221 -197 -221c-105 0 -130 44 -130 72c0 31 17 56 49 56c37 0 47 -23 47 -36s-3 -19 -3 -28
c0 -22 21 -25 38 -25c43 0 96 21 96 176c0 125 -65 163 -139 163c-46 0 -106 -19 -142 -33v-337h-145v34c47 5 59 36 59 81v470c0 49 -15 81 -59 81v34z" />
    <glyph glyph-name="cyrgehook" unicode="&#x495;" horiz-adv-x="396" 
d="M26 385h321v-113h-29c-8 27 -17 50 -34 64c-18 14 -52 20 -80 20h-60v-176c39 19 64 26 99 26c108 0 140 -88 140 -169c0 -154 -87 -221 -174 -221c-76 0 -94 39 -94 63c0 22 12 43 38 43c24 0 43 -15 43 -37v-3c-1 -6 -2 -11 -2 -16c0 -3 0 -6 2 -9c5 -9 15 -10 20 -10
c75 0 85 81 85 158c0 146 -60 162 -91 162c-16 0 -55 -13 -66 -24v-42c0 -36 6 -72 46 -72h3v-29h-167v29c40 5 45 33 45 72v182c0 41 -3 64 -45 73v29z" />
    <glyph glyph-name="cyrzhedesc" unicode="&#x497;" horiz-adv-x="696" 
d="M255 385h161v-29c-39 -8 -44 -31 -44 -73v-39h10c32 0 54 9 74 29c15 15 25 33 35 48c8 15 19 33 34 48c20 19 38 25 62 25l26 -1v-107h-29c-5 18 -10 31 -30 31c-9 0 -16 -5 -22 -10c-17 -13 -23 -27 -46 -49c-14 -13 -23 -20 -33 -25v-3c16 -5 26 -8 36 -12
c29 -12 68 -43 89 -76c15 -24 22 -51 29 -69c6 -18 11 -26 16 -31c6 -6 14 -10 25 -10l13 1c10 0 28 -3 28 -24c0 -17 -9 -36 -22 -56c-33 -52 -48 -57 -57 -57c-17 0 -9 21 -7 27c8 20 10 35 10 44c0 13 -2 18 -12 24c-13 8 -28 9 -44 9h-75v29h3c37 0 38 20 38 29
c0 21 -8 46 -16 66c-13 31 -47 89 -135 89v-112c0 -42 7 -68 44 -72v-29h-161v29c37 4 44 30 44 72v112c-88 0 -122 -58 -135 -89c-8 -20 -16 -45 -16 -66c0 -9 1 -29 38 -29h3v-29h-176v29h6c16 0 31 6 37 17c4 6 6 14 10 30c9 34 19 54 27 66c21 33 60 64 89 76
c10 4 20 7 36 12v3c-10 5 -19 12 -33 25c-23 22 -29 36 -46 49c-6 5 -13 10 -22 10c-20 0 -25 -13 -30 -31h-29v107l26 1c24 0 42 -6 62 -25c15 -15 26 -33 34 -48c10 -15 20 -33 35 -48c20 -20 42 -29 74 -29h10v39c0 42 -5 65 -44 73v29z" />
    <glyph glyph-name="cyrZetail" unicode="&#x498;" horiz-adv-x="679" 
d="M128 526v163h33c8 -15 19 -22 37 -22c15 0 34 5 60 14c39 14 79 27 136 27c159 0 235 -88 235 -183c0 -61 -31 -99 -74 -136v-6c60 -34 105 -98 105 -178c0 -128 -131 -213 -262 -213h-5c4 -27 15 -104 15 -136c0 -61 -22 -76 -40 -76s-40 15 -40 76c0 32 11 106 17 138
c-78 6 -136 33 -180 61c-26 17 -54 34 -76 34s-45 -33 -52 -42l-21 25c37 53 71 96 121 96c34 0 71 -24 117 -60c44 -35 96 -77 160 -77c71 0 146 67 146 170c0 61 -24 107 -63 139c-40 -24 -106 -52 -176 -52c-76 0 -101 39 -101 65c0 15 7 48 61 67c21 7 51 11 96 11
c36 0 71 -7 110 -21c36 33 51 78 51 114c0 47 -19 86 -50 111c-22 18 -52 34 -95 34c-49 0 -177 -5 -237 -143h-28zM450 369c-36 20 -72 26 -108 26c-63 0 -81 -25 -81 -42c0 -8 4 -15 10 -20c15 -13 45 -13 51 -13c24 0 86 7 128 49z" />
    <glyph glyph-name="cyrzetail" unicode="&#x499;" horiz-adv-x="408" 
d="M63 275v113h20c5 -6 13 -12 27 -12c15 0 26 5 48 10c15 4 35 7 56 7c101 0 142 -54 142 -99c0 -26 -9 -61 -37 -84v-3c39 -12 63 -47 63 -85c0 -95 -87 -130 -160 -130h-3c6 -31 14 -80 14 -116c0 -17 -1 -64 -30 -64c-16 0 -30 14 -30 64c0 35 8 86 14 118
c-39 5 -65 14 -94 25l-9 3c-7 2 -13 5 -21 5c-11 0 -25 -5 -43 -19l-13 11c22 36 47 67 83 67c28 0 47 -19 66 -34c20 -16 44 -29 71 -29c38 0 77 23 77 85c0 24 -10 49 -31 68c-32 -24 -74 -32 -97 -32c-43 0 -64 23 -64 47c0 25 22 51 73 51c24 0 55 -6 81 -16
c10 17 16 43 16 60c0 29 -13 76 -81 76c-43 0 -85 -18 -109 -87h-29zM248 200c-23 13 -42 18 -69 18c-26 0 -37 -14 -37 -27c0 -9 7 -23 34 -23c24 0 54 12 72 32z" />
    <glyph glyph-name="cyrKadesc" unicode="&#x49a;" horiz-adv-x="750" 
d="M52 700h204v-34c-53 -6 -59 -49 -59 -81v-151c8 -1 15 -1 22 -1c118 0 152 76 174 124c29 66 68 151 159 151c18 0 39 -2 61 -11v-155h-34c-6 52 -33 59 -51 59c-39 0 -58 -38 -87 -78c-26 -35 -78 -87 -126 -100v-6c53 -7 94 -23 133 -58c31 -28 56 -70 77 -123
c19 -47 30 -83 51 -119c12 -21 25 -35 41 -50c18 -17 30 -24 51 -24l38 2c20 0 34 -10 34 -32c0 -33 -45 -95 -71 -124c-35 -40 -53 -55 -69 -55c-12 0 -16 6 -16 12c0 12 11 21 25 44c11 18 22 44 22 69c0 34 -25 35 -49 42c-56 16 -94 49 -134 139c-11 24 -20 48 -29 73
c-9 24 -17 48 -28 71c-19 42 -39 67 -76 88c-41 23 -77 23 -101 23h-17v-280c0 -48 12 -78 59 -81v-34h-204v34c41 4 59 32 59 81v470c0 48 -16 76 -59 81v34z" />
    <glyph glyph-name="cyrkadesc" unicode="&#x49b;" horiz-adv-x="484" 
d="M26 385h161v-29c-42 -9 -44 -32 -44 -73v-58l17 -1c28 0 44 6 63 27c17 20 27 49 40 72c31 56 54 67 94 70l14 1l15 -1v-106h-29c-10 21 -16 30 -31 30c-22 0 -33 -20 -50 -49c-11 -18 -22 -34 -44 -46v-3c42 -7 69 -31 83 -46c31 -34 41 -71 56 -100
c11 -21 19 -27 22 -30c11 -9 25 -10 38 -10h12c10 0 28 -3 28 -24c0 -17 -9 -36 -22 -56c-33 -52 -48 -57 -57 -57c-8 0 -11 5 -11 11s3 13 4 16c8 20 10 35 10 44c0 10 -1 18 -12 24s-31 5 -44 10c-42 15 -59 58 -67 78c-16 38 -21 51 -26 61c-8 17 -28 54 -76 54h-27v-93
c0 -43 7 -68 44 -72v-29h-161v29c37 4 44 29 44 72v182c0 41 -2 64 -44 73v29z" />
    <glyph glyph-name="cyrKavertbar" unicode="&#x49c;" horiz-adv-x="796" 
d="M52 700h204v-34c-53 -6 -59 -49 -59 -81v-151h67v167h39v-165c317 52 78 272 289 272c18 0 39 -2 61 -11v-155h-34c-6 52 -33 59 -51 59c-39 0 -58 -38 -87 -78c-26 -35 -78 -87 -126 -100v-6c125 -16 175 -93 210 -181c26 -67 62 -210 179 -194v-45
c-20 -5 -37 -6 -60 -5c-148 7 -180 105 -224 223c-32 88 -61 160 -157 178v-195h-39v197h-67v-280c0 -48 12 -78 59 -81v-34h-204v34c41 4 59 32 59 81v470c0 48 -16 76 -59 81v34z" />
    <glyph glyph-name="cyrkavertbar" unicode="&#x49d;" horiz-adv-x="475" 
d="M26 385h161v-29c-42 -9 -44 -32 -44 -73v-58h36v87h31v-87c31 3 47 26 75 82c35 72 62 83 102 86l14 1l15 -1v-106h-29c-9 19 -16 30 -34 30c-35 0 -43 -68 -91 -95v-3c78 -14 105 -70 139 -146c14 -32 12 -41 61 -55v-20c-12 -4 -24 -6 -37 -6c-85 0 -105 43 -136 118
c-16 38 -33 82 -79 84v-87h-31v87h-36v-93c0 -43 7 -68 44 -72v-29h-161v29c37 4 44 29 44 72v182c0 41 -2 64 -44 73v29z" />
    <glyph glyph-name="cyrKaback" unicode="&#x4a0;" horiz-adv-x="911" 
d="M450 700v-34c-44 0 -59 -32 -59 -81v-151c8 -1 15 -1 22 -1c118 0 152 76 174 124c29 66 68 151 159 151c18 0 39 -2 61 -11v-155h-34c-6 52 -33 59 -51 59c-39 0 -58 -38 -87 -78c-26 -35 -78 -87 -126 -100v-6c125 -16 175 -93 210 -181c25 -63 58 -195 161 -195
c6 0 12 0 18 1v-45c-20 -5 -37 -6 -60 -5c-138 7 -167 78 -228 231c-3 8 -6 17 -10 26c-57 143 -131 146 -192 146h-17v-280c0 -45 12 -76 59 -81v-34h-204v34c38 1 59 26 59 81v551h-37c-45 0 -80 -4 -112 -24c-36 -22 -60 -62 -70 -104h-34v170c74 -4 51 -8 105 -8h293z
" />
    <glyph glyph-name="cyrkaback" unicode="&#x4a1;" horiz-adv-x="535" 
d="M277 385v-29c-42 -9 -44 -32 -44 -73v-58h11c58 0 72 23 93 66c43 90 69 99 110 102l14 1l15 -1v-106h-29c-9 19 -16 30 -34 30c-35 0 -43 -68 -91 -95v-3c78 -14 105 -70 139 -146c14 -32 12 -41 61 -55v-20c-12 -4 -24 -6 -37 -6c-86 0 -105 43 -136 118
c-19 45 -35 84 -89 84h-27v-93c0 -43 7 -68 44 -72v-29h-161v29c37 4 44 29 44 72v255h-12c-60 0 -78 -39 -93 -94h-29v123h251z" />
    <glyph glyph-name="cyrEndesc" unicode="&#x4a2;" horiz-adv-x="814" 
d="M256 700v-34c-44 -4 -59 -32 -59 -81v-209h403v209c0 51 -15 76 -59 81v34h205v-34c-55 -5 -60 -52 -60 -81v-491c0 -25 4 -51 47 -51l35 2c20 0 34 -10 34 -32c0 -33 -45 -95 -71 -124c-35 -40 -53 -55 -69 -55c-12 0 -16 6 -16 12c0 12 11 21 25 44c11 18 22 44 22 69
c0 39 -39 41 -66 41h-86v34c44 5 59 30 59 81v222h-403v-222c0 -44 11 -77 59 -81v-34h-204v34c48 4 59 37 59 81v470c0 44 -11 77 -59 81v34h204z" />
    <glyph glyph-name="cyrendesc" unicode="&#x4a3;" horiz-adv-x="500" 
d="M26 385h162v-29c-40 -8 -45 -29 -45 -73v-75h179v75c0 38 -3 66 -45 73v29h163v-29c-42 -9 -45 -32 -45 -73v-190c0 -26 0 -44 21 -54c13 -6 29 -5 46 -6c10 0 28 -3 28 -24c0 -17 -9 -36 -22 -56c-33 -52 -48 -57 -57 -57c-8 0 -11 5 -11 11s3 13 4 16c6 14 10 31 10 43
c0 30 -17 34 -45 34h-92v29c40 3 45 35 45 72v76h-179v-76c0 -42 6 -69 45 -72v-29h-162v29c37 4 44 29 44 72v182c0 41 -2 64 -44 73v29z" />
    <glyph glyph-name="cyrEnGe" unicode="&#x4a4;" horiz-adv-x="1031" 
d="M541 700h333c54 0 31 4 105 8v-170h-34c-10 42 -34 82 -70 104c-32 20 -67 24 -112 24h-77v-551c0 -55 21 -80 59 -81v-34h-204v34c47 5 59 36 59 81v222h-403v-222c0 -44 11 -77 59 -81v-34h-204v34c48 4 59 37 59 81v470c0 44 -11 77 -59 81v34h204v-34
c-49 -4 -56 -42 -58 -62c-1 -6 -1 -13 -1 -19v-209h403v209c0 49 -15 81 -59 81v34z" />
    <glyph glyph-name="cyrenge" unicode="&#x4a5;" horiz-adv-x="609" 
d="M277 385h306v-123h-29c-6 22 -15 55 -34 72c-12 11 -36 22 -80 22h-45v-255c0 -37 6 -74 49 -72v-29h-167v29c40 5 45 33 45 72v76h-179v-76c0 -42 6 -69 45 -72v-29h-162v29c37 4 44 29 44 72v182c0 41 -2 64 -44 73v29h162v-29c-40 -8 -45 -29 -45 -73v-75h179v75
c0 41 -3 64 -45 73v29z" />
    <glyph glyph-name="cyrEstail" unicode="&#x4aa;" horiz-adv-x="686" 
d="M620 530h-34c-39 101 -131 139 -208 139c-113 0 -239 -102 -239 -324c0 -204 107 -314 258 -314c87 0 176 48 229 109l21 -23c-61 -69 -150 -120 -255 -125c4 -27 15 -104 15 -136c0 -61 -22 -76 -40 -76s-40 15 -40 76c0 33 11 105 17 136c-177 10 -305 150 -305 354
c0 208 137 362 331 362c80 0 129 -22 185 -34c9 -2 17 -2 26 -2c13 0 22 10 24 12h15v-154z" />
    <glyph glyph-name="cyrestail" unicode="&#x4ab;" horiz-adv-x="392" 
d="M355 89l17 -18c-28 -32 -78 -76 -154 -79c9 -39 15 -83 15 -116c0 -17 -1 -64 -30 -64c-16 0 -30 14 -30 64c0 36 8 85 14 117c-75 10 -161 66 -161 192c0 118 80 208 191 208c84 0 125 -39 125 -74c0 -17 -13 -35 -37 -35c-10 0 -38 2 -40 39v2c-1 14 -3 37 -46 37
c-53 0 -109 -44 -109 -177c0 -130 89 -147 124 -147c38 0 94 21 121 51z" />
    <glyph glyph-name="cyrstraightU" unicode="&#x4ae;" horiz-adv-x="677" 
d="M0 700h230v-34c-20 -3 -36 -10 -36 -30c0 -12 6 -23 12 -31l169 -229h6l142 220c15 23 21 34 21 44c0 15 -17 26 -38 26v34h171v-34c-56 1 -90 -40 -119 -86l-166 -260v-205c0 -43 13 -76 59 -81v-34h-204v34c44 5 59 33 59 81v210l-189 258c-53 72 -97 81 -117 83v34z
" />
    <glyph glyph-name="cyrstraightu" unicode="&#x4af;" horiz-adv-x="422" 
d="M0 385h185v-29c-8 0 -39 -2 -39 -30c0 -6 2 -16 13 -42l73 -172h5l73 169c5 12 14 27 14 44c0 30 -30 32 -42 31v29h133v-29c-30 -8 -49 -31 -63 -64l-106 -243v-129c0 -37 4 -72 46 -75v-29h-165v29c42 3 46 38 46 75v129l-97 229c-19 46 -25 68 -76 78v29z" />
    <glyph glyph-name="cyrstraightUbar" unicode="&#x4b0;" horiz-adv-x="677" 
d="M0 700h230v-34c-20 -3 -36 -10 -36 -30c0 -12 6 -23 12 -31l169 -229h6l142 220c15 23 21 34 21 44c0 15 -17 26 -38 26v34h171v-34c-56 1 -90 -40 -119 -86l-166 -260v-74h148v-39h-148v-92c0 -43 13 -76 59 -81v-34h-204v34c44 5 59 33 59 81v92h-148v39h148v79
l-189 258c-53 72 -97 81 -117 83v34z" />
    <glyph glyph-name="cyrstraightubar" unicode="&#x4b1;" horiz-adv-x="422" 
d="M0 385h185v-29c-8 0 -39 -2 -39 -30c0 -6 2 -16 13 -42l73 -172h5l73 169c5 12 14 27 14 44c0 30 -30 32 -42 31v29h133v-29c-30 -8 -49 -31 -63 -64l-106 -243v-57h79v-31h-79v-41c0 -37 4 -72 46 -75v-29h-165v29c42 3 46 38 46 75v41h-79v31h79v57l-97 229
c-19 46 -25 68 -76 78v29z" />
    <glyph glyph-name="cyrHadesc" unicode="&#x4b2;" horiz-adv-x="820" 
d="M415 412l166 191c7 8 20 26 20 37c0 12 -11 26 -32 26v34h184v-34c-50 -3 -78 -24 -116 -66l-197 -219l206 -267c12 -16 22 -29 41 -47c18 -17 30 -24 51 -24l38 2c20 0 34 -10 34 -32c0 -33 -45 -95 -71 -124c-35 -40 -53 -55 -69 -55c-12 0 -16 6 -16 12
c0 12 11 21 25 44c11 18 22 44 22 69c0 39 -39 41 -66 41h-101v34h10c15 0 23 11 23 22c0 7 -3 20 -20 42l-170 218l-197 -223c-14 -16 -17 -28 -17 -35c0 -17 15 -24 31 -24h7v-34h-188v34c39 3 79 27 108 59l231 256l-170 218c-31 40 -80 99 -127 99h-13v34h235v-34
c-13 0 -27 -6 -27 -16c0 -16 4 -31 10 -38z" />
    <glyph glyph-name="cyrhadesc" unicode="&#x4b3;" horiz-adv-x="456" 
d="M392 385v-29c-34 0 -54 -23 -82 -59l-59 -78l97 -135c14 -19 22 -32 34 -41s22 -10 32 -10h14c10 0 28 -3 28 -24c0 -17 -9 -36 -22 -56c-33 -52 -48 -57 -57 -57c-8 0 -11 5 -11 11s3 13 4 16c3 7 5 15 7 22s3 14 3 21c0 11 -3 21 -9 26c-7 6 -25 8 -36 8h-94v29h9
c18 0 27 14 27 24c0 11 -13 29 -15 31l-57 74h-1l-52 -68c-18 -23 -20 -33 -20 -39c0 -20 19 -23 40 -22v-29h-152v29h11c28 0 56 29 88 72l65 87l-72 99c-38 52 -54 67 -82 69v29h170v-29c-19 -1 -32 -3 -32 -13c0 -3 1 -11 27 -47l35 -48l40 57c8 11 18 23 18 35
c0 9 -8 17 -25 16v29h129z" />
    <glyph glyph-name="cyrChedesc" unicode="&#x4b6;" horiz-adv-x="706" 
d="M438 700h205v-34c-53 -5 -60 -50 -60 -81v-491c0 -25 4 -51 47 -51l35 2c20 0 34 -10 34 -32c0 -33 -45 -95 -71 -124c-35 -40 -53 -55 -69 -55c-12 0 -16 6 -16 12c0 12 11 21 25 44c11 18 22 44 22 69c0 39 -39 41 -66 41h-86v34c45 5 59 35 59 81v204
c-55 -22 -126 -44 -206 -44c-199 0 -219 101 -219 183v127c0 44 -10 76 -59 81v34h204v-34c-47 -5 -59 -37 -59 -81v-135c0 -56 16 -132 152 -132c58 0 136 23 187 48v219c0 43 -10 76 -59 81v34z" />
    <glyph glyph-name="cyrchedesc" unicode="&#x4b7;" horiz-adv-x="466" 
d="M406 385v-29c-42 -9 -45 -32 -45 -73v-190c0 -26 0 -44 21 -54c13 -6 29 -5 46 -6c10 0 28 -3 28 -24c0 -17 -9 -36 -22 -56c-33 -52 -48 -57 -57 -57c-8 0 -11 5 -11 11s3 13 4 16c6 14 10 31 10 43c0 30 -17 34 -45 34h-98v29c48 3 51 30 51 72v85
c-31 -11 -90 -26 -128 -26c-102 0 -103 63 -103 84v61c0 10 -1 45 -44 51v29h160v-29c-25 -2 -43 -20 -43 -52v-35c0 -60 25 -68 60 -68c19 0 59 2 98 17v65c0 41 -3 64 -45 73v29h163z" />
    <glyph glyph-name="cyrChevertbar" unicode="&#x4b8;" horiz-adv-x="695" 
d="M13 700h204v-34c-47 -5 -59 -37 -59 -81v-135c0 -34 4 -132 139 -132h6v229h39v-227c47 5 114 25 155 46v219c0 43 -10 76 -59 81v34h205v-34c-53 -5 -60 -50 -60 -81v-470c0 -47 16 -77 60 -81v-34h-205v34c45 5 59 35 59 81v204c-42 -17 -106 -36 -155 -40v-135h-39
v131h-12c-199 1 -219 93 -219 183v127c0 44 -10 76 -59 81v34z" />
    <glyph glyph-name="cyrchevertbar" unicode="&#x4b9;" horiz-adv-x="449" 
d="M26 385h160v-29c-25 -2 -43 -20 -43 -52v-35c0 -23 0 -68 60 -68c4 0 8 1 12 2v109h31v-107c23 3 47 7 72 14v64c0 41 -3 64 -45 73v29h163v-29c-42 -9 -45 -32 -45 -73v-182c0 -39 5 -67 45 -72v-29h-169v29c48 3 51 30 51 72v85c-38 -11 -49 -15 -72 -18v-81h-31v77
c-9 -2 -25 -4 -42 -4c-102 0 -103 62 -103 84v61c0 10 -1 45 -44 51v29z" />
    <glyph glyph-name="cyrH" unicode="&#x4ba;" horiz-adv-x="596" 
d="M218 0h-204v34c47 7 59 35 59 81v470c0 47 -16 77 -60 81v34h205v-34c-45 -5 -59 -35 -59 -81v-187h4c65 63 139 69 165 69c165 0 172 -108 172 -155v-197c0 -46 4 -71 44 -81v-34h-174v34c40 3 44 36 44 81v209c0 69 -23 100 -99 100c-23 0 -99 -9 -156 -82v-227
c0 -44 10 -76 59 -81v-34z" />
    <glyph glyph-name="cyrh" unicode="&#x4bb;" horiz-adv-x="450" 
d="M27 700h117v-358h7c31 28 75 51 124 51c76 0 105 -45 105 -126v-167c0 -25 -2 -66 44 -71v-29h-161v29c44 6 44 38 44 71v170c0 46 -10 81 -60 81c-41 0 -83 -31 -103 -72v-178c0 -37 5 -69 45 -72v-29h-163v29c40 5 45 33 45 72v518c0 46 -37 51 -44 52v29z" />
    <glyph glyph-name="cyrI" unicode="&#x4c0;" horiz-adv-x="215" 
d="M27 700h117v-599c0 -37 5 -69 45 -72v-29h-163v29c40 5 45 33 45 72v498c0 47 -4 66 -44 72v29z" />
    <glyph glyph-name="cyrZhecyrbreve" unicode="&#x4c1;" horiz-adv-x="946" 
d="M370 700h206v-34c-38 -1 -60 -26 -60 -81v-104c9 -1 18 -2 26 -2c66 0 97 39 122 84c43 78 55 145 131 145c14 0 32 -3 51 -13v-140h-34c-6 28 -15 55 -36 55c-5 0 -10 -2 -16 -5c-19 -10 -30 -34 -67 -83c-15 -20 -31 -42 -67 -59v-6c138 -41 216 -188 234 -311
c8 -55 3 -105 60 -112v-34h-214v34c42 2 52 41 52 85c0 41 -9 145 -62 225c-41 63 -91 96 -154 96c-8 0 -17 -1 -26 -2v-323c0 -53 13 -75 60 -81v-34h-206v34c47 6 60 28 60 81v323c-9 1 -18 2 -26 2c-63 0 -113 -33 -154 -96c-53 -80 -62 -184 -62 -225
c0 -44 10 -83 52 -85v-34h-214v34c57 7 52 57 60 112c18 123 96 270 234 311v6c-36 17 -52 39 -67 59c-37 49 -48 73 -67 83c-5 3 -10 3 -16 3h-8c-22 0 -23 -29 -28 -53h-34v140c19 10 37 13 51 13c76 0 88 -67 131 -145c25 -45 56 -84 122 -84c8 0 17 1 26 2v104
c0 55 -22 80 -60 81v34zM470 747c-91 0 -197 47 -197 129c0 67 59 94 104 94c30 0 59 -15 59 -47c0 -25 -20 -40 -43 -40c-25 0 -38 16 -57 16c-13 0 -23 -8 -23 -23c0 -35 64 -66 159 -66c110 0 161 37 161 66c0 15 -10 23 -23 23c-19 0 -32 -16 -57 -16
c-23 0 -43 15 -43 40c0 32 29 47 59 47c45 0 104 -27 104 -94c0 -87 -117 -129 -203 -129z" />
    <glyph glyph-name="cyrzhecyrbreve" unicode="&#x4c2;" horiz-adv-x="671" 
d="M255 385h161v-29c-39 -8 -44 -31 -44 -73v-39h7c77 0 95 52 123 96c27 43 50 54 92 54l19 -1v-107h-29c-5 18 -10 31 -30 31c-25 0 -39 -31 -68 -59c-14 -13 -23 -20 -33 -25v-3c16 -5 26 -8 36 -12c78 -33 104 -103 111 -126c12 -37 11 -67 58 -63v-29h-176v29
c40 -1 41 19 41 36c0 19 -8 41 -16 59c-13 31 -47 89 -135 89v-112c0 -42 7 -68 44 -72v-29h-161v29c37 4 44 30 44 72v112c-88 0 -122 -58 -135 -89c-8 -18 -16 -40 -16 -59c0 -17 1 -37 41 -36v-29h-176v29c47 -4 46 26 58 63c7 23 33 93 111 126c10 4 20 7 36 12v3
c-10 5 -19 12 -33 25c-29 28 -43 59 -68 59c-20 0 -25 -13 -30 -31h-29v107l19 1c42 0 65 -11 92 -54c28 -44 46 -96 123 -96h7v39c0 42 -5 65 -44 73v29zM333 503c-84 0 -137 44 -138 90c-1 38 34 66 73 66c21 0 41 -11 41 -33c0 -18 -14 -28 -30 -28c-10 0 -19 5 -24 7
c-4 2 -9 4 -16 4c-11 0 -16 -8 -16 -16c0 -23 41 -46 111 -46c68 0 113 21 113 46c0 8 -5 16 -16 16c-7 0 -12 -2 -16 -4c-5 -2 -14 -7 -24 -7c-16 0 -30 10 -30 28c0 22 20 33 41 33c39 0 74 -28 73 -66s-45 -90 -142 -90z" />
    <glyph glyph-name="cyrKahook" unicode="&#x4c3;" horiz-adv-x="704" 
d="M52 700h204v-34c-53 -6 -59 -49 -59 -81v-151c8 -1 15 -1 22 -1c118 0 152 76 174 124c29 66 68 151 159 151c18 0 39 -2 61 -11v-155h-34c-6 52 -33 59 -51 59c-39 0 -58 -38 -87 -78c-26 -35 -78 -87 -126 -100v-6c125 -16 175 -93 210 -181c25 -63 58 -195 161 -195
c6 0 12 0 18 1v-45c-23 -79 -90 -154 -171 -154c-56 0 -87 34 -87 65c0 27 18 48 42 48c17 0 41 -9 41 -36c0 -15 -2 -11 -2 -18c0 -8 6 -19 27 -19c38 0 65 50 67 111c-145 12 -176 159 -215 255c-57 143 -131 146 -192 146h-17v-280c0 -48 12 -78 59 -81v-34h-204v34
c41 4 59 32 59 81v470c0 48 -16 76 -59 81v34z" />
    <glyph glyph-name="cyrkahook" unicode="&#x4c4;" horiz-adv-x="445" 
d="M187 385v-29c-42 -9 -44 -32 -44 -73v-58h11c58 0 72 23 93 66c43 90 69 99 110 102l14 1l15 -1v-106h-29c-9 19 -16 30 -34 30c-35 0 -43 -68 -91 -95v-3c78 -14 104 -70 139 -146c12 -26 17 -49 61 -55v-20c0 -83 -37 -127 -114 -127c-38 0 -60 22 -60 45
c0 22 17 31 34 31c13 0 22 -7 29 -15c7 -7 13 -20 30 -20s35 10 35 43v37c-79 0 -98 50 -127 118c-19 45 -35 84 -89 84h-27v-93c0 -43 7 -68 44 -72v-29h-161v29c37 4 44 29 44 72v182c0 41 -2 64 -44 73v29h161z" />
    <glyph glyph-name="cyrEnhook" unicode="&#x4c7;" horiz-adv-x="797" 
d="M256 700v-34c-44 -4 -59 -32 -59 -81v-209h403v209c0 29 -5 76 -60 81v34h205v-34c-54 -6 -59 -51 -59 -81v-490c0 -183 -102 -252 -178 -252c-56 0 -87 34 -87 65c0 27 18 48 42 48c17 0 41 -9 41 -36c0 -15 -2 -11 -2 -18c0 -8 6 -19 27 -19c60 0 71 93 71 174v280
h-403v-222c0 -44 11 -77 59 -81v-34h-204v34c48 4 59 37 59 81v470c0 44 -11 77 -59 81v34h204z" />
    <glyph glyph-name="cyrenhook" unicode="&#x4c8;" horiz-adv-x="466" 
d="M188 385v-29c-40 -8 -45 -29 -45 -73v-75h179v75c0 38 -3 66 -45 73v29h163v-29c-42 -9 -45 -32 -45 -73v-259c0 -55 -5 -106 -29 -147c-29 -50 -76 -61 -105 -61c-38 0 -60 22 -60 45c0 22 17 31 34 31c13 0 22 -7 29 -15c9 -10 15 -20 34 -20c8 0 24 3 24 30v290h-179
v-76c0 -42 6 -69 45 -72v-29h-162v29c37 4 44 29 44 72v182c0 41 -2 64 -44 73v29h162z" />
    <glyph glyph-name="cyrAcyrbreve" unicode="&#x4d0;" horiz-adv-x="724" 
d="M379 708l270 -600c18 -41 39 -72 75 -74v-34h-196v34c33 5 36 16 36 39c0 4 -3 15 -9 29l-40 90h-348l-39 -85c-11 -24 -12 -32 -12 -35c0 -11 4 -31 39 -38v-34h-155v34c42 3 70 51 79 71l225 486c8 17 9 21 9 25c0 12 -11 15 -24 15v34c24 6 56 27 70 43h20zM497 231
l-148 329h-11l-153 -329h312zM459 860h33c-2 -36 -20 -74 -47 -96c-12 -9 -39 -27 -87 -27s-75 18 -87 27c-27 22 -45 60 -47 96h33c2 -10 9 -32 32 -50c17 -13 42 -22 69 -22s52 9 69 22c23 18 30 40 32 50z" />
    <glyph glyph-name="cyracyrbreve" unicode="&#x4d1;" horiz-adv-x="399" 
d="M385 39l7 -11c-16 -24 -37 -36 -64 -36c-38 0 -58 30 -65 55h-2c-26 -28 -65 -55 -118 -55c-77 0 -117 47 -117 106c0 103 101 133 227 141c0 71 -9 123 -74 123c-17 0 -39 -6 -49 -33c-7 -18 -6 -42 -38 -42c-10 0 -32 5 -32 30c0 31 44 76 128 76
c134 0 138 -103 138 -171v-126c0 -15 0 -62 41 -62c6 0 12 2 18 5zM253 171v35c-122 -6 -149 -65 -149 -106c0 -44 33 -66 70 -66c73 0 79 73 79 137zM66 636h33c3 -44 51 -82 101 -82c48 0 95 33 101 82h33c-3 -54 -34 -133 -131 -133c-105 0 -133 84 -137 133z" />
    </font>
</defs>
</svg>
