<?xml version="1.0" standalone="no"?>
<!DOCTYPE svg PUBLIC "-//W3C//DTD SVG 1.1//EN" "http://www.w3.org/Graphics/SVG/1.1/DTD/svg11.dtd" >
<svg xmlns="http://www.w3.org/2000/svg" xmlns:xlink="http://www.w3.org/1999/xlink" version="1.1">
<metadata>
Created by FontForge 20170910 at Mon Mar 19 09:56:38 2012
 By Jimmy Wärting

</metadata>
<defs>
<font id="MetaSerifPro-Book" horiz-adv-x="1" >
  <font-face 
    font-family="MetaSerifPro-Book"
    font-weight="450"
    font-stretch="normal"
    units-per-em="1000"
    panose-1="2 1 6 4 5 1 1 2 1 2"
    ascent="763"
    descent="-237"
    x-height="491"
    cap-height="689"
    bbox="-759 -276 1422 1072"
    underline-thickness="50"
    underline-position="-100"
    stemh="35"
    stemv="91"
    unicode-range="U+000D-FEFF"
  />
<missing-glyph horiz-adv-x="553" 
d="M71 0v689h411v-689h-411zM121 50h311v589h-311v-589z" />
    <glyph glyph-name="f_b" unicode="fb" horiz-adv-x="849" 
d="M715 256c0 137 -36 182 -114 182c-56 0 -107 -34 -129 -62v-268c33 -32 65 -58 125 -58c79 0 118 48 118 206zM472 730v-302c34 36 83 75 154 75c113 0 187 -82 187 -249c0 -166 -72 -264 -197 -264c-76 0 -124 40 -157 77c-6 -18 -20 -52 -33 -67h-58c9 24 13 52 13 117
v467c0 66 -31 97 -93 97c-70 0 -99 -40 -99 -126v-64h121l-14 -55h-106v-332c0 -54 11 -67 65 -70v-34h-226v34c57 4 70 13 70 70v332h-63v32l63 23v63c0 110 74 176 198 176c51 0 92 -11 119 -26l27 26h29z" />
    <glyph glyph-name="f_f" unicode="ff" horiz-adv-x="589" 
d="M190 436v-332c0 -54 11 -67 65 -70v-34h-226v34c57 4 70 13 70 70v332h-63v32l63 23v46c0 106 72 173 193 173c50 0 95 -16 124 -41c27 36 69 61 124 61c38 0 74 -8 98 -18v-83h-61c-5 33 -19 52 -46 52c-38 0 -60 -26 -60 -95v-95h121l-14 -55h-106v-332
c0 -54 11 -67 89 -70v-34h-246v34c53 4 66 13 66 70v332h-191zM189 538v-47h192v71c0 78 -43 99 -95 99c-68 0 -97 -41 -97 -123z" />
    <glyph glyph-name="f_f_b" unicode="ffb" horiz-adv-x="1131" 
d="M754 730v-302c34 36 83 75 154 75c113 0 187 -82 187 -249c0 -166 -72 -264 -197 -264c-76 0 -124 40 -157 77c-6 -18 -20 -52 -33 -67h-58c9 24 13 52 13 117v467c0 66 -31 97 -93 97c-70 0 -99 -40 -99 -126v-64h121l-14 -55h-106v-332c0 -54 11 -67 65 -70v-34h-222
v34c53 4 66 13 66 70v332h-191v-332c0 -54 11 -67 65 -70v-34h-226v34c57 4 70 13 70 70v332h-63v32l63 23v46c0 106 72 173 193 173c52 0 97 -17 126 -43c34 40 89 63 161 63c51 0 92 -11 119 -26l27 26h29zM189 538v-47h192v69c0 84 -46 101 -95 101
c-68 0 -97 -41 -97 -123zM997 256c0 137 -36 182 -114 182c-56 0 -107 -34 -129 -62v-268c33 -32 65 -58 125 -58c79 0 118 48 118 206z" />
    <glyph glyph-name="f_f_h" unicode="ffh" horiz-adv-x="1147" 
d="M754 730v-309c45 45 91 82 167 82c80 0 135 -47 135 -134v-265c0 -57 12 -66 65 -70v-34h-226v34c63 3 70 14 70 63v254c0 59 -25 82 -73 82c-60 0 -98 -24 -138 -63v-273c0 -49 7 -60 70 -63v-34h-231v34c57 4 70 13 70 70v480c0 66 -31 97 -93 97
c-70 0 -99 -40 -99 -126v-64h121l-14 -55h-106v-332c0 -54 11 -67 65 -70v-34h-222v34c53 4 66 13 66 70v332h-191v-332c0 -54 11 -67 65 -70v-34h-226v34c57 4 70 13 70 70v332h-63v32l63 23v46c0 106 72 173 193 173c52 0 97 -17 126 -43c34 40 89 63 161 63
c51 0 92 -11 119 -26l27 26h29zM189 538v-47h192v69c0 84 -46 101 -95 101c-68 0 -97 -41 -97 -123z" />
    <glyph glyph-name="f_f_i" unicode="ffi" horiz-adv-x="850" 
d="M421 664c31 42 78 66 144 66c49 0 98 -9 122 -18v-90h-73c-5 33 -25 59 -58 59c-58 0 -85 -41 -85 -123v-67h219l49 13h15v-400c0 -57 7 -67 70 -70v-34h-227v34c53 4 66 13 66 70v247c0 73 -14 85 -73 85h-118v-332c0 -54 11 -67 65 -70v-34h-222v34c53 4 66 13 66 70
v332h-191v-332c0 -54 11 -67 65 -70v-34h-226v34c57 4 70 13 70 70v332h-63v32l63 23v46c0 106 72 173 193 173c54 0 101 -18 129 -46zM381 491v69c0 84 -46 101 -95 101c-68 0 -97 -41 -97 -123v-47h192z" />
    <glyph glyph-name="f_f_j" unicode="ffj" horiz-adv-x="823" 
d="M381 491v69c0 84 -46 101 -95 101c-68 0 -97 -41 -97 -123v-47h192zM592 436h-120v-332c0 -54 11 -67 65 -70v-34h-222v34c53 4 66 13 66 70v332h-191v-332c0 -54 11 -67 65 -70v-34h-226v34c57 4 70 13 70 70v332h-63v32l63 23v46c0 106 72 173 193 173
c54 0 101 -18 129 -46c31 42 78 66 144 66c49 0 98 -9 122 -18v-90h-73c-5 33 -25 59 -58 59c-58 0 -85 -41 -85 -123v-67h209l49 13h15v-493c0 -148 -57 -177 -142 -217l-29 40c61 28 80 75 80 178v339c0 67 -12 85 -61 85z" />
    <glyph glyph-name="f_f_k" unicode="ffk" horiz-adv-x="1097" 
d="M948 375l-92 -91l151 -190c31 -39 55 -56 88 -60v-34h-121l-209 262l137 140c12 12 18 23 18 31c0 14 -16 23 -45 24v34h188v-34c-40 -4 -68 -36 -115 -82zM418 667c34 40 89 63 161 63c51 0 92 -11 119 -26l27 26h29v-623c0 -59 9 -70 74 -73v-34h-239v34
c61 4 74 13 74 70v480c0 66 -31 97 -93 97c-70 0 -99 -40 -99 -126v-64h121l-14 -55h-106v-332c0 -54 11 -67 65 -70v-34h-222v34c53 4 66 13 66 70v332h-191v-332c0 -54 11 -67 65 -70v-34h-226v34c57 4 70 13 70 70v332h-63v32l63 23v46c0 106 72 173 193 173
c52 0 97 -17 126 -43zM189 538v-47h192v69c0 84 -46 101 -95 101c-68 0 -97 -41 -97 -123z" />
    <glyph glyph-name="f_f_l" unicode="ffl" horiz-adv-x="854" 
d="M418 667c34 40 89 63 161 63c51 0 92 -11 119 -26l27 26h29v-623c0 -59 9 -70 74 -73v-34h-239v34c61 4 74 13 74 70v480c0 66 -31 97 -93 97c-70 0 -99 -40 -99 -126v-64h121l-14 -55h-106v-332c0 -54 11 -67 65 -70v-34h-222v34c53 4 66 13 66 70v332h-191v-332
c0 -54 11 -67 65 -70v-34h-226v34c57 4 70 13 70 70v332h-63v32l63 23v46c0 106 72 173 193 173c52 0 97 -17 126 -43zM189 538v-47h192v69c0 84 -46 101 -95 101c-68 0 -97 -41 -97 -123z" />
    <glyph glyph-name="f_f_t" unicode="fft" horiz-adv-x="896" 
d="M540 730c38 0 74 -8 98 -18v-83h-61c-5 33 -19 52 -46 52c-38 0 -60 -26 -60 -95v-95h198c9 47 24 101 47 138l47 12c-5 -36 -9 -99 -9 -150h119l-14 -55h-106v-302c0 -78 14 -96 64 -96c17 0 36 3 57 10l8 -36c-33 -17 -65 -26 -99 -26c-75 0 -121 35 -121 135v315h-190
v-332c0 -54 11 -67 89 -70v-34h-246v34c53 4 66 13 66 70v332h-191v-332c0 -54 11 -67 65 -70v-34h-226v34c57 4 70 13 70 70v332h-63v32l63 23v46c0 106 72 173 193 173c50 0 95 -16 124 -41c27 36 69 61 124 61zM189 538v-47h192v71c0 82 -47 99 -95 99
c-68 0 -97 -41 -97 -123z" />
    <glyph glyph-name="f_h" unicode="fh" horiz-adv-x="865" 
d="M472 730v-309c45 45 91 82 167 82c80 0 135 -47 135 -134v-265c0 -57 12 -66 65 -70v-34h-226v34c63 3 70 14 70 63v254c0 59 -25 82 -73 82c-60 0 -98 -24 -138 -63v-273c0 -49 7 -60 70 -63v-34h-231v34c57 4 70 13 70 70v480c0 66 -31 97 -93 97
c-70 0 -99 -40 -99 -126v-64h121l-14 -55h-106v-332c0 -54 11 -67 65 -70v-34h-226v34c57 4 70 13 70 70v332h-63v32l63 23v63c0 110 74 176 198 176c51 0 92 -11 119 -26l27 26h29z" />
    <glyph glyph-name="f_i" unicode="fi" horiz-adv-x="568" 
d="M190 436v-332c0 -54 11 -67 65 -70v-34h-226v34c57 4 70 13 70 70v332h-63v32l63 23v66c0 106 70 173 184 173c49 0 98 -9 122 -18v-90h-73c-5 33 -25 59 -58 59c-58 0 -85 -41 -85 -123v-67h219l49 13h15v-400c0 -57 7 -67 70 -70v-34h-227v34c53 4 66 13 66 70v247
c0 67 -12 85 -66 85h-125z" />
    <glyph glyph-name="f_j" unicode="fj" horiz-adv-x="541" 
d="M371 12v339c0 67 -12 85 -61 85h-120v-332c0 -54 11 -67 65 -70v-34h-226v34c57 4 70 13 70 70v332h-63v32l63 23v66c0 106 70 173 184 173c49 0 98 -9 122 -18v-90h-73c-5 33 -25 59 -58 59c-58 0 -85 -41 -85 -123v-67h209l49 13h15v-493c0 -148 -57 -177 -142 -217
l-29 40c61 28 80 75 80 178z" />
    <glyph glyph-name="f_k" unicode="fk" horiz-adv-x="814" 
d="M665 375l-92 -91l151 -190c31 -39 55 -56 88 -60v-34h-121l-209 262l137 140c12 12 18 22 18 31c0 14 -16 23 -45 24v34h188v-34c-40 -4 -68 -36 -115 -82zM381 104v480c0 66 -31 97 -93 97c-70 0 -99 -40 -99 -126v-64h121l-14 -55h-106v-332c0 -54 11 -67 65 -70v-34
h-226v34c57 4 70 13 70 70v332h-63v32l63 23v63c0 110 74 176 198 176c51 0 92 -11 119 -26l27 26h29v-623c0 -59 9 -70 74 -73v-34h-239v34c61 4 74 13 74 70z" />
    <glyph glyph-name="f_l" unicode="fl" horiz-adv-x="572" 
d="M381 104v480c0 66 -31 97 -93 97c-70 0 -99 -40 -99 -126v-64h121l-14 -55h-106v-332c0 -54 11 -67 65 -70v-34h-226v34c57 4 70 13 70 70v332h-63v32l63 23v63c0 110 74 176 198 176c51 0 92 -11 119 -26l27 26h29v-623c0 -59 9 -70 74 -73v-34h-239v34
c61 4 74 13 74 70z" />
    <glyph glyph-name="f_t" unicode="ft" horiz-adv-x="614" 
d="M189 491h198c9 47 24 101 47 138l47 12c-5 -36 -9 -99 -9 -150h119l-14 -55h-106v-302c0 -78 14 -96 64 -96c17 0 36 3 57 10l8 -36c-33 -17 -65 -26 -99 -26c-75 0 -121 35 -121 135v315h-190v-332c0 -54 11 -67 89 -70v-34h-250v34c57 4 70 13 70 70v332h-63v32l63 23
v94c0 92 65 145 159 145c38 0 74 -8 98 -18v-83h-61c-5 33 -19 52 -46 52c-38 0 -60 -26 -60 -95v-95z" />
    <glyph glyph-name=".notdef" horiz-adv-x="553" 
d="M71 0v689h411v-689h-411zM121 50h311v589h-311v-589z" />
    <glyph glyph-name=".null" horiz-adv-x="0" 
 />
    <glyph glyph-name=".null" horiz-adv-x="0" 
 />
    <glyph glyph-name="CR" unicode="&#xd;" horiz-adv-x="225" 
 />
    <glyph glyph-name="space" unicode=" " horiz-adv-x="225" 
 />
    <glyph glyph-name="exclam" unicode="!" horiz-adv-x="291" 
d="M117 210l-31 477l115 17l-31 -494h-53zM144 -8c-36 0 -64 30 -64 68c0 36 28 65 65 65c36 0 66 -29 66 -65c0 -38 -31 -68 -67 -68z" />
    <glyph glyph-name="quotedbl" unicode="&#x22;" horiz-adv-x="434" 
d="M349 453h-85v256h85v-256zM170 453h-85v256h85v-256z" />
    <glyph glyph-name="numbersign" unicode="#" horiz-adv-x="551" 
d="M64 430v69h102l29 209h62l-29 -209h132l29 209h62l-29 -209h94v-69h-103l-21 -151h94v-68h-103l-30 -211h-62l29 211h-132l-29 -211h-62l29 211h-91v68h101l20 151h-92zM219 430l-21 -151h132l21 151h-132z" />
    <glyph glyph-name="dollar" unicode="$" horiz-adv-x="538" 
d="M290 -100h-45v89c-105 0 -169 32 -205 55v124h69c12 -84 40 -128 136 -132v277l-37 12c-101 31 -155 84 -155 181c0 105 71 182 192 193v86h45v-84c90 -2 141 -27 175 -51v-107h-65c-11 60 -36 101 -110 109v-249l36 -11c97 -29 167 -84 167 -191
c0 -119 -72 -196 -203 -209v-92zM406 166c0 81 -34 107 -116 134v-263c84 10 116 62 116 129zM135 537c0 -71 33 -96 110 -121v237c-69 -6 -110 -49 -110 -116z" />
    <glyph glyph-name="percent" unicode="%" horiz-adv-x="891" 
d="M342 442c0 -125 -69 -201 -157 -201c-86 0 -155 77 -155 204c0 126 69 206 154 206c97 0 158 -92 158 -209zM262 437c0 124 -31 177 -76 177c-54 0 -74 -53 -74 -160c0 -127 23 -177 74 -177c47 0 76 50 76 160zM710 730l-488 -853h-53l487 853h54zM861 192
c0 -125 -69 -201 -157 -201c-86 0 -155 77 -155 204c0 126 69 206 154 206c97 0 158 -92 158 -209zM781 187c0 124 -31 177 -76 177c-54 0 -74 -53 -74 -160c0 -127 23 -177 74 -177c47 0 76 50 76 160z" />
    <glyph glyph-name="ampersand" unicode="&#x26;" horiz-adv-x="693" 
d="M472 548c0 -87 -64 -140 -155 -186l195 -196c13 30 20 65 20 106c0 57 -9 74 -76 76v35h214v-35c-67 -2 -70 -19 -76 -76c-6 -54 -22 -102 -45 -143l68 -68c21 -20 55 -28 76 -28v-33h-140l-60 60c-51 -45 -121 -71 -208 -71c-164 0 -245 73 -245 170
c0 102 61 139 166 190l-30 30c-55 55 -90 88 -90 169c0 78 68 153 190 153c126 0 196 -55 196 -153zM305 35c59 0 116 17 158 55l-229 231c-61 -39 -90 -66 -90 -139c0 -74 53 -147 161 -147zM179 555c0 -56 36 -92 80 -135l31 -30c69 55 86 81 86 158
c0 71 -34 108 -100 108c-60 0 -97 -37 -97 -101z" />
    <glyph glyph-name="quotesingle" unicode="'" horiz-adv-x="255" 
d="M170 453h-85v256h85v-256z" />
    <glyph glyph-name="parenleft" unicode="(" horiz-adv-x="333" 
d="M148 324c0 -174 17 -367 165 -448l-17 -35c-194 82 -236 284 -236 481s49 353 236 453l17 -35c-146 -92 -165 -236 -165 -416z" />
    <glyph glyph-name="parenright" unicode=")" horiz-adv-x="333" 
d="M185 324c0 174 -19 324 -165 416l17 35c187 -100 236 -256 236 -453s-42 -399 -236 -481l-17 35c148 81 165 255 165 448z" />
    <glyph glyph-name="asterisk" unicode="*" horiz-adv-x="461" 
d="M421 553l-126 -62l69 -127l-37 -29l-98 108l-95 -105l-36 27l68 126l-126 64l13 41l139 -30l18 142h42l17 -142l138 29z" />
    <glyph glyph-name="plus" unicode="+" horiz-adv-x="575" 
d="M257 507h59v-209h204v-53h-204v-211h-59v211h-202v53h202v209z" />
    <glyph glyph-name="comma" unicode="," horiz-adv-x="297" 
d="M218 31c0 -78 -57 -150 -143 -174l-20 31c58 22 88 54 88 83c0 18 -14 24 -36 33c-18 8 -42 23 -42 58c0 38 31 70 72 70c47 0 81 -42 81 -101z" />
    <glyph glyph-name="hyphen" unicode="-" horiz-adv-x="313" 
d="M258 235h-203v71h203v-71z" />
    <glyph glyph-name="period" unicode="." horiz-adv-x="272" 
d="M207 59c0 -41 -30 -73 -71 -73s-71 32 -71 73s30 73 71 73s71 -32 71 -73z" />
    <glyph glyph-name="slash" unicode="/" horiz-adv-x="398" 
d="M29 -149l260 910h68l-260 -910h-68z" />
    <glyph glyph-name="zero" unicode="0" horiz-adv-x="552" 
d="M511 246c0 -159 -102 -260 -235 -260c-134 0 -235 102 -235 265c0 162 101 264 233 264c148 0 237 -118 237 -269zM413 242c0 153 -52 224 -139 224c-100 0 -135 -81 -135 -205c0 -151 41 -226 139 -226c86 0 135 78 135 207z" />
    <glyph glyph-name="one" unicode="1" horiz-adv-x="407" 
d="M268 513v-405c0 -60 9 -71 97 -74v-34h-294v34c90 4 106 13 106 75v312c-41 -22 -73 -34 -117 -48l-13 33l163 107h58z" />
    <glyph glyph-name="two" unicode="2" horiz-adv-x="447" 
d="M220 517c125 0 184 -64 184 -153c0 -99 -75 -159 -224 -262l-42 -29h280l-16 -73h-378v46l97 73c101 76 187 147 187 241c0 61 -40 96 -103 96c-70 0 -104 -19 -140 -40l-27 42c54 39 114 59 182 59z" />
    <glyph glyph-name="three" unicode="3" horiz-adv-x="469" 
d="M209 455c-71 0 -120 -25 -153 -50l-31 39c54 43 118 73 195 73c117 0 190 -59 190 -156c0 -74 -46 -133 -129 -157c91 -18 147 -77 147 -151c0 -146 -148 -217 -298 -217c-37 0 -75 4 -110 13l-11 43c35 -5 69 -8 100 -8c129 0 221 49 221 165c0 99 -55 124 -157 124
c-15 0 -28 -1 -45 -2v51c18 -1 33 -2 55 -2c87 0 135 35 135 138c0 58 -41 97 -109 97z" />
    <glyph glyph-name="four" unicode="4" horiz-adv-x="539" 
d="M329 -179v197h-305v42l225 461h98l-251 -454h233c1 106 14 197 39 276l52 17v-293h84v-49h-84v-178z" />
    <glyph glyph-name="five" unicode="5" horiz-adv-x="462" 
d="M421 60c0 -147 -140 -224 -272 -224c-57 0 -83 6 -117 18l-11 46c36 -10 67 -15 113 -15c105 0 189 45 189 167c0 87 -39 136 -128 136c-51 0 -89 -9 -127 -24l31 337h309l-14 -75h-240l-18 -196c28 8 59 13 85 13c124 0 200 -69 200 -183z" />
    <glyph glyph-name="six" unicode="6" horiz-adv-x="525" 
d="M435 662c-158 -61 -262 -141 -289 -316c36 29 89 53 143 53c112 0 200 -70 200 -193c0 -125 -90 -221 -216 -221c-137 0 -230 101 -230 274c0 258 181 389 377 444zM270 342c-46 0 -93 -18 -129 -45c-1 -14 -1 -29 -1 -45c0 -160 54 -218 133 -218c73 0 119 49 119 170
c0 114 -56 138 -122 138z" />
    <glyph glyph-name="seven" unicode="7" horiz-adv-x="471" 
d="M444 501l-13 -64c-112 -150 -202 -374 -243 -588l-101 -26c48 205 167 446 278 603h-337l17 75h399z" />
    <glyph glyph-name="eight" unicode="8" horiz-adv-x="539" 
d="M40 165c0 84 73 142 146 176c-59 31 -114 78 -114 156c0 102 94 171 200 171c119 0 199 -64 199 -155c0 -75 -66 -124 -129 -154c74 -31 157 -81 157 -184c0 -115 -99 -188 -231 -188c-146 0 -228 79 -228 178zM409 156c0 88 -64 117 -184 167c-54 -38 -91 -84 -91 -152
c0 -87 47 -136 136 -136c84 0 139 46 139 121zM159 511c0 -62 35 -95 140 -136c42 29 80 70 80 134c0 68 -36 111 -108 111c-71 0 -112 -47 -112 -109z" />
    <glyph glyph-name="nine" unicode="9" horiz-adv-x="525" 
d="M43 -155c116 36 193 81 250 138c46 47 74 98 85 175c-35 -29 -88 -52 -142 -52c-112 0 -200 70 -200 193c0 125 94 221 220 221c137 0 226 -94 226 -269c0 -263 -182 -391 -407 -443zM255 163c45 0 92 17 128 44c1 18 2 37 2 58c0 155 -50 206 -129 206
c-73 0 -123 -49 -123 -170c0 -114 56 -138 122 -138z" />
    <glyph glyph-name="colon" unicode=":" horiz-adv-x="312" 
d="M227 373c0 -41 -30 -73 -71 -73s-71 32 -71 73s30 73 71 73s71 -32 71 -73zM227 59c0 -41 -30 -73 -71 -73s-71 32 -71 73s30 73 71 73s71 -32 71 -73z" />
    <glyph glyph-name="semicolon" unicode=";" horiz-adv-x="327" 
d="M238 31c0 -78 -57 -150 -143 -174l-20 31c58 22 88 54 88 83c0 19 -15 23 -36 33c-18 8 -42 23 -42 58c0 38 31 70 72 70c47 0 81 -42 81 -101zM227 373c0 -41 -30 -73 -71 -73s-71 32 -71 73s30 73 71 73s71 -32 71 -73z" />
    <glyph glyph-name="less" unicode="&#x3c;" horiz-adv-x="477" 
d="M422 56l-367 198v72l367 232v-68l-316 -196l316 -173v-65z" />
    <glyph glyph-name="equal" unicode="=" horiz-adv-x="575" 
d="M55 173v53h465v-53h-465zM55 321v53h465v-53h-465z" />
    <glyph glyph-name="greater" unicode="&#x3e;" horiz-adv-x="477" 
d="M422 254l-367 -198v65l316 173l-316 196v68l367 -232v-72z" />
    <glyph glyph-name="question" unicode="?" horiz-adv-x="447" 
d="M277 60c0 -40 -32 -73 -71 -73c-38 0 -68 33 -68 73c0 38 30 68 68 68s71 -30 71 -68zM211 654c-56 0 -83 -36 -89 -91h-64v90c23 17 80 47 163 47c96 0 171 -41 171 -153c0 -94 -75 -141 -99 -156c-56 -36 -77 -60 -77 -120c0 -16 3 -38 8 -56h-41c-11 19 -24 41 -24 80
c0 34 11 78 57 120c36 33 84 63 84 143c0 61 -38 96 -89 96z" />
    <glyph glyph-name="at" unicode="@" horiz-adv-x="906" 
d="M614 -1c-81 0 -119 29 -119 104c-27 -58 -69 -104 -145 -104c-72 0 -115 50 -115 138c0 196 136 315 278 315c64 0 103 -18 139 -50c-13 -43 -17 -62 -25 -96l-43 -175c-5 -21 -7 -36 -7 -49c0 -34 16 -44 49 -44c69 0 154 73 154 227c0 220 -132 316 -308 316
c-203 0 -346 -148 -346 -388c0 -190 114 -328 304 -328c71 0 119 10 161 24l15 -30c-53 -21 -109 -35 -188 -35c-219 0 -373 136 -373 370c0 254 179 431 429 431c234 0 387 -137 387 -349c0 -197 -123 -277 -247 -277zM511 189l43 187c-8 16 -27 30 -54 30
c-112 0 -174 -124 -174 -262c0 -61 22 -83 54 -83c53 0 92 61 131 128z" />
    <glyph glyph-name="A" unicode="A" horiz-adv-x="657" 
d="M459 107l-33 108h-230l-33 -108c-4 -14 -6 -26 -6 -35c0 -29 22 -35 73 -37v-35h-214v35c48 4 64 19 86 86l184 568h89l182 -566c18 -56 32 -84 84 -88v-35h-245v35c48 2 68 13 68 42c0 10 -3 23 -5 30zM257 411l-46 -148h201l-45 148c-27 88 -45 161 -52 191h-4
c-11 -40 -26 -100 -54 -191z" />
    <glyph glyph-name="B" unicode="B" horiz-adv-x="607" 
d="M37 0v35c67 2 80 19 80 76v467c0 57 -13 74 -80 76v35h252c178 0 250 -60 250 -170c0 -72 -32 -125 -126 -149v-4c110 -17 161 -89 161 -177c0 -133 -112 -189 -241 -189h-296zM212 49h127c107 0 135 45 135 146c0 102 -32 140 -152 140h-110v-286zM212 383h103
c97 0 128 42 128 125c0 97 -35 132 -132 132h-99v-257z" />
    <glyph glyph-name="C" unicode="C" horiz-adv-x="577" 
d="M348 -11c-209 0 -304 135 -304 350c0 230 119 362 296 362c109 0 161 -21 198 -47v-112h-70c-19 77 -48 112 -131 112c-115 0 -188 -81 -188 -313c0 -240 76 -305 199 -305c79 0 115 30 130 108h65v-105c-35 -25 -95 -50 -195 -50z" />
    <glyph glyph-name="D" unicode="D" horiz-adv-x="670" 
d="M37 0v35c67 2 80 19 80 76v467c0 57 -13 74 -80 76v35h253c204 0 336 -105 336 -345c0 -199 -88 -344 -336 -344h-253zM215 51h85c149 0 222 57 222 281c0 230 -76 310 -220 310h-87v-591z" />
    <glyph glyph-name="E" unicode="E" horiz-adv-x="565" 
d="M37 0v35c67 2 80 19 80 76v467c0 57 -13 74 -80 76v35h470l10 -150h-42c-22 76 -38 101 -96 101h-167v-256h93c62 0 82 14 86 71h41v-190h-41c-4 54 -23 71 -85 71h-94v-287h168c77 0 96 23 104 116h45v-165h-492z" />
    <glyph glyph-name="F" unicode="F" horiz-adv-x="552" 
d="M37 0v35c67 2 80 19 80 76v467c0 57 -13 74 -80 76v35h472l12 -155h-42c-29 88 -43 106 -105 106h-162v-272h93c62 0 82 14 86 71h41v-193h-41c-4 55 -23 74 -85 74h-94v-206c0 -59 16 -77 88 -79v-35h-263z" />
    <glyph glyph-name="G" unicode="G" horiz-adv-x="644" 
d="M461 66v163c0 57 -13 74 -90 76v35h250v-35c-52 -2 -65 -19 -65 -76v-189c-56 -34 -142 -51 -216 -51c-183 0 -296 130 -296 352c0 225 122 360 296 360c108 0 175 -25 212 -51v-111h-70c-15 76 -43 115 -150 115c-138 0 -186 -135 -186 -318c0 -184 47 -301 201 -301
c49 0 88 11 114 31z" />
    <glyph glyph-name="H" unicode="H" horiz-adv-x="708" 
d="M496 111v229h-284v-229c0 -57 13 -74 80 -76v-35h-255v35c67 2 80 19 80 76v467c0 57 -13 74 -80 76v35h255v-35c-67 -2 -80 -19 -80 -76v-188h284v188c0 57 -13 74 -80 76v35h255v-35c-67 -2 -80 -19 -80 -76v-467c0 -57 13 -74 80 -76v-35h-255v35c67 2 80 19 80 76z
" />
    <glyph glyph-name="I" unicode="I" horiz-adv-x="329" 
d="M117 111v467c0 57 -13 74 -80 76v35h255v-35c-67 -2 -80 -19 -80 -76v-467c0 -57 13 -74 80 -76v-35h-255v35c67 2 80 19 80 76z" />
    <glyph glyph-name="J" unicode="J" horiz-adv-x="339" 
d="M122 100v478c0 57 -15 74 -85 76v35h265v-35c-70 -2 -85 -19 -85 -76v-471c0 -157 -45 -209 -189 -254l-24 37c108 55 118 99 118 210z" />
    <glyph glyph-name="K" unicode="K" horiz-adv-x="622" 
d="M117 111v467c0 57 -13 74 -80 76v35h255v-35c-67 -2 -80 -19 -80 -76v-467c0 -57 13 -74 80 -76v-35h-255v35c67 2 80 19 80 76zM458 552l-144 -162l211 -306c25 -36 39 -45 91 -49v-35h-149l-239 361l184 215c18 22 24 36 24 48c0 19 -19 29 -54 30v35h212v-35
c-48 -7 -70 -28 -136 -102z" />
    <glyph glyph-name="L" unicode="L" horiz-adv-x="544" 
d="M212 576v-527h144c73 0 96 30 116 120h44l-15 -169h-464v35c67 2 80 19 80 76v467c0 57 -13 74 -80 76v35h260v-35c-71 -2 -85 -21 -85 -78z" />
    <glyph glyph-name="M" unicode="M" horiz-adv-x="801" 
d="M758 689v-35c-73 -4 -84 -25 -80 -76l40 -464c5 -58 14 -77 71 -79v-35h-237v35c69 1 78 22 74 72l-29 366c-3 31 -3 73 -3 98v20h-6c-3 -22 -12 -74 -23 -109l-150 -482h-60l-147 460c-13 41 -26 114 -29 132h-6c0 -14 -2 -66 -6 -132l-20 -352c-3 -49 -4 -72 73 -73
v-35h-208v35c57 2 67 19 72 79l34 464c4 51 -6 73 -80 76v35h193l145 -453c15 -47 21 -95 23 -116h6c2 19 10 73 23 115l136 454h194z" />
    <glyph glyph-name="N" unicode="N" horiz-adv-x="685" 
d="M516 333v245c0 57 -13 74 -80 76v35h219v-35c-61 -2 -72 -19 -72 -76v-578h-71l-250 408c-55 89 -75 144 -84 170h-6c4 -27 12 -87 12 -184v-283c0 -57 13 -74 80 -76v-35h-227v35c67 2 80 19 80 76v467c0 57 -13 74 -80 76v35h162l255 -418c30 -49 58 -113 68 -145h6
c-5 30 -12 117 -12 207z" />
    <glyph glyph-name="O" unicode="O" horiz-adv-x="674" 
d="M340 -11c-197 0 -296 151 -296 358c0 227 115 354 291 354c211 0 295 -169 295 -361c0 -211 -108 -351 -290 -351zM335 654c-132 0 -189 -101 -189 -296c0 -194 49 -324 194 -324c116 0 186 86 186 297c0 206 -51 323 -191 323z" />
    <glyph glyph-name="P" unicode="P" horiz-adv-x="577" 
d="M212 287v-173c0 -59 16 -77 88 -79v-35h-263v35c67 2 80 19 80 76v467c0 57 -13 74 -80 76v35h252c197 0 258 -87 258 -198c0 -129 -81 -204 -232 -204h-103zM446 480c0 117 -31 160 -155 160h-79v-305h97c99 0 137 42 137 145z" />
    <glyph glyph-name="Q" unicode="Q" horiz-adv-x="676" 
d="M588 -125c-91 0 -145 112 -270 116c-177 6 -274 154 -274 356c0 227 115 354 291 354c211 0 295 -169 295 -361c0 -178 -76 -305 -210 -330c79 -19 124 -61 195 -61c32 0 49 2 58 4l-27 -68c-7 -4 -25 -10 -58 -10zM335 654c-132 0 -189 -101 -189 -296
c0 -194 49 -324 194 -324c116 0 186 86 186 297c0 206 -51 323 -191 323z" />
    <glyph glyph-name="R" unicode="R" horiz-adv-x="611" 
d="M324 328v-4c49 -12 78 -36 101 -66c26 -33 64 -100 103 -165c21 -36 35 -56 87 -58v-35h-148c-45 88 -85 171 -128 239c-38 60 -66 85 -127 87v-217c0 -53 16 -72 78 -74v-35h-253v35c67 2 80 19 80 76v467c0 57 -13 74 -80 76v35h248c149 0 249 -48 249 -186
c0 -114 -90 -173 -210 -175zM433 502c0 108 -42 138 -142 138h-79v-278h74c88 0 147 33 147 140z" />
    <glyph glyph-name="S" unicode="S" horiz-adv-x="538" 
d="M245 -11c-105 0 -169 32 -205 55v124h69c13 -88 43 -132 150 -132c108 0 147 56 147 130c0 85 -37 110 -129 138l-69 21c-101 31 -155 84 -155 181c0 114 84 195 223 195c99 0 154 -25 189 -51v-107h-65c-12 67 -41 111 -137 111c-79 0 -128 -44 -128 -117
c0 -74 36 -98 121 -124l70 -21c97 -29 167 -84 167 -191c0 -132 -88 -212 -248 -212z" />
    <glyph glyph-name="T" unicode="T" horiz-adv-x="551" 
d="M28 689h495l8 -157h-47c-16 85 -24 108 -84 108h-77v-529c0 -63 23 -74 90 -76v-35h-275v35c67 2 90 13 90 76v529h-77c-60 0 -68 -23 -84 -108h-47z" />
    <glyph glyph-name="U" unicode="U" horiz-adv-x="684" 
d="M517 224v354c0 57 -13 74 -85 76v35h224v-35c-61 -2 -72 -19 -72 -76v-354c0 -165 -83 -235 -234 -235c-166 0 -247 79 -247 228v361c0 57 -13 74 -75 76v35h255v-35c-72 -2 -85 -19 -85 -76v-339c0 -133 37 -190 166 -190c111 0 153 51 153 175z" />
    <glyph glyph-name="V" unicode="V" horiz-adv-x="653" 
d="M370 0h-91l-179 566c-19 59 -32 83 -84 88v35h245v-35c-48 -2 -68 -12 -68 -42c0 -8 2 -18 5 -30l89 -303c16 -56 39 -147 50 -196h6c10 40 33 126 54 196l91 303c4 14 6 23 6 36c0 27 -21 34 -69 36v35h212v-35c-48 -7 -64 -18 -86 -86z" />
    <glyph glyph-name="W" unicode="W" horiz-adv-x="897" 
d="M580 0l-109 438c-11 43 -18 98 -21 121h-4c-3 -19 -12 -74 -23 -121l-103 -438h-96l-128 566c-14 64 -28 83 -80 88v35h241v-35c-49 -4 -70 -14 -70 -44c0 -12 1 -18 3 -28l66 -298c14 -63 24 -148 27 -176h6c4 20 18 93 38 176l97 405h75l101 -406
c19 -76 35 -152 40 -175h6c3 19 16 100 32 175l61 277c4 20 5 32 5 41c0 38 -21 50 -73 53v35h209v-35c-48 -7 -65 -34 -80 -97l-128 -557h-92z" />
    <glyph glyph-name="X" unicode="X" horiz-adv-x="632" 
d="M474 574l-115 -200l149 -257c36 -62 61 -77 100 -82v-35h-244v35c38 1 55 11 55 31c0 12 -6 27 -16 46l-110 198h-4l-105 -200c-10 -18 -14 -32 -14 -43c0 -23 21 -30 59 -32v-35h-205v35c40 5 63 21 103 93l133 235l-128 217c-35 59 -55 69 -94 74v35h239v-35
c-41 -2 -56 -12 -56 -30c0 -12 7 -28 17 -46l88 -157h4l83 156c10 18 15 33 15 45c0 20 -16 30 -53 32v35h194v-35c-40 -5 -62 -22 -95 -80z" />
    <glyph glyph-name="Y" unicode="Y" horiz-adv-x="594" 
d="M319 345h4l108 234c8 18 12 31 12 43c0 23 -21 30 -59 32v35h199v-35c-40 -5 -60 -19 -97 -93l-137 -279v-171c0 -57 15 -74 85 -76v-35h-265v35c70 2 85 19 85 76v165l-149 296c-32 64 -55 77 -94 82v35h238v-35c-38 -1 -53 -10 -53 -30c0 -13 5 -27 14 -47z" />
    <glyph glyph-name="Z" unicode="Z" horiz-adv-x="519" 
d="M497 633l-374 -584h197c77 0 106 33 126 123h44l-15 -172h-451v56l374 584h-186c-67 0 -97 -35 -117 -113h-44l14 162h432v-56z" />
    <glyph glyph-name="bracketleft" unicode="[" horiz-adv-x="300" 
d="M275 -155h-185v928h185v-42h-106v-844h106v-42z" />
    <glyph glyph-name="backslash" unicode="\" horiz-adv-x="398" 
d="M115 761l260 -910h-68l-260 910h68z" />
    <glyph glyph-name="bracketright" unicode="]" horiz-adv-x="300" 
d="M210 -155h-185v42h106v844h-106v42h185v-928z" />
    <glyph glyph-name="asciicircum" unicode="^" horiz-adv-x="604" 
d="M539 310h-75l-165 326l-160 -326h-74l203 398h68z" />
    <glyph glyph-name="underscore" unicode="_" horiz-adv-x="496" 
d="M498 -125h-500v50h500v-50z" />
    <glyph glyph-name="grave" unicode="`" horiz-adv-x="392" 
d="M312 600l-20 -34l-212 96l53 91z" />
    <glyph glyph-name="a" unicode="a" horiz-adv-x="512" 
d="M420 131c0 -75 9 -88 74 -93v-33c-15 -6 -43 -11 -69 -11c-71 0 -86 29 -91 71c-17 -30 -62 -80 -137 -80c-96 0 -161 51 -161 143c0 120 105 161 262 161c12 0 22 0 35 -1v44c0 86 -20 124 -91 124c-84 0 -108 -44 -116 -90h-63v89c42 23 119 51 187 51
c112 0 174 -51 174 -168c0 -30 -4 -116 -4 -207zM331 240c-14 1 -22 2 -35 2c-114 0 -163 -31 -163 -107c0 -71 28 -93 86 -93c47 0 86 33 109 73z" />
    <glyph glyph-name="b" unicode="b" horiz-adv-x="555" 
d="M421 256c0 137 -36 182 -114 182c-56 0 -107 -34 -129 -62v-268c33 -32 65 -58 125 -58c79 0 118 48 118 206zM165 67c-6 -18 -20 -52 -33 -67h-58c9 24 13 52 13 117v467c0 73 -17 83 -76 85v32l140 29h15c6 -19 12 -53 12 -99v-203c34 36 83 75 154 75
c113 0 187 -82 187 -249c0 -166 -72 -264 -197 -264c-76 0 -124 40 -157 77z" />
    <glyph glyph-name="c" unicode="c" horiz-adv-x="463" 
d="M415 464v-92h-68c-10 59 -29 85 -84 85c-76 0 -128 -50 -128 -199c0 -160 46 -214 139 -214c60 0 89 19 133 55l26 -28c-44 -50 -100 -82 -173 -82c-123 0 -224 81 -224 249c0 173 99 265 229 265c77 0 125 -22 150 -39z" />
    <glyph glyph-name="d" unicode="d" horiz-adv-x="567" 
d="M383 74c-38 -49 -97 -84 -150 -84c-102 0 -197 69 -197 251c0 156 77 262 205 262c50 0 99 -20 136 -60v141c0 73 -17 83 -76 85v32l146 29h21v-592c0 -73 15 -83 79 -85v-30l-127 -36h-15c-6 12 -19 47 -22 87zM134 253c0 -155 36 -207 115 -207c45 0 88 28 128 72v271
c-31 38 -79 57 -121 57c-76 0 -122 -37 -122 -193z" />
    <glyph glyph-name="e" unicode="e" horiz-adv-x="483" 
d="M289 49c43 0 98 19 133 42l21 -34c-48 -37 -107 -68 -178 -68c-143 0 -229 96 -229 260c0 163 92 258 215 258c126 0 200 -87 200 -239v-27h-319c2 -145 52 -192 157 -192zM249 459c-68 0 -109 -41 -116 -169h223c0 122 -31 169 -107 169z" />
    <glyph glyph-name="f" unicode="f" horiz-adv-x="316" 
d="M190 436v-332c0 -54 11 -67 89 -70v-34h-250v34c57 4 70 13 70 70v332h-63v32l63 23v94c0 92 65 145 159 145c38 0 83 -8 107 -18l-9 -83h-61c-5 33 -19 52 -46 52c-38 0 -60 -26 -60 -95v-95h121l-14 -55h-106z" />
    <glyph glyph-name="g" unicode="g" horiz-adv-x="523" 
d="M254 -189c-138 0 -210 54 -210 115c0 36 27 56 51 70l42 2c-5 -9 -11 -31 -11 -52c0 -56 30 -87 126 -87c105 0 140 39 140 93c0 61 -25 74 -156 77c-35 1 -70 4 -89 6c-44 5 -65 41 -65 78c0 39 39 68 93 86c-73 17 -119 76 -119 142c0 97 73 164 188 164
c27 0 48 -2 78 -11c26 -8 53 -16 75 -16c30 0 54 12 81 31l34 -65c-22 -11 -44 -18 -70 -18c-20 0 -42 6 -70 19c33 -25 60 -61 60 -106c0 -66 -43 -145 -187 -152c-7 -1 -14 -1 -22 -1c-36 -10 -61 -30 -61 -52c0 -15 12 -25 36 -25h92c117 0 184 -32 184 -138
c0 -98 -96 -160 -220 -160zM243 232c60 0 91 34 91 110c0 80 -29 116 -92 116c-59 0 -91 -34 -91 -113c0 -77 33 -113 92 -113z" />
    <glyph glyph-name="h" unicode="h" horiz-adv-x="583" 
d="M190 631v-210c45 45 91 82 167 82c80 0 135 -47 135 -134v-265c0 -57 12 -66 65 -70v-34h-226v34c63 3 70 14 70 63v254c0 59 -25 82 -73 82c-60 0 -98 -24 -138 -63v-273c0 -49 7 -60 70 -63v-34h-231v34c57 4 70 13 70 70v480c0 73 -17 83 -76 85v32l140 29h15
c5 -16 12 -52 12 -99z" />
    <glyph glyph-name="i" unicode="i" horiz-adv-x="286" 
d="M260 0h-231v34c57 4 70 13 70 70v245c0 73 -14 83 -73 85v30l149 40h15v-400c0 -57 7 -67 70 -70v-34zM200 644c0 -35 -27 -63 -62 -63s-62 28 -62 63s27 63 62 63s62 -28 62 -63z" />
    <glyph glyph-name="j" unicode="j" horiz-adv-x="269" 
d="M99 12v337c0 73 -14 83 -73 85v30l149 40h15v-493c0 -148 -57 -177 -142 -217l-29 40c61 28 80 75 80 178zM200 644c0 -35 -27 -63 -62 -63s-62 28 -62 63s27 63 62 63s62 -28 62 -63z" />
    <glyph glyph-name="k" unicode="k" horiz-adv-x="531" 
d="M29 0v34c57 4 70 13 70 70v480c0 73 -17 83 -76 85v32l140 29h15c6 -18 12 -54 12 -99v-534c0 -49 7 -60 70 -63v-34h-231zM408 0l-209 262l137 140c33 33 19 53 -27 55v34h188v-34c-40 -4 -68 -36 -115 -82l-92 -91l151 -190c31 -39 55 -56 88 -60v-34h-121z" />
    <glyph glyph-name="l" unicode="l" horiz-adv-x="294" 
d="M194 631v-524c0 -59 9 -70 74 -73v-34h-239v34c61 4 74 13 74 70v480c0 73 -17 83 -80 85v32l144 29h15c7 -21 12 -59 12 -99z" />
    <glyph glyph-name="m" unicode="m" horiz-adv-x="831" 
d="M458 425c45 42 92 78 156 78c72 0 126 -47 126 -134v-265c0 -57 12 -66 65 -70v-34h-221v34c58 3 65 14 65 63v254c0 59 -17 82 -61 82c-48 0 -83 -19 -118 -49v-287c0 -49 12 -59 60 -63v-34h-216v34c58 3 65 14 65 63v254c0 59 -17 82 -61 82c-54 0 -88 -24 -128 -58
v-278c0 -49 7 -60 65 -63v-34h-226v34c57 4 70 13 70 70v245c0 73 -14 83 -73 85v30l128 40h15c8 -20 16 -52 17 -82c45 42 90 81 158 81c54 0 98 -27 114 -78z" />
    <glyph glyph-name="n" unicode="n" horiz-adv-x="583" 
d="M492 369v-265c0 -57 12 -66 65 -70v-34h-226v34c63 3 70 14 70 63v254c0 59 -25 82 -73 82c-60 0 -98 -24 -138 -63v-273c0 -49 7 -60 70 -63v-34h-231v34c57 4 70 13 70 70v245c0 73 -14 83 -73 85v30l128 40h15c7 -16 16 -52 17 -87c45 47 95 86 171 86
c80 0 135 -47 135 -134z" />
    <glyph glyph-name="o" unicode="o" horiz-adv-x="532" 
d="M496 242c0 -159 -97 -254 -230 -254c-134 0 -230 96 -230 259c0 162 96 259 228 259c148 0 232 -113 232 -264zM398 238c0 153 -47 219 -134 219c-100 0 -130 -76 -130 -200c0 -151 36 -220 134 -220c86 0 130 72 130 201z" />
    <glyph glyph-name="p" unicode="p" horiz-adv-x="568" 
d="M434 236c0 154 -33 203 -114 203c-47 0 -90 -20 -130 -64v-271c31 -38 79 -60 117 -60c83 0 127 40 127 192zM185 421c37 48 99 82 153 82c110 0 194 -76 194 -248c0 -156 -72 -260 -204 -260c-51 0 -100 17 -138 57v-145c0 -54 10 -66 78 -69v-34h-239v34
c57 4 70 13 70 70v441c0 73 -14 83 -73 85v30l128 40h15c5 -12 14 -45 16 -83z" />
    <glyph glyph-name="q" unicode="q" horiz-adv-x="544" 
d="M134 253c0 -155 36 -207 115 -207c45 0 88 28 128 72v271c-31 38 -79 57 -121 57c-76 0 -122 -37 -122 -193zM393 426c8 28 25 56 38 69h50c-7 -26 -12 -80 -12 -140v-447c0 -57 13 -66 70 -70v-34h-239v34c68 3 78 15 78 69v161c-38 -45 -92 -78 -145 -78
c-102 0 -197 69 -197 251c0 156 77 262 205 262c65 0 115 -31 152 -77z" />
    <glyph glyph-name="r" unicode="r" horiz-adv-x="364" 
d="M186 390c39 69 82 117 136 117c11 0 22 -2 30 -5l-22 -99c-7 3 -16 5 -31 5c-82 0 -109 -32 -109 -129v-175c0 -57 10 -67 85 -70v-34h-246v34c57 4 70 13 70 70v245c0 73 -14 83 -73 85v30l128 40h15c7 -17 17 -59 17 -114z" />
    <glyph glyph-name="s" unicode="s" horiz-adv-x="431" 
d="M202 -12c-92 0 -141 27 -165 42v97h67c7 -68 37 -93 107 -93c57 0 103 23 103 87c0 54 -29 73 -86 87l-59 14c-75 18 -127 58 -127 139c0 94 79 144 175 144c78 0 126 -23 150 -35v-90h-64c-10 53 -38 79 -94 79c-59 0 -92 -29 -92 -77c0 -42 19 -65 80 -79l59 -14
c94 -22 137 -64 137 -136c0 -100 -74 -165 -191 -165z" />
    <glyph glyph-name="t" unicode="t" horiz-adv-x="321" 
d="M298 491l-14 -55h-106v-302c0 -78 14 -96 64 -96c17 0 36 3 57 10l8 -36c-33 -17 -65 -26 -99 -26c-75 0 -121 35 -121 135v315h-60v32l67 23c9 47 24 101 47 138l47 12c-5 -36 -9 -99 -9 -150h119z" />
    <glyph glyph-name="u" unicode="u" horiz-adv-x="580" 
d="M481 504v-366c0 -73 14 -83 73 -85v-30l-121 -36h-15c-11 27 -19 56 -22 89c-45 -48 -91 -88 -167 -88c-80 0 -138 42 -138 133v228c0 73 -15 83 -70 85v30l139 40h22v-366c0 -62 27 -81 75 -81c60 0 93 25 133 64v228c0 73 -15 83 -70 85v30l139 40h22z" />
    <glyph glyph-name="v" unicode="v" horiz-adv-x="505" 
d="M289 -5h-69l-148 392c-20 53 -34 65 -73 70v34h222v-34c-48 -2 -64 -10 -64 -29c0 -8 2 -16 7 -30l81 -223c6 -17 18 -59 23 -87h4c3 13 14 56 24 86l79 224c4 12 7 23 7 29c0 20 -16 28 -64 30v34h188v-34c-40 -5 -53 -16 -73 -70z" />
    <glyph glyph-name="w" unicode="w" horiz-adv-x="747" 
d="M345 253l-74 -258h-73l-126 392c-17 54 -31 65 -70 70v34h214v-34c-32 -2 -57 -6 -57 -31c0 -7 1 -14 5 -28l60 -199c9 -30 21 -84 24 -99h4c3 14 12 55 24 98l80 293h63l95 -292c12 -36 21 -82 24 -99h4c6 27 16 65 24 98l51 200c3 10 4 18 4 26c0 21 -13 31 -56 33v34
h180v-34c-43 -5 -55 -18 -70 -70l-114 -392h-71l-80 258c-17 56 -28 105 -32 121h-4c-3 -16 -15 -71 -29 -121z" />
    <glyph glyph-name="x" unicode="x" horiz-adv-x="521" 
d="M238 215l-81 -129c-7 -11 -10 -20 -10 -27c0 -15 15 -23 49 -25v-34h-182v34c43 4 53 16 85 63l108 160l-94 137c-35 51 -45 58 -93 63v34h223v-34c-32 -2 -45 -7 -45 -19c0 -8 5 -19 14 -33l65 -103h4l62 103c9 15 12 23 12 31c0 10 -7 19 -46 21v34h176v-34
c-43 -5 -57 -16 -87 -63l-85 -132l110 -165c33 -49 41 -59 87 -63v-34h-222v34c35 2 50 7 50 20c0 7 -5 17 -14 32l-82 129h-4z" />
    <glyph glyph-name="y" unicode="y" horiz-adv-x="505" 
d="M105 -213l-24 69c76 19 128 40 159 146l-36 -5c-13 52 -28 105 -52 172l-80 218c-19 51 -34 65 -73 70v34h222v-34c-49 -2 -64 -11 -64 -31c0 -7 3 -16 7 -28l72 -202c21 -60 31 -110 35 -132h3c3 16 11 56 29 111l72 223c3 9 5 17 6 23c3 24 -9 34 -63 36v34h188v-34
c-40 -5 -54 -16 -73 -70l-140 -403c-42 -121 -89 -177 -188 -197z" />
    <glyph glyph-name="z" unicode="z" horiz-adv-x="455" 
d="M432 153l-24 -153h-368v49l281 393h-122c-68 0 -83 -18 -94 -93h-43v142h358v-53l-278 -389h111c94 0 105 20 134 104h45z" />
    <glyph glyph-name="braceleft" unicode="{" horiz-adv-x="351" 
d="M206 659v-230c0 -88 -47 -113 -77 -118v-4c30 -5 77 -30 77 -118v-230c0 -37 12 -74 63 -74h57v-40h-80c-77 0 -115 33 -115 119v237c0 67 -36 91 -106 91v34c70 0 106 24 106 91v237c0 86 52 119 115 119h80v-40h-57c-51 0 -63 -37 -63 -74z" />
    <glyph glyph-name="bar" unicode="|" horiz-adv-x="244" 
d="M154 -149h-64v910h64v-910z" />
    <glyph glyph-name="braceright" unicode="}" horiz-adv-x="351" 
d="M145 429v230c0 37 -12 74 -63 74h-57v40h80c77 0 115 -33 115 -119v-237c0 -67 36 -91 106 -91v-34c-70 0 -106 -24 -106 -91v-237c0 -86 -52 -119 -115 -119h-80v39h57c51 0 63 37 63 74v231c0 88 47 113 77 118v4c-30 5 -77 30 -77 118z" />
    <glyph glyph-name="asciitilde" unicode="~" horiz-adv-x="554" 
d="M361 320c47 0 84 22 105 63l38 -21c-22 -78 -60 -125 -137 -125c-78 0 -134 49 -186 49c-49 0 -75 -25 -97 -67l-34 19c17 84 50 130 128 130s124 -48 183 -48z" />
    <glyph glyph-name="uni00A0" unicode="&#xa0;" horiz-adv-x="225" 
 />
    <glyph glyph-name="exclamdown" unicode="&#xa1;" horiz-adv-x="291" 
d="M90 -189l31 494h53l31 -477zM80 455c0 38 31 68 67 68s64 -30 64 -68c0 -36 -28 -65 -65 -65c-36 0 -66 29 -66 65z" />
    <glyph glyph-name="cent" unicode="&#xa2;" horiz-adv-x="463" 
d="M280 -100h-45v90c-112 10 -199 91 -199 248c0 159 84 250 199 263v96h45v-94c68 -3 111 -23 135 -39v-92h-68c-9 52 -25 79 -67 84v-412c56 1 84 20 127 55l26 -28c-40 -46 -90 -75 -153 -81v-90zM135 258c0 -136 33 -195 100 -210v406c-61 -12 -100 -66 -100 -196z" />
    <glyph glyph-name="sterling" unicode="&#xa3;" horiz-adv-x="579" 
d="M225 49h154c73 0 96 30 116 120h44l-15 -169h-474v35c67 2 80 19 80 76v190h-80v44h80v87c0 173 99 240 229 240c77 0 123 -24 150 -46v-94h-74c-9 64 -29 94 -89 94c-71 0 -121 -36 -121 -167v-114h191v-44h-191v-252z" />
    <glyph glyph-name="currency" unicode="&#xa4;" horiz-adv-x="470" 
d="M235 99c-25 0 -49 3 -70 10l-50 -78l-57 38l48 74c-35 31 -56 77 -56 136c0 58 21 104 55 135l-47 73l57 38l48 -76c22 8 46 12 72 12c24 0 47 -4 68 -11l48 75l57 -38l-45 -70c35 -32 57 -79 57 -138c0 -60 -22 -107 -59 -138l47 -72l-57 -38l-50 77
c-20 -6 -43 -9 -66 -9zM235 416c-71 0 -92 -50 -92 -129c0 -96 23 -142 92 -142c70 0 93 46 93 142c0 79 -21 129 -93 129z" />
    <glyph glyph-name="yen" unicode="&#xa5;" horiz-adv-x="594" 
d="M536 219h-187v-112c0 -57 15 -74 85 -76v-31h-265v31c70 2 85 19 85 76v112h-182v44h182v13l-31 60h-151v44h129l-96 192c-32 64 -55 77 -94 82v35h238v-35c-38 -1 -53 -10 -53 -30c0 -13 5 -27 14 -47l109 -232h4l108 234c8 18 12 32 12 43c0 23 -21 30 -59 32v35h199
v-35c-40 -5 -60 -19 -97 -93l-89 -181h139v-44h-161l-26 -54v-19h187v-44z" />
    <glyph glyph-name="brokenbar" unicode="&#xa6;" horiz-adv-x="261" 
d="M154 -150h-64v401h64v-401zM154 356h-64v401h64v-401z" />
    <glyph glyph-name="section" unicode="&#xa7;" horiz-adv-x="436" 
d="M411 311c0 -80 -48 -135 -126 -154c58 -33 90 -70 90 -139c0 -93 -65 -151 -178 -151c-89 0 -135 20 -159 35v97h67c7 -68 33 -93 101 -93c51 0 96 23 96 87c0 54 -33 82 -83 104l-64 28c-71 31 -135 67 -135 165c0 71 48 120 123 140c-50 26 -90 64 -90 145
c0 94 79 152 165 152c69 0 119 -20 143 -32v-90h-64c-10 53 -36 76 -86 76c-53 0 -87 -37 -87 -90c0 -48 31 -72 85 -96l58 -26c88 -40 144 -75 144 -158zM235 390l-54 23c-47 -14 -88 -51 -88 -106c0 -52 33 -75 90 -101l53 -25c55 6 99 43 99 102c0 54 -46 84 -100 107z
" />
    <glyph glyph-name="dieresis" unicode="&#xa8;" horiz-adv-x="489" 
d="M200 638c0 -34 -26 -60 -60 -60s-60 26 -60 60s26 60 60 60s60 -26 60 -60zM409 638c0 -34 -26 -60 -60 -60s-60 26 -60 60s26 60 60 60s60 -26 60 -60z" />
    <glyph glyph-name="copyright" unicode="&#xa9;" horiz-adv-x="800" 
d="M279 348c0 -106 38 -181 124 -181c65 0 81 26 90 80h58v-87c-27 -17 -75 -35 -144 -35c-146 0 -217 79 -217 215c0 135 69 221 214 221c69 0 118 -18 144 -35v-88h-64c-9 54 -19 83 -83 83c-87 0 -122 -67 -122 -173zM400 31c168 0 301 122 301 312
c0 194 -133 314 -301 314s-301 -120 -301 -314c0 -190 133 -312 301 -312zM400 -12c-202 0 -356 140 -356 356c0 214 160 357 356 357s356 -143 356 -357c0 -216 -154 -356 -356 -356z" />
    <glyph glyph-name="ordfeminine" unicode="&#xaa;" horiz-adv-x="395" 
d="M318 451c0 -57 2 -61 52 -65v-31c-12 -5 -33 -9 -53 -9c-54 0 -65 23 -69 55c-17 -31 -48 -62 -105 -62c-74 0 -123 40 -123 110c0 91 80 126 200 126c9 0 17 0 27 -1v26c0 66 -16 94 -70 94c-60 0 -73 -27 -80 -63h-57v68c32 19 92 39 143 39c86 0 138 -39 138 -128
c0 -24 -3 -89 -3 -159zM246 536c-12 1 -17 2 -27 2c-80 0 -115 -24 -115 -79c0 -52 20 -69 62 -69c33 0 61 23 77 54z" />
    <glyph glyph-name="guillemotleft" unicode="&#xab;" horiz-adv-x="505" 
d="M151 244l113 -177l-39 -36l-170 213l170 213l39 -36zM347 244l113 -177l-39 -36l-170 213l170 213l39 -36z" />
    <glyph glyph-name="logicalnot" unicode="&#xac;" horiz-adv-x="501" 
d="M55 237v56h391v-221h-59v165h-332z" />
    <glyph glyph-name="uni00AD" unicode="&#xad;" horiz-adv-x="313" 
d="M258 235h-203v71h203v-71z" />
    <glyph glyph-name="registered" unicode="&#xae;" horiz-adv-x="800" 
d="M403 165v-29h-190v29c50 1 54 14 54 59v241c0 45 -4 58 -54 59v31h172c97 0 162 -24 162 -114c0 -86 -48 -108 -127 -110v-3c32 -8 60 -28 82 -63c9 -15 19 -34 34 -63c17 -30 24 -35 62 -36v-30h-115c-17 38 -38 78 -53 106c-34 63 -44 83 -89 84v-102
c0 -49 12 -58 62 -59zM468 441c0 53 -22 76 -101 76h-26v-156h39c66 0 88 18 88 80zM400 31c168 0 301 122 301 312c0 194 -133 314 -301 314s-301 -120 -301 -314c0 -190 133 -312 301 -312zM400 -12c-202 0 -356 140 -356 356c0 214 160 357 356 357s356 -143 356 -357
c0 -216 -154 -356 -356 -356z" />
    <glyph glyph-name="macron" unicode="&#xaf;" horiz-adv-x="441" 
d="M361 590h-281v57h281v-57z" />
    <glyph glyph-name="degree" unicode="&#xb0;" horiz-adv-x="418" 
d="M373 525c0 -103 -67 -168 -164 -168c-103 0 -164 65 -164 170c0 104 65 169 162 169c105 0 166 -65 166 -171zM296 521c0 88 -30 118 -88 118c-59 0 -86 -36 -86 -108c0 -87 29 -117 88 -117s86 36 86 107z" />
    <glyph glyph-name="plusminus" unicode="&#xb1;" horiz-adv-x="501" 
d="M223 507h59v-155h164v-56h-164v-164h-59v164h-168v56h168v155zM55 25v56h391v-56h-391z" />
    <glyph glyph-name="twosuperior" unicode="&#xb2;" horiz-adv-x="333" 
d="M153 651c74 0 130 -39 130 -110c0 -77 -73 -127 -157 -200l-38 -33h214l-10 -58h-271v41l78 80c63 66 98 101 98 164c0 46 -27 69 -69 69c-32 0 -59 -11 -84 -30l-18 26c31 29 69 51 127 51z" />
    <glyph glyph-name="threesuperior" unicode="&#xb3;" horiz-adv-x="321" 
d="M138 605c-39 0 -65 -13 -86 -28l-19 30c34 27 74 44 127 44c69 0 121 -32 121 -94c0 -52 -39 -82 -92 -95c63 -7 101 -46 101 -98c0 -87 -89 -134 -188 -134c-30 0 -56 3 -76 9l-10 33c17 -4 44 -6 60 -6c74 0 131 37 131 101c0 54 -28 71 -76 71c-16 0 -23 -1 -33 -2v43
c10 -1 20 -1 31 -1c45 0 74 19 74 66c0 40 -25 61 -65 61z" />
    <glyph glyph-name="acute" unicode="&#xb4;" horiz-adv-x="392" 
d="M100 566l-20 34l179 153l53 -91z" />
    <glyph glyph-name="mu" unicode="&#xb5;" horiz-adv-x="541" 
d="M48 -199l-4 23c11 55 13 109 13 181v157c-1 126 -2 244 -6 325l76 14h22c0 -24 -1 -214 -1 -332c0 -101 37 -112 76 -112c47 0 98 28 131 64v368l68 12h23v-379c0 -45 6 -74 50 -74c10 0 17 1 31 3v-38c-23 -13 -50 -22 -83 -22c-48 0 -73 32 -84 81
c-34 -45 -87 -85 -148 -85c-24 0 -56 9 -71 27l-4 -2c7 -28 9 -91 9 -116l1 -81z" />
    <glyph glyph-name="paragraph" unicode="&#xb6;" horiz-adv-x="617" 
d="M507 582v-707h-55v767h-85v-767h-55v432h-77c-134 0 -215 39 -215 193c0 143 61 189 216 189h351v-31c-67 -2 -80 -19 -80 -76zM195 500c0 -103 15 -145 81 -145h36v287h-36c-66 0 -81 -25 -81 -142z" />
    <glyph glyph-name="periodcentered" unicode="&#xb7;" horiz-adv-x="291" 
d="M216 278c0 -41 -32 -75 -71 -75s-70 34 -70 75c0 42 31 74 70 74s71 -32 71 -74z" />
    <glyph glyph-name="cedilla" unicode="&#xb8;" horiz-adv-x="288" 
d="M233 -113c0 -55 -32 -85 -99 -85c-38 0 -62 12 -81 25l16 32c22 -14 40 -18 62 -18s40 6 40 36c0 26 -36 32 -70 33v21l23 80l37 -6l-13 -44c62 -4 85 -38 85 -74z" />
    <glyph glyph-name="onesuperior" unicode="&#xb9;" horiz-adv-x="314" 
d="M208 644v-323c0 -36 16 -40 85 -42v-29h-248v29c70 2 85 5 85 42v257c-26 -13 -63 -27 -90 -35l-9 28l120 73h57z" />
    <glyph glyph-name="ordmasculine" unicode="&#xba;" horiz-adv-x="397" 
d="M377 532c0 -121 -76 -193 -179 -193s-178 73 -178 196c0 124 75 198 177 198c115 0 180 -86 180 -201zM296 529c0 114 -34 163 -97 163c-72 0 -95 -57 -95 -148c0 -112 27 -164 97 -164c63 0 95 54 95 149z" />
    <glyph glyph-name="guillemotright" unicode="&#xbb;" horiz-adv-x="505" 
d="M241 67l113 177l-113 177l39 36l170 -213l-170 -213zM45 67l113 177l-113 177l39 36l170 -213l-170 -213z" />
    <glyph glyph-name="onequarter" unicode="&#xbc;" horiz-adv-x="908" 
d="M208 644v-323c0 -36 16 -40 85 -42v-29h-248v29c70 2 85 5 85 42v257c-26 -13 -63 -27 -90 -35l-9 28l120 73h57zM714 730l-487 -853h-54l487 853h54zM761 -21v112h-192v25l142 278h76l-154 -267h128c0 70 8 112 24 160l54 10v-170h52v-36h-52v-101z" />
    <glyph glyph-name="onehalf" unicode="&#xbd;" horiz-adv-x="909" 
d="M208 644v-323c0 -36 16 -40 85 -42v-29h-248v29c70 2 85 5 85 42v257c-26 -13 -63 -27 -90 -35l-9 28l120 73h57zM714 730l-487 -853h-54l487 853h54zM742 401c74 0 130 -39 130 -110c0 -77 -73 -127 -157 -200l-38 -33h214l-10 -58h-271v41l78 80c63 66 98 101 98 164
c0 46 -27 69 -69 69c-32 0 -59 -11 -84 -30l-18 26c31 29 69 51 127 51z" />
    <glyph glyph-name="threequarters" unicode="&#xbe;" horiz-adv-x="915" 
d="M138 605c-39 0 -65 -13 -86 -28l-19 30c34 27 74 44 127 44c69 0 121 -32 121 -94c0 -52 -39 -82 -92 -95c63 -7 101 -46 101 -98c0 -87 -89 -134 -188 -134c-30 0 -56 3 -76 9l-10 33c17 -4 44 -6 60 -6c74 0 131 37 131 101c0 54 -28 71 -76 71c-16 0 -23 -1 -33 -2v43
c10 -1 20 -1 31 -1c45 0 74 19 74 66c0 40 -25 61 -65 61zM721 730l-487 -853h-54l487 853h54zM768 -21v112h-192v25l142 278h76l-154 -267h128c0 70 8 112 24 160l54 10v-170h52v-36h-52v-101z" />
    <glyph glyph-name="questiondown" unicode="&#xbf;" horiz-adv-x="446" 
d="M183 450c0 40 32 73 71 73c38 0 68 -33 68 -73c0 -38 -30 -68 -68 -68s-71 30 -71 68zM402 -53v-90c-23 -17 -80 -47 -163 -47c-96 0 -171 41 -171 153c0 94 75 141 99 156c56 36 77 60 77 120c0 16 -3 38 -8 56h41c11 -19 24 -41 24 -80c0 -34 -11 -78 -57 -120
c-36 -33 -84 -63 -84 -143c0 -61 38 -96 89 -96c56 0 83 36 89 91h64z" />
    <glyph glyph-name="Agrave" unicode="&#xc0;" horiz-adv-x="657" 
d="M459 107l-33 108h-230l-33 -108c-4 -14 -6 -26 -6 -35c0 -29 22 -35 73 -37v-35h-214v35c48 4 64 19 86 86l184 568h89l182 -566c18 -56 32 -84 84 -88v-35h-245v35c48 2 68 13 68 42c0 10 -3 23 -5 30zM257 411l-46 -148h201l-45 148c-27 88 -45 161 -52 191h-4
c-11 -40 -26 -100 -54 -191zM443 761l-20 -34l-214 70l43 92z" />
    <glyph glyph-name="Aacute" unicode="&#xc1;" horiz-adv-x="657" 
d="M459 107l-33 108h-230l-33 -108c-4 -14 -6 -26 -6 -35c0 -29 22 -35 73 -37v-35h-214v35c48 4 64 19 86 86l184 568h89l182 -566c18 -56 32 -84 84 -88v-35h-245v35c48 2 68 13 68 42c0 10 -3 23 -5 30zM257 411l-46 -148h201l-45 148c-27 88 -45 161 -52 191h-4
c-11 -40 -26 -100 -54 -191zM231 727l-20 34l191 128l43 -92z" />
    <glyph glyph-name="Acircumflex" unicode="&#xc2;" horiz-adv-x="657" 
d="M459 107l-33 108h-230l-33 -108c-4 -14 -6 -26 -6 -35c0 -29 22 -35 73 -37v-35h-214v35c48 4 64 19 86 86l184 568h89l182 -566c18 -56 32 -84 84 -88v-35h-245v35c48 2 68 13 68 42c0 10 -3 23 -5 30zM257 411l-46 -148h201l-45 148c-27 88 -45 161 -52 191h-4
c-11 -40 -26 -100 -54 -191zM465 728l-137 81l-137 -81l-25 30l162 149l162 -149z" />
    <glyph glyph-name="Atilde" unicode="&#xc3;" horiz-adv-x="657" 
d="M459 107l-33 108h-230l-33 -108c-4 -14 -6 -26 -6 -35c0 -29 22 -35 73 -37v-35h-214v35c48 4 64 19 86 86l184 568h89l182 -566c18 -56 32 -84 84 -88v-35h-245v35c48 2 68 13 68 42c0 10 -3 23 -5 30zM257 411l-46 -148h201l-45 148c-27 88 -45 161 -52 191h-4
c-11 -40 -26 -100 -54 -191zM396 818c35 0 56 18 73 45l36 -14c-17 -51 -50 -95 -109 -95c-69 0 -95 44 -138 44c-38 0 -54 -20 -71 -47l-34 13c14 55 45 100 105 100c66 0 89 -46 138 -46z" />
    <glyph glyph-name="Adieresis" unicode="&#xc4;" horiz-adv-x="657" 
d="M459 107l-33 108h-230l-33 -108c-4 -14 -6 -26 -6 -35c0 -29 22 -35 73 -37v-35h-214v35c48 4 64 19 86 86l184 568h89l182 -566c18 -56 32 -84 84 -88v-35h-245v35c48 2 68 13 68 42c0 10 -3 23 -5 30zM257 411l-46 -148h201l-45 148c-27 88 -45 161 -52 191h-4
c-11 -40 -26 -100 -54 -191zM284 787c0 -34 -26 -60 -60 -60s-60 26 -60 60s26 60 60 60s60 -26 60 -60zM493 787c0 -34 -26 -60 -60 -60s-60 26 -60 60s26 60 60 60s60 -26 60 -60z" />
    <glyph glyph-name="Aring" unicode="&#xc5;" horiz-adv-x="657" 
d="M459 107l-33 108h-230l-33 -108c-4 -14 -6 -26 -6 -35c0 -29 22 -35 73 -37v-35h-214v35c48 4 64 19 86 86l184 568h89l182 -566c18 -56 32 -84 84 -88v-35h-245v35c48 2 68 13 68 42c0 10 -3 23 -5 30zM257 411l-46 -148h201l-45 148c-27 88 -45 161 -52 191h-4
c-11 -40 -26 -100 -54 -191zM328 719c-59 0 -101 44 -101 102s42 102 101 102c60 0 102 -44 102 -102s-42 -102 -102 -102zM328 888c-37 0 -61 -30 -61 -68c0 -36 24 -65 61 -65c38 0 62 29 62 65c0 38 -24 68 -62 68z" />
    <glyph glyph-name="AE" unicode="&#xc6;" horiz-adv-x="904" 
d="M109 105l253 476c7 13 11 25 11 35c0 23 -22 36 -73 38v35h546l10 -150h-42c-22 76 -38 101 -96 101h-167v-256h93c62 0 82 14 86 71h41v-190h-41c-4 54 -23 71 -85 71h-94v-287h168c77 0 96 23 104 116h45v-165h-492v35c67 2 80 19 80 76v134h-207l-77 -145
c-8 -15 -13 -27 -13 -36c0 -19 18 -27 57 -29v-35h-200v35c47 4 63 14 93 70zM457 643l-184 -350h183v164c0 83 3 140 5 186h-4z" />
    <glyph glyph-name="Ccedilla" unicode="&#xc7;" horiz-adv-x="577" 
d="M425 -113c0 -55 -32 -85 -99 -85c-38 0 -62 12 -81 25l16 32c22 -14 40 -18 62 -18s40 6 40 36c0 26 -36 32 -70 33v21l17 60c-183 15 -266 146 -266 348c0 230 119 362 296 362c109 0 161 -21 198 -47v-112h-70c-19 77 -48 112 -131 112c-115 0 -188 -81 -188 -313
c0 -240 76 -305 199 -305c79 0 115 30 130 108h65v-105c-35 -25 -95 -50 -195 -50l-8 -28c62 -4 85 -38 85 -74z" />
    <glyph glyph-name="Egrave" unicode="&#xc8;" horiz-adv-x="565" 
d="M37 0v35c67 2 80 19 80 76v467c0 57 -13 74 -80 76v35h470l10 -150h-42c-22 76 -38 101 -96 101h-167v-256h93c62 0 82 14 86 71h41v-190h-41c-4 54 -23 71 -85 71h-94v-287h168c77 0 96 23 104 116h45v-165h-492zM412 761l-20 -34l-214 70l43 92z" />
    <glyph glyph-name="Eacute" unicode="&#xc9;" horiz-adv-x="565" 
d="M37 0v35c67 2 80 19 80 76v467c0 57 -13 74 -80 76v35h470l10 -150h-42c-22 76 -38 101 -96 101h-167v-256h93c62 0 82 14 86 71h41v-190h-41c-4 54 -23 71 -85 71h-94v-287h168c77 0 96 23 104 116h45v-165h-492zM200 727l-20 34l191 128l43 -92z" />
    <glyph glyph-name="Ecircumflex" unicode="&#xca;" horiz-adv-x="565" 
d="M37 0v35c67 2 80 19 80 76v467c0 57 -13 74 -80 76v35h470l10 -150h-42c-22 76 -38 101 -96 101h-167v-256h93c62 0 82 14 86 71h41v-190h-41c-4 54 -23 71 -85 71h-94v-287h168c77 0 96 23 104 116h45v-165h-492zM434 728l-137 81l-137 -81l-25 30l162 149l162 -149z
" />
    <glyph glyph-name="Edieresis" unicode="&#xcb;" horiz-adv-x="565" 
d="M37 0v35c67 2 80 19 80 76v467c0 57 -13 74 -80 76v35h470l10 -150h-42c-22 76 -38 101 -96 101h-167v-256h93c62 0 82 14 86 71h41v-190h-41c-4 54 -23 71 -85 71h-94v-287h168c77 0 96 23 104 116h45v-165h-492zM253 787c0 -34 -26 -60 -60 -60s-60 26 -60 60
s26 60 60 60s60 -26 60 -60zM462 787c0 -34 -26 -60 -60 -60s-60 26 -60 60s26 60 60 60s60 -26 60 -60z" />
    <glyph glyph-name="Igrave" unicode="&#xcc;" horiz-adv-x="329" 
d="M117 111v467c0 57 -13 74 -80 76v35h255v-35c-67 -2 -80 -19 -80 -76v-467c0 -57 13 -74 80 -76v-35h-255v35c67 2 80 19 80 76zM279 761l-20 -34l-214 70l43 92z" />
    <glyph glyph-name="Iacute" unicode="&#xcd;" horiz-adv-x="329" 
d="M117 111v467c0 57 -13 74 -80 76v35h255v-35c-67 -2 -80 -19 -80 -76v-467c0 -57 13 -74 80 -76v-35h-255v35c67 2 80 19 80 76zM67 727l-20 34l191 128l43 -92z" />
    <glyph glyph-name="Icircumflex" unicode="&#xce;" horiz-adv-x="329" 
d="M117 111v467c0 57 -13 74 -80 76v35h255v-35c-67 -2 -80 -19 -80 -76v-467c0 -57 13 -74 80 -76v-35h-255v35c67 2 80 19 80 76zM301 728l-137 81l-137 -81l-25 30l162 149l162 -149z" />
    <glyph glyph-name="Idieresis" unicode="&#xcf;" horiz-adv-x="329" 
d="M117 111v467c0 57 -13 74 -80 76v35h255v-35c-67 -2 -80 -19 -80 -76v-467c0 -57 13 -74 80 -76v-35h-255v35c67 2 80 19 80 76zM120 787c0 -34 -26 -60 -60 -60s-60 26 -60 60s26 60 60 60s60 -26 60 -60zM329 787c0 -34 -26 -60 -60 -60s-60 26 -60 60s26 60 60 60
s60 -26 60 -60z" />
    <glyph glyph-name="Eth" unicode="&#xd0;" horiz-adv-x="670" 
d="M33 342v46h84v190c0 57 -13 74 -80 76v35h253c204 0 336 -105 336 -345c0 -199 -88 -344 -336 -344h-253v35c67 2 80 19 80 76v231h-84zM522 332c0 230 -76 310 -220 310h-87v-254h129v-46h-129v-291h85c149 0 222 57 222 281z" />
    <glyph glyph-name="Ntilde" unicode="&#xd1;" horiz-adv-x="685" 
d="M516 333v245c0 57 -13 74 -80 76v35h219v-35c-61 -2 -72 -19 -72 -76v-578h-71l-250 408c-55 89 -75 144 -84 170h-6c4 -27 12 -87 12 -184v-283c0 -57 13 -74 80 -76v-35h-227v35c67 2 80 19 80 76v467c0 57 -13 74 -80 76v35h162l255 -418c30 -49 58 -113 68 -145h6
c-5 30 -12 117 -12 207zM414 818c35 0 56 18 73 45l36 -14c-17 -51 -50 -95 -109 -95c-69 0 -95 44 -138 44c-38 0 -54 -20 -71 -47l-34 13c14 55 45 100 105 100c66 0 89 -46 138 -46z" />
    <glyph glyph-name="Ograve" unicode="&#xd2;" horiz-adv-x="674" 
d="M340 -11c-197 0 -296 151 -296 358c0 227 115 354 291 354c211 0 295 -169 295 -361c0 -211 -108 -351 -290 -351zM335 654c-132 0 -189 -101 -189 -296c0 -194 49 -324 194 -324c116 0 186 86 186 297c0 206 -51 323 -191 323zM452 761l-20 -34l-214 70l43 92z" />
    <glyph glyph-name="Oacute" unicode="&#xd3;" horiz-adv-x="674" 
d="M340 -11c-197 0 -296 151 -296 358c0 227 115 354 291 354c211 0 295 -169 295 -361c0 -211 -108 -351 -290 -351zM335 654c-132 0 -189 -101 -189 -296c0 -194 49 -324 194 -324c116 0 186 86 186 297c0 206 -51 323 -191 323zM240 727l-20 34l191 128l43 -92z" />
    <glyph glyph-name="Ocircumflex" unicode="&#xd4;" horiz-adv-x="674" 
d="M340 -11c-197 0 -296 151 -296 358c0 227 115 354 291 354c211 0 295 -169 295 -361c0 -211 -108 -351 -290 -351zM335 654c-132 0 -189 -101 -189 -296c0 -194 49 -324 194 -324c116 0 186 86 186 297c0 206 -51 323 -191 323zM474 728l-137 81l-137 -81l-25 30l162 149
l162 -149z" />
    <glyph glyph-name="Otilde" unicode="&#xd5;" horiz-adv-x="674" 
d="M340 -11c-197 0 -296 151 -296 358c0 227 115 354 291 354c211 0 295 -169 295 -361c0 -211 -108 -351 -290 -351zM335 654c-132 0 -189 -101 -189 -296c0 -194 49 -324 194 -324c116 0 186 86 186 297c0 206 -51 323 -191 323zM405 818c35 0 56 18 73 45l36 -14
c-17 -51 -50 -95 -109 -95c-69 0 -95 44 -138 44c-38 0 -54 -20 -71 -47l-34 13c14 55 45 100 105 100c66 0 89 -46 138 -46z" />
    <glyph glyph-name="Odieresis" unicode="&#xd6;" horiz-adv-x="674" 
d="M340 -11c-197 0 -296 151 -296 358c0 227 115 354 291 354c211 0 295 -169 295 -361c0 -211 -108 -351 -290 -351zM335 654c-132 0 -189 -101 -189 -296c0 -194 49 -324 194 -324c116 0 186 86 186 297c0 206 -51 323 -191 323zM293 787c0 -34 -26 -60 -60 -60
s-60 26 -60 60s26 60 60 60s60 -26 60 -60zM502 787c0 -34 -26 -60 -60 -60s-60 26 -60 60s26 60 60 60s60 -26 60 -60z" />
    <glyph glyph-name="multiply" unicode="&#xd7;" horiz-adv-x="505" 
d="M55 431l37 38l160 -160l160 160l38 -38l-160 -160l160 -159l-38 -38l-160 160l-160 -160l-37 38l159 159z" />
    <glyph glyph-name="Oslash" unicode="&#xd8;" horiz-adv-x="674" 
d="M585 726l-57 -95c71 -67 102 -175 102 -291c0 -211 -108 -351 -290 -351c-67 0 -122 17 -166 48l-58 -98l-40 22l62 106c-63 64 -94 163 -94 280c0 227 115 354 291 354c62 0 113 -15 154 -40l53 88zM526 331c0 98 -12 176 -39 231l-279 -469c30 -38 73 -59 132 -59
c116 0 186 86 186 297zM335 654c-132 0 -189 -101 -189 -296c0 -89 10 -164 35 -219l276 467c-30 31 -70 48 -122 48z" />
    <glyph glyph-name="Ugrave" unicode="&#xd9;" horiz-adv-x="684" 
d="M517 224v354c0 57 -13 74 -85 76v35h224v-35c-61 -2 -72 -19 -72 -76v-354c0 -165 -83 -235 -234 -235c-166 0 -247 79 -247 228v361c0 57 -13 74 -75 76v35h255v-35c-72 -2 -85 -19 -85 -76v-339c0 -133 37 -190 166 -190c111 0 153 51 153 175zM471 761l-20 -34
l-214 70l43 92z" />
    <glyph glyph-name="Uacute" unicode="&#xda;" horiz-adv-x="684" 
d="M517 224v354c0 57 -13 74 -85 76v35h224v-35c-61 -2 -72 -19 -72 -76v-354c0 -165 -83 -235 -234 -235c-166 0 -247 79 -247 228v361c0 57 -13 74 -75 76v35h255v-35c-72 -2 -85 -19 -85 -76v-339c0 -133 37 -190 166 -190c111 0 153 51 153 175zM259 727l-20 34l191 128
l43 -92z" />
    <glyph glyph-name="Ucircumflex" unicode="&#xdb;" horiz-adv-x="684" 
d="M517 224v354c0 57 -13 74 -85 76v35h224v-35c-61 -2 -72 -19 -72 -76v-354c0 -165 -83 -235 -234 -235c-166 0 -247 79 -247 228v361c0 57 -13 74 -75 76v35h255v-35c-72 -2 -85 -19 -85 -76v-339c0 -133 37 -190 166 -190c111 0 153 51 153 175zM493 728l-137 81
l-137 -81l-25 30l162 149l162 -149z" />
    <glyph glyph-name="Udieresis" unicode="&#xdc;" horiz-adv-x="684" 
d="M517 224v354c0 57 -13 74 -85 76v35h224v-35c-61 -2 -72 -19 -72 -76v-354c0 -165 -83 -235 -234 -235c-166 0 -247 79 -247 228v361c0 57 -13 74 -75 76v35h255v-35c-72 -2 -85 -19 -85 -76v-339c0 -133 37 -190 166 -190c111 0 153 51 153 175zM312 787
c0 -34 -26 -60 -60 -60s-60 26 -60 60s26 60 60 60s60 -26 60 -60zM521 787c0 -34 -26 -60 -60 -60s-60 26 -60 60s26 60 60 60s60 -26 60 -60z" />
    <glyph glyph-name="Yacute" unicode="&#xdd;" horiz-adv-x="594" 
d="M319 345h4l108 234c8 18 12 31 12 43c0 23 -21 30 -59 32v35h199v-35c-40 -5 -60 -19 -97 -93l-137 -279v-171c0 -57 15 -74 85 -76v-35h-265v35c70 2 85 19 85 76v165l-149 296c-32 64 -55 77 -94 82v35h238v-35c-38 -1 -53 -10 -53 -30c0 -13 5 -27 14 -47zM214 727
l-20 34l191 128l43 -92z" />
    <glyph glyph-name="Thorn" unicode="&#xde;" horiz-adv-x="577" 
d="M447 357c0 112 -31 152 -155 152h-80v-290h98c99 0 137 39 137 138zM212 578v-21h87c189 0 250 -76 250 -190c0 -131 -81 -195 -233 -195h-104v-58c0 -59 16 -77 88 -79v-35h-263v35c67 2 80 19 80 76v467c0 57 -13 74 -80 76v35h255v-35c-67 -2 -80 -19 -80 -76z" />
    <glyph glyph-name="germandbls" unicode="&#xdf;" horiz-adv-x="585" 
d="M98 491v46c0 128 93 191 209 191c108 0 188 -53 188 -138c0 -76 -54 -108 -124 -147c-18 -10 -30 -18 -30 -29c0 -10 11 -19 24 -26c106 -57 194 -122 194 -232c0 -95 -68 -165 -180 -165c-67 0 -112 20 -142 43l23 44c37 -23 69 -37 117 -37c57 0 84 38 84 104
c0 93 -49 134 -122 187c-45 32 -64 46 -64 76c0 28 14 40 61 70c46 29 66 58 66 107c0 71 -36 96 -99 96c-83 0 -113 -53 -113 -154v-527h-161v34c57 4 70 13 70 70v332h-63v32z" />
    <glyph glyph-name="agrave" unicode="&#xe0;" horiz-adv-x="512" 
d="M420 131c0 -75 9 -88 74 -93v-33c-15 -6 -43 -11 -69 -11c-71 0 -86 29 -91 71c-17 -30 -62 -80 -137 -80c-96 0 -161 51 -161 143c0 120 105 161 262 161c12 0 22 0 35 -1v44c0 86 -20 124 -91 124c-84 0 -108 -44 -116 -90h-63v89c42 23 119 51 187 51
c112 0 174 -51 174 -168c0 -30 -4 -116 -4 -207zM331 240c-14 1 -22 2 -35 2c-114 0 -163 -31 -163 -107c0 -71 28 -93 86 -93c47 0 86 33 109 73zM344 600l-20 -34l-212 96l53 91z" />
    <glyph glyph-name="aacute" unicode="&#xe1;" horiz-adv-x="512" 
d="M420 131c0 -75 9 -88 74 -93v-33c-15 -6 -43 -11 -69 -11c-71 0 -86 29 -91 71c-17 -30 -62 -80 -137 -80c-96 0 -161 51 -161 143c0 120 105 161 262 161c12 0 22 0 35 -1v44c0 86 -20 124 -91 124c-84 0 -108 -44 -116 -90h-63v89c42 23 119 51 187 51
c112 0 174 -51 174 -168c0 -30 -4 -116 -4 -207zM331 240c-14 1 -22 2 -35 2c-114 0 -163 -31 -163 -107c0 -71 28 -93 86 -93c47 0 86 33 109 73zM148 566l-20 34l179 153l53 -91z" />
    <glyph glyph-name="acircumflex" unicode="&#xe2;" horiz-adv-x="512" 
d="M420 131c0 -75 9 -88 74 -93v-33c-15 -6 -43 -11 -69 -11c-71 0 -86 29 -91 71c-17 -30 -62 -80 -137 -80c-96 0 -161 51 -161 143c0 120 105 161 262 161c12 0 22 0 35 -1v44c0 86 -20 124 -91 124c-84 0 -108 -44 -116 -90h-63v89c42 23 119 51 187 51
c112 0 174 -51 174 -168c0 -30 -4 -116 -4 -207zM331 240c-14 1 -22 2 -35 2c-114 0 -163 -31 -163 -107c0 -71 28 -93 86 -93c47 0 86 33 109 73zM381 564l-137 85l-137 -85l-25 30l162 153l162 -153z" />
    <glyph glyph-name="atilde" unicode="&#xe3;" horiz-adv-x="512" 
d="M420 131c0 -75 9 -88 74 -93v-33c-15 -6 -43 -11 -69 -11c-71 0 -86 29 -91 71c-17 -30 -62 -80 -137 -80c-96 0 -161 51 -161 143c0 120 105 161 262 161c12 0 22 0 35 -1v44c0 86 -20 124 -91 124c-84 0 -108 -44 -116 -90h-63v89c42 23 119 51 187 51
c112 0 174 -51 174 -168c0 -30 -4 -116 -4 -207zM331 240c-14 1 -22 2 -35 2c-114 0 -163 -31 -163 -107c0 -71 28 -93 86 -93c47 0 86 33 109 73zM299 669c32 0 51 15 66 42l35 -15c-15 -51 -48 -101 -101 -101c-54 0 -88 29 -124 29c-34 0 -49 -17 -64 -44l-33 14
c12 55 43 106 97 106s83 -31 124 -31z" />
    <glyph glyph-name="adieresis" unicode="&#xe4;" horiz-adv-x="512" 
d="M420 131c0 -75 9 -88 74 -93v-33c-15 -6 -43 -11 -69 -11c-71 0 -86 29 -91 71c-17 -30 -62 -80 -137 -80c-96 0 -161 51 -161 143c0 120 105 161 262 161c12 0 22 0 35 -1v44c0 86 -20 124 -91 124c-84 0 -108 -44 -116 -90h-63v89c42 23 119 51 187 51
c112 0 174 -51 174 -168c0 -30 -4 -116 -4 -207zM331 240c-14 1 -22 2 -35 2c-114 0 -163 -31 -163 -107c0 -71 28 -93 86 -93c47 0 86 33 109 73zM199 638c0 -34 -26 -60 -60 -60s-60 26 -60 60s26 60 60 60s60 -26 60 -60zM408 638c0 -34 -26 -60 -60 -60s-60 26 -60 60
s26 60 60 60s60 -26 60 -60z" />
    <glyph glyph-name="aring" unicode="&#xe5;" horiz-adv-x="512" 
d="M420 131c0 -75 9 -88 74 -93v-33c-15 -6 -43 -11 -69 -11c-71 0 -86 29 -91 71c-17 -30 -62 -80 -137 -80c-96 0 -161 51 -161 143c0 120 105 161 262 161c12 0 22 0 35 -1v44c0 86 -20 124 -91 124c-84 0 -108 -44 -116 -90h-63v89c42 23 119 51 187 51
c112 0 174 -51 174 -168c0 -30 -4 -116 -4 -207zM331 240c-14 1 -22 2 -35 2c-114 0 -163 -31 -163 -107c0 -71 28 -93 86 -93c47 0 86 33 109 73zM243 560c-59 0 -101 44 -101 102s42 102 101 102c60 0 102 -44 102 -102s-42 -102 -102 -102zM243 729
c-37 0 -61 -30 -61 -68c0 -36 24 -65 61 -65c38 0 62 29 62 65c0 38 -24 68 -62 68z" />
    <glyph glyph-name="ae" unicode="&#xe6;" horiz-adv-x="770" 
d="M390 446c38 39 90 61 148 61c126 0 200 -87 200 -239v-27h-319c2 -145 52 -192 157 -192c43 0 98 19 133 42l21 -34c-48 -37 -107 -68 -178 -68c-79 0 -141 29 -180 83c-33 -49 -88 -83 -175 -83c-96 0 -161 47 -161 139c0 120 105 162 262 162h29v46
c-1 83 -16 120 -85 120c-84 0 -108 -44 -116 -90h-63v89c42 23 119 51 187 51s114 -19 140 -60zM536 459c-68 0 -109 -41 -116 -169h223c0 122 -31 169 -107 169zM219 49c52 0 93 24 126 72c-14 34 -18 74 -19 120h-30c-114 0 -163 -30 -163 -106c0 -71 42 -86 86 -86z" />
    <glyph glyph-name="ccedilla" unicode="&#xe7;" horiz-adv-x="463" 
d="M229 -198c-38 0 -62 12 -81 25l16 32c22 -14 40 -18 62 -18s40 6 40 36c0 26 -36 32 -70 33v21l18 62c-101 18 -178 98 -178 245c0 173 99 265 229 265c77 0 125 -22 150 -39v-92h-68c-10 59 -29 85 -84 85c-76 0 -128 -50 -128 -199c0 -160 46 -214 139 -214
c60 0 89 19 133 55l26 -28c-44 -50 -100 -82 -173 -82h-9l-8 -28c62 -4 85 -38 85 -74c0 -55 -32 -85 -99 -85z" />
    <glyph glyph-name="egrave" unicode="&#xe8;" horiz-adv-x="483" 
d="M289 49c43 0 98 19 133 42l21 -34c-48 -37 -107 -68 -178 -68c-143 0 -229 96 -229 260c0 163 92 258 215 258c126 0 200 -87 200 -239v-27h-319c2 -145 52 -192 157 -192zM249 459c-68 0 -109 -41 -116 -169h223c0 122 -31 169 -107 169zM356 600l-20 -34l-212 96l53 91
z" />
    <glyph glyph-name="eacute" unicode="&#xe9;" horiz-adv-x="483" 
d="M289 49c43 0 98 19 133 42l21 -34c-48 -37 -107 -68 -178 -68c-143 0 -229 96 -229 260c0 163 92 258 215 258c126 0 200 -87 200 -239v-27h-319c2 -145 52 -192 157 -192zM249 459c-68 0 -109 -41 -116 -169h223c0 122 -31 169 -107 169zM159 566l-20 34l179 153l53 -91
z" />
    <glyph glyph-name="ecircumflex" unicode="&#xea;" horiz-adv-x="483" 
d="M289 49c43 0 98 19 133 42l21 -34c-48 -37 -107 -68 -178 -68c-143 0 -229 96 -229 260c0 163 92 258 215 258c126 0 200 -87 200 -239v-27h-319c2 -145 52 -192 157 -192zM249 459c-68 0 -109 -41 -116 -169h223c0 122 -31 169 -107 169zM386 564l-137 85l-137 -85
l-25 30l162 153l162 -153z" />
    <glyph glyph-name="edieresis" unicode="&#xeb;" horiz-adv-x="483" 
d="M289 49c43 0 98 19 133 42l21 -34c-48 -37 -107 -68 -178 -68c-143 0 -229 96 -229 260c0 163 92 258 215 258c126 0 200 -87 200 -239v-27h-319c2 -145 52 -192 157 -192zM249 459c-68 0 -109 -41 -116 -169h223c0 122 -31 169 -107 169zM205 638c0 -34 -26 -60 -60 -60
s-60 26 -60 60s26 60 60 60s60 -26 60 -60zM414 638c0 -34 -26 -60 -60 -60s-60 26 -60 60s26 60 60 60s60 -26 60 -60z" />
    <glyph glyph-name="igrave" unicode="&#xec;" horiz-adv-x="286" 
d="M260 0h-231v34c57 4 70 13 70 70v245c0 73 -14 83 -73 85v30l149 40h15v-400c0 -57 7 -67 70 -70v-34zM246 600l-20 -34l-212 96l53 91z" />
    <glyph glyph-name="iacute" unicode="&#xed;" horiz-adv-x="286" 
d="M260 0h-231v34c57 4 70 13 70 70v245c0 73 -14 83 -73 85v30l149 40h15v-400c0 -57 7 -67 70 -70v-34zM47 566l-20 34l179 153l53 -91z" />
    <glyph glyph-name="icircumflex" unicode="&#xee;" horiz-adv-x="286" 
d="M260 0h-231v34c57 4 70 13 70 70v245c0 73 -14 83 -73 85v30l149 40h15v-400c0 -57 7 -67 70 -70v-34zM279 564l-137 85l-137 -85l-25 30l162 153l162 -153z" />
    <glyph glyph-name="idieresis" unicode="&#xef;" horiz-adv-x="286" 
d="M260 0h-231v34c57 4 70 13 70 70v245c0 73 -14 83 -73 85v30l149 40h15v-400c0 -57 7 -67 70 -70v-34zM99 638c0 -34 -26 -60 -60 -60s-60 26 -60 60s26 60 60 60s60 -26 60 -60zM308 638c0 -34 -26 -60 -60 -60s-60 26 -60 60s26 60 60 60s60 -26 60 -60z" />
    <glyph glyph-name="eth" unicode="&#xf0;" horiz-adv-x="535" 
d="M125 534l-17 39l122 50c-36 23 -80 42 -133 58l15 37c68 -16 131 -38 184 -68l127 51l17 -38l-100 -41c97 -71 156 -181 156 -359c0 -180 -97 -275 -230 -275c-134 0 -230 103 -230 258c0 164 106 259 234 259c29 0 61 -9 87 -24c-20 42 -48 80 -86 112zM398 253
c0 60 -5 117 -19 169c-35 21 -67 34 -103 34c-100 0 -142 -77 -142 -208c0 -133 36 -211 134 -211c86 0 130 76 130 216z" />
    <glyph glyph-name="ntilde" unicode="&#xf1;" horiz-adv-x="583" 
d="M492 369v-265c0 -57 12 -66 65 -70v-34h-226v34c63 3 70 14 70 63v254c0 59 -25 82 -73 82c-60 0 -98 -24 -138 -63v-273c0 -49 7 -60 70 -63v-34h-231v34c57 4 70 13 70 70v245c0 73 -14 83 -73 85v30l128 40h15c7 -16 16 -52 17 -87c45 47 95 86 171 86
c80 0 135 -47 135 -134zM352 669c32 0 51 15 66 42l35 -15c-15 -51 -48 -101 -101 -101c-54 0 -88 29 -124 29c-34 0 -49 -17 -64 -44l-33 14c12 55 43 106 97 106s83 -31 124 -31z" />
    <glyph glyph-name="ograve" unicode="&#xf2;" horiz-adv-x="532" 
d="M496 242c0 -159 -97 -254 -230 -254c-134 0 -230 96 -230 259c0 162 96 259 228 259c148 0 232 -113 232 -264zM398 238c0 153 -47 219 -134 219c-100 0 -130 -76 -130 -200c0 -151 36 -220 134 -220c86 0 130 72 130 201zM368 600l-20 -34l-212 96l53 91z" />
    <glyph glyph-name="oacute" unicode="&#xf3;" horiz-adv-x="532" 
d="M496 242c0 -159 -97 -254 -230 -254c-134 0 -230 96 -230 259c0 162 96 259 228 259c148 0 232 -113 232 -264zM398 238c0 153 -47 219 -134 219c-100 0 -130 -76 -130 -200c0 -151 36 -220 134 -220c86 0 130 72 130 201zM170 566l-20 34l179 153l53 -91z" />
    <glyph glyph-name="ocircumflex" unicode="&#xf4;" horiz-adv-x="532" 
d="M496 242c0 -159 -97 -254 -230 -254c-134 0 -230 96 -230 259c0 162 96 259 228 259c148 0 232 -113 232 -264zM398 238c0 153 -47 219 -134 219c-100 0 -130 -76 -130 -200c0 -151 36 -220 134 -220c86 0 130 72 130 201zM402 564l-137 85l-137 -85l-25 30l162 153
l162 -153z" />
    <glyph glyph-name="otilde" unicode="&#xf5;" horiz-adv-x="532" 
d="M496 242c0 -159 -97 -254 -230 -254c-134 0 -230 96 -230 259c0 162 96 259 228 259c148 0 232 -113 232 -264zM398 238c0 153 -47 219 -134 219c-100 0 -130 -76 -130 -200c0 -151 36 -220 134 -220c86 0 130 72 130 201zM329 669c32 0 51 15 66 42l35 -15
c-15 -51 -48 -101 -101 -101c-54 0 -88 29 -124 29c-34 0 -49 -17 -64 -44l-33 14c12 55 43 106 97 106s83 -31 124 -31z" />
    <glyph glyph-name="odieresis" unicode="&#xf6;" horiz-adv-x="532" 
d="M496 242c0 -159 -97 -254 -230 -254c-134 0 -230 96 -230 259c0 162 96 259 228 259c148 0 232 -113 232 -264zM398 238c0 153 -47 219 -134 219c-100 0 -130 -76 -130 -200c0 -151 36 -220 134 -220c86 0 130 72 130 201zM222 638c0 -34 -26 -60 -60 -60s-60 26 -60 60
s26 60 60 60s60 -26 60 -60zM431 638c0 -34 -26 -60 -60 -60s-60 26 -60 60s26 60 60 60s60 -26 60 -60z" />
    <glyph glyph-name="divide" unicode="&#xf7;" horiz-adv-x="615" 
d="M372 482c0 -38 -29 -67 -64 -67c-36 0 -64 28 -64 65c0 36 28 66 64 66c35 0 64 -29 64 -64zM55 245v53h505v-53h-505zM372 56c0 -38 -29 -67 -64 -67c-36 0 -64 28 -64 65c0 36 28 66 64 66c35 0 64 -29 64 -64z" />
    <glyph glyph-name="oslash" unicode="&#xf8;" horiz-adv-x="532" 
d="M468 539l-53 -88c53 -47 81 -122 81 -209c0 -159 -97 -254 -230 -254c-42 0 -81 10 -114 27l-52 -87l-37 22l54 90c-51 44 -81 115 -81 207c0 162 96 259 228 259c44 0 82 -10 114 -28l50 84zM134 257c0 -65 6 -115 22 -151l191 320c-22 21 -50 31 -83 31
c-100 0 -130 -76 -130 -200zM398 238c0 63 -8 111 -24 146l-191 -318c20 -20 48 -29 85 -29c86 0 130 72 130 201z" />
    <glyph glyph-name="ugrave" unicode="&#xf9;" horiz-adv-x="580" 
d="M481 504v-366c0 -73 14 -83 73 -85v-30l-121 -36h-15c-11 27 -19 56 -22 89c-45 -48 -91 -88 -167 -88c-80 0 -138 42 -138 133v228c0 73 -15 83 -70 85v30l139 40h22v-366c0 -62 27 -81 75 -81c60 0 93 25 133 64v228c0 73 -15 83 -70 85v30l139 40h22zM390 600l-20 -34
l-212 96l53 91z" />
    <glyph glyph-name="uacute" unicode="&#xfa;" horiz-adv-x="580" 
d="M481 504v-366c0 -73 14 -83 73 -85v-30l-121 -36h-15c-11 27 -19 56 -22 89c-45 -48 -91 -88 -167 -88c-80 0 -138 42 -138 133v228c0 73 -15 83 -70 85v30l139 40h22v-366c0 -62 27 -81 75 -81c60 0 93 25 133 64v228c0 73 -15 83 -70 85v30l139 40h22zM191 566l-20 34
l179 153l53 -91z" />
    <glyph glyph-name="ucircumflex" unicode="&#xfb;" horiz-adv-x="580" 
d="M481 504v-366c0 -73 14 -83 73 -85v-30l-121 -36h-15c-11 27 -19 56 -22 89c-45 -48 -91 -88 -167 -88c-80 0 -138 42 -138 133v228c0 73 -15 83 -70 85v30l139 40h22v-366c0 -62 27 -81 75 -81c60 0 93 25 133 64v228c0 73 -15 83 -70 85v30l139 40h22zM423 564l-137 85
l-137 -85l-25 30l162 153l162 -153z" />
    <glyph glyph-name="udieresis" unicode="&#xfc;" horiz-adv-x="580" 
d="M481 504v-366c0 -73 14 -83 73 -85v-30l-121 -36h-15c-11 27 -19 56 -22 89c-45 -48 -91 -88 -167 -88c-80 0 -138 42 -138 133v228c0 73 -15 83 -70 85v30l139 40h22v-366c0 -62 27 -81 75 -81c60 0 93 25 133 64v228c0 73 -15 83 -70 85v30l139 40h22zM243 638
c0 -34 -26 -60 -60 -60s-60 26 -60 60s26 60 60 60s60 -26 60 -60zM452 638c0 -34 -26 -60 -60 -60s-60 26 -60 60s26 60 60 60s60 -26 60 -60z" />
    <glyph glyph-name="yacute" unicode="&#xfd;" horiz-adv-x="505" 
d="M105 -213l-24 69c76 19 128 40 159 146l-36 -5c-13 52 -28 105 -52 172l-80 218c-19 51 -34 65 -73 70v34h222v-34c-49 -2 -64 -11 -64 -31c0 -7 3 -16 7 -28l72 -202c21 -60 31 -110 35 -132h3c3 16 11 56 29 111l72 223c3 9 5 17 6 23c3 24 -9 34 -63 36v34h188v-34
c-40 -5 -54 -16 -73 -70l-140 -403c-42 -121 -89 -177 -188 -197zM175 566l-20 34l179 153l53 -91z" />
    <glyph glyph-name="thorn" unicode="&#xfe;" horiz-adv-x="556" 
d="M422 236c0 154 -33 203 -114 203c-47 0 -90 -20 -130 -64v-271c31 -38 79 -60 117 -60c83 0 127 40 127 192zM7 701l144 29h15c7 -20 12 -60 12 -99v-206c37 48 87 78 152 78c106 0 190 -76 190 -248c0 -156 -72 -260 -204 -260c-51 0 -100 17 -138 57v-145
c0 -54 10 -66 78 -69v-34h-239v34c57 4 70 13 70 70v676c0 73 -17 83 -80 85v32z" />
    <glyph glyph-name="ydieresis" unicode="&#xff;" horiz-adv-x="505" 
d="M105 -213l-24 69c76 19 128 40 159 146l-36 -5c-13 52 -28 105 -52 172l-80 218c-19 51 -34 65 -73 70v34h222v-34c-49 -2 -64 -11 -64 -31c0 -7 3 -16 7 -28l72 -202c21 -60 31 -110 35 -132h3c3 16 11 56 29 111l72 223c3 9 5 17 6 23c3 24 -9 34 -63 36v34h188v-34
c-40 -5 -54 -16 -73 -70l-140 -403c-42 -121 -89 -177 -188 -197zM226 638c0 -34 -26 -60 -60 -60s-60 26 -60 60s26 60 60 60s60 -26 60 -60zM435 638c0 -34 -26 -60 -60 -60s-60 26 -60 60s26 60 60 60s60 -26 60 -60z" />
    <glyph glyph-name="Amacron" unicode="&#x100;" horiz-adv-x="657" 
d="M459 107l-33 108h-230l-33 -108c-4 -14 -6 -26 -6 -35c0 -29 22 -35 73 -37v-35h-214v35c48 4 64 19 86 86l184 568h89l182 -566c18 -56 32 -84 84 -88v-35h-245v35c48 2 68 13 68 42c0 10 -3 23 -5 30zM257 411l-46 -148h201l-45 148c-27 88 -45 161 -52 191h-4
c-11 -40 -26 -100 -54 -191zM469 769h-281v57h281v-57z" />
    <glyph glyph-name="amacron" unicode="&#x101;" horiz-adv-x="512" 
d="M420 131c0 -75 9 -88 74 -93v-33c-15 -6 -43 -11 -69 -11c-71 0 -86 29 -91 71c-17 -30 -62 -80 -137 -80c-96 0 -161 51 -161 143c0 120 105 161 262 161c12 0 22 0 35 -1v44c0 86 -20 124 -91 124c-84 0 -108 -44 -116 -90h-63v89c42 23 119 51 187 51
c112 0 174 -51 174 -168c0 -30 -4 -116 -4 -207zM331 240c-14 1 -22 2 -35 2c-114 0 -163 -31 -163 -107c0 -71 28 -93 86 -93c47 0 86 33 109 73zM383 590h-281v57h281v-57z" />
    <glyph glyph-name="Abreve" unicode="&#x102;" horiz-adv-x="657" 
d="M459 107l-33 108h-230l-33 -108c-4 -14 -6 -26 -6 -35c0 -29 22 -35 73 -37v-35h-214v35c48 4 64 19 86 86l184 568h89l182 -566c18 -56 32 -84 84 -88v-35h-245v35c48 2 68 13 68 42c0 10 -3 23 -5 30zM257 411l-46 -148h201l-45 148c-27 88 -45 161 -52 191h-4
c-11 -40 -26 -100 -54 -191zM328 741c-75 0 -142 71 -166 133l31 26c40 -48 78 -81 135 -81s95 33 135 81l31 -26c-24 -62 -91 -133 -166 -133z" />
    <glyph glyph-name="abreve" unicode="&#x103;" horiz-adv-x="512" 
d="M420 131c0 -75 9 -88 74 -93v-33c-15 -6 -43 -11 -69 -11c-71 0 -86 29 -91 71c-17 -30 -62 -80 -137 -80c-96 0 -161 51 -161 143c0 120 105 161 262 161c12 0 22 0 35 -1v44c0 86 -20 124 -91 124c-84 0 -108 -44 -116 -90h-63v89c42 23 119 51 187 51
c112 0 174 -51 174 -168c0 -30 -4 -116 -4 -207zM331 240c-14 1 -22 2 -35 2c-114 0 -163 -31 -163 -107c0 -71 28 -93 86 -93c47 0 86 33 109 73zM246 567c-72 0 -131 73 -152 135l31 22c32 -48 68 -79 119 -79s86 31 119 79l32 -22c-21 -62 -78 -135 -149 -135z" />
    <glyph glyph-name="Aogonek" unicode="&#x104;" horiz-adv-x="657" 
d="M467 -144l16 -24c-24 -23 -53 -37 -95 -37c-63 0 -98 35 -98 86c0 74 77 118 137 149c28 14 37 29 37 48c0 9 -2 18 -5 29l-33 108h-230l-33 -108c-4 -14 -6 -26 -6 -35c0 -29 22 -35 73 -37v-35h-214v35c48 4 64 19 86 86l184 568h89l182 -566c18 -56 32 -84 84 -88v-35
h-160c-69 0 -111 -49 -111 -105c0 -31 17 -52 44 -52c18 0 31 2 53 13zM257 411l-46 -148h201l-45 148c-27 88 -45 161 -52 191h-4c-11 -40 -26 -100 -54 -191z" />
    <glyph glyph-name="aogonek" unicode="&#x105;" horiz-adv-x="512" 
d="M488 -144l16 -24c-24 -23 -53 -37 -95 -37c-63 0 -98 35 -98 86c0 46 29 85 81 116c-43 7 -54 33 -58 68c-17 -30 -62 -80 -137 -80c-96 0 -161 51 -161 143c0 120 105 161 262 161c12 0 22 0 35 -1v44c0 86 -20 124 -91 124c-84 0 -108 -44 -116 -90h-63v89
c42 23 119 51 187 51c112 0 174 -51 174 -168c0 -30 -4 -116 -4 -207c0 -75 9 -88 74 -93v-33c-81 -16 -103 -63 -103 -110c0 -31 17 -52 44 -52c18 0 31 2 53 13zM331 240c-14 1 -22 2 -35 2c-114 0 -163 -31 -163 -107c0 -71 28 -93 86 -93c47 0 86 33 109 73z" />
    <glyph glyph-name="Cacute" unicode="&#x106;" horiz-adv-x="577" 
d="M348 -11c-209 0 -304 135 -304 350c0 230 119 362 296 362c109 0 161 -21 198 -47v-112h-70c-19 77 -48 112 -131 112c-115 0 -188 -81 -188 -313c0 -240 76 -305 199 -305c79 0 115 30 130 108h65v-105c-35 -25 -95 -50 -195 -50zM238 727l-20 34l191 128l43 -92z" />
    <glyph glyph-name="cacute" unicode="&#x107;" horiz-adv-x="463" 
d="M415 464v-92h-68c-10 59 -29 85 -84 85c-76 0 -128 -50 -128 -199c0 -160 46 -214 139 -214c60 0 89 19 133 55l26 -28c-44 -50 -100 -82 -173 -82c-123 0 -224 81 -224 249c0 173 99 265 229 265c77 0 125 -22 150 -39zM172 566l-20 34l179 153l53 -91z" />
    <glyph glyph-name="Ccircumflex" unicode="&#x108;" horiz-adv-x="577" 
d="M348 -11c-209 0 -304 135 -304 350c0 230 119 362 296 362c109 0 161 -21 198 -47v-112h-70c-19 77 -48 112 -131 112c-115 0 -188 -81 -188 -313c0 -240 76 -305 199 -305c79 0 115 30 130 108h65v-105c-35 -25 -95 -50 -195 -50zM472 728l-137 81l-137 -81l-25 30
l162 149l162 -149z" />
    <glyph glyph-name="ccircumflex" unicode="&#x109;" horiz-adv-x="463" 
d="M415 464v-92h-68c-10 59 -29 85 -84 85c-76 0 -128 -50 -128 -199c0 -160 46 -214 139 -214c60 0 89 19 133 55l26 -28c-44 -50 -100 -82 -173 -82c-123 0 -224 81 -224 249c0 173 99 265 229 265c77 0 125 -22 150 -39zM395 564l-137 85l-137 -85l-25 30l162 153
l162 -153z" />
    <glyph glyph-name="Cdotaccent" unicode="&#x10a;" horiz-adv-x="577" 
d="M348 -11c-209 0 -304 135 -304 350c0 230 119 362 296 362c109 0 161 -21 198 -47v-112h-70c-19 77 -48 112 -131 112c-115 0 -188 -81 -188 -313c0 -240 76 -305 199 -305c79 0 115 30 130 108h65v-105c-35 -25 -95 -50 -195 -50zM396 808c0 -35 -27 -63 -62 -63
s-62 28 -62 63s27 63 62 63s62 -28 62 -63z" />
    <glyph glyph-name="cdotaccent" unicode="&#x10b;" horiz-adv-x="463" 
d="M415 464v-92h-68c-10 59 -29 85 -84 85c-76 0 -128 -50 -128 -199c0 -160 46 -214 139 -214c60 0 89 19 133 55l26 -28c-44 -50 -100 -82 -173 -82c-123 0 -224 81 -224 249c0 173 99 265 229 265c77 0 125 -22 150 -39zM319 644c0 -35 -27 -63 -62 -63s-62 28 -62 63
s27 63 62 63s62 -28 62 -63z" />
    <glyph glyph-name="Ccaron" unicode="&#x10c;" horiz-adv-x="577" 
d="M348 -11c-209 0 -304 135 -304 350c0 230 119 362 296 362c109 0 161 -21 198 -47v-112h-70c-19 77 -48 112 -131 112c-115 0 -188 -81 -188 -313c0 -240 76 -305 199 -305c79 0 115 30 130 108h65v-105c-35 -25 -95 -50 -195 -50zM335 826l137 81l25 -30l-162 -149
l-162 149l25 30z" />
    <glyph glyph-name="ccaron" unicode="&#x10d;" horiz-adv-x="463" 
d="M415 464v-92h-68c-10 59 -29 85 -84 85c-76 0 -128 -50 -128 -199c0 -160 46 -214 139 -214c60 0 89 19 133 55l26 -28c-44 -50 -100 -82 -173 -82c-123 0 -224 81 -224 249c0 173 99 265 229 265c77 0 125 -22 150 -39zM259 645l137 85l25 -30l-162 -153l-162 153l25 30
z" />
    <glyph glyph-name="Dcaron" unicode="&#x10e;" horiz-adv-x="670" 
d="M37 0v35c67 2 80 19 80 76v467c0 57 -13 74 -80 76v35h253c204 0 336 -105 336 -345c0 -199 -88 -344 -336 -344h-253zM215 51h85c149 0 222 57 222 281c0 230 -76 310 -220 310h-87v-591zM313 826l137 81l25 -30l-162 -149l-162 149l25 30z" />
    <glyph glyph-name="dcaron" unicode="&#x10f;" horiz-adv-x="567" 
d="M383 74c-38 -49 -97 -84 -150 -84c-102 0 -197 69 -197 251c0 156 77 262 205 262c50 0 99 -20 136 -60v141c0 73 -17 83 -76 85v32l146 29h21v-592c0 -73 15 -83 79 -85v-30l-127 -36h-15c-6 12 -19 47 -22 87zM134 253c0 -155 36 -207 115 -207c45 0 88 28 128 72v271
c-31 38 -79 57 -121 57c-76 0 -122 -37 -122 -193zM626 715l-62 -188l-44 11l15 192z" />
    <glyph glyph-name="Dcroat" unicode="&#x110;" horiz-adv-x="670" 
d="M33 342v46h84v190c0 57 -13 74 -80 76v35h253c204 0 336 -105 336 -345c0 -199 -88 -344 -336 -344h-253v35c67 2 80 19 80 76v231h-84zM522 332c0 230 -76 310 -220 310h-87v-254h129v-46h-129v-291h85c149 0 222 57 222 281z" />
    <glyph glyph-name="dcroat" unicode="&#x111;" horiz-adv-x="567" 
d="M211 605h166c-1 59 -9 62 -76 64v32l146 29h21v-125h74v-41h-74v-426c0 -73 15 -83 79 -85v-30l-127 -36h-15c-9 20 -19 51 -22 87c-38 -49 -97 -84 -150 -84c-102 0 -197 69 -197 251c0 156 77 262 205 262c50 0 99 -20 136 -60v121h-166v41zM134 253
c0 -155 36 -207 115 -207c45 0 88 28 128 72v271c-31 38 -79 57 -121 57c-76 0 -122 -37 -122 -193z" />
    <glyph glyph-name="Emacron" unicode="&#x112;" horiz-adv-x="565" 
d="M37 0v35c67 2 80 19 80 76v467c0 57 -13 74 -80 76v35h470l10 -150h-42c-22 76 -38 101 -96 101h-167v-256h93c62 0 82 14 86 71h41v-190h-41c-4 54 -23 71 -85 71h-94v-287h168c77 0 96 23 104 116h45v-165h-492zM438 769h-281v57h281v-57z" />
    <glyph glyph-name="emacron" unicode="&#x113;" horiz-adv-x="483" 
d="M289 49c43 0 98 19 133 42l21 -34c-48 -37 -107 -68 -178 -68c-143 0 -229 96 -229 260c0 163 92 258 215 258c126 0 200 -87 200 -239v-27h-319c2 -145 52 -192 157 -192zM249 459c-68 0 -109 -41 -116 -169h223c0 122 -31 169 -107 169zM386 590h-281v57h281v-57z" />
    <glyph glyph-name="Ebreve" unicode="&#x114;" horiz-adv-x="565" 
d="M37 0v35c67 2 80 19 80 76v467c0 57 -13 74 -80 76v35h470l10 -150h-42c-22 76 -38 101 -96 101h-167v-256h93c62 0 82 14 86 71h41v-190h-41c-4 54 -23 71 -85 71h-94v-287h168c77 0 96 23 104 116h45v-165h-492zM287 741c-75 0 -142 71 -166 133l31 26
c40 -48 78 -81 135 -81s95 33 135 81l31 -26c-24 -62 -91 -133 -166 -133z" />
    <glyph glyph-name="ebreve" unicode="&#x115;" horiz-adv-x="483" 
d="M289 49c43 0 98 19 133 42l21 -34c-48 -37 -107 -68 -178 -68c-143 0 -229 96 -229 260c0 163 92 258 215 258c126 0 200 -87 200 -239v-27h-319c2 -145 52 -192 157 -192zM249 459c-68 0 -109 -41 -116 -169h223c0 122 -31 169 -107 169zM246 567
c-72 0 -131 73 -152 135l31 22c32 -48 68 -79 119 -79s86 31 119 79l32 -22c-21 -62 -78 -135 -149 -135z" />
    <glyph glyph-name="Edotaccent" unicode="&#x116;" horiz-adv-x="565" 
d="M37 0v35c67 2 80 19 80 76v467c0 57 -13 74 -80 76v35h470l10 -150h-42c-22 76 -38 101 -96 101h-167v-256h93c62 0 82 14 86 71h41v-190h-41c-4 54 -23 71 -85 71h-94v-287h168c77 0 96 23 104 116h45v-165h-492zM358 808c0 -35 -27 -63 -62 -63s-62 28 -62 63
s27 63 62 63s62 -28 62 -63z" />
    <glyph glyph-name="edotaccent" unicode="&#x117;" horiz-adv-x="483" 
d="M289 49c43 0 98 19 133 42l21 -34c-48 -37 -107 -68 -178 -68c-143 0 -229 96 -229 260c0 163 92 258 215 258c126 0 200 -87 200 -239v-27h-319c2 -145 52 -192 157 -192zM249 459c-68 0 -109 -41 -116 -169h223c0 122 -31 169 -107 169zM310 644c0 -35 -27 -63 -62 -63
s-62 28 -62 63s27 63 62 63s62 -28 62 -63z" />
    <glyph glyph-name="Eogonek" unicode="&#x118;" horiz-adv-x="565" 
d="M428 -205c-63 0 -98 35 -98 86c0 48 30 88 86 119h-379v35c67 2 80 19 80 76v467c0 57 -13 74 -80 76v35h470l10 -150h-42c-22 76 -38 101 -96 101h-167v-256h93c62 0 82 14 86 71h41v-190h-41c-4 54 -23 71 -85 71h-94v-287h168c77 0 96 23 104 116h45v-165l-26 -1
c-67 -3 -93 -53 -93 -104c0 -31 17 -52 44 -52c18 0 31 2 53 13l16 -24c-24 -23 -53 -37 -95 -37z" />
    <glyph glyph-name="eogonek" unicode="&#x119;" horiz-adv-x="483" 
d="M395 -144l16 -24c-24 -23 -53 -37 -95 -37c-63 0 -98 35 -98 86c0 43 25 80 71 110c-8 -1 -16 -2 -24 -2c-143 0 -229 96 -229 260c0 163 92 258 215 258c126 0 200 -87 200 -239v-27h-319c2 -145 52 -192 157 -192c43 0 98 19 133 42l21 -34c-25 -19 -54 -36 -79 -52
c-49 -32 -66 -71 -66 -110c0 -31 17 -52 44 -52c18 0 31 2 53 13zM249 459c-68 0 -109 -41 -116 -169h223c0 122 -31 169 -107 169z" />
    <glyph glyph-name="Ecaron" unicode="&#x11a;" horiz-adv-x="565" 
d="M37 0v35c67 2 80 19 80 76v467c0 57 -13 74 -80 76v35h470l10 -150h-42c-22 76 -38 101 -96 101h-167v-256h93c62 0 82 14 86 71h41v-190h-41c-4 54 -23 71 -85 71h-94v-287h168c77 0 96 23 104 116h45v-165h-492zM297 826l137 81l25 -30l-162 -149l-162 149l25 30z" />
    <glyph glyph-name="ecaron" unicode="&#x11b;" horiz-adv-x="483" 
d="M289 49c43 0 98 19 133 42l21 -34c-48 -37 -107 -68 -178 -68c-143 0 -229 96 -229 260c0 163 92 258 215 258c126 0 200 -87 200 -239v-27h-319c2 -145 52 -192 157 -192zM249 459c-68 0 -109 -41 -116 -169h223c0 122 -31 169 -107 169zM250 645l137 85l25 -30
l-162 -153l-162 153l25 30z" />
    <glyph glyph-name="Gcircumflex" unicode="&#x11c;" horiz-adv-x="644" 
d="M461 66v163c0 57 -13 74 -90 76v35h250v-35c-52 -2 -65 -19 -65 -76v-189c-56 -34 -142 -51 -216 -51c-183 0 -296 130 -296 352c0 225 122 360 296 360c108 0 175 -25 212 -51v-111h-70c-15 76 -43 115 -150 115c-138 0 -186 -135 -186 -318c0 -184 47 -301 201 -301
c49 0 88 11 114 31zM487 728l-137 81l-137 -81l-25 30l162 149l162 -149z" />
    <glyph glyph-name="gcircumflex" unicode="&#x11d;" horiz-adv-x="523" 
d="M254 -189c-138 0 -210 54 -210 115c0 36 27 56 51 70l42 2c-5 -9 -11 -31 -11 -52c0 -56 30 -87 126 -87c105 0 140 39 140 93c0 61 -25 74 -156 77c-35 1 -70 4 -89 6c-44 5 -65 41 -65 78c0 39 39 68 93 86c-73 17 -119 76 -119 142c0 97 73 164 188 164
c27 0 48 -2 78 -11c26 -8 53 -16 75 -16c30 0 54 12 81 31l34 -65c-22 -11 -44 -18 -70 -18c-20 0 -42 6 -70 19c33 -25 60 -61 60 -106c0 -66 -43 -145 -187 -152c-7 -1 -14 -1 -22 -1c-36 -10 -61 -30 -61 -52c0 -15 12 -25 36 -25h92c117 0 184 -32 184 -138
c0 -98 -96 -160 -220 -160zM243 232c60 0 91 34 91 110c0 80 -29 116 -92 116c-59 0 -91 -34 -91 -113c0 -77 33 -113 92 -113zM400 564l-137 85l-137 -85l-25 30l162 153l162 -153z" />
    <glyph glyph-name="Gbreve" unicode="&#x11e;" horiz-adv-x="644" 
d="M461 66v163c0 57 -13 74 -90 76v35h250v-35c-52 -2 -65 -19 -65 -76v-189c-56 -34 -142 -51 -216 -51c-183 0 -296 130 -296 352c0 225 122 360 296 360c108 0 175 -25 212 -51v-111h-70c-15 76 -43 115 -150 115c-138 0 -186 -135 -186 -318c0 -184 47 -301 201 -301
c49 0 88 11 114 31zM350 741c-75 0 -142 71 -166 133l31 26c40 -48 78 -81 135 -81s95 33 135 81l31 -26c-24 -62 -91 -133 -166 -133z" />
    <glyph glyph-name="gbreve" unicode="&#x11f;" horiz-adv-x="523" 
d="M254 -189c-138 0 -210 54 -210 115c0 36 27 56 51 70l42 2c-5 -9 -11 -31 -11 -52c0 -56 30 -87 126 -87c105 0 140 39 140 93c0 61 -25 74 -156 77c-35 1 -70 4 -89 6c-44 5 -65 41 -65 78c0 39 39 68 93 86c-73 17 -119 76 -119 142c0 97 73 164 188 164
c27 0 48 -2 78 -11c26 -8 53 -16 75 -16c30 0 54 12 81 31l34 -65c-22 -11 -44 -18 -70 -18c-20 0 -42 6 -70 19c33 -25 60 -61 60 -106c0 -66 -43 -145 -187 -152c-7 -1 -14 -1 -22 -1c-36 -10 -61 -30 -61 -52c0 -15 12 -25 36 -25h92c117 0 184 -32 184 -138
c0 -98 -96 -160 -220 -160zM243 232c60 0 91 34 91 110c0 80 -29 116 -92 116c-59 0 -91 -34 -91 -113c0 -77 33 -113 92 -113zM265 567c-72 0 -131 73 -152 135l31 22c32 -48 68 -79 119 -79s86 31 119 79l32 -22c-21 -62 -78 -135 -149 -135z" />
    <glyph glyph-name="Gdotaccent" unicode="&#x120;" horiz-adv-x="644" 
d="M461 66v163c0 57 -13 74 -90 76v35h250v-35c-52 -2 -65 -19 -65 -76v-189c-56 -34 -142 -51 -216 -51c-183 0 -296 130 -296 352c0 225 122 360 296 360c108 0 175 -25 212 -51v-111h-70c-15 76 -43 115 -150 115c-138 0 -186 -135 -186 -318c0 -184 47 -301 201 -301
c49 0 88 11 114 31zM411 808c0 -35 -27 -63 -62 -63s-62 28 -62 63s27 63 62 63s62 -28 62 -63z" />
    <glyph glyph-name="gdotaccent" unicode="&#x121;" horiz-adv-x="523" 
d="M254 -189c-138 0 -210 54 -210 115c0 36 27 56 51 70l42 2c-5 -9 -11 -31 -11 -52c0 -56 30 -87 126 -87c105 0 140 39 140 93c0 61 -25 74 -156 77c-35 1 -70 4 -89 6c-44 5 -65 41 -65 78c0 39 39 68 93 86c-73 17 -119 76 -119 142c0 97 73 164 188 164
c27 0 48 -2 78 -11c26 -8 53 -16 75 -16c30 0 54 12 81 31l34 -65c-22 -11 -44 -18 -70 -18c-20 0 -42 6 -70 19c33 -25 60 -61 60 -106c0 -66 -43 -145 -187 -152c-7 -1 -14 -1 -22 -1c-36 -10 -61 -30 -61 -52c0 -15 12 -25 36 -25h92c117 0 184 -32 184 -138
c0 -98 -96 -160 -220 -160zM243 232c60 0 91 34 91 110c0 80 -29 116 -92 116c-59 0 -91 -34 -91 -113c0 -77 33 -113 92 -113zM326 644c0 -35 -27 -63 -62 -63s-62 28 -62 63s27 63 62 63s62 -28 62 -63z" />
    <glyph glyph-name="Gcommaaccent" unicode="&#x122;" horiz-adv-x="644" 
d="M461 66v163c0 57 -13 74 -90 76v35h250v-35c-52 -2 -65 -19 -65 -76v-189c-56 -34 -142 -51 -216 -51c-183 0 -296 130 -296 352c0 225 122 360 296 360c108 0 175 -25 212 -51v-111h-70c-15 76 -43 115 -150 115c-138 0 -186 -135 -186 -318c0 -184 47 -301 201 -301
c49 0 88 11 114 31zM423 -141c0 -62 -43 -118 -127 -135l-19 27c54 17 67 35 67 58c0 13 -8 19 -27 26c-17 7 -31 20 -31 48c0 30 26 55 65 55c47 0 72 -33 72 -79z" />
    <glyph glyph-name="gcommaaccent" unicode="&#x123;" horiz-adv-x="523" 
d="M254 -189c-138 0 -210 54 -210 115c0 36 27 56 51 70l42 2c-5 -9 -11 -31 -11 -52c0 -56 30 -87 126 -87c105 0 140 39 140 93c0 61 -25 74 -156 77c-35 1 -70 4 -89 6c-44 5 -65 41 -65 78c0 39 39 68 93 86c-73 17 -119 76 -119 142c0 97 73 164 188 164
c27 0 48 -2 78 -11c26 -8 53 -16 75 -16c30 0 54 12 81 31l34 -65c-22 -11 -44 -18 -70 -18c-20 0 -42 6 -70 19c33 -25 60 -61 60 -106c0 -66 -43 -145 -187 -152c-7 -1 -14 -1 -22 -1c-36 -10 -61 -30 -61 -52c0 -15 12 -25 36 -25h92c117 0 184 -32 184 -138
c0 -98 -96 -160 -220 -160zM243 232c60 0 91 34 91 110c0 80 -29 116 -92 116c-59 0 -91 -34 -91 -113c0 -77 33 -113 92 -113zM188 645c0 62 43 118 127 135l19 -27c-54 -17 -67 -35 -67 -58c0 -13 8 -19 27 -26c17 -7 31 -20 31 -48c0 -30 -26 -55 -65 -55
c-47 0 -72 33 -72 79z" />
    <glyph glyph-name="Hcircumflex" unicode="&#x124;" horiz-adv-x="708" 
d="M496 111v229h-284v-229c0 -57 13 -74 80 -76v-35h-255v35c67 2 80 19 80 76v467c0 57 -13 74 -80 76v35h255v-35c-67 -2 -80 -19 -80 -76v-188h284v188c0 57 -13 74 -80 76v35h255v-35c-67 -2 -80 -19 -80 -76v-467c0 -57 13 -74 80 -76v-35h-255v35c67 2 80 19 80 76z
M491 728l-137 81l-137 -81l-25 30l162 149l162 -149z" />
    <glyph glyph-name="hcircumflex" unicode="&#x125;" horiz-adv-x="583" 
d="M190 631v-210c45 45 91 82 167 82c80 0 135 -47 135 -134v-265c0 -57 12 -66 65 -70v-34h-226v34c63 3 70 14 70 63v254c0 59 -25 82 -73 82c-60 0 -98 -24 -138 -63v-273c0 -49 7 -60 70 -63v-34h-231v34c57 4 70 13 70 70v480c0 73 -17 83 -76 85v32l140 29h15
c5 -16 12 -52 12 -99zM427 756l-137 81l-137 -81l-25 30l162 149l162 -149z" />
    <glyph glyph-name="Hbar" unicode="&#x126;" horiz-adv-x="708" 
d="M47 494v46h70v38c0 57 -13 74 -80 76v35h255v-35c-67 -2 -80 -19 -80 -76v-38h284v38c0 57 -13 74 -80 76v35h255v-35c-67 -2 -80 -19 -80 -76v-38h70v-46h-70v-383c0 -57 13 -74 80 -76v-35h-255v35c67 2 80 19 80 76v229h-284v-229c0 -57 13 -74 80 -76v-35h-255v35
c67 2 80 19 80 76v383h-70zM212 390h284v104h-284v-104z" />
    <glyph glyph-name="hbar" unicode="&#x127;" horiz-adv-x="583" 
d="M190 631v-26h163v-41h-163v-143c45 45 91 82 167 82c80 0 135 -47 135 -134v-265c0 -57 12 -66 65 -70v-34h-226v34c63 3 70 14 70 63v254c0 59 -25 82 -73 82c-60 0 -98 -24 -138 -63v-273c0 -49 7 -60 70 -63v-34h-231v34c57 4 70 13 70 70v460h-77v41h77
c-1 59 -9 62 -76 64v32l140 29h15c6 -17 12 -58 12 -99z" />
    <glyph glyph-name="Itilde" unicode="&#x128;" horiz-adv-x="329" 
d="M117 111v467c0 57 -13 74 -80 76v35h255v-35c-67 -2 -80 -19 -80 -76v-467c0 -57 13 -74 80 -76v-35h-255v35c67 2 80 19 80 76zM232 818c35 0 56 18 73 45l36 -14c-17 -51 -50 -95 -109 -95c-69 0 -95 44 -138 44c-38 0 -54 -20 -71 -47l-34 13c14 55 45 100 105 100
c66 0 89 -46 138 -46z" />
    <glyph glyph-name="itilde" unicode="&#x129;" horiz-adv-x="286" 
d="M260 0h-231v34c57 4 70 13 70 70v245c0 73 -14 83 -73 85v30l149 40h15v-400c0 -57 7 -67 70 -70v-34zM186 669c32 0 51 15 66 42l35 -15c-15 -51 -48 -101 -101 -101c-54 0 -88 29 -124 29c-34 0 -49 -17 -64 -44l-33 14c12 55 43 106 97 106s83 -31 124 -31z" />
    <glyph glyph-name="Imacron" unicode="&#x12a;" horiz-adv-x="329" 
d="M117 111v467c0 57 -13 74 -80 76v35h255v-35c-67 -2 -80 -19 -80 -76v-467c0 -57 13 -74 80 -76v-35h-255v35c67 2 80 19 80 76zM305 769h-281v57h281v-57z" />
    <glyph glyph-name="imacron" unicode="&#x12b;" horiz-adv-x="286" 
d="M260 0h-231v34c57 4 70 13 70 70v245c0 73 -14 83 -73 85v30l149 40h15v-400c0 -57 7 -67 70 -70v-34zM242 590h-238v57h238v-57z" />
    <glyph glyph-name="Ibreve" unicode="&#x12c;" horiz-adv-x="329" 
d="M117 111v467c0 57 -13 74 -80 76v35h255v-35c-67 -2 -80 -19 -80 -76v-467c0 -57 13 -74 80 -76v-35h-255v35c67 2 80 19 80 76zM164 741c-75 0 -142 71 -166 133l31 26c40 -48 78 -81 135 -81s95 33 135 81l31 -26c-24 -62 -91 -133 -166 -133z" />
    <glyph glyph-name="ibreve" unicode="&#x12d;" horiz-adv-x="286" 
d="M260 0h-231v34c57 4 70 13 70 70v245c0 73 -14 83 -73 85v30l149 40h15v-400c0 -57 7 -67 70 -70v-34zM134 567c-72 0 -131 73 -152 135l31 22c32 -48 68 -79 119 -79s86 31 119 79l32 -22c-21 -62 -78 -135 -149 -135z" />
    <glyph glyph-name="Iogonek" unicode="&#x12e;" horiz-adv-x="329" 
d="M275 -144l16 -24c-24 -23 -53 -37 -95 -37c-63 0 -98 35 -98 86c0 48 30 88 86 119h-147v35c67 2 80 19 80 76v467c0 57 -13 74 -80 76v35h255v-35c-67 -2 -80 -19 -80 -76v-467c0 -57 13 -74 80 -76v-35h-19c-65 0 -95 -53 -95 -105c0 -31 17 -52 44 -52
c18 0 31 2 53 13z" />
    <glyph glyph-name="iogonek" unicode="&#x12f;" horiz-adv-x="286" 
d="M253 -144l16 -24c-24 -23 -53 -37 -95 -37c-63 0 -98 35 -98 86c0 48 30 88 86 119h-133v34c57 4 70 13 70 70v245c0 73 -14 83 -73 85v30l149 40h15v-400c0 -57 7 -67 70 -70v-34c-80 -4 -104 -57 -104 -105c0 -31 17 -52 44 -52c18 0 31 2 53 13zM200 644
c0 -35 -27 -63 -62 -63s-62 28 -62 63s27 63 62 63s62 -28 62 -63z" />
    <glyph glyph-name="Idotaccent" unicode="&#x130;" horiz-adv-x="329" 
d="M117 111v467c0 57 -13 74 -80 76v35h255v-35c-67 -2 -80 -19 -80 -76v-467c0 -57 13 -74 80 -76v-35h-255v35c67 2 80 19 80 76zM225 808c0 -35 -27 -63 -62 -63s-62 28 -62 63s27 63 62 63s62 -28 62 -63z" />
    <glyph glyph-name="dotlessi" unicode="&#x131;" horiz-adv-x="286" 
d="M260 0h-231v34c57 4 70 13 70 70v245c0 73 -14 83 -73 85v30l149 40h15v-400c0 -57 7 -67 70 -70v-34z" />
    <glyph glyph-name="IJ" unicode="&#x132;" horiz-adv-x="668" 
d="M117 111v467c0 57 -13 74 -80 76v35h255v-35c-67 -2 -80 -19 -80 -76v-467c0 -57 13 -74 80 -76v-35h-255v35c67 2 80 19 80 76zM451 100v478c0 57 -15 74 -85 76v35h265v-35c-70 -2 -85 -19 -85 -76v-471c0 -157 -45 -209 -189 -254l-24 37c108 55 118 99 118 210z" />
    <glyph glyph-name="ij" unicode="&#x133;" horiz-adv-x="525" 
d="M260 0h-231v34c57 4 70 13 70 70v245c0 73 -14 83 -73 85v30l149 40h15v-400c0 -57 7 -67 70 -70v-34zM200 644c0 -35 -27 -63 -62 -63s-62 28 -62 63s27 63 62 63s62 -28 62 -63zM355 12v337c0 73 -14 83 -73 85v30l149 40h15v-493c0 -148 -57 -177 -142 -217l-29 40
c61 28 80 75 80 178zM456 644c0 -35 -27 -63 -62 -63s-62 28 -62 63s27 63 62 63s62 -28 62 -63z" />
    <glyph glyph-name="Jcircumflex" unicode="&#x134;" horiz-adv-x="339" 
d="M122 100v478c0 57 -15 74 -85 76v35h265v-35c-70 -2 -85 -19 -85 -76v-471c0 -157 -45 -209 -189 -254l-24 37c108 55 118 99 118 210zM302 728l-137 81l-137 -81l-25 30l162 149l162 -149z" />
    <glyph glyph-name="jcircumflex" unicode="&#x135;" horiz-adv-x="269" 
d="M99 12v337c0 73 -14 83 -73 85v30l149 40h15v-493c0 -148 -57 -177 -142 -217l-29 40c61 28 80 75 80 178zM280 564l-137 85l-137 -85l-25 30l162 153l162 -153z" />
    <glyph glyph-name="Kcommaaccent" unicode="&#x136;" horiz-adv-x="622" 
d="M117 111v467c0 57 -13 74 -80 76v35h255v-35c-67 -2 -80 -19 -80 -76v-467c0 -57 13 -74 80 -76v-35h-255v35c67 2 80 19 80 76zM458 552l-144 -162l211 -306c25 -36 39 -45 91 -49v-35h-149l-239 361l184 215c18 22 24 36 24 48c0 19 -19 29 -54 30v35h212v-35
c-48 -7 -70 -28 -136 -102zM379 -141c0 -62 -43 -118 -127 -135l-19 27c54 17 67 35 67 58c0 13 -8 19 -27 26c-17 7 -31 20 -31 48c0 30 26 55 65 55c47 0 72 -33 72 -79z" />
    <glyph glyph-name="kcommaaccent" unicode="&#x137;" horiz-adv-x="531" 
d="M29 0v34c57 4 70 13 70 70v480c0 73 -17 83 -76 85v32l140 29h15c6 -18 12 -54 12 -99v-534c0 -49 7 -60 70 -63v-34h-231zM408 0l-209 262l137 140c33 33 19 53 -27 55v34h188v-34c-40 -4 -68 -36 -115 -82l-92 -91l151 -190c31 -39 55 -56 88 -60v-34h-121zM349 -141
c0 -62 -43 -118 -127 -135l-19 27c54 17 67 35 67 58c0 13 -8 19 -27 26c-17 7 -31 20 -31 48c0 30 26 55 65 55c47 0 72 -33 72 -79z" />
    <glyph glyph-name="kgreenlandic" unicode="&#x138;" horiz-adv-x="531" 
d="M382 375l-92 -91l151 -190c31 -39 55 -56 88 -60v-34h-121l-209 262l137 140c12 12 18 23 18 31c0 14 -16 23 -45 24v34h188v-34c-40 -4 -68 -36 -115 -82zM260 0h-231v34c57 4 70 13 70 70v245c0 73 -14 83 -73 85v30l149 40h15v-400c0 -57 7 -67 70 -70v-34z" />
    <glyph glyph-name="Lacute" unicode="&#x139;" horiz-adv-x="544" 
d="M212 576v-527h144c73 0 96 30 116 120h44l-15 -169h-464v35c67 2 80 19 80 76v467c0 57 -13 74 -80 76v35h260v-35c-71 -2 -85 -21 -85 -78zM101 727l-20 34l191 128l43 -92z" />
    <glyph glyph-name="lacute" unicode="&#x13a;" horiz-adv-x="294" 
d="M194 631v-524c0 -59 9 -70 74 -73v-34h-239v34c61 4 74 13 74 70v480c0 73 -17 83 -80 85v32l144 29h15c7 -21 12 -59 12 -99zM48 745l-20 34l191 128l43 -92z" />
    <glyph glyph-name="Lcommaaccent" unicode="&#x13b;" horiz-adv-x="544" 
d="M212 576v-527h144c73 0 96 30 116 120h44l-15 -169h-464v35c67 2 80 19 80 76v467c0 57 -13 74 -80 76v35h260v-35c-71 -2 -85 -21 -85 -78zM349 -141c0 -62 -43 -118 -127 -135l-19 27c54 17 67 35 67 58c0 13 -8 19 -27 26c-17 7 -31 20 -31 48c0 30 26 55 65 55
c47 0 72 -33 72 -79z" />
    <glyph glyph-name="lcommaaccent" unicode="&#x13c;" horiz-adv-x="294" 
d="M194 631v-524c0 -59 9 -70 74 -73v-34h-239v34c61 4 74 13 74 70v480c0 73 -17 83 -80 85v32l144 29h15c7 -21 12 -59 12 -99zM218 -141c0 -62 -43 -118 -127 -135l-19 27c54 17 67 35 67 58c0 13 -8 19 -27 26c-17 7 -31 20 -31 48c0 30 26 55 65 55c47 0 72 -33 72 -79
z" />
    <glyph glyph-name="Lcaron" unicode="&#x13d;" horiz-adv-x="544" 
d="M212 576v-527h144c73 0 96 30 116 120h44l-15 -169h-464v35c67 2 80 19 80 76v467c0 57 -13 74 -80 76v35h260v-35c-71 -2 -85 -21 -85 -78zM475 715l-62 -188l-44 11l15 192z" />
    <glyph glyph-name="lcaron" unicode="&#x13e;" horiz-adv-x="294" 
d="M194 631v-524c0 -59 9 -70 74 -73v-34h-239v34c61 4 74 13 74 70v480c0 73 -17 83 -80 85v32l144 29h15c7 -21 12 -59 12 -99zM352 715l-62 -188l-44 11l15 192z" />
    <glyph glyph-name="Ldot" unicode="&#x13f;" horiz-adv-x="544" 
d="M212 576v-527h144c73 0 96 30 116 120h44l-15 -169h-464v35c67 2 80 19 80 76v467c0 57 -13 74 -80 76v35h260v-35c-71 -2 -85 -21 -85 -78zM520 375c0 -41 -32 -75 -71 -75s-70 34 -70 75c0 42 31 74 70 74s71 -32 71 -74z" />
    <glyph glyph-name="ldot" unicode="&#x140;" horiz-adv-x="352" 
d="M194 631v-524c0 -59 9 -70 74 -73v-34h-239v34c61 4 74 13 74 70v480c0 73 -17 83 -80 85v32l144 29h15c7 -21 12 -59 12 -99zM386 348c0 -35 -28 -64 -62 -64c-35 0 -62 29 -62 64c0 36 27 63 62 63c34 0 62 -27 62 -63z" />
    <glyph glyph-name="Lslash" unicode="&#x141;" horiz-adv-x="544" 
d="M212 576v-205l194 70v-50l-194 -69v-273h144c73 0 96 30 116 120h44l-15 -169h-464v35c67 2 80 19 80 76v177l-78 -28v49l78 28v241c0 57 -13 74 -80 76v35h260v-35c-71 -2 -85 -21 -85 -78z" />
    <glyph glyph-name="lslash" unicode="&#x142;" horiz-adv-x="294" 
d="M21 339l82 39v206c0 73 -17 83 -80 85v32l144 29h15c6 -17 12 -57 12 -99v-210l83 40v-49l-83 -39v-266c0 -59 9 -70 74 -73v-34h-239v34c61 4 74 13 74 70v226l-82 -39v48z" />
    <glyph glyph-name="Nacute" unicode="&#x143;" horiz-adv-x="685" 
d="M516 333v245c0 57 -13 74 -80 76v35h219v-35c-61 -2 -72 -19 -72 -76v-578h-71l-250 408c-55 89 -75 144 -84 170h-6c4 -27 12 -87 12 -184v-283c0 -57 13 -74 80 -76v-35h-227v35c67 2 80 19 80 76v467c0 57 -13 74 -80 76v35h162l255 -418c30 -49 58 -113 68 -145h6
c-5 30 -12 117 -12 207zM249 727l-20 34l191 128l43 -92z" />
    <glyph glyph-name="nacute" unicode="&#x144;" horiz-adv-x="583" 
d="M492 369v-265c0 -57 12 -66 65 -70v-34h-226v34c63 3 70 14 70 63v254c0 59 -25 82 -73 82c-60 0 -98 -24 -138 -63v-273c0 -49 7 -60 70 -63v-34h-231v34c57 4 70 13 70 70v245c0 73 -14 83 -73 85v30l128 40h15c7 -16 16 -52 17 -87c45 47 95 86 171 86
c80 0 135 -47 135 -134zM196 566l-20 34l179 153l53 -91z" />
    <glyph glyph-name="Ncommaaccent" unicode="&#x145;" horiz-adv-x="685" 
d="M516 333v245c0 57 -13 74 -80 76v35h219v-35c-61 -2 -72 -19 -72 -76v-578h-71l-250 408c-55 89 -75 144 -84 170h-6c4 -27 12 -87 12 -184v-283c0 -57 13 -74 80 -76v-35h-227v35c67 2 80 19 80 76v467c0 57 -13 74 -80 76v35h162l255 -418c30 -49 58 -113 68 -145h6
c-5 30 -12 117 -12 207zM419 -141c0 -62 -43 -118 -127 -135l-19 27c54 17 67 35 67 58c0 13 -8 19 -27 26c-17 7 -31 20 -31 48c0 30 26 55 65 55c47 0 72 -33 72 -79z" />
    <glyph glyph-name="ncommaaccent" unicode="&#x146;" horiz-adv-x="583" 
d="M492 369v-265c0 -57 12 -66 65 -70v-34h-226v34c63 3 70 14 70 63v254c0 59 -25 82 -73 82c-60 0 -98 -24 -138 -63v-273c0 -49 7 -60 70 -63v-34h-231v34c57 4 70 13 70 70v245c0 73 -14 83 -73 85v30l128 40h15c7 -16 16 -52 17 -87c45 47 95 86 171 86
c80 0 135 -47 135 -134zM364 -141c0 -62 -43 -118 -127 -135l-19 27c54 17 67 35 67 58c0 13 -8 19 -27 26c-17 7 -31 20 -31 48c0 30 26 55 65 55c47 0 72 -33 72 -79z" />
    <glyph glyph-name="Ncaron" unicode="&#x147;" horiz-adv-x="685" 
d="M516 333v245c0 57 -13 74 -80 76v35h219v-35c-61 -2 -72 -19 -72 -76v-578h-71l-250 408c-55 89 -75 144 -84 170h-6c4 -27 12 -87 12 -184v-283c0 -57 13 -74 80 -76v-35h-227v35c67 2 80 19 80 76v467c0 57 -13 74 -80 76v35h162l255 -418c30 -49 58 -113 68 -145h6
c-5 30 -12 117 -12 207zM346 826l137 81l25 -30l-162 -149l-162 149l25 30z" />
    <glyph glyph-name="ncaron" unicode="&#x148;" horiz-adv-x="583" 
d="M492 369v-265c0 -57 12 -66 65 -70v-34h-226v34c63 3 70 14 70 63v254c0 59 -25 82 -73 82c-60 0 -98 -24 -138 -63v-273c0 -49 7 -60 70 -63v-34h-231v34c57 4 70 13 70 70v245c0 73 -14 83 -73 85v30l128 40h15c7 -16 16 -52 17 -87c45 47 95 86 171 86
c80 0 135 -47 135 -134zM291 645l137 85l25 -30l-162 -153l-162 153l25 30z" />
    <glyph glyph-name="napostrophe" unicode="&#x149;" horiz-adv-x="850" 
d="M208 605c0 -77 -50 -144 -134 -168l-21 29c57 22 81 51 81 80c0 17 -12 23 -30 30c-22 8 -46 25 -46 59c0 38 30 69 71 69c46 0 79 -41 79 -99zM759 369v-265c0 -57 12 -66 65 -70v-34h-226v34c63 3 70 14 70 63v254c0 59 -25 82 -73 82c-60 0 -98 -24 -138 -63v-273
c0 -49 7 -60 70 -63v-34h-231v34c57 4 70 13 70 70v245c0 73 -14 83 -73 85v30l128 40h15c7 -16 16 -52 17 -87c45 47 95 86 171 86c80 0 135 -47 135 -134z" />
    <glyph glyph-name="Eng" unicode="&#x14a;" horiz-adv-x="685" 
d="M494 29l-232 379c-55 89 -75 144 -84 170h-6c4 -27 12 -87 12 -184v-283c0 -57 13 -74 80 -76v-35h-227v35c67 2 80 19 80 76v467c0 57 -13 74 -80 76v35h162l255 -418c30 -49 58 -113 68 -145h6c-5 30 -12 117 -12 207v245c0 57 -13 74 -80 76v35h219v-35
c-61 -2 -72 -19 -72 -76v-512c0 -146 -50 -199 -189 -243l-24 37c93 48 119 88 124 169z" />
    <glyph glyph-name="eng" unicode="&#x14b;" horiz-adv-x="564" 
d="M401 12v339c0 59 -25 82 -73 82c-60 0 -98 -24 -138 -63v-273c0 -49 7 -60 70 -63v-34h-231v34c57 4 70 13 70 70v245c0 73 -14 83 -73 85v30l128 40h15c5 -12 15 -42 17 -87c45 47 95 86 171 86c80 0 135 -47 135 -134v-358c0 -148 -57 -177 -142 -217l-29 40
c61 28 80 75 80 178z" />
    <glyph glyph-name="Omacron" unicode="&#x14c;" horiz-adv-x="674" 
d="M340 -11c-197 0 -296 151 -296 358c0 227 115 354 291 354c211 0 295 -169 295 -361c0 -211 -108 -351 -290 -351zM335 654c-132 0 -189 -101 -189 -296c0 -194 49 -324 194 -324c116 0 186 86 186 297c0 206 -51 323 -191 323zM478 769h-281v57h281v-57z" />
    <glyph glyph-name="omacron" unicode="&#x14d;" horiz-adv-x="532" 
d="M496 242c0 -159 -97 -254 -230 -254c-134 0 -230 96 -230 259c0 162 96 259 228 259c148 0 232 -113 232 -264zM398 238c0 153 -47 219 -134 219c-100 0 -130 -76 -130 -200c0 -151 36 -220 134 -220c86 0 130 72 130 201zM408 590h-281v57h281v-57z" />
    <glyph glyph-name="Obreve" unicode="&#x14e;" horiz-adv-x="674" 
d="M340 -11c-197 0 -296 151 -296 358c0 227 115 354 291 354c211 0 295 -169 295 -361c0 -211 -108 -351 -290 -351zM335 654c-132 0 -189 -101 -189 -296c0 -194 49 -324 194 -324c116 0 186 86 186 297c0 206 -51 323 -191 323zM337 741c-75 0 -142 71 -166 133l31 26
c40 -48 78 -81 135 -81s95 33 135 81l31 -26c-24 -62 -91 -133 -166 -133z" />
    <glyph glyph-name="obreve" unicode="&#x14f;" horiz-adv-x="532" 
d="M496 242c0 -159 -97 -254 -230 -254c-134 0 -230 96 -230 259c0 162 96 259 228 259c148 0 232 -113 232 -264zM398 238c0 153 -47 219 -134 219c-100 0 -130 -76 -130 -200c0 -151 36 -220 134 -220c86 0 130 72 130 201zM268 567c-72 0 -131 73 -152 135l31 22
c32 -48 68 -79 119 -79s86 31 119 79l32 -22c-21 -62 -78 -135 -149 -135z" />
    <glyph glyph-name="Ohungarumlaut" unicode="&#x150;" horiz-adv-x="674" 
d="M340 -11c-197 0 -296 151 -296 358c0 227 115 354 291 354c211 0 295 -169 295 -361c0 -211 -108 -351 -290 -351zM335 654c-132 0 -189 -101 -189 -296c0 -194 49 -324 194 -324c116 0 186 86 186 297c0 206 -51 323 -191 323zM358 901l-96 -174l-42 18l52 192zM538 873
l-124 -152l-37 26l84 175z" />
    <glyph glyph-name="ohungarumlaut" unicode="&#x151;" horiz-adv-x="532" 
d="M496 242c0 -159 -97 -254 -230 -254c-134 0 -230 96 -230 259c0 162 96 259 228 259c148 0 232 -113 232 -264zM398 238c0 153 -47 219 -134 219c-100 0 -130 -76 -130 -200c0 -151 36 -220 134 -220c86 0 130 72 130 201zM308 770l-113 -207l-42 18l70 225zM492 740
l-145 -183l-37 26l104 208z" />
    <glyph glyph-name="OE" unicode="&#x152;" horiz-adv-x="926" 
d="M398 51h67v591h-69c-144 0 -248 -80 -248 -310c0 -224 101 -281 250 -281zM408 689h460l10 -150h-42c-22 76 -38 101 -96 101h-167v-256h93c62 0 82 14 86 71h41v-190h-41c-4 54 -23 71 -85 71h-94v-287h168c77 0 96 23 104 116h45v-165h-482c-248 0 -364 145 -364 344
c0 240 160 345 364 345z" />
    <glyph glyph-name="oe" unicode="&#x153;" horiz-adv-x="847" 
d="M653 49c43 0 98 19 133 42l21 -34c-48 -37 -107 -68 -178 -68c-81 0 -149 36 -182 94c-39 -59 -105 -95 -181 -95c-134 0 -230 96 -230 259c0 162 96 259 228 259c80 0 147 -37 181 -95c34 63 99 96 170 96c126 0 200 -87 200 -239v-27h-319c0 -145 53 -192 157 -192z
M398 238c0 153 -47 219 -134 219c-100 0 -130 -76 -130 -200c0 -151 36 -220 134 -220c86 0 130 72 130 201zM613 459c-68 0 -109 -41 -116 -169h223c0 122 -31 169 -107 169z" />
    <glyph glyph-name="Racute" unicode="&#x154;" horiz-adv-x="611" 
d="M324 328v-4c49 -12 78 -36 101 -66c26 -33 64 -100 103 -165c21 -36 35 -56 87 -58v-35h-148c-45 88 -85 171 -128 239c-38 60 -66 85 -127 87v-217c0 -53 16 -72 78 -74v-35h-253v35c67 2 80 19 80 76v467c0 57 -13 74 -80 76v35h248c149 0 249 -48 249 -186
c0 -114 -90 -173 -210 -175zM433 502c0 108 -42 138 -142 138h-79v-278h74c88 0 147 33 147 140zM191 727l-20 34l191 128l43 -92z" />
    <glyph glyph-name="racute" unicode="&#x155;" horiz-adv-x="364" 
d="M186 390c39 69 82 117 136 117c11 0 22 -2 30 -5l-22 -99c-7 3 -16 5 -31 5c-82 0 -109 -32 -109 -129v-175c0 -57 10 -67 85 -70v-34h-246v34c57 4 70 13 70 70v245c0 73 -14 83 -73 85v30l128 40h15c7 -17 17 -59 17 -114zM94 566l-20 34l179 153l53 -91z" />
    <glyph glyph-name="Rcommaaccent" unicode="&#x156;" horiz-adv-x="611" 
d="M324 328v-4c49 -12 78 -36 101 -66c26 -33 64 -100 103 -165c21 -36 35 -56 87 -58v-35h-148c-45 88 -85 171 -128 239c-38 60 -66 85 -127 87v-217c0 -53 16 -72 78 -74v-35h-253v35c67 2 80 19 80 76v467c0 57 -13 74 -80 76v35h248c149 0 249 -48 249 -186
c0 -114 -90 -173 -210 -175zM433 502c0 108 -42 138 -142 138h-79v-278h74c88 0 147 33 147 140zM383 -141c0 -62 -43 -118 -127 -135l-19 27c54 17 67 35 67 58c0 13 -8 19 -27 26c-17 7 -31 20 -31 48c0 30 26 55 65 55c47 0 72 -33 72 -79z" />
    <glyph glyph-name="rcommaaccent" unicode="&#x157;" horiz-adv-x="364" 
d="M186 390c39 69 82 117 136 117c11 0 22 -2 30 -5l-22 -99c-7 3 -16 5 -31 5c-82 0 -109 -32 -109 -129v-175c0 -57 10 -67 85 -70v-34h-246v34c57 4 70 13 70 70v245c0 73 -14 83 -73 85v30l128 40h15c7 -17 17 -59 17 -114zM214 -141c0 -62 -43 -118 -127 -135l-19 27
c54 17 67 35 67 58c0 13 -8 19 -27 26c-17 7 -31 20 -31 48c0 30 26 55 65 55c47 0 72 -33 72 -79z" />
    <glyph glyph-name="Rcaron" unicode="&#x158;" horiz-adv-x="611" 
d="M324 328v-4c49 -12 78 -36 101 -66c26 -33 64 -100 103 -165c21 -36 35 -56 87 -58v-35h-148c-45 88 -85 171 -128 239c-38 60 -66 85 -127 87v-217c0 -53 16 -72 78 -74v-35h-253v35c67 2 80 19 80 76v467c0 57 -13 74 -80 76v35h248c149 0 249 -48 249 -186
c0 -114 -90 -173 -210 -175zM433 502c0 108 -42 138 -142 138h-79v-278h74c88 0 147 33 147 140zM288 826l137 81l25 -30l-162 -149l-162 149l25 30z" />
    <glyph glyph-name="rcaron" unicode="&#x159;" horiz-adv-x="364" 
d="M186 390c39 69 82 117 136 117c11 0 22 -2 30 -5l-22 -99c-7 3 -16 5 -31 5c-82 0 -109 -32 -109 -129v-175c0 -57 10 -67 85 -70v-34h-246v34c57 4 70 13 70 70v245c0 73 -14 83 -73 85v30l128 40h15c7 -17 17 -59 17 -114zM194 645l137 85l25 -30l-162 -153l-162 153
l25 30z" />
    <glyph glyph-name="Sacute" unicode="&#x15a;" horiz-adv-x="538" 
d="M245 -11c-105 0 -169 32 -205 55v124h69c13 -88 43 -132 150 -132c108 0 147 56 147 130c0 85 -37 110 -129 138l-69 21c-101 31 -155 84 -155 181c0 114 84 195 223 195c99 0 154 -25 189 -51v-107h-65c-12 67 -41 111 -137 111c-79 0 -128 -44 -128 -117
c0 -74 36 -98 121 -124l70 -21c97 -29 167 -84 167 -191c0 -132 -88 -212 -248 -212zM183 727l-20 34l191 128l43 -92z" />
    <glyph glyph-name="sacute" unicode="&#x15b;" horiz-adv-x="431" 
d="M202 -12c-92 0 -141 27 -165 42v97h67c7 -68 37 -93 107 -93c57 0 103 23 103 87c0 54 -29 73 -86 87l-59 14c-75 18 -127 58 -127 139c0 94 79 144 175 144c78 0 126 -23 150 -35v-90h-64c-10 53 -38 79 -94 79c-59 0 -92 -29 -92 -77c0 -42 19 -65 80 -79l59 -14
c94 -22 137 -64 137 -136c0 -100 -74 -165 -191 -165zM119 566l-20 34l179 153l53 -91z" />
    <glyph glyph-name="Scircumflex" unicode="&#x15c;" horiz-adv-x="538" 
d="M245 -11c-105 0 -169 32 -205 55v124h69c13 -88 43 -132 150 -132c108 0 147 56 147 130c0 85 -37 110 -129 138l-69 21c-101 31 -155 84 -155 181c0 114 84 195 223 195c99 0 154 -25 189 -51v-107h-65c-12 67 -41 111 -137 111c-79 0 -128 -44 -128 -117
c0 -74 36 -98 121 -124l70 -21c97 -29 167 -84 167 -191c0 -132 -88 -212 -248 -212zM417 728l-137 81l-137 -81l-25 30l162 149l162 -149z" />
    <glyph glyph-name="scircumflex" unicode="&#x15d;" horiz-adv-x="431" 
d="M202 -12c-92 0 -141 27 -165 42v97h67c7 -68 37 -93 107 -93c57 0 103 23 103 87c0 54 -29 73 -86 87l-59 14c-75 18 -127 58 -127 139c0 94 79 144 175 144c78 0 126 -23 150 -35v-90h-64c-10 53 -38 79 -94 79c-59 0 -92 -29 -92 -77c0 -42 19 -65 80 -79l59 -14
c94 -22 137 -64 137 -136c0 -100 -74 -165 -191 -165zM351 564l-137 85l-137 -85l-25 30l162 153l162 -153z" />
    <glyph glyph-name="Scedilla" unicode="&#x15e;" horiz-adv-x="538" 
d="M343 -113c0 -55 -32 -85 -99 -85c-38 0 -62 12 -81 25l16 32c22 -14 40 -18 62 -18s40 6 40 36c0 26 -36 32 -70 33v21l16 58c-94 4 -153 33 -187 55v124h69c13 -88 43 -132 150 -132c108 0 147 56 147 130c0 85 -37 110 -129 138l-69 21c-101 31 -155 84 -155 181
c0 114 84 195 223 195c99 0 154 -25 189 -51v-107h-65c-12 67 -41 111 -137 111c-79 0 -128 -44 -128 -117c0 -74 36 -98 121 -124l70 -21c97 -29 167 -84 167 -191c0 -126 -80 -204 -227 -211l-8 -29c62 -4 85 -38 85 -74z" />
    <glyph glyph-name="scedilla" unicode="&#x15f;" horiz-adv-x="431" 
d="M289 -113c0 -55 -32 -85 -99 -85c-38 0 -62 12 -81 25l16 32c22 -14 40 -18 62 -18s40 6 40 36c0 26 -36 32 -70 33v21l16 58c-74 5 -115 27 -136 41v97h67c7 -68 37 -93 107 -93c57 0 103 23 103 87c0 54 -29 73 -86 87l-59 14c-75 18 -127 58 -127 139
c0 94 79 144 175 144c78 0 126 -23 150 -35v-90h-64c-10 53 -38 79 -94 79c-59 0 -92 -29 -92 -77c0 -42 19 -65 80 -79l59 -14c94 -22 137 -64 137 -136c0 -97 -70 -161 -181 -165l-8 -27c62 -4 85 -38 85 -74z" />
    <glyph glyph-name="Scaron" unicode="&#x160;" horiz-adv-x="538" 
d="M245 -11c-105 0 -169 32 -205 55v124h69c13 -88 43 -132 150 -132c108 0 147 56 147 130c0 85 -37 110 -129 138l-69 21c-101 31 -155 84 -155 181c0 114 84 195 223 195c99 0 154 -25 189 -51v-107h-65c-12 67 -41 111 -137 111c-79 0 -128 -44 -128 -117
c0 -74 36 -98 121 -124l70 -21c97 -29 167 -84 167 -191c0 -132 -88 -212 -248 -212zM280 826l137 81l25 -30l-162 -149l-162 149l25 30z" />
    <glyph glyph-name="scaron" unicode="&#x161;" horiz-adv-x="431" 
d="M202 -12c-92 0 -141 27 -165 42v97h67c7 -68 37 -93 107 -93c57 0 103 23 103 87c0 54 -29 73 -86 87l-59 14c-75 18 -127 58 -127 139c0 94 79 144 175 144c78 0 126 -23 150 -35v-90h-64c-10 53 -38 79 -94 79c-59 0 -92 -29 -92 -77c0 -42 19 -65 80 -79l59 -14
c94 -22 137 -64 137 -136c0 -100 -74 -165 -191 -165zM214 645l137 85l25 -30l-162 -153l-162 153l25 30z" />
    <glyph glyph-name="Tcommaaccent" unicode="&#x162;" horiz-adv-x="551" 
d="M368 -113c0 -55 -32 -85 -99 -85c-38 0 -62 12 -81 25l16 32c22 -14 40 -18 62 -18s40 6 40 36c0 26 -36 32 -70 33v21l20 69h-118v35c67 2 90 13 90 76v529h-77c-60 0 -68 -23 -84 -108h-47l8 157h495l8 -157h-47c-16 85 -24 108 -84 108h-77v-529c0 -63 23 -74 90 -76
v-35h-119l-11 -39c62 -4 85 -38 85 -74z" />
    <glyph glyph-name="tcommaaccent" unicode="&#x163;" horiz-adv-x="321" 
d="M298 491l-14 -55h-106v-302c0 -78 14 -96 64 -96c17 0 36 3 57 10l8 -36c-33 -17 -65 -26 -99 -26h-4l-7 -25c62 -4 85 -38 85 -74c0 -55 -32 -85 -99 -85c-38 0 -62 12 -81 25l16 32c22 -14 40 -18 62 -18s40 6 40 36c0 26 -36 32 -70 33v21l17 60
c-51 11 -80 50 -80 130v315h-60v32l67 23c9 47 24 101 47 138l47 12c-5 -36 -9 -99 -9 -150h119z" />
    <glyph glyph-name="Tcaron" unicode="&#x164;" horiz-adv-x="551" 
d="M28 689h495l8 -157h-47c-16 85 -24 108 -84 108h-77v-529c0 -63 23 -74 90 -76v-35h-275v35c67 2 90 13 90 76v529h-77c-60 0 -68 -23 -84 -108h-47zM276 826l137 81l25 -30l-162 -149l-162 149l25 30z" />
    <glyph glyph-name="tcaron" unicode="&#x165;" horiz-adv-x="321" 
d="M298 491l-14 -55h-106v-302c0 -78 14 -96 64 -96c17 0 36 3 57 10l8 -36c-33 -17 -65 -26 -99 -26c-75 0 -121 35 -121 135v315h-60v32l67 23c9 47 24 101 47 138l47 12c-5 -36 -9 -99 -9 -150h119zM360 715l-62 -188l-44 11l15 192z" />
    <glyph glyph-name="Tbar" unicode="&#x166;" horiz-adv-x="551" 
d="M28 689h495l8 -157h-47c-16 85 -24 108 -84 108h-77v-257h128v-46h-128v-226c0 -63 23 -74 90 -76v-35h-275v35c67 2 90 13 90 76v226h-120v46h120v257h-77c-60 0 -68 -23 -84 -108h-47z" />
    <glyph glyph-name="tbar" unicode="&#x167;" horiz-adv-x="321" 
d="M298 491l-14 -55h-106v-91h117v-41h-117v-170c0 -78 14 -96 64 -96c17 0 36 3 57 10l8 -36c-33 -17 -65 -26 -99 -26c-75 0 -121 35 -121 135v183h-60v41h60v91h-60v32l67 23c9 47 24 101 47 138l47 12c-5 -36 -9 -99 -9 -150h119z" />
    <glyph glyph-name="Utilde" unicode="&#x168;" horiz-adv-x="684" 
d="M517 224v354c0 57 -13 74 -85 76v35h224v-35c-61 -2 -72 -19 -72 -76v-354c0 -165 -83 -235 -234 -235c-166 0 -247 79 -247 228v361c0 57 -13 74 -75 76v35h255v-35c-72 -2 -85 -19 -85 -76v-339c0 -133 37 -190 166 -190c111 0 153 51 153 175zM424 818
c35 0 56 18 73 45l36 -14c-17 -51 -50 -95 -109 -95c-69 0 -95 44 -138 44c-38 0 -54 -20 -71 -47l-34 13c14 55 45 100 105 100c66 0 89 -46 138 -46z" />
    <glyph glyph-name="utilde" unicode="&#x169;" horiz-adv-x="580" 
d="M481 504v-366c0 -73 14 -83 73 -85v-30l-121 -36h-15c-11 27 -19 56 -22 89c-45 -48 -91 -88 -167 -88c-80 0 -138 42 -138 133v228c0 73 -15 83 -70 85v30l139 40h22v-366c0 -62 27 -81 75 -81c60 0 93 25 133 64v228c0 73 -15 83 -70 85v30l139 40h22zM350 669
c32 0 51 15 66 42l35 -15c-15 -51 -48 -101 -101 -101c-54 0 -88 29 -124 29c-34 0 -49 -17 -64 -44l-33 14c12 55 43 106 97 106s83 -31 124 -31z" />
    <glyph glyph-name="Umacron" unicode="&#x16a;" horiz-adv-x="684" 
d="M517 224v354c0 57 -13 74 -85 76v35h224v-35c-61 -2 -72 -19 -72 -76v-354c0 -165 -83 -235 -234 -235c-166 0 -247 79 -247 228v361c0 57 -13 74 -75 76v35h255v-35c-72 -2 -85 -19 -85 -76v-339c0 -133 37 -190 166 -190c111 0 153 51 153 175zM497 769h-281v57h281
v-57z" />
    <glyph glyph-name="umacron" unicode="&#x16b;" horiz-adv-x="580" 
d="M481 504v-366c0 -73 14 -83 73 -85v-30l-121 -36h-15c-11 27 -19 56 -22 89c-45 -48 -91 -88 -167 -88c-80 0 -138 42 -138 133v228c0 73 -15 83 -70 85v30l139 40h22v-366c0 -62 27 -81 75 -81c60 0 93 25 133 64v228c0 73 -15 83 -70 85v30l139 40h22zM428 590h-281v57
h281v-57z" />
    <glyph glyph-name="Ubreve" unicode="&#x16c;" horiz-adv-x="684" 
d="M517 224v354c0 57 -13 74 -85 76v35h224v-35c-61 -2 -72 -19 -72 -76v-354c0 -165 -83 -235 -234 -235c-166 0 -247 79 -247 228v361c0 57 -13 74 -75 76v35h255v-35c-72 -2 -85 -19 -85 -76v-339c0 -133 37 -190 166 -190c111 0 153 51 153 175zM356 741
c-75 0 -142 71 -166 133l31 26c40 -48 78 -81 135 -81s95 33 135 81l31 -26c-24 -62 -91 -133 -166 -133z" />
    <glyph glyph-name="ubreve" unicode="&#x16d;" horiz-adv-x="580" 
d="M481 504v-366c0 -73 14 -83 73 -85v-30l-121 -36h-15c-11 27 -19 56 -22 89c-45 -48 -91 -88 -167 -88c-80 0 -138 42 -138 133v228c0 73 -15 83 -70 85v30l139 40h22v-366c0 -62 27 -81 75 -81c60 0 93 25 133 64v228c0 73 -15 83 -70 85v30l139 40h22zM288 567
c-72 0 -131 73 -152 135l31 22c32 -48 68 -79 119 -79s86 31 119 79l32 -22c-21 -62 -78 -135 -149 -135z" />
    <glyph glyph-name="Uring" unicode="&#x16e;" horiz-adv-x="684" 
d="M517 224v354c0 57 -13 74 -85 76v35h224v-35c-61 -2 -72 -19 -72 -76v-354c0 -165 -83 -235 -234 -235c-166 0 -247 79 -247 228v361c0 57 -13 74 -75 76v35h255v-35c-72 -2 -85 -19 -85 -76v-339c0 -133 37 -190 166 -190c111 0 153 51 153 175zM356 719
c-59 0 -101 44 -101 102s42 102 101 102c60 0 102 -44 102 -102s-42 -102 -102 -102zM356 888c-37 0 -61 -30 -61 -68c0 -36 24 -65 61 -65c38 0 62 29 62 65c0 38 -24 68 -62 68z" />
    <glyph glyph-name="uring" unicode="&#x16f;" horiz-adv-x="580" 
d="M481 504v-366c0 -73 14 -83 73 -85v-30l-121 -36h-15c-11 27 -19 56 -22 89c-45 -48 -91 -88 -167 -88c-80 0 -138 42 -138 133v228c0 73 -15 83 -70 85v30l139 40h22v-366c0 -62 27 -81 75 -81c60 0 93 25 133 64v228c0 73 -15 83 -70 85v30l139 40h22zM287 560
c-59 0 -101 44 -101 102s42 102 101 102c60 0 102 -44 102 -102s-42 -102 -102 -102zM287 729c-37 0 -61 -30 -61 -68c0 -36 24 -65 61 -65c38 0 62 29 62 65c0 38 -24 68 -62 68z" />
    <glyph glyph-name="Uhungarumlaut" unicode="&#x170;" horiz-adv-x="684" 
d="M517 224v354c0 57 -13 74 -85 76v35h224v-35c-61 -2 -72 -19 -72 -76v-354c0 -165 -83 -235 -234 -235c-166 0 -247 79 -247 228v361c0 57 -13 74 -75 76v35h255v-35c-72 -2 -85 -19 -85 -76v-339c0 -133 37 -190 166 -190c111 0 153 51 153 175zM377 901l-96 -174
l-42 18l52 192zM557 873l-124 -152l-37 26l84 175z" />
    <glyph glyph-name="uhungarumlaut" unicode="&#x171;" horiz-adv-x="580" 
d="M481 504v-366c0 -73 14 -83 73 -85v-30l-121 -36h-15c-11 27 -19 56 -22 89c-45 -48 -91 -88 -167 -88c-80 0 -138 42 -138 133v228c0 73 -15 83 -70 85v30l139 40h22v-366c0 -62 27 -81 75 -81c60 0 93 25 133 64v228c0 73 -15 83 -70 85v30l139 40h22zM329 770
l-113 -207l-42 18l70 225zM513 740l-145 -183l-37 26l104 208z" />
    <glyph glyph-name="Uogonek" unicode="&#x172;" horiz-adv-x="684" 
d="M480 -144l16 -24c-24 -23 -53 -37 -95 -37c-63 0 -98 35 -98 86c0 43 25 79 70 109c-8 -1 -15 -1 -23 -1c-166 0 -247 79 -247 228v361c0 57 -13 74 -75 76v35h255v-35c-72 -2 -85 -19 -85 -76v-339c0 -133 37 -190 166 -190c111 0 153 51 153 175v354
c0 57 -13 74 -85 76v35h224v-35c-61 -2 -72 -19 -72 -76v-354c0 -124 -48 -185 -116 -214c-71 -30 -85 -76 -85 -115c0 -31 17 -52 44 -52c18 0 31 2 53 13z" />
    <glyph glyph-name="uogonek" unicode="&#x173;" horiz-adv-x="580" 
d="M513 -144l16 -24c-24 -23 -53 -37 -95 -37c-63 0 -98 35 -98 86c0 45 30 83 80 111c-5 13 -17 46 -20 84c-45 -48 -91 -88 -167 -88c-80 0 -138 42 -138 133v228c0 73 -15 83 -70 85v30l139 40h22v-366c0 -62 27 -81 75 -81c60 0 93 25 133 64v228c0 73 -15 83 -70 85v30
l139 40h22v-366c0 -73 14 -83 73 -85v-30l-35 -10c-80 -24 -103 -68 -103 -118c0 -31 17 -52 44 -52c18 0 31 2 53 13z" />
    <glyph glyph-name="Wcircumflex" unicode="&#x174;" horiz-adv-x="897" 
d="M580 0l-109 438c-11 43 -18 98 -21 121h-4c-3 -19 -12 -74 -23 -121l-103 -438h-96l-128 566c-14 64 -28 83 -80 88v35h241v-35c-49 -4 -70 -14 -70 -44c0 -12 1 -18 3 -28l66 -298c14 -63 24 -148 27 -176h6c4 20 18 93 38 176l97 405h75l101 -406
c19 -76 35 -152 40 -175h6c3 19 16 100 32 175l61 277c4 20 5 32 5 41c0 38 -21 50 -73 53v35h209v-35c-48 -7 -65 -34 -80 -97l-128 -557h-92zM595 728l-137 81l-137 -81l-25 30l162 149l162 -149z" />
    <glyph glyph-name="wcircumflex" unicode="&#x175;" horiz-adv-x="747" 
d="M345 253l-74 -258h-73l-126 392c-17 54 -31 65 -70 70v34h214v-34c-32 -2 -57 -6 -57 -31c0 -7 1 -14 5 -28l60 -199c9 -30 21 -84 24 -99h4c3 14 12 55 24 98l80 293h63l95 -292c12 -36 21 -82 24 -99h4c6 27 16 65 24 98l51 200c3 10 4 18 4 26c0 21 -13 31 -56 33v34
h180v-34c-43 -5 -55 -18 -70 -70l-114 -392h-71l-80 258c-17 56 -28 105 -32 121h-4c-3 -16 -15 -71 -29 -121zM520 564l-137 85l-137 -85l-25 30l162 153l162 -153z" />
    <glyph glyph-name="Ycircumflex" unicode="&#x176;" horiz-adv-x="594" 
d="M319 345h4l108 234c8 18 12 31 12 43c0 23 -21 30 -59 32v35h199v-35c-40 -5 -60 -19 -97 -93l-137 -279v-171c0 -57 15 -74 85 -76v-35h-265v35c70 2 85 19 85 76v165l-149 296c-32 64 -55 77 -94 82v35h238v-35c-38 -1 -53 -10 -53 -30c0 -13 5 -27 14 -47zM448 728
l-137 81l-137 -81l-25 30l162 149l162 -149z" />
    <glyph glyph-name="ycircumflex" unicode="&#x177;" horiz-adv-x="505" 
d="M105 -213l-24 69c76 19 128 40 159 146l-36 -5c-13 52 -28 105 -52 172l-80 218c-19 51 -34 65 -73 70v34h222v-34c-49 -2 -64 -11 -64 -31c0 -7 3 -16 7 -28l72 -202c21 -60 31 -110 35 -132h3c3 16 11 56 29 111l72 223c3 9 5 17 6 23c3 24 -9 34 -63 36v34h188v-34
c-40 -5 -54 -16 -73 -70l-140 -403c-42 -121 -89 -177 -188 -197zM407 564l-137 85l-137 -85l-25 30l162 153l162 -153z" />
    <glyph glyph-name="Ydieresis" unicode="&#x178;" horiz-adv-x="594" 
d="M319 345h4l108 234c8 18 12 31 12 43c0 23 -21 30 -59 32v35h199v-35c-40 -5 -60 -19 -97 -93l-137 -279v-171c0 -57 15 -74 85 -76v-35h-265v35c70 2 85 19 85 76v165l-149 296c-32 64 -55 77 -94 82v35h238v-35c-38 -1 -53 -10 -53 -30c0 -13 5 -27 14 -47zM267 787
c0 -34 -26 -60 -60 -60s-60 26 -60 60s26 60 60 60s60 -26 60 -60zM476 787c0 -34 -26 -60 -60 -60s-60 26 -60 60s26 60 60 60s60 -26 60 -60z" />
    <glyph glyph-name="Zacute" unicode="&#x179;" horiz-adv-x="519" 
d="M497 633l-374 -584h197c77 0 106 33 126 123h44l-15 -172h-451v56l374 584h-186c-67 0 -97 -35 -117 -113h-44l14 162h432v-56zM183 727l-20 34l191 128l43 -92z" />
    <glyph glyph-name="zacute" unicode="&#x17a;" horiz-adv-x="455" 
d="M432 153l-24 -153h-368v49l281 393h-122c-68 0 -83 -18 -94 -93h-43v142h358v-53l-278 -389h111c94 0 105 20 134 104h45zM151 566l-20 34l179 153l53 -91z" />
    <glyph glyph-name="Zdotaccent" unicode="&#x17b;" horiz-adv-x="519" 
d="M497 633l-374 -584h197c77 0 106 33 126 123h44l-15 -172h-451v56l374 584h-186c-67 0 -97 -35 -117 -113h-44l14 162h432v-56zM341 808c0 -35 -27 -63 -62 -63s-62 28 -62 63s27 63 62 63s62 -28 62 -63z" />
    <glyph glyph-name="zdotaccent" unicode="&#x17c;" horiz-adv-x="455" 
d="M432 153l-24 -153h-368v49l281 393h-122c-68 0 -83 -18 -94 -93h-43v142h358v-53l-278 -389h111c94 0 105 20 134 104h45zM310 644c0 -35 -27 -63 -62 -63s-62 28 -62 63s27 63 62 63s62 -28 62 -63z" />
    <glyph glyph-name="Zcaron" unicode="&#x17d;" horiz-adv-x="519" 
d="M497 633l-374 -584h197c77 0 106 33 126 123h44l-15 -172h-451v56l374 584h-186c-67 0 -97 -35 -117 -113h-44l14 162h432v-56zM280 826l137 81l25 -30l-162 -149l-162 149l25 30z" />
    <glyph glyph-name="zcaron" unicode="&#x17e;" horiz-adv-x="455" 
d="M432 153l-24 -153h-368v49l281 393h-122c-68 0 -83 -18 -94 -93h-43v142h358v-53l-278 -389h111c94 0 105 20 134 104h45zM247 645l137 85l25 -30l-162 -153l-162 153l25 30z" />
    <glyph glyph-name="longs" unicode="&#x17f;" horiz-adv-x="316" 
d="M190 586v-482c0 -54 11 -67 89 -70v-34h-250v34c57 4 70 13 70 70v332h-63v32l63 23v94c0 92 65 145 159 145c38 0 74 -8 98 -18v-83h-61c-5 33 -19 52 -46 52c-38 0 -59 -26 -59 -95z" />
    <glyph glyph-name="uni018F" unicode="&#x18f;" horiz-adv-x="608" 
d="M266 632c-69 0 -135 -31 -182 -68l-24 34c42 47 118 103 229 103c182 0 275 -138 275 -360s-89 -352 -266 -352c-154 0 -251 107 -251 267c0 38 3 66 11 97h406c-4 195 -69 279 -198 279zM298 34c133 0 166 112 166 270h-318c-2 -20 -3 -40 -3 -58
c0 -139 57 -212 155 -212z" />
    <glyph glyph-name="florin" unicode="&#x192;" horiz-adv-x="326" 
d="M37 383l3 34l73 13l7 111c7 106 71 160 166 160c38 0 77 -8 100 -18l-7 -83h-64c-4 32 -12 58 -41 58c-36 0 -62 -19 -67 -88l-11 -143h116v-44h-120l-32 -427c-7 -89 -60 -155 -152 -155l-7 26c51 16 73 45 78 124l30 432h-72z" />
    <glyph glyph-name="uni01B5" unicode="&#x1b5;" horiz-adv-x="519" 
d="M497 633l-162 -250h116v-46h-145l-186 -288h200c77 0 106 33 126 123h44l-15 -172h-451v56l181 281h-117v46h147l166 257h-189c-67 0 -97 -35 -117 -113h-44l14 162h432v-56z" />
    <glyph glyph-name="uni01B6" unicode="&#x1b6;" horiz-adv-x="455" 
d="M432 153l-24 -153h-368v49l135 189h-93v41h122l117 163h-122c-68 0 -83 -18 -94 -93h-43v142h358v-53l-114 -159h84v-41h-113l-135 -189h111c94 0 105 20 134 104h45z" />
    <glyph glyph-name="Aringacute" unicode="&#x1fa;" horiz-adv-x="657" 
d="M227 910l-20 34l191 128l43 -92zM459 107l-33 108h-230l-33 -108c-4 -14 -6 -26 -6 -35c0 -29 22 -35 73 -37v-35h-214v35c48 4 64 19 86 86l184 568h89l182 -566c18 -56 32 -84 84 -88v-35h-245v35c48 2 68 13 68 42c0 10 -3 23 -5 30zM257 411l-46 -148h201l-45 148
c-27 88 -45 161 -52 191h-4c-11 -40 -26 -100 -54 -191zM329 710c-59 0 -101 44 -101 102s42 102 101 102c60 0 102 -44 102 -102s-42 -102 -102 -102zM329 879c-37 0 -61 -30 -61 -68c0 -36 24 -65 61 -65c38 0 62 29 62 65c0 38 -24 68 -62 68z" />
    <glyph glyph-name="aringacute" unicode="&#x1fb;" horiz-adv-x="512" 
d="M420 131c0 -75 9 -88 74 -93v-33c-15 -6 -43 -11 -69 -11c-71 0 -86 29 -91 71c-17 -30 -62 -80 -137 -80c-96 0 -161 51 -161 143c0 120 105 161 262 161c12 0 22 0 35 -1v44c0 86 -20 124 -91 124c-84 0 -108 -44 -116 -90h-63v89c42 23 119 51 187 51
c112 0 174 -51 174 -168c0 -30 -4 -116 -4 -207zM331 240c-14 1 -22 2 -35 2c-114 0 -163 -31 -163 -107c0 -71 28 -93 86 -93c47 0 86 33 109 73zM255 547c-59 0 -101 44 -101 102s42 102 101 102c60 0 102 -44 102 -102s-42 -102 -102 -102zM255 716
c-37 0 -61 -30 -61 -68c0 -36 24 -65 61 -65c38 0 62 29 62 65c0 38 -24 68 -62 68zM158 768l-20 34l191 128l43 -92z" />
    <glyph glyph-name="AEacute" unicode="&#x1fc;" horiz-adv-x="904" 
d="M109 105l253 476c7 13 11 25 11 35c0 23 -22 36 -73 38v35h546l10 -150h-42c-22 76 -38 101 -96 101h-167v-256h93c62 0 82 14 86 71h41v-190h-41c-4 54 -23 71 -85 71h-94v-287h168c77 0 96 23 104 116h45v-165h-492v35c67 2 80 19 80 76v134h-207l-77 -145
c-8 -15 -13 -27 -13 -36c0 -19 18 -27 57 -29v-35h-200v35c47 4 63 14 93 70zM457 643l-184 -350h183v164c0 83 3 140 5 186h-4zM513 727l-20 34l191 128l43 -92z" />
    <glyph glyph-name="aeacute" unicode="&#x1fd;" horiz-adv-x="770" 
d="M390 446c38 39 90 61 148 61c126 0 200 -87 200 -239v-27h-319c2 -145 52 -192 157 -192c43 0 98 19 133 42l21 -34c-48 -37 -107 -68 -178 -68c-79 0 -141 29 -180 83c-33 -49 -88 -83 -175 -83c-96 0 -161 47 -161 139c0 120 105 162 262 162h29v46
c-1 83 -16 120 -85 120c-84 0 -108 -44 -116 -90h-63v89c42 23 119 51 187 51s114 -19 140 -60zM536 459c-68 0 -109 -41 -116 -169h223c0 122 -31 169 -107 169zM219 49c52 0 93 24 126 72c-14 34 -18 74 -19 120h-30c-114 0 -163 -30 -163 -106c0 -71 42 -86 86 -86z
M325 566l-20 34l179 153l53 -91z" />
    <glyph glyph-name="Oslashacute" unicode="&#x1fe;" horiz-adv-x="674" 
d="M585 726l-57 -95c71 -67 102 -175 102 -291c0 -211 -108 -351 -290 -351c-67 0 -122 17 -166 48l-58 -98l-40 22l62 106c-63 64 -94 163 -94 280c0 227 115 354 291 354c62 0 113 -15 154 -40l53 88zM526 331c0 98 -12 176 -39 231l-279 -469c30 -38 73 -59 132 -59
c116 0 186 86 186 297zM335 654c-132 0 -189 -101 -189 -296c0 -89 10 -164 35 -219l276 467c-30 31 -70 48 -122 48zM240 727l-20 34l191 128l43 -92z" />
    <glyph glyph-name="oslashacute" unicode="&#x1ff;" horiz-adv-x="532" 
d="M468 539l-53 -88c53 -47 81 -122 81 -209c0 -159 -97 -254 -230 -254c-42 0 -81 10 -114 27l-52 -87l-37 22l54 90c-51 44 -81 115 -81 207c0 162 96 259 228 259c44 0 82 -10 114 -28l50 84zM134 257c0 -65 6 -115 22 -151l191 320c-22 21 -50 31 -83 31
c-100 0 -130 -76 -130 -200zM398 238c0 63 -8 111 -24 146l-191 -318c20 -20 48 -29 85 -29c86 0 130 72 130 201zM170 566l-20 34l179 153l53 -91z" />
    <glyph glyph-name="Scommaaccent" unicode="&#x218;" horiz-adv-x="538" 
d="M245 -11c-105 0 -169 32 -205 55v124h69c13 -88 43 -132 150 -132c108 0 147 56 147 130c0 85 -37 110 -129 138l-69 21c-101 31 -155 84 -155 181c0 114 84 195 223 195c99 0 154 -25 189 -51v-107h-65c-12 67 -41 111 -137 111c-79 0 -128 -44 -128 -117
c0 -74 36 -98 121 -124l70 -21c97 -29 167 -84 167 -191c0 -132 -88 -212 -248 -212zM334 -141c0 -62 -43 -118 -127 -135l-19 27c54 17 67 35 67 58c0 13 -8 19 -27 26c-17 7 -31 20 -31 48c0 30 26 55 65 55c47 0 72 -33 72 -79z" />
    <glyph glyph-name="scommaaccent" unicode="&#x219;" horiz-adv-x="431" 
d="M202 -12c-92 0 -141 27 -165 42v97h67c7 -68 37 -93 107 -93c57 0 103 23 103 87c0 54 -29 73 -86 87l-59 14c-75 18 -127 58 -127 139c0 94 79 144 175 144c78 0 126 -23 150 -35v-90h-64c-10 53 -38 79 -94 79c-59 0 -92 -29 -92 -77c0 -42 19 -65 80 -79l59 -14
c94 -22 137 -64 137 -136c0 -100 -74 -165 -191 -165zM288 -141c0 -62 -43 -118 -127 -135l-19 27c54 17 67 35 67 58c0 13 -8 19 -27 26c-17 7 -31 20 -31 48c0 30 26 55 65 55c47 0 72 -33 72 -79z" />
    <glyph glyph-name="uni021A" unicode="&#x21a;" horiz-adv-x="551" 
d="M28 689h495l8 -157h-47c-16 85 -24 108 -84 108h-77v-529c0 -63 23 -74 90 -76v-35h-275v35c67 2 90 13 90 76v529h-77c-60 0 -68 -23 -84 -108h-47zM349 -141c0 -62 -43 -118 -127 -135l-19 27c54 17 67 35 67 58c0 13 -8 19 -27 26c-17 7 -31 20 -31 48
c0 30 26 55 65 55c47 0 72 -33 72 -79z" />
    <glyph glyph-name="uni021B" unicode="&#x21b;" horiz-adv-x="321" 
d="M298 491l-14 -55h-106v-302c0 -78 14 -96 64 -96c17 0 36 3 57 10l8 -36c-33 -17 -65 -26 -99 -26c-75 0 -121 35 -121 135v315h-60v32l67 23c9 47 24 101 47 138l47 12c-5 -36 -9 -99 -9 -150h119zM233 -141c0 -62 -43 -118 -127 -135l-19 27c54 17 67 35 67 58
c0 13 -8 19 -27 26c-17 7 -31 20 -31 48c0 30 26 55 65 55c47 0 72 -33 72 -79z" />
    <glyph glyph-name="uni0237" unicode="&#x237;" horiz-adv-x="269" 
d="M99 12v337c0 73 -14 83 -73 85v30l149 40h15v-493c0 -148 -57 -177 -142 -217l-29 40c61 28 80 75 80 178z" />
    <glyph glyph-name="uni0259" unicode="&#x259;" horiz-adv-x="483" 
d="M198 444c-47 0 -102 -19 -137 -42l-21 34c44 37 98 70 186 70c135 0 221 -96 221 -260c0 -163 -92 -258 -215 -258c-119 0 -199 73 -199 210c0 19 2 40 6 56h312c0 139 -52 190 -153 190zM234 36c68 0 109 41 116 169h-223v-21c0 -104 36 -148 107 -148z" />
    <glyph glyph-name="uni02BB" unicode="&#x2bb;" horiz-adv-x="267" 
d="M59 537c0 77 50 144 134 168l21 -29c-57 -22 -81 -51 -81 -80c0 -16 8 -22 35 -32c16 -6 41 -23 41 -57c0 -38 -30 -69 -71 -69c-46 0 -79 41 -79 99z" />
    <glyph glyph-name="afii57929" unicode="&#x2bc;" horiz-adv-x="267" 
d="M208 605c0 -77 -50 -144 -134 -168l-21 29c57 22 81 51 81 80c0 17 -12 23 -30 30c-22 8 -46 25 -46 59c0 38 30 69 71 69c46 0 79 -41 79 -99z" />
    <glyph glyph-name="circumflex" unicode="&#x2c6;" horiz-adv-x="484" 
d="M379 564l-137 85l-137 -85l-25 30l162 153l162 -153z" />
    <glyph glyph-name="caron" unicode="&#x2c7;" horiz-adv-x="484" 
d="M242 645l137 85l25 -30l-162 -153l-162 153l25 30z" />
    <glyph glyph-name="breve" unicode="&#x2d8;" horiz-adv-x="461" 
d="M232 567c-72 0 -131 73 -152 135l31 22c32 -48 68 -79 119 -79s86 31 119 79l32 -22c-21 -62 -78 -135 -149 -135z" />
    <glyph glyph-name="dotaccent" unicode="&#x2d9;" horiz-adv-x="284" 
d="M204 644c0 -35 -27 -63 -62 -63s-62 28 -62 63s27 63 62 63s62 -28 62 -63z" />
    <glyph glyph-name="ring" unicode="&#x2da;" horiz-adv-x="363" 
d="M181 560c-59 0 -101 44 -101 102s42 102 101 102c60 0 102 -44 102 -102s-42 -102 -102 -102zM181 729c-37 0 -61 -30 -61 -68c0 -36 24 -65 61 -65c38 0 62 29 62 65c0 38 -24 68 -62 68z" />
    <glyph glyph-name="ogonek" unicode="&#x2db;" horiz-adv-x="288" 
d="M224 -144l16 -24c-24 -23 -53 -37 -95 -37c-63 0 -98 35 -98 86c0 58 46 105 127 138l21 -16c-54 -31 -68 -69 -68 -108c0 -31 17 -52 44 -52c18 0 31 2 53 13z" />
    <glyph glyph-name="tilde" unicode="&#x2dc;" horiz-adv-x="482" 
d="M301 669c32 0 51 15 66 42l35 -15c-15 -51 -48 -101 -101 -101c-54 0 -88 29 -124 29c-34 0 -49 -17 -64 -44l-33 14c12 55 43 106 97 106s83 -31 124 -31z" />
    <glyph glyph-name="hungarumlaut" unicode="&#x2dd;" horiz-adv-x="499" 
d="M235 770l-113 -207l-42 18l70 225zM419 740l-145 -183l-37 26l104 208z" />
    <glyph glyph-name="gravecomb" unicode="&#x300;" 
d="M-163 600l-20 -34l-212 96l53 91z" />
    <glyph glyph-name="acutecomb" unicode="&#x301;" 
d="M-361 566l-20 34l179 153l53 -91z" />
    <glyph glyph-name="uni0302" unicode="&#x302;" 
d="M-129 564l-137 85l-137 -85l-25 30l162 153l162 -153z" />
    <glyph glyph-name="tildecomb" unicode="&#x303;" 
d="M-202 669c32 0 51 15 66 42l35 -15c-15 -51 -48 -101 -101 -101c-54 0 -88 29 -124 29c-34 0 -49 -17 -64 -44l-33 14c12 55 43 106 97 106s83 -31 124 -31z" />
    <glyph glyph-name="uni0304" unicode="&#x304;" 
d="M-79 616h-281v57h281v-57z" />
    <glyph glyph-name="uni0306" unicode="&#x306;" 
d="M-228 547c-72 0 -131 73 -152 135l31 22c32 -48 68 -79 119 -79s86 31 119 79l32 -22c-21 -62 -78 -135 -149 -135z" />
    <glyph glyph-name="uni0307" unicode="&#x307;" 
d="M-85 644c0 -35 -27 -63 -62 -63s-62 28 -62 63s27 63 62 63s62 -28 62 -63z" />
    <glyph glyph-name="uni0308" unicode="&#x308;" 
d="M-288 638c0 -34 -26 -60 -60 -60s-60 26 -60 60s26 60 60 60s60 -26 60 -60zM-79 638c0 -34 -26 -60 -60 -60s-60 26 -60 60s26 60 60 60s60 -26 60 -60z" />
    <glyph glyph-name="uni030A" unicode="&#x30a;" 
d="M-181 560c-59 0 -101 44 -101 102s42 102 101 102c60 0 102 -44 102 -102s-42 -102 -102 -102zM-181 729c-37 0 -61 -30 -61 -68c0 -36 24 -65 61 -65c38 0 62 29 62 65c0 38 -24 68 -62 68z" />
    <glyph glyph-name="uni030B" unicode="&#x30b;" 
d="M-263 779l-113 -207l-42 18l70 225zM-79 749l-145 -183l-37 26l104 208z" />
    <glyph glyph-name="uni030C" unicode="&#x30c;" 
d="M-207 645l137 85l25 -30l-162 -153l-162 153l25 30z" />
    <glyph glyph-name="uni0312" unicode="&#x312;" 
d="M-232 645c0 62 43 118 127 135l19 -27c-54 -17 -67 -35 -67 -58c0 -13 8 -19 27 -26c17 -7 31 -20 31 -48c0 -30 -26 -55 -65 -55c-47 0 -72 33 -72 79z" />
    <glyph glyph-name="uni0313" unicode="&#x313;" 
d="M-88 715l-62 -188l-44 11l15 192z" />
    <glyph glyph-name="dotbelowcomb" unicode="&#x323;" 
d="M200 -116c0 -35 -27 -63 -62 -63s-62 28 -62 63s27 63 62 63s62 -28 62 -63z" />
    <glyph glyph-name="uni0326" unicode="&#x326;" 
d="M218 -141c0 -62 -43 -118 -127 -135l-19 27c54 17 67 35 67 58c0 13 -8 19 -27 26c-17 7 -31 20 -31 48c0 30 26 55 65 55c47 0 72 -33 72 -79z" />
    <glyph glyph-name="uni0327" unicode="&#x327;" 
d="M-54 -113c0 -55 -32 -85 -99 -85c-38 0 -62 12 -81 25l16 32c22 -14 40 -18 62 -18s40 6 40 36c0 26 -36 32 -70 33v21l23 80l37 -6l-13 -44c62 -4 85 -38 85 -74z" />
    <glyph glyph-name="uni0328" unicode="&#x328;" 
d="M-63 -137l16 -24c-24 -23 -53 -37 -95 -37c-63 0 -98 35 -98 86c0 58 46 105 127 138l21 -16c-54 -31 -68 -69 -68 -108c0 -31 17 -52 44 -52c18 0 31 2 53 13z" />
    <glyph glyph-name="uni0335" unicode="&#x335;" 
d="M-79 217h-281v57h281v-57z" />
    <glyph glyph-name="uni0336" unicode="&#x336;" 
d="M-54 220h-705v51h705v-51z" />
    <glyph glyph-name="uni037E" unicode="&#x37e;" horiz-adv-x="327" 
d="M238 31c0 -78 -57 -150 -143 -174l-20 31c58 22 88 54 88 83c0 19 -15 23 -36 33c-18 8 -42 23 -42 58c0 38 31 70 72 70c47 0 81 -42 81 -101zM227 373c0 -41 -30 -73 -71 -73s-71 32 -71 73s30 73 71 73s71 -32 71 -73z" />
    <glyph glyph-name="tonos" unicode="&#x384;" horiz-adv-x="392" 
d="M192 545l-52 4l39 191l90 -21z" />
    <glyph glyph-name="dieresistonos" unicode="&#x385;" horiz-adv-x="489" 
d="M165 608c0 -34 -26 -60 -60 -60s-60 26 -60 60s26 60 60 60s60 -26 60 -60zM444 608c0 -34 -26 -60 -60 -60s-60 26 -60 60s26 60 60 60s60 -26 60 -60zM260 571l-52 4l25 192l90 -21z" />
    <glyph glyph-name="Alphatonos" unicode="&#x386;" horiz-adv-x="657" 
d="M459 107l-33 108h-230l-33 -108c-4 -14 -6 -26 -6 -35c0 -29 22 -35 73 -37v-35h-214v35c48 4 64 19 86 86l184 568h89l182 -566c18 -56 32 -84 84 -88v-35h-245v35c48 2 68 13 68 42c0 10 -3 23 -5 30zM257 411l-46 -148h201l-45 148c-27 88 -45 161 -52 191h-4
c-11 -40 -26 -100 -54 -191zM137 510l-52 4l39 191l90 -21z" />
    <glyph glyph-name="anoteleia" unicode="&#x387;" horiz-adv-x="291" 
d="M216 278c0 -41 -32 -75 -71 -75s-70 34 -70 75c0 42 31 74 70 74s71 -32 71 -74z" />
    <glyph glyph-name="Epsilontonos" unicode="&#x388;" horiz-adv-x="565" 
d="M37 0v35c67 2 80 19 80 76v467c0 57 -13 74 -80 76v35h470l10 -150h-42c-22 76 -38 101 -96 101h-167v-256h93c62 0 82 14 86 71h41v-190h-41c-4 54 -23 71 -85 71h-94v-287h168c77 0 96 23 104 116h45v-165h-492zM-59 510l-52 4l39 191l90 -21z" />
    <glyph glyph-name="Etatonos" unicode="&#x389;" horiz-adv-x="708" 
d="M496 111v229h-284v-229c0 -57 13 -74 80 -76v-35h-255v35c67 2 80 19 80 76v467c0 57 -13 74 -80 76v35h255v-35c-67 -2 -80 -19 -80 -76v-188h284v188c0 57 -13 74 -80 76v35h255v-35c-67 -2 -80 -19 -80 -76v-467c0 -57 13 -74 80 -76v-35h-255v35c67 2 80 19 80 76z
M-59 510l-52 4l39 191l90 -21z" />
    <glyph glyph-name="Iotatonos" unicode="&#x38a;" horiz-adv-x="329" 
d="M117 111v467c0 57 -13 74 -80 76v35h255v-35c-67 -2 -80 -19 -80 -76v-467c0 -57 13 -74 80 -76v-35h-255v35c67 2 80 19 80 76zM-59 510l-52 4l39 191l90 -21z" />
    <glyph glyph-name="Omicrontonos" unicode="&#x38c;" horiz-adv-x="674" 
d="M340 -11c-197 0 -296 151 -296 358c0 227 115 354 291 354c211 0 295 -169 295 -361c0 -211 -108 -351 -290 -351zM335 654c-132 0 -189 -101 -189 -296c0 -194 49 -324 194 -324c116 0 186 86 186 297c0 206 -51 323 -191 323zM21 510l-52 4l39 191l90 -21z" />
    <glyph glyph-name="Upsilontonos" unicode="&#x38e;" horiz-adv-x="594" 
d="M319 345h4l108 234c8 18 12 31 12 43c0 23 -21 30 -59 32v35h199v-35c-40 -5 -60 -19 -97 -93l-137 -279v-171c0 -57 15 -74 85 -76v-35h-265v35c70 2 85 19 85 76v165l-149 296c-32 64 -55 77 -94 82v35h238v-35c-38 -1 -53 -10 -53 -30c0 -13 5 -27 14 -47zM-85 510
l-52 4l39 191l90 -21z" />
    <glyph glyph-name="Omegatonos" unicode="&#x38f;" horiz-adv-x="700" 
d="M350 656c-133 0 -188 -108 -188 -272c0 -143 41 -241 149 -320v-64h-260l-13 151h40c16 -68 27 -76 104 -76h53c-90 66 -175 161 -175 308c0 176 110 318 290 318s290 -142 290 -318c0 -147 -85 -242 -175 -308h53c77 0 88 8 104 76h40l-13 -151h-260v64
c108 79 149 177 149 320c0 164 -53 272 -188 272zM41 510l-52 4l39 191l90 -21z" />
    <glyph glyph-name="iotadieresistonos" unicode="&#x390;" horiz-adv-x="275" 
d="M170 504v-382c0 -45 7 -74 55 -74c10 0 21 1 36 3v-38c-23 -13 -51 -22 -94 -22c-68 0 -91 51 -91 131v192c0 76 0 132 -3 175l78 15h19zM58 608c0 -34 -26 -60 -60 -60s-60 26 -60 60s26 60 60 60s60 -26 60 -60zM337 608c0 -34 -26 -60 -60 -60s-60 26 -60 60
s26 60 60 60s60 -26 60 -60zM153 571l-52 4l25 192l90 -21z" />
    <glyph glyph-name="Alpha" unicode="&#x391;" horiz-adv-x="657" 
d="M459 107l-33 108h-230l-33 -108c-4 -14 -6 -26 -6 -35c0 -29 22 -35 73 -37v-35h-214v35c48 4 64 19 86 86l184 568h89l182 -566c18 -56 32 -84 84 -88v-35h-245v35c48 2 68 13 68 42c0 10 -3 23 -5 30zM257 411l-46 -148h201l-45 148c-27 88 -45 161 -52 191h-4
c-11 -40 -26 -100 -54 -191z" />
    <glyph glyph-name="Beta" unicode="&#x392;" horiz-adv-x="607" 
d="M37 0v35c67 2 80 19 80 76v467c0 57 -13 74 -80 76v35h252c178 0 250 -60 250 -170c0 -72 -32 -125 -126 -149v-4c110 -17 161 -89 161 -177c0 -133 -112 -189 -241 -189h-296zM212 49h127c107 0 135 45 135 146c0 102 -32 140 -152 140h-110v-286zM212 383h103
c97 0 128 42 128 125c0 97 -35 132 -132 132h-99v-257z" />
    <glyph glyph-name="Gamma" unicode="&#x393;" horiz-adv-x="520" 
d="M212 640v-527c0 -57 17 -76 88 -78v-35h-263v35c67 2 80 19 80 76v467c0 57 -13 74 -80 76v35h456l15 -161h-44c-20 85 -43 112 -116 112h-136z" />
    <glyph glyph-name="uni0394" unicode="&#x394;" horiz-adv-x="573" 
d="M79 54h367l-148 432c-9 26 -26 85 -32 116h-4c-6 -31 -22 -82 -34 -118zM555 0h-543v35l226 654h87l230 -654v-35z" />
    <glyph glyph-name="Epsilon" unicode="&#x395;" horiz-adv-x="565" 
d="M37 0v35c67 2 80 19 80 76v467c0 57 -13 74 -80 76v35h470l10 -150h-42c-22 76 -38 101 -96 101h-167v-256h93c62 0 82 14 86 71h41v-190h-41c-4 54 -23 71 -85 71h-94v-287h168c77 0 96 23 104 116h45v-165h-492z" />
    <glyph glyph-name="Zeta" unicode="&#x396;" horiz-adv-x="519" 
d="M497 633l-374 -584h197c77 0 106 33 126 123h44l-15 -172h-451v56l374 584h-186c-67 0 -97 -35 -117 -113h-44l14 162h432v-56z" />
    <glyph glyph-name="Eta" unicode="&#x397;" horiz-adv-x="708" 
d="M496 111v229h-284v-229c0 -57 13 -74 80 -76v-35h-255v35c67 2 80 19 80 76v467c0 57 -13 74 -80 76v35h255v-35c-67 -2 -80 -19 -80 -76v-188h284v188c0 57 -13 74 -80 76v35h255v-35c-67 -2 -80 -19 -80 -76v-467c0 -57 13 -74 80 -76v-35h-255v35c67 2 80 19 80 76z
" />
    <glyph glyph-name="Theta" unicode="&#x398;" horiz-adv-x="684" 
d="M345 -11c-201 0 -301 151 -301 358c0 227 116 354 296 354c215 0 300 -169 300 -361c0 -211 -109 -351 -295 -351zM340 654c-136 0 -194 -101 -194 -296c0 -194 50 -324 199 -324c120 0 191 86 191 297c0 206 -52 323 -196 323zM365 331h-53c-62 0 -71 -12 -75 -51h-41
v150h41c4 -42 14 -51 76 -51h51c62 0 72 9 76 51h41v-150h-41c-4 39 -13 51 -75 51z" />
    <glyph glyph-name="Iota" unicode="&#x399;" horiz-adv-x="329" 
d="M117 111v467c0 57 -13 74 -80 76v35h255v-35c-67 -2 -80 -19 -80 -76v-467c0 -57 13 -74 80 -76v-35h-255v35c67 2 80 19 80 76z" />
    <glyph glyph-name="Kappa" unicode="&#x39a;" horiz-adv-x="622" 
d="M117 111v467c0 57 -13 74 -80 76v35h255v-35c-67 -2 -80 -19 -80 -76v-467c0 -57 13 -74 80 -76v-35h-255v35c67 2 80 19 80 76zM458 552l-144 -162l211 -306c25 -36 39 -45 91 -49v-35h-149l-239 361l184 215c18 22 24 36 24 48c0 19 -19 29 -54 30v35h212v-35
c-48 -7 -70 -28 -136 -102z" />
    <glyph glyph-name="Lambda" unicode="&#x39b;" horiz-adv-x="651" 
d="M453 107l-89 304c-24 81 -45 161 -52 191h-4c-11 -40 -26 -100 -54 -191l-91 -304c-4 -14 -6 -26 -6 -35c0 -29 20 -35 71 -37v-35h-212v35c48 4 64 19 86 86l181 568h89l179 -566c18 -56 32 -84 84 -88v-35h-243v35c48 2 66 13 66 42c0 10 -3 23 -5 30z" />
    <glyph glyph-name="Mu" unicode="&#x39c;" horiz-adv-x="801" 
d="M758 689v-35c-73 -4 -84 -25 -80 -76l40 -464c5 -58 14 -77 71 -79v-35h-237v35c69 1 78 22 74 72l-29 366c-3 31 -3 73 -3 98v20h-6c-3 -22 -12 -74 -23 -109l-150 -482h-60l-147 460c-13 41 -26 114 -29 132h-6c0 -14 -2 -66 -6 -132l-20 -352c-3 -49 -4 -72 73 -73
v-35h-208v35c57 2 67 19 72 79l34 464c4 51 -6 73 -80 76v35h193l145 -453c15 -47 21 -95 23 -116h6c2 19 10 73 23 115l136 454h194z" />
    <glyph glyph-name="Nu" unicode="&#x39d;" horiz-adv-x="685" 
d="M516 333v245c0 57 -13 74 -80 76v35h219v-35c-61 -2 -72 -19 -72 -76v-578h-71l-250 408c-55 89 -75 144 -84 170h-6c4 -27 12 -87 12 -184v-283c0 -57 13 -74 80 -76v-35h-227v35c67 2 80 19 80 76v467c0 57 -13 74 -80 76v35h162l255 -418c30 -49 58 -113 68 -145h6
c-5 30 -12 117 -12 207z" />
    <glyph glyph-name="Xi" unicode="&#x39e;" horiz-adv-x="579" 
d="M530 0h-481l-7 163h45c13 -80 31 -85 98 -85h209c67 0 86 12 98 85h45zM390 614h-201c-58 0 -74 -7 -96 -83h-42l10 158h457l10 -158h-42c-22 76 -38 83 -96 83zM246 334c-62 0 -81 -17 -85 -67h-41v181h41c4 -53 24 -66 86 -66h85c62 0 82 13 86 66h41v-181h-41
c-4 50 -23 67 -85 67h-87z" />
    <glyph glyph-name="Omicron" unicode="&#x39f;" horiz-adv-x="674" 
d="M340 -11c-197 0 -296 151 -296 358c0 227 115 354 291 354c211 0 295 -169 295 -361c0 -211 -108 -351 -290 -351zM335 654c-132 0 -189 -101 -189 -296c0 -194 49 -324 194 -324c116 0 186 86 186 297c0 206 -51 323 -191 323z" />
    <glyph glyph-name="Pi" unicode="&#x3a0;" horiz-adv-x="700" 
d="M488 111v530h-276v-530c0 -57 13 -74 80 -76v-35h-255v35c67 2 80 19 80 76v467c0 57 -13 74 -80 76v35h626v-35c-67 -2 -80 -19 -80 -76v-467c0 -57 13 -74 80 -76v-35h-255v35c67 2 80 19 80 76z" />
    <glyph glyph-name="Rho" unicode="&#x3a1;" horiz-adv-x="577" 
d="M212 287v-173c0 -59 16 -77 88 -79v-35h-263v35c67 2 80 19 80 76v467c0 57 -13 74 -80 76v35h252c197 0 258 -87 258 -198c0 -129 -81 -204 -232 -204h-103zM446 480c0 117 -31 160 -155 160h-79v-305h97c99 0 137 42 137 145z" />
    <glyph glyph-name="Sigma" unicode="&#x3a3;" horiz-adv-x="528" 
d="M251 345l-215 288v56h465l14 -152h-44c-20 78 -50 103 -117 103h-206l201 -267l-222 -288h228c77 0 105 25 123 94h44l-15 -179h-475v56z" />
    <glyph glyph-name="Tau" unicode="&#x3a4;" horiz-adv-x="551" 
d="M28 689h495l8 -157h-47c-16 85 -24 108 -84 108h-77v-529c0 -63 23 -74 90 -76v-35h-275v35c67 2 90 13 90 76v529h-77c-60 0 -68 -23 -84 -108h-47z" />
    <glyph glyph-name="Upsilon" unicode="&#x3a5;" horiz-adv-x="594" 
d="M319 345h4l108 234c8 18 12 31 12 43c0 23 -21 30 -59 32v35h199v-35c-40 -5 -60 -19 -97 -93l-137 -279v-171c0 -57 15 -74 85 -76v-35h-265v35c70 2 85 19 85 76v165l-149 296c-32 64 -55 77 -94 82v35h238v-35c-38 -1 -53 -10 -53 -30c0 -13 5 -27 14 -47z" />
    <glyph glyph-name="Phi" unicode="&#x3a6;" horiz-adv-x="779" 
d="M653 358c0 139 -56 196 -217 196v-414c166 0 217 64 217 218zM263 654v35h253v-35c-59 -2 -80 -14 -80 -56c208 0 319 -84 319 -251c0 -164 -111 -251 -319 -251c0 -45 19 -59 80 -61v-35h-253v35c61 2 80 16 80 61c-208 0 -319 87 -319 251c0 167 111 251 319 251
c0 42 -21 54 -80 56zM126 358c0 -154 51 -218 217 -218v414c-161 0 -217 -57 -217 -196z" />
    <glyph glyph-name="Chi" unicode="&#x3a7;" horiz-adv-x="632" 
d="M474 574l-115 -200l149 -257c36 -62 61 -77 100 -82v-35h-244v35c38 1 55 11 55 31c0 12 -6 27 -16 46l-110 198h-4l-105 -200c-10 -18 -14 -32 -14 -43c0 -23 21 -30 59 -32v-35h-205v35c40 5 63 21 103 93l133 235l-128 217c-35 59 -55 69 -94 74v35h239v-35
c-41 -2 -56 -12 -56 -30c0 -12 7 -28 17 -46l88 -157h4l83 156c10 18 15 33 15 45c0 20 -16 30 -53 32v35h194v-35c-40 -5 -62 -22 -95 -80z" />
    <glyph glyph-name="Psi" unicode="&#x3a8;" horiz-adv-x="761" 
d="M683 503c-10 -83 -33 -138 -68 -173c-43 -44 -109 -58 -187 -61v-158c0 -57 13 -74 80 -76v-35h-255v35c67 2 80 19 80 76v158c-79 3 -145 17 -187 61c-35 35 -58 90 -68 173c-11 95 -17 112 -72 128l9 65c122 -9 142 -49 156 -194c14 -144 64 -184 162 -189v265
c0 57 -13 74 -80 76v35h255v-35c-67 -2 -80 -19 -80 -76v-265c94 5 148 45 162 189c14 145 34 185 156 194l9 -65c-55 -16 -61 -33 -72 -128z" />
    <glyph glyph-name="uni03A9" unicode="&#x3a9;" horiz-adv-x="700" 
d="M350 656c-133 0 -188 -108 -188 -272c0 -143 41 -241 149 -320v-64h-260l-13 151h40c16 -68 27 -76 104 -76h53c-90 66 -175 161 -175 308c0 176 110 318 290 318s290 -142 290 -318c0 -147 -85 -242 -175 -308h53c77 0 88 8 104 76h40l-13 -151h-260v64
c108 79 149 177 149 320c0 164 -53 272 -188 272z" />
    <glyph glyph-name="Iotadieresis" unicode="&#x3aa;" horiz-adv-x="329" 
d="M117 111v467c0 57 -13 74 -80 76v35h255v-35c-67 -2 -80 -19 -80 -76v-467c0 -57 13 -74 80 -76v-35h-255v35c67 2 80 19 80 76zM120 787c0 -34 -26 -60 -60 -60s-60 26 -60 60s26 60 60 60s60 -26 60 -60zM329 787c0 -34 -26 -60 -60 -60s-60 26 -60 60s26 60 60 60
s60 -26 60 -60z" />
    <glyph glyph-name="Upsilondieresis" unicode="&#x3ab;" horiz-adv-x="594" 
d="M319 345h4l108 234c8 18 12 31 12 43c0 23 -21 30 -59 32v35h199v-35c-40 -5 -60 -19 -97 -93l-137 -279v-171c0 -57 15 -74 85 -76v-35h-265v35c70 2 85 19 85 76v165l-149 296c-32 64 -55 77 -94 82v35h238v-35c-38 -1 -53 -10 -53 -30c0 -13 5 -27 14 -47zM260 787
c0 -34 -26 -60 -60 -60s-60 26 -60 60s26 60 60 60s60 -26 60 -60zM469 787c0 -34 -26 -60 -60 -60s-60 26 -60 60s26 60 60 60s60 -26 60 -60z" />
    <glyph glyph-name="alphatonos" unicode="&#x3ac;" horiz-adv-x="552" 
d="M455 -9c-48 0 -73 32 -83 81c-28 -53 -84 -82 -140 -82c-102 0 -196 74 -196 245c0 152 66 268 205 268c57 0 105 -23 130 -66c3 19 8 35 16 51l61 7h19c-10 -36 -10 -80 -10 -124v-249c0 -45 6 -74 50 -74c10 0 17 1 31 3v-38c-23 -13 -50 -22 -83 -22zM366 191v104
c0 108 -46 151 -110 151c-69 0 -122 -55 -122 -199c0 -145 33 -201 112 -201c69 0 120 69 120 145zM266 545l-52 4l39 191l90 -21z" />
    <glyph glyph-name="epsilontonos" unicode="&#x3ad;" horiz-adv-x="467" 
d="M242 44c69 0 123 25 174 75l31 -26c-44 -63 -123 -104 -214 -104c-109 0 -203 33 -203 138c0 71 37 121 130 134v4c-86 14 -108 66 -108 102c0 79 54 135 195 135c68 0 130 -17 176 -41v-84h-68c-11 50 -30 80 -101 80c-63 0 -107 -24 -107 -91c0 -60 21 -88 103 -88h63
v-46h-61c-99 0 -124 -28 -124 -96c0 -64 50 -92 114 -92zM268 545l-52 4l39 191l90 -21z" />
    <glyph glyph-name="etatonos" unicode="&#x3ae;" horiz-adv-x="577" 
d="M387 132c0 91 3 146 4 219c0 59 -27 82 -75 82c-45 0 -92 -26 -132 -65v-121c0 -131 -1 -192 -5 -247h-104v16c11 25 18 81 18 178v155c0 73 -14 83 -73 85v30l128 40h15c7 -16 16 -51 17 -86c41 48 93 85 167 85c80 0 132 -47 132 -134v-237c0 -45 7 -83 49 -83
c12 0 20 1 35 4v-39c-23 -13 -51 -23 -86 -23c-68 0 -90 61 -90 141zM331 545l-52 4l39 191l90 -21z" />
    <glyph glyph-name="iotatonos" unicode="&#x3af;" horiz-adv-x="275" 
d="M170 504v-382c0 -45 7 -74 55 -74c10 0 21 1 36 3v-38c-23 -13 -51 -22 -94 -22c-68 0 -91 51 -91 131v192c0 76 0 132 -3 175l78 15h19zM145 545l-52 4l39 191l90 -21z" />
    <glyph glyph-name="upsilondieresistonos" unicode="&#x3b0;" horiz-adv-x="543" 
d="M355 469v21l78 13c16 -21 65 -105 65 -204c0 -175 -89 -313 -276 -313c-88 0 -133 53 -133 158v213c0 61 -16 85 -86 87v31c23 13 57 24 92 24c67 0 86 -58 86 -130v-231c0 -57 16 -103 62 -103c113 0 157 121 157 235c0 101 -27 166 -45 199zM175 608
c0 -34 -26 -60 -60 -60s-60 26 -60 60s26 60 60 60s60 -26 60 -60zM454 608c0 -34 -26 -60 -60 -60s-60 26 -60 60s26 60 60 60s60 -26 60 -60zM270 571l-52 4l25 192l90 -21z" />
    <glyph glyph-name="alpha" unicode="&#x3b1;" horiz-adv-x="552" 
d="M455 -9c-48 0 -73 32 -83 81c-28 -53 -84 -82 -140 -82c-102 0 -196 74 -196 245c0 152 66 268 205 268c57 0 105 -23 130 -66c3 19 8 35 16 51l61 7h19c-10 -36 -10 -80 -10 -124v-249c0 -45 6 -74 50 -74c10 0 17 1 31 3v-38c-23 -13 -50 -22 -83 -22zM366 191v104
c0 108 -46 151 -110 151c-69 0 -122 -55 -122 -199c0 -145 33 -201 112 -201c69 0 120 69 120 145z" />
    <glyph glyph-name="beta" unicode="&#x3b2;" horiz-adv-x="514" 
d="M270 -13c-59 0 -98 21 -124 41v-213l-98 -14l-4 23c11 55 13 109 13 181v518c0 142 86 207 197 207c117 0 190 -72 190 -169c0 -73 -42 -149 -133 -164v-4c95 -9 171 -79 171 -187c0 -110 -62 -219 -212 -219zM259 35c78 0 125 51 125 167s-63 164 -165 164h-12v47h22
c87 0 119 42 119 145c0 79 -26 126 -94 126c-71 0 -107 -45 -107 -166v-439c23 -24 55 -44 112 -44z" />
    <glyph glyph-name="gamma" unicode="&#x3b3;" horiz-adv-x="491" 
d="M340 459v31l119 13l6 -54c0 -148 -104 -349 -155 -445c-54 -102 -121 -176 -237 -217l-19 53v27c108 10 157 44 157 112c0 33 -19 103 -78 277c-55 161 -76 187 -139 188v31c23 13 51 24 82 24c66 0 93 -59 140 -197c33 -99 51 -179 51 -237c0 -10 -1 -19 -2 -28h4
c31 50 123 261 123 357c0 31 -10 52 -52 65z" />
    <glyph glyph-name="delta" unicode="&#x3b4;" horiz-adv-x="508" 
d="M97 601c0 81 55 135 160 135c115 0 170 -49 170 -131c0 -11 -2 -23 -5 -34l-35 -14c-27 63 -65 115 -154 115c-60 0 -82 -29 -82 -51c0 -61 82 -91 162 -138c79 -46 157 -110 157 -238c0 -152 -80 -257 -220 -257c-134 0 -214 109 -214 238c0 102 43 187 138 238
c-47 32 -77 70 -77 137zM134 231c0 -98 20 -194 118 -194c86 0 122 81 122 197c0 113 -77 158 -151 200c-63 -49 -89 -124 -89 -203z" />
    <glyph glyph-name="epsilon" unicode="&#x3b5;" horiz-adv-x="467" 
d="M242 44c69 0 123 25 174 75l31 -26c-44 -63 -123 -104 -214 -104c-109 0 -203 33 -203 138c0 71 37 121 130 134v4c-86 14 -108 66 -108 102c0 79 54 135 195 135c68 0 130 -17 176 -41v-84h-68c-11 50 -30 80 -101 80c-63 0 -107 -24 -107 -91c0 -60 21 -88 103 -88h63
v-46h-61c-99 0 -124 -28 -124 -96c0 -64 50 -92 114 -92z" />
    <glyph glyph-name="zeta" unicode="&#x3b6;" horiz-adv-x="403" 
d="M191 588c-56 28 -88 79 -88 139l31 14c23 -57 49 -90 113 -99l120 82l47 -9v-18c-16 -56 -86 -124 -167 -124c-79 -78 -111 -207 -111 -314c0 -124 33 -152 153 -193c81 -28 119 -51 119 -111c0 -49 -39 -103 -93 -157l-57 33c31 41 58 77 58 103c0 33 -20 46 -72 61
c-140 41 -203 113 -203 250s57 260 150 343z" />
    <glyph glyph-name="eta" unicode="&#x3b7;" horiz-adv-x="577" 
d="M387 132c0 91 3 146 4 219c0 59 -27 82 -75 82c-45 0 -92 -26 -132 -65v-121c0 -131 -1 -192 -5 -247h-104v16c11 25 18 81 18 178v155c0 73 -14 83 -73 85v30l128 40h15c7 -16 16 -51 17 -86c41 48 93 85 167 85c80 0 132 -47 132 -134v-237c0 -45 7 -83 49 -83
c12 0 20 1 35 4v-39c-23 -13 -51 -23 -86 -23c-68 0 -90 61 -90 141z" />
    <glyph glyph-name="theta" unicode="&#x3b8;" horiz-adv-x="508" 
d="M476 356c0 -227 -88 -369 -220 -369c-148 0 -224 153 -224 374c0 227 88 369 220 369c148 0 224 -153 224 -374zM256 34c98 0 124 102 125 304h-254c3 -203 45 -304 129 -304zM252 683c-96 0 -123 -102 -125 -292h253c-5 192 -47 292 -128 292z" />
    <glyph glyph-name="iota" unicode="&#x3b9;" horiz-adv-x="275" 
d="M170 504v-382c0 -45 7 -74 55 -74c10 0 21 1 36 3v-38c-23 -13 -51 -22 -94 -22c-68 0 -91 51 -91 131v192c0 76 0 132 -3 175l78 15h19z" />
    <glyph glyph-name="kappa" unicode="&#x3ba;" horiz-adv-x="514" 
d="M346 371l-56 -75l101 -176c27 -47 45 -58 105 -66l-10 -63c-137 0 -166 54 -207 136l-47 92c-15 -20 -31 -40 -48 -60c-1 -71 -2 -120 -5 -159h-104v16c11 25 18 81 18 178v155c0 73 -14 83 -73 85v30l128 40h15c7 -16 21 -52 21 -87v-186c44 56 72 102 127 180
c45 64 61 90 167 93l8 -81l-47 -6c-55 -7 -71 -16 -93 -46z" />
    <glyph glyph-name="lambda" unicode="&#x3bb;" horiz-adv-x="514" 
d="M240 450h-4l-140 -460h-30l-62 19c23 24 40 52 66 132l119 366l28 -5l-40 112c-21 58 -52 60 -104 60v35c23 13 47 20 81 20c38 0 82 -12 107 -89l170 -534c15 -46 26 -57 54 -57c9 0 20 1 27 2v-38c-23 -15 -49 -22 -73 -22c-55 0 -80 35 -102 113z" />
    <glyph glyph-name="uni03BC" unicode="&#x3bc;" horiz-adv-x="541" 
d="M48 -199l-4 23c11 55 13 109 13 181v157c-1 126 -2 244 -6 325l76 14h22c0 -24 -1 -214 -1 -332c0 -101 37 -112 76 -112c47 0 98 28 131 64v368l68 12h23v-379c0 -45 6 -74 50 -74c10 0 17 1 31 3v-38c-23 -13 -50 -22 -83 -22c-48 0 -73 32 -84 81
c-34 -45 -87 -85 -148 -85c-24 0 -56 9 -71 27l-4 -2c7 -28 9 -91 9 -116l1 -81z" />
    <glyph glyph-name="nu" unicode="&#x3bd;" horiz-adv-x="497" 
d="M282 -5h-62l-132 362c-21 57 -31 86 -94 87v31c23 13 51 24 82 24c61 0 76 -45 106 -130l97 -281h4c31 50 115 210 115 306c0 31 -10 52 -52 65v31l119 13l6 -54c0 -157 -128 -376 -189 -454z" />
    <glyph glyph-name="xi" unicode="&#x3be;" horiz-adv-x="438" 
d="M182 599c-46 20 -70 63 -70 128l31 14c23 -55 44 -82 102 -95l130 79l48 -9v-18c-25 -62 -70 -115 -186 -115c-47 -40 -58 -70 -58 -103c0 -66 47 -104 152 -104h29v-53h-26c-143 -3 -203 -74 -203 -138c0 -83 50 -94 184 -115c85 -13 119 -55 119 -115
c0 -49 -39 -103 -93 -157l-57 33c31 41 58 79 58 105c0 33 -17 50 -74 57c-159 20 -236 61 -236 168c0 92 76 156 167 184v3c-79 12 -108 63 -108 111c0 60 38 102 91 140z" />
    <glyph glyph-name="omicron" unicode="&#x3bf;" horiz-adv-x="532" 
d="M496 242c0 -159 -97 -254 -230 -254c-134 0 -230 96 -230 259c0 162 96 259 228 259c148 0 232 -113 232 -264zM398 238c0 153 -47 219 -134 219c-100 0 -130 -76 -130 -200c0 -151 36 -220 134 -220c86 0 130 72 130 201z" />
    <glyph glyph-name="pi" unicode="&#x3c0;" horiz-adv-x="571" 
d="M450 -9c-68 0 -90 61 -90 141v82c0 63 2 126 6 205h-168c-5 -145 -10 -311 -48 -419h-99l-2 16c42 60 78 151 93 403c-50 -4 -73 -23 -102 -58l-28 22c30 83 75 113 173 113h225c50 0 77 1 112 9h21l-7 -75c-20 -7 -47 -9 -84 -11v-287c0 -45 7 -83 49 -83
c12 0 20 1 35 4v-39c-23 -13 -51 -23 -86 -23z" />
    <glyph glyph-name="rho" unicode="&#x3c1;" horiz-adv-x="518" 
d="M136 -21v-164l-98 -14l-4 23c11 55 13 109 13 181v267c0 150 80 235 216 235c130 0 219 -95 219 -247c0 -150 -74 -272 -206 -272c-49 0 -107 20 -145 59l-3 -1c5 -27 8 -50 8 -67zM384 241c0 138 -33 215 -124 215c-109 0 -126 -86 -126 -175v-180
c31 -41 85 -63 123 -63c83 0 127 60 127 203z" />
    <glyph glyph-name="sigma1" unicode="&#x3c2;" horiz-adv-x="440" 
d="M133 274c0 -127 52 -166 172 -207c81 -28 119 -52 119 -112c0 -49 -39 -103 -93 -157l-57 33c31 41 58 77 58 103c0 33 -20 45 -72 60c-140 41 -224 117 -224 270c0 144 95 239 225 239c77 0 134 -22 159 -39v-89h-72c-6 46 -34 82 -89 82c-76 0 -126 -47 -126 -183z" />
    <glyph glyph-name="sigma" unicode="&#x3c3;" horiz-adv-x="539" 
d="M391 440v-4c65 -46 90 -123 90 -194c0 -152 -85 -254 -215 -254c-134 0 -230 96 -230 259c0 162 96 259 228 259c63 0 93 -13 156 -13c36 0 63 2 102 19l15 -52v-23c-22 -11 -44 -14 -72 -14c-26 0 -56 9 -74 17zM383 238c0 162 -42 219 -119 219
c-100 0 -130 -76 -130 -200c0 -151 36 -220 134 -220c76 0 115 72 115 201z" />
    <glyph glyph-name="tau" unicode="&#x3c4;" horiz-adv-x="473" 
d="M348 419h-62v-287c0 -45 7 -83 49 -83c12 0 20 1 35 4v-39c-23 -13 -51 -23 -86 -23c-68 0 -87 61 -87 141c0 87 3 189 11 287h-74c-50 0 -73 -23 -102 -58l-28 22c30 83 75 113 173 113h151c50 0 77 1 112 9h21l-7 -75c-20 -7 -68 -11 -106 -11z" />
    <glyph glyph-name="upsilon" unicode="&#x3c5;" horiz-adv-x="543" 
d="M355 469v21l78 13c16 -21 65 -105 65 -204c0 -175 -89 -313 -276 -313c-88 0 -133 53 -133 158v213c0 61 -16 85 -86 87v31c23 13 57 24 92 24c67 0 86 -58 86 -130v-231c0 -57 16 -103 62 -103c113 0 157 121 157 235c0 101 -27 166 -45 199z" />
    <glyph glyph-name="phi" unicode="&#x3c6;" horiz-adv-x="679" 
d="M643 265c0 -149 -104 -269 -275 -269v-180l-96 -15l-4 23c10 53 13 105 13 172c-141 8 -245 91 -245 232c0 131 51 207 127 272l67 -10c-58 -60 -101 -137 -101 -241c0 -116 63 -197 152 -206v276c0 100 42 188 169 188c135 0 193 -96 193 -242zM368 311v-267
c93 0 177 70 177 202c0 162 -39 210 -98 210c-56 0 -79 -30 -79 -145z" />
    <glyph glyph-name="chi" unicode="&#x3c7;" horiz-adv-x="469" 
d="M391 -9c-61 0 -99 38 -133 112l-41 89h-4l-116 -204h-31l-61 21c23 24 54 53 81 95l94 147l-69 131c-27 51 -50 59 -97 60h-7v35c23 13 47 20 81 20c38 0 79 -16 113 -89l44 -94h4l104 189h30l60 -21c-22 -23 -51 -53 -78 -95l-85 -133l80 -148c23 -43 39 -57 77 -57
c9 0 20 1 27 2v-38c-23 -15 -49 -22 -73 -22z" />
    <glyph glyph-name="psi" unicode="&#x3c8;" horiz-adv-x="712" 
d="M404 730v-685c139 13 167 116 167 225c0 101 -27 166 -45 199v21l78 13c16 -21 65 -105 65 -204c0 -176 -86 -298 -265 -303v-180l-95 -15l-4 23c10 53 13 104 13 173c-150 4 -239 70 -239 208v152c0 61 -16 85 -76 87v31c23 13 57 24 92 24c63 0 76 -58 76 -130v-165
c0 -91 28 -157 147 -160v511c0 87 -2 117 -5 161l67 14h24z" />
    <glyph glyph-name="omega" unicode="&#x3c9;" horiz-adv-x="736" 
d="M329 189c0 59 -3 120 -7 177l69 12h23v-240c0 -57 12 -103 56 -103c106 0 124 132 124 235c0 95 -35 166 -53 199v21l77 13c16 -21 73 -108 73 -207c0 -189 -74 -310 -229 -310c-62 0 -97 31 -115 68c-32 -46 -78 -68 -133 -68c-101 0 -170 87 -170 236
c0 131 51 213 127 278l68 -10c-58 -60 -102 -154 -102 -246c0 -123 24 -205 96 -205c71 0 96 71 96 150z" />
    <glyph glyph-name="iotadieresis" unicode="&#x3ca;" horiz-adv-x="275" 
d="M170 504v-382c0 -45 7 -74 55 -74c10 0 21 1 36 3v-38c-23 -13 -51 -22 -94 -22c-68 0 -91 51 -91 131v192c0 76 0 132 -3 175l78 15h19zM84 638c0 -34 -26 -60 -60 -60s-60 26 -60 60s26 60 60 60s60 -26 60 -60zM293 638c0 -34 -26 -60 -60 -60s-60 26 -60 60
s26 60 60 60s60 -26 60 -60z" />
    <glyph glyph-name="upsilondieresis" unicode="&#x3cb;" horiz-adv-x="543" 
d="M355 469v21l78 13c16 -21 65 -105 65 -204c0 -175 -89 -313 -276 -313c-88 0 -133 53 -133 158v213c0 61 -16 85 -86 87v31c23 13 57 24 92 24c67 0 86 -58 86 -130v-231c0 -57 16 -103 62 -103c113 0 157 121 157 235c0 101 -27 166 -45 199zM225 638
c0 -34 -26 -60 -60 -60s-60 26 -60 60s26 60 60 60s60 -26 60 -60zM434 638c0 -34 -26 -60 -60 -60s-60 26 -60 60s26 60 60 60s60 -26 60 -60z" />
    <glyph glyph-name="omicrontonos" unicode="&#x3cc;" horiz-adv-x="532" 
d="M496 242c0 -159 -97 -254 -230 -254c-134 0 -230 96 -230 259c0 162 96 259 228 259c148 0 232 -113 232 -264zM398 238c0 153 -47 219 -134 219c-100 0 -130 -76 -130 -200c0 -151 36 -220 134 -220c86 0 130 72 130 201zM294 545l-52 4l39 191l90 -21z" />
    <glyph glyph-name="upsilontonos" unicode="&#x3cd;" horiz-adv-x="543" 
d="M355 469v21l78 13c16 -21 65 -105 65 -204c0 -175 -89 -313 -276 -313c-88 0 -133 53 -133 158v213c0 61 -16 85 -86 87v31c23 13 57 24 92 24c67 0 86 -58 86 -130v-231c0 -57 16 -103 62 -103c113 0 157 121 157 235c0 101 -27 166 -45 199zM290 545l-52 4l39 191
l90 -21z" />
    <glyph glyph-name="omegatonos" unicode="&#x3ce;" horiz-adv-x="736" 
d="M329 189c0 59 -3 120 -7 177l69 12h23v-240c0 -57 12 -103 56 -103c106 0 124 132 124 235c0 95 -35 166 -53 199v21l77 13c16 -21 73 -108 73 -207c0 -189 -74 -310 -229 -310c-62 0 -97 31 -115 68c-32 -46 -78 -68 -133 -68c-101 0 -170 87 -170 236
c0 131 51 213 127 278l68 -10c-58 -60 -102 -154 -102 -246c0 -123 24 -205 96 -205c71 0 96 71 96 150zM388 545l-52 4l39 191l90 -21z" />
    <glyph glyph-name="uni03D0" unicode="&#x3d0;" horiz-adv-x="524" 
d="M453 561c0 -64 -25 -119 -120 -162c95 -25 160 -91 160 -189c0 -110 -73 -223 -223 -223s-230 107 -230 342c0 323 102 401 227 401c117 0 186 -72 186 -169zM395 206c0 96 -37 133 -118 172c-20 -6 -42 -13 -66 -18l-9 47c97 19 155 48 155 151c0 79 -22 126 -90 126
c-85 0 -133 -78 -133 -347c0 -221 51 -302 135 -302c71 0 126 55 126 171z" />
    <glyph glyph-name="theta1" unicode="&#x3d1;" horiz-adv-x="532" 
d="M30 312l76 21c33 -38 42 -56 42 -167c0 -86 37 -131 113 -131c79 0 132 77 134 288c-239 37 -327 109 -327 237c0 97 70 170 194 170c125 0 228 -51 228 -401c0 -235 -79 -342 -230 -342c-160 0 -204 96 -204 183s-8 106 -26 142zM164 558c0 -104 59 -155 231 -185
c-4 256 -50 311 -131 311c-71 0 -100 -47 -100 -126z" />
    <glyph glyph-name="Upsilon1" unicode="&#x3d2;" horiz-adv-x="625" 
d="M366 247v-136c0 -57 13 -74 80 -76v-35h-255v35c67 2 80 19 80 76v150c0 179 -121 330 -267 365l9 70c197 0 292 -179 320 -329h4c24 137 101 329 277 329l9 -55c-141 -29 -257 -208 -257 -394z" />
    <glyph glyph-name="uni03D3" unicode="&#x3d3;" horiz-adv-x="625" 
d="M366 247v-136c0 -57 13 -74 80 -76v-35h-255v35c67 2 80 19 80 76v150c0 179 -121 330 -267 365l9 70c197 0 292 -179 320 -329h4c24 137 101 329 277 329l9 -55c-141 -29 -257 -208 -257 -394zM-89 510l-52 4l39 191l90 -21z" />
    <glyph glyph-name="uni03D4" unicode="&#x3d4;" horiz-adv-x="625" 
d="M366 247v-136c0 -57 13 -74 80 -76v-35h-255v35c67 2 80 19 80 76v150c0 179 -121 330 -267 365l9 70c197 0 292 -179 320 -329h4c24 137 101 329 277 329l9 -55c-141 -29 -257 -208 -257 -394zM278 787c0 -34 -26 -60 -60 -60s-60 26 -60 60s26 60 60 60s60 -26 60 -60z
M487 787c0 -34 -26 -60 -60 -60s-60 26 -60 60s26 60 60 60s60 -26 60 -60z" />
    <glyph glyph-name="phi1" unicode="&#x3d5;" horiz-adv-x="704" 
d="M395 730v-225c171 -5 275 -85 275 -250c0 -193 -108 -255 -275 -259v-180l-95 -15l-4 23c10 52 13 104 13 172c-168 4 -275 66 -275 259c0 165 103 245 275 250v50c0 87 -2 117 -5 161l67 14h24zM573 236c0 172 -60 217 -178 220v-412c112 2 178 57 178 192zM131 236
c0 -135 65 -190 178 -192v412c-119 -3 -178 -48 -178 -220z" />
    <glyph glyph-name="uni0400" unicode="&#x400;" horiz-adv-x="565" 
d="M37 0v35c67 2 80 19 80 76v467c0 57 -13 74 -80 76v35h470l10 -150h-42c-22 76 -38 101 -96 101h-167v-256h93c62 0 82 14 86 71h41v-190h-41c-4 54 -23 71 -85 71h-94v-287h168c77 0 96 23 104 116h45v-165h-492zM412 761l-20 -34l-214 70l43 92z" />
    <glyph glyph-name="afii10023" unicode="&#x401;" horiz-adv-x="565" 
d="M37 0v35c67 2 80 19 80 76v467c0 57 -13 74 -80 76v35h470l10 -150h-42c-22 76 -38 101 -96 101h-167v-256h93c62 0 82 14 86 71h41v-190h-41c-4 54 -23 71 -85 71h-94v-287h168c77 0 96 23 104 116h45v-165h-492zM237 787c0 -34 -26 -60 -60 -60s-60 26 -60 60
s26 60 60 60s60 -26 60 -60zM446 787c0 -34 -26 -60 -60 -60s-60 26 -60 60s26 60 60 60s60 -26 60 -60z" />
    <glyph glyph-name="afii10051" unicode="&#x402;" horiz-adv-x="721" 
d="M28 689h495l8 -157h-47c-16 85 -24 108 -84 108h-73v-262c47 36 116 69 191 69c100 0 174 -60 174 -169v-54c0 -161 -47 -216 -193 -264l-19 44c87 52 117 71 117 197v59c0 80 -52 112 -108 112c-58 0 -119 -21 -162 -48v-213c0 -63 23 -74 90 -76v-35h-275v35
c67 2 90 13 90 76v529h-81c-60 0 -68 -23 -84 -108h-47z" />
    <glyph glyph-name="afii10052" unicode="&#x403;" horiz-adv-x="520" 
d="M218 727l-20 34l191 128l43 -92zM212 640v-527c0 -57 17 -76 88 -78v-35h-263v35c67 2 80 19 80 76v467c0 57 -13 74 -80 76v35h456l15 -161h-44c-20 85 -43 112 -116 112h-136z" />
    <glyph glyph-name="afii10053" unicode="&#x404;" horiz-adv-x="587" 
d="M353 36c79 0 120 30 135 108h65v-105c-35 -25 -100 -50 -200 -50c-209 0 -309 135 -309 350c0 230 124 362 301 362c109 0 166 -21 203 -47v-112h-70c-19 77 -53 112 -136 112c-109 0 -185 -73 -193 -276h265v-50h-265c3 -229 83 -292 204 -292z" />
    <glyph glyph-name="afii10054" unicode="&#x405;" horiz-adv-x="538" 
d="M245 -11c-105 0 -169 32 -205 55v124h69c13 -88 43 -132 150 -132c108 0 147 56 147 130c0 85 -37 110 -129 138l-69 21c-101 31 -155 84 -155 181c0 114 84 195 223 195c99 0 154 -25 189 -51v-107h-65c-12 67 -41 111 -137 111c-79 0 -128 -44 -128 -117
c0 -74 36 -98 121 -124l70 -21c97 -29 167 -84 167 -191c0 -132 -88 -212 -248 -212z" />
    <glyph glyph-name="afii10055" unicode="&#x406;" horiz-adv-x="329" 
d="M117 111v467c0 57 -13 74 -80 76v35h255v-35c-67 -2 -80 -19 -80 -76v-467c0 -57 13 -74 80 -76v-35h-255v35c67 2 80 19 80 76z" />
    <glyph glyph-name="afii10056" unicode="&#x407;" horiz-adv-x="329" 
d="M117 111v467c0 57 -13 74 -80 76v35h255v-35c-67 -2 -80 -19 -80 -76v-467c0 -57 13 -74 80 -76v-35h-255v35c67 2 80 19 80 76zM120 787c0 -34 -26 -60 -60 -60s-60 26 -60 60s26 60 60 60s60 -26 60 -60zM329 787c0 -34 -26 -60 -60 -60s-60 26 -60 60s26 60 60 60
s60 -26 60 -60z" />
    <glyph glyph-name="afii10057" unicode="&#x408;" horiz-adv-x="339" 
d="M122 100v478c0 57 -15 74 -85 76v35h265v-35c-70 -2 -85 -19 -85 -76v-471c0 -157 -45 -209 -189 -254l-24 37c108 55 118 99 118 210z" />
    <glyph glyph-name="afii10058" unicode="&#x409;" horiz-adv-x="880" 
d="M186 578c0 57 -13 74 -80 76v35h515v-35c-67 -2 -80 -19 -80 -76v-176h65c197 0 258 -87 258 -198c0 -129 -81 -204 -232 -204h-261v35c67 2 75 19 75 76v530h-200c0 -189 0 -351 -31 -469c-37 -141 -80 -180 -200 -180l-9 67c59 12 91 32 113 62c52 73 67 209 67 457z
M763 194c0 117 -31 160 -155 160h-67v-305h85c99 0 137 42 137 145z" />
    <glyph glyph-name="afii10059" unicode="&#x40a;" horiz-adv-x="909" 
d="M475 111v235h-263v-235c0 -57 10 -74 77 -76v-35h-252v35c67 2 80 19 80 76v467c0 57 -13 74 -80 76v35h252v-35c-67 -2 -77 -19 -77 -76v-182h263v182c0 57 -10 74 -77 76v35h252v-35c-67 -2 -80 -19 -80 -76v-182h65c197 0 258 -82 258 -193c0 -129 -81 -203 -232 -203
h-263v35c67 2 77 19 77 76zM637 346h-67v-297h85c99 0 137 41 137 144c0 117 -34 153 -155 153z" />
    <glyph glyph-name="afii10060" unicode="&#x40b;" horiz-adv-x="784" 
d="M28 689h495l8 -157h-47c-16 85 -24 108 -84 108h-73v-262c47 36 116 69 191 69c100 0 174 -60 174 -169v-167c0 -57 13 -74 80 -76v-35h-255v35c67 2 80 19 80 76v149c0 80 -52 112 -108 112c-58 0 -119 -21 -162 -48v-213c0 -63 23 -74 90 -76v-35h-275v35
c67 2 90 13 90 76v529h-81c-60 0 -68 -23 -84 -108h-47z" />
    <glyph glyph-name="afii10061" unicode="&#x40c;" horiz-adv-x="653" 
d="M481 543c-18 -123 -47 -151 -111 -172v-5c79 -21 92 -50 130 -193c19 -71 49 -109 126 -116l-9 -67c-130 0 -181 39 -219 185c-30 115 -42 165 -121 165h-65v-229c0 -57 13 -74 80 -76v-35h-255v35c67 2 80 19 80 76v467c0 57 -13 74 -80 76v35h255v-35
c-67 -2 -80 -19 -80 -76v-188h35c90 0 157 4 176 155c11 88 50 148 175 152l9 -79l-61 -10c-38 -6 -60 -28 -65 -65zM253 727l-20 34l191 128l43 -92z" />
    <glyph glyph-name="uni040D" unicode="&#x40d;" horiz-adv-x="704" 
d="M503 563h-5c-9 -26 -36 -80 -87 -170l-180 -318c-15 -28 -16 -45 -16 -75h-178v35c67 2 80 19 80 76v467c0 57 -13 74 -80 76v35h250v-35c-62 -2 -75 -19 -75 -76v-266c0 -97 -7 -157 -11 -184h5c9 26 36 80 87 170l179 316c16 28 16 45 16 75h179v-35
c-67 -2 -80 -19 -80 -76v-467c0 -57 13 -74 80 -76v-35h-250v35c62 2 75 19 75 76v268c0 97 7 157 11 184zM453 761l-20 -34l-214 70l43 92z" />
    <glyph glyph-name="afii10062" unicode="&#x40e;" horiz-adv-x="644" 
d="M308 183l-33 -3l-171 386c-25 56 -36 83 -88 88v35h245v-35c-48 -2 -68 -12 -68 -42c0 -8 3 -18 7 -30l131 -339h13c0 15 34 95 60 158l78 184c5 12 6 21 6 32c0 27 -21 35 -69 37v35h209v-35c-48 -7 -58 -20 -86 -86l-168 -388c-75 -174 -111 -188 -229 -188l-9 67
c76 8 143 28 172 124zM333 733c-72 0 -146 58 -167 120l31 22c32 -48 73 -64 134 -64s101 16 134 64l32 -22c-21 -62 -93 -120 -164 -120z" />
    <glyph glyph-name="afii10145" unicode="&#x40f;" horiz-adv-x="700" 
d="M379 -180h-58c-2 122 -16 180 -56 180h-228v35c67 2 80 19 80 76v467c0 57 -13 74 -80 76v35h255v-35c-67 -2 -80 -19 -80 -76v-530h276v530c0 57 -13 74 -80 76v35h255v-35c-67 -2 -80 -19 -80 -76v-467c0 -57 13 -74 80 -76v-35h-229c-40 0 -54 -58 -55 -180z" />
    <glyph glyph-name="afii10017" unicode="&#x410;" horiz-adv-x="657" 
d="M459 107l-33 108h-230l-33 -108c-4 -14 -6 -26 -6 -35c0 -29 22 -35 73 -37v-35h-214v35c48 4 64 19 86 86l184 568h89l182 -566c18 -56 32 -84 84 -88v-35h-245v35c48 2 68 13 68 42c0 10 -3 23 -5 30zM257 411l-46 -148h201l-45 148c-27 88 -45 161 -52 191h-4
c-11 -40 -26 -100 -54 -191z" />
    <glyph glyph-name="afii10018" unicode="&#x411;" horiz-adv-x="589" 
d="M338 640h-126v-236h85c197 0 258 -89 258 -200c0 -129 -81 -204 -232 -204h-286v35c67 2 80 19 80 76v467c0 57 -13 74 -80 76v35h446l15 -158h-44c-20 85 -43 109 -116 109zM454 194c0 117 -31 160 -155 160h-87v-305h105c99 0 137 42 137 145z" />
    <glyph glyph-name="afii10019" unicode="&#x412;" horiz-adv-x="607" 
d="M37 0v35c67 2 80 19 80 76v467c0 57 -13 74 -80 76v35h252c178 0 250 -60 250 -170c0 -72 -32 -125 -126 -149v-4c110 -17 161 -89 161 -177c0 -133 -112 -189 -241 -189h-296zM212 49h127c107 0 135 45 135 146c0 102 -32 140 -152 140h-110v-286zM212 383h103
c97 0 128 42 128 125c0 97 -35 132 -132 132h-99v-257z" />
    <glyph glyph-name="afii10020" unicode="&#x413;" horiz-adv-x="520" 
d="M212 640v-527c0 -57 17 -76 88 -78v-35h-263v35c67 2 80 19 80 76v467c0 57 -13 74 -80 76v35h456l15 -161h-44c-20 85 -43 112 -116 112h-136z" />
    <glyph glyph-name="afii10021" unicode="&#x414;" horiz-adv-x="686" 
d="M67 -180h-54v228h42c29 16 51 46 64 68c46 82 70 205 70 462c0 57 -13 74 -80 76v35h530v-35c-67 -2 -80 -19 -80 -76v-467c0 -56 12 -63 75 -63h25v-48l-25 -180h-51c0 139 -2 180 -42 180h-407c-55 0 -67 -68 -67 -180zM155 54v-6h309v593h-216
c0 -189 -6 -362 -39 -469c-16 -51 -36 -90 -54 -118z" />
    <glyph glyph-name="afii10022" unicode="&#x415;" horiz-adv-x="565" 
d="M37 0v35c67 2 80 19 80 76v467c0 57 -13 74 -80 76v35h470l10 -150h-42c-22 76 -38 101 -96 101h-167v-256h93c62 0 82 14 86 71h41v-190h-41c-4 54 -23 71 -85 71h-94v-287h168c77 0 96 23 104 116h45v-165h-492z" />
    <glyph glyph-name="afii10024" unicode="&#x416;" horiz-adv-x="957" 
d="M786 545c-18 -125 -48 -154 -112 -175v-4c79 -21 92 -50 130 -193c19 -71 49 -109 126 -116l-9 -67c-130 0 -176 39 -215 185c-30 110 -45 165 -120 165h-60v-229c0 -57 13 -74 80 -76v-35h-255v35c67 2 80 19 80 76v229h-54c-82 0 -96 -52 -126 -165
c-39 -146 -85 -185 -215 -185l-9 67c77 7 107 45 126 116c38 143 51 172 130 193v4c-64 21 -94 50 -112 175c-5 37 -27 57 -65 63l-61 10l9 79c125 -4 165 -61 176 -152c18 -151 91 -155 176 -155h25v188c0 57 -13 74 -80 76v35h255v-35c-67 -2 -80 -19 -80 -76v-188h25
c85 0 158 4 176 155c11 91 51 148 176 152l9 -79l-61 -10c-38 -6 -60 -26 -65 -63z" />
    <glyph glyph-name="afii10025" unicode="&#x417;" horiz-adv-x="531" 
d="M211 340h-43v51h67c105 0 138 70 138 144c0 73 -47 119 -126 119c-96 0 -124 -44 -136 -111h-65v107c36 26 119 51 195 51c139 0 230 -53 230 -167c0 -82 -59 -145 -155 -164v-4c107 -15 183 -56 183 -172c0 -130 -98 -205 -259 -205c-100 0 -170 32 -206 55v123h67
c13 -88 42 -131 151 -131c108 0 144 71 144 148c0 88 -21 156 -185 156z" />
    <glyph glyph-name="afii10026" unicode="&#x418;" horiz-adv-x="704" 
d="M503 563h-5c-9 -26 -36 -80 -87 -170l-180 -318c-15 -28 -16 -45 -16 -75h-178v35c67 2 80 19 80 76v467c0 57 -13 74 -80 76v35h250v-35c-62 -2 -75 -19 -75 -76v-266c0 -97 -7 -157 -11 -184h5c9 26 36 80 87 170l179 316c16 28 16 45 16 75h179v-35
c-67 -2 -80 -19 -80 -76v-467c0 -57 13 -74 80 -76v-35h-250v35c62 2 75 19 75 76v268c0 97 7 157 11 184z" />
    <glyph glyph-name="afii10027" unicode="&#x419;" horiz-adv-x="704" 
d="M503 563h-5c-9 -26 -36 -80 -87 -170l-180 -318c-15 -28 -16 -45 -16 -75h-178v35c67 2 80 19 80 76v467c0 57 -13 74 -80 76v35h250v-35c-62 -2 -75 -19 -75 -76v-266c0 -97 -7 -157 -11 -184h5c9 26 36 80 87 170l179 316c16 28 16 45 16 75h179v-35
c-67 -2 -80 -19 -80 -76v-467c0 -57 13 -74 80 -76v-35h-250v35c62 2 75 19 75 76v268c0 97 7 157 11 184zM353 733c-72 0 -146 58 -167 120l31 22c32 -48 73 -64 134 -64s101 16 134 64l32 -22c-21 -62 -93 -120 -164 -120z" />
    <glyph glyph-name="afii10028" unicode="&#x41a;" horiz-adv-x="653" 
d="M481 543c-18 -123 -47 -151 -111 -172v-5c79 -21 92 -50 130 -193c19 -71 49 -109 126 -116l-9 -67c-130 0 -181 39 -219 185c-30 115 -42 165 -121 165h-65v-229c0 -57 13 -74 80 -76v-35h-255v35c67 2 80 19 80 76v467c0 57 -13 74 -80 76v35h255v-35
c-67 -2 -80 -19 -80 -76v-188h35c90 0 157 4 176 155c11 88 50 148 175 152l9 -79l-61 -10c-38 -6 -60 -28 -65 -65z" />
    <glyph glyph-name="afii10029" unicode="&#x41b;" horiz-adv-x="673" 
d="M186 578c0 57 -13 74 -80 76v35h530v-35c-67 -2 -80 -19 -80 -76v-467c0 -57 13 -74 80 -76v-35h-255v35c67 2 80 19 80 76v530h-215c0 -189 0 -351 -31 -469c-37 -141 -80 -180 -200 -180l-9 67c59 12 91 32 113 62c52 73 67 209 67 457z" />
    <glyph glyph-name="afii10030" unicode="&#x41c;" horiz-adv-x="801" 
d="M758 689v-35c-73 -4 -84 -25 -80 -76l40 -464c5 -58 14 -77 71 -79v-35h-237v35c69 1 78 22 74 72l-29 366c-3 31 -3 73 -3 98v20h-6c-3 -22 -12 -74 -23 -109l-150 -482h-60l-147 460c-13 41 -26 114 -29 132h-6c0 -14 -2 -66 -6 -132l-20 -352c-3 -49 -4 -72 73 -73
v-35h-208v35c57 2 67 19 72 79l34 464c4 51 -6 73 -80 76v35h193l145 -453c15 -47 21 -95 23 -116h6c2 19 10 73 23 115l136 454h194z" />
    <glyph glyph-name="afii10031" unicode="&#x41d;" horiz-adv-x="708" 
d="M496 111v229h-284v-229c0 -57 13 -74 80 -76v-35h-255v35c67 2 80 19 80 76v467c0 57 -13 74 -80 76v35h255v-35c-67 -2 -80 -19 -80 -76v-188h284v188c0 57 -13 74 -80 76v35h255v-35c-67 -2 -80 -19 -80 -76v-467c0 -57 13 -74 80 -76v-35h-255v35c67 2 80 19 80 76z
" />
    <glyph glyph-name="afii10032" unicode="&#x41e;" horiz-adv-x="674" 
d="M340 -11c-197 0 -296 151 -296 358c0 227 115 354 291 354c211 0 295 -169 295 -361c0 -211 -108 -351 -290 -351zM335 654c-132 0 -189 -101 -189 -296c0 -194 49 -324 194 -324c116 0 186 86 186 297c0 206 -51 323 -191 323z" />
    <glyph glyph-name="afii10033" unicode="&#x41f;" horiz-adv-x="700" 
d="M488 111v530h-276v-530c0 -57 13 -74 80 -76v-35h-255v35c67 2 80 19 80 76v467c0 57 -13 74 -80 76v35h626v-35c-67 -2 -80 -19 -80 -76v-467c0 -57 13 -74 80 -76v-35h-255v35c67 2 80 19 80 76z" />
    <glyph glyph-name="afii10034" unicode="&#x420;" horiz-adv-x="577" 
d="M212 287v-173c0 -59 16 -77 88 -79v-35h-263v35c67 2 80 19 80 76v467c0 57 -13 74 -80 76v35h252c197 0 258 -87 258 -198c0 -129 -81 -204 -232 -204h-103zM446 480c0 117 -31 160 -155 160h-79v-305h97c99 0 137 42 137 145z" />
    <glyph glyph-name="afii10035" unicode="&#x421;" horiz-adv-x="577" 
d="M348 -11c-209 0 -304 135 -304 350c0 230 119 362 296 362c109 0 161 -21 198 -47v-112h-70c-19 77 -48 112 -131 112c-115 0 -188 -81 -188 -313c0 -240 76 -305 199 -305c79 0 115 30 130 108h65v-105c-35 -25 -95 -50 -195 -50z" />
    <glyph glyph-name="afii10036" unicode="&#x422;" horiz-adv-x="551" 
d="M28 689h495l8 -157h-47c-16 85 -24 108 -84 108h-77v-529c0 -63 23 -74 90 -76v-35h-275v35c67 2 90 13 90 76v529h-77c-60 0 -68 -23 -84 -108h-47z" />
    <glyph glyph-name="afii10037" unicode="&#x423;" horiz-adv-x="644" 
d="M308 183l-33 -3l-171 386c-25 56 -36 83 -88 88v35h245v-35c-48 -2 -68 -12 -68 -42c0 -8 3 -18 7 -30l131 -339h13c0 15 34 95 60 158l78 184c5 12 6 21 6 32c0 27 -21 35 -69 37v35h209v-35c-48 -7 -58 -20 -86 -86l-168 -388c-75 -174 -111 -188 -229 -188l-9 67
c76 8 143 28 172 124z" />
    <glyph glyph-name="afii10038" unicode="&#x424;" horiz-adv-x="755" 
d="M424 137c163 0 217 83 217 237c0 139 -54 215 -217 215v-452zM251 686v35h253v-35c-59 -2 -80 -11 -80 -53c213 0 319 -103 319 -270c0 -164 -111 -270 -319 -270c0 -46 19 -56 80 -58v-35h-253v35c61 2 80 12 80 58c-208 0 -319 106 -319 270c0 167 106 270 319 270
c0 42 -21 51 -80 53zM331 137v452c-163 0 -217 -76 -217 -215c0 -154 54 -237 217 -237z" />
    <glyph glyph-name="afii10039" unicode="&#x425;" horiz-adv-x="632" 
d="M474 574l-115 -200l149 -257c36 -62 61 -77 100 -82v-35h-244v35c38 1 55 11 55 31c0 12 -6 27 -16 46l-110 198h-4l-105 -200c-10 -18 -14 -32 -14 -43c0 -23 21 -30 59 -32v-35h-205v35c40 5 63 21 103 93l133 235l-128 217c-35 59 -55 69 -94 74v35h239v-35
c-41 -2 -56 -12 -56 -30c0 -12 7 -28 17 -46l88 -157h4l83 156c10 18 15 33 15 45c0 20 -16 30 -53 32v35h194v-35c-40 -5 -62 -22 -95 -80z" />
    <glyph glyph-name="afii10040" unicode="&#x426;" horiz-adv-x="710" 
d="M658 -180h-51c0 139 -2 180 -42 180h-528v35c67 2 80 19 80 76v467c0 57 -13 74 -80 76v35h255v-35c-67 -2 -80 -19 -80 -76v-530h276v530c0 57 -13 74 -80 76v35h255v-35c-67 -2 -80 -19 -80 -76v-467c0 -52 9 -62 61 -63h39v-48z" />
    <glyph glyph-name="afii10041" unicode="&#x427;" horiz-adv-x="679" 
d="M92 578c0 57 -13 74 -80 76v35h255v-35c-67 -2 -80 -19 -80 -76v-189c0 -80 52 -112 108 -112c58 0 125 21 172 49v252c0 57 -13 74 -80 76v35h255v-35c-67 -2 -80 -19 -80 -76v-467c0 -57 13 -74 80 -76v-35h-255v35c67 2 80 19 80 76v164c-51 -37 -125 -73 -201 -73
c-100 0 -174 60 -174 169v207z" />
    <glyph glyph-name="afii10042" unicode="&#x428;" horiz-adv-x="949" 
d="M37 0v35c67 2 80 19 80 76v467c0 57 -13 74 -80 76v35h244v-35c-59 -2 -70 -19 -70 -76v-530h217v530c0 57 -11 74 -70 76v35h233v-35c-59 -2 -70 -19 -70 -76v-530h217v530c0 57 -11 74 -70 76v35h244v-35c-67 -2 -80 -19 -80 -76v-467c0 -57 13 -74 80 -76v-35h-875z
" />
    <glyph glyph-name="afii10043" unicode="&#x429;" horiz-adv-x="958" 
d="M37 0v35c67 2 80 19 80 76v467c0 57 -13 74 -80 76v35h244v-35c-59 -2 -70 -19 -70 -76v-530h217v530c0 57 -11 74 -70 76v35h233v-35c-59 -2 -70 -19 -70 -76v-530h217v530c0 57 -11 74 -70 76v35h244v-35c-67 -2 -80 -19 -80 -76v-464c0 -53 11 -65 66 -66h33v-48
l-25 -180h-51c0 139 -2 180 -42 180h-776z" />
    <glyph glyph-name="afii10044" unicode="&#x42a;" horiz-adv-x="694" 
d="M446 0h-286v35c67 2 80 19 80 76v529h-64c-73 0 -96 -27 -116 -112h-44l15 161h384v-35c-67 -2 -80 -19 -80 -76v-174h85c197 0 258 -89 258 -200c0 -129 -81 -204 -232 -204zM577 194c0 117 -31 160 -155 160h-87v-305h105c99 0 137 42 137 145z" />
    <glyph glyph-name="afii10045" unicode="&#x42b;" horiz-adv-x="849" 
d="M303 0h-266v35c67 2 80 19 80 76v467c0 57 -13 74 -80 76v35h255v-35c-67 -2 -80 -19 -80 -76v-174h65c197 0 258 -89 258 -200c0 -129 -81 -204 -232 -204zM434 194c0 117 -31 160 -155 160h-67v-305h85c99 0 137 42 137 145zM637 111v467c0 57 -13 74 -80 76v35h255
v-35c-67 -2 -80 -19 -80 -76v-467c0 -57 13 -74 80 -76v-35h-255v35c67 2 80 19 80 76z" />
    <glyph glyph-name="afii10046" unicode="&#x42c;" horiz-adv-x="571" 
d="M323 0h-286v35c67 2 80 19 80 76v467c0 57 -13 74 -80 76v35h255v-35c-67 -2 -80 -19 -80 -76v-174h85c197 0 258 -89 258 -200c0 -129 -81 -204 -232 -204zM454 194c0 117 -31 160 -155 160h-87v-305h105c99 0 137 42 137 145z" />
    <glyph glyph-name="afii10047" unicode="&#x42d;" horiz-adv-x="587" 
d="M163 328v50h274c-7 203 -76 276 -184 276c-83 0 -125 -35 -144 -112h-70v112c40 25 115 47 213 47c175 0 291 -119 291 -362c0 -204 -97 -350 -306 -350c-100 0 -168 25 -203 50v105h65c15 -78 59 -108 138 -108c124 0 198 68 201 292h-275z" />
    <glyph glyph-name="afii10048" unicode="&#x42e;" horiz-adv-x="935" 
d="M616 -11c-175 0 -279 147 -281 351h-123v-229c0 -57 13 -74 80 -76v-35h-255v35c67 2 80 19 80 76v467c0 57 -13 74 -80 76v35h255v-35c-67 -2 -80 -19 -80 -76v-188h124c14 200 129 311 275 311c191 0 280 -169 280 -361c0 -211 -113 -351 -275 -351zM611 654
c-112 0 -174 -101 -174 -296c0 -194 54 -324 179 -324c96 0 171 86 171 297c0 206 -56 323 -176 323z" />
    <glyph glyph-name="afii10049" unicode="&#x42f;" horiz-adv-x="619" 
d="M253 324v4c-92 3 -178 60 -178 174c0 138 102 187 251 187h256v-35c-67 -2 -80 -19 -80 -76v-467c0 -57 13 -74 80 -76v-35h-253v35c62 2 78 21 78 74v211c-108 0 -121 -39 -162 -142c-65 -163 -102 -188 -232 -188l-9 67c71 7 106 38 125 92c32 90 51 148 124 175z
M176 501c0 -107 63 -139 125 -139h106v278h-89c-100 0 -142 -31 -142 -139z" />
    <glyph glyph-name="afii10065" unicode="&#x430;" horiz-adv-x="512" 
d="M420 131c0 -75 9 -88 74 -93v-33c-15 -6 -43 -11 -69 -11c-71 0 -86 29 -91 71c-17 -30 -62 -80 -137 -80c-96 0 -161 51 -161 143c0 120 105 161 262 161c12 0 22 0 35 -1v44c0 86 -20 124 -91 124c-84 0 -108 -44 -116 -90h-63v89c42 23 119 51 187 51
c112 0 174 -51 174 -168c0 -30 -4 -116 -4 -207zM331 240c-14 1 -22 2 -35 2c-114 0 -163 -31 -163 -107c0 -71 28 -93 86 -93c47 0 86 33 109 73z" />
    <glyph glyph-name="afii10066" unicode="&#x431;" horiz-adv-x="512" 
d="M384 618l-122 -53c-126 -54 -151 -67 -158 -199h6c24 64 77 125 164 125c126 0 208 -92 208 -258c0 -129 -92 -245 -226 -245c-140 0 -220 116 -220 264c0 197 56 329 191 387l126 55c30 13 42 21 65 48l51 -49c-22 -40 -45 -58 -85 -75zM261 442
c-71 0 -131 -66 -131 -206c0 -116 38 -199 124 -199c98 0 130 106 130 204c0 113 -33 201 -123 201z" />
    <glyph glyph-name="afii10067" unicode="&#x432;" horiz-adv-x="520" 
d="M100 385c0 59 -13 68 -70 72v34h208c170 0 222 -33 222 -124c0 -40 -22 -92 -108 -106v-4c89 -12 132 -51 132 -120c0 -121 -96 -137 -219 -137h-235v34c57 4 70 13 70 72v279zM254 228h-63v-181h76c92 0 121 21 121 90c0 68 -29 91 -134 91zM249 446h-58v-172h62
c82 0 114 21 114 88c0 61 -35 84 -118 84z" />
    <glyph glyph-name="afii10068" unicode="&#x433;" horiz-adv-x="433" 
d="M30 491h377l8 -151h-45c-15 80 -28 103 -83 103h-96v-337c0 -59 13 -68 70 -72v-34h-231v34c57 4 70 13 70 72v279c0 59 -13 68 -70 72v34z" />
    <glyph glyph-name="afii10069" unicode="&#x434;" horiz-adv-x="567" 
d="M432 0h-307c-36 0 -67 -50 -67 -145h-48v199h40c26 10 56 48 68 74c29 63 34 132 34 257c0 59 -13 68 -70 72v34h445v-34c-57 -4 -70 -13 -70 -72v-280c0 -44 13 -57 70 -57h20v-48l-25 -145h-48c0 95 -2 145 -42 145zM139 54v-6h227v395h-158c0 -167 -3 -226 -22 -295
c-11 -39 -23 -60 -47 -94z" />
    <glyph glyph-name="afii10070" unicode="&#x435;" horiz-adv-x="483" 
d="M289 49c43 0 98 19 133 42l21 -34c-48 -37 -107 -68 -178 -68c-143 0 -229 96 -229 260c0 163 92 258 215 258c126 0 200 -87 200 -239v-27h-319c2 -145 52 -192 157 -192zM249 459c-68 0 -109 -41 -116 -169h223c0 122 -31 169 -107 169z" />
    <glyph glyph-name="afii10072" unicode="&#x436;" horiz-adv-x="751" 
d="M330 232h-42c-49 0 -64 -37 -86 -106c-25 -80 -57 -135 -176 -135l-8 63c61 8 77 37 93 83c26 75 45 109 99 118v4c-45 15 -54 43 -75 112c-10 34 -21 50 -60 55l-46 6l8 72c106 -3 130 -42 152 -126c22 -83 55 -98 122 -98h19v105c0 59 -9 68 -64 72v34h219v-34
c-55 -4 -64 -13 -64 -72v-105h19c67 0 100 15 122 98c22 84 46 123 152 126l8 -72l-46 -6c-39 -5 -50 -21 -60 -55c-21 -69 -30 -97 -75 -112v-4c54 -9 73 -43 99 -118c16 -46 32 -75 93 -83l-8 -63c-119 0 -151 55 -176 135c-22 69 -37 106 -86 106h-42v-126
c0 -59 9 -68 64 -72v-34h-219v34c55 4 64 13 64 72v126z" />
    <glyph glyph-name="afii10073" unicode="&#x437;" horiz-adv-x="448" 
d="M203 -11c-68 0 -129 18 -171 39v92h58c11 -50 34 -85 112 -85c71 0 113 38 113 103c0 68 -30 94 -114 94h-52v46h51c70 0 95 29 95 89c0 58 -29 90 -97 90c-65 0 -92 -33 -103 -83h-58v87c46 24 101 41 168 41c158 0 184 -68 184 -130c0 -40 -23 -93 -109 -107v-4
c93 -13 132 -53 132 -122c0 -112 -93 -150 -209 -150z" />
    <glyph glyph-name="afii10074" unicode="&#x438;" horiz-adv-x="602" 
d="M412 106v154c0 58 5 98 11 134h-5c-11 -33 -20 -51 -45 -88l-166 -245c-11 -16 -12 -42 -12 -61h-165v34c57 4 70 13 70 72v279c0 59 -13 68 -70 72v34h227v-34c-57 -4 -67 -13 -67 -72v-154c0 -58 -5 -98 -11 -134h5c11 33 20 51 45 88l166 245c11 16 12 42 12 61h165
v-34c-57 -4 -70 -13 -70 -72v-279c0 -59 13 -68 70 -72v-34h-227v34c57 4 67 13 67 72z" />
    <glyph glyph-name="afii10075" unicode="&#x439;" horiz-adv-x="602" 
d="M412 106v154c0 58 5 98 11 134h-5c-11 -33 -20 -51 -45 -88l-166 -245c-11 -16 -12 -42 -12 -61h-165v34c57 4 70 13 70 72v279c0 59 -13 68 -70 72v34h227v-34c-57 -4 -67 -13 -67 -72v-154c0 -58 -5 -98 -11 -134h5c11 33 20 51 45 88l166 245c11 16 12 42 12 61h165
v-34c-57 -4 -70 -13 -70 -72v-279c0 -59 13 -68 70 -72v-34h-227v34c57 4 67 13 67 72zM303 567c-72 0 -136 53 -157 115l31 22c32 -48 73 -59 124 -59s91 11 124 59l32 -22c-21 -62 -83 -115 -154 -115z" />
    <glyph glyph-name="afii10076" unicode="&#x43a;" horiz-adv-x="532" 
d="M503 432l-46 -6c-39 -5 -50 -21 -60 -55c-21 -69 -32 -95 -80 -112v-4c54 -9 78 -43 104 -118c16 -46 32 -75 93 -83l-8 -63c-119 0 -150 55 -177 135c-24 71 -43 106 -94 106h-44v-126c0 -59 10 -68 67 -72v-34h-228v34c57 4 70 13 70 72v279c0 59 -13 68 -70 72v34h228
v-34c-57 -4 -67 -13 -67 -72v-105h24c66 0 106 15 128 98c22 84 46 123 152 126z" />
    <glyph glyph-name="afii10077" unicode="&#x43b;" horiz-adv-x="559" 
d="M148 385c0 59 -13 68 -70 72v34h451v-34c-57 -4 -70 -13 -70 -72v-279c0 -59 13 -68 70 -72v-34h-228v34c57 4 67 13 67 72v337h-166c0 -150 -2 -240 -23 -308c-32 -104 -66 -144 -167 -144l-8 63c38 12 62 24 85 48c59 61 59 155 59 283z" />
    <glyph glyph-name="afii10078" unicode="&#x43c;" horiz-adv-x="692" 
d="M25 0v34c57 4 67 13 70 72l14 264c1 15 1 21 1 27c0 48 -17 56 -70 60v34h170l101 -265c17 -44 30 -89 31 -111h6c1 22 17 70 32 110l97 266h175v-34c-53 -4 -70 -12 -70 -60c0 -9 1 -22 2 -40l13 -251c3 -59 13 -68 70 -72v-34h-222v34c49 3 62 11 62 56
c0 11 -1 27 -2 54l-8 171c-1 25 -2 56 -2 82h-6c-3 -38 -15 -71 -27 -104l-107 -293h-52l-104 272c-14 38 -25 87 -28 126h-6c0 -27 -1 -60 -2 -83l-9 -173c-1 -21 -2 -39 -2 -52c0 -45 13 -53 62 -56v-34h-189z" />
    <glyph glyph-name="afii10079" unicode="&#x43d;" horiz-adv-x="605" 
d="M414 385c0 59 -10 68 -67 72v34h228v-34c-57 -4 -70 -13 -70 -72v-279c0 -59 13 -68 70 -72v-34h-228v34c57 4 67 13 67 72v128h-223v-128c0 -59 10 -68 67 -72v-34h-228v34c57 4 70 13 70 72v279c0 59 -13 68 -70 72v34h228v-34c-57 -4 -67 -13 -67 -72v-103h223v103z
" />
    <glyph glyph-name="afii10080" unicode="&#x43e;" horiz-adv-x="532" 
d="M496 242c0 -159 -97 -254 -230 -254c-134 0 -230 96 -230 259c0 162 96 259 228 259c148 0 232 -113 232 -264zM398 238c0 153 -47 219 -134 219c-100 0 -130 -76 -130 -200c0 -151 36 -220 134 -220c86 0 130 72 130 201z" />
    <glyph glyph-name="afii10081" unicode="&#x43f;" horiz-adv-x="601" 
d="M100 385c0 59 -13 68 -70 72v34h541v-34c-57 -4 -70 -13 -70 -72v-279c0 -59 13 -68 70 -72v-34h-228v34c57 4 67 13 67 72v337h-219v-337c0 -59 10 -68 67 -72v-34h-228v34c57 4 70 13 70 72v279z" />
    <glyph glyph-name="afii10082" unicode="&#x440;" horiz-adv-x="568" 
d="M434 236c0 154 -33 203 -114 203c-47 0 -90 -20 -130 -64v-271c31 -38 79 -60 117 -60c83 0 127 40 127 192zM185 421c37 48 99 82 153 82c110 0 194 -76 194 -248c0 -156 -72 -260 -204 -260c-51 0 -100 17 -138 57v-145c0 -54 10 -66 78 -69v-34h-239v34
c57 4 70 13 70 70v441c0 73 -14 83 -73 85v30l128 40h15c5 -12 14 -45 16 -83z" />
    <glyph glyph-name="afii10083" unicode="&#x441;" horiz-adv-x="463" 
d="M415 464v-92h-68c-10 59 -29 85 -84 85c-76 0 -128 -50 -128 -199c0 -160 46 -214 139 -214c60 0 89 19 133 55l26 -28c-44 -50 -100 -82 -173 -82c-123 0 -224 81 -224 249c0 173 99 265 229 265c77 0 125 -22 150 -39z" />
    <glyph glyph-name="afii10084" unicode="&#x442;" horiz-adv-x="502" 
d="M360 443h-63v-337c0 -59 13 -68 70 -72v-34h-231v34c57 4 70 13 70 72v337h-64c-55 0 -68 -23 -83 -103h-45l8 151h458l8 -151h-45c-15 80 -28 103 -83 103z" />
    <glyph glyph-name="afii10085" unicode="&#x443;" horiz-adv-x="505" 
d="M105 -213l-24 69c76 19 128 40 159 146l-36 -5c-13 52 -28 105 -52 172l-80 218c-19 51 -34 65 -73 70v34h222v-34c-49 -2 -64 -11 -64 -31c0 -7 3 -16 7 -28l72 -202c21 -60 31 -110 35 -132h3c3 16 11 56 29 111l72 223c3 9 5 17 6 23c3 24 -9 34 -63 36v34h188v-34
c-40 -5 -54 -16 -73 -70l-140 -403c-42 -121 -89 -177 -188 -197z" />
    <glyph glyph-name="afii10086" unicode="&#x444;" horiz-adv-x="779" 
d="M36 248c0 156 67 256 191 256c36 0 91 -15 118 -61v141c0 73 -17 83 -76 85v32l137 29h16c9 -29 12 -65 12 -98v-194c29 39 72 66 131 66c113 0 178 -98 178 -249c0 -156 -69 -260 -193 -260c-38 0 -89 17 -116 60v-148c0 -54 10 -66 78 -69v-34h-237v34
c57 4 70 13 70 70v153c-29 -39 -72 -66 -131 -66c-113 0 -178 102 -178 253zM539 439c-45 0 -83 -26 -105 -54v-266c29 -51 63 -74 100 -74c73 0 113 81 113 200c0 136 -38 194 -108 194zM240 60c45 0 83 26 105 54v266c-31 55 -69 74 -106 74c-73 0 -107 -78 -107 -197
c0 -136 38 -197 108 -197z" />
    <glyph glyph-name="afii10087" unicode="&#x445;" horiz-adv-x="521" 
d="M238 215l-81 -129c-7 -11 -10 -20 -10 -27c0 -15 15 -23 49 -25v-34h-182v34c43 4 53 16 85 63l108 160l-94 137c-35 51 -45 58 -93 63v34h223v-34c-32 -2 -45 -7 -45 -19c0 -8 5 -19 14 -33l65 -103h4l62 103c9 15 12 23 12 31c0 10 -7 19 -46 21v34h176v-34
c-43 -5 -57 -16 -87 -63l-85 -132l110 -165c33 -49 41 -59 87 -63v-34h-222v34c35 2 50 7 50 20c0 7 -5 17 -14 32l-82 129h-4z" />
    <glyph glyph-name="afii10088" unicode="&#x446;" horiz-adv-x="609" 
d="M476 0h-446v34c57 4 70 13 70 72v279c0 59 -13 68 -70 72v34h228v-34c-57 -4 -67 -13 -67 -72v-337h219v337c0 59 -10 68 -67 72v34h228v-34c-57 -4 -70 -13 -70 -72v-280c0 -44 13 -57 70 -57h20v-48l-25 -145h-48c0 95 0 145 -42 145z" />
    <glyph glyph-name="afii10089" unicode="&#x447;" horiz-adv-x="582" 
d="M171 385v-78c0 -77 18 -117 93 -117c47 0 91 19 127 42v153c0 59 -10 68 -67 72v34h228v-34c-57 -4 -70 -13 -70 -72v-290c0 -48 13 -57 70 -61v-34h-228v34c57 4 67 13 67 72v84c-40 -32 -92 -62 -154 -62c-96 0 -157 57 -157 161v97c0 59 -13 68 -70 72v33h228v-34
c-57 -4 -67 -13 -67 -72z" />
    <glyph glyph-name="afii10090" unicode="&#x448;" horiz-adv-x="832" 
d="M30 0v33c57 4 70 13 70 72v280c0 59 -13 68 -70 72v34h228v-34c-57 -4 -67 -13 -67 -72v-337h179v337c0 59 -9 69 -62 72v34h216v-34c-53 -3 -62 -13 -62 -72v-337h179v337c0 59 -10 68 -67 72v34h228v-34c-57 -4 -70 -13 -70 -72v-280c0 -59 13 -68 70 -72v-33h-772z
" />
    <glyph glyph-name="afii10091" unicode="&#x449;" horiz-adv-x="838" 
d="M705 0h-677v33c57 4 70 13 70 72v280c0 59 -13 68 -70 72v34h228v-34c-57 -4 -67 -13 -67 -72v-337h179v337c0 59 -9 69 -62 72v34h216v-34c-53 -3 -62 -13 -62 -72v-337h179v337c0 59 -10 68 -67 72v34h228v-34c-57 -4 -70 -13 -70 -72v-280c0 -41 11 -57 58 -57h32v-48
l-25 -145h-48c0 95 -2 145 -42 145z" />
    <glyph glyph-name="afii10092" unicode="&#x44a;" horiz-adv-x="575" 
d="M348 491v-34c-57 -4 -70 -13 -70 -72v-86h52c157 0 225 -40 225 -150c0 -123 -96 -149 -219 -149h-219v34c57 4 70 13 70 72v337h-47c-55 0 -68 -23 -83 -103h-45l8 151h328zM336 252h-58v-205h61c92 0 121 32 121 101c0 68 -19 104 -124 104z" />
    <glyph glyph-name="afii10093" unicode="&#x44b;" horiz-adv-x="742" 
d="M261 491v-34c-57 -4 -70 -13 -70 -72v-86h46c157 0 225 -40 225 -150c0 -122 -94 -149 -214 -149h-218v34c57 4 70 13 70 72v279c0 59 -13 68 -70 72v34h231zM551 385c0 59 -9 68 -66 72v34h227v-34c-57 -4 -70 -13 -70 -72v-279c0 -59 13 -68 70 -72v-34h-227v34
c57 4 66 13 66 72v279zM243 252h-52v-205h55c92 0 121 32 121 101c0 68 -19 104 -124 104z" />
    <glyph glyph-name="afii10094" unicode="&#x44c;" horiz-adv-x="488" 
d="M261 491v-34c-57 -4 -70 -13 -70 -72v-86h52c157 0 225 -40 225 -150c0 -123 -96 -149 -219 -149h-219v34c57 4 70 13 70 72v279c0 59 -13 68 -70 72v34h231zM249 252h-58v-205h61c92 0 121 32 121 101c0 68 -19 104 -124 104z" />
    <glyph glyph-name="afii10095" unicode="&#x44d;" horiz-adv-x="460" 
d="M125 224v48h200c-3 138 -47 185 -130 185c-55 0 -89 -33 -100 -83h-58v87c28 17 85 42 159 42c153 0 228 -87 228 -265c0 -172 -92 -249 -234 -249c-77 0 -133 22 -158 39v91h58c11 -50 43 -84 100 -84c95 0 130 54 134 189h-199z" />
    <glyph glyph-name="afii10096" unicode="&#x44e;" horiz-adv-x="743" 
d="M707 242c0 -159 -94 -254 -217 -254c-121 0 -213 91 -218 246h-81v-128c0 -59 10 -68 67 -72v-34h-228v34c57 4 70 13 70 72v279c0 59 -13 68 -70 72v34h228v-34c-57 -4 -67 -13 -67 -72v-103h82c13 141 102 224 215 224c138 0 219 -113 219 -264zM609 238
c0 153 -44 219 -121 219c-90 0 -118 -76 -118 -200c0 -151 38 -220 122 -220s117 72 117 201z" />
    <glyph glyph-name="afii10097" unicode="&#x44f;" horiz-adv-x="516" 
d="M416 385v-279c0 -59 13 -68 70 -72v-34h-231v34c57 4 70 13 70 72v100h-15c-73 0 -89 -10 -132 -113c-29 -70 -72 -102 -163 -102l-10 63c49 5 73 22 93 64c31 66 39 84 88 93v4c-82 3 -145 36 -145 134c0 117 104 142 227 142h218v-34c-57 -4 -70 -13 -70 -72zM136 350
c0 -68 33 -101 90 -101h99v195h-62c-82 0 -127 -25 -127 -94z" />
    <glyph glyph-name="uni0450" unicode="&#x450;" horiz-adv-x="483" 
d="M289 49c43 0 98 19 133 42l21 -34c-48 -37 -107 -68 -178 -68c-143 0 -229 96 -229 260c0 163 92 258 215 258c126 0 200 -87 200 -239v-27h-319c2 -145 52 -192 157 -192zM249 459c-68 0 -109 -41 -116 -169h223c0 122 -31 169 -107 169zM356 600l-20 -34l-212 96l53 91
z" />
    <glyph glyph-name="afii10071" unicode="&#x451;" horiz-adv-x="483" 
d="M289 49c43 0 98 19 133 42l21 -34c-48 -37 -107 -68 -178 -68c-143 0 -229 96 -229 260c0 163 92 258 215 258c126 0 200 -87 200 -239v-27h-319c2 -145 52 -192 157 -192zM249 459c-68 0 -109 -41 -116 -169h223c0 122 -31 169 -107 169zM197 638c0 -34 -26 -60 -60 -60
s-60 26 -60 60s26 60 60 60s60 -26 60 -60zM406 638c0 -34 -26 -60 -60 -60s-60 26 -60 60s26 60 60 60s60 -26 60 -60z" />
    <glyph glyph-name="afii10099" unicode="&#x452;" horiz-adv-x="573" 
d="M401 351c0 59 -25 82 -73 82c-60 0 -98 -24 -138 -63v-273c0 -49 7 -60 70 -63v-34h-231v34c57 4 70 13 70 70v460h-77v41h77c-1 59 -9 62 -76 64v32l140 29h15c6 -17 12 -58 12 -99v-26h163v-41h-163v-143c45 45 91 82 167 82c80 0 135 -47 135 -134v-278
c0 -175 -13 -225 -120 -287l-43 52c58 42 72 91 72 148v347z" />
    <glyph glyph-name="afii10100" unicode="&#x453;" horiz-adv-x="433" 
d="M30 491h377l8 -151h-45c-15 80 -28 103 -83 103h-96v-337c0 -59 13 -68 70 -72v-34h-231v34c57 4 70 13 70 72v279c0 59 -13 68 -70 72v34zM151 566l-20 34l179 153l53 -91z" />
    <glyph glyph-name="afii10101" unicode="&#x454;" horiz-adv-x="462" 
d="M420 464v-87h-68c-11 50 -32 80 -87 80c-83 0 -128 -47 -130 -185h194v-48h-194c6 -134 47 -180 143 -180c60 0 90 19 134 55l26 -28c-44 -50 -101 -82 -174 -82c-143 0 -228 81 -228 249c0 173 81 265 231 265c77 0 128 -22 153 -39z" />
    <glyph glyph-name="afii10102" unicode="&#x455;" horiz-adv-x="431" 
d="M202 -12c-92 0 -141 27 -165 42v97h67c7 -68 37 -93 107 -93c57 0 103 23 103 87c0 54 -29 73 -86 87l-59 14c-75 18 -127 58 -127 139c0 94 79 144 175 144c78 0 126 -23 150 -35v-90h-64c-10 53 -38 79 -94 79c-59 0 -92 -29 -92 -77c0 -42 19 -65 80 -79l59 -14
c94 -22 137 -64 137 -136c0 -100 -74 -165 -191 -165z" />
    <glyph glyph-name="afii10103" unicode="&#x456;" horiz-adv-x="286" 
d="M260 0h-231v34c57 4 70 13 70 70v245c0 73 -14 83 -73 85v30l149 40h15v-400c0 -57 7 -67 70 -70v-34zM200 644c0 -35 -27 -63 -62 -63s-62 28 -62 63s27 63 62 63s62 -28 62 -63z" />
    <glyph glyph-name="afii10104" unicode="&#x457;" horiz-adv-x="286" 
d="M260 0h-231v34c57 4 70 13 70 70v245c0 73 -14 83 -73 85v30l149 40h15v-400c0 -57 7 -67 70 -70v-34zM99 638c0 -34 -26 -60 -60 -60s-60 26 -60 60s26 60 60 60s60 -26 60 -60zM308 638c0 -34 -26 -60 -60 -60s-60 26 -60 60s26 60 60 60s60 -26 60 -60z" />
    <glyph glyph-name="afii10105" unicode="&#x458;" horiz-adv-x="269" 
d="M99 12v337c0 73 -14 83 -73 85v30l149 40h15v-493c0 -148 -57 -177 -142 -217l-29 40c61 28 80 75 80 178zM200 644c0 -35 -27 -63 -62 -63s-62 28 -62 63s27 63 62 63s62 -28 62 -63z" />
    <glyph glyph-name="afii10106" unicode="&#x459;" horiz-adv-x="744" 
d="M148 385c0 59 -13 68 -70 72v34h445v-34c-57 -4 -70 -13 -70 -72v-86h46c157 0 225 -40 225 -150c0 -123 -96 -149 -219 -149h-208v34c57 4 65 13 65 72v337h-160c0 -150 -2 -240 -23 -308c-32 -104 -66 -144 -167 -144l-8 63c38 12 62 23 85 47c59 61 59 156 59 284z
M505 252h-52v-205h55c92 0 121 32 121 101c0 68 -19 104 -124 104z" />
    <glyph glyph-name="afii10107" unicode="&#x45a;" horiz-adv-x="766" 
d="M87 385c0 59 -13 68 -70 72v34h228v-34c-57 -4 -67 -13 -67 -72v-91h206v91c0 59 -10 68 -67 72v34h228v-34c-57 -4 -70 -13 -70 -72v-91h46c157 0 225 -35 225 -145c0 -122 -95 -149 -216 -149h-213v34c57 4 67 13 67 72v140h-206v-140c0 -59 10 -68 67 -72v-34h-228v34
c57 4 70 13 70 72v279zM527 246h-52v-200h59c89 0 117 34 117 102s-19 98 -124 98z" />
    <glyph glyph-name="afii10108" unicode="&#x45b;" horiz-adv-x="583" 
d="M190 631v-26h163v-41h-163v-143c45 45 91 82 167 82c80 0 135 -47 135 -134v-265c0 -57 12 -66 65 -70v-34h-226v34c63 3 70 14 70 63v254c0 59 -25 82 -73 82c-60 0 -98 -24 -138 -63v-273c0 -49 7 -60 70 -63v-34h-231v34c57 4 70 13 70 70v460h-77v41h77
c-1 59 -9 62 -76 64v32l140 29h15c6 -17 12 -58 12 -99z" />
    <glyph glyph-name="afii10109" unicode="&#x45c;" horiz-adv-x="532" 
d="M503 432l-46 -6c-39 -5 -50 -21 -60 -55c-21 -69 -32 -95 -80 -112v-4c54 -9 78 -43 104 -118c16 -46 32 -75 93 -83l-8 -63c-119 0 -150 55 -177 135c-24 71 -43 106 -94 106h-44v-126c0 -59 10 -68 67 -72v-34h-228v34c57 4 70 13 70 72v279c0 59 -13 68 -70 72v34h228
v-34c-57 -4 -67 -13 -67 -72v-105h24c66 0 106 15 128 98c22 84 46 123 152 126zM202 574l-20 34l179 153l53 -91z" />
    <glyph glyph-name="uni045D" unicode="&#x45d;" horiz-adv-x="602" 
d="M412 106v154c0 58 5 98 11 134h-5c-11 -33 -20 -51 -45 -88l-166 -245c-11 -16 -12 -42 -12 -61h-165v34c57 4 70 13 70 72v279c0 59 -13 68 -70 72v34h227v-34c-57 -4 -67 -13 -67 -72v-154c0 -58 -5 -98 -11 -134h5c11 33 20 51 45 88l166 245c11 16 12 42 12 61h165
v-34c-57 -4 -70 -13 -70 -72v-279c0 -59 13 -68 70 -72v-34h-227v34c57 4 67 13 67 72zM395 600l-20 -34l-212 96l53 91z" />
    <glyph glyph-name="afii10110" unicode="&#x45e;" horiz-adv-x="505" 
d="M105 -213l-24 69c76 19 128 40 159 146l-36 -5c-13 52 -28 105 -52 172l-80 218c-19 51 -34 65 -73 70v34h222v-34c-49 -2 -64 -11 -64 -31c0 -7 3 -16 7 -28l72 -202c21 -60 31 -110 35 -132h3c3 16 11 56 29 111l72 223c3 9 5 17 6 23c3 24 -9 34 -63 36v34h188v-34
c-40 -5 -54 -16 -73 -70l-140 -403c-42 -121 -89 -177 -188 -197zM254 567c-72 0 -136 53 -157 115l31 22c32 -48 73 -59 124 -59s91 11 124 59l32 -22c-21 -62 -83 -115 -154 -115z" />
    <glyph glyph-name="afii10193" unicode="&#x45f;" horiz-adv-x="601" 
d="M30 0v34c57 4 70 13 70 72v279c0 59 -13 68 -70 72v34h228v-34c-57 -4 -67 -13 -67 -72v-337h219v337c0 59 -10 68 -67 72v34h228v-34c-57 -4 -70 -13 -70 -72v-279c0 -59 13 -68 70 -72v-34h-194c-35 0 -52 -50 -52 -145h-49c0 95 -17 145 -52 145h-194z" />
    <glyph glyph-name="afii10146" unicode="&#x462;" horiz-adv-x="690" 
d="M160 529c-67 0 -79 -20 -87 -94h-47l5 143h197c0 57 -13 74 -80 76v35h255v-35c-67 -2 -80 -19 -80 -76h194l8 -143h-47c-16 76 -29 94 -89 94h-66v-137h85c197 0 258 -85 258 -193c0 -126 -81 -199 -232 -199h-286v35c67 2 80 19 80 76v418h-68zM565 189
c0 110 -31 155 -155 155h-87v-295h105c99 0 137 44 137 140z" />
    <glyph glyph-name="afii10194" unicode="&#x463;" horiz-adv-x="542" 
d="M286 443h-43v-104h52c157 0 225 -54 225 -168c0 -129 -96 -171 -219 -171h-219v34c57 4 70 13 70 72v337h-41c-55 0 -67 -6 -82 -81h-45l7 129h161v92c0 73 -17 83 -76 85v32l140 29h15c6 -19 12 -53 12 -99v-139h163l7 -129h-45c-15 75 -27 81 -82 81zM301 292h-58v-245
h61c84 0 121 44 121 123c0 78 -26 122 -124 122z" />
    <glyph glyph-name="afii10147" unicode="&#x472;" horiz-adv-x="674" 
d="M340 -11c-197 0 -296 151 -296 358c0 227 115 354 291 354c211 0 295 -169 295 -361c0 -211 -108 -351 -290 -351zM340 34c115 0 185 85 186 294h-380c5 -177 56 -294 194 -294zM335 654c-128 0 -185 -94 -189 -276h379c-8 177 -61 276 -190 276z" />
    <glyph glyph-name="afii10195" unicode="&#x473;" horiz-adv-x="532" 
d="M496 242c0 -159 -97 -254 -230 -254c-134 0 -230 96 -230 259c0 162 96 259 228 259c148 0 232 -113 232 -264zM268 37c83 0 127 67 130 187h-264c5 -128 43 -187 134 -187zM264 457c-96 0 -128 -70 -130 -185h263c-7 129 -53 185 -133 185z" />
    <glyph glyph-name="afii10148" unicode="&#x474;" horiz-adv-x="668" 
d="M519 515l-147 -515h-93l-179 566c-19 59 -32 83 -84 88v35h245v-35c-48 -2 -68 -12 -68 -42c0 -8 1 -16 5 -30l89 -303c16 -56 39 -147 50 -196h6c9 48 30 126 49 196l67 245c30 111 54 172 179 176l13 -80l-52 -10c-47 -9 -64 -40 -80 -95z" />
    <glyph glyph-name="afii10196" unicode="&#x475;" horiz-adv-x="527" 
d="M295 173l59 190c31 101 56 138 162 141l8 -76l-47 -6c-37 -5 -47 -19 -76 -102l-112 -325h-69l-148 392c-20 53 -34 65 -73 70v34h222v-34c-48 -2 -64 -10 -64 -29c0 -8 2 -16 7 -30l81 -223c6 -17 18 -59 23 -87h4c6 28 19 73 23 85z" />
    <glyph glyph-name="afii10050" unicode="&#x490;" horiz-adv-x="510" 
d="M37 689h307c73 0 96 27 116 112h44l-15 -161h-277v-527c0 -57 14 -76 85 -78v-35h-260v35c67 2 80 19 80 76v467c0 57 -13 74 -80 76v35z" />
    <glyph glyph-name="afii10098" unicode="&#x491;" horiz-adv-x="419" 
d="M30 491h257c55 0 68 23 83 103h45l-8 -151h-216v-337c0 -59 13 -68 70 -72v-34h-231v34c57 4 70 13 70 72v279c0 59 -13 68 -70 72v34z" />
    <glyph glyph-name="uni0492" unicode="&#x492;" horiz-adv-x="531" 
d="M217 640v-256h173v-46h-173v-225c0 -57 17 -76 88 -78v-35h-263v35c67 2 80 19 80 76v227h-73v46h73v194c0 57 -13 74 -80 76v35h456l15 -161h-44c-20 85 -43 112 -116 112h-136z" />
    <glyph glyph-name="uni0493" unicode="&#x493;" horiz-adv-x="433" 
d="M30 491h377l8 -151h-45c-15 80 -28 103 -83 103h-96v-171h117v-48h-117v-118c0 -59 13 -68 70 -72v-34h-231v34c57 4 70 13 70 72v118h-61v48h61v113c0 59 -13 68 -70 72v34z" />
    <glyph glyph-name="uni0496" unicode="&#x496;" horiz-adv-x="974" 
d="M786 545c-18 -125 -48 -154 -112 -175v-4c79 -21 92 -50 130 -193c19 -71 55 -125 132 -125h30v-48l-25 -180h-51c0 135 -5 169 -45 179c-81 21 -109 56 -141 176c-30 110 -43 165 -118 165h-60v-229c0 -57 13 -74 80 -76v-35h-255v35c67 2 80 19 80 76v229h-54
c-82 0 -94 -52 -124 -165c-39 -146 -87 -185 -217 -185l-9 67c77 7 107 45 126 116c38 143 51 172 130 193v4c-64 21 -94 50 -112 175c-5 37 -27 57 -65 63l-61 10l9 79c125 -4 165 -61 176 -152c18 -151 91 -155 176 -155h25v188c0 57 -13 74 -80 76v35h255v-35
c-67 -2 -80 -19 -80 -76v-188h25c85 0 158 4 176 155c11 91 51 148 176 152l9 -79l-61 -10c-38 -6 -60 -26 -65 -63z" />
    <glyph glyph-name="uni0497" unicode="&#x497;" horiz-adv-x="767" 
d="M722 432l-46 -6c-39 -5 -50 -21 -60 -55c-21 -69 -33 -97 -78 -112v-4c54 -9 76 -43 102 -118c16 -46 38 -89 100 -89h30v-48l-25 -145h-48c0 94 -1 131 -44 145c-61 20 -83 64 -104 126c-24 69 -40 106 -89 106h-39v-126c0 -59 9 -68 64 -72v-34h-219v34
c55 4 64 13 64 72v126h-35c-52 0 -69 -35 -93 -106c-27 -80 -57 -135 -176 -135l-8 63c61 8 77 37 93 83c26 75 48 109 102 118v4c-45 15 -57 43 -78 112c-10 34 -21 50 -60 55l-46 6l8 72c106 -3 130 -42 152 -126c22 -83 58 -98 125 -98h16v105c0 59 -9 68 -64 72v34h219
v-34c-55 -4 -64 -13 -64 -72v-105h16c67 0 103 15 125 98c22 84 46 123 152 126z" />
    <glyph glyph-name="uni0498" unicode="&#x498;" horiz-adv-x="531" 
d="M211 340h-43v51h67c105 0 138 70 138 144c0 73 -47 119 -126 119c-96 0 -124 -44 -136 -111h-65v107c36 26 119 51 195 51c139 0 230 -53 230 -167c0 -82 -59 -145 -155 -164v-4c107 -15 183 -56 183 -172c0 -123 -88 -197 -234 -204l-8 -29c62 -4 85 -38 85 -74
c0 -55 -32 -85 -99 -85c-38 0 -62 12 -81 25l16 32c22 -14 40 -18 62 -18s40 6 40 36c0 26 -36 32 -70 33v21l16 58c-93 3 -158 33 -192 55v123h67c13 -88 42 -131 151 -131c108 0 144 71 144 148c0 88 -21 156 -185 156z" />
    <glyph glyph-name="uni0499" unicode="&#x499;" horiz-adv-x="444" 
d="M312 -113c0 -55 -32 -85 -99 -85c-38 0 -62 12 -81 25l16 32c22 -14 40 -18 62 -18s40 6 40 36c0 26 -36 32 -70 33v21l16 58c-63 2 -120 19 -160 39v92h58c11 -50 34 -85 112 -85c71 0 113 38 113 103c0 68 -30 94 -114 94h-52v46h51c70 0 95 29 95 89
c0 58 -29 90 -97 90c-65 0 -92 -33 -103 -83h-58v87c46 24 101 41 168 41c158 0 184 -68 184 -130c0 -40 -23 -93 -109 -107v-4c93 -13 132 -53 132 -122c0 -103 -78 -143 -181 -149l-8 -29c62 -4 85 -38 85 -74z" />
    <glyph glyph-name="uni049A" unicode="&#x49a;" horiz-adv-x="661" 
d="M282 340h-70v-229c0 -57 13 -74 80 -76v-35h-255v35c67 2 80 19 80 76v467c0 57 -13 74 -80 76v35h255v-35c-67 -2 -80 -19 -80 -76v-188h35c90 0 156 4 175 155c11 88 51 148 176 152l9 -77l-61 -10c-38 -6 -60 -26 -65 -63c-18 -125 -47 -155 -111 -176v-5
c79 -21 92 -50 130 -193c19 -71 55 -125 132 -125h21v-48l-25 -180h-51c0 132 -5 171 -43 179c-66 14 -104 63 -134 176c-34 127 -43 165 -118 165z" />
    <glyph glyph-name="uni049B" unicode="&#x49b;" horiz-adv-x="547" 
d="M330 126c-24 71 -44 105 -95 106h-44v-126c0 -59 10 -68 67 -72v-34h-228v34c57 4 70 13 70 72v279c0 59 -13 68 -70 72v34h228v-34c-57 -4 -67 -13 -67 -72v-105h24c66 0 106 15 128 98c22 84 46 123 152 126l8 -72l-45 -6c-39 -5 -51 -21 -61 -55
c-21 -69 -32 -95 -80 -112v-4c54 -9 78 -43 104 -118c16 -46 40 -89 102 -89h30v-48l-25 -145h-48c0 94 -1 131 -44 145c-61 20 -85 64 -106 126z" />
    <glyph glyph-name="uni049C" unicode="&#x49c;" horiz-adv-x="653" 
d="M481 543c-18 -123 -47 -151 -111 -172v-5c79 -21 92 -50 130 -193c19 -71 49 -109 126 -116l-9 -67c-130 0 -182 39 -219 185c-25 99 -35 144 -85 160l6 -184h-52v189h-55v-229c0 -57 13 -74 80 -76v-35h-255v35c67 2 80 19 80 76v467c0 57 -13 74 -80 76v35h255v-35
c-67 -2 -80 -19 -80 -76v-188h55v116h50l-4 -113c50 8 95 39 109 152c11 88 51 148 176 152l9 -79l-61 -10c-38 -6 -60 -28 -65 -65z" />
    <glyph glyph-name="uni049D" unicode="&#x49d;" horiz-adv-x="532" 
d="M191 280h30v95h46l-7 -92c46 7 66 30 83 95c22 84 46 123 152 126l8 -72l-45 -6c-39 -5 -51 -21 -61 -55c-21 -69 -32 -95 -80 -112v-4c54 -9 78 -43 104 -118c16 -46 32 -75 93 -83l-8 -63c-119 0 -149 55 -176 135c-20 58 -37 92 -71 102l8 -115h-46v119h-30v-126
c0 -59 10 -68 67 -72v-34h-228v34c57 4 70 13 70 72v279c0 59 -13 68 -70 72v34h228v-34c-57 -4 -67 -13 -67 -72v-105z" />
    <glyph glyph-name="uni04A0" unicode="&#x4a0;" horiz-adv-x="756" 
d="M584 543c-18 -123 -47 -151 -111 -172v-5c79 -21 92 -50 130 -193c19 -71 49 -109 126 -116l-9 -67c-130 0 -181 39 -219 185c-30 115 -42 165 -121 165h-65v-229c0 -57 13 -74 80 -76v-35h-255v35c67 2 80 19 80 76v529h-44c-73 0 -96 -27 -116 -112h-44l15 161h364v-35
c-67 -2 -80 -19 -80 -76v-188h35c90 0 157 4 176 155c11 88 50 148 175 152l9 -79l-61 -10c-38 -6 -60 -28 -65 -65z" />
    <glyph glyph-name="uni04A1" unicode="&#x4a1;" horiz-adv-x="626" 
d="M329 232h-44v-126c0 -59 10 -68 67 -72v-34h-228v34c57 4 70 13 70 72v337h-54c-55 0 -68 -23 -83 -103h-45l8 151h332v-34c-57 -4 -67 -13 -67 -72v-105h24c66 0 106 15 128 98c22 84 46 123 152 126l8 -72l-45 -6c-39 -5 -51 -21 -61 -55c-21 -69 -32 -95 -80 -112v-4
c54 -9 78 -43 104 -118c16 -46 32 -75 93 -83l-8 -63c-119 0 -149 55 -176 135c-24 71 -44 105 -95 106z" />
    <glyph glyph-name="uni04A2" unicode="&#x4a2;" horiz-adv-x="708" 
d="M666 -180h-51c0 139 -2 180 -42 180h-157v35c67 2 80 19 80 76v229h-284v-229c0 -57 13 -74 80 -76v-35h-255v35c67 2 80 19 80 76v467c0 57 -13 74 -80 76v35h255v-35c-67 -2 -80 -19 -80 -76v-188h284v188c0 57 -13 74 -80 76v35h255v-35c-67 -2 -80 -19 -80 -76v-465
c0 -46 12 -65 75 -65h25v-48z" />
    <glyph glyph-name="uni04A3" unicode="&#x4a3;" horiz-adv-x="613" 
d="M480 0h-133v34c57 4 67 13 67 72v128h-223v-128c0 -59 10 -68 67 -72v-34h-228v34c57 4 70 13 70 72v279c0 59 -13 68 -70 72v34h228v-34c-57 -4 -67 -13 -67 -72v-103h223v103c0 59 -10 68 -67 72v34h228v-34c-57 -4 -70 -13 -70 -72v-280c0 -41 11 -57 58 -57h32v-48
l-25 -145h-48c0 95 -2 145 -42 145z" />
    <glyph glyph-name="uni04AA" unicode="&#x4aa;" horiz-adv-x="577" 
d="M425 -144l16 -24c-24 -23 -53 -37 -95 -37c-63 0 -98 35 -98 86c0 43 27 91 79 109c-192 4 -283 144 -283 349c0 230 119 362 296 362c109 0 161 -21 198 -47v-112h-70c-19 77 -48 112 -131 112c-115 0 -188 -81 -188 -313c0 -240 76 -305 199 -305c79 0 115 30 130 108
h65v-105c-32 -23 -86 -43 -139 -47c-64 -5 -76 -59 -76 -97c0 -31 17 -52 44 -52c18 0 31 2 53 13z" />
    <glyph glyph-name="uni04AB" unicode="&#x4ab;" horiz-adv-x="463" 
d="M362 -144l16 -24c-24 -23 -53 -37 -95 -37c-63 0 -98 35 -98 86c0 42 25 88 77 108c-126 0 -226 84 -226 249c0 173 99 265 229 265c77 0 125 -22 150 -39v-92h-68c-10 59 -29 85 -84 85c-76 0 -128 -50 -128 -199c0 -160 46 -214 139 -214c60 0 89 19 133 55l26 -28
c-30 -34 -63 -58 -103 -71c-44 -14 -65 -68 -65 -105c0 -31 17 -52 44 -52c18 0 31 2 53 13z" />
    <glyph glyph-name="uni04AE" unicode="&#x4ae;" horiz-adv-x="594" 
d="M319 345h4l108 234c8 18 12 31 12 43c0 23 -21 30 -59 32v35h199v-35c-40 -5 -60 -19 -97 -93l-137 -279v-171c0 -57 15 -74 85 -76v-35h-265v35c70 2 85 19 85 76v165l-149 296c-32 64 -55 77 -94 82v35h238v-35c-38 -1 -53 -10 -53 -30c0 -13 5 -27 14 -47z" />
    <glyph glyph-name="uni04AF" unicode="&#x4af;" horiz-adv-x="505" 
d="M433 387l-130 -354v-126c0 -54 10 -66 78 -69v-34h-239v34c57 4 70 13 70 70v108l-140 371c-20 53 -34 65 -73 70v34h222v-34c-48 -2 -64 -10 -64 -29c0 -8 2 -16 7 -30l81 -223c6 -17 18 -59 23 -87h4c3 13 14 56 24 86l79 224c4 12 7 23 7 29c0 20 -16 28 -64 30v34
h188v-34c-40 -5 -53 -16 -73 -70z" />
    </font>
</defs>
</svg>
