<?xml version="1.0" standalone="no"?>
<!DOCTYPE svg PUBLIC "-//W3C//DTD SVG 1.1//EN" "http://www.w3.org/Graphics/SVG/1.1/DTD/svg11.dtd" >
<svg xmlns="http://www.w3.org/2000/svg" xmlns:xlink="http://www.w3.org/1999/xlink" version="1.1">
<metadata>
Created by FontForge 20170910 at Mon Mar 19 09:58:49 2012
 By Jimmy Wärting

</metadata>
<defs>
<font id="MetaSerifPro-Extrabold" horiz-adv-x="1" >
  <font-face 
    font-family="MetaSerifPro-Extrabold"
    font-weight="750"
    font-stretch="normal"
    units-per-em="1000"
    panose-1="2 1 9 4 5 1 1 2 1 2"
    ascent="763"
    descent="-237"
    x-height="513"
    cap-height="696"
    bbox="-758 -288 1642 1168"
    underline-thickness="79"
    underline-position="-85"
    stemh="48"
    stemv="162"
    unicode-range="U+000D-FEFF"
  />
<missing-glyph horiz-adv-x="553" 
d="M71 0v689h411v-689h-411zM121 50h311v589h-311v-589z" />
    <glyph glyph-name="f_b" unicode="fb" horiz-adv-x="957" 
d="M751 245c0 136 -35 173 -89 173c-32 0 -61 -11 -84 -34v-272c21 -24 45 -33 78 -33c57 0 95 29 95 166zM578 735v-289c22 46 70 79 144 79c122 0 200 -84 200 -265c0 -196 -101 -273 -237 -273c-76 0 -124 31 -145 71c-5 -19 -16 -47 -30 -58h-107c9 24 13 52 13 117v463
c0 54 -22 92 -85 92c-47 0 -83 -23 -83 -115v-44h115l-17 -81h-97v-314c0 -57 10 -70 58 -70v-48h-279v48c48 0 59 13 59 70v314h-61v56l61 25v31c0 145 102 200 232 200c65 0 109 -12 151 -38l27 29h81z" />
    <glyph glyph-name="f_f" unicode="ff" horiz-adv-x="691" 
d="M756 720v-110h-92c-1 48 -15 62 -39 62c-31 0 -45 -22 -45 -64v-96h121l-16 -80h-104v-315c0 -56 12 -69 79 -70v-47h-299v47c48 1 59 13 59 70v315h-171v-315c0 -56 10 -69 57 -70v-47h-278v47c48 1 58 13 58 70v315h-60v55l60 25v25c0 135 108 197 246 197
c55 0 104 -12 143 -32c33 27 80 41 140 41c41 0 108 -8 141 -23zM248 551v-39h172v65c0 56 -23 85 -81 85c-50 0 -91 -30 -91 -111z" />
    <glyph glyph-name="f_f_b" unicode="ffb" horiz-adv-x="1290" 
d="M911 735v-289c22 46 70 79 145 79c121 0 199 -84 199 -265c0 -196 -101 -273 -236 -273c-77 0 -124 31 -145 71c-6 -19 -17 -47 -31 -58h-107c9 24 13 52 13 117v463c0 54 -22 92 -84 92c-48 0 -84 -23 -84 -115v-44h115l-17 -81h-97v-314c0 -57 10 -70 58 -70v-48h-278
v48c48 0 58 13 58 70v314h-171v-314c0 -57 10 -70 58 -70v-48h-279v48c48 0 59 13 59 70v314h-61v56l61 25v24c0 135 107 197 246 197c65 0 110 -17 150 -38c42 33 104 48 169 48c64 0 109 -12 151 -38l28 29h80zM248 551v-38h172v65c0 56 -22 85 -80 85
c-50 0 -92 -31 -92 -112zM1083 245c0 136 -34 173 -88 173c-32 0 -61 -11 -84 -34v-272c21 -24 46 -33 78 -33c56 0 94 29 94 166z" />
    <glyph glyph-name="f_f_h" unicode="ffh" horiz-adv-x="1300" 
d="M911 735v-294c44 49 93 84 171 84c83 0 147 -48 147 -155v-252c0 -57 10 -70 58 -70v-48h-279v48c50 0 59 13 59 69v214c0 61 -24 81 -64 81c-41 0 -70 -16 -92 -32v-263c0 -56 9 -69 59 -69v-48h-280v48c48 0 59 13 59 70v462c0 54 -22 92 -84 92
c-48 0 -84 -23 -84 -115v-44h115l-17 -81h-97v-314c0 -57 10 -70 58 -70v-48h-278v48c48 0 58 13 58 70v314h-171v-314c0 -57 10 -70 58 -70v-48h-279v48c48 0 59 13 59 70v314h-61v56l61 25v24c0 135 107 197 246 197c65 0 110 -17 150 -38c42 33 104 48 169 48
c64 0 109 -12 151 -38l28 29h80zM248 551v-38h172v65c0 56 -22 85 -80 85c-50 0 -92 -31 -92 -112z" />
    <glyph glyph-name="f_f_i" unicode="ffi" horiz-adv-x="983" 
d="M908 117c0 -57 9 -69 58 -70v-47h-278v47c47 1 57 13 57 70v230c0 71 -9 85 -54 85h-110v-315c0 -56 10 -69 58 -70v-47h-278v47c48 1 59 13 59 70v315h-171v-315c0 -56 10 -69 57 -70v-47h-278v47c48 1 58 13 58 70v315h-60v55l60 25v25c0 135 108 197 246 197
c56 0 106 -13 148 -37c40 31 98 46 173 46c70 0 138 -11 179 -34v-112h-128c-1 51 -16 75 -57 75c-46 0 -67 -24 -67 -92v-68h244l60 10h24v-405zM248 551v-39h172v66c0 55 -23 84 -81 84c-50 0 -91 -30 -91 -111z" />
    <glyph glyph-name="f_f_j" unicode="ffj" horiz-adv-x="977" 
d="M420 513v65c0 56 -22 85 -80 85c-50 0 -92 -31 -92 -112v-38h172zM692 432h-110v-314c0 -57 10 -70 58 -70v-48h-278v48c48 0 58 13 58 70v314h-171v-314c0 -57 10 -70 58 -70v-48h-279v48c48 0 59 13 59 70v314h-61v56l61 25v24c0 135 107 197 246 197
c55 0 106 -13 147 -37c41 31 99 47 173 47c71 0 138 -12 180 -35v-111h-129c0 51 -15 74 -57 74c-45 0 -66 -23 -66 -92v-67h243l59 10h24v-506c0 -149 -119 -205 -213 -223l-29 45c61 28 80 75 80 178v330c0 71 -9 85 -53 85z" />
    <glyph glyph-name="f_f_k" unicode="ffk" horiz-adv-x="1274" 
d="M1151 404l-88 -94l130 -209c27 -44 48 -49 81 -53v-48h-202l-152 259l127 142c11 12 16 24 16 34c0 17 -17 29 -48 29v49h238v-49c-40 -5 -66 -21 -102 -60zM483 696c42 33 104 48 169 48c64 0 109 -12 151 -38l28 29h80v-617c0 -57 10 -70 59 -70v-48h-280v48
c48 0 59 13 59 70v462c0 54 -22 92 -84 92c-48 0 -84 -23 -84 -115v-44h115l-17 -81h-97v-314c0 -57 10 -70 58 -70v-48h-278v48c48 0 58 13 58 70v314h-171v-314c0 -57 10 -70 58 -70v-48h-279v48c48 0 59 13 59 70v314h-61v56l61 25v24c0 135 107 197 246 197
c65 0 110 -17 150 -38zM248 551v-38h172v65c0 56 -22 85 -80 85c-50 0 -92 -31 -92 -112z" />
    <glyph glyph-name="f_f_l" unicode="ffl" horiz-adv-x="987" 
d="M483 696c42 33 103 48 169 48c64 0 109 -12 151 -38l27 29h81v-617c0 -57 9 -70 59 -70v-48h-281v48c49 0 59 13 59 70v462c0 54 -21 92 -84 92c-47 0 -83 -23 -83 -115v-44h115l-17 -81h-97v-314c0 -57 10 -70 58 -70v-48h-278v48c48 0 58 13 58 70v314h-171v-314
c0 -57 10 -70 58 -70v-48h-279v48c48 0 59 13 59 70v314h-61v56l61 25v24c0 135 107 197 246 197c64 0 110 -17 150 -38zM248 551v-38h172v65c0 56 -23 85 -81 85c-49 0 -91 -31 -91 -112z" />
    <glyph glyph-name="f_f_t" unicode="fft" horiz-adv-x="1054" 
d="M609 744c41 0 108 -8 141 -23v-111h-93c0 48 -13 62 -37 62c-27 0 -39 -21 -39 -63v-96h184c6 45 23 95 48 133l117 13c-5 -36 -9 -95 -9 -146h121l-17 -81h-103v-261c0 -73 5 -103 55 -103c19 0 35 4 57 13l18 -56c-40 -25 -86 -38 -145 -38c-95 0 -147 34 -147 146v299
h-178v-314c0 -57 12 -70 79 -70v-48h-299v48c48 0 58 13 58 70v314h-171v-314c0 -57 10 -70 58 -70v-48h-279v48c48 0 59 13 59 70v314h-61v56l61 25v24c0 135 107 197 246 197c55 0 103 -12 142 -31c33 27 74 41 134 41zM248 551v-38h172v65c0 56 -23 85 -80 85
c-50 0 -92 -31 -92 -112z" />
    <glyph glyph-name="f_h" unicode="fh" horiz-adv-x="966" 
d="M578 735v-294c44 49 92 84 171 84c82 0 147 -48 147 -155v-252c0 -57 11 -70 58 -70v-48h-278v48c48 0 58 13 58 69v214c0 61 -24 81 -64 81c-41 0 -70 -16 -92 -32v-263c0 -56 9 -69 59 -69v-48h-280v48c48 0 59 13 59 70v462c0 54 -22 92 -85 92
c-47 0 -83 -23 -83 -115v-44h115l-17 -81h-97v-314c0 -57 10 -70 58 -70v-48h-279v48c48 0 59 13 59 70v314h-61v56l61 25v31c0 145 102 200 232 200c65 0 109 -12 151 -38l27 29h81z" />
    <glyph glyph-name="f_i" unicode="fi" horiz-adv-x="650" 
d="M574 117c0 -57 10 -69 59 -70v-47h-279v47c48 1 59 13 59 70v230c0 71 -10 85 -54 85h-110v-315c0 -56 10 -69 57 -70v-47h-278v47c48 1 58 13 58 70v315h-60v55l60 25v49c0 127 89 182 234 182c71 0 137 -11 179 -34v-112h-128c-1 51 -16 75 -58 75
c-45 0 -65 -24 -65 -92v-68h243l60 10h23v-405z" />
    <glyph glyph-name="f_j" unicode="fj" horiz-adv-x="644" 
d="M412 17v330c0 71 -10 85 -54 85h-109v-314c0 -57 10 -70 58 -70v-48h-279v48c48 0 59 13 59 70v314h-61v56l61 25v49c0 127 88 182 233 182c71 0 138 -12 180 -35v-111h-129c-1 51 -16 74 -57 74c-45 0 -66 -23 -66 -92v-67h243l59 10h24v-506
c0 -149 -120 -205 -213 -223l-29 45c61 28 80 75 80 178z" />
    <glyph glyph-name="f_k" unicode="fk" horiz-adv-x="941" 
d="M819 404l-89 -94l129 -209c27 -45 48 -49 81 -53v-48h-201l-152 259l127 142c11 12 16 24 16 34c0 17 -17 29 -48 29v49h237v-49c-41 -4 -64 -22 -100 -60zM416 118v462c0 54 -22 92 -85 92c-47 0 -83 -23 -83 -115v-44h115l-17 -81h-97v-314c0 -57 10 -70 58 -70v-48
h-279v48c48 0 59 13 59 70v314h-61v56l61 25v31c0 145 102 200 232 200c65 0 109 -12 151 -38l27 29h81v-617c0 -57 10 -70 59 -70v-48h-281v48c49 0 60 13 60 70z" />
    <glyph glyph-name="f_l" unicode="fl" horiz-adv-x="653" 
d="M318 743c65 0 110 -11 151 -38l28 30h80v-617c0 -57 10 -70 60 -71v-47h-281v47c49 1 59 13 59 70v463c0 53 -21 92 -84 92c-48 0 -83 -24 -83 -116v-44h114l-16 -80h-97v-315c0 -56 10 -69 57 -70v-47h-278v47c48 1 58 13 58 70v315h-60v55l60 25v32
c0 144 102 199 232 199z" />
    <glyph glyph-name="f_t" unicode="ft" horiz-adv-x="721" 
d="M248 513h184c6 45 22 95 48 133l117 13c-5 -36 -9 -95 -9 -146h121l-17 -81h-103v-261c0 -73 5 -103 55 -103c19 0 34 4 57 13l18 -56c-40 -25 -86 -38 -145 -38c-95 0 -147 34 -147 146v299h-178v-314c0 -57 12 -70 78 -70v-48h-299v48c48 0 59 13 59 70v314h-61v56
l61 25v68c0 110 69 163 188 163c42 0 109 -8 142 -23v-111h-93c0 48 -12 62 -37 62c-28 0 -39 -21 -39 -63v-96z" />
    <glyph glyph-name=".notdef" horiz-adv-x="553" 
d="M71 0v689h411v-689h-411zM121 50h311v589h-311v-589z" />
    <glyph glyph-name=".null" horiz-adv-x="0" 
 />
    <glyph glyph-name=".null" horiz-adv-x="0" 
 />
    <glyph glyph-name="CR" unicode="&#xd;" horiz-adv-x="225" 
 />
    <glyph glyph-name="space" unicode=" " horiz-adv-x="225" 
 />
    <glyph glyph-name="exclam" unicode="!" horiz-adv-x="320" 
d="M109 226l-50 461l202 17l-49 -478h-103zM160 -13c-54 0 -97 45 -97 99c0 52 43 96 97 96c53 0 98 -44 98 -96c0 -54 -45 -99 -98 -99z" />
    <glyph glyph-name="quotedbl" unicode="&#x22;" horiz-adv-x="451" 
d="M366 453h-102v256h102v-256zM187 453h-102v256h102v-256z" />
    <glyph glyph-name="numbersign" unicode="#" horiz-adv-x="578" 
d="M60 420v88h106l28 201h79l-28 -201h124l28 201h79l-28 -201h99v-88h-111l-17 -122h98v-87h-110l-29 -211h-79l29 211h-124l-29 -211h-79l29 211h-95v87h107l17 122h-94zM234 420l-18 -122h124l17 122h-123z" />
    <glyph glyph-name="dollar" unicode="$" horiz-adv-x="586" 
d="M312 -101h-57v88c-128 3 -191 37 -228 57v135h120c9 -85 45 -123 108 -129v226l-45 11c-113 27 -180 77 -180 201c0 136 88 209 225 219v87h57v-87c105 -3 171 -31 203 -47v-145h-116c-7 65 -26 111 -87 122v-201l42 -10c123 -30 201 -86 201 -212
c0 -135 -87 -213 -243 -225v-90zM399 156c0 51 -22 85 -87 106v-210c53 9 87 41 87 104zM173 549c0 -46 20 -80 82 -98v188c-52 -7 -82 -40 -82 -90z" />
    <glyph glyph-name="percent" unicode="%" horiz-adv-x="1027" 
d="M409 456c0 -152 -90 -215 -193 -215c-115 0 -186 65 -186 209c0 149 79 213 194 213c99 0 185 -65 185 -207zM274 457c0 119 -22 157 -59 157c-34 0 -57 -37 -57 -158c0 -119 14 -170 59 -170c37 0 57 42 57 171zM781 730l-487 -853h-73l487 853h73zM997 206
c0 -152 -90 -215 -192 -215c-116 0 -187 65 -187 209c0 149 79 213 194 213c99 0 185 -65 185 -207zM862 207c0 119 -22 157 -58 157c-34 0 -58 -37 -58 -158c0 -119 15 -170 60 -170c36 0 56 42 56 171z" />
    <glyph glyph-name="ampersand" unicode="&#x26;" horiz-adv-x="721" 
d="M512 548c0 -82 -69 -133 -152 -170l168 -178c7 23 18 43 18 86c0 38 -16 48 -71 52v45h222v-45c-49 -2 -64 -11 -72 -54c-11 -61 -28 -98 -51 -135l59 -62c30 -32 48 -40 88 -40v-47h-220l-42 43c-52 -34 -103 -56 -204 -56c-133 0 -237 53 -237 172c0 95 63 149 162 180
l-35 35c-44 44 -75 91 -75 154c0 96 83 173 228 173c130 0 214 -50 214 -153zM321 56c38 0 73 10 100 29l-199 209c-27 -29 -41 -62 -41 -112c0 -78 58 -126 140 -126zM226 562c0 -41 28 -74 83 -129l15 -15c42 40 57 75 57 136c0 51 -29 83 -81 83c-44 0 -74 -24 -74 -75z
" />
    <glyph glyph-name="quotesingle" unicode="'" horiz-adv-x="272" 
d="M187 453h-102v256h102v-256z" />
    <glyph glyph-name="parenleft" unicode="(" horiz-adv-x="343" 
d="M189 315c0 -179 17 -342 134 -416l-25 -48c-204 69 -264 210 -264 464s61 388 264 460l25 -48c-117 -75 -134 -232 -134 -412z" />
    <glyph glyph-name="parenright" unicode=")" horiz-adv-x="343" 
d="M154 315c0 179 -17 337 -134 412l26 48c202 -72 264 -206 264 -460s-61 -395 -264 -464l-26 48c117 74 134 235 134 416z" />
    <glyph glyph-name="asterisk" unicode="*" horiz-adv-x="461" 
d="M421 563l-112 -66l55 -123l-37 -29l-98 95l-95 -92l-36 27l53 122l-111 68l13 41l130 -16l27 128h42l27 -128l128 15z" />
    <glyph glyph-name="plus" unicode="+" horiz-adv-x="577" 
d="M247 507h81v-199h194v-74h-194v-202h-81v202h-192v74h192v199z" />
    <glyph glyph-name="comma" unicode="," horiz-adv-x="289" 
d="M240 48c0 -105 -63 -174 -187 -198l-33 43c72 20 108 43 108 77c0 24 -10 32 -37 43c-24 10 -50 29 -50 71c0 47 38 86 92 86c62 0 107 -52 107 -122z" />
    <glyph glyph-name="hyphen" unicode="-" horiz-adv-x="356" 
d="M310 219h-264v125h264v-125z" />
    <glyph glyph-name="period" unicode="." horiz-adv-x="292" 
d="M244 86c0 -55 -45 -99 -98 -99c-55 0 -98 44 -98 99c0 53 43 97 98 97c53 0 98 -44 98 -97z" />
    <glyph glyph-name="slash" unicode="/" horiz-adv-x="428" 
d="M21 -149l260 919h103l-260 -919h-103z" />
    <glyph glyph-name="zero" unicode="0" horiz-adv-x="592" 
d="M552 268c0 -198 -112 -281 -261 -281c-151 0 -251 98 -251 269c0 161 107 271 259 271c133 0 253 -79 253 -259zM372 272c0 144 -27 188 -77 188s-77 -44 -77 -210c0 -139 16 -200 79 -200c50 0 75 49 75 222z" />
    <glyph glyph-name="one" unicode="1" horiz-adv-x="423" 
d="M316 516v-388c0 -60 8 -77 88 -80v-48h-348v48c85 4 98 19 98 81v270c-41 -22 -66 -32 -109 -42l-21 52l188 107h104z" />
    <glyph glyph-name="two" unicode="2" horiz-adv-x="486" 
d="M242 527c130 0 205 -55 205 -165c0 -112 -93 -173 -256 -238l-35 -14h309l-17 -110h-432v84l107 78c82 60 137 99 137 180c0 51 -39 83 -92 83c-47 0 -77 -11 -109 -31l-28 60c51 45 116 73 211 73z" />
    <glyph glyph-name="three" unicode="3" horiz-adv-x="482" 
d="M173 433c-54 0 -95 -19 -127 -38l-31 59c58 43 124 73 220 73c119 0 197 -56 197 -162c0 -83 -46 -133 -133 -157c95 -15 151 -85 151 -163c0 -160 -173 -210 -320 -210c-49 0 -89 4 -126 13l-11 62c36 -5 72 -8 105 -8c135 0 178 56 178 139c0 80 -51 123 -125 123
c-16 0 -31 0 -47 -2v76c19 -1 34 -2 57 -2c65 0 103 26 103 106c0 59 -29 91 -91 91z" />
    <glyph glyph-name="four" unicode="4" horiz-adv-x="572" 
d="M320 -179v185h-304v72l227 438h161l-264 -440h180c0 117 11 179 53 256l110 18v-274h84v-70h-84v-166z" />
    <glyph glyph-name="five" unicode="5" horiz-adv-x="488" 
d="M452 69c0 -166 -159 -233 -319 -233c-61 0 -90 6 -126 18l-13 60c40 -10 61 -13 110 -13c75 0 175 30 175 143c0 88 -50 132 -123 132c-38 0 -76 -8 -102 -20l35 358h356l-15 -132h-275l-15 -136c29 9 58 13 91 13c130 0 221 -69 221 -190z" />
    <glyph glyph-name="six" unicode="6" horiz-adv-x="570" 
d="M481 637c-143 -54 -227 -122 -257 -245c29 18 69 30 113 30c115 0 202 -65 202 -207c0 -146 -92 -228 -251 -228c-162 0 -248 99 -248 272c0 258 217 386 422 434zM292 348c-27 0 -55 -6 -79 -17c-4 -30 -5 -51 -5 -79c0 -136 35 -206 94 -206c57 0 78 51 78 151
c0 102 -22 151 -88 151z" />
    <glyph glyph-name="seven" unicode="7" horiz-adv-x="456" 
d="M449 514l-18 -124c-112 -150 -178 -318 -211 -531l-171 -27c48 205 176 399 290 547h-331l17 135h424z" />
    <glyph glyph-name="eight" unicode="8" horiz-adv-x="580" 
d="M35 159c0 80 68 125 141 148c-71 41 -117 87 -117 184c0 138 114 190 230 190c138 0 224 -61 224 -158c0 -77 -50 -112 -125 -139c97 -45 156 -82 156 -196c0 -125 -94 -201 -256 -201c-180 0 -253 64 -253 172zM395 146c0 80 -55 90 -172 139c-31 -37 -46 -71 -46 -124
c0 -78 41 -113 110 -113c68 0 108 35 108 98zM204 527c0 -47 21 -79 123 -119c30 27 47 56 47 114c0 61 -27 98 -84 98c-53 0 -86 -36 -86 -93z" />
    <glyph glyph-name="nine" unicode="9" horiz-adv-x="575" 
d="M46 -140c158 57 262 133 301 260c-28 -16 -68 -28 -110 -28c-115 0 -202 65 -202 208c0 146 93 228 248 228c150 0 252 -93 252 -272c0 -258 -235 -397 -444 -443zM282 167c27 0 56 4 79 15c4 26 7 52 7 82c0 135 -37 204 -96 204c-56 0 -76 -51 -76 -151
c0 -94 20 -150 86 -150z" />
    <glyph glyph-name="colon" unicode=":" horiz-adv-x="315" 
d="M255 373c0 -55 -44 -99 -98 -99s-98 44 -98 99c0 53 44 97 98 97s98 -44 98 -97zM255 86c0 -55 -44 -99 -98 -99s-98 44 -98 99c0 53 44 97 98 97s98 -44 98 -97z" />
    <glyph glyph-name="semicolon" unicode=";" horiz-adv-x="311" 
d="M255 48c0 -105 -63 -174 -187 -198l-32 43c72 20 108 43 108 77c0 25 -11 32 -37 43c-24 10 -51 29 -51 71c0 47 38 86 93 86c62 0 106 -52 106 -122zM247 372c0 -55 -44 -99 -98 -99s-98 44 -98 99c0 53 44 97 98 97s98 -44 98 -97z" />
    <glyph glyph-name="less" unicode="&#x3c;" horiz-adv-x="485" 
d="M430 45l-375 202v84l375 236v-95l-289 -179l289 -158v-90z" />
    <glyph glyph-name="equal" unicode="=" horiz-adv-x="577" 
d="M55 156v75h467v-75h-467zM55 314v76h467v-76h-467z" />
    <glyph glyph-name="greater" unicode="&#x3e;" horiz-adv-x="485" 
d="M430 247l-375 -202v90l289 158l-289 179v95l375 -236v-84z" />
    <glyph glyph-name="question" unicode="?" horiz-adv-x="475" 
d="M316 86c0 -55 -45 -99 -99 -99s-97 44 -97 99c0 53 43 96 97 96s99 -43 99 -96zM219 632c-46 0 -75 -32 -78 -96h-107v122c49 30 129 50 197 50c121 0 215 -49 215 -161c0 -91 -66 -136 -111 -166c-62 -42 -87 -60 -87 -112c0 -9 1 -31 4 -45h-71c-14 15 -34 49 -34 93
c0 43 25 82 71 124c36 33 66 63 66 122c0 40 -25 69 -65 69z" />
    <glyph glyph-name="at" unicode="@" horiz-adv-x="908" 
d="M598 9c-98 0 -134 29 -134 86c-33 -55 -71 -89 -142 -89c-66 0 -106 43 -106 123c0 164 121 321 294 321c58 0 124 -8 160 -28c-9 -27 -21 -61 -27 -91l-42 -199c-4 -17 -6 -28 -6 -36c0 -25 14 -35 47 -35c71 0 131 71 131 226c0 202 -119 290 -295 290
c-203 0 -346 -144 -346 -384c0 -190 114 -321 304 -321c71 0 119 10 161 24l15 -37c-53 -21 -109 -35 -188 -35c-219 0 -384 128 -384 370c0 254 190 431 440 431c234 0 387 -137 387 -341c0 -196 -129 -275 -269 -275zM478 179l48 202c-11 9 -21 12 -35 12
c-81 0 -140 -145 -140 -254c0 -40 11 -50 31 -50c30 0 63 40 96 90z" />
    <glyph glyph-name="A" unicode="A" horiz-adv-x="674" 
d="M429 99l-25 81h-211l-22 -81c-3 -10 -4 -17 -4 -22c0 -24 19 -26 62 -28v-49h-223v49c42 5 56 13 72 62l189 585h135l203 -585c15 -44 25 -57 63 -62v-49h-293v49c45 2 59 9 59 27c0 6 -2 14 -5 23zM266 432l-50 -172h161l-56 174c-16 49 -21 77 -24 95h-6
c-3 -15 -9 -43 -25 -97z" />
    <glyph glyph-name="B" unicode="B" horiz-adv-x="641" 
d="M27 0v48c49 0 66 14 66 71v455c0 57 -17 71 -66 71v51h337c134 0 234 -58 234 -187c0 -99 -63 -141 -153 -155v-4c123 -12 178 -73 178 -171c0 -114 -68 -179 -236 -179h-360zM264 71h68c77 0 111 25 111 121c0 88 -32 122 -107 122h-72v-243zM264 388h52
c74 0 100 21 100 115c0 87 -30 117 -104 117h-48v-232z" />
    <glyph glyph-name="C" unicode="C" horiz-adv-x="630" 
d="M358 -13c-203 0 -318 124 -318 350c0 260 134 371 329 371c96 0 168 -18 218 -50v-142h-116c-16 76 -37 116 -104 116c-89 0 -136 -61 -136 -287c0 -242 57 -284 134 -284c79 0 103 39 116 121h111v-138c-42 -32 -134 -57 -234 -57z" />
    <glyph glyph-name="D" unicode="D" horiz-adv-x="696" 
d="M27 0v48c49 0 66 14 66 71v455c0 57 -17 71 -66 71v51h299c204 0 329 -97 329 -352c0 -229 -114 -344 -334 -344h-294zM264 71h41c119 0 167 43 167 267c0 230 -48 282 -164 282h-44v-549z" />
    <glyph glyph-name="E" unicode="E" horiz-adv-x="600" 
d="M27 0v48c49 0 66 14 66 71v455c0 57 -17 71 -66 71v51h508l11 -173h-81c-22 76 -33 97 -106 97h-95v-233h54c62 0 78 14 82 71h72v-215h-72c-4 54 -19 71 -81 71h-55v-243h113c64 0 90 23 98 116h83v-187h-531z" />
    <glyph glyph-name="F" unicode="F" horiz-adv-x="583" 
d="M27 0v48c49 0 66 14 66 71v455c0 57 -17 71 -66 71v51h508l12 -174h-82c-23 78 -33 98 -107 98h-94v-236h54c62 0 78 14 82 71h72v-214h-72c-4 54 -19 71 -81 71h-55v-193c0 -57 17 -71 84 -71v-48h-321z" />
    <glyph glyph-name="G" unicode="G" horiz-adv-x="707" 
d="M451 80v151c0 57 -15 70 -78 70v51h314v-51c-49 0 -66 -13 -66 -70v-175c-60 -48 -166 -69 -257 -69c-203 0 -324 123 -324 350c0 259 137 371 337 371c97 0 172 -19 223 -51v-141h-119c-15 76 -37 116 -107 116c-94 0 -142 -68 -142 -288c0 -234 54 -284 137 -284
c41 0 64 7 82 20z" />
    <glyph glyph-name="H" unicode="H" horiz-adv-x="755" 
d="M491 119v195h-227v-195c0 -57 16 -71 66 -71v-48h-303v48c49 0 66 14 66 71v455c0 57 -17 71 -66 71v51h303v-51c-50 0 -66 -14 -66 -71v-179h227v179c0 57 -17 71 -66 71v51h303v-51c-49 0 -66 -14 -66 -71v-455c0 -57 17 -71 66 -71v-48h-303v48c49 0 66 14 66 71z" />
    <glyph glyph-name="I" unicode="I" horiz-adv-x="357" 
d="M93 119v455c0 57 -17 71 -66 71v51h303v-51c-50 0 -66 -14 -66 -71v-455c0 -57 16 -71 66 -71v-48h-303v48c49 0 66 14 66 71z" />
    <glyph glyph-name="J" unicode="J" horiz-adv-x="358" 
d="M93 100v474c0 57 -17 71 -66 71v51h304v-51c-50 0 -66 -14 -66 -71v-467c0 -163 -98 -226 -266 -254l-26 47c106 50 120 89 120 200z" />
    <glyph glyph-name="K" unicode="K" horiz-adv-x="699" 
d="M93 119v455c0 57 -17 71 -66 71v51h303v-51c-50 0 -66 -14 -66 -71v-455c0 -57 16 -71 66 -71v-48h-303v48c49 0 66 14 66 71zM566 583l-138 -173l175 -313c22 -39 41 -46 82 -49v-48h-219l-186 343l191 253c7 9 10 18 10 24c0 15 -13 27 -40 27v49h227v-49
c-42 -5 -68 -21 -102 -64z" />
    <glyph glyph-name="L" unicode="L" horiz-adv-x="566" 
d="M264 574v-503h82c63 0 99 29 117 126h85l-14 -197h-507v48c49 0 66 14 66 71v455c0 57 -17 71 -66 71v51h304v-51c-51 0 -67 -14 -67 -71z" />
    <glyph glyph-name="M" unicode="M" horiz-adv-x="897" 
d="M839 696v-50c-58 -3 -71 -17 -71 -53c0 -7 0 -14 1 -23l40 -446c5 -56 13 -75 69 -77v-47h-304v47c53 2 66 12 66 47c0 7 0 16 -1 25l-26 313c-2 27 -3 77 -3 103v22h-5c-3 -18 -14 -77 -24 -116l-118 -441h-101l-127 414c-16 50 -28 119 -32 144h-4
c-1 -28 -3 -95 -6 -139l-18 -299c0 -7 -1 -12 -1 -18c0 -42 12 -55 63 -55v-47h-218v47c56 2 66 19 70 79l31 444c1 8 1 15 1 21c0 35 -11 52 -72 55v50h274l99 -324c14 -47 24 -116 27 -140h4c4 23 14 87 28 140l86 324h272z" />
    <glyph glyph-name="N" unicode="N" horiz-adv-x="708" 
d="M538 392v182c0 57 -17 71 -66 71v51h220v-51c-50 0 -66 -14 -66 -71v-574h-122l-243 373c-46 70 -72 124 -83 144h-4c2 -22 9 -89 9 -145v-253c0 -57 17 -71 66 -71v-48h-222v48c49 0 66 14 66 71v455c0 57 -17 71 -66 71v51h247l202 -313c31 -49 54 -98 66 -127h5
c-3 22 -9 86 -9 136z" />
    <glyph glyph-name="O" unicode="O" horiz-adv-x="714" 
d="M357 -12c-201 0 -317 125 -317 350c0 259 134 370 317 370c187 0 316 -116 316 -371c0 -225 -116 -349 -316 -349zM357 632c-85 0 -126 -63 -126 -285c0 -236 45 -290 126 -290c77 0 126 48 126 289c0 220 -40 286 -126 286z" />
    <glyph glyph-name="P" unicode="P" horiz-adv-x="612" 
d="M264 262v-143c0 -57 17 -71 84 -71v-48h-321v48c49 0 66 14 66 71v455c0 57 -17 71 -66 71v51h334c148 0 247 -62 247 -215c0 -106 -50 -219 -251 -219h-93zM425 481c0 103 -29 139 -107 139h-54v-278h60c74 0 101 30 101 139z" />
    <glyph glyph-name="Q" unicode="Q" horiz-adv-x="714" 
d="M611 -145c-133 0 -191 123 -303 137c-166 21 -268 129 -268 346c0 259 134 370 317 370c187 0 316 -116 316 -371c0 -169 -77 -296 -193 -319c47 -10 118 -34 162 -34c26 0 45 3 64 7l-27 -120c-16 -11 -33 -16 -68 -16zM357 632c-85 0 -126 -63 -126 -285
c0 -236 45 -290 126 -290c77 0 126 48 126 289c0 220 -40 286 -126 286z" />
    <glyph glyph-name="R" unicode="R" horiz-adv-x="674" 
d="M416 309v-4c49 -13 90 -41 111 -72c26 -38 40 -64 70 -127c18 -38 27 -56 73 -58v-48h-214c-44 107 -51 127 -90 199c-35 64 -53 79 -102 85v-165c0 -57 17 -71 66 -71v-48h-303v48c49 0 66 14 66 71v455c0 57 -17 71 -66 71v51h333c143 0 246 -57 246 -203
c0 -125 -85 -176 -190 -184zM423 492c0 94 -30 128 -102 128h-57v-258h57c72 0 102 25 102 130z" />
    <glyph glyph-name="S" unicode="S" horiz-adv-x="554" 
d="M253 -14c-118 0 -180 30 -226 57v135h112c10 -93 51 -130 121 -130c68 0 111 31 111 107c0 57 -24 89 -101 109l-72 19c-106 28 -168 81 -168 205c0 148 97 220 245 220c110 0 177 -31 210 -48v-145h-111c-8 76 -33 126 -111 126c-63 0 -91 -36 -91 -92
c0 -49 21 -83 90 -99l68 -16c115 -27 191 -94 191 -221c0 -147 -96 -227 -268 -227z" />
    <glyph glyph-name="T" unicode="T" horiz-adv-x="622" 
d="M27 696h568l11 -192h-81c-21 86 -28 116 -93 116h-35v-501c0 -58 18 -71 76 -71v-48h-324v48c59 0 76 13 76 71v501h-35c-65 0 -71 -30 -93 -116h-82z" />
    <glyph glyph-name="U" unicode="U" horiz-adv-x="692" 
d="M519 228v346c0 57 -17 71 -67 71v51h218v-51c-49 0 -65 -14 -65 -71v-348c0 -148 -73 -239 -258 -239c-180 0 -260 68 -260 235v352c0 57 -16 71 -65 71v51h303v-51c-50 0 -66 -14 -66 -71v-354c0 -110 41 -146 125 -146c82 0 135 37 135 154z" />
    <glyph glyph-name="V" unicode="V" horiz-adv-x="708" 
d="M423 0h-137l-204 588c-17 48 -28 54 -62 59v49h298v-49c-40 0 -56 -15 -56 -37c0 -5 2 -13 5 -21l100 -327c12 -38 22 -94 24 -113h6c2 20 11 70 25 115l98 325c2 7 3 13 3 20c0 24 -17 38 -58 38v49h224v-49c-41 -5 -55 -13 -71 -62z" />
    <glyph glyph-name="W" unicode="W" horiz-adv-x="968" 
d="M586 0l-78 302c-15 58 -24 134 -26 155h-5c-3 -20 -10 -85 -28 -156l-75 -301h-160l-134 582c-12 50 -27 60 -63 65v49h292v-49c-38 -1 -55 -14 -55 -40c0 -4 0 -9 1 -15l58 -288c13 -65 17 -140 18 -159h5c2 16 8 78 28 159l94 392h112l100 -390c20 -80 30 -137 33 -160
h6c1 19 5 80 21 159l57 283c2 8 3 14 3 20c0 30 -23 38 -59 39v49h220v-49c-39 -5 -58 -14 -69 -63l-136 -584h-160z" />
    <glyph glyph-name="X" unicode="X" horiz-adv-x="702" 
d="M577 586l-143 -207l171 -269c27 -43 40 -56 77 -61v-49h-318v49c34 0 52 14 52 33c0 7 -2 15 -8 24l-101 168h-6l-101 -170c-4 -7 -8 -16 -8 -22c0 -19 19 -32 52 -33v-49h-224v49c40 4 58 17 87 63l148 234l-152 241c-27 43 -36 55 -69 60v49h306v-49
c-35 0 -52 -14 -52 -33c0 -7 2 -16 7 -24l87 -146h6l90 144c7 10 9 19 9 27c0 19 -19 32 -50 32v49h219v-49c-38 -5 -51 -20 -79 -61z" />
    <glyph glyph-name="Y" unicode="Y" horiz-adv-x="669" 
d="M375 363h6l95 222c3 7 9 23 9 32c0 20 -15 30 -49 30v49h216v-49c-40 -5 -54 -15 -77 -63l-154 -320v-145c0 -57 17 -71 76 -71v-48h-323v48c59 0 75 14 75 71v143l-161 324c-23 46 -38 56 -72 61v49h296v-49c-32 0 -47 -13 -47 -33c0 -8 3 -18 8 -29z" />
    <glyph glyph-name="Z" unicode="Z" horiz-adv-x="578" 
d="M543 640l-325 -569h122c77 0 102 33 122 123h82l-11 -194h-506v56l328 571h-111c-67 0 -87 -35 -107 -113h-85l8 182h483v-56z" />
    <glyph glyph-name="bracketleft" unicode="[" horiz-adv-x="374" 
d="M344 -155h-254v928h254v-59h-106v-810h106v-59z" />
    <glyph glyph-name="backslash" unicode="\" horiz-adv-x="428" 
d="M148 770l260 -919h-103l-260 919h103z" />
    <glyph glyph-name="bracketright" unicode="]" horiz-adv-x="374" 
d="M284 -155h-254v59h106v810h-106v59h254v-928z" />
    <glyph glyph-name="asciicircum" unicode="^" horiz-adv-x="604" 
d="M539 310h-110l-129 283l-126 -283h-109l186 398h102z" />
    <glyph glyph-name="underscore" unicode="_" horiz-adv-x="496" 
d="M498 -125h-500v78h500v-78z" />
    <glyph glyph-name="grave" unicode="`" horiz-adv-x="434" 
d="M354 591l-27 -35l-247 96l83 133z" />
    <glyph glyph-name="a" unicode="a" horiz-adv-x="547" 
d="M474 154c0 -75 12 -87 62 -88v-45c-22 -14 -62 -27 -110 -27c-60 0 -97 27 -106 69c-16 -37 -59 -76 -139 -76c-88 0 -159 43 -159 148c0 118 85 169 242 169c12 0 39 -1 52 -2v46c0 75 -19 107 -68 107c-51 0 -65 -37 -72 -92h-120v106c55 32 138 57 222 57
c116 0 200 -51 200 -168c0 -30 -4 -113 -4 -204zM314 244h-35c-58 0 -91 -29 -91 -87c0 -53 21 -70 54 -70c21 0 52 10 69 30z" />
    <glyph glyph-name="b" unicode="b" horiz-adv-x="609" 
d="M402 245c0 136 -34 173 -89 173c-32 0 -61 -11 -84 -34v-272c21 -24 46 -33 79 -33c56 0 94 29 94 166zM192 58c-5 -19 -17 -47 -31 -58h-107c9 24 13 52 13 117v460c0 73 -13 83 -61 85v47l188 26h15c10 -14 20 -44 20 -99v-190c22 46 70 79 145 79
c121 0 199 -84 199 -265c0 -196 -101 -273 -236 -273c-77 0 -124 31 -145 71z" />
    <glyph glyph-name="c" unicode="c" horiz-adv-x="498" 
d="M465 485v-114h-121c-2 63 -8 89 -45 89c-40 0 -97 -35 -97 -189c0 -147 63 -193 134 -193c43 0 73 8 114 31l27 -41c-46 -55 -117 -81 -194 -81c-136 0 -248 85 -248 261c0 181 122 277 263 277c80 0 130 -16 167 -40z" />
    <glyph glyph-name="d" unicode="d" horiz-adv-x="621" 
d="M393 66c-26 -46 -85 -79 -156 -79c-121 0 -202 83 -202 266c0 195 102 272 234 272c50 0 93 -17 115 -46v98c0 73 -14 83 -61 85v47l196 26h27v-583c0 -73 10 -81 60 -85v-44l-170 -36h-15c-9 10 -25 39 -28 79zM211 264c0 -138 34 -176 89 -176c31 0 59 10 84 35v280
c-21 24 -48 32 -78 32c-56 0 -95 -35 -95 -171z" />
    <glyph glyph-name="e" unicode="e" horiz-adv-x="540" 
d="M343 80c42 0 88 10 133 33l25 -43c-56 -56 -123 -83 -216 -83c-158 0 -250 99 -250 271c0 170 99 268 249 268c164 0 226 -95 226 -248v-47h-300c4 -106 39 -151 133 -151zM286 460c-47 0 -68 -36 -75 -156h139c0 120 -17 156 -64 156z" />
    <glyph glyph-name="f" unicode="f" horiz-adv-x="358" 
d="M249 432v-314c0 -57 12 -70 78 -70v-48h-299v48c48 0 59 13 59 70v314h-61v56l61 25v68c0 110 76 163 195 163c42 0 110 -8 143 -23l-1 -111h-92c-1 48 -15 62 -40 62c-31 0 -44 -22 -44 -64v-95h121l-17 -81h-103z" />
    <glyph glyph-name="g" unicode="g" horiz-adv-x="554" 
d="M258 -200c-143 0 -244 32 -244 104c0 33 24 59 52 70l113 1c-9 -17 -12 -29 -12 -47c0 -47 28 -64 97 -64c82 0 112 25 112 73c0 47 -28 58 -127 64l-112 7c-64 4 -86 45 -86 90c0 52 44 93 115 111c-84 17 -133 69 -133 148c0 109 87 169 221 169c46 0 80 -11 110 -18
c21 -5 25 -8 53 -8c36 0 78 27 106 52l56 -102c-27 -20 -55 -31 -85 -31c-24 0 -43 3 -66 12c25 -16 43 -43 43 -84c0 -69 -39 -150 -231 -151h-9c-18 -10 -29 -19 -29 -34c0 -12 7 -21 25 -22l98 -5c130 -7 197 -42 197 -150c0 -134 -111 -185 -264 -185zM253 258
c42 0 62 28 62 97c0 80 -19 106 -62 106c-40 0 -60 -27 -60 -103c0 -71 21 -100 60 -100z" />
    <glyph glyph-name="h" unicode="h" horiz-adv-x="628" 
d="M239 636v-195c44 49 93 84 172 84c82 0 147 -48 147 -155v-252c0 -57 10 -70 58 -70v-48h-279v48c49 0 59 13 59 69v214c0 61 -25 81 -64 81c-42 0 -70 -16 -93 -32v-263c0 -56 10 -69 59 -69v-48h-279v48c48 0 58 13 58 70v459c0 73 -13 83 -61 85v47l189 26h15
c10 -15 19 -46 19 -99z" />
    <glyph glyph-name="i" unicode="i" horiz-adv-x="322" 
d="M305 0h-280v48c49 0 59 13 59 70v236c0 73 -9 83 -57 85v47l196 34h23v-402c0 -57 10 -70 59 -70v-48zM254 651c0 -52 -42 -93 -95 -93c-51 0 -94 41 -94 93c0 51 43 93 96 93s93 -42 93 -93z" />
    <glyph glyph-name="j" unicode="j" horiz-adv-x="314" 
d="M83 17v337c0 73 -10 83 -58 85v47l196 34h23v-503c0 -149 -119 -205 -212 -223l-29 45c61 28 80 75 80 178zM253 651c0 -52 -43 -93 -96 -93c-51 0 -94 41 -94 93c0 51 44 93 97 93c52 0 93 -42 93 -93z" />
    <glyph glyph-name="k" unicode="k" horiz-adv-x="601" 
d="M19 0v48c48 0 58 13 58 70v459c0 73 -13 83 -61 85v47l189 26h15c4 -7 19 -35 19 -99v-519c0 -56 10 -69 59 -69v-48h-279zM399 0l-152 259l127 142c11 13 17 24 17 34c0 17 -17 29 -48 29v49h237v-49c-40 -5 -65 -21 -101 -60l-88 -94l129 -209c27 -44 48 -49 81 -53
v-48h-202z" />
    <glyph glyph-name="l" unicode="l" horiz-adv-x="316" 
d="M240 636v-518c0 -57 10 -70 59 -70v-48h-280v48c49 0 59 13 59 70v459c0 73 -14 83 -62 85v47l189 26h15c5 -7 20 -35 20 -99z" />
    <glyph glyph-name="m" unicode="m" horiz-adv-x="929" 
d="M540 435c43 55 100 90 173 90c81 0 146 -48 146 -155v-253c0 -57 10 -69 58 -70v-47h-274v47c48 0 54 13 54 69v215c0 61 -23 81 -60 81c-36 0 -62 -15 -84 -30v-266c0 -56 6 -68 53 -69v-47h-269v47c49 0 54 13 54 69v215c0 61 -23 81 -59 81c-38 0 -63 -16 -86 -31
v-265c0 -56 5 -69 54 -69v-47h-275v47c49 1 59 13 59 70v237c0 73 -9 83 -57 85v47l169 40h15c6 -10 26 -46 29 -88c43 54 94 87 167 87c60 0 111 -34 133 -90z" />
    <glyph glyph-name="n" unicode="n" horiz-adv-x="635" 
d="M565 370v-252c0 -57 10 -70 58 -70v-48h-279v48c49 0 59 13 59 69v214c0 61 -24 81 -65 81s-69 -16 -92 -32v-263c0 -56 10 -69 59 -69v-48h-280v48c49 0 59 13 59 70v236c0 73 -9 83 -57 85v47l169 40h15c7 -10 28 -50 31 -91c43 50 97 90 176 90c82 0 147 -48 147 -155
z" />
    <glyph glyph-name="o" unicode="o" horiz-adv-x="589" 
d="M554 267c0 -198 -123 -280 -263 -280c-163 0 -256 98 -256 268c0 161 101 271 266 271c145 0 253 -79 253 -259zM376 273c0 142 -28 186 -82 186s-81 -43 -81 -209c0 -138 17 -198 83 -198c53 0 80 61 80 221z" />
    <glyph glyph-name="p" unicode="p" horiz-adv-x="626" 
d="M419 242c0 138 -34 176 -89 176c-30 0 -58 -9 -84 -34v-280c21 -24 48 -32 77 -32c57 0 96 34 96 170zM240 441c25 45 78 84 150 84c121 0 201 -83 201 -265c0 -195 -102 -272 -238 -272c-41 0 -81 11 -107 42v-108c0 -57 10 -70 60 -70v-48h-281v48c49 0 59 13 59 70
v432c0 73 -9 83 -57 85v47l169 40h15c5 -8 26 -44 29 -85z" />
    <glyph glyph-name="q" unicode="q" horiz-adv-x="611" 
d="M211 264c0 -138 34 -176 89 -176c31 0 59 10 84 35v280c-21 24 -48 32 -78 32c-56 0 -95 -35 -95 -171zM411 469c8 28 24 47 42 55h105c-7 -26 -12 -80 -12 -140v-462c0 -57 11 -70 59 -70v-48h-281v48c50 0 60 13 60 70v143c-25 -45 -76 -78 -147 -78
c-121 0 -202 83 -202 266c0 195 112 272 243 272c63 0 106 -21 133 -56z" />
    <glyph glyph-name="r" unicode="r" horiz-adv-x="423" 
d="M245 395c22 90 91 131 146 131c16 0 31 -4 39 -7l-30 -163c-20 6 -34 9 -60 9c-75 0 -94 -23 -94 -96v-151c0 -57 12 -70 78 -70v-48h-299v48c49 0 59 13 59 70v236c0 73 -9 83 -57 85v47l169 40h15c7 -12 31 -62 34 -131z" />
    <glyph glyph-name="s" unicode="s" horiz-adv-x="475" 
d="M222 -13c-109 0 -162 28 -191 43v111h106c8 -71 46 -89 97 -89c47 0 79 18 79 58c0 38 -22 55 -66 64l-82 17c-85 18 -133 72 -133 160c0 118 94 175 207 175c93 0 151 -24 178 -36v-110h-98c-8 58 -43 76 -93 76c-42 0 -67 -17 -67 -54c0 -31 18 -46 54 -54l76 -17
c100 -22 159 -78 159 -173c0 -110 -81 -171 -226 -171z" />
    <glyph glyph-name="t" unicode="t" horiz-adv-x="366" 
d="M354 513l-16 -81h-104v-261c0 -73 6 -103 56 -103c18 0 34 4 57 13l17 -56c-40 -25 -85 -38 -145 -38c-95 0 -147 34 -147 146v299h-60v56l67 27c6 45 21 93 46 131l117 13c-5 -36 -9 -95 -9 -146h121z" />
    <glyph glyph-name="u" unicode="u" horiz-adv-x="614" 
d="M538 520v-368c0 -73 10 -81 59 -85v-44l-169 -36h-15c-6 9 -24 35 -28 79c-38 -48 -92 -79 -169 -79c-87 0 -143 43 -143 144v223c0 73 -10 83 -57 85v47l194 34h25v-350c0 -52 16 -81 62 -81c28 0 51 9 79 31v234c0 73 -10 83 -57 85v47l194 34h25z" />
    <glyph glyph-name="v" unicode="v" horiz-adv-x="563" 
d="M346 -5h-126l-158 409c-18 47 -29 55 -62 60v49h283v-49c-41 0 -56 -13 -56 -34c0 -7 2 -15 6 -24l65 -191c12 -37 16 -61 18 -76h6c1 8 9 42 20 76l60 190c3 10 4 17 4 24c0 24 -18 35 -58 35v49h215v-49c-40 -5 -52 -13 -69 -60z" />
    <glyph glyph-name="w" unicode="w" horiz-adv-x="829" 
d="M387 229l-66 -234h-136l-121 401c-17 55 -28 63 -64 68v49h279v-49c-39 0 -55 -14 -55 -37c0 -6 1 -13 3 -21l46 -182c9 -36 14 -73 15 -82h6c0 7 4 45 13 82l73 289h119l92 -290c10 -33 16 -70 17 -81h6c1 7 6 51 12 76l43 189c1 6 2 13 2 22c0 26 -17 35 -56 35v49h214
v-49c-42 -5 -57 -15 -70 -63l-112 -406h-135l-80 233c-13 38 -19 94 -19 102h-6c-1 -14 -9 -62 -20 -101z" />
    <glyph glyph-name="x" unicode="x" horiz-adv-x="569" 
d="M248 196l-65 -94c-7 -10 -10 -19 -10 -27c0 -17 12 -27 41 -27v-48h-199v48c39 4 49 16 81 60l110 149l-106 148c-34 47 -40 54 -75 59v49h273v-49c-22 0 -32 -8 -32 -21c0 -8 4 -18 11 -29l50 -75h4l51 75c6 8 9 16 9 26c0 14 -11 24 -36 24v49h198v-49
c-42 -5 -54 -20 -84 -61l-96 -130l110 -158c35 -50 44 -63 85 -67v-48h-274v48c21 0 35 9 35 24c0 8 -4 18 -10 27l-67 97h-4z" />
    <glyph glyph-name="y" unicode="y" horiz-adv-x="563" 
d="M115 -206l-56 103c90 15 167 39 203 112l-63 -5c-13 52 -25 90 -60 187l-77 211c-17 46 -26 57 -62 62v49h283v-49c-45 -2 -59 -9 -59 -26c0 -6 2 -13 5 -23l69 -215c11 -36 14 -67 16 -75h6c0 8 9 42 19 73l66 217c3 9 4 16 4 22c0 21 -16 25 -61 27v49h215v-49
c-40 -5 -52 -13 -69 -60l-147 -397c-43 -117 -108 -196 -232 -213z" />
    <glyph glyph-name="z" unicode="z" horiz-adv-x="509" 
d="M488 153l-18 -153h-428v63l253 384h-81c-68 0 -83 -16 -94 -91h-64v157h427v-59l-259 -389h73c82 0 100 4 129 88h62z" />
    <glyph glyph-name="braceleft" unicode="{" horiz-adv-x="399" 
d="M271 620v-175c0 -104 -64 -129 -94 -134v-4c30 -5 94 -30 94 -132v-177c0 -52 12 -100 78 -100h25v-53h-99c-106 0 -144 59 -144 145v201c0 67 -36 91 -106 91v53c70 0 106 24 106 91v202c0 86 40 145 144 145h99v-53h-25c-66 0 -78 -48 -78 -100z" />
    <glyph glyph-name="bar" unicode="|" horiz-adv-x="274" 
d="M184 -149h-94v919h94v-919z" />
    <glyph glyph-name="braceright" unicode="}" horiz-adv-x="399" 
d="M128 445v175c0 52 -12 100 -78 100h-25v53h98c107 0 145 -59 145 -145v-202c0 -67 36 -91 106 -91v-53c-70 0 -106 -24 -106 -91v-201c0 -86 -40 -145 -145 -145h-98v53h25c66 0 78 48 78 100v177c0 102 64 127 94 132v4c-30 5 -94 30 -94 134z" />
    <glyph glyph-name="asciitilde" unicode="~" horiz-adv-x="582" 
d="M381 348c32 0 69 10 88 49l38 -18c-19 -79 -71 -147 -130 -147c-61 0 -135 32 -180 32c-34 0 -66 -13 -85 -51l-36 16c11 80 64 153 125 153s129 -34 180 -34z" />
    <glyph glyph-name="uni00A0" unicode="&#xa0;" horiz-adv-x="225" 
 />
    <glyph glyph-name="exclamdown" unicode="&#xa1;" horiz-adv-x="320" 
d="M59 -188l50 478h102l50 -461zM63 430c0 54 44 98 98 98c53 0 97 -44 97 -98c0 -53 -44 -96 -97 -96c-54 0 -98 43 -98 96z" />
    <glyph glyph-name="cent" unicode="&#xa2;" horiz-adv-x="533" 
d="M329 -101h-57v88c-132 5 -237 89 -237 261c0 170 107 265 237 276v83h57v-82c68 -4 130 -19 162 -40v-115h-107c-2 51 -23 81 -55 91v-391c49 1 96 13 147 49l27 -37c-38 -49 -89 -83 -174 -92v-91zM194 271c0 -120 32 -172 78 -192v379c-47 -14 -78 -63 -78 -187z" />
    <glyph glyph-name="sterling" unicode="&#xa3;" horiz-adv-x="627" 
d="M284 71h91c64 0 100 29 118 126h85l-14 -197h-535v48c58 0 84 14 84 71v190h-80v63h80v91c0 158 126 219 250 219c83 0 153 -24 180 -47v-121h-121c-3 70 -19 101 -62 101c-57 0 -76 -42 -76 -118v-125h191v-63h-191v-238z" />
    <glyph glyph-name="currency" unicode="&#xa4;" horiz-adv-x="482" 
d="M241 102c-26 0 -50 3 -72 11l-52 -82l-59 39l50 77c-36 32 -58 79 -58 140c0 60 21 107 57 140l-49 75l59 39l51 -78c22 8 46 12 73 12c25 0 49 -4 70 -11l50 77l59 -39l-47 -73c37 -33 59 -81 59 -142c0 -63 -23 -110 -61 -142l49 -75l-59 -39l-52 80
c-21 -6 -44 -9 -68 -9zM240 408c-63 0 -81 -45 -81 -115c0 -86 20 -127 81 -127s82 41 82 127c0 70 -19 115 -82 115z" />
    <glyph glyph-name="yen" unicode="&#xa5;" horiz-adv-x="660" 
d="M589 191h-172v-73c0 -57 16 -70 75 -71v-47h-322v47c59 1 75 14 75 71v73h-173v59h173v12l-27 53h-146v59h117l-106 212c-23 46 -37 56 -71 61v49h296v-49c-33 0 -48 -13 -48 -33c0 -8 3 -18 8 -29l103 -222h6l95 222c5 13 7 23 8 32c0 20 -15 30 -48 30v49h216v-49
c-40 -5 -54 -15 -77 -63l-101 -210h119v-59h-148l-24 -51v-14h172v-59z" />
    <glyph glyph-name="brokenbar" unicode="&#xa6;" horiz-adv-x="277" 
d="M184 -149h-94v400h94v-400zM184 366h-94v400h94v-400z" />
    <glyph glyph-name="section" unicode="&#xa7;" horiz-adv-x="569" 
d="M531 348c0 -84 -52 -135 -132 -162c56 -31 89 -79 89 -150c0 -109 -80 -169 -224 -169c-109 0 -161 27 -190 42v111h106c7 -71 45 -89 96 -89c46 0 78 18 78 57c0 37 -23 52 -66 67l-117 40c-82 28 -134 74 -134 163c0 90 53 141 131 162c-58 27 -92 71 -92 145
c0 119 94 177 206 177c91 0 150 -24 177 -36v-110h-99c-7 57 -42 76 -91 76c-42 0 -67 -18 -67 -56c0 -31 21 -45 55 -56l113 -37c97 -32 161 -80 161 -175zM336 364l-101 31c-42 -10 -68 -42 -68 -78c0 -32 17 -53 52 -65l98 -35c46 9 79 32 79 76c0 34 -17 58 -60 71z" />
    <glyph glyph-name="dieresis" unicode="&#xa8;" horiz-adv-x="561" 
d="M254 648c0 -47 -38 -85 -87 -85c-48 0 -87 38 -87 85c0 48 40 87 88 87c49 0 86 -39 86 -87zM481 648c0 -47 -39 -85 -88 -85c-48 0 -87 38 -87 85c0 48 40 87 89 87s86 -39 86 -87z" />
    <glyph glyph-name="copyright" unicode="&#xa9;" horiz-adv-x="802" 
d="M335 357c0 -94 14 -160 78 -160c39 0 55 18 62 63h78v-81c-27 -15 -73 -32 -140 -32c-142 0 -212 68 -212 200c0 133 68 205 209 205c67 0 114 -17 140 -32v-81h-83c-5 42 -14 70 -56 70c-65 0 -76 -58 -76 -152zM401 31c168 0 301 122 301 312c0 194 -133 314 -301 314
s-301 -120 -301 -314c0 -190 133 -312 301 -312zM401 -12c-202 0 -356 140 -356 356c0 214 160 357 356 357s356 -143 356 -357c0 -216 -154 -356 -356 -356z" />
    <glyph glyph-name="ordfeminine" unicode="&#xaa;" horiz-adv-x="437" 
d="M372 464c0 -56 8 -64 44 -65v-35c-16 -10 -57 -21 -93 -21c-44 0 -70 21 -78 53c-11 -30 -42 -58 -104 -58s-121 32 -121 112c0 88 70 127 176 127c23 0 36 -2 46 -3v36c0 55 -14 79 -49 79c-37 0 -47 -26 -48 -68h-100v80c40 24 109 42 169 42c85 0 161 -38 161 -126
c0 -22 -3 -85 -3 -153zM241 530c-9 1 -18 2 -26 2c-41 0 -61 -23 -61 -63c0 -34 13 -55 38 -55c19 0 34 8 46 22z" />
    <glyph glyph-name="guillemotleft" unicode="&#xab;" horiz-adv-x="633" 
d="M204 249l113 -179l-55 -49l-220 232l220 232l55 -48zM454 249l113 -179l-56 -49l-219 232l219 232l56 -48z" />
    <glyph glyph-name="logicalnot" unicode="&#xac;" horiz-adv-x="507" 
d="M55 226v77h397v-235h-81v158h-316z" />
    <glyph glyph-name="uni00AD" unicode="&#xad;" horiz-adv-x="356" 
d="M310 219h-264v125h264v-125z" />
    <glyph glyph-name="registered" unicode="&#xae;" horiz-adv-x="802" 
d="M401 31c168 0 301 122 301 312c0 194 -133 314 -301 314s-301 -120 -301 -314c0 -190 133 -312 301 -312zM401 -12c-202 0 -356 140 -356 356c0 214 160 357 356 357s356 -143 356 -357c0 -216 -154 -356 -356 -356zM410 189v-36h-187v36c40 0 40 13 40 56v208
c0 42 0 55 -40 55v38h184c91 0 151 -24 151 -107c0 -80 -46 -99 -110 -103v-4c28 -3 51 -14 66 -42c10 -17 21 -36 35 -67c14 -29 17 -34 48 -34v-36h-136c-13 37 -30 71 -41 99c-25 60 -29 70 -51 71v-78c0 -43 1 -56 41 -56zM448 435c0 49 -14 63 -65 63h-14v-134h24
c41 0 55 17 55 71z" />
    <glyph glyph-name="macron" unicode="&#xaf;" horiz-adv-x="467" 
d="M387 603h-307v83h307v-83z" />
    <glyph glyph-name="degree" unicode="&#xb0;" horiz-adv-x="418" 
d="M373 525c0 -103 -67 -168 -164 -168c-103 0 -164 65 -164 170c0 104 65 169 162 169c105 0 166 -65 166 -171zM287 524c0 76 -26 103 -77 103c-53 0 -78 -32 -78 -94c0 -77 26 -103 79 -103c52 0 76 31 76 94z" />
    <glyph glyph-name="plusminus" unicode="&#xb1;" horiz-adv-x="507" 
d="M214 507h82v-139h156v-77h-156v-148h-82v148h-159v77h159v139zM55 24v78h397v-78h-397z" />
    <glyph glyph-name="twosuperior" unicode="&#xb2;" horiz-adv-x="396" 
d="M187 663c94 0 157 -41 157 -123c0 -92 -64 -127 -174 -182l-40 -20h236l-11 -88h-335v64l67 57c83 71 112 95 112 155c0 39 -30 57 -61 57c-35 0 -63 -10 -85 -25l-24 38c32 35 88 67 158 67z" />
    <glyph glyph-name="threesuperior" unicode="&#xb3;" horiz-adv-x="360" 
d="M126 596c-36 0 -58 -10 -81 -24l-22 40c38 31 86 51 153 51c81 0 141 -34 141 -100c0 -52 -47 -85 -109 -98c75 -4 122 -46 122 -101c0 -97 -116 -134 -223 -134c-35 0 -66 5 -88 11l-8 51c25 -5 47 -8 72 -8c66 0 102 33 102 83c0 44 -23 66 -72 66c-12 0 -17 0 -30 -1
v57c14 -1 20 -1 36 -1c43 0 66 13 66 60c0 32 -27 48 -59 48z" />
    <glyph glyph-name="acute" unicode="&#xb4;" horiz-adv-x="434" 
d="M107 556l-27 35l190 194l84 -133z" />
    <glyph glyph-name="mu" unicode="&#xb5;" horiz-adv-x="611" 
d="M48 -207l-5 33c10 53 14 116 14 187v154c0 151 -3 229 -4 338l122 20h43c0 -3 -1 -339 -1 -355c0 -75 32 -85 54 -85c27 0 61 13 88 42v378l120 20h42v-402c0 -41 14 -55 46 -55c12 0 26 1 38 4v-55c-31 -19 -67 -30 -119 -30c-68 0 -99 33 -114 73
c-22 -38 -61 -72 -115 -72c-22 0 -42 3 -55 11l-5 -3c14 -34 20 -64 20 -126v-54z" />
    <glyph glyph-name="paragraph" unicode="&#xb6;" horiz-adv-x="672" 
d="M562 572v-690h-76v750h-81v-750h-77v397h-93c-134 0 -215 57 -215 211c0 143 61 206 216 206h406v-48c-67 -2 -80 -19 -80 -76zM211 490c0 -103 15 -145 81 -145h36v287h-36c-66 0 -81 -25 -81 -142z" />
    <glyph glyph-name="periodcentered" unicode="&#xb7;" horiz-adv-x="303" 
d="M250 283c0 -56 -45 -100 -99 -100s-98 44 -98 100c0 53 44 97 98 97s99 -44 99 -97z" />
    <glyph glyph-name="cedilla" unicode="&#xb8;" horiz-adv-x="288" 
d="M261 -120c0 -61 -42 -85 -122 -85c-48 0 -83 12 -102 25l16 41c22 -14 46 -19 68 -19s34 7 34 26c0 23 -23 31 -57 32l1 21l29 97l50 -6l-15 -54c65 -4 98 -30 98 -78z" />
    <glyph glyph-name="onesuperior" unicode="&#xb9;" horiz-adv-x="358" 
d="M260 655v-291c0 -57 9 -73 78 -75v-39h-290v39c73 3 86 17 86 76v192c-22 -15 -48 -28 -83 -38l-21 41l154 95h76z" />
    <glyph glyph-name="ordmasculine" unicode="&#xba;" horiz-adv-x="451" 
d="M423 548c0 -148 -94 -210 -200 -210c-123 0 -194 73 -194 201c0 121 76 204 202 204c110 0 192 -59 192 -195zM285 552c0 107 -20 140 -58 140s-58 -33 -58 -156c0 -103 12 -148 59 -148c38 0 57 45 57 164z" />
    <glyph glyph-name="guillemotright" unicode="&#xbb;" horiz-adv-x="633" 
d="M316 70l113 179l-113 188l56 48l219 -232l-219 -232zM67 70l113 179l-113 188l55 48l219 -232l-219 -232z" />
    <glyph glyph-name="onequarter" unicode="&#xbc;" horiz-adv-x="988" 
d="M260 655v-291c0 -57 9 -73 78 -75v-39h-290v39c73 3 86 17 86 76v192c-22 -15 -48 -28 -83 -38l-21 41l154 95h76zM769 730l-487 -853h-72l487 853h72zM783 -10v99h-180v56l137 259h107l-160 -256h96c0 69 12 114 41 148l84 11v-159h52v-59h-52v-90z" />
    <glyph glyph-name="onehalf" unicode="&#xbd;" horiz-adv-x="1017" 
d="M260 655v-291c0 -57 9 -73 78 -75v-39h-290v39c73 3 86 17 86 76v192c-22 -15 -48 -28 -83 -38l-21 41l154 95h76zM769 730l-487 -853h-72l487 853h72zM810 413c93 0 157 -41 157 -123c0 -88 -51 -122 -176 -183l-39 -19h237l-12 -88h-334v64l67 57c83 71 112 95 112 155
c0 39 -30 57 -61 57c-35 0 -63 -10 -86 -25l-23 38c31 35 87 67 158 67z" />
    <glyph glyph-name="threequarters" unicode="&#xbe;" horiz-adv-x="964" 
d="M126 596c-36 0 -58 -10 -81 -24l-22 40c38 31 86 51 153 51c81 0 141 -34 141 -100c0 -52 -47 -85 -109 -98c75 -4 122 -46 122 -101c0 -97 -116 -134 -223 -134c-35 0 -66 5 -88 11l-8 51c25 -5 47 -8 72 -8c66 0 102 33 102 83c0 44 -23 66 -72 66c-12 0 -17 0 -30 -1
v57c14 -1 20 -1 36 -1c43 0 66 13 66 60c0 32 -27 48 -59 48zM745 730l-487 -853h-73l487 853h73zM758 -10v99h-179v56l137 259h106l-159 -256h95c0 69 13 114 42 148l84 11v-159h52v-59h-52v-90z" />
    <glyph glyph-name="questiondown" unicode="&#xbf;" horiz-adv-x="474" 
d="M160 429c0 55 45 99 99 99s98 -44 98 -99c0 -53 -44 -96 -98 -96s-99 43 -99 96zM258 -117c45 0 75 32 77 96h108v-121c-49 -31 -130 -51 -198 -51c-120 0 -215 49 -215 161c0 92 67 136 112 166c62 41 86 60 86 112c0 9 -1 31 -4 45h71c14 -15 34 -49 34 -93
c0 -43 -24 -82 -70 -124c-36 -33 -66 -63 -66 -121c0 -41 24 -70 65 -70z" />
    <glyph glyph-name="Agrave" unicode="&#xc0;" horiz-adv-x="674" 
d="M429 99l-25 81h-211l-22 -81c-3 -10 -4 -17 -4 -22c0 -24 19 -26 62 -28v-49h-223v49c42 5 56 13 72 62l189 585h135l203 -585c15 -44 25 -57 63 -62v-49h-293v49c45 2 59 9 59 27c0 6 -2 14 -5 23zM266 432l-50 -172h161l-56 174c-16 49 -21 77 -24 95h-6
c-3 -15 -9 -43 -25 -97zM429 766l-25 -39l-253 73l69 138z" />
    <glyph glyph-name="Aacute" unicode="&#xc1;" horiz-adv-x="674" 
d="M429 99l-25 81h-211l-22 -81c-3 -10 -4 -17 -4 -22c0 -24 19 -26 62 -28v-49h-223v49c42 5 56 13 72 62l189 585h135l203 -585c15 -44 25 -57 63 -62v-49h-293v49c45 2 59 9 59 27c0 6 -2 14 -5 23zM266 432l-50 -172h161l-56 174c-16 49 -21 77 -24 95h-6
c-3 -15 -9 -43 -25 -97zM245 727l-24 39l208 172l70 -138z" />
    <glyph glyph-name="Acircumflex" unicode="&#xc2;" horiz-adv-x="674" 
d="M429 99l-25 81h-211l-22 -81c-3 -10 -4 -17 -4 -22c0 -24 19 -26 62 -28v-49h-223v49c42 5 56 13 72 62l189 585h135l203 -585c15 -44 25 -57 63 -62v-49h-293v49c45 2 59 9 59 27c0 6 -2 14 -5 23zM266 432l-50 -172h161l-56 174c-16 49 -21 77 -24 95h-6
c-3 -15 -9 -43 -25 -97zM490 732l-155 75l-154 -75l-25 38l179 179l180 -179z" />
    <glyph glyph-name="Atilde" unicode="&#xc3;" horiz-adv-x="674" 
d="M429 99l-25 81h-211l-22 -81c-3 -10 -4 -17 -4 -22c0 -24 19 -26 62 -28v-49h-223v49c42 5 56 13 72 62l189 585h135l203 -585c15 -44 25 -57 63 -62v-49h-293v49c45 2 59 9 59 27c0 6 -2 14 -5 23zM266 432l-50 -172h161l-56 174c-16 49 -21 77 -24 95h-6
c-3 -15 -9 -43 -25 -97zM406 866c30 0 57 10 75 46l38 -16c-18 -76 -61 -137 -118 -137c-59 0 -95 34 -139 34c-32 0 -54 -13 -73 -49l-35 15c10 76 54 143 113 143s89 -36 139 -36z" />
    <glyph glyph-name="Adieresis" unicode="&#xc4;" horiz-adv-x="674" 
d="M429 99l-25 81h-211l-22 -81c-3 -10 -4 -17 -4 -22c0 -24 19 -26 62 -28v-49h-223v49c42 5 56 13 72 62l189 585h135l203 -585c15 -44 25 -57 63 -62v-49h-293v49c45 2 59 9 59 27c0 6 -2 14 -5 23zM266 432l-50 -172h161l-56 174c-16 49 -21 77 -24 95h-6
c-3 -15 -9 -43 -25 -97zM310 824c0 -47 -39 -85 -87 -85c-49 0 -87 38 -87 85c0 48 39 86 88 86s86 -38 86 -86zM536 824c0 -47 -38 -85 -87 -85c-48 0 -87 38 -87 85c0 48 40 86 88 86c49 0 86 -38 86 -86z" />
    <glyph glyph-name="Aring" unicode="&#xc5;" horiz-adv-x="674" 
d="M429 99l-25 81h-211l-22 -81c-3 -10 -4 -17 -4 -22c0 -24 19 -26 62 -28v-49h-223v49c42 5 56 13 72 62l189 585h135l203 -585c15 -44 25 -57 63 -62v-49h-293v49c45 2 59 9 59 27c0 6 -2 14 -5 23zM266 432l-50 -172h161l-56 174c-16 49 -21 77 -24 95h-6
c-3 -15 -9 -43 -25 -97zM336 732c-72 0 -121 51 -121 119s49 119 121 119s122 -51 122 -119s-50 -119 -122 -119zM336 912c-34 0 -55 -26 -55 -61c0 -32 21 -57 55 -57s55 25 55 57c0 35 -21 61 -55 61z" />
    <glyph glyph-name="AE" unicode="&#xc6;" horiz-adv-x="940" 
d="M94 109l231 466c7 14 11 26 11 36c0 24 -21 34 -56 34v51h594l12 -173h-82c-22 76 -32 97 -105 97h-95v-233h54c62 0 78 14 82 71h72v-215h-72c-4 54 -19 71 -81 71h-55v-243h113c64 0 90 23 98 116h83v-187h-525v48c50 0 67 14 67 71v102h-192l-62 -123
c-6 -10 -8 -18 -8 -24c0 -18 20 -23 60 -25v-49h-232v49c41 5 65 14 88 60zM444 620l-155 -320h151v124c0 85 6 166 10 196h-6z" />
    <glyph glyph-name="Ccedilla" unicode="&#xc7;" horiz-adv-x="630" 
d="M450 -120c0 -61 -42 -85 -122 -85c-49 0 -84 12 -103 25l17 41c22 -14 45 -19 67 -19s35 7 35 26c0 23 -23 31 -57 32l1 21l19 69c-170 20 -267 140 -267 347c0 260 134 371 329 371c96 0 168 -18 218 -50v-142h-116c-16 76 -37 116 -104 116c-89 0 -136 -61 -136 -287
c0 -242 57 -284 134 -284c79 0 103 39 116 121h111v-138c-42 -32 -133 -57 -233 -57l-8 -29c66 -4 99 -30 99 -78z" />
    <glyph glyph-name="Egrave" unicode="&#xc8;" horiz-adv-x="600" 
d="M27 0v48c49 0 66 14 66 71v455c0 57 -17 71 -66 71v51h508l11 -173h-81c-22 76 -33 97 -106 97h-95v-233h54c62 0 78 14 82 71h72v-215h-72c-4 54 -19 71 -81 71h-55v-243h113c64 0 90 23 98 116h83v-187h-531zM419 766l-25 -39l-253 73l69 138z" />
    <glyph glyph-name="Eacute" unicode="&#xc9;" horiz-adv-x="600" 
d="M27 0v48c49 0 66 14 66 71v455c0 57 -17 71 -66 71v51h508l11 -173h-81c-22 76 -33 97 -106 97h-95v-233h54c62 0 78 14 82 71h72v-215h-72c-4 54 -19 71 -81 71h-55v-243h113c64 0 90 23 98 116h83v-187h-531zM194 727l-24 39l208 172l70 -138z" />
    <glyph glyph-name="Ecircumflex" unicode="&#xca;" horiz-adv-x="600" 
d="M27 0v48c49 0 66 14 66 71v455c0 57 -17 71 -66 71v51h508l11 -173h-81c-22 76 -33 97 -106 97h-95v-233h54c62 0 78 14 82 71h72v-215h-72c-4 54 -19 71 -81 71h-55v-243h113c64 0 90 23 98 116h83v-187h-531zM458 732l-155 75l-154 -75l-25 38l179 179l180 -179z" />
    <glyph glyph-name="Edieresis" unicode="&#xcb;" horiz-adv-x="600" 
d="M27 0v48c49 0 66 14 66 71v455c0 57 -17 71 -66 71v51h508l11 -173h-81c-22 76 -33 97 -106 97h-95v-233h54c62 0 78 14 82 71h72v-215h-72c-4 54 -19 71 -81 71h-55v-243h113c64 0 90 23 98 116h83v-187h-531zM278 824c0 -47 -39 -85 -87 -85c-49 0 -87 38 -87 85
c0 48 39 86 88 86s86 -38 86 -86zM504 824c0 -47 -38 -85 -87 -85c-48 0 -87 38 -87 85c0 48 40 86 88 86c49 0 86 -38 86 -86z" />
    <glyph glyph-name="Igrave" unicode="&#xcc;" horiz-adv-x="357" 
d="M93 119v455c0 57 -17 71 -66 71v51h303v-51c-50 0 -66 -14 -66 -71v-455c0 -57 16 -71 66 -71v-48h-303v48c49 0 66 14 66 71zM294 766l-25 -39l-253 73l69 138z" />
    <glyph glyph-name="Iacute" unicode="&#xcd;" horiz-adv-x="357" 
d="M93 119v455c0 57 -17 71 -66 71v51h303v-51c-50 0 -66 -14 -66 -71v-455c0 -57 16 -71 66 -71v-48h-303v48c49 0 66 14 66 71zM68 727l-24 39l208 172l70 -138z" />
    <glyph glyph-name="Icircumflex" unicode="&#xce;" horiz-adv-x="357" 
d="M93 119v455c0 57 -17 71 -66 71v51h303v-51c-50 0 -66 -14 -66 -71v-455c0 -57 16 -71 66 -71v-48h-303v48c49 0 66 14 66 71zM333 732l-155 75l-154 -75l-25 38l179 179l180 -179z" />
    <glyph glyph-name="Idieresis" unicode="&#xcf;" horiz-adv-x="357" 
d="M93 119v455c0 57 -17 71 -66 71v51h303v-51c-50 0 -66 -14 -66 -71v-455c0 -57 16 -71 66 -71v-48h-303v48c49 0 66 14 66 71zM152 824c0 -47 -39 -85 -87 -85c-49 0 -87 38 -87 85c0 48 39 86 88 86s86 -38 86 -86zM378 824c0 -47 -38 -85 -87 -85c-48 0 -87 38 -87 85
c0 48 40 86 88 86c49 0 86 -38 86 -86z" />
    <glyph glyph-name="Eth" unicode="&#xd0;" horiz-adv-x="696" 
d="M27 316v77h66v181c0 57 -17 71 -66 71v51h299c204 0 329 -97 329 -352c0 -229 -114 -344 -334 -344h-294v48c49 0 66 14 66 71v197h-66zM472 338c0 230 -48 282 -164 282h-44v-227h114v-77h-114v-245h41c119 0 167 43 167 267z" />
    <glyph glyph-name="Ntilde" unicode="&#xd1;" horiz-adv-x="708" 
d="M538 392v182c0 57 -17 71 -66 71v51h220v-51c-50 0 -66 -14 -66 -71v-574h-122l-243 373c-46 70 -72 124 -83 144h-4c2 -22 9 -89 9 -145v-253c0 -57 17 -71 66 -71v-48h-222v48c49 0 66 14 66 71v455c0 57 -17 71 -66 71v51h247l202 -313c31 -49 54 -98 66 -127h5
c-3 22 -9 86 -9 136zM429 866c30 0 57 10 75 46l38 -16c-18 -76 -61 -137 -118 -137c-59 0 -95 34 -139 34c-32 0 -54 -13 -73 -49l-35 15c10 76 54 143 113 143s89 -36 139 -36z" />
    <glyph glyph-name="Ograve" unicode="&#xd2;" horiz-adv-x="714" 
d="M357 -12c-201 0 -317 125 -317 350c0 259 134 370 317 370c187 0 316 -116 316 -371c0 -225 -116 -349 -316 -349zM357 632c-85 0 -126 -63 -126 -285c0 -236 45 -290 126 -290c77 0 126 48 126 289c0 220 -40 286 -126 286zM471 766l-25 -39l-253 73l69 138z" />
    <glyph glyph-name="Oacute" unicode="&#xd3;" horiz-adv-x="714" 
d="M357 -12c-201 0 -317 125 -317 350c0 259 134 370 317 370c187 0 316 -116 316 -371c0 -225 -116 -349 -316 -349zM357 632c-85 0 -126 -63 -126 -285c0 -236 45 -290 126 -290c77 0 126 48 126 289c0 220 -40 286 -126 286zM246 727l-24 39l208 172l70 -138z" />
    <glyph glyph-name="Ocircumflex" unicode="&#xd4;" horiz-adv-x="714" 
d="M357 -12c-201 0 -317 125 -317 350c0 259 134 370 317 370c187 0 316 -116 316 -371c0 -225 -116 -349 -316 -349zM357 632c-85 0 -126 -63 -126 -285c0 -236 45 -290 126 -290c77 0 126 48 126 289c0 220 -40 286 -126 286zM511 732l-155 75l-154 -75l-25 38l179 179
l180 -179z" />
    <glyph glyph-name="Otilde" unicode="&#xd5;" horiz-adv-x="714" 
d="M357 -12c-201 0 -317 125 -317 350c0 259 134 370 317 370c187 0 316 -116 316 -371c0 -225 -116 -349 -316 -349zM357 632c-85 0 -126 -63 -126 -285c0 -236 45 -290 126 -290c77 0 126 48 126 289c0 220 -40 286 -126 286zM426 866c30 0 57 10 75 46l38 -16
c-18 -76 -61 -137 -118 -137c-59 0 -95 34 -139 34c-32 0 -54 -13 -73 -49l-35 15c10 76 54 143 113 143s89 -36 139 -36z" />
    <glyph glyph-name="Odieresis" unicode="&#xd6;" horiz-adv-x="714" 
d="M357 -12c-201 0 -317 125 -317 350c0 259 134 370 317 370c187 0 316 -116 316 -371c0 -225 -116 -349 -316 -349zM357 632c-85 0 -126 -63 -126 -285c0 -236 45 -290 126 -290c77 0 126 48 126 289c0 220 -40 286 -126 286zM330 824c0 -47 -39 -85 -87 -85
c-49 0 -87 38 -87 85c0 48 39 86 88 86s86 -38 86 -86zM556 824c0 -47 -38 -85 -87 -85c-48 0 -87 38 -87 85c0 48 40 86 88 86c49 0 86 -38 86 -86z" />
    <glyph glyph-name="multiply" unicode="&#xd7;" horiz-adv-x="522" 
d="M56 422l52 55l153 -152l152 152l54 -55l-152 -152l152 -151l-54 -55l-152 154l-153 -154l-53 55l151 151z" />
    <glyph glyph-name="Oslash" unicode="&#xd8;" horiz-adv-x="714" 
d="M620 724l-54 -87c68 -60 107 -159 107 -300c0 -225 -116 -349 -316 -349c-66 0 -122 13 -168 39l-52 -84l-49 28l55 88c-67 59 -103 154 -103 279c0 259 134 370 317 370c60 0 115 -12 161 -37l52 82zM486 346c0 58 -4 106 -11 144l-220 -357c22 -60 57 -76 102 -76
c77 0 129 48 129 289zM357 632c-85 0 -130 -63 -130 -285c0 -54 4 -99 9 -135l218 354c-21 49 -54 66 -97 66z" />
    <glyph glyph-name="Ugrave" unicode="&#xd9;" horiz-adv-x="692" 
d="M519 228v346c0 57 -17 71 -67 71v51h218v-51c-49 0 -65 -14 -65 -71v-348c0 -148 -73 -239 -258 -239c-180 0 -260 68 -260 235v352c0 57 -16 71 -65 71v51h303v-51c-50 0 -66 -14 -66 -71v-354c0 -110 41 -146 125 -146c82 0 135 37 135 154zM494 766l-25 -39l-253 73
l69 138z" />
    <glyph glyph-name="Uacute" unicode="&#xda;" horiz-adv-x="692" 
d="M519 228v346c0 57 -17 71 -67 71v51h218v-51c-49 0 -65 -14 -65 -71v-348c0 -148 -73 -239 -258 -239c-180 0 -260 68 -260 235v352c0 57 -16 71 -65 71v51h303v-51c-50 0 -66 -14 -66 -71v-354c0 -110 41 -146 125 -146c82 0 135 37 135 154zM268 727l-24 39l208 172
l70 -138z" />
    <glyph glyph-name="Ucircumflex" unicode="&#xdb;" horiz-adv-x="692" 
d="M519 228v346c0 57 -17 71 -67 71v51h218v-51c-49 0 -65 -14 -65 -71v-348c0 -148 -73 -239 -258 -239c-180 0 -260 68 -260 235v352c0 57 -16 71 -65 71v51h303v-51c-50 0 -66 -14 -66 -71v-354c0 -110 41 -146 125 -146c82 0 135 37 135 154zM533 732l-155 75l-154 -75
l-25 38l179 179l180 -179z" />
    <glyph glyph-name="Udieresis" unicode="&#xdc;" horiz-adv-x="692" 
d="M519 228v346c0 57 -17 71 -67 71v51h218v-51c-49 0 -65 -14 -65 -71v-348c0 -148 -73 -239 -258 -239c-180 0 -260 68 -260 235v352c0 57 -16 71 -65 71v51h303v-51c-50 0 -66 -14 -66 -71v-354c0 -110 41 -146 125 -146c82 0 135 37 135 154zM353 824
c0 -47 -39 -85 -87 -85c-49 0 -87 38 -87 85c0 48 39 86 88 86s86 -38 86 -86zM579 824c0 -47 -38 -85 -87 -85c-48 0 -87 38 -87 85c0 48 40 86 88 86c49 0 86 -38 86 -86z" />
    <glyph glyph-name="Yacute" unicode="&#xdd;" horiz-adv-x="669" 
d="M375 363h6l95 222c3 7 9 23 9 32c0 20 -15 30 -49 30v49h216v-49c-40 -5 -54 -15 -77 -63l-154 -320v-145c0 -57 17 -71 76 -71v-48h-323v48c59 0 75 14 75 71v143l-161 324c-23 46 -38 56 -72 61v49h296v-49c-32 0 -47 -13 -47 -33c0 -8 3 -18 8 -29zM243 727l-24 39
l208 172l70 -138z" />
    <glyph glyph-name="Thorn" unicode="&#xde;" horiz-adv-x="612" 
d="M425 358c0 89 -29 120 -107 120h-54v-241h60c74 0 101 26 101 121zM264 573v-19h98c148 0 246 -43 246 -196c0 -106 -50 -201 -250 -201h-94v-38c0 -57 17 -71 84 -71v-48h-321v48c49 0 66 14 66 71v455c0 57 -17 71 -66 71v51h303v-51c-50 0 -66 -35 -66 -72z" />
    <glyph glyph-name="germandbls" unicode="&#xdf;" horiz-adv-x="649" 
d="M87 513v26c0 142 105 205 244 205c149 0 227 -55 227 -145c0 -75 -42 -119 -113 -156c-23 -12 -30 -18 -30 -29c0 -10 10 -17 24 -23c119 -55 189 -100 189 -226c0 -108 -76 -178 -199 -178c-67 0 -112 20 -142 43l21 54c27 -18 53 -24 81 -24c50 0 76 40 76 95
c0 76 -34 125 -96 177c-39 33 -64 47 -64 76c0 22 17 37 55 65c36 27 53 57 53 108c0 59 -22 91 -78 91c-51 0 -86 -39 -86 -129v-543h-221v48c48 0 59 13 59 70v314h-61v56z" />
    <glyph glyph-name="agrave" unicode="&#xe0;" horiz-adv-x="547" 
d="M474 154c0 -75 12 -87 62 -88v-45c-22 -14 -62 -27 -110 -27c-60 0 -97 27 -106 69c-16 -37 -59 -76 -139 -76c-88 0 -159 43 -159 148c0 118 85 169 242 169c12 0 39 -1 52 -2v46c0 75 -19 107 -68 107c-51 0 -65 -37 -72 -92h-120v106c55 32 138 57 222 57
c116 0 200 -51 200 -168c0 -30 -4 -113 -4 -204zM314 244h-35c-58 0 -91 -29 -91 -87c0 -53 21 -70 54 -70c21 0 52 10 69 30zM386 591l-27 -35l-247 96l83 133z" />
    <glyph glyph-name="aacute" unicode="&#xe1;" horiz-adv-x="547" 
d="M474 154c0 -75 12 -87 62 -88v-45c-22 -14 -62 -27 -110 -27c-60 0 -97 27 -106 69c-16 -37 -59 -76 -139 -76c-88 0 -159 43 -159 148c0 118 85 169 242 169c12 0 39 -1 52 -2v46c0 75 -19 107 -68 107c-51 0 -65 -37 -72 -92h-120v106c55 32 138 57 222 57
c116 0 200 -51 200 -168c0 -30 -4 -113 -4 -204zM314 244h-35c-58 0 -91 -29 -91 -87c0 -53 21 -70 54 -70c21 0 52 10 69 30zM162 556l-27 35l190 194l84 -133z" />
    <glyph glyph-name="acircumflex" unicode="&#xe2;" horiz-adv-x="547" 
d="M474 154c0 -75 12 -87 62 -88v-45c-22 -14 -62 -27 -110 -27c-60 0 -97 27 -106 69c-16 -37 -59 -76 -139 -76c-88 0 -159 43 -159 148c0 118 85 169 242 169c12 0 39 -1 52 -2v46c0 75 -19 107 -68 107c-51 0 -65 -37 -72 -92h-120v106c55 32 138 57 222 57
c116 0 200 -51 200 -168c0 -30 -4 -113 -4 -204zM314 244h-35c-58 0 -91 -29 -91 -87c0 -53 21 -70 54 -70c21 0 52 10 69 30zM427 554l-155 76l-154 -76l-25 38l179 179l180 -179z" />
    <glyph glyph-name="atilde" unicode="&#xe3;" horiz-adv-x="547" 
d="M474 154c0 -75 12 -87 62 -88v-45c-22 -14 -62 -27 -110 -27c-60 0 -97 27 -106 69c-16 -37 -59 -76 -139 -76c-88 0 -159 43 -159 148c0 118 85 169 242 169c12 0 39 -1 52 -2v46c0 75 -19 107 -68 107c-51 0 -65 -37 -72 -92h-120v106c55 32 138 57 222 57
c116 0 200 -51 200 -168c0 -30 -4 -113 -4 -204zM314 244h-35c-58 0 -91 -29 -91 -87c0 -53 21 -70 54 -70c21 0 52 10 69 30zM332 690c30 0 57 10 75 46l37 -17c-17 -75 -60 -137 -117 -137s-94 32 -137 32c-31 0 -53 -13 -71 -49l-36 16c10 76 54 143 113 143
c57 0 88 -34 136 -34z" />
    <glyph glyph-name="adieresis" unicode="&#xe4;" horiz-adv-x="547" 
d="M474 154c0 -75 12 -87 62 -88v-45c-22 -14 -62 -27 -110 -27c-60 0 -97 27 -106 69c-16 -37 -59 -76 -139 -76c-88 0 -159 43 -159 148c0 118 85 169 242 169c12 0 39 -1 52 -2v46c0 75 -19 107 -68 107c-51 0 -65 -37 -72 -92h-120v106c55 32 138 57 222 57
c116 0 200 -51 200 -168c0 -30 -4 -113 -4 -204zM314 244h-35c-58 0 -91 -29 -91 -87c0 -53 21 -70 54 -70c21 0 52 10 69 30zM242 648c0 -47 -38 -85 -87 -85c-48 0 -87 38 -87 85c0 48 40 87 88 87c49 0 86 -39 86 -87zM469 648c0 -47 -39 -85 -88 -85
c-48 0 -87 38 -87 85c0 48 40 87 89 87s86 -39 86 -87z" />
    <glyph glyph-name="aring" unicode="&#xe5;" horiz-adv-x="547" 
d="M474 154c0 -75 12 -87 62 -88v-45c-22 -14 -62 -27 -110 -27c-60 0 -97 27 -106 69c-16 -37 -59 -76 -139 -76c-88 0 -159 43 -159 148c0 118 85 169 242 169c12 0 39 -1 52 -2v46c0 75 -19 107 -68 107c-51 0 -65 -37 -72 -92h-120v106c55 32 138 57 222 57
c116 0 200 -51 200 -168c0 -30 -4 -113 -4 -204zM314 244h-35c-58 0 -91 -29 -91 -87c0 -53 21 -70 54 -70c21 0 52 10 69 30zM263 563c-71 0 -121 51 -121 119s50 119 121 119c72 0 122 -51 122 -119s-50 -119 -122 -119zM263 743c-34 0 -54 -27 -54 -61
c0 -32 20 -58 54 -58s55 26 55 58c0 34 -21 61 -55 61z" />
    <glyph glyph-name="ae" unicode="&#xe6;" horiz-adv-x="822" 
d="M421 477c37 29 89 49 146 49c163 0 225 -95 225 -248v-43h-300c4 -106 39 -155 132 -155c43 0 89 10 133 33l26 -43c-56 -56 -123 -83 -216 -83c-88 0 -155 27 -198 81c-25 -38 -85 -81 -183 -81c-93 0 -164 43 -164 148c0 118 86 167 243 167h53v47
c0 74 -22 106 -70 106c-51 0 -65 -37 -72 -92h-120v106c55 32 138 57 212 57c67 0 123 -19 153 -49zM567 460c-46 0 -67 -36 -74 -156h139c0 120 -17 156 -65 156zM255 88c33 0 64 12 85 28c-14 34 -22 73 -23 119h-28c-68 0 -101 -20 -101 -78c0 -45 23 -69 67 -69z" />
    <glyph glyph-name="ccedilla" unicode="&#xe7;" horiz-adv-x="498" 
d="M253 -205c-48 0 -83 12 -102 25l17 41c22 -14 45 -19 67 -19s35 7 35 26c0 23 -24 31 -58 32l1 21l21 70c-113 18 -199 103 -199 257c0 181 122 277 263 277c80 0 130 -16 167 -40v-114h-121c-2 63 -8 89 -45 89c-40 0 -97 -35 -97 -189c0 -147 63 -193 134 -193
c43 0 73 8 114 31l27 -41c-44 -51 -108 -77 -180 -81h-12l-8 -29c65 -4 99 -30 99 -78c0 -61 -43 -85 -123 -85z" />
    <glyph glyph-name="egrave" unicode="&#xe8;" horiz-adv-x="540" 
d="M343 80c42 0 88 10 133 33l25 -43c-56 -56 -123 -83 -216 -83c-158 0 -250 99 -250 271c0 170 99 268 249 268c164 0 226 -95 226 -248v-47h-300c4 -106 39 -151 133 -151zM286 460c-47 0 -68 -36 -75 -156h139c0 120 -17 156 -64 156zM408 591l-27 -35l-247 96l83 133z
" />
    <glyph glyph-name="eacute" unicode="&#xe9;" horiz-adv-x="540" 
d="M343 80c42 0 88 10 133 33l25 -43c-56 -56 -123 -83 -216 -83c-158 0 -250 99 -250 271c0 170 99 268 249 268c164 0 226 -95 226 -248v-47h-300c4 -106 39 -151 133 -151zM286 460c-47 0 -68 -36 -75 -156h139c0 120 -17 156 -64 156zM176 556l-27 35l190 194l84 -133z
" />
    <glyph glyph-name="ecircumflex" unicode="&#xea;" horiz-adv-x="540" 
d="M343 80c42 0 88 10 133 33l25 -43c-56 -56 -123 -83 -216 -83c-158 0 -250 99 -250 271c0 170 99 268 249 268c164 0 226 -95 226 -248v-47h-300c4 -106 39 -151 133 -151zM286 460c-47 0 -68 -36 -75 -156h139c0 120 -17 156 -64 156zM438 554l-155 76l-154 -76l-25 38
l179 179l180 -179z" />
    <glyph glyph-name="edieresis" unicode="&#xeb;" horiz-adv-x="540" 
d="M343 80c42 0 88 10 133 33l25 -43c-56 -56 -123 -83 -216 -83c-158 0 -250 99 -250 271c0 170 99 268 249 268c164 0 226 -95 226 -248v-47h-300c4 -106 39 -151 133 -151zM286 460c-47 0 -68 -36 -75 -156h139c0 120 -17 156 -64 156zM253 648c0 -47 -38 -85 -87 -85
c-48 0 -87 38 -87 85c0 48 40 87 88 87c49 0 86 -39 86 -87zM480 648c0 -47 -39 -85 -88 -85c-48 0 -87 38 -87 85c0 48 40 87 89 87s86 -39 86 -87z" />
    <glyph glyph-name="igrave" unicode="&#xec;" horiz-adv-x="322" 
d="M279 591l-27 -35l-247 96l83 133zM305 0h-280v48c49 0 59 13 59 70v236c0 73 -9 83 -57 85v47l196 34h23v-402c0 -57 10 -70 59 -70v-48z" />
    <glyph glyph-name="iacute" unicode="&#xed;" horiz-adv-x="322" 
d="M55 556l-27 35l190 194l84 -133zM305 0h-280v48c49 0 59 13 59 70v236c0 73 -9 83 -57 85v47l196 34h23v-402c0 -57 10 -70 59 -70v-48z" />
    <glyph glyph-name="icircumflex" unicode="&#xee;" horiz-adv-x="322" 
d="M305 0h-280v48c49 0 59 13 59 70v236c0 73 -9 83 -57 85v47l196 34h23v-402c0 -57 10 -70 59 -70v-48zM320 554l-155 76l-154 -76l-25 38l179 179l180 -179z" />
    <glyph glyph-name="idieresis" unicode="&#xef;" horiz-adv-x="322" 
d="M139 648c0 -47 -38 -85 -87 -85c-48 0 -87 38 -87 85c0 48 40 87 88 87c49 0 86 -39 86 -87zM366 648c0 -47 -39 -85 -88 -85c-48 0 -87 38 -87 85c0 48 40 87 89 87s86 -39 86 -87zM305 0h-280v48c49 0 59 13 59 70v236c0 73 -9 83 -57 85v47l196 34h23v-402
c0 -57 10 -70 59 -70v-48z" />
    <glyph glyph-name="eth" unicode="&#xf0;" horiz-adv-x="579" 
d="M111 529l-20 51l137 48c-37 23 -83 42 -139 58l24 46c82 -14 157 -32 218 -65l133 48l20 -50l-95 -34c102 -76 155 -187 155 -349c0 -201 -113 -295 -254 -295c-144 0 -255 78 -255 266c0 169 107 260 235 260c29 0 61 -7 83 -19c-17 39 -39 65 -72 95zM376 278
c0 74 -4 106 -15 150c-19 15 -39 18 -61 18c-61 0 -93 -71 -93 -192c0 -149 26 -204 86 -204c51 0 83 55 83 228z" />
    <glyph glyph-name="ntilde" unicode="&#xf1;" horiz-adv-x="635" 
d="M565 370v-252c0 -57 10 -70 58 -70v-48h-279v48c49 0 59 13 59 69v214c0 61 -24 81 -65 81s-69 -16 -92 -32v-263c0 -56 10 -69 59 -69v-48h-280v48c49 0 59 13 59 70v236c0 73 -9 83 -57 85v47l169 40h15c7 -10 28 -50 31 -91c43 50 97 90 176 90c82 0 147 -48 147 -155
zM392 690c30 0 57 10 75 46l37 -17c-17 -75 -60 -137 -117 -137s-94 32 -137 32c-31 0 -53 -13 -71 -49l-36 16c10 76 54 143 113 143c57 0 88 -34 136 -34z" />
    <glyph glyph-name="ograve" unicode="&#xf2;" horiz-adv-x="589" 
d="M554 267c0 -198 -123 -280 -263 -280c-163 0 -256 98 -256 268c0 161 101 271 266 271c145 0 253 -79 253 -259zM376 273c0 142 -28 186 -82 186s-81 -43 -81 -209c0 -138 17 -198 83 -198c53 0 80 61 80 221zM408 591l-27 -35l-247 96l83 133z" />
    <glyph glyph-name="oacute" unicode="&#xf3;" horiz-adv-x="589" 
d="M554 267c0 -198 -123 -280 -263 -280c-163 0 -256 98 -256 268c0 161 101 271 266 271c145 0 253 -79 253 -259zM376 273c0 142 -28 186 -82 186s-81 -43 -81 -209c0 -138 17 -198 83 -198c53 0 80 61 80 221zM184 556l-27 35l190 194l84 -133z" />
    <glyph glyph-name="ocircumflex" unicode="&#xf4;" horiz-adv-x="589" 
d="M554 267c0 -198 -123 -280 -263 -280c-163 0 -256 98 -256 268c0 161 101 271 266 271c145 0 253 -79 253 -259zM376 273c0 142 -28 186 -82 186s-81 -43 -81 -209c0 -138 17 -198 83 -198c53 0 80 61 80 221zM448 554l-155 76l-154 -76l-25 38l179 179l180 -179z" />
    <glyph glyph-name="otilde" unicode="&#xf5;" horiz-adv-x="589" 
d="M554 267c0 -198 -123 -280 -263 -280c-163 0 -256 98 -256 268c0 161 101 271 266 271c145 0 253 -79 253 -259zM376 273c0 142 -28 186 -82 186s-81 -43 -81 -209c0 -138 17 -198 83 -198c53 0 80 61 80 221zM363 690c30 0 57 10 75 46l37 -17
c-17 -75 -60 -137 -117 -137s-94 32 -137 32c-31 0 -53 -13 -71 -49l-36 16c10 76 54 143 113 143c57 0 88 -34 136 -34z" />
    <glyph glyph-name="odieresis" unicode="&#xf6;" horiz-adv-x="589" 
d="M554 267c0 -198 -123 -280 -263 -280c-163 0 -256 98 -256 268c0 161 101 271 266 271c145 0 253 -79 253 -259zM376 273c0 142 -28 186 -82 186s-81 -43 -81 -209c0 -138 17 -198 83 -198c53 0 80 61 80 221zM267 648c0 -47 -38 -85 -87 -85c-48 0 -87 38 -87 85
c0 48 40 87 88 87c49 0 86 -39 86 -87zM494 648c0 -47 -39 -85 -88 -85c-48 0 -87 38 -87 85c0 48 40 87 89 87s86 -39 86 -87z" />
    <glyph glyph-name="divide" unicode="&#xf7;" horiz-adv-x="616" 
d="M382 472c0 -44 -34 -77 -73 -77c-42 0 -74 32 -74 75c0 40 32 74 74 74c39 0 73 -33 73 -72zM55 234v74h506v-74h-506zM382 66c0 -43 -34 -76 -73 -76c-42 0 -74 32 -74 74c0 41 32 75 74 75c39 0 73 -33 73 -73z" />
    <glyph glyph-name="oslash" unicode="&#xf8;" horiz-adv-x="589" 
d="M508 541l-41 -65c54 -41 87 -110 87 -209c0 -198 -123 -280 -263 -280c-45 0 -85 8 -119 22l-44 -70l-45 27l44 69c-60 44 -92 120 -92 220c0 161 101 271 266 271c44 0 85 -8 121 -24l41 65zM205 250c0 -33 1 -60 5 -83l153 243c-15 35 -38 49 -69 49
c-56 0 -89 -43 -89 -209zM384 273c0 24 -2 46 -5 65l-152 -242c14 -30 36 -44 69 -44c56 0 88 61 88 221z" />
    <glyph glyph-name="ugrave" unicode="&#xf9;" horiz-adv-x="614" 
d="M538 520v-368c0 -73 10 -81 59 -85v-44l-169 -36h-15c-6 9 -24 35 -28 79c-38 -48 -92 -79 -169 -79c-87 0 -143 43 -143 144v223c0 73 -10 83 -57 85v47l194 34h25v-350c0 -52 16 -81 62 -81c28 0 51 9 79 31v234c0 73 -10 83 -57 85v47l194 34h25zM419 591l-27 -35
l-247 96l83 133z" />
    <glyph glyph-name="uacute" unicode="&#xfa;" horiz-adv-x="614" 
d="M538 520v-368c0 -73 10 -81 59 -85v-44l-169 -36h-15c-6 9 -24 35 -28 79c-38 -48 -92 -79 -169 -79c-87 0 -143 43 -143 144v223c0 73 -10 83 -57 85v47l194 34h25v-350c0 -52 16 -81 62 -81c28 0 51 9 79 31v234c0 73 -10 83 -57 85v47l194 34h25zM196 556l-27 35
l190 194l84 -133z" />
    <glyph glyph-name="ucircumflex" unicode="&#xfb;" horiz-adv-x="614" 
d="M538 520v-368c0 -73 10 -81 59 -85v-44l-169 -36h-15c-6 9 -24 35 -28 79c-38 -48 -92 -79 -169 -79c-87 0 -143 43 -143 144v223c0 73 -10 83 -57 85v47l194 34h25v-350c0 -52 16 -81 62 -81c28 0 51 9 79 31v234c0 73 -10 83 -57 85v47l194 34h25zM460 554l-155 76
l-154 -76l-25 38l179 179l180 -179z" />
    <glyph glyph-name="udieresis" unicode="&#xfc;" horiz-adv-x="614" 
d="M538 520v-368c0 -73 10 -81 59 -85v-44l-169 -36h-15c-6 9 -24 35 -28 79c-38 -48 -92 -79 -169 -79c-87 0 -143 43 -143 144v223c0 73 -10 83 -57 85v47l194 34h25v-350c0 -52 16 -81 62 -81c28 0 51 9 79 31v234c0 73 -10 83 -57 85v47l194 34h25zM279 648
c0 -47 -38 -85 -87 -85c-48 0 -87 38 -87 85c0 48 40 87 88 87c49 0 86 -39 86 -87zM506 648c0 -47 -39 -85 -88 -85c-48 0 -87 38 -87 85c0 48 40 87 89 87s86 -39 86 -87z" />
    <glyph glyph-name="yacute" unicode="&#xfd;" horiz-adv-x="563" 
d="M115 -206l-56 103c90 15 167 39 203 112l-63 -5c-13 52 -25 90 -60 187l-77 211c-17 46 -26 57 -62 62v49h283v-49c-45 -2 -59 -9 -59 -26c0 -6 2 -13 5 -23l69 -215c11 -36 14 -67 16 -75h6c0 8 9 42 19 73l66 217c3 9 4 16 4 22c0 21 -16 25 -61 27v49h215v-49
c-40 -5 -52 -13 -69 -60l-147 -397c-43 -117 -108 -196 -232 -213zM198 556l-27 35l190 194l84 -133z" />
    <glyph glyph-name="thorn" unicode="&#xfe;" horiz-adv-x="609" 
d="M402 242c0 138 -34 176 -89 176c-30 0 -58 -9 -84 -34v-280c21 -24 48 -32 77 -32c57 0 96 34 96 170zM5 709l189 26h15c5 -7 20 -35 20 -99v-195c25 46 71 84 144 84c121 0 201 -83 201 -265c0 -195 -102 -272 -238 -272c-42 0 -81 11 -107 42v-108c0 -57 10 -70 60 -70
v-48h-281v48c49 0 59 13 59 70v655c0 73 -13 83 -62 85v47z" />
    <glyph glyph-name="ydieresis" unicode="&#xff;" horiz-adv-x="563" 
d="M115 -206l-56 103c90 15 167 39 203 112l-63 -5c-13 52 -25 90 -60 187l-77 211c-17 46 -26 57 -62 62v49h283v-49c-45 -2 -59 -9 -59 -26c0 -6 2 -13 5 -23l69 -215c11 -36 14 -67 16 -75h6c0 8 9 42 19 73l66 217c3 9 4 16 4 22c0 21 -16 25 -61 27v49h215v-49
c-40 -5 -52 -13 -69 -60l-147 -397c-43 -117 -108 -196 -232 -213zM281 648c0 -47 -38 -85 -87 -85c-48 0 -87 38 -87 85c0 48 40 87 88 87c49 0 86 -39 86 -87zM508 648c0 -47 -39 -85 -88 -85c-48 0 -87 38 -87 85c0 48 40 87 89 87s86 -39 86 -87z" />
    <glyph glyph-name="Amacron" unicode="&#x100;" horiz-adv-x="674" 
d="M429 99l-25 81h-211l-22 -81c-3 -10 -4 -17 -4 -22c0 -24 19 -26 62 -28v-49h-223v49c42 5 56 13 72 62l189 585h135l203 -585c15 -44 25 -57 63 -62v-49h-293v49c45 2 59 9 59 27c0 6 -2 14 -5 23zM266 432l-50 -172h161l-56 174c-16 49 -21 77 -24 95h-6
c-3 -15 -9 -43 -25 -97zM493 774h-312v83h312v-83z" />
    <glyph glyph-name="amacron" unicode="&#x101;" horiz-adv-x="547" 
d="M474 154c0 -75 12 -87 62 -88v-45c-22 -14 -62 -27 -110 -27c-60 0 -97 27 -106 69c-16 -37 -59 -76 -139 -76c-88 0 -159 43 -159 148c0 118 85 169 242 169c12 0 39 -1 52 -2v46c0 75 -19 107 -68 107c-51 0 -65 -37 -72 -92h-120v106c55 32 138 57 222 57
c116 0 200 -51 200 -168c0 -30 -4 -113 -4 -204zM314 244h-35c-58 0 -91 -29 -91 -87c0 -53 21 -70 54 -70c21 0 52 10 69 30zM420 603h-307v83h307v-83z" />
    <glyph glyph-name="Abreve" unicode="&#x102;" horiz-adv-x="674" 
d="M429 99l-25 81h-211l-22 -81c-3 -10 -4 -17 -4 -22c0 -24 19 -26 62 -28v-49h-223v49c42 5 56 13 72 62l189 585h135l203 -585c15 -44 25 -57 63 -62v-49h-293v49c45 2 59 9 59 27c0 6 -2 14 -5 23zM266 432l-50 -172h161l-56 174c-16 49 -21 77 -24 95h-6
c-3 -15 -9 -43 -25 -97zM336 744c-103 0 -151 89 -171 168l39 23c33 -48 71 -83 132 -83s99 35 133 83l38 -23c-19 -79 -68 -168 -171 -168z" />
    <glyph glyph-name="abreve" unicode="&#x103;" horiz-adv-x="547" 
d="M474 154c0 -75 12 -87 62 -88v-45c-22 -14 -62 -27 -110 -27c-60 0 -97 27 -106 69c-16 -37 -59 -76 -139 -76c-88 0 -159 43 -159 148c0 118 85 169 242 169c12 0 39 -1 52 -2v46c0 75 -19 107 -68 107c-51 0 -65 -37 -72 -92h-120v106c55 32 138 57 222 57
c116 0 200 -51 200 -168c0 -30 -4 -113 -4 -204zM314 244h-35c-58 0 -91 -29 -91 -87c0 -53 21 -70 54 -70c21 0 52 10 69 30zM268 564c-102 0 -150 90 -169 169l39 22c32 -48 70 -82 130 -82s98 34 130 82l39 -22c-19 -79 -67 -169 -169 -169z" />
    <glyph glyph-name="Aogonek" unicode="&#x104;" horiz-adv-x="674" 
d="M490 -128l16 -30c-32 -34 -77 -47 -125 -47c-63 0 -122 24 -122 88c0 57 51 88 140 140c25 15 35 28 35 48c0 9 -1 15 -5 28l-25 81h-211l-22 -81c-3 -11 -4 -17 -4 -23c0 -22 18 -25 62 -27v-49h-223v49c42 5 56 13 72 62l189 585h135l202 -583c17 -50 27 -59 64 -64
v-49h-168c-69 0 -109 -50 -109 -95c0 -36 22 -49 45 -49c18 0 34 5 54 16zM266 432l-50 -172h161l-56 174c-16 49 -21 77 -24 95h-6c-3 -15 -9 -43 -25 -97z" />
    <glyph glyph-name="aogonek" unicode="&#x105;" horiz-adv-x="547" 
d="M533 -128l16 -30c-32 -34 -77 -47 -125 -47c-63 0 -122 24 -122 91c0 49 48 81 108 110c-51 3 -82 32 -90 67c-16 -37 -59 -76 -139 -76c-88 0 -159 43 -159 148c0 118 85 169 242 169c12 0 39 -1 52 -2v46c0 75 -19 107 -68 107c-51 0 -65 -37 -72 -92h-120v106
c55 32 138 57 222 57c116 0 200 -51 200 -168c0 -30 -4 -113 -4 -204c0 -75 12 -87 62 -88v-45c-60 -27 -103 -65 -103 -116c0 -36 23 -49 46 -49c18 0 34 5 54 16zM314 244h-35c-58 0 -91 -29 -91 -87c0 -53 21 -70 54 -70c21 0 52 10 69 30z" />
    <glyph glyph-name="Cacute" unicode="&#x106;" horiz-adv-x="630" 
d="M358 -13c-203 0 -318 124 -318 350c0 260 134 371 329 371c96 0 168 -18 218 -50v-142h-116c-16 76 -37 116 -104 116c-89 0 -136 -61 -136 -287c0 -242 57 -284 134 -284c79 0 103 39 116 121h111v-138c-42 -32 -134 -57 -234 -57zM253 727l-24 39l208 172l70 -138z" />
    <glyph glyph-name="cacute" unicode="&#x107;" horiz-adv-x="498" 
d="M465 485v-114h-121c-2 63 -8 89 -45 89c-40 0 -97 -35 -97 -189c0 -147 63 -193 134 -193c43 0 73 8 114 31l27 -41c-46 -55 -117 -81 -194 -81c-136 0 -248 85 -248 261c0 181 122 277 263 277c80 0 130 -16 167 -40zM183 556l-27 35l190 194l84 -133z" />
    <glyph glyph-name="Ccircumflex" unicode="&#x108;" horiz-adv-x="630" 
d="M358 -13c-203 0 -318 124 -318 350c0 260 134 371 329 371c96 0 168 -18 218 -50v-142h-116c-16 76 -37 116 -104 116c-89 0 -136 -61 -136 -287c0 -242 57 -284 134 -284c79 0 103 39 116 121h111v-138c-42 -32 -134 -57 -234 -57zM517 732l-155 75l-154 -75l-25 38
l179 179l180 -179z" />
    <glyph glyph-name="ccircumflex" unicode="&#x109;" horiz-adv-x="498" 
d="M465 485v-114h-121c-2 63 -8 89 -45 89c-40 0 -97 -35 -97 -189c0 -147 63 -193 134 -193c43 0 73 8 114 31l27 -41c-46 -55 -117 -81 -194 -81c-136 0 -248 85 -248 261c0 181 122 277 263 277c80 0 130 -16 167 -40zM438 554l-155 76l-154 -76l-25 38l179 179l180 -179
z" />
    <glyph glyph-name="Cdotaccent" unicode="&#x10a;" horiz-adv-x="630" 
d="M358 -13c-203 0 -318 124 -318 350c0 260 134 371 329 371c96 0 168 -18 218 -50v-142h-116c-16 76 -37 116 -104 116c-89 0 -136 -61 -136 -287c0 -242 57 -284 134 -284c79 0 103 39 116 121h111v-138c-42 -32 -134 -57 -234 -57zM454 832c0 -49 -41 -89 -92 -89
c-49 0 -90 40 -90 89c0 50 42 90 92 90c51 0 90 -40 90 -90z" />
    <glyph glyph-name="cdotaccent" unicode="&#x10b;" horiz-adv-x="498" 
d="M465 485v-114h-121c-2 63 -8 89 -45 89c-40 0 -97 -35 -97 -189c0 -147 63 -193 134 -193c43 0 73 8 114 31l27 -41c-46 -55 -117 -81 -194 -81c-136 0 -248 85 -248 261c0 181 122 277 263 277c80 0 130 -16 167 -40zM382 654c0 -49 -41 -89 -92 -89
c-49 0 -90 40 -90 89c0 50 42 90 92 90c51 0 90 -40 90 -90z" />
    <glyph glyph-name="Ccaron" unicode="&#x10c;" horiz-adv-x="630" 
d="M358 -13c-203 0 -318 124 -318 350c0 260 134 371 329 371c96 0 168 -18 218 -50v-142h-116c-16 76 -37 116 -104 116c-89 0 -136 -61 -136 -287c0 -242 57 -284 134 -284c79 0 103 39 116 121h111v-138c-42 -32 -134 -57 -234 -57zM363 873l155 76l25 -39l-180 -178
l-179 178l25 39z" />
    <glyph glyph-name="ccaron" unicode="&#x10d;" horiz-adv-x="498" 
d="M465 485v-114h-121c-2 63 -8 89 -45 89c-40 0 -97 -35 -97 -189c0 -147 63 -193 134 -193c43 0 73 8 114 31l27 -41c-46 -55 -117 -81 -194 -81c-136 0 -248 85 -248 261c0 181 122 277 263 277c80 0 130 -16 167 -40zM291 693l155 76l25 -39l-180 -178l-179 178l25 39z
" />
    <glyph glyph-name="Dcaron" unicode="&#x10e;" horiz-adv-x="696" 
d="M27 0v48c49 0 66 14 66 71v455c0 57 -17 71 -66 71v51h299c204 0 329 -97 329 -352c0 -229 -114 -344 -334 -344h-294zM264 71h41c119 0 167 43 167 267c0 230 -48 282 -164 282h-44v-549zM330 873l155 76l25 -39l-180 -178l-179 178l25 39z" />
    <glyph glyph-name="dcaron" unicode="&#x10f;" horiz-adv-x="621" 
d="M393 66c-26 -46 -85 -79 -156 -79c-121 0 -202 83 -202 266c0 195 102 272 234 272c50 0 93 -17 115 -46v98c0 73 -14 83 -61 85v47l196 26h27v-583c0 -73 10 -81 60 -85v-44l-170 -36h-15c-9 10 -25 39 -28 79zM211 264c0 -138 34 -176 89 -176c31 0 59 10 84 35v280
c-21 24 -48 32 -78 32c-56 0 -95 -35 -95 -171zM718 726l-69 -174l-63 8l12 179z" />
    <glyph glyph-name="Dcroat" unicode="&#x110;" horiz-adv-x="696" 
d="M27 316v77h66v181c0 57 -17 71 -66 71v51h299c204 0 329 -97 329 -352c0 -229 -114 -344 -334 -344h-294v48c49 0 66 14 66 71v197h-66zM472 338c0 230 -48 282 -164 282h-44v-227h114v-77h-114v-245h41c119 0 167 43 167 267z" />
    <glyph glyph-name="dcroat" unicode="&#x111;" horiz-adv-x="621" 
d="M221 613h163c0 42 -12 49 -61 49v47l196 26h27v-122h59v-46h-59v-415c0 -73 10 -81 60 -85v-44l-170 -36h-15c-6 8 -25 35 -28 79c-26 -46 -85 -79 -156 -79c-121 0 -202 83 -202 266c0 195 102 272 234 272c50 0 93 -17 115 -46v88h-163v46zM211 264
c0 -138 34 -176 89 -176c31 0 59 10 84 35v280c-21 24 -48 32 -78 32c-56 0 -95 -35 -95 -171z" />
    <glyph glyph-name="Emacron" unicode="&#x112;" horiz-adv-x="600" 
d="M27 0v48c49 0 66 14 66 71v455c0 57 -17 71 -66 71v51h508l11 -173h-81c-22 76 -33 97 -106 97h-95v-233h54c62 0 78 14 82 71h72v-215h-72c-4 54 -19 71 -81 71h-55v-243h113c64 0 90 23 98 116h83v-187h-531zM461 774h-312v83h312v-83z" />
    <glyph glyph-name="emacron" unicode="&#x113;" horiz-adv-x="540" 
d="M343 80c42 0 88 10 133 33l25 -43c-56 -56 -123 -83 -216 -83c-158 0 -250 99 -250 271c0 170 99 268 249 268c164 0 226 -95 226 -248v-47h-300c4 -106 39 -151 133 -151zM286 460c-47 0 -68 -36 -75 -156h139c0 120 -17 156 -64 156zM432 603h-307v83h307v-83z" />
    <glyph glyph-name="Ebreve" unicode="&#x114;" horiz-adv-x="600" 
d="M27 0v48c49 0 66 14 66 71v455c0 57 -17 71 -66 71v51h508l11 -173h-81c-22 76 -33 97 -106 97h-95v-233h54c62 0 78 14 82 71h72v-215h-72c-4 54 -19 71 -81 71h-55v-243h113c64 0 90 23 98 116h83v-187h-531zM297 744c-103 0 -151 89 -171 168l39 23
c33 -48 71 -83 132 -83s99 35 133 83l38 -23c-19 -79 -68 -168 -171 -168z" />
    <glyph glyph-name="ebreve" unicode="&#x115;" horiz-adv-x="540" 
d="M343 80c42 0 88 10 133 33l25 -43c-56 -56 -123 -83 -216 -83c-158 0 -250 99 -250 271c0 170 99 268 249 268c164 0 226 -95 226 -248v-47h-300c4 -106 39 -151 133 -151zM286 460c-47 0 -68 -36 -75 -156h139c0 120 -17 156 -64 156zM275 564c-102 0 -150 90 -169 169
l39 22c32 -48 70 -82 130 -82s98 34 130 82l39 -22c-19 -79 -67 -169 -169 -169z" />
    <glyph glyph-name="Edotaccent" unicode="&#x116;" horiz-adv-x="600" 
d="M27 0v48c49 0 66 14 66 71v455c0 57 -17 71 -66 71v51h508l11 -173h-81c-22 76 -33 97 -106 97h-95v-233h54c62 0 78 14 82 71h72v-215h-72c-4 54 -19 71 -81 71h-55v-243h113c64 0 90 23 98 116h83v-187h-531zM395 832c0 -49 -41 -89 -92 -89c-49 0 -90 40 -90 89
c0 50 42 90 92 90c51 0 90 -40 90 -90z" />
    <glyph glyph-name="edotaccent" unicode="&#x117;" horiz-adv-x="540" 
d="M343 80c42 0 88 10 133 33l25 -43c-56 -56 -123 -83 -216 -83c-158 0 -250 99 -250 271c0 170 99 268 249 268c164 0 226 -95 226 -248v-47h-300c4 -106 39 -151 133 -151zM286 460c-47 0 -68 -36 -75 -156h139c0 120 -17 156 -64 156zM373 654c0 -49 -41 -89 -92 -89
c-49 0 -90 40 -90 89c0 50 42 90 92 90c51 0 90 -40 90 -90z" />
    <glyph glyph-name="Eogonek" unicode="&#x118;" horiz-adv-x="600" 
d="M428 -205c-63 0 -121 24 -121 91c0 52 37 82 107 114h-387v48c49 0 66 14 66 71v455c0 57 -17 71 -66 71v51h508l11 -173h-81c-22 76 -33 97 -106 97h-95v-233h54c62 0 78 14 82 71h72v-215h-72c-4 54 -19 71 -81 71h-55v-243h113c64 0 90 23 98 116h83v-187l-22 -2
c-61 -6 -98 -45 -98 -93c0 -36 22 -49 45 -49c18 0 34 5 54 16l16 -30c-32 -34 -77 -47 -125 -47z" />
    <glyph glyph-name="eogonek" unicode="&#x119;" horiz-adv-x="540" 
d="M452 -128l16 -30c-33 -34 -77 -47 -125 -47c-63 0 -121 24 -121 91c0 45 38 77 95 103c-10 -1 -25 -2 -32 -2c-158 0 -250 99 -250 271c0 170 99 268 249 268c164 0 226 -95 226 -248v-47h-300c4 -106 39 -151 133 -151c42 0 88 10 133 33l25 -43
c-15 -16 -47 -40 -73 -59c-50 -36 -76 -72 -76 -106c0 -36 23 -49 46 -49c18 0 34 5 54 16zM286 460c-47 0 -68 -36 -75 -156h139c0 120 -17 156 -64 156z" />
    <glyph glyph-name="Ecaron" unicode="&#x11a;" horiz-adv-x="600" 
d="M27 0v48c49 0 66 14 66 71v455c0 57 -17 71 -66 71v51h508l11 -173h-81c-22 76 -33 97 -106 97h-95v-233h54c62 0 78 14 82 71h72v-215h-72c-4 54 -19 71 -81 71h-55v-243h113c64 0 90 23 98 116h83v-187h-531zM304 873l155 76l25 -39l-180 -178l-179 178l25 39z" />
    <glyph glyph-name="ecaron" unicode="&#x11b;" horiz-adv-x="540" 
d="M343 80c42 0 88 10 133 33l25 -43c-56 -56 -123 -83 -216 -83c-158 0 -250 99 -250 271c0 170 99 268 249 268c164 0 226 -95 226 -248v-47h-300c4 -106 39 -151 133 -151zM286 460c-47 0 -68 -36 -75 -156h139c0 120 -17 156 -64 156zM283 693l155 76l25 -39l-180 -178
l-179 178l25 39z" />
    <glyph glyph-name="Gcircumflex" unicode="&#x11c;" horiz-adv-x="707" 
d="M451 80v151c0 57 -15 70 -78 70v51h314v-51c-49 0 -66 -13 -66 -70v-175c-60 -48 -166 -69 -257 -69c-203 0 -324 123 -324 350c0 259 137 371 337 371c97 0 172 -19 223 -51v-141h-119c-15 76 -37 116 -107 116c-94 0 -142 -68 -142 -288c0 -234 54 -284 137 -284
c41 0 64 7 82 20zM542 732l-155 75l-154 -75l-25 38l179 179l180 -179z" />
    <glyph glyph-name="gcircumflex" unicode="&#x11d;" horiz-adv-x="554" 
d="M258 -200c-143 0 -244 32 -244 104c0 33 24 59 52 70l113 1c-9 -17 -12 -29 -12 -47c0 -47 28 -64 97 -64c82 0 112 25 112 73c0 47 -28 58 -127 64l-112 7c-64 4 -86 45 -86 90c0 52 44 93 115 111c-84 17 -133 69 -133 148c0 109 87 169 221 169c46 0 80 -11 110 -18
c21 -5 25 -8 53 -8c36 0 78 27 106 52l56 -102c-27 -20 -55 -31 -85 -31c-24 0 -43 3 -66 12c25 -16 43 -43 43 -84c0 -69 -39 -150 -231 -151h-9c-18 -10 -29 -19 -29 -34c0 -12 7 -21 25 -22l98 -5c130 -7 197 -42 197 -150c0 -134 -111 -185 -264 -185zM253 258
c42 0 62 28 62 97c0 80 -19 106 -62 106c-40 0 -60 -27 -60 -103c0 -71 21 -100 60 -100zM419 554l-155 76l-154 -76l-25 38l179 179l180 -179z" />
    <glyph glyph-name="Gbreve" unicode="&#x11e;" horiz-adv-x="707" 
d="M451 80v151c0 57 -15 70 -78 70v51h314v-51c-49 0 -66 -13 -66 -70v-175c-60 -48 -166 -69 -257 -69c-203 0 -324 123 -324 350c0 259 137 371 337 371c97 0 172 -19 223 -51v-141h-119c-15 76 -37 116 -107 116c-94 0 -142 -68 -142 -288c0 -234 54 -284 137 -284
c41 0 64 7 82 20zM387 744c-103 0 -151 89 -171 168l39 23c33 -48 71 -83 132 -83s99 35 133 83l38 -23c-19 -79 -68 -168 -171 -168z" />
    <glyph glyph-name="gbreve" unicode="&#x11f;" horiz-adv-x="554" 
d="M258 -200c-143 0 -244 32 -244 104c0 33 24 59 52 70l113 1c-9 -17 -12 -29 -12 -47c0 -47 28 -64 97 -64c82 0 112 25 112 73c0 47 -28 58 -127 64l-112 7c-64 4 -86 45 -86 90c0 52 44 93 115 111c-84 17 -133 69 -133 148c0 109 87 169 221 169c46 0 80 -11 110 -18
c21 -5 25 -8 53 -8c36 0 78 27 106 52l56 -102c-27 -20 -55 -31 -85 -31c-24 0 -43 3 -66 12c25 -16 43 -43 43 -84c0 -69 -39 -150 -231 -151h-9c-18 -10 -29 -19 -29 -34c0 -12 7 -21 25 -22l98 -5c130 -7 197 -42 197 -150c0 -134 -111 -185 -264 -185zM253 258
c42 0 62 28 62 97c0 80 -19 106 -62 106c-40 0 -60 -27 -60 -103c0 -71 21 -100 60 -100zM264 564c-102 0 -150 90 -169 169l39 22c32 -48 70 -82 130 -82s98 34 130 82l39 -22c-19 -79 -67 -169 -169 -169z" />
    <glyph glyph-name="Gdotaccent" unicode="&#x120;" horiz-adv-x="707" 
d="M451 80v151c0 57 -15 70 -78 70v51h314v-51c-49 0 -66 -13 -66 -70v-175c-60 -48 -166 -69 -257 -69c-203 0 -324 123 -324 350c0 259 137 371 337 371c97 0 172 -19 223 -51v-141h-119c-15 76 -37 116 -107 116c-94 0 -142 -68 -142 -288c0 -234 54 -284 137 -284
c41 0 64 7 82 20zM479 832c0 -49 -41 -89 -92 -89c-49 0 -90 40 -90 89c0 50 42 90 92 90c51 0 90 -40 90 -90z" />
    <glyph glyph-name="gdotaccent" unicode="&#x121;" horiz-adv-x="554" 
d="M258 -200c-143 0 -244 32 -244 104c0 33 24 59 52 70l113 1c-9 -17 -12 -29 -12 -47c0 -47 28 -64 97 -64c82 0 112 25 112 73c0 47 -28 58 -127 64l-112 7c-64 4 -86 45 -86 90c0 52 44 93 115 111c-84 17 -133 69 -133 148c0 109 87 169 221 169c46 0 80 -11 110 -18
c21 -5 25 -8 53 -8c36 0 78 27 106 52l56 -102c-27 -20 -55 -31 -85 -31c-24 0 -43 3 -66 12c25 -16 43 -43 43 -84c0 -69 -39 -150 -231 -151h-9c-18 -10 -29 -19 -29 -34c0 -12 7 -21 25 -22l98 -5c130 -7 197 -42 197 -150c0 -134 -111 -185 -264 -185zM253 258
c42 0 62 28 62 97c0 80 -19 106 -62 106c-40 0 -60 -27 -60 -103c0 -71 21 -100 60 -100zM356 654c0 -49 -41 -89 -92 -89c-49 0 -90 40 -90 89c0 50 42 90 92 90c51 0 90 -40 90 -90z" />
    <glyph glyph-name="Gcommaaccent" unicode="&#x122;" horiz-adv-x="707" 
d="M451 80v151c0 57 -15 70 -78 70v51h314v-51c-49 0 -66 -13 -66 -70v-175c-60 -48 -166 -69 -257 -69c-203 0 -324 123 -324 350c0 259 137 371 337 371c97 0 172 -19 223 -51v-141h-119c-15 76 -37 116 -107 116c-94 0 -142 -68 -142 -288c0 -234 54 -284 137 -284
c41 0 64 7 82 20zM480 -143c0 -83 -73 -128 -157 -145l-27 36c54 17 74 29 74 54c0 13 -6 20 -26 28c-22 9 -39 25 -39 61c0 38 32 69 82 69c59 0 93 -41 93 -103z" />
    <glyph glyph-name="gcommaaccent" unicode="&#x123;" horiz-adv-x="554" 
d="M258 -200c-143 0 -244 32 -244 104c0 33 24 59 52 70l113 1c-9 -17 -12 -29 -12 -47c0 -47 28 -64 97 -64c82 0 112 25 112 73c0 47 -28 58 -127 64l-112 7c-64 4 -86 45 -86 90c0 52 44 93 115 111c-84 17 -133 69 -133 148c0 109 87 169 221 169c46 0 80 -11 110 -18
c21 -5 25 -8 53 -8c36 0 78 27 106 52l56 -102c-27 -20 -55 -31 -85 -31c-24 0 -43 3 -66 12c25 -16 43 -43 43 -84c0 -69 -39 -150 -231 -151h-9c-18 -10 -29 -19 -29 -34c0 -12 7 -21 25 -22l98 -5c130 -7 197 -42 197 -150c0 -134 -111 -185 -264 -185zM253 258
c42 0 62 28 62 97c0 80 -19 106 -62 106c-40 0 -60 -27 -60 -103c0 -71 21 -100 60 -100zM172 673c0 84 73 129 157 146l27 -37c-54 -17 -74 -28 -74 -53c0 -13 6 -19 26 -28c21 -9 39 -25 39 -61c0 -39 -32 -69 -81 -69c-60 0 -94 41 -94 102z" />
    <glyph glyph-name="Hcircumflex" unicode="&#x124;" horiz-adv-x="755" 
d="M491 119v195h-227v-195c0 -57 16 -71 66 -71v-48h-303v48c49 0 66 14 66 71v455c0 57 -17 71 -66 71v51h303v-51c-50 0 -66 -14 -66 -71v-179h227v179c0 57 -17 71 -66 71v51h303v-51c-49 0 -66 -14 -66 -71v-455c0 -57 17 -71 66 -71v-48h-303v48c49 0 66 14 66 71z
M531 732l-155 75l-154 -75l-25 38l179 179l180 -179z" />
    <glyph glyph-name="hcircumflex" unicode="&#x125;" horiz-adv-x="628" 
d="M239 636v-195c44 49 93 84 172 84c82 0 147 -48 147 -155v-252c0 -57 10 -70 58 -70v-48h-279v48c49 0 59 13 59 69v214c0 61 -25 81 -64 81c-42 0 -70 -16 -93 -32v-263c0 -56 10 -69 59 -69v-48h-279v48c48 0 58 13 58 70v459c0 73 -13 83 -61 85v47l189 26h15
c10 -15 19 -46 19 -99zM470 760l-155 75l-154 -75l-25 38l179 179l180 -179z" />
    <glyph glyph-name="Hbar" unicode="&#x126;" horiz-adv-x="755" 
d="M28 484v67h65v23c0 57 -17 71 -66 71v51h303v-51c-50 0 -66 -14 -66 -71v-23h227v23c0 57 -17 71 -66 71v51h303v-51c-49 0 -66 -14 -66 -71v-23h65v-67h-65v-365c0 -57 17 -71 66 -71v-48h-303v48c49 0 66 14 66 71v195h-227v-195c0 -57 16 -71 66 -71v-48h-303v48
c49 0 66 14 66 71v365h-65zM264 395h227v89h-227v-89z" />
    <glyph glyph-name="hbar" unicode="&#x127;" horiz-adv-x="628" 
d="M239 636v-23h162v-46h-162v-126c44 49 93 84 172 84c82 0 147 -48 147 -155v-252c0 -57 10 -70 58 -70v-48h-279v48c49 0 59 13 59 69v214c0 61 -25 81 -64 81c-42 0 -70 -16 -93 -32v-263c0 -56 10 -69 59 -69v-48h-279v48c48 0 58 13 58 70v449h-61v46h61
c0 44 -14 49 -61 49v47l189 26h15c4 -6 19 -35 19 -99z" />
    <glyph glyph-name="Itilde" unicode="&#x128;" horiz-adv-x="357" 
d="M93 119v455c0 57 -17 71 -66 71v51h303v-51c-50 0 -66 -14 -66 -71v-455c0 -57 16 -71 66 -71v-48h-303v48c49 0 66 14 66 71zM249 866c30 0 57 10 75 46l38 -16c-18 -76 -61 -137 -118 -137c-59 0 -95 34 -139 34c-32 0 -54 -13 -73 -49l-35 15c10 76 54 143 113 143
s89 -36 139 -36z" />
    <glyph glyph-name="itilde" unicode="&#x129;" horiz-adv-x="322" 
d="M232 690c30 0 57 10 75 46l37 -17c-17 -75 -60 -137 -117 -137s-94 32 -137 32c-31 0 -53 -13 -71 -49l-36 16c10 76 54 143 113 143c57 0 88 -34 136 -34zM305 0h-280v48c49 0 59 13 59 70v236c0 73 -9 83 -57 85v47l196 34h23v-402c0 -57 10 -70 59 -70v-48z" />
    <glyph glyph-name="Imacron" unicode="&#x12a;" horiz-adv-x="357" 
d="M93 119v455c0 57 -17 71 -66 71v51h303v-51c-50 0 -66 -14 -66 -71v-455c0 -57 16 -71 66 -71v-48h-303v48c49 0 66 14 66 71zM336 774h-312v83h312v-83z" />
    <glyph glyph-name="imacron" unicode="&#x12b;" horiz-adv-x="322" 
d="M305 0h-280v48c49 0 59 13 59 70v236c0 73 -9 83 -57 85v47l196 34h23v-402c0 -57 10 -70 59 -70v-48zM282 603h-258v83h258v-83z" />
    <glyph glyph-name="Ibreve" unicode="&#x12c;" horiz-adv-x="357" 
d="M93 119v455c0 57 -17 71 -66 71v51h303v-51c-50 0 -66 -14 -66 -71v-455c0 -57 16 -71 66 -71v-48h-303v48c49 0 66 14 66 71zM178 744c-103 0 -151 89 -171 168l39 23c33 -48 71 -83 132 -83s99 35 133 83l38 -23c-19 -79 -68 -168 -171 -168z" />
    <glyph glyph-name="ibreve" unicode="&#x12d;" horiz-adv-x="322" 
d="M164 564c-102 0 -150 90 -169 169l39 22c32 -48 70 -82 130 -82s98 34 130 82l39 -22c-19 -79 -67 -169 -169 -169zM305 0h-280v48c49 0 59 13 59 70v236c0 73 -9 83 -57 85v47l196 34h23v-402c0 -57 10 -70 59 -70v-48z" />
    <glyph glyph-name="Iogonek" unicode="&#x12e;" horiz-adv-x="357" 
d="M311 -128l16 -30c-33 -34 -78 -47 -126 -47c-63 0 -121 24 -121 91c0 52 32 82 103 114h-156v48c49 0 66 14 66 71v455c0 57 -17 71 -66 71v51h303v-51c-50 0 -66 -14 -66 -71v-455c0 -57 16 -71 66 -71v-48h-23c-55 0 -96 -48 -96 -95c0 -36 22 -49 46 -49
c18 0 33 5 54 16z" />
    <glyph glyph-name="iogonek" unicode="&#x12f;" horiz-adv-x="322" 
d="M296 -128l16 -30c-32 -34 -77 -47 -125 -47c-63 0 -121 24 -121 91c0 52 32 82 103 114h-144v48c49 0 59 13 59 70v236c0 73 -9 83 -57 85v47l196 34h23v-402c0 -57 10 -70 59 -70v-48c-70 -6 -108 -56 -108 -95c0 -36 22 -49 45 -49c18 0 34 5 54 16zM254 651
c0 -52 -42 -93 -95 -93c-51 0 -94 41 -94 93c0 51 43 93 96 93s93 -42 93 -93z" />
    <glyph glyph-name="Idotaccent" unicode="&#x130;" horiz-adv-x="357" 
d="M93 119v455c0 57 -17 71 -66 71v51h303v-51c-50 0 -66 -14 -66 -71v-455c0 -57 16 -71 66 -71v-48h-303v48c49 0 66 14 66 71zM268 832c0 -49 -41 -89 -92 -89c-49 0 -90 40 -90 89c0 50 42 90 92 90c51 0 90 -40 90 -90z" />
    <glyph glyph-name="dotlessi" unicode="&#x131;" horiz-adv-x="322" 
d="M305 0h-280v48c49 0 59 13 59 70v236c0 73 -9 83 -57 85v47l196 34h23v-402c0 -57 10 -70 59 -70v-48z" />
    <glyph glyph-name="IJ" unicode="&#x132;" horiz-adv-x="715" 
d="M93 119v455c0 57 -17 71 -66 71v51h303v-51c-50 0 -66 -14 -66 -71v-455c0 -57 16 -71 66 -71v-48h-303v48c49 0 66 14 66 71zM449 100v474c0 57 -17 71 -66 71v51h304v-51c-50 0 -66 -14 -66 -71v-467c0 -163 -98 -226 -266 -254l-26 47c106 50 120 89 120 200z" />
    <glyph glyph-name="ij" unicode="&#x133;" horiz-adv-x="632" 
d="M305 0h-280v48c49 0 59 13 59 70v236c0 73 -9 83 -57 85v47l196 34h23v-402c0 -57 10 -70 59 -70v-48zM254 651c0 -52 -42 -93 -95 -93c-51 0 -94 41 -94 93c0 51 43 93 96 93s93 -42 93 -93zM400 17v337c0 73 -10 83 -58 85v47l196 34h23v-503
c0 -149 -119 -205 -212 -223l-29 45c61 28 80 75 80 178zM570 651c0 -52 -43 -93 -96 -93c-51 0 -94 41 -94 93c0 51 44 93 97 93c52 0 93 -42 93 -93z" />
    <glyph glyph-name="Jcircumflex" unicode="&#x134;" horiz-adv-x="358" 
d="M93 100v474c0 57 -17 71 -66 71v51h304v-51c-50 0 -66 -14 -66 -71v-467c0 -163 -98 -226 -266 -254l-26 47c106 50 120 89 120 200zM332 732l-155 75l-154 -75l-25 38l179 179l180 -179z" />
    <glyph glyph-name="jcircumflex" unicode="&#x135;" horiz-adv-x="314" 
d="M83 17v337c0 73 -10 83 -58 85v47l196 34h23v-503c0 -149 -119 -205 -212 -223l-29 45c61 28 80 75 80 178zM315 554l-155 76l-154 -76l-25 38l179 179l180 -179z" />
    <glyph glyph-name="Kcommaaccent" unicode="&#x136;" horiz-adv-x="699" 
d="M93 119v455c0 57 -17 71 -66 71v51h303v-51c-50 0 -66 -14 -66 -71v-455c0 -57 16 -71 66 -71v-48h-303v48c49 0 66 14 66 71zM566 583l-138 -173l175 -313c22 -39 41 -46 82 -49v-48h-219l-186 343l191 253c7 9 10 18 10 24c0 15 -13 27 -40 27v49h227v-49
c-42 -5 -68 -21 -102 -64zM444 -143c0 -83 -73 -128 -157 -145l-27 36c54 17 74 29 74 54c0 13 -6 20 -26 28c-22 9 -39 25 -39 61c0 38 32 69 82 69c59 0 93 -41 93 -103z" />
    <glyph glyph-name="kcommaaccent" unicode="&#x137;" horiz-adv-x="601" 
d="M19 0v48c48 0 58 13 58 70v459c0 73 -13 83 -61 85v47l189 26h15c4 -7 19 -35 19 -99v-519c0 -56 10 -69 59 -69v-48h-279zM399 0l-152 259l127 142c11 13 17 24 17 34c0 17 -17 29 -48 29v49h237v-49c-40 -5 -65 -21 -101 -60l-88 -94l129 -209c27 -44 48 -49 81 -53
v-48h-202zM400 -143c0 -83 -73 -128 -157 -145l-27 36c54 17 74 29 74 54c0 13 -6 19 -26 28c-22 8 -39 25 -39 61c0 38 32 69 81 69c60 0 94 -41 94 -103z" />
    <glyph glyph-name="kgreenlandic" unicode="&#x138;" horiz-adv-x="610" 
d="M488 404l-89 -94l129 -209c27 -45 48 -49 81 -53v-48h-201l-152 259l127 142c11 12 16 24 16 34c0 17 -17 29 -48 29v49h238v-49c-41 -5 -65 -22 -101 -60zM305 0h-280v48c49 0 59 13 59 70v236c0 73 -9 83 -57 85v47l196 34h23v-402c0 -57 10 -70 59 -70v-48z" />
    <glyph glyph-name="Lacute" unicode="&#x139;" horiz-adv-x="566" 
d="M264 574v-503h82c63 0 99 29 117 126h85l-14 -197h-507v48c49 0 66 14 66 71v455c0 57 -17 71 -66 71v51h304v-51c-51 0 -67 -14 -67 -71zM85 727l-24 39l208 172l70 -138z" />
    <glyph glyph-name="lacute" unicode="&#x13a;" horiz-adv-x="316" 
d="M240 636v-518c0 -57 10 -70 59 -70v-48h-280v48c49 0 59 13 59 70v459c0 73 -14 83 -62 85v47l189 26h15c5 -7 20 -35 20 -99zM48 737l-24 39l208 172l70 -138z" />
    <glyph glyph-name="Lcommaaccent" unicode="&#x13b;" horiz-adv-x="566" 
d="M264 574v-503h82c63 0 99 29 117 126h85l-14 -197h-507v48c49 0 66 14 66 71v455c0 57 -17 71 -66 71v51h304v-51c-51 0 -67 -14 -67 -71zM380 -143c0 -83 -73 -128 -157 -145l-27 36c54 17 74 29 74 54c0 13 -6 20 -26 28c-22 9 -39 25 -39 61c0 38 32 69 82 69
c59 0 93 -41 93 -103z" />
    <glyph glyph-name="lcommaaccent" unicode="&#x13c;" horiz-adv-x="316" 
d="M240 636v-518c0 -57 10 -70 59 -70v-48h-280v48c49 0 59 13 59 70v459c0 73 -14 83 -62 85v47l189 26h15c5 -7 20 -35 20 -99zM249 -143c0 -83 -73 -128 -157 -145l-27 36c54 17 74 29 74 54c0 13 -6 19 -26 28c-22 8 -39 25 -39 61c0 38 32 69 81 69
c60 0 94 -41 94 -103z" />
    <glyph glyph-name="Lcaron" unicode="&#x13d;" horiz-adv-x="566" 
d="M264 574v-503h82c63 0 99 29 117 126h85l-14 -197h-507v48c49 0 66 14 66 71v455c0 57 -17 71 -66 71v51h304v-51c-51 0 -67 -14 -67 -71zM523 726l-68 -174l-64 8l13 179z" />
    <glyph glyph-name="lcaron" unicode="&#x13e;" horiz-adv-x="316" 
d="M240 636v-518c0 -57 10 -70 59 -70v-48h-280v48c49 0 59 13 59 70v459c0 73 -14 83 -62 85v47l189 26h15c5 -7 20 -35 20 -99zM410 726l-69 -174l-63 8l12 179z" />
    <glyph glyph-name="Ldot" unicode="&#x13f;" horiz-adv-x="566" 
d="M264 574v-503h82c63 0 99 29 117 126h85l-14 -197h-507v48c49 0 66 14 66 71v455c0 57 -17 71 -66 71v51h304v-51c-51 0 -67 -14 -67 -71zM564 382c0 -55 -44 -98 -97 -98s-95 43 -95 98c0 51 42 94 95 94s97 -43 97 -94z" />
    <glyph glyph-name="ldot" unicode="&#x140;" horiz-adv-x="455" 
d="M240 636v-518c0 -57 10 -70 59 -70v-48h-280v48c49 0 59 13 59 70v459c0 73 -14 83 -62 85v47l189 26h15c5 -7 20 -35 20 -99zM473 358c0 -52 -42 -93 -92 -93s-91 41 -91 93c0 49 41 90 91 90s92 -41 92 -90z" />
    <glyph glyph-name="Lslash" unicode="&#x141;" horiz-adv-x="566" 
d="M264 574v-195l189 68v-61l-189 -69v-246h82c63 0 99 29 117 126h85l-14 -197h-507v48c49 0 66 14 66 71v138l-66 -24v60l66 24v257c0 57 -17 71 -66 71v51h304v-51c-51 0 -67 -14 -67 -71z" />
    <glyph glyph-name="lslash" unicode="&#x142;" horiz-adv-x="331" 
d="M16 346l71 30v201c0 73 -14 83 -62 85v47l189 26h15c4 -6 19 -34 19 -99v-189l76 33v-59l-76 -33v-270c0 -57 10 -70 60 -70v-48h-281v48c49 0 60 13 60 70v200l-71 -31v59z" />
    <glyph glyph-name="Nacute" unicode="&#x143;" horiz-adv-x="708" 
d="M538 392v182c0 57 -17 71 -66 71v51h220v-51c-50 0 -66 -14 -66 -71v-574h-122l-243 373c-46 70 -72 124 -83 144h-4c2 -22 9 -89 9 -145v-253c0 -57 17 -71 66 -71v-48h-222v48c49 0 66 14 66 71v455c0 57 -17 71 -66 71v51h247l202 -313c31 -49 54 -98 66 -127h5
c-3 22 -9 86 -9 136zM248 727l-24 39l208 172l70 -138z" />
    <glyph glyph-name="nacute" unicode="&#x144;" horiz-adv-x="635" 
d="M565 370v-252c0 -57 10 -70 58 -70v-48h-279v48c49 0 59 13 59 69v214c0 61 -24 81 -65 81s-69 -16 -92 -32v-263c0 -56 10 -69 59 -69v-48h-280v48c49 0 59 13 59 70v236c0 73 -9 83 -57 85v47l169 40h15c7 -10 28 -50 31 -91c43 50 97 90 176 90c82 0 147 -48 147 -155
zM214 556l-27 35l190 194l84 -133z" />
    <glyph glyph-name="Ncommaaccent" unicode="&#x145;" horiz-adv-x="708" 
d="M451 -143c0 -83 -73 -128 -157 -145l-27 36c54 17 74 29 74 54c0 13 -6 20 -26 28c-22 9 -39 25 -39 61c0 38 32 69 82 69c59 0 93 -41 93 -103zM538 392v182c0 57 -17 71 -66 71v51h220v-51c-50 0 -66 -14 -66 -71v-574h-122l-243 373c-46 70 -72 124 -83 144h-4
c2 -22 9 -89 9 -145v-253c0 -57 17 -71 66 -71v-48h-222v48c49 0 66 14 66 71v455c0 57 -17 71 -66 71v51h247l202 -313c31 -49 54 -98 66 -127h5c-3 22 -9 86 -9 136z" />
    <glyph glyph-name="ncommaaccent" unicode="&#x146;" horiz-adv-x="635" 
d="M416 -143c0 -83 -73 -128 -157 -145l-27 36c54 17 74 29 74 54c0 13 -6 19 -26 28c-22 8 -39 25 -39 61c0 38 32 69 81 69c60 0 94 -41 94 -103zM565 370v-252c0 -57 10 -70 58 -70v-48h-279v48c49 0 59 13 59 69v214c0 61 -24 81 -65 81s-69 -16 -92 -32v-263
c0 -56 10 -69 59 -69v-48h-280v48c49 0 59 13 59 70v236c0 73 -9 83 -57 85v47l169 40h15c7 -10 28 -50 31 -91c43 50 97 90 176 90c82 0 147 -48 147 -155z" />
    <glyph glyph-name="Ncaron" unicode="&#x147;" horiz-adv-x="708" 
d="M538 392v182c0 57 -17 71 -66 71v51h220v-51c-50 0 -66 -14 -66 -71v-574h-122l-243 373c-46 70 -72 124 -83 144h-4c2 -22 9 -89 9 -145v-253c0 -57 17 -71 66 -71v-48h-222v48c49 0 66 14 66 71v455c0 57 -17 71 -66 71v51h247l202 -313c31 -49 54 -98 66 -127h5
c-3 22 -9 86 -9 136zM358 873l155 76l25 -39l-180 -178l-179 178l25 39z" />
    <glyph glyph-name="ncaron" unicode="&#x148;" horiz-adv-x="635" 
d="M565 370v-252c0 -57 10 -70 58 -70v-48h-279v48c49 0 59 13 59 69v214c0 61 -24 81 -65 81s-69 -16 -92 -32v-263c0 -56 10 -69 59 -69v-48h-280v48c49 0 59 13 59 70v236c0 73 -9 83 -57 85v47l169 40h15c7 -10 28 -50 31 -91c43 50 97 90 176 90c82 0 147 -48 147 -155
zM323 693l155 76l25 -39l-180 -178l-179 178l25 39z" />
    <glyph glyph-name="napostrophe" unicode="&#x149;" horiz-adv-x="920" 
d="M238 590c0 -104 -62 -173 -186 -197l-32 42c72 20 107 43 107 77c0 24 -10 31 -36 42c-25 10 -51 30 -51 72c0 47 38 86 93 86c61 0 105 -52 105 -122zM850 370v-252c0 -57 10 -70 58 -70v-48h-279v48c49 0 59 13 59 69v214c0 61 -24 81 -65 81s-69 -16 -92 -32v-263
c0 -56 10 -69 59 -69v-48h-280v48c49 0 59 13 59 70v236c0 73 -9 83 -57 85v47l169 40h15c7 -10 28 -50 31 -91c43 50 97 90 176 90c82 0 147 -48 147 -155z" />
    <glyph glyph-name="Eng" unicode="&#x14a;" horiz-adv-x="708" 
d="M495 17l-234 356c-42 63 -75 128 -83 144h-4c5 -36 9 -95 9 -145v-253c0 -57 17 -71 66 -71v-48h-222v48c49 0 66 14 66 71v455c0 57 -17 71 -66 71v51h247l202 -313c31 -49 57 -105 66 -127h4c-2 17 -8 84 -8 136v182c0 57 -17 71 -66 71v51h220v-51
c-50 0 -66 -14 -66 -71v-501c0 -160 -67 -231 -223 -260l-28 43c78 35 119 84 120 161z" />
    <glyph glyph-name="eng" unicode="&#x14b;" horiz-adv-x="621" 
d="M403 17v314c0 61 -24 81 -65 81s-69 -16 -92 -32v-263c0 -56 10 -69 59 -69v-48h-280v48c49 0 59 13 59 70v236c0 73 -9 83 -57 85v47l169 40h15c6 -9 27 -48 31 -91c43 50 97 90 176 90c82 0 147 -48 147 -155v-353c0 -149 -120 -205 -213 -223l-29 45
c61 28 80 75 80 178z" />
    <glyph glyph-name="Omacron" unicode="&#x14c;" horiz-adv-x="714" 
d="M357 -12c-201 0 -317 125 -317 350c0 259 134 370 317 370c187 0 316 -116 316 -371c0 -225 -116 -349 -316 -349zM357 632c-85 0 -126 -63 -126 -285c0 -236 45 -290 126 -290c77 0 126 48 126 289c0 220 -40 286 -126 286zM513 774h-312v83h312v-83z" />
    <glyph glyph-name="omacron" unicode="&#x14d;" horiz-adv-x="589" 
d="M554 267c0 -198 -123 -280 -263 -280c-163 0 -256 98 -256 268c0 161 101 271 266 271c145 0 253 -79 253 -259zM376 273c0 142 -28 186 -82 186s-81 -43 -81 -209c0 -138 17 -198 83 -198c53 0 80 61 80 221zM448 603h-307v83h307v-83z" />
    <glyph glyph-name="Obreve" unicode="&#x14e;" horiz-adv-x="714" 
d="M357 -12c-201 0 -317 125 -317 350c0 259 134 370 317 370c187 0 316 -116 316 -371c0 -225 -116 -349 -316 -349zM357 632c-85 0 -126 -63 -126 -285c0 -236 45 -290 126 -290c77 0 126 48 126 289c0 220 -40 286 -126 286zM356 744c-103 0 -151 89 -171 168l39 23
c33 -48 71 -83 132 -83s99 35 133 83l38 -23c-19 -79 -68 -168 -171 -168z" />
    <glyph glyph-name="obreve" unicode="&#x14f;" horiz-adv-x="589" 
d="M554 267c0 -198 -123 -280 -263 -280c-163 0 -256 98 -256 268c0 161 101 271 266 271c145 0 253 -79 253 -259zM376 273c0 142 -28 186 -82 186s-81 -43 -81 -209c0 -138 17 -198 83 -198c53 0 80 61 80 221zM295 564c-102 0 -150 90 -169 169l39 22
c32 -48 70 -82 130 -82s98 34 130 82l39 -22c-19 -79 -67 -169 -169 -169z" />
    <glyph glyph-name="Ohungarumlaut" unicode="&#x150;" horiz-adv-x="714" 
d="M357 -12c-201 0 -317 125 -317 350c0 259 134 370 317 370c187 0 316 -116 316 -371c0 -225 -116 -349 -316 -349zM357 632c-85 0 -126 -63 -126 -285c0 -236 45 -290 126 -290c77 0 126 48 126 289c0 220 -40 286 -126 286zM428 935l-135 -197l-51 21l59 223zM606 901
l-156 -172l-45 26l83 217z" />
    <glyph glyph-name="ohungarumlaut" unicode="&#x151;" horiz-adv-x="589" 
d="M554 267c0 -198 -123 -280 -263 -280c-163 0 -256 98 -256 268c0 161 101 271 266 271c145 0 253 -79 253 -259zM376 273c0 142 -28 186 -82 186s-81 -43 -81 -209c0 -138 17 -198 83 -198c53 0 80 61 80 221zM369 761l-137 -201l-51 21l61 228zM548 728l-159 -177
l-45 26l85 222z" />
    <glyph glyph-name="OE" unicode="&#x152;" horiz-adv-x="993" 
d="M425 71h59v549h-63c-116 0 -197 -52 -197 -282c0 -224 81 -267 201 -267zM403 696h525l12 -173h-82c-22 76 -32 97 -106 97h-95v-233h54c62 0 78 14 82 71h72v-215h-72c-4 54 -19 71 -81 71h-55v-243h113c64 0 90 23 98 116h84v-187h-544c-220 0 -368 115 -368 344
c0 255 159 352 363 352z" />
    <glyph glyph-name="oe" unicode="&#x153;" horiz-adv-x="884" 
d="M686 80c42 0 88 10 133 33l25 -43c-56 -56 -123 -83 -216 -83c-70 0 -136 26 -167 65c-41 -43 -106 -65 -170 -65c-163 0 -256 98 -256 268c0 161 101 271 266 271c65 0 130 -25 167 -65c37 41 96 65 159 65c164 0 226 -95 226 -248v-47h-300c4 -106 39 -151 133 -151z
M376 273c0 142 -28 186 -82 186s-81 -43 -81 -209c0 -138 17 -198 83 -198c53 0 80 61 80 221zM629 460c-47 0 -68 -36 -75 -156h139c0 120 -17 156 -64 156z" />
    <glyph glyph-name="Racute" unicode="&#x154;" horiz-adv-x="674" 
d="M416 309v-4c49 -13 90 -41 111 -72c26 -38 40 -64 70 -127c18 -38 27 -56 73 -58v-48h-214c-44 107 -51 127 -90 199c-35 64 -53 79 -102 85v-165c0 -57 17 -71 66 -71v-48h-303v48c49 0 66 14 66 71v455c0 57 -17 71 -66 71v51h333c143 0 246 -57 246 -203
c0 -125 -85 -176 -190 -184zM423 492c0 94 -30 128 -102 128h-57v-258h57c72 0 102 25 102 130zM233 727l-24 39l208 172l70 -138z" />
    <glyph glyph-name="racute" unicode="&#x155;" horiz-adv-x="423" 
d="M245 395c22 90 91 131 146 131c16 0 31 -4 39 -7l-30 -163c-20 6 -34 9 -60 9c-75 0 -94 -23 -94 -96v-151c0 -57 12 -70 78 -70v-48h-299v48c49 0 59 13 59 70v236c0 73 -9 83 -57 85v47l169 40h15c7 -12 31 -62 34 -131zM137 556l-27 35l190 194l84 -133z" />
    <glyph glyph-name="Rcommaaccent" unicode="&#x156;" horiz-adv-x="674" 
d="M438 -143c0 -83 -73 -128 -157 -145l-27 36c54 17 74 29 74 54c0 13 -6 20 -26 28c-22 9 -39 25 -39 61c0 38 32 69 82 69c59 0 93 -41 93 -103zM416 309v-4c49 -13 90 -41 111 -72c26 -38 40 -64 70 -127c18 -38 27 -56 73 -58v-48h-214c-44 107 -51 127 -90 199
c-35 64 -53 79 -102 85v-165c0 -57 17 -71 66 -71v-48h-303v48c49 0 66 14 66 71v455c0 57 -17 71 -66 71v51h333c143 0 246 -57 246 -203c0 -125 -85 -176 -190 -184zM423 492c0 94 -30 128 -102 128h-57v-258h57c72 0 102 25 102 130z" />
    <glyph glyph-name="rcommaaccent" unicode="&#x157;" horiz-adv-x="423" 
d="M245 395c22 90 91 131 146 131c16 0 31 -4 39 -7l-30 -163c-20 6 -34 9 -60 9c-75 0 -94 -23 -94 -96v-151c0 -57 12 -70 78 -70v-48h-299v48c49 0 59 13 59 70v236c0 73 -9 83 -57 85v47l169 40h15c7 -12 31 -62 34 -131zM253 -143c0 -83 -73 -128 -157 -145l-27 36
c54 17 74 29 74 54c0 13 -6 19 -26 28c-22 8 -39 25 -39 61c0 38 32 69 81 69c60 0 94 -41 94 -103z" />
    <glyph glyph-name="Rcaron" unicode="&#x158;" horiz-adv-x="674" 
d="M416 309v-4c49 -13 90 -41 111 -72c26 -38 40 -64 70 -127c18 -38 27 -56 73 -58v-48h-214c-44 107 -51 127 -90 199c-35 64 -53 79 -102 85v-165c0 -57 17 -71 66 -71v-48h-303v48c49 0 66 14 66 71v455c0 57 -17 71 -66 71v51h333c143 0 246 -57 246 -203
c0 -125 -85 -176 -190 -184zM423 492c0 94 -30 128 -102 128h-57v-258h57c72 0 102 25 102 130zM315 873l155 76l25 -39l-180 -178l-179 178l25 39z" />
    <glyph glyph-name="rcaron" unicode="&#x159;" horiz-adv-x="423" 
d="M245 395c22 90 91 131 146 131c16 0 31 -4 39 -7l-30 -163c-20 6 -34 9 -60 9c-75 0 -94 -23 -94 -96v-151c0 -57 12 -70 78 -70v-48h-299v48c49 0 59 13 59 70v236c0 73 -9 83 -57 85v47l169 40h15c7 -12 31 -62 34 -131zM248 693l155 76l25 -39l-180 -178l-179 178
l25 39z" />
    <glyph glyph-name="Sacute" unicode="&#x15a;" horiz-adv-x="554" 
d="M253 -14c-118 0 -180 30 -226 57v135h112c10 -93 51 -130 121 -130c68 0 111 31 111 107c0 57 -24 89 -101 109l-72 19c-106 28 -168 81 -168 205c0 148 97 220 245 220c110 0 177 -31 210 -48v-145h-111c-8 76 -33 126 -111 126c-63 0 -91 -36 -91 -92
c0 -49 21 -83 90 -99l68 -16c115 -27 191 -94 191 -221c0 -147 -96 -227 -268 -227zM172 727l-24 39l208 172l70 -138z" />
    <glyph glyph-name="sacute" unicode="&#x15b;" horiz-adv-x="475" 
d="M222 -13c-109 0 -162 28 -191 43v111h106c8 -71 46 -89 97 -89c47 0 79 18 79 58c0 38 -22 55 -66 64l-82 17c-85 18 -133 72 -133 160c0 118 94 175 207 175c93 0 151 -24 178 -36v-110h-98c-8 58 -43 76 -93 76c-42 0 -67 -17 -67 -54c0 -31 18 -46 54 -54l76 -17
c100 -22 159 -78 159 -173c0 -110 -81 -171 -226 -171zM136 556l-27 35l190 194l84 -133z" />
    <glyph glyph-name="Scircumflex" unicode="&#x15c;" horiz-adv-x="554" 
d="M253 -14c-118 0 -180 30 -226 57v135h112c10 -93 51 -130 121 -130c68 0 111 31 111 107c0 57 -24 89 -101 109l-72 19c-106 28 -168 81 -168 205c0 148 97 220 245 220c110 0 177 -31 210 -48v-145h-111c-8 76 -33 126 -111 126c-63 0 -91 -36 -91 -92
c0 -49 21 -83 90 -99l68 -16c115 -27 191 -94 191 -221c0 -147 -96 -227 -268 -227zM437 732l-155 75l-154 -75l-25 38l179 179l180 -179z" />
    <glyph glyph-name="scircumflex" unicode="&#x15d;" horiz-adv-x="475" 
d="M222 -13c-109 0 -162 28 -191 43v111h106c8 -71 46 -89 97 -89c47 0 79 18 79 58c0 38 -22 55 -66 64l-82 17c-85 18 -133 72 -133 160c0 118 94 175 207 175c93 0 151 -24 178 -36v-110h-98c-8 58 -43 76 -93 76c-42 0 -67 -17 -67 -54c0 -31 18 -46 54 -54l76 -17
c100 -22 159 -78 159 -173c0 -110 -81 -171 -226 -171zM401 554l-155 76l-154 -76l-25 38l179 179l180 -179z" />
    <glyph glyph-name="Scedilla" unicode="&#x15e;" horiz-adv-x="554" 
d="M378 -120c0 -61 -43 -85 -123 -85c-48 0 -83 12 -102 25l16 41c22 -14 46 -19 68 -19s34 7 34 26c0 23 -22 31 -56 32l1 21l18 66c-104 3 -163 30 -207 56v135h112c10 -93 51 -130 121 -130c68 0 111 31 111 107c0 57 -24 89 -101 109l-72 19c-106 28 -168 81 -168 205
c0 148 97 220 245 220c110 0 177 -31 210 -48v-145h-111c-8 76 -33 126 -111 126c-63 0 -91 -36 -91 -92c0 -49 21 -83 90 -99l68 -16c115 -27 191 -94 191 -221c0 -137 -84 -215 -234 -225l-8 -30c65 -4 99 -30 99 -78z" />
    <glyph glyph-name="scedilla" unicode="&#x15f;" horiz-adv-x="475" 
d="M339 -120c0 -61 -42 -85 -122 -85c-49 0 -84 12 -103 25l17 41c22 -14 45 -19 67 -19s35 7 35 26c0 23 -23 31 -57 32l1 21l19 67c-92 4 -139 28 -165 42v111h106c8 -71 46 -89 97 -89c47 0 79 18 79 58c0 38 -22 55 -66 64l-82 17c-85 18 -133 72 -133 160
c0 118 94 175 207 175c93 0 151 -24 178 -36v-110h-98c-8 58 -43 76 -93 76c-42 0 -67 -17 -67 -54c0 -31 18 -46 54 -54l76 -17c100 -22 159 -78 159 -173c0 -104 -71 -162 -199 -170l-8 -30c65 -4 98 -30 98 -78z" />
    <glyph glyph-name="Scaron" unicode="&#x160;" horiz-adv-x="554" 
d="M253 -14c-118 0 -180 30 -226 57v135h112c10 -93 51 -130 121 -130c68 0 111 31 111 107c0 57 -24 89 -101 109l-72 19c-106 28 -168 81 -168 205c0 148 97 220 245 220c110 0 177 -31 210 -48v-145h-111c-8 76 -33 126 -111 126c-63 0 -91 -36 -91 -92
c0 -49 21 -83 90 -99l68 -16c115 -27 191 -94 191 -221c0 -147 -96 -227 -268 -227zM282 873l155 76l25 -39l-180 -178l-179 178l25 39z" />
    <glyph glyph-name="scaron" unicode="&#x161;" horiz-adv-x="475" 
d="M222 -13c-109 0 -162 28 -191 43v111h106c8 -71 46 -89 97 -89c47 0 79 18 79 58c0 38 -22 55 -66 64l-82 17c-85 18 -133 72 -133 160c0 118 94 175 207 175c93 0 151 -24 178 -36v-110h-98c-8 58 -43 76 -93 76c-42 0 -67 -17 -67 -54c0 -31 18 -46 54 -54l76 -17
c100 -22 159 -78 159 -173c0 -110 -81 -171 -226 -171zM246 693l155 76l25 -39l-180 -178l-179 178l25 39z" />
    <glyph glyph-name="Tcommaaccent" unicode="&#x162;" horiz-adv-x="622" 
d="M27 696h568l11 -192h-81c-21 86 -28 116 -93 116h-35v-501c0 -58 18 -71 76 -71v-48h-137l-12 -42c65 -4 99 -30 99 -78c0 -61 -43 -85 -123 -85c-48 0 -83 12 -102 25l16 41c22 -14 46 -19 68 -19s34 7 34 26c0 23 -22 31 -56 32l1 21l22 79h-134v48c59 0 76 13 76 71
v501h-35c-65 0 -71 -30 -93 -116h-82z" />
    <glyph glyph-name="tcommaaccent" unicode="&#x163;" horiz-adv-x="366" 
d="M354 513l-16 -81h-104v-261c0 -73 6 -103 56 -103c18 0 34 4 57 13l17 -56c-38 -24 -82 -37 -138 -38l-8 -29c65 -4 99 -30 99 -78c0 -61 -43 -85 -123 -85c-48 0 -83 12 -102 25l16 41c22 -14 46 -19 68 -19s34 7 34 26c0 23 -22 31 -56 32l1 21l20 70
c-67 10 -103 49 -103 142v299h-60v56l67 27c6 45 21 93 46 131l117 13c-5 -36 -9 -95 -9 -146h121z" />
    <glyph glyph-name="Tcaron" unicode="&#x164;" horiz-adv-x="622" 
d="M27 696h568l11 -192h-81c-21 86 -28 116 -93 116h-35v-501c0 -58 18 -71 76 -71v-48h-324v48c59 0 76 13 76 71v501h-35c-65 0 -71 -30 -93 -116h-82zM310 873l155 76l25 -39l-180 -178l-179 178l25 39z" />
    <glyph glyph-name="tcaron" unicode="&#x165;" horiz-adv-x="366" 
d="M354 513l-16 -81h-104v-261c0 -73 6 -103 56 -103c18 0 34 4 57 13l17 -56c-40 -25 -85 -38 -145 -38c-95 0 -147 34 -147 146v299h-60v56l67 27c6 45 21 93 46 131l117 13c-5 -36 -9 -95 -9 -146h121zM411 726l-69 -174l-63 8l12 179z" />
    <glyph glyph-name="Tbar" unicode="&#x166;" horiz-adv-x="622" 
d="M27 696h568l11 -192h-81c-21 86 -28 116 -93 116h-35v-228h117v-81h-117v-192c0 -58 18 -71 76 -71v-48h-324v48c59 0 76 13 76 71v192h-110v81h110v228h-35c-65 0 -71 -30 -93 -116h-82z" />
    <glyph glyph-name="tbar" unicode="&#x167;" horiz-adv-x="367" 
d="M354 513l-16 -81h-104v-85h110v-76h-110v-100c0 -73 6 -103 56 -103c18 0 34 4 57 13l17 -56c-40 -25 -85 -38 -145 -38c-95 0 -147 34 -147 146v138h-60v76h60v85h-60v56l67 27c6 45 21 93 46 131l117 13c-5 -36 -9 -95 -9 -146h121z" />
    <glyph glyph-name="Utilde" unicode="&#x168;" horiz-adv-x="692" 
d="M519 228v346c0 57 -17 71 -67 71v51h218v-51c-49 0 -65 -14 -65 -71v-348c0 -148 -73 -239 -258 -239c-180 0 -260 68 -260 235v352c0 57 -16 71 -65 71v51h303v-51c-50 0 -66 -14 -66 -71v-354c0 -110 41 -146 125 -146c82 0 135 37 135 154zM449 866c30 0 57 10 75 46
l38 -16c-18 -76 -61 -137 -118 -137c-59 0 -95 34 -139 34c-32 0 -54 -13 -73 -49l-35 15c10 76 54 143 113 143s89 -36 139 -36z" />
    <glyph glyph-name="utilde" unicode="&#x169;" horiz-adv-x="614" 
d="M538 520v-368c0 -73 10 -81 59 -85v-44l-169 -36h-15c-6 9 -24 35 -28 79c-38 -48 -92 -79 -169 -79c-87 0 -143 43 -143 144v223c0 73 -10 83 -57 85v47l194 34h25v-350c0 -52 16 -81 62 -81c28 0 51 9 79 31v234c0 73 -10 83 -57 85v47l194 34h25zM375 690
c30 0 57 10 75 46l37 -17c-17 -75 -60 -137 -117 -137s-94 32 -137 32c-31 0 -53 -13 -71 -49l-36 16c10 76 54 143 113 143c57 0 88 -34 136 -34z" />
    <glyph glyph-name="Umacron" unicode="&#x16a;" horiz-adv-x="692" 
d="M519 228v346c0 57 -17 71 -67 71v51h218v-51c-49 0 -65 -14 -65 -71v-348c0 -148 -73 -239 -258 -239c-180 0 -260 68 -260 235v352c0 57 -16 71 -65 71v51h303v-51c-50 0 -66 -14 -66 -71v-354c0 -110 41 -146 125 -146c82 0 135 37 135 154zM536 774h-312v83h312v-83z
" />
    <glyph glyph-name="umacron" unicode="&#x16b;" horiz-adv-x="614" 
d="M538 520v-368c0 -73 10 -81 59 -85v-44l-169 -36h-15c-6 9 -24 35 -28 79c-38 -48 -92 -79 -169 -79c-87 0 -143 43 -143 144v223c0 73 -10 83 -57 85v47l194 34h25v-350c0 -52 16 -81 62 -81c28 0 51 9 79 31v234c0 73 -10 83 -57 85v47l194 34h25zM459 603h-307v83h307
v-83z" />
    <glyph glyph-name="Ubreve" unicode="&#x16c;" horiz-adv-x="692" 
d="M519 228v346c0 57 -17 71 -67 71v51h218v-51c-49 0 -65 -14 -65 -71v-348c0 -148 -73 -239 -258 -239c-180 0 -260 68 -260 235v352c0 57 -16 71 -65 71v51h303v-51c-50 0 -66 -14 -66 -71v-354c0 -110 41 -146 125 -146c82 0 135 37 135 154zM379 744
c-103 0 -151 89 -171 168l39 23c33 -48 71 -83 132 -83s99 35 133 83l38 -23c-19 -79 -68 -168 -171 -168z" />
    <glyph glyph-name="ubreve" unicode="&#x16d;" horiz-adv-x="614" 
d="M538 520v-368c0 -73 10 -81 59 -85v-44l-169 -36h-15c-6 9 -24 35 -28 79c-38 -48 -92 -79 -169 -79c-87 0 -143 43 -143 144v223c0 73 -10 83 -57 85v47l194 34h25v-350c0 -52 16 -81 62 -81c28 0 51 9 79 31v234c0 73 -10 83 -57 85v47l194 34h25zM305 564
c-102 0 -150 90 -169 169l39 22c32 -48 70 -82 130 -82s98 34 130 82l39 -22c-19 -79 -67 -169 -169 -169z" />
    <glyph glyph-name="Uring" unicode="&#x16e;" horiz-adv-x="692" 
d="M519 228v346c0 57 -17 71 -67 71v51h218v-51c-49 0 -65 -14 -65 -71v-348c0 -148 -73 -239 -258 -239c-180 0 -260 68 -260 235v352c0 57 -16 71 -65 71v51h303v-51c-50 0 -66 -14 -66 -71v-354c0 -110 41 -146 125 -146c82 0 135 37 135 154zM379 723
c-72 0 -121 51 -121 119s49 119 121 119s122 -51 122 -119s-50 -119 -122 -119zM379 903c-34 0 -55 -26 -55 -61c0 -32 21 -57 55 -57s55 25 55 57c0 35 -21 61 -55 61z" />
    <glyph glyph-name="uring" unicode="&#x16f;" horiz-adv-x="614" 
d="M538 520v-368c0 -73 10 -81 59 -85v-44l-169 -36h-15c-6 9 -24 35 -28 79c-38 -48 -92 -79 -169 -79c-87 0 -143 43 -143 144v223c0 73 -10 83 -57 85v47l194 34h25v-350c0 -52 16 -81 62 -81c28 0 51 9 79 31v234c0 73 -10 83 -57 85v47l194 34h25zM306 563
c-71 0 -121 51 -121 119s50 119 121 119c72 0 122 -51 122 -119s-50 -119 -122 -119zM306 743c-34 0 -54 -27 -54 -61c0 -32 20 -58 54 -58s55 26 55 58c0 34 -21 61 -55 61z" />
    <glyph glyph-name="Uhungarumlaut" unicode="&#x170;" horiz-adv-x="692" 
d="M519 228v346c0 57 -17 71 -67 71v51h218v-51c-49 0 -65 -14 -65 -71v-348c0 -148 -73 -239 -258 -239c-180 0 -260 68 -260 235v352c0 57 -16 71 -65 71v51h303v-51c-50 0 -66 -14 -66 -71v-354c0 -110 41 -146 125 -146c82 0 135 37 135 154zM451 935l-135 -197l-51 21
l59 223zM629 901l-156 -172l-45 26l83 217z" />
    <glyph glyph-name="uhungarumlaut" unicode="&#x171;" horiz-adv-x="614" 
d="M538 520v-368c0 -73 10 -81 59 -85v-44l-169 -36h-15c-6 9 -24 35 -28 79c-38 -48 -92 -79 -169 -79c-87 0 -143 43 -143 144v223c0 73 -10 83 -57 85v47l194 34h25v-350c0 -52 16 -81 62 -81c28 0 51 9 79 31v234c0 73 -10 83 -57 85v47l194 34h25zM380 761l-137 -201
l-51 21l61 228zM559 728l-159 -177l-45 26l85 222z" />
    <glyph glyph-name="Uogonek" unicode="&#x172;" horiz-adv-x="692" 
d="M509 -128l16 -30c-32 -34 -77 -47 -125 -47c-63 0 -121 24 -121 91c0 48 30 75 90 102c-9 -1 -16 -1 -22 -1c-180 0 -260 68 -260 235v352c0 57 -16 71 -65 71v51h303v-51c-50 0 -66 -14 -66 -71v-354c0 -110 41 -146 125 -146c82 0 135 37 135 154v346
c0 57 -17 71 -67 71v51h218v-51c-49 0 -65 -14 -65 -71v-348c0 -95 -27 -161 -92 -200s-103 -68 -103 -121c0 -36 22 -49 45 -49c18 0 34 5 54 16z" />
    <glyph glyph-name="uogonek" unicode="&#x173;" horiz-adv-x="614" 
d="M550 -128l16 -30c-33 -34 -78 -47 -126 -47c-63 0 -121 24 -121 91c0 47 33 74 92 104c-7 10 -23 37 -26 76c-38 -48 -92 -79 -169 -79c-87 0 -143 43 -143 144v223c0 73 -10 83 -57 85v47l194 34h25v-350c0 -52 16 -81 62 -81c28 0 51 9 79 31v234c0 73 -10 83 -57 85
v47l194 34h25v-368c0 -73 10 -81 59 -85v-44l-35 -7c-76 -15 -112 -65 -112 -111c0 -36 22 -49 46 -49c18 0 33 5 54 16z" />
    <glyph glyph-name="Wcircumflex" unicode="&#x174;" horiz-adv-x="968" 
d="M586 0l-78 302c-15 58 -24 134 -26 155h-5c-3 -20 -10 -85 -28 -156l-75 -301h-160l-134 582c-12 50 -27 60 -63 65v49h292v-49c-38 -1 -55 -14 -55 -40c0 -4 0 -9 1 -15l58 -288c13 -65 17 -140 18 -159h5c2 16 8 78 28 159l94 392h112l100 -390c20 -80 30 -137 33 -160
h6c1 19 5 80 21 159l57 283c2 8 3 14 3 20c0 30 -23 38 -59 39v49h220v-49c-39 -5 -58 -14 -69 -63l-136 -584h-160zM666 732l-155 75l-154 -75l-25 38l179 179l180 -179z" />
    <glyph glyph-name="wcircumflex" unicode="&#x175;" horiz-adv-x="829" 
d="M387 229l-66 -234h-136l-121 401c-17 55 -28 63 -64 68v49h279v-49c-39 0 -55 -14 -55 -37c0 -6 1 -13 3 -21l46 -182c9 -36 14 -73 15 -82h6c0 7 4 45 13 82l73 289h119l92 -290c10 -33 16 -70 17 -81h6c1 7 6 51 12 76l43 189c1 6 2 13 2 22c0 26 -17 35 -56 35v49h214
v-49c-42 -5 -57 -15 -70 -63l-112 -406h-135l-80 233c-13 38 -19 94 -19 102h-6c-1 -14 -9 -62 -20 -101zM594 554l-155 76l-154 -76l-25 38l179 179l180 -179z" />
    <glyph glyph-name="Ycircumflex" unicode="&#x176;" horiz-adv-x="669" 
d="M375 363h6l95 222c3 7 9 23 9 32c0 20 -15 30 -49 30v49h216v-49c-40 -5 -54 -15 -77 -63l-154 -320v-145c0 -57 17 -71 76 -71v-48h-323v48c59 0 75 14 75 71v143l-161 324c-23 46 -38 56 -72 61v49h296v-49c-32 0 -47 -13 -47 -33c0 -8 3 -18 8 -29zM507 732l-155 75
l-154 -75l-25 38l179 179l180 -179z" />
    <glyph glyph-name="ycircumflex" unicode="&#x177;" horiz-adv-x="563" 
d="M115 -206l-56 103c90 15 167 39 203 112l-63 -5c-13 52 -25 90 -60 187l-77 211c-17 46 -26 57 -62 62v49h283v-49c-45 -2 -59 -9 -59 -26c0 -6 2 -13 5 -23l69 -215c11 -36 14 -67 16 -75h6c0 8 9 42 19 73l66 217c3 9 4 16 4 22c0 21 -16 25 -61 27v49h215v-49
c-40 -5 -52 -13 -69 -60l-147 -397c-43 -117 -108 -196 -232 -213zM462 554l-155 76l-154 -76l-25 38l179 179l180 -179z" />
    <glyph glyph-name="Ydieresis" unicode="&#x178;" horiz-adv-x="669" 
d="M375 363h6l95 222c3 7 9 23 9 32c0 20 -15 30 -49 30v49h216v-49c-40 -5 -54 -15 -77 -63l-154 -320v-145c0 -57 17 -71 76 -71v-48h-323v48c59 0 75 14 75 71v143l-161 324c-23 46 -38 56 -72 61v49h296v-49c-32 0 -47 -13 -47 -33c0 -8 3 -18 8 -29zM327 824
c0 -47 -39 -85 -87 -85c-49 0 -87 38 -87 85c0 48 39 86 88 86s86 -38 86 -86zM553 824c0 -47 -38 -85 -87 -85c-48 0 -87 38 -87 85c0 48 40 86 88 86c49 0 86 -38 86 -86z" />
    <glyph glyph-name="Zacute" unicode="&#x179;" horiz-adv-x="578" 
d="M543 640l-325 -569h122c77 0 102 33 122 123h82l-11 -194h-506v56l328 571h-111c-67 0 -87 -35 -107 -113h-85l8 182h483v-56zM198 727l-24 39l208 172l70 -138z" />
    <glyph glyph-name="zacute" unicode="&#x17a;" horiz-adv-x="509" 
d="M488 153l-18 -153h-428v63l253 384h-81c-68 0 -83 -16 -94 -91h-64v157h427v-59l-259 -389h73c82 0 100 4 129 88h62zM171 556l-27 35l190 194l84 -133z" />
    <glyph glyph-name="Zdotaccent" unicode="&#x17b;" horiz-adv-x="578" 
d="M543 640l-325 -569h122c77 0 102 33 122 123h82l-11 -194h-506v56l328 571h-111c-67 0 -87 -35 -107 -113h-85l8 182h483v-56zM399 832c0 -49 -41 -89 -92 -89c-49 0 -90 40 -90 89c0 50 42 90 92 90c51 0 90 -40 90 -90z" />
    <glyph glyph-name="zdotaccent" unicode="&#x17c;" horiz-adv-x="509" 
d="M488 153l-18 -153h-428v63l253 384h-81c-68 0 -83 -16 -94 -91h-64v157h427v-59l-259 -389h73c82 0 100 4 129 88h62zM363 654c0 -49 -41 -89 -92 -89c-49 0 -90 40 -90 89c0 50 42 90 92 90c51 0 90 -40 90 -90z" />
    <glyph glyph-name="Zcaron" unicode="&#x17d;" horiz-adv-x="578" 
d="M543 640l-325 -569h122c77 0 102 33 122 123h82l-11 -194h-506v56l328 571h-111c-67 0 -87 -35 -107 -113h-85l8 182h483v-56zM308 873l155 76l25 -39l-180 -178l-179 178l25 39z" />
    <glyph glyph-name="zcaron" unicode="&#x17e;" horiz-adv-x="509" 
d="M488 153l-18 -153h-428v63l253 384h-81c-68 0 -83 -16 -94 -91h-64v157h427v-59l-259 -389h73c82 0 100 4 129 88h62zM273 693l155 76l25 -39l-180 -178l-179 178l25 39z" />
    <glyph glyph-name="longs" unicode="&#x17f;" horiz-adv-x="358" 
d="M249 608v-490c0 -57 12 -70 78 -70v-48h-299v48c48 0 59 13 59 70v314h-61v56l61 25v68c0 110 76 163 195 163c42 0 109 -8 142 -23v-111h-92c-1 48 -15 62 -40 62c-31 0 -43 -22 -43 -64z" />
    <glyph glyph-name="uni018F" unicode="&#x18f;" horiz-adv-x="685" 
d="M277 590c-72 0 -135 -27 -188 -64l-37 51c56 68 146 131 282 131c191 0 310 -132 310 -362c0 -238 -127 -359 -313 -359c-196 0 -294 99 -294 285c0 35 3 73 13 109h398c-4 143 -50 209 -171 209zM331 57c78 0 118 73 118 246h-221c-2 -21 -3 -42 -3 -61
c0 -112 37 -185 106 -185z" />
    <glyph glyph-name="florin" unicode="&#x192;" horiz-adv-x="362" 
d="M33 364l5 60l73 13l10 98c12 119 101 173 224 173c63 0 111 -12 146 -31l-8 -109h-93c-1 54 -6 75 -40 75c-31 0 -57 -19 -62 -88l-9 -121h116v-70h-122l-29 -387c-9 -123 -98 -169 -255 -169l-6 41c62 13 90 39 95 118l27 397h-72z" />
    <glyph glyph-name="uni01B5" unicode="&#x1b5;" horiz-adv-x="578" 
d="M543 639l-138 -237h107v-76h-151l-147 -255h126c77 0 102 33 122 123h82l-11 -194h-506v56l156 270h-107v76h152l131 224h-115c-67 0 -87 -35 -107 -113h-85l8 182h483v-56z" />
    <glyph glyph-name="uni01B6" unicode="&#x1b6;" horiz-adv-x="509" 
d="M69 242v44h121l108 161h-84c-68 0 -83 -16 -94 -91h-64v157h427v-59l-114 -168h81v-44h-110l-119 -177h76c82 0 100 4 129 88h62l-18 -153h-428v63l119 179h-92z" />
    <glyph glyph-name="Aringacute" unicode="&#x1fa;" horiz-adv-x="674" 
d="M429 99l-25 81h-211l-22 -81c-3 -10 -4 -17 -4 -22c0 -24 19 -26 62 -28v-49h-223v49c42 5 56 13 72 62l189 585h135l203 -585c15 -44 25 -57 63 -62v-49h-293v49c45 2 59 9 59 27c0 6 -2 14 -5 23zM266 432l-50 -172h161l-56 174c-16 49 -21 77 -24 95h-6
c-3 -15 -9 -43 -25 -97zM336 718c-71 0 -121 51 -121 119s50 119 121 119c72 0 122 -51 122 -119s-50 -119 -122 -119zM336 898c-34 0 -54 -27 -54 -61c0 -32 20 -58 54 -58s55 26 55 58c0 34 -21 61 -55 61zM222 957l-24 39l208 172l70 -138z" />
    <glyph glyph-name="aringacute" unicode="&#x1fb;" horiz-adv-x="547" 
d="M474 154c0 -75 12 -87 62 -88v-45c-22 -14 -62 -27 -110 -27c-60 0 -97 27 -106 69c-16 -37 -59 -76 -139 -76c-88 0 -159 43 -159 148c0 118 85 169 242 169c12 0 39 -1 52 -2v46c0 75 -19 107 -68 107c-51 0 -65 -37 -72 -92h-120v106c55 32 138 57 222 57
c116 0 200 -51 200 -168c0 -30 -4 -113 -4 -204zM314 244h-35c-58 0 -91 -29 -91 -87c0 -53 21 -70 54 -70c21 0 52 10 69 30zM272 553c-71 0 -121 51 -121 119s50 119 121 119c72 0 122 -51 122 -119s-50 -119 -122 -119zM272 733c-34 0 -54 -27 -54 -61
c0 -32 20 -58 54 -58s55 26 55 58c0 34 -21 61 -55 61zM162 797l-24 39l208 172l70 -138z" />
    <glyph glyph-name="AEacute" unicode="&#x1fc;" horiz-adv-x="940" 
d="M94 109l231 466c7 14 11 26 11 36c0 24 -21 34 -56 34v51h594l12 -173h-82c-22 76 -32 97 -105 97h-95v-233h54c62 0 78 14 82 71h72v-215h-72c-4 54 -19 71 -81 71h-55v-243h113c64 0 90 23 98 116h83v-187h-525v48c50 0 67 14 67 71v102h-192l-62 -123
c-6 -10 -8 -18 -8 -24c0 -18 20 -23 60 -25v-49h-232v49c41 5 65 14 88 60zM444 620l-155 -320h151v124c0 85 6 166 10 196h-6zM508 727l-24 39l208 172l70 -138z" />
    <glyph glyph-name="aeacute" unicode="&#x1fd;" horiz-adv-x="822" 
d="M421 477c37 29 89 49 146 49c163 0 225 -95 225 -248v-43h-300c4 -106 39 -155 132 -155c43 0 89 10 133 33l26 -43c-56 -56 -123 -83 -216 -83c-88 0 -155 27 -198 81c-25 -38 -85 -81 -183 -81c-93 0 -164 43 -164 148c0 118 86 167 243 167h53v47
c0 74 -22 106 -70 106c-51 0 -65 -37 -72 -92h-120v106c55 32 138 57 212 57c67 0 123 -19 153 -49zM567 460c-46 0 -67 -36 -74 -156h139c0 120 -17 156 -65 156zM255 88c33 0 64 12 85 28c-14 34 -22 73 -23 119h-28c-68 0 -101 -20 -101 -78c0 -45 23 -69 67 -69z
M355 556l-27 35l190 194l84 -133z" />
    <glyph glyph-name="Oslashacute" unicode="&#x1fe;" horiz-adv-x="714" 
d="M620 724l-54 -87c68 -60 107 -159 107 -300c0 -225 -116 -349 -316 -349c-66 0 -122 13 -168 39l-52 -84l-49 28l55 88c-67 59 -103 154 -103 279c0 259 134 370 317 370c60 0 115 -12 161 -37l52 82zM486 346c0 58 -4 106 -11 144l-220 -357c22 -60 57 -76 102 -76
c77 0 129 48 129 289zM357 632c-85 0 -130 -63 -130 -285c0 -54 4 -99 9 -135l218 354c-21 49 -54 66 -97 66zM246 727l-24 39l208 172l70 -138z" />
    <glyph glyph-name="oslashacute" unicode="&#x1ff;" horiz-adv-x="589" 
d="M184 556l-27 35l190 194l84 -133zM508 541l-41 -65c54 -41 87 -110 87 -209c0 -198 -123 -280 -263 -280c-45 0 -85 8 -119 22l-44 -70l-45 27l44 69c-60 44 -92 120 -92 220c0 161 101 271 266 271c44 0 85 -8 121 -24l41 65zM205 250c0 -33 1 -60 5 -83l153 243
c-15 35 -38 49 -69 49c-56 0 -89 -43 -89 -209zM384 273c0 24 -2 46 -5 65l-152 -242c14 -30 36 -44 69 -44c56 0 88 61 88 221z" />
    <glyph glyph-name="Scommaaccent" unicode="&#x218;" horiz-adv-x="554" 
d="M373 -143c0 -83 -73 -128 -157 -145l-27 36c54 17 74 29 74 54c0 13 -6 20 -26 28c-22 9 -39 25 -39 61c0 38 32 69 82 69c59 0 93 -41 93 -103zM253 -14c-118 0 -180 30 -226 57v135h112c10 -93 51 -130 121 -130c68 0 111 31 111 107c0 57 -24 89 -101 109l-72 19
c-106 28 -168 81 -168 205c0 148 97 220 245 220c110 0 177 -31 210 -48v-145h-111c-8 76 -33 126 -111 126c-63 0 -91 -36 -91 -92c0 -49 21 -83 90 -99l68 -16c115 -27 191 -94 191 -221c0 -147 -96 -227 -268 -227z" />
    <glyph glyph-name="scommaaccent" unicode="&#x219;" horiz-adv-x="475" 
d="M222 -13c-109 0 -162 28 -191 43v111h106c8 -71 46 -89 97 -89c47 0 79 18 79 58c0 38 -22 55 -66 64l-82 17c-85 18 -133 72 -133 160c0 118 94 175 207 175c93 0 151 -24 178 -36v-110h-98c-8 58 -43 76 -93 76c-42 0 -67 -17 -67 -54c0 -31 18 -46 54 -54l76 -17
c100 -22 159 -78 159 -173c0 -110 -81 -171 -226 -171zM338 -143c0 -83 -73 -128 -157 -145l-27 36c54 17 74 29 74 54c0 13 -6 19 -26 28c-22 8 -39 25 -39 61c0 38 32 69 81 69c60 0 94 -41 94 -103z" />
    <glyph glyph-name="uni021A" unicode="&#x21a;" horiz-adv-x="622" 
d="M403 -143c0 -83 -73 -128 -157 -145l-27 36c54 17 74 29 74 54c0 13 -6 20 -26 28c-22 9 -39 25 -39 61c0 38 32 69 82 69c59 0 93 -41 93 -103zM27 696h568l11 -192h-81c-21 86 -28 116 -93 116h-35v-501c0 -58 18 -71 76 -71v-48h-324v48c59 0 76 13 76 71v501h-35
c-65 0 -71 -30 -93 -116h-82z" />
    <glyph glyph-name="uni021B" unicode="&#x21b;" horiz-adv-x="366" 
d="M354 513l-16 -81h-104v-261c0 -73 6 -103 56 -103c18 0 34 4 57 13l17 -56c-40 -25 -85 -38 -145 -38c-95 0 -147 34 -147 146v299h-60v56l67 27c6 45 21 93 46 131l117 13c-5 -36 -9 -95 -9 -146h121zM281 -143c0 -83 -73 -128 -157 -145l-27 36c54 17 74 29 74 54
c0 13 -6 19 -26 28c-22 8 -39 25 -39 61c0 38 32 69 81 69c60 0 94 -41 94 -103z" />
    <glyph glyph-name="uni0237" unicode="&#x237;" horiz-adv-x="314" 
d="M83 17v337c0 73 -10 83 -58 85v47l196 34h23v-503c0 -149 -119 -205 -212 -223l-29 45c61 28 80 75 80 178z" />
    <glyph glyph-name="uni0259" unicode="&#x259;" horiz-adv-x="540" 
d="M198 433c-42 0 -89 -11 -133 -33l-26 43c55 56 122 83 217 83c158 0 249 -99 249 -270c0 -170 -99 -269 -249 -269c-163 0 -226 93 -226 245c0 2 0 48 1 50h299c-3 105 -39 151 -132 151zM255 53c46 0 67 36 74 157h-139v-8c1 -114 19 -149 65 -149z" />
    <glyph glyph-name="uni02BB" unicode="&#x2bb;" horiz-adv-x="285" 
d="M47 515c0 104 62 173 186 197l32 -42c-71 -21 -107 -43 -107 -78c0 -23 10 -31 37 -42c24 -10 51 -29 51 -72c0 -46 -39 -85 -93 -85c-62 0 -106 51 -106 122z" />
    <glyph glyph-name="afii57929" unicode="&#x2bc;" horiz-adv-x="285" 
d="M238 590c0 -104 -62 -173 -186 -197l-32 42c72 20 107 43 107 77c0 24 -10 31 -36 42c-25 10 -51 30 -51 72c0 47 38 86 93 86c61 0 105 -52 105 -122z" />
    <glyph glyph-name="circumflex" unicode="&#x2c6;" horiz-adv-x="519" 
d="M414 554l-155 76l-154 -76l-25 38l179 179l180 -179z" />
    <glyph glyph-name="caron" unicode="&#x2c7;" horiz-adv-x="519" 
d="M259 693l155 76l25 -39l-180 -178l-179 178l25 39z" />
    <glyph glyph-name="breve" unicode="&#x2d8;" horiz-adv-x="498" 
d="M249 564c-102 0 -150 90 -169 169l39 22c32 -48 70 -82 130 -82s98 34 130 82l39 -22c-19 -79 -67 -169 -169 -169z" />
    <glyph glyph-name="dotaccent" unicode="&#x2d9;" horiz-adv-x="342" 
d="M262 654c0 -49 -41 -89 -92 -89c-49 0 -90 40 -90 89c0 50 42 90 92 90c51 0 90 -40 90 -90z" />
    <glyph glyph-name="ring" unicode="&#x2da;" horiz-adv-x="403" 
d="M201 563c-71 0 -121 51 -121 119s50 119 121 119c72 0 122 -51 122 -119s-50 -119 -122 -119zM201 743c-34 0 -54 -27 -54 -61c0 -32 20 -58 54 -58s55 26 55 58c0 34 -21 61 -55 61z" />
    <glyph glyph-name="ogonek" unicode="&#x2db;" horiz-adv-x="288" 
d="M240 -128l16 -30c-33 -34 -78 -47 -126 -47c-63 0 -121 24 -121 91c0 68 58 98 185 147l22 -20c-51 -36 -76 -74 -76 -108c0 -36 22 -49 46 -49c18 0 33 5 54 16z" />
    <glyph glyph-name="tilde" unicode="&#x2dc;" horiz-adv-x="521" 
d="M329 690c30 0 57 10 75 46l37 -17c-17 -75 -60 -137 -117 -137s-94 32 -137 32c-31 0 -53 -13 -71 -49l-36 16c10 76 54 143 113 143c57 0 88 -34 136 -34z" />
    <glyph glyph-name="hungarumlaut" unicode="&#x2dd;" horiz-adv-x="527" 
d="M268 761l-137 -201l-51 21l61 228zM447 728l-159 -177l-45 26l85 222z" />
    <glyph glyph-name="gravecomb" unicode="&#x300;" 
d="M-180 591l-27 -35l-247 96l83 133z" />
    <glyph glyph-name="acutecomb" unicode="&#x301;" 
d="M-403 556l-27 35l190 194l83 -133z" />
    <glyph glyph-name="uni0302" unicode="&#x302;" 
d="M-140 554l-154 76l-154 -76l-25 38l179 179l179 -179z" />
    <glyph glyph-name="tildecomb" unicode="&#x303;" 
d="M-224 690c30 0 56 10 74 46l38 -17c-18 -75 -60 -137 -117 -137c-58 0 -94 32 -137 32c-31 0 -53 -13 -72 -49l-35 16c10 76 54 143 112 143c57 0 88 -34 137 -34z" />
    <glyph glyph-name="uni0304" unicode="&#x304;" 
d="M-79 609h-307v83h307v-83z" />
    <glyph glyph-name="uni0306" unicode="&#x306;" 
d="M-248 552c-102 0 -150 89 -169 168l38 22c32 -48 70 -82 131 -82c60 0 98 34 130 82l39 -22c-19 -79 -67 -168 -169 -168z" />
    <glyph glyph-name="uni0307" unicode="&#x307;" 
d="M-66 651c0 -52 -42 -93 -96 -93c-51 0 -94 41 -94 93c0 51 43 93 97 93c52 0 93 -42 93 -93z" />
    <glyph glyph-name="uni0308" unicode="&#x308;" 
d="M-305 648c0 -47 -39 -85 -88 -85c-48 0 -87 38 -87 85c0 48 40 87 89 87c48 0 86 -39 86 -87zM-79 648c0 -47 -39 -85 -88 -85c-47 0 -86 38 -86 85c0 48 39 87 88 87s86 -39 86 -87z" />
    <glyph glyph-name="uni030A" unicode="&#x30a;" 
d="M-201 563c-71 0 -121 51 -121 119s50 119 121 119c72 0 122 -51 122 -119s-50 -119 -122 -119zM-201 743c-33 0 -54 -27 -54 -61c0 -32 21 -58 54 -58c35 0 55 26 55 58c0 34 -20 61 -55 61z" />
    <glyph glyph-name="uni030B" unicode="&#x30b;" 
d="M-258 766l-137 -201l-51 21l61 227zM-79 733l-159 -177l-45 26l85 222z" />
    <glyph glyph-name="uni030C" unicode="&#x30c;" 
d="M-233 693l154 76l25 -39l-179 -178l-180 178l25 39z" />
    <glyph glyph-name="uni0312" unicode="&#x312;" 
d="M-257 673c0 84 73 129 157 146l27 -37c-54 -17 -74 -28 -74 -53c0 -13 6 -19 26 -28c21 -9 39 -25 39 -61c0 -39 -32 -69 -81 -69c-60 0 -94 41 -94 102z" />
    <glyph glyph-name="uni0313" unicode="&#x313;" 
d="M-82 726l-69 -174l-63 8l12 179z" />
    <glyph glyph-name="dotbelowcomb" unicode="&#x323;" 
d="M254 -137c0 -51 -42 -93 -95 -93c-51 0 -94 42 -94 93s43 94 96 94s93 -43 93 -94z" />
    <glyph glyph-name="uni0326" unicode="&#x326;" 
d="M263 -143c0 -83 -73 -128 -157 -145l-27 36c54 17 74 29 74 54c0 13 -6 19 -26 28c-22 8 -39 25 -39 61c0 38 32 69 81 69c60 0 94 -41 94 -103z" />
    <glyph glyph-name="uni0327" unicode="&#x327;" 
d="M-26 -120c0 -61 -42 -85 -122 -85c-48 0 -83 12 -102 25l16 41c22 -14 46 -19 68 -19s34 7 34 26c0 23 -23 31 -57 32l1 21l29 97l50 -6l-15 -54c65 -4 98 -30 98 -78z" />
    <glyph glyph-name="uni0328" unicode="&#x328;" 
d="M-47 -128l16 -30c-33 -34 -78 -47 -126 -47c-63 0 -121 24 -121 90c0 69 58 99 185 148l22 -20c-51 -36 -76 -74 -76 -108c0 -36 22 -49 46 -49c18 0 33 5 54 16z" />
    <glyph glyph-name="uni0335" unicode="&#x335;" 
d="M-79 215h-307v83h307v-83z" />
    <glyph glyph-name="uni0336" unicode="&#x336;" 
d="M-45 204h-713v105h713v-105z" />
    <glyph glyph-name="uni037E" unicode="&#x37e;" horiz-adv-x="311" 
d="M255 48c0 -105 -63 -174 -187 -198l-32 43c72 20 108 43 108 77c0 25 -11 32 -37 43c-24 10 -51 29 -51 71c0 47 38 86 93 86c62 0 106 -52 106 -122zM247 372c0 -55 -44 -99 -98 -99s-98 44 -98 99c0 53 44 97 98 97s98 -44 98 -97z" />
    <glyph glyph-name="tonos" unicode="&#x384;" horiz-adv-x="392" 
d="M203 555l-94 4l58 211l140 -29z" />
    <glyph glyph-name="dieresistonos" unicode="&#x385;" horiz-adv-x="490" 
d="M167 634c0 -43 -35 -78 -80 -78c-43 0 -78 35 -78 78s36 78 80 78c45 0 78 -35 78 -78zM480 634c0 -43 -35 -78 -78 -78c-44 0 -80 35 -80 78s36 78 80 78c45 0 78 -35 78 -78zM267 562l-85 4l29 222l130 -38z" />
    <glyph glyph-name="Alphatonos" unicode="&#x386;" horiz-adv-x="674" 
d="M429 99l-25 81h-211l-22 -81c-3 -10 -4 -17 -4 -22c0 -24 19 -26 62 -28v-49h-223v49c42 5 56 13 72 62l189 585h135l203 -585c15 -44 25 -57 63 -62v-49h-293v49c45 2 59 9 59 27c0 6 -2 14 -5 23zM266 432l-50 -172h161l-56 174c-16 49 -21 77 -24 95h-6
c-3 -15 -9 -43 -25 -97zM122 499l-94 4l55 211l140 -30z" />
    <glyph glyph-name="anoteleia" unicode="&#x387;" horiz-adv-x="303" 
d="M250 283c0 -56 -45 -100 -99 -100s-98 44 -98 100c0 53 44 97 98 97s99 -44 99 -97z" />
    <glyph glyph-name="Epsilontonos" unicode="&#x388;" horiz-adv-x="600" 
d="M27 0v48c49 0 66 14 66 71v455c0 57 -17 71 -66 71v51h508l11 -173h-81c-22 76 -33 97 -106 97h-95v-233h54c62 0 78 14 82 71h72v-215h-72c-4 54 -19 71 -81 71h-55v-243h113c64 0 90 23 98 116h83v-187h-531zM-101 499l-94 4l55 211l140 -30z" />
    <glyph glyph-name="Etatonos" unicode="&#x389;" horiz-adv-x="755" 
d="M491 119v195h-227v-195c0 -57 16 -71 66 -71v-48h-303v48c49 0 66 14 66 71v455c0 57 -17 71 -66 71v51h303v-51c-50 0 -66 -14 -66 -71v-179h227v179c0 57 -17 71 -66 71v51h303v-51c-49 0 -66 -14 -66 -71v-455c0 -57 17 -71 66 -71v-48h-303v48c49 0 66 14 66 71z
M-102 499l-94 4l55 211l140 -30z" />
    <glyph glyph-name="Iotatonos" unicode="&#x38a;" horiz-adv-x="357" 
d="M93 119v455c0 57 -17 71 -66 71v51h303v-51c-50 0 -66 -14 -66 -71v-455c0 -57 16 -71 66 -71v-48h-303v48c49 0 66 14 66 71zM-103 499l-94 4l55 211l140 -30z" />
    <glyph glyph-name="Omicrontonos" unicode="&#x38c;" horiz-adv-x="714" 
d="M357 -12c-201 0 -317 125 -317 350c0 259 134 370 317 370c187 0 316 -116 316 -371c0 -225 -116 -349 -316 -349zM357 632c-85 0 -126 -63 -126 -285c0 -236 45 -290 126 -290c77 0 126 48 126 289c0 220 -40 286 -126 286zM15 499l-94 4l55 211l140 -30z" />
    <glyph glyph-name="Upsilontonos" unicode="&#x38e;" horiz-adv-x="669" 
d="M375 363h6l95 222c3 7 9 23 9 32c0 20 -15 30 -49 30v49h216v-49c-40 -5 -54 -15 -77 -63l-154 -320v-145c0 -57 17 -71 76 -71v-48h-323v48c59 0 75 14 75 71v143l-161 324c-23 46 -38 56 -72 61v49h296v-49c-32 0 -47 -13 -47 -33c0 -8 3 -18 8 -29zM-112 499l-94 4
l55 211l140 -30z" />
    <glyph glyph-name="Omegatonos" unicode="&#x38f;" horiz-adv-x="733" 
d="M366 637c-98 0 -132 -59 -132 -247c0 -139 27 -230 102 -300v-90h-291l-14 170h67c16 -76 52 -79 116 -79h33c-92 52 -201 160 -201 307c0 193 140 310 320 310s321 -117 321 -310c0 -147 -109 -255 -201 -307h33c64 0 100 3 116 79h67l-14 -170h-291v90
c75 70 102 161 102 300c0 188 -34 247 -133 247zM11 499l-94 4l55 211l140 -30z" />
    <glyph glyph-name="iotadieresistonos" unicode="&#x390;" horiz-adv-x="304" 
d="M213 526v-399c0 -41 14 -56 47 -56c12 0 26 1 38 4v-55c-31 -18 -67 -29 -121 -29c-101 0 -125 78 -125 144v199c0 73 0 128 -3 170l136 22h28zM55 634c0 -43 -35 -78 -80 -78c-43 0 -78 35 -78 78s36 78 80 78c45 0 78 -35 78 -78zM368 634c0 -43 -35 -78 -78 -78
c-44 0 -80 35 -80 78s36 78 80 78c45 0 78 -35 78 -78zM155 562l-85 4l29 222l130 -38z" />
    <glyph glyph-name="Alpha" unicode="&#x391;" horiz-adv-x="674" 
d="M429 99l-25 81h-211l-22 -81c-3 -10 -4 -17 -4 -22c0 -24 19 -26 62 -28v-49h-223v49c42 5 56 13 72 62l189 585h135l203 -585c15 -44 25 -57 63 -62v-49h-293v49c45 2 59 9 59 27c0 6 -2 14 -5 23zM266 432l-50 -172h161l-56 174c-16 49 -21 77 -24 95h-6
c-3 -15 -9 -43 -25 -97z" />
    <glyph glyph-name="Beta" unicode="&#x392;" horiz-adv-x="641" 
d="M27 0v48c49 0 66 14 66 71v455c0 57 -17 71 -66 71v51h337c134 0 234 -58 234 -187c0 -99 -63 -141 -153 -155v-4c123 -12 178 -73 178 -171c0 -114 -68 -179 -236 -179h-360zM264 71h68c77 0 111 25 111 121c0 88 -32 122 -107 122h-72v-243zM264 388h52
c74 0 100 21 100 115c0 87 -30 117 -104 117h-48v-232z" />
    <glyph glyph-name="Gamma" unicode="&#x393;" horiz-adv-x="563" 
d="M264 620v-501c0 -57 17 -71 84 -71v-48h-321v48c49 0 66 14 66 71v455c0 57 -17 71 -66 71v51h514l12 -190h-82c-21 90 -33 114 -108 114h-99z" />
    <glyph glyph-name="uni0394" unicode="&#x394;" horiz-adv-x="598" 
d="M586 0h-576v52l218 644h127l231 -644v-52zM109 73h291l-115 345c-19 56 -29 97 -31 111h-5c-3 -15 -12 -57 -30 -113z" />
    <glyph glyph-name="Epsilon" unicode="&#x395;" horiz-adv-x="600" 
d="M27 0v48c49 0 66 14 66 71v455c0 57 -17 71 -66 71v51h508l11 -173h-81c-22 76 -33 97 -106 97h-95v-233h54c62 0 78 14 82 71h72v-215h-72c-4 54 -19 71 -81 71h-55v-243h113c64 0 90 23 98 116h83v-187h-531z" />
    <glyph glyph-name="Zeta" unicode="&#x396;" horiz-adv-x="578" 
d="M543 640l-325 -569h122c77 0 102 33 122 123h82l-11 -194h-506v56l328 571h-111c-67 0 -87 -35 -107 -113h-85l8 182h483v-56z" />
    <glyph glyph-name="Eta" unicode="&#x397;" horiz-adv-x="755" 
d="M491 119v195h-227v-195c0 -57 16 -71 66 -71v-48h-303v48c49 0 66 14 66 71v455c0 57 -17 71 -66 71v51h303v-51c-50 0 -66 -14 -66 -71v-179h227v179c0 57 -17 71 -66 71v51h303v-51c-49 0 -66 -14 -66 -71v-455c0 -57 17 -71 66 -71v-48h-303v48c49 0 66 14 66 71z" />
    <glyph glyph-name="Theta" unicode="&#x398;" horiz-adv-x="741" 
d="M371 -12c-202 0 -331 125 -331 350c0 259 147 370 330 370c189 0 331 -116 331 -371c0 -225 -130 -349 -330 -349zM370 632c-90 0 -144 -63 -144 -285c0 -236 59 -290 145 -290c82 0 143 48 143 289c0 220 -52 286 -144 286zM382 314h-18c-45 0 -50 -16 -54 -55h-45v192
h45c4 -42 10 -55 55 -55h16c45 0 51 13 55 55h45v-192h-45c-4 39 -9 55 -54 55z" />
    <glyph glyph-name="Iota" unicode="&#x399;" horiz-adv-x="357" 
d="M93 119v455c0 57 -17 71 -66 71v51h303v-51c-50 0 -66 -14 -66 -71v-455c0 -57 16 -71 66 -71v-48h-303v48c49 0 66 14 66 71z" />
    <glyph glyph-name="Kappa" unicode="&#x39a;" horiz-adv-x="699" 
d="M93 119v455c0 57 -17 71 -66 71v51h303v-51c-50 0 -66 -14 -66 -71v-455c0 -57 16 -71 66 -71v-48h-303v48c49 0 66 14 66 71zM566 583l-138 -173l175 -313c22 -39 41 -46 82 -49v-48h-219l-186 343l191 253c7 9 10 18 10 24c0 15 -13 27 -40 27v49h227v-49
c-42 -5 -68 -21 -102 -64z" />
    <glyph glyph-name="Lambda" unicode="&#x39b;" horiz-adv-x="668" 
d="M423 99l-104 335c-15 48 -21 77 -24 95h-6c-2 -15 -10 -45 -25 -97l-93 -333c-3 -10 -4 -17 -4 -22c0 -24 19 -26 62 -28v-49h-223v49c42 5 56 13 72 62l187 585h135l199 -585c15 -44 25 -57 63 -62v-49h-292v49c44 2 57 9 57 27c0 6 -1 14 -4 23z" />
    <glyph glyph-name="Mu" unicode="&#x39c;" horiz-adv-x="897" 
d="M839 696v-50c-58 -3 -71 -17 -71 -53c0 -7 0 -14 1 -23l40 -446c5 -56 13 -75 69 -77v-47h-304v47c53 2 66 12 66 47c0 7 0 16 -1 25l-26 313c-2 27 -3 77 -3 103v22h-5c-3 -18 -14 -77 -24 -116l-118 -441h-101l-127 414c-16 50 -28 119 -32 144h-4
c-1 -28 -3 -95 -6 -139l-18 -299c0 -7 -1 -12 -1 -18c0 -42 12 -55 63 -55v-47h-218v47c56 2 66 19 70 79l31 444c1 8 1 15 1 21c0 35 -11 52 -72 55v50h274l99 -324c14 -47 24 -116 27 -140h4c4 23 14 87 28 140l86 324h272z" />
    <glyph glyph-name="Nu" unicode="&#x39d;" horiz-adv-x="708" 
d="M538 392v182c0 57 -17 71 -66 71v51h220v-51c-50 0 -66 -14 -66 -71v-574h-122l-243 373c-46 70 -72 124 -83 144h-4c2 -22 9 -89 9 -145v-253c0 -57 17 -71 66 -71v-48h-222v48c49 0 66 14 66 71v455c0 57 -17 71 -66 71v51h247l202 -313c31 -49 54 -98 66 -127h5
c-3 22 -9 86 -9 136z" />
    <glyph glyph-name="Xi" unicode="&#x39e;" horiz-adv-x="619" 
d="M582 0h-545l-7 204h83c9 -74 34 -90 97 -90h199c62 0 88 17 97 90h83zM390 587h-161c-74 0 -92 -24 -106 -92h-82l10 201h517l9 -201h-81c-14 68 -32 92 -106 92zM271 310c-62 0 -73 -17 -81 -62h-72v205h72c8 -48 20 -62 82 -62h75c62 0 74 14 81 62h73v-205h-73
c-7 45 -18 62 -80 62h-77z" />
    <glyph glyph-name="Omicron" unicode="&#x39f;" horiz-adv-x="714" 
d="M357 -12c-201 0 -317 125 -317 350c0 259 134 370 317 370c187 0 316 -116 316 -371c0 -225 -116 -349 -316 -349zM357 632c-85 0 -126 -63 -126 -285c0 -236 45 -290 126 -290c77 0 126 48 126 289c0 220 -40 286 -126 286z" />
    <glyph glyph-name="Pi" unicode="&#x3a0;" horiz-adv-x="750" 
d="M486 119v500h-222v-500c0 -57 15 -71 65 -71v-48h-302v48c49 0 66 14 66 71v455c0 57 -17 71 -66 71v51h697v-51c-50 0 -66 -14 -66 -71v-455c0 -57 16 -71 66 -71v-48h-302v48c49 0 64 14 64 71z" />
    <glyph glyph-name="Rho" unicode="&#x3a1;" horiz-adv-x="612" 
d="M264 262v-143c0 -57 17 -71 84 -71v-48h-321v48c49 0 66 14 66 71v455c0 57 -17 71 -66 71v51h334c148 0 247 -62 247 -215c0 -106 -50 -219 -251 -219h-93zM425 481c0 103 -29 139 -107 139h-54v-278h60c74 0 101 30 101 139z" />
    <glyph glyph-name="Sigma" unicode="&#x3a3;" horiz-adv-x="583" 
d="M243 334l-227 304v58h513l13 -172h-82c-22 76 -34 102 -109 102h-127l179 -248l-222 -258h184c74 0 88 21 109 96h83l-22 -216h-522v64z" />
    <glyph glyph-name="Tau" unicode="&#x3a4;" horiz-adv-x="622" 
d="M27 696h568l11 -192h-81c-21 86 -28 116 -93 116h-35v-501c0 -58 18 -71 76 -71v-48h-324v48c59 0 76 13 76 71v501h-35c-65 0 -71 -30 -93 -116h-82z" />
    <glyph glyph-name="Upsilon" unicode="&#x3a5;" horiz-adv-x="669" 
d="M375 363h6l95 222c3 7 9 23 9 32c0 20 -15 30 -49 30v49h216v-49c-40 -5 -54 -15 -77 -63l-154 -320v-145c0 -57 17 -71 76 -71v-48h-323v48c59 0 75 14 75 71v143l-161 324c-23 46 -38 56 -72 61v49h296v-49c-32 0 -47 -13 -47 -33c0 -8 3 -18 8 -29z" />
    <glyph glyph-name="Phi" unicode="&#x3a6;" horiz-adv-x="885" 
d="M592 696v-51c-42 0 -65 -11 -65 -49c218 0 329 -75 329 -248c0 -192 -139 -248 -329 -248c0 -41 22 -52 65 -52v-48h-300v48c44 0 66 11 66 52c-190 0 -329 56 -329 248c0 173 111 248 329 248c0 38 -23 49 -66 49v51h300zM206 349c0 -122 34 -177 153 -181v360
c-115 -1 -153 -56 -153 -179zM678 349c0 123 -37 178 -152 179v-360c119 4 152 59 152 181z" />
    <glyph glyph-name="Chi" unicode="&#x3a7;" horiz-adv-x="702" 
d="M577 586l-143 -207l171 -269c27 -43 40 -56 77 -61v-49h-318v49c34 0 52 14 52 33c0 7 -2 15 -8 24l-101 168h-6l-101 -170c-4 -7 -8 -16 -8 -22c0 -19 19 -32 52 -33v-49h-224v49c40 4 58 17 87 63l148 234l-152 241c-27 43 -36 55 -69 60v49h306v-49
c-35 0 -52 -14 -52 -33c0 -7 2 -16 7 -24l87 -146h6l90 144c7 10 9 19 9 27c0 19 -19 32 -50 32v49h219v-49c-38 -5 -51 -20 -79 -61z" />
    <glyph glyph-name="Psi" unicode="&#x3a8;" horiz-adv-x="815" 
d="M758 488c-11 -90 -40 -141 -79 -174c-45 -39 -110 -59 -188 -63v-132c0 -57 17 -71 66 -71v-48h-299v48c49 0 65 14 65 71v132c-77 4 -143 25 -187 63c-39 34 -68 84 -79 174c-11 95 -15 111 -55 122l18 97c139 -8 182 -49 196 -194c12 -126 39 -168 107 -180v241
c0 57 -10 71 -60 71v51h288v-51c-49 0 -60 -14 -60 -71v-241c68 12 95 54 108 180c14 145 56 186 195 194l18 -97c-39 -11 -43 -27 -54 -122z" />
    <glyph glyph-name="uni03A9" unicode="&#x3a9;" horiz-adv-x="733" 
d="M366 637c-98 0 -132 -59 -132 -247c0 -139 27 -230 102 -300v-90h-291l-14 170h67c16 -76 52 -79 116 -79h33c-92 52 -201 160 -201 307c0 193 140 310 320 310s321 -117 321 -310c0 -147 -109 -255 -201 -307h33c64 0 100 3 116 79h67l-14 -170h-291v90
c75 70 102 161 102 300c0 188 -34 247 -133 247z" />
    <glyph glyph-name="Iotadieresis" unicode="&#x3aa;" horiz-adv-x="357" 
d="M93 119v455c0 57 -17 71 -66 71v51h303v-51c-50 0 -66 -14 -66 -71v-455c0 -57 16 -71 66 -71v-48h-303v48c49 0 66 14 66 71zM153 824c0 -47 -39 -85 -87 -85c-49 0 -87 38 -87 85c0 48 39 86 88 86s86 -38 86 -86zM379 824c0 -47 -38 -85 -87 -85c-48 0 -87 38 -87 85
c0 48 40 86 88 86c49 0 86 -38 86 -86z" />
    <glyph glyph-name="Upsilondieresis" unicode="&#x3ab;" horiz-adv-x="669" 
d="M375 363h6l95 222c3 7 9 23 9 32c0 20 -15 30 -49 30v49h216v-49c-40 -5 -54 -15 -77 -63l-154 -320v-145c0 -57 17 -71 76 -71v-48h-323v48c59 0 75 14 75 71v143l-161 324c-23 46 -38 56 -72 61v49h296v-49c-32 0 -47 -13 -47 -33c0 -8 3 -18 8 -29zM308 824
c0 -47 -39 -85 -87 -85c-49 0 -87 38 -87 85c0 48 39 86 88 86s86 -38 86 -86zM534 824c0 -47 -38 -85 -87 -85c-48 0 -87 38 -87 85c0 48 40 86 88 86c49 0 86 -38 86 -86z" />
    <glyph glyph-name="alphatonos" unicode="&#x3ac;" horiz-adv-x="619" 
d="M493 -9c-61 0 -93 28 -109 72c-27 -45 -77 -73 -138 -73c-128 0 -211 91 -211 255c0 162 72 280 222 280c57 0 99 -23 124 -56c5 13 11 25 18 39l114 10h29c-12 -41 -12 -85 -12 -128v-259c0 -45 16 -60 45 -60c11 0 21 1 33 4v-52c-34 -18 -70 -32 -115 -32zM369 190
v124c0 106 -33 140 -72 140c-46 0 -88 -46 -88 -197c0 -152 26 -195 77 -195c46 0 83 58 83 128zM306 555l-94 4l58 211l140 -29z" />
    <glyph glyph-name="epsilontonos" unicode="&#x3ad;" horiz-adv-x="512" 
d="M311 555l-94 4l58 211l140 -29zM311 75c72 0 120 24 160 50l30 -42c-46 -55 -128 -99 -243 -99c-122 0 -232 37 -232 156c0 78 51 121 144 129v6c-88 15 -120 53 -120 115c0 84 64 135 231 135c67 0 141 -12 192 -39v-110h-117c-3 61 -29 84 -69 84
c-48 0 -71 -27 -71 -83c0 -45 10 -77 67 -77h54v-69h-51c-65 0 -84 -28 -84 -78c0 -62 55 -78 109 -78z" />
    <glyph glyph-name="etatonos" unicode="&#x3ae;" horiz-adv-x="650" 
d="M397 137c0 64 2 152 2 233c0 50 -19 58 -50 58c-35 0 -75 -25 -101 -55v-126c0 -126 -2 -194 -6 -247h-173v32c11 25 18 67 18 164v150c0 64 -14 73 -72 75v53l179 52h28c5 -11 16 -48 17 -86c47 49 116 85 179 85c107 0 141 -49 141 -140v-258c0 -40 14 -56 46 -56
c12 0 26 1 38 4v-55c-30 -18 -67 -29 -119 -29c-102 0 -127 79 -127 146zM395 555l-94 4l58 211l140 -29z" />
    <glyph glyph-name="iotatonos" unicode="&#x3af;" horiz-adv-x="304" 
d="M213 526v-399c0 -41 14 -56 47 -56c12 0 26 1 38 4v-55c-31 -18 -67 -29 -121 -29c-101 0 -125 78 -125 144v199c0 73 0 128 -3 170l136 22h28zM159 555l-94 4l58 211l140 -29z" />
    <glyph glyph-name="upsilondieresistonos" unicode="&#x3b0;" horiz-adv-x="612" 
d="M356 476v28l144 21c22 -26 75 -111 75 -210c0 -188 -103 -328 -322 -328c-109 0 -165 53 -165 161v208c0 54 -15 75 -83 77v54c33 18 79 34 126 34c93 0 119 -59 119 -134v-245c0 -51 8 -90 41 -90c83 0 108 133 108 240c0 84 -26 152 -43 184zM207 634
c0 -43 -35 -78 -80 -78c-43 0 -78 35 -78 78s36 78 80 78c45 0 78 -35 78 -78zM520 634c0 -43 -35 -78 -78 -78c-44 0 -80 35 -80 78s36 78 80 78c45 0 78 -35 78 -78zM307 562l-85 4l29 222l130 -38z" />
    <glyph glyph-name="alpha" unicode="&#x3b1;" horiz-adv-x="619" 
d="M493 -9c-61 0 -93 28 -109 72c-27 -45 -77 -73 -138 -73c-128 0 -211 91 -211 255c0 162 72 280 222 280c57 0 99 -23 124 -56c5 13 11 25 18 39l114 10h29c-12 -41 -12 -85 -12 -128v-259c0 -45 16 -60 45 -60c11 0 21 1 33 4v-52c-34 -18 -70 -32 -115 -32zM369 190
v124c0 106 -33 140 -72 140c-46 0 -88 -46 -88 -197c0 -152 26 -195 77 -195c46 0 83 58 83 128z" />
    <glyph glyph-name="beta" unicode="&#x3b2;" horiz-adv-x="578" 
d="M318 -13c-36 0 -85 11 -105 29c2 -25 5 -90 5 -143v-57l-169 -23l-5 33c10 53 13 116 13 187v521c0 144 84 210 232 210c154 0 221 -70 221 -180c0 -74 -39 -138 -127 -161v-5c114 -15 163 -85 163 -193c0 -120 -57 -218 -228 -218zM294 57c53 0 84 32 84 147
c0 121 -38 161 -114 161h-17v63h22c57 0 76 38 76 133c0 84 -18 121 -58 121c-44 0 -69 -26 -69 -153v-444c16 -17 42 -28 76 -28z" />
    <glyph glyph-name="gamma" unicode="&#x3b3;" horiz-adv-x="524" 
d="M366 466v44l130 13l7 -64c0 -136 -76 -341 -134 -439c-54 -92 -132 -185 -291 -241l-44 111c123 8 179 34 179 87c0 25 -9 67 -79 279c-58 173 -80 180 -144 181v53c34 18 73 31 116 31c96 0 132 -76 172 -203c26 -82 37 -148 37 -205c0 -19 -1 -37 -4 -54h5
c38 75 98 279 98 345c0 30 -7 50 -48 62z" />
    <glyph glyph-name="delta" unicode="&#x3b4;" horiz-adv-x="569" 
d="M87 596c0 94 75 149 197 149c130 0 191 -54 191 -130c0 -14 -2 -30 -8 -47l-64 -23c-23 68 -65 117 -145 117c-49 0 -74 -17 -74 -43c0 -38 55 -59 171 -122c100 -54 183 -120 183 -255c0 -144 -85 -255 -255 -255c-175 0 -252 90 -252 236c0 95 44 176 138 230
c-58 41 -82 85 -82 143zM204 228c0 -96 11 -176 81 -176c69 0 80 80 80 179c0 85 -35 130 -123 179c-34 -46 -38 -83 -38 -182z" />
    <glyph glyph-name="epsilon" unicode="&#x3b5;" horiz-adv-x="512" 
d="M311 75c72 0 120 24 160 50l30 -42c-46 -55 -128 -99 -243 -99c-122 0 -232 37 -232 156c0 78 51 121 144 129v6c-88 15 -120 53 -120 115c0 84 64 135 231 135c67 0 141 -12 192 -39v-110h-117c-3 61 -29 84 -69 84c-48 0 -71 -27 -71 -83c0 -45 10 -77 67 -77h54v-69
h-51c-65 0 -84 -28 -84 -78c0 -62 55 -78 109 -78z" />
    <glyph glyph-name="zeta" unicode="&#x3b6;" horiz-adv-x="472" 
d="M196 567c-56 28 -94 93 -94 158l55 23c23 -57 68 -93 132 -102l129 92l68 -18v-27c-16 -94 -89 -144 -187 -144c-56 -57 -97 -149 -97 -278c0 -99 36 -123 134 -155c96 -32 140 -57 140 -142c0 -56 -44 -116 -119 -185l-87 50c28 37 48 67 48 98s-20 45 -73 58
c-152 38 -209 103 -209 249c0 131 70 245 160 323z" />
    <glyph glyph-name="eta" unicode="&#x3b7;" horiz-adv-x="650" 
d="M397 137c0 64 2 152 2 233c0 50 -19 58 -50 58c-35 0 -75 -25 -101 -55v-126c0 -126 -2 -194 -6 -247h-173v32c11 25 18 67 18 164v150c0 64 -14 73 -72 75v53l179 52h28c5 -11 16 -48 17 -86c47 49 116 85 179 85c107 0 141 -49 141 -140v-258c0 -40 14 -56 46 -56
c12 0 26 1 38 4v-55c-30 -18 -67 -29 -119 -29c-102 0 -127 79 -127 146z" />
    <glyph glyph-name="theta" unicode="&#x3b8;" horiz-adv-x="567" 
d="M535 377c0 -268 -114 -390 -254 -390c-164 0 -249 139 -249 378c0 230 93 380 258 380c146 0 245 -118 245 -368zM286 51c59 0 79 86 81 283h-167c1 -191 21 -283 86 -283zM284 678c-59 0 -82 -73 -84 -278h167c-2 199 -23 278 -83 278z" />
    <glyph glyph-name="iota" unicode="&#x3b9;" horiz-adv-x="304" 
d="M213 526v-399c0 -41 14 -56 47 -56c12 0 26 1 38 4v-55c-31 -18 -67 -29 -121 -29c-101 0 -125 78 -125 144v199c0 73 0 128 -3 170l136 22h28z" />
    <glyph glyph-name="kappa" unicode="&#x3ba;" horiz-adv-x="579" 
d="M410 358l-24 -30l92 -169c23 -42 41 -51 89 -60l-12 -108c-174 0 -198 47 -238 137l-38 85l-31 -32c-1 -85 -3 -139 -6 -181h-174v23c11 25 18 75 18 172v151c0 63 -14 72 -71 74v54l178 51h29c13 -25 26 -73 26 -131v-111c40 44 76 87 107 135c42 65 64 104 194 108
l9 -119l-54 -7c-53 -7 -71 -14 -94 -42z" />
    <glyph glyph-name="lambda" unicode="&#x3bb;" horiz-adv-x="569" 
d="M235 440h-5l-118 -450h-30l-82 25c21 23 38 51 61 132l107 379l39 -7l-25 87c-15 51 -52 52 -105 52v56c34 19 65 30 112 30c52 0 115 -12 139 -92l157 -528c12 -40 18 -55 48 -55c12 0 25 1 36 4v-55c-31 -19 -58 -30 -100 -30c-95 0 -130 66 -150 142z" />
    <glyph glyph-name="uni03BC" unicode="&#x3bc;" horiz-adv-x="611" 
d="M48 -207l-5 33c10 53 14 116 14 187v154c0 151 -3 229 -4 338l122 20h43c0 -3 -1 -339 -1 -355c0 -75 32 -85 54 -85c27 0 61 13 88 42v378l120 20h42v-402c0 -41 14 -55 46 -55c12 0 26 1 38 4v-55c-31 -19 -67 -30 -119 -30c-68 0 -99 33 -114 73
c-22 -38 -61 -72 -115 -72c-22 0 -42 3 -55 11l-5 -3c14 -34 20 -64 20 -126v-54z" />
    <glyph glyph-name="nu" unicode="&#x3bd;" horiz-adv-x="534" 
d="M342 -9h-113l-142 363c-22 55 -35 82 -97 83v53c34 18 73 31 116 31c85 0 111 -62 136 -132l88 -250h5c38 75 89 199 89 265c0 30 -8 50 -49 62v44l132 13l6 -64c0 -148 -100 -351 -171 -468z" />
    <glyph glyph-name="xi" unicode="&#x3be;" horiz-adv-x="483" 
d="M169 577c-55 27 -85 85 -85 148l55 23c23 -57 61 -87 124 -97l141 86l68 -17v-27c-26 -112 -107 -134 -209 -134c-35 -27 -46 -53 -46 -84c0 -70 50 -95 143 -95h39v-70h-36c-111 0 -169 -45 -169 -103c0 -59 40 -69 149 -94c98 -22 139 -60 139 -136
c0 -56 -44 -119 -118 -188l-87 50c28 37 48 70 48 101c0 30 -19 44 -73 55c-138 26 -226 65 -226 173c0 103 104 165 195 175v6c-108 6 -145 48 -145 103c0 51 36 89 93 125z" />
    <glyph glyph-name="omicron" unicode="&#x3bf;" horiz-adv-x="589" 
d="M554 267c0 -198 -123 -280 -263 -280c-163 0 -256 98 -256 268c0 161 101 271 266 271c145 0 253 -79 253 -259zM376 273c0 142 -28 186 -82 186s-81 -43 -81 -209c0 -138 17 -198 83 -198c53 0 80 61 80 221z" />
    <glyph glyph-name="pi" unicode="&#x3c0;" horiz-adv-x="622" 
d="M477 -9c-102 0 -126 79 -126 146v104c0 38 2 93 5 137h-142c-1 -136 -6 -280 -39 -378h-146l-2 24c56 65 97 190 111 354c-40 -2 -72 -20 -96 -45l-36 29c24 94 76 151 199 151h262c46 0 73 2 105 13h29l-17 -128c-20 -12 -43 -19 -74 -20v-251c0 -40 18 -56 50 -56
c12 0 26 1 39 4v-55c-32 -18 -70 -29 -122 -29z" />
    <glyph glyph-name="rho" unicode="&#x3c1;" horiz-adv-x="593" 
d="M211 -119v-65l-168 -23l-5 33c10 53 13 116 13 187v281c0 145 89 232 251 232c156 0 255 -85 255 -256c0 -152 -73 -283 -241 -283c-48 0 -94 21 -111 42l-4 -2c4 -31 10 -96 10 -146zM379 257c0 161 -25 203 -84 203c-49 0 -84 -40 -84 -160v-201c13 -18 46 -41 81 -41
c53 0 87 44 87 199z" />
    <glyph glyph-name="sigma1" unicode="&#x3c2;" horiz-adv-x="482" 
d="M202 273c0 -91 29 -124 126 -158c95 -33 143 -59 143 -141c0 -56 -44 -116 -118 -185l-88 50c28 37 48 70 48 100c0 32 -20 43 -73 56c-142 35 -205 118 -205 260c0 173 121 270 263 270c79 0 131 -16 168 -40v-114h-122c-1 61 -8 89 -46 89c-40 0 -96 -34 -96 -187z" />
    <glyph glyph-name="sigma" unicode="&#x3c3;" horiz-adv-x="594" 
d="M442 440v-5c68 -46 98 -121 98 -187c0 -180 -115 -261 -255 -261c-158 0 -250 98 -250 267c0 162 99 271 260 271c63 0 90 -13 170 -13c36 0 80 5 114 19l13 -65v-40c-21 -10 -33 -12 -60 -12c-33 0 -73 18 -90 26zM364 272c0 159 -25 186 -76 186s-76 -43 -76 -209
c0 -137 15 -198 79 -198c52 0 73 61 73 221z" />
    <glyph glyph-name="tau" unicode="&#x3c4;" horiz-adv-x="570" 
d="M443 378h-78v-251c0 -40 18 -56 50 -56c12 0 26 1 38 4v-55c-30 -18 -69 -29 -121 -29c-102 0 -122 79 -122 146c0 108 11 192 18 241h-81c-42 0 -76 -19 -102 -45l-36 29c24 94 75 151 197 151h216c45 0 72 2 104 12h30l-18 -127c-21 -12 -59 -20 -95 -20z" />
    <glyph glyph-name="upsilon" unicode="&#x3c5;" horiz-adv-x="612" 
d="M356 476v28l144 21c22 -26 75 -111 75 -210c0 -188 -103 -328 -322 -328c-109 0 -165 53 -165 161v208c0 54 -15 75 -83 77v54c33 18 79 34 126 34c93 0 119 -59 119 -134v-245c0 -51 8 -90 41 -90c83 0 108 133 108 240c0 84 -26 152 -43 184z" />
    <glyph glyph-name="phi" unicode="&#x3c6;" horiz-adv-x="834" 
d="M799 270c0 -131 -43 -279 -312 -282v-172l-166 -23l-5 33c9 46 13 101 13 162c-179 6 -294 80 -294 242c0 124 55 221 138 292l126 -16c-55 -58 -97 -163 -97 -257c0 -125 32 -192 127 -196v248c0 138 69 225 229 225c157 0 241 -85 241 -256zM487 304v-250
c89 3 137 72 137 220c0 156 -26 186 -73 186c-42 0 -64 -32 -64 -156z" />
    <glyph glyph-name="chi" unicode="&#x3c7;" horiz-adv-x="545" 
d="M432 -12c-81 0 -109 37 -144 109l-43 87h-4l-134 -194h-31l-76 25c29 20 49 42 97 108l96 132l-70 137c-21 41 -38 48 -69 48c-11 0 -19 -2 -27 -3v55c31 18 67 28 114 28c77 0 95 -27 130 -95l35 -69h5l102 163h30l80 -25c-28 -20 -50 -41 -95 -106l-72 -105l92 -157
c27 -46 37 -57 65 -57c12 0 19 2 31 4v-55c-30 -19 -73 -30 -112 -30z" />
    <glyph glyph-name="psi" unicode="&#x3c8;" horiz-adv-x="824" 
d="M499 735v-681c80 8 117 88 117 235c0 85 -28 155 -46 187v28l138 21c26 -27 80 -121 80 -213c0 -169 -91 -318 -289 -323v-173l-165 -23l-5 33c8 46 15 101 16 162c-126 3 -258 58 -258 228v140c0 54 -15 75 -82 77v54c33 18 79 34 126 34c92 0 113 -59 113 -134v-178
c0 -102 36 -148 101 -155v491c0 76 -2 126 -4 168l128 22h30z" />
    <glyph glyph-name="omega" unicode="&#x3c9;" horiz-adv-x="812" 
d="M330 253c0 28 -4 69 -7 111l134 19h29v-241c0 -72 18 -90 43 -90c59 0 76 103 76 224c0 95 -31 166 -51 198v28l139 23c18 -25 83 -139 83 -231c0 -191 -83 -307 -258 -307c-78 0 -119 32 -141 71c-26 -45 -69 -71 -135 -71c-119 0 -206 75 -206 242
c0 125 56 222 140 293l129 -16c-55 -58 -99 -165 -99 -257c0 -129 10 -194 63 -194c43 0 61 57 61 198z" />
    <glyph glyph-name="iotadieresis" unicode="&#x3ca;" horiz-adv-x="304" 
d="M213 526v-399c0 -41 14 -56 47 -56c12 0 26 1 38 4v-55c-31 -18 -67 -29 -121 -29c-101 0 -125 78 -125 144v199c0 73 0 128 -3 170l136 22h28zM108 648c0 -47 -38 -85 -87 -85c-48 0 -87 38 -87 85c0 48 40 87 88 87c49 0 86 -39 86 -87zM335 648c0 -47 -39 -85 -88 -85
c-48 0 -87 38 -87 85c0 48 40 87 89 87s86 -39 86 -87z" />
    <glyph glyph-name="upsilondieresis" unicode="&#x3cb;" horiz-adv-x="612" 
d="M356 476v28l144 21c22 -26 75 -111 75 -210c0 -188 -103 -328 -322 -328c-109 0 -165 53 -165 161v208c0 54 -15 75 -83 77v54c33 18 79 34 126 34c93 0 119 -59 119 -134v-245c0 -51 8 -90 41 -90c83 0 108 133 108 240c0 84 -26 152 -43 184zM269 648
c0 -47 -38 -85 -87 -85c-48 0 -87 38 -87 85c0 48 40 87 88 87c49 0 86 -39 86 -87zM496 648c0 -47 -39 -85 -88 -85c-48 0 -87 38 -87 85c0 48 40 87 89 87s86 -39 86 -87z" />
    <glyph glyph-name="omicrontonos" unicode="&#x3cc;" horiz-adv-x="589" 
d="M554 267c0 -198 -123 -280 -263 -280c-163 0 -256 98 -256 268c0 161 101 271 266 271c145 0 253 -79 253 -259zM376 273c0 142 -28 186 -82 186s-81 -43 -81 -209c0 -138 17 -198 83 -198c53 0 80 61 80 221zM338 555l-94 4l58 211l140 -29z" />
    <glyph glyph-name="upsilontonos" unicode="&#x3cd;" horiz-adv-x="612" 
d="M332 555l-94 4l58 211l140 -29zM356 476v28l144 21c22 -26 75 -111 75 -210c0 -188 -103 -328 -322 -328c-109 0 -165 53 -165 161v208c0 54 -15 75 -83 77v54c33 18 79 34 126 34c93 0 119 -59 119 -134v-245c0 -51 8 -90 41 -90c83 0 108 133 108 240
c0 84 -26 152 -43 184z" />
    <glyph glyph-name="omegatonos" unicode="&#x3ce;" horiz-adv-x="812" 
d="M330 253c0 28 -4 69 -7 111l134 19h29v-241c0 -72 18 -90 43 -90c59 0 76 103 76 224c0 95 -31 166 -51 198v28l139 23c18 -25 83 -139 83 -231c0 -191 -83 -307 -258 -307c-78 0 -119 32 -141 71c-26 -45 -69 -71 -135 -71c-119 0 -206 75 -206 242
c0 125 56 222 140 293l129 -16c-55 -58 -99 -165 -99 -257c0 -129 10 -194 63 -194c43 0 61 57 61 198zM466 555l-94 4l58 211l140 -29z" />
    <glyph glyph-name="uni03D0" unicode="&#x3d0;" horiz-adv-x="602" 
d="M531 566c0 -71 -40 -127 -121 -168c101 -23 161 -82 161 -191c0 -140 -88 -220 -264 -220c-163 0 -267 110 -267 345c0 312 101 412 260 412c156 0 231 -70 231 -178zM405 206c0 86 -21 125 -83 161c-23 -6 -50 -12 -76 -17l-9 66c97 19 131 64 131 146
c0 79 -18 120 -71 120c-64 0 -92 -59 -92 -342c0 -221 34 -289 101 -289c54 0 99 39 99 155z" />
    <glyph glyph-name="theta1" unicode="&#x3d1;" horiz-adv-x="605" 
d="M25 308l107 32c47 -30 79 -64 79 -164c0 -101 35 -125 87 -125c58 0 95 52 100 258c-209 38 -331 102 -331 243c0 108 69 192 236 192c159 0 262 -79 262 -395c0 -262 -100 -362 -266 -362c-167 0 -248 68 -248 205c0 59 -8 83 -26 116zM231 551c0 -93 41 -146 168 -168
c-2 271 -37 299 -93 299c-50 0 -75 -46 -75 -131z" />
    <glyph glyph-name="Upsilon1" unicode="&#x3d2;" horiz-adv-x="663" 
d="M423 221v-111c0 -57 17 -62 75 -62v-48h-321v48c59 0 75 5 75 62v104c0 170 -65 335 -250 381l13 112c244 0 330 -121 345 -360h4c25 207 95 359 287 359l12 -84c-163 -27 -240 -184 -240 -401z" />
    <glyph glyph-name="uni03D3" unicode="&#x3d3;" horiz-adv-x="663" 
d="M-118 499l-94 4l55 211l140 -30zM423 221v-111c0 -57 17 -62 75 -62v-48h-321v48c59 0 75 5 75 62v104c0 170 -65 335 -250 381l13 112c244 0 330 -121 345 -360h4c25 207 95 359 287 359l12 -84c-163 -27 -240 -184 -240 -401z" />
    <glyph glyph-name="uni03D4" unicode="&#x3d4;" horiz-adv-x="663" 
d="M316 824c0 -47 -39 -85 -87 -85c-49 0 -87 38 -87 85c0 48 39 86 88 86s86 -38 86 -86zM542 824c0 -47 -38 -85 -87 -85c-48 0 -87 38 -87 85c0 48 40 86 88 86c49 0 86 -38 86 -86zM423 221v-111c0 -57 17 -62 75 -62v-48h-321v48c59 0 75 5 75 62v104
c0 170 -65 335 -250 381l13 112c244 0 330 -121 345 -360h4c25 207 95 359 287 359l12 -84c-163 -27 -240 -184 -240 -401z" />
    <glyph glyph-name="phi1" unicode="&#x3d5;" horiz-adv-x="843" 
d="M499 735v-210c204 -8 309 -85 309 -257c0 -182 -90 -271 -309 -279v-173l-164 -23l-5 33c8 47 14 101 15 163c-220 8 -309 97 -309 279c0 172 105 249 309 257v20c0 76 -1 127 -4 168l129 22h29zM633 256c0 143 -46 193 -134 202v-404c81 6 134 43 134 202zM210 256
c0 -159 53 -196 135 -202v404c-88 -9 -135 -59 -135 -202z" />
    <glyph glyph-name="uni0400" unicode="&#x400;" horiz-adv-x="600" 
d="M27 0v48c49 0 66 14 66 71v455c0 57 -17 71 -66 71v51h508l11 -173h-81c-22 76 -33 97 -106 97h-95v-233h54c62 0 78 14 82 71h72v-215h-72c-4 54 -19 71 -81 71h-55v-243h113c64 0 90 23 98 116h83v-187h-531zM419 766l-25 -39l-253 73l69 138z" />
    <glyph glyph-name="afii10023" unicode="&#x401;" horiz-adv-x="600" 
d="M27 0v48c49 0 66 14 66 71v455c0 57 -17 71 -66 71v51h508l11 -173h-81c-22 76 -33 97 -106 97h-95v-233h54c62 0 78 14 82 71h72v-215h-72c-4 54 -19 71 -81 71h-55v-243h113c64 0 90 23 98 116h83v-187h-531zM277 824c0 -47 -39 -85 -87 -85c-49 0 -87 38 -87 85
c0 48 39 86 88 86s86 -38 86 -86zM503 824c0 -47 -38 -85 -87 -85c-48 0 -87 38 -87 85c0 48 40 86 88 86c49 0 86 -38 86 -86z" />
    <glyph glyph-name="afii10051" unicode="&#x402;" horiz-adv-x="831" 
d="M621 260c0 80 -34 106 -104 106c-41 0 -84 -11 -120 -29v-218c0 -58 20 -71 69 -71v-48h-316v48c58 0 76 13 76 71v501h-35c-66 0 -73 -30 -94 -116h-80l10 192h568l11 -179h-83c-21 86 -35 103 -91 103h-35v-207c49 28 113 54 184 54c150 0 212 -76 212 -194v-59
c0 -163 -96 -227 -258 -261l-22 53c102 48 108 80 108 193v61z" />
    <glyph glyph-name="afii10052" unicode="&#x403;" horiz-adv-x="563" 
d="M264 620v-501c0 -57 17 -71 84 -71v-48h-321v48c49 0 66 14 66 71v455c0 57 -17 71 -66 71v51h514l12 -190h-82c-21 90 -33 114 -108 114h-99zM186 727l-24 39l208 172l70 -138z" />
    <glyph glyph-name="afii10053" unicode="&#x404;" horiz-adv-x="635" 
d="M365 61c79 0 109 39 121 121h112v-138c-42 -32 -125 -57 -237 -57c-203 0 -321 124 -321 350c0 260 131 371 326 371c96 0 165 -18 227 -50v-142h-117c-15 76 -46 116 -112 116c-82 0 -126 -59 -132 -239h224v-81h-225c3 -221 61 -251 134 -251z" />
    <glyph glyph-name="afii10054" unicode="&#x405;" horiz-adv-x="554" 
d="M253 -14c-118 0 -180 30 -226 57v135h112c10 -93 51 -130 121 -130c68 0 111 31 111 107c0 57 -24 89 -101 109l-72 19c-106 28 -168 81 -168 205c0 148 97 220 245 220c110 0 177 -31 210 -48v-145h-111c-8 76 -33 126 -111 126c-63 0 -91 -36 -91 -92
c0 -49 21 -83 90 -99l68 -16c115 -27 191 -94 191 -221c0 -147 -96 -227 -268 -227z" />
    <glyph glyph-name="afii10055" unicode="&#x406;" horiz-adv-x="357" 
d="M93 119v455c0 57 -17 71 -66 71v51h303v-51c-50 0 -66 -14 -66 -71v-455c0 -57 16 -71 66 -71v-48h-303v48c49 0 66 14 66 71z" />
    <glyph glyph-name="afii10056" unicode="&#x407;" horiz-adv-x="357" 
d="M93 119v455c0 57 -17 71 -66 71v51h303v-51c-50 0 -66 -14 -66 -71v-455c0 -57 16 -71 66 -71v-48h-303v48c49 0 66 14 66 71zM153 824c0 -47 -39 -85 -87 -85c-49 0 -87 38 -87 85c0 48 39 86 88 86s86 -38 86 -86zM379 824c0 -47 -38 -85 -87 -85c-48 0 -87 38 -87 85
c0 48 40 86 88 86c49 0 86 -38 86 -86z" />
    <glyph glyph-name="afii10057" unicode="&#x408;" horiz-adv-x="358" 
d="M93 100v474c0 57 -17 71 -66 71v51h304v-51c-50 0 -66 -14 -66 -71v-467c0 -163 -98 -226 -266 -254l-26 47c106 50 120 89 120 200z" />
    <glyph glyph-name="afii10058" unicode="&#x409;" horiz-adv-x="975" 
d="M188 574c0 57 -17 71 -66 71v51h567v-51c-49 0 -67 -12 -67 -71v-150h83c148 0 253 -65 253 -213c0 -102 -53 -211 -254 -211h-317v48c50 0 64 14 64 71v500h-177c-1 -180 -11 -337 -37 -452c-32 -137 -92 -182 -219 -182l-14 106c134 31 184 101 184 483zM775 209
c0 98 -33 139 -111 139h-42v-270h48c74 0 105 26 105 131z" />
    <glyph glyph-name="afii10059" unicode="&#x40a;" horiz-adv-x="986" 
d="M470 119v210h-206v-210c0 -57 12 -71 62 -71v-48h-299v48c49 0 66 14 66 71v455c0 57 -17 71 -66 71v51h299v-51c-50 0 -62 -14 -62 -71v-165h206v165c0 57 -11 71 -61 71v51h299v-51c-50 0 -66 -14 -66 -71v-165h82c149 0 253 -58 253 -202c0 -100 -53 -207 -253 -207
h-315v48c50 0 61 14 61 71zM684 333h-42v-255h48c74 0 105 29 105 126c0 96 -33 129 -111 129z" />
    <glyph glyph-name="afii10060" unicode="&#x40b;" horiz-adv-x="869" 
d="M793 119c0 -57 16 -71 65 -71v-48h-294v48c42 0 57 14 57 71v141c0 80 -34 106 -104 106c-41 0 -84 -11 -120 -29v-218c0 -58 20 -71 69 -71v-48h-316v48c58 0 76 13 76 71v501h-35c-66 0 -73 -30 -94 -116h-81l11 192h568l11 -179h-83c-21 86 -35 103 -91 103h-35v-207
c49 28 113 54 184 54c150 0 212 -76 212 -194v-154z" />
    <glyph glyph-name="afii10061" unicode="&#x40c;" horiz-adv-x="698" 
d="M260 727l-24 39l208 172l70 -138zM521 495c-13 -57 -33 -96 -97 -118v-5c96 -10 143 -60 164 -168c14 -71 23 -103 89 -112l-15 -107c-146 0 -210 37 -243 183c-32 139 -44 163 -92 163h-63v-212c0 -57 14 -71 64 -71v-48h-301v48c49 0 66 14 66 71v455
c0 57 -17 71 -66 71v51h301v-51c-50 0 -64 -14 -64 -71v-167h27c75 0 139 17 161 150c17 102 84 146 203 150l14 -120l-55 -7c-52 -7 -80 -27 -93 -85z" />
    <glyph glyph-name="uni040D" unicode="&#x40d;" horiz-adv-x="746" 
d="M503 766l-25 -39l-253 73l69 138zM492 475h-4c-12 -31 -34 -73 -67 -130l-139 -242c-16 -28 -18 -53 -18 -103h-237v48c49 0 66 14 66 71v455c0 57 -17 71 -66 71v51h302v-51c-50 0 -66 -14 -66 -71v-220c0 -52 -6 -113 -8 -133h4c11 31 32 73 66 131l139 240
c17 29 18 54 18 104h238v-51c-50 0 -66 -14 -66 -71v-455c0 -57 16 -71 66 -71v-48h-302v48c49 0 65 14 65 71v223c0 52 6 113 9 133z" />
    <glyph glyph-name="afii10062" unicode="&#x40e;" horiz-adv-x="693" 
d="M326 185l-45 -5l-201 408c-22 45 -31 54 -65 59v49h298v-49c-40 0 -56 -15 -56 -37c0 -5 2 -13 5 -21l116 -263h19c1 17 23 66 42 108l69 154c3 7 4 13 4 21c0 24 -17 38 -58 38v49h224v-49c-42 -5 -52 -15 -73 -62l-186 -405c-73 -158 -102 -195 -262 -195l-13 110
c103 10 155 29 182 90zM364 730c-94 0 -152 66 -171 145l39 22c32 -48 74 -67 132 -67c57 0 99 19 131 67l39 -22c-19 -79 -76 -145 -170 -145z" />
    <glyph glyph-name="afii10145" unicode="&#x40f;" horiz-adv-x="750" 
d="M428 -180h-106c0 134 -18 180 -53 180h-242v48c49 0 66 14 66 71v455c0 57 -17 71 -66 71v51h302v-51c-50 0 -65 -14 -65 -71v-497h222v497c0 57 -15 71 -64 71v51h302v-51c-50 0 -66 -14 -66 -71v-455c0 -57 16 -71 66 -71v-48h-243c-34 0 -53 -46 -53 -180z" />
    <glyph glyph-name="afii10017" unicode="&#x410;" horiz-adv-x="674" 
d="M429 99l-25 81h-211l-22 -81c-3 -10 -4 -17 -4 -22c0 -24 19 -26 62 -28v-49h-223v49c42 5 56 13 72 62l189 585h135l203 -585c15 -44 25 -57 63 -62v-49h-293v49c45 2 59 9 59 27c0 6 -2 14 -5 23zM266 432l-50 -172h161l-56 174c-16 49 -21 77 -24 95h-6
c-3 -15 -9 -43 -25 -97z" />
    <glyph glyph-name="afii10018" unicode="&#x411;" horiz-adv-x="626" 
d="M353 624h-89v-200h94c148 0 252 -65 252 -213c0 -102 -53 -211 -253 -211h-330v48c49 0 66 14 66 71v455c0 57 -17 71 -66 71v51h504l13 -183h-81c-19 87 -35 111 -110 111zM428 209c0 98 -33 139 -111 139h-53v-270h59c74 0 105 26 105 131z" />
    <glyph glyph-name="afii10019" unicode="&#x412;" horiz-adv-x="641" 
d="M27 0v48c49 0 66 14 66 71v455c0 57 -17 71 -66 71v51h337c134 0 234 -58 234 -187c0 -99 -63 -141 -153 -155v-4c123 -12 178 -73 178 -171c0 -114 -68 -179 -236 -179h-360zM264 71h68c77 0 111 25 111 121c0 88 -32 122 -107 122h-72v-243zM264 388h52
c74 0 100 21 100 115c0 87 -30 117 -104 117h-48v-232z" />
    <glyph glyph-name="afii10020" unicode="&#x413;" horiz-adv-x="563" 
d="M264 620v-501c0 -57 17 -71 84 -71v-48h-321v48c49 0 66 14 66 71v455c0 57 -17 71 -66 71v51h514l12 -190h-82c-21 90 -33 114 -108 114h-99z" />
    <glyph glyph-name="afii10021" unicode="&#x414;" horiz-adv-x="722" 
d="M104 -180h-99v257h40c27 18 49 44 71 85c42 79 56 175 56 412c0 57 -17 71 -67 71v51h580v-51c-50 0 -66 -14 -66 -71v-451c0 -31 14 -46 57 -46h29v-77l-28 -180h-91c0 136 -5 180 -42 180h-374c-45 0 -66 -64 -66 -180zM178 84v-7h270v542h-189
c-1 -179 -8 -328 -31 -413c-12 -43 -29 -93 -50 -122z" />
    <glyph glyph-name="afii10022" unicode="&#x415;" horiz-adv-x="600" 
d="M27 0v48c49 0 66 14 66 71v455c0 57 -17 71 -66 71v51h508l11 -173h-81c-22 76 -33 97 -106 97h-95v-233h54c62 0 78 14 82 71h72v-215h-72c-4 54 -19 71 -81 71h-55v-243h113c64 0 90 23 98 116h83v-187h-531z" />
    <glyph glyph-name="afii10024" unicode="&#x416;" horiz-adv-x="1020" 
d="M842 495c-13 -57 -33 -97 -97 -118v-5c96 -10 142 -60 163 -168c14 -71 23 -103 90 -113l-15 -105c-146 0 -209 35 -242 181c-32 138 -44 164 -95 164h-51v-213c0 -57 14 -70 63 -70v-48h-298v48c50 0 63 13 63 70v213h-49c-50 0 -65 -26 -96 -164
c-33 -146 -97 -181 -242 -181l-16 105c67 10 76 42 90 113c22 108 68 158 164 168v5c-65 21 -83 61 -97 118c-13 56 -43 78 -93 85l-55 7l13 120c117 -4 187 -48 204 -150c21 -133 84 -150 161 -150h16v167c0 57 -13 70 -63 71v51h298v-51c-49 -1 -63 -14 -63 -71v-167h17
c74 0 139 17 161 150c17 102 84 146 203 150c5 -40 9 -80 13 -120l-55 -7c-50 -6 -78 -28 -92 -85z" />
    <glyph glyph-name="afii10025" unicode="&#x417;" horiz-adv-x="584" 
d="M249 325h-71v79h74c70 0 104 44 104 116c0 64 -30 112 -93 112c-64 0 -92 -39 -105 -116h-112v137c51 32 133 55 222 55c189 0 268 -78 268 -179c0 -78 -51 -137 -157 -156v-4c108 -13 188 -64 188 -171c0 -135 -105 -211 -281 -211c-105 0 -205 29 -247 61v146h112
c12 -84 43 -133 120 -133c79 0 113 57 113 133c0 90 -44 131 -135 131z" />
    <glyph glyph-name="afii10026" unicode="&#x418;" horiz-adv-x="746" 
d="M492 475h-4c-12 -31 -34 -73 -67 -130l-139 -242c-16 -28 -18 -53 -18 -103h-237v48c49 0 66 14 66 71v455c0 57 -17 71 -66 71v51h302v-51c-50 0 -66 -14 -66 -71v-220c0 -52 -6 -113 -8 -133h4c11 31 32 73 66 131l139 240c17 29 18 54 18 104h238v-51
c-50 0 -66 -14 -66 -71v-455c0 -57 16 -71 66 -71v-48h-302v48c49 0 65 14 65 71v223c0 52 6 113 9 133z" />
    <glyph glyph-name="afii10027" unicode="&#x419;" horiz-adv-x="746" 
d="M492 475h-4c-12 -31 -34 -73 -67 -130l-139 -242c-16 -28 -18 -53 -18 -103h-237v48c49 0 66 14 66 71v455c0 57 -17 71 -66 71v51h302v-51c-50 0 -66 -14 -66 -71v-220c0 -52 -6 -113 -8 -133h4c11 31 32 73 66 131l139 240c17 29 18 54 18 104h238v-51
c-50 0 -66 -14 -66 -71v-455c0 -57 16 -71 66 -71v-48h-302v48c49 0 65 14 65 71v223c0 52 6 113 9 133zM373 730c-94 0 -152 66 -171 145l39 22c32 -48 74 -67 132 -67c57 0 99 19 131 67l39 -22c-19 -79 -76 -145 -170 -145z" />
    <glyph glyph-name="afii10028" unicode="&#x41a;" horiz-adv-x="698" 
d="M521 495c-13 -57 -33 -96 -97 -118v-5c96 -10 143 -60 164 -168c14 -71 23 -103 89 -112l-15 -107c-146 0 -210 37 -243 183c-32 139 -44 163 -92 163h-63v-212c0 -57 14 -71 64 -71v-48h-301v48c49 0 66 14 66 71v455c0 57 -17 71 -66 71v51h301v-51
c-50 0 -64 -14 -64 -71v-167h27c75 0 139 17 161 150c17 102 84 146 203 150l14 -120l-55 -7c-52 -7 -80 -27 -93 -85z" />
    <glyph glyph-name="afii10029" unicode="&#x41b;" horiz-adv-x="727" 
d="M188 574c0 57 -17 71 -66 71v51h579v-51c-50 0 -66 -14 -66 -71v-455c0 -57 16 -71 66 -71v-48h-302v48c50 0 65 14 65 71v500h-190c-1 -180 -11 -337 -37 -452c-32 -137 -92 -182 -219 -182l-14 106c51 12 87 26 117 64c47 59 67 183 67 419z" />
    <glyph glyph-name="afii10030" unicode="&#x41c;" horiz-adv-x="897" 
d="M839 696v-50c-58 -3 -71 -17 -71 -53c0 -7 0 -14 1 -23l40 -446c5 -56 13 -75 69 -77v-47h-304v47c53 2 66 12 66 47c0 7 0 16 -1 25l-26 313c-2 27 -3 77 -3 103v22h-5c-3 -18 -14 -77 -24 -116l-118 -441h-101l-127 414c-16 50 -28 119 -32 144h-4
c-1 -28 -3 -95 -6 -139l-18 -299c0 -7 -1 -12 -1 -18c0 -42 12 -55 63 -55v-47h-218v47c56 2 66 19 70 79l31 444c1 8 1 15 1 21c0 35 -11 52 -72 55v50h274l99 -324c14 -47 24 -116 27 -140h4c4 23 14 87 28 140l86 324h272z" />
    <glyph glyph-name="afii10031" unicode="&#x41d;" horiz-adv-x="755" 
d="M491 119v195h-227v-195c0 -57 16 -71 66 -71v-48h-303v48c49 0 66 14 66 71v455c0 57 -17 71 -66 71v51h303v-51c-50 0 -66 -14 -66 -71v-179h227v179c0 57 -17 71 -66 71v51h303v-51c-49 0 -66 -14 -66 -71v-455c0 -57 17 -71 66 -71v-48h-303v48c49 0 66 14 66 71z" />
    <glyph glyph-name="afii10032" unicode="&#x41e;" horiz-adv-x="714" 
d="M357 -12c-201 0 -317 125 -317 350c0 259 134 370 317 370c187 0 316 -116 316 -371c0 -225 -116 -349 -316 -349zM357 632c-85 0 -126 -63 -126 -285c0 -236 45 -290 126 -290c77 0 126 48 126 289c0 220 -40 286 -126 286z" />
    <glyph glyph-name="afii10033" unicode="&#x41f;" horiz-adv-x="750" 
d="M486 119v500h-222v-500c0 -57 15 -71 65 -71v-48h-302v48c49 0 66 14 66 71v455c0 57 -17 71 -66 71v51h697v-51c-50 0 -66 -14 -66 -71v-455c0 -57 16 -71 66 -71v-48h-302v48c49 0 64 14 64 71z" />
    <glyph glyph-name="afii10034" unicode="&#x420;" horiz-adv-x="612" 
d="M264 262v-143c0 -57 17 -71 84 -71v-48h-321v48c49 0 66 14 66 71v455c0 57 -17 71 -66 71v51h334c148 0 247 -62 247 -215c0 -106 -50 -219 -251 -219h-93zM425 481c0 103 -29 139 -107 139h-54v-278h60c74 0 101 30 101 139z" />
    <glyph glyph-name="afii10035" unicode="&#x421;" horiz-adv-x="630" 
d="M358 -13c-203 0 -318 124 -318 350c0 260 134 371 329 371c96 0 168 -18 218 -50v-142h-116c-16 76 -37 116 -104 116c-89 0 -136 -61 -136 -287c0 -242 57 -284 134 -284c79 0 103 39 116 121h111v-138c-42 -32 -134 -57 -234 -57z" />
    <glyph glyph-name="afii10036" unicode="&#x422;" horiz-adv-x="622" 
d="M27 696h568l11 -192h-81c-21 86 -28 116 -93 116h-35v-501c0 -58 18 -71 76 -71v-48h-324v48c59 0 76 13 76 71v501h-35c-65 0 -71 -30 -93 -116h-82z" />
    <glyph glyph-name="afii10037" unicode="&#x423;" horiz-adv-x="693" 
d="M326 185l-45 -5l-201 408c-22 45 -31 54 -65 59v49h298v-49c-40 0 -56 -15 -56 -37c0 -5 2 -13 5 -21l116 -263h19c1 17 23 66 42 108l69 154c3 7 4 13 4 21c0 24 -17 38 -58 38v49h224v-49c-42 -5 -52 -15 -73 -62l-186 -405c-73 -158 -102 -195 -262 -195l-13 110
c103 10 155 29 182 90z" />
    <glyph glyph-name="afii10038" unicode="&#x424;" horiz-adv-x="882" 
d="M357 167v396c-126 -3 -152 -82 -152 -196c0 -121 26 -195 152 -200zM525 99c0 -42 22 -51 66 -51v-48h-300v48c43 0 65 10 65 51c-183 0 -328 56 -328 267c0 194 129 264 328 266c0 38 -23 48 -65 49v50h300v-50c-43 -1 -66 -11 -66 -49c200 -2 329 -72 329 -266
c0 -211 -145 -267 -329 -267zM525 563v-396c125 5 152 79 152 200c0 114 -27 193 -152 196z" />
    <glyph glyph-name="afii10039" unicode="&#x425;" horiz-adv-x="702" 
d="M577 586l-143 -207l171 -269c27 -43 40 -56 77 -61v-49h-318v49c34 0 52 14 52 33c0 7 -2 15 -8 24l-101 168h-6l-101 -170c-4 -7 -8 -16 -8 -22c0 -19 19 -32 52 -33v-49h-224v49c40 4 58 17 87 63l148 234l-152 241c-27 43 -36 55 -69 60v49h306v-49
c-35 0 -52 -14 -52 -33c0 -7 2 -16 7 -24l87 -146h6l90 144c7 10 9 19 9 27c0 19 -19 32 -50 32v49h219v-49c-38 -5 -51 -20 -79 -61z" />
    <glyph glyph-name="afii10040" unicode="&#x426;" horiz-adv-x="760" 
d="M716 -180h-92c0 136 -4 180 -42 180h-555v48c49 0 66 14 66 71v455c0 57 -17 71 -66 71v51h302v-51c-50 0 -65 -14 -65 -71v-497h222v497c0 57 -15 71 -64 71v51h302v-51c-50 0 -66 -14 -66 -71v-451c0 -33 15 -46 63 -46h23v-77z" />
    <glyph glyph-name="afii10041" unicode="&#x427;" horiz-adv-x="737" 
d="M76 574c0 57 -16 71 -66 71v51h295v-51c-42 0 -57 -14 -57 -71v-169c0 -80 39 -106 103 -106c41 0 85 11 122 28v247c0 57 -14 71 -58 71v51h296v-51c-50 0 -67 -14 -67 -71v-455c0 -57 17 -71 67 -71v-48h-304v48c50 0 66 14 66 71v131c-47 -28 -108 -53 -176 -53
c-160 0 -221 76 -221 194v183z" />
    <glyph glyph-name="afii10042" unicode="&#x428;" horiz-adv-x="1044" 
d="M27 0v48c49 0 66 14 66 71v455c0 57 -17 71 -66 71v51h290v-51c-40 0 -55 -14 -55 -71v-499h171v499c0 57 -15 71 -54 71v51h287v-51c-49 0 -65 -14 -65 -71v-499h181v499c0 57 -15 71 -54 71v51h290v-51c-50 0 -66 -14 -66 -71v-455c0 -57 16 -71 66 -71v-48h-991z" />
    <glyph glyph-name="afii10043" unicode="&#x429;" horiz-adv-x="1054" 
d="M27 0v48c49 0 66 14 66 71v455c0 57 -17 71 -66 71v51h290v-51c-40 0 -55 -14 -55 -71v-499h171v499c0 57 -15 71 -54 71v51h287v-51c-49 0 -65 -14 -65 -71v-499h181v499c0 57 -15 71 -54 71v51h290v-51c-50 0 -66 -14 -66 -71v-450c0 -34 16 -47 64 -47h22v-77
l-28 -180h-92c0 136 -5 180 -42 180h-849z" />
    <glyph glyph-name="afii10044" unicode="&#x42a;" horiz-adv-x="770" 
d="M508 0h-331v48c50 0 67 14 67 71v501h-43c-76 0 -87 -24 -108 -114h-82l12 190h458v-51c-48 0 -66 -12 -66 -71v-150h93c149 0 253 -65 253 -213c0 -102 -53 -211 -253 -211zM579 209c0 98 -33 139 -111 139h-53v-270h59c74 0 105 26 105 131z" />
    <glyph glyph-name="afii10045" unicode="&#x42b;" horiz-adv-x="952" 
d="M345 0h-318v48c49 0 66 14 66 71v455c0 57 -17 71 -66 71v51h303v-51c-48 0 -66 -12 -66 -71v-150h82c149 0 253 -65 253 -213c0 -102 -53 -211 -254 -211zM417 209c0 98 -33 139 -111 139h-42v-270h48c74 0 105 26 105 131zM688 119v455c0 57 -16 71 -66 71v51h303v-51
c-49 0 -66 -14 -66 -71v-455c0 -57 17 -71 66 -71v-48h-303v48c50 0 66 14 66 71z" />
    <glyph glyph-name="afii10046" unicode="&#x42c;" horiz-adv-x="619" 
d="M357 0h-330v48c49 0 66 14 66 71v455c0 57 -17 71 -66 71v51h303v-51c-48 0 -66 -12 -66 -71v-150h94c148 0 252 -65 252 -213c0 -102 -53 -211 -253 -211zM428 209c0 98 -33 139 -111 139h-53v-270h59c74 0 105 26 105 131z" />
    <glyph glyph-name="afii10047" unicode="&#x42d;" horiz-adv-x="635" 
d="M178 312v81h225c-7 180 -49 239 -130 239c-66 0 -98 -40 -114 -116h-116v142c64 32 138 50 232 50c195 0 320 -110 320 -371c0 -224 -112 -350 -316 -350c-112 0 -200 25 -241 57v138h111c13 -82 43 -121 122 -121c73 0 129 31 133 251h-226z" />
    <glyph glyph-name="afii10048" unicode="&#x42e;" horiz-adv-x="1019" 
d="M673 -12c-187 0 -298 116 -306 326h-103v-195c0 -57 16 -71 66 -71v-48h-303v48c49 0 66 14 66 71v455c0 57 -17 71 -66 71v51h303v-51c-50 0 -66 -14 -66 -71v-179h105c18 218 141 313 304 313c179 0 305 -116 305 -371c0 -225 -113 -349 -305 -349zM673 632
c-79 0 -115 -63 -115 -285c0 -236 41 -290 115 -290c70 0 115 48 115 289c0 220 -36 286 -115 286z" />
    <glyph glyph-name="afii10049" unicode="&#x42f;" horiz-adv-x="659" 
d="M227 310v4c-91 7 -182 57 -182 181c0 147 104 201 246 201h341v-51c-49 0 -66 -14 -66 -71v-455c0 -57 17 -71 66 -71v-48h-297v48c43 0 60 14 60 71v170c-68 0 -95 -5 -129 -123c-42 -148 -106 -181 -250 -181l-16 107c64 9 76 42 89 87c21 72 43 121 138 131zM228 495
c0 -106 32 -128 91 -128h76v253h-65c-71 0 -102 -32 -102 -125z" />
    <glyph glyph-name="afii10065" unicode="&#x430;" horiz-adv-x="547" 
d="M474 154c0 -75 12 -87 62 -88v-45c-22 -14 -62 -27 -110 -27c-60 0 -97 27 -106 69c-16 -37 -59 -76 -139 -76c-88 0 -159 43 -159 148c0 118 85 169 242 169c12 0 39 -1 52 -2v46c0 75 -19 107 -68 107c-51 0 -65 -37 -72 -92h-120v106c55 32 138 57 222 57
c116 0 200 -51 200 -168c0 -30 -4 -113 -4 -204zM314 244h-35c-58 0 -91 -29 -91 -87c0 -53 21 -70 54 -70c21 0 52 10 69 30z" />
    <glyph glyph-name="afii10066" unicode="&#x431;" horiz-adv-x="567" 
d="M415 599l-99 -29c-128 -37 -172 -73 -174 -195h7c26 84 86 129 173 129c141 0 215 -90 215 -251c0 -152 -100 -266 -256 -266c-174 0 -245 118 -245 306c0 202 60 346 215 394l98 30c32 10 64 21 88 43l81 -78c-15 -30 -45 -66 -103 -83zM283 437c-61 0 -82 -73 -82 -185
c0 -104 12 -201 80 -201s79 87 79 202c0 117 -18 184 -77 184z" />
    <glyph glyph-name="afii10067" unicode="&#x432;" horiz-adv-x="562" 
d="M84 393c0 57 -10 70 -59 70v50h233c192 0 246 -34 246 -130c0 -53 -34 -95 -122 -112v-5c92 -8 144 -47 144 -121c0 -121 -101 -145 -257 -145h-244v48c49 0 59 13 59 70v275zM265 228h-20v-157h25c55 0 81 7 81 76c0 68 -19 81 -86 81zM263 443h-18v-147h23
c57 0 68 27 68 81c0 55 -23 66 -73 66z" />
    <glyph glyph-name="afii10068" unicode="&#x433;" horiz-adv-x="483" 
d="M25 513h435l10 -179h-76c-19 80 -26 108 -86 108h-62v-324c0 -57 12 -70 63 -70v-48h-284v48c49 0 59 13 59 70v275c0 57 -10 70 -59 70v50z" />
    <glyph glyph-name="afii10069" unicode="&#x434;" horiz-adv-x="627" 
d="M455 0h-302c-35 0 -46 -50 -46 -145h-97v219h30c26 15 52 39 69 74c33 66 33 140 33 245c0 57 -10 70 -58 70v50h506v-50c-48 0 -58 -13 -58 -70v-269c0 -26 3 -44 17 -49h62v-75l-23 -145h-91c0 95 -7 145 -42 145zM176 78v-5h194v365h-143c0 -86 -2 -173 -17 -268
c-6 -39 -18 -72 -34 -92z" />
    <glyph glyph-name="afii10070" unicode="&#x435;" horiz-adv-x="540" 
d="M343 80c42 0 88 10 133 33l25 -43c-56 -56 -123 -83 -216 -83c-158 0 -250 99 -250 271c0 170 99 268 249 268c164 0 226 -95 226 -248v-47h-300c4 -106 39 -151 133 -151zM286 460c-47 0 -68 -36 -75 -156h139c0 120 -17 156 -64 156z" />
    <glyph glyph-name="afii10072" unicode="&#x436;" horiz-adv-x="853" 
d="M817 414l-47 -5c-47 -5 -66 -28 -76 -62c-12 -44 -34 -64 -81 -78v-4c109 -4 136 -40 151 -100c13 -50 28 -73 70 -82l-14 -98c-139 0 -180 29 -202 127c-21 89 -36 113 -83 113h-29v-107c0 -57 10 -70 49 -70v-48h-257v48c39 0 49 13 49 70v107h-28
c-48 0 -64 -24 -84 -113c-23 -98 -64 -127 -202 -127l-13 98c42 9 57 32 69 82c15 60 42 96 152 100v4c-48 14 -69 34 -82 78c-10 34 -29 57 -77 62l-47 5l11 112c109 -4 162 -35 179 -130c12 -70 48 -100 116 -100h6v97c0 57 -11 70 -51 70v50h261v-50
c-40 0 -51 -13 -51 -70v-97h6c68 0 104 30 116 100c17 95 70 126 180 130z" />
    <glyph glyph-name="afii10073" unicode="&#x437;" horiz-adv-x="504" 
d="M225 -13c-79 0 -147 16 -195 44v109h114c6 -61 30 -85 75 -85c47 0 75 22 75 86c0 68 -17 88 -81 88h-44v68h47c56 0 64 35 64 80c0 55 -14 83 -63 83c-39 0 -63 -23 -66 -84h-116v107c52 26 121 42 188 42c169 0 223 -53 223 -134c0 -63 -33 -102 -121 -119v-5
c92 -8 144 -43 144 -121c0 -120 -122 -159 -244 -159z" />
    <glyph glyph-name="afii10074" unicode="&#x438;" horiz-adv-x="664" 
d="M421 118v92c0 58 2 98 8 134h-6c-10 -33 -22 -61 -47 -98l-117 -174c-13 -19 -14 -37 -14 -72h-220v48c49 0 59 13 59 70v275c0 57 -10 70 -59 70v50h270v-50c-40 0 -53 -13 -53 -70v-90c0 -58 -2 -98 -8 -134h6c10 33 22 60 47 97l118 175c12 18 13 36 13 72h220v-50
c-48 0 -59 -13 -59 -70v-275c0 -57 11 -70 59 -70v-48h-271l2 48c40 0 52 13 52 70z" />
    <glyph glyph-name="afii10075" unicode="&#x439;" horiz-adv-x="664" 
d="M421 118v92c0 58 2 98 8 134h-6c-10 -33 -22 -61 -47 -98l-117 -174c-13 -19 -14 -37 -14 -72h-220v48c49 0 59 13 59 70v275c0 57 -10 70 -59 70v50h270v-50c-40 0 -53 -13 -53 -70v-90c0 -58 -2 -98 -8 -134h6c10 33 22 60 47 97l118 175c12 18 13 36 13 72h220v-50
c-48 0 -59 -13 -59 -70v-275c0 -57 11 -70 59 -70v-48h-271l2 48c40 0 52 13 52 70zM332 564c-94 0 -151 66 -170 145l39 22c32 -48 73 -67 131 -67c57 0 99 19 131 67l39 -22c-20 -79 -77 -145 -170 -145z" />
    <glyph glyph-name="afii10076" unicode="&#x43a;" horiz-adv-x="601" 
d="M565 414l-46 -5c-48 -5 -67 -28 -77 -62c-12 -44 -34 -64 -82 -78v-4c110 -4 141 -40 156 -100c13 -50 23 -73 66 -82l-13 -98c-140 0 -180 29 -202 127c-21 90 -37 113 -85 113h-36v-107c0 -57 10 -70 50 -70v-48h-271v48c49 0 59 13 59 70v275c0 57 -10 70 -59 70v50
h273v-50c-40 0 -52 -13 -52 -70v-97h12c69 0 106 30 118 100c17 95 70 126 180 130z" />
    <glyph glyph-name="afii10077" unicode="&#x43b;" horiz-adv-x="616" 
d="M142 393c0 57 -11 70 -59 70v50h508v-50c-49 0 -59 -13 -59 -70v-275c0 -57 10 -70 59 -70v-48h-273v48c40 0 52 13 52 70v320h-144c0 -83 -1 -177 -16 -272c-21 -126 -59 -180 -193 -180l-13 101c44 11 70 21 94 53c42 56 44 147 44 253z" />
    <glyph glyph-name="afii10078" unicode="&#x43c;" horiz-adv-x="751" 
d="M20 0v48c49 0 58 13 62 70l17 273c0 9 0 16 -1 22c-5 40 -16 50 -58 50v50h227l75 -235c14 -45 23 -89 24 -111h6c1 22 11 70 26 110l88 236h225v-50c-42 0 -55 -11 -58 -50c-1 -7 -1 -15 0 -24l16 -271c3 -57 13 -70 61 -70v-48h-263v48c36 0 50 10 50 52
c0 6 -1 20 -3 48l-7 102l-5 90h-5c-3 -38 -12 -83 -19 -104l-76 -236h-115l-71 204c-13 39 -26 96 -29 135h-6c0 -16 -2 -65 -4 -92l-7 -106c-2 -24 -2 -34 -2 -41c0 -42 13 -52 49 -52v-48h-197z" />
    <glyph glyph-name="afii10079" unicode="&#x43d;" horiz-adv-x="668" 
d="M421 393c0 57 -12 70 -52 70v50h273v-50c-49 0 -59 -13 -59 -70v-275c0 -57 10 -70 59 -70v-48h-273v48c40 0 52 13 52 70v104h-175v-104c0 -57 12 -70 52 -70v-48h-273v48c49 0 59 13 59 70v275c0 57 -10 70 -59 70v50h273v-50c-40 0 -52 -13 -52 -70v-95h175v95z" />
    <glyph glyph-name="afii10080" unicode="&#x43e;" horiz-adv-x="589" 
d="M554 267c0 -198 -123 -280 -263 -280c-163 0 -256 98 -256 268c0 161 101 271 266 271c145 0 253 -79 253 -259zM376 273c0 142 -28 186 -82 186s-81 -43 -81 -209c0 -138 17 -198 83 -198c53 0 80 61 80 221z" />
    <glyph glyph-name="afii10081" unicode="&#x43f;" horiz-adv-x="664" 
d="M84 393c0 57 -10 70 -59 70v50h613v-50c-49 0 -59 -13 -59 -70v-275c0 -57 10 -70 59 -70v-48h-273v48c40 0 52 13 52 70v320h-171v-320c0 -57 12 -70 52 -70v-48h-273v48c49 0 59 13 59 70v275z" />
    <glyph glyph-name="afii10082" unicode="&#x440;" horiz-adv-x="626" 
d="M419 242c0 138 -34 176 -89 176c-30 0 -58 -9 -84 -34v-280c21 -24 48 -32 77 -32c57 0 96 34 96 170zM240 441c25 45 78 84 150 84c121 0 201 -83 201 -265c0 -195 -102 -272 -238 -272c-41 0 -81 11 -107 42v-108c0 -57 10 -70 60 -70v-48h-281v48c49 0 59 13 59 70
v432c0 73 -9 83 -57 85v47l169 40h15c5 -8 26 -44 29 -85z" />
    <glyph glyph-name="afii10083" unicode="&#x441;" horiz-adv-x="498" 
d="M465 485v-114h-121c-2 63 -8 89 -45 89c-40 0 -97 -35 -97 -189c0 -147 63 -193 134 -193c43 0 73 8 114 31l27 -41c-46 -55 -117 -81 -194 -81c-136 0 -248 85 -248 261c0 181 122 277 263 277c80 0 130 -16 167 -40z" />
    <glyph glyph-name="afii10084" unicode="&#x442;" horiz-adv-x="574" 
d="M399 442h-31v-324c0 -57 12 -70 62 -70v-48h-286v48c50 0 62 13 62 70v324h-31c-60 0 -67 -28 -87 -108h-76l11 179h528l11 -179h-77c-19 80 -26 108 -86 108z" />
    <glyph glyph-name="afii10085" unicode="&#x443;" horiz-adv-x="563" 
d="M115 -206l-56 103c90 15 167 39 203 112l-63 -5c-13 52 -25 90 -60 187l-77 211c-17 46 -26 57 -62 62v49h283v-49c-45 -2 -59 -9 -59 -26c0 -6 2 -13 5 -23l69 -215c11 -36 14 -67 16 -75h6c0 8 9 42 19 73l66 217c3 9 4 16 4 22c0 21 -16 25 -61 27v49h215v-49
c-40 -5 -52 -13 -69 -60l-147 -397c-43 -117 -108 -196 -232 -213z" />
    <glyph glyph-name="afii10086" unicode="&#x444;" horiz-adv-x="861" 
d="M38 259c0 181 93 267 202 267c33 0 83 -14 111 -49v100c0 73 -13 83 -61 85v47l185 26h16c9 -15 19 -46 19 -99v-163c26 30 68 53 124 53c115 0 189 -90 189 -271c0 -180 -94 -267 -202 -267c-34 0 -83 12 -111 47v-113c0 -57 10 -70 60 -70v-48h-278v48
c49 0 59 13 59 70v119c-26 -31 -68 -53 -124 -53c-115 0 -189 93 -189 271zM578 430c-22 0 -44 -8 -68 -24v-306c19 -19 41 -31 62 -31c56 0 87 45 87 176c0 129 -28 185 -81 185zM283 83c22 0 45 9 68 26v304c-20 20 -42 31 -63 31c-55 0 -85 -44 -85 -175
c0 -129 27 -186 80 -186z" />
    <glyph glyph-name="afii10087" unicode="&#x445;" horiz-adv-x="569" 
d="M248 196l-65 -94c-7 -10 -10 -19 -10 -27c0 -17 12 -27 41 -27v-48h-199v48c39 4 49 16 81 60l110 149l-106 148c-34 47 -40 54 -75 59v49h273v-49c-22 0 -32 -8 -32 -21c0 -8 4 -18 11 -29l50 -75h4l51 75c6 8 9 16 9 26c0 14 -11 24 -36 24v49h198v-49
c-42 -5 -54 -20 -84 -61l-96 -130l110 -158c35 -50 44 -63 85 -67v-48h-274v48c21 0 35 9 35 24c0 8 -4 18 -10 27l-67 97h-4z" />
    <glyph glyph-name="afii10088" unicode="&#x446;" horiz-adv-x="673" 
d="M502 0h-477v48c49 0 59 13 59 70v275c0 57 -10 70 -59 70v50h273v-50c-40 0 -52 -13 -52 -70v-318h171v318c0 57 -12 70 -52 70v50h273v-50c-49 0 -59 -13 -59 -70v-258c0 -44 9 -60 50 -60h29v-75l-23 -145h-91c0 95 -7 145 -42 145z" />
    <glyph glyph-name="afii10089" unicode="&#x447;" horiz-adv-x="644" 
d="M226 393v-86c0 -55 17 -84 67 -84c40 0 72 20 104 48v122c0 57 -11 70 -51 70v50h272v-50c-48 0 -59 -13 -59 -70v-276c0 -56 11 -69 59 -69v-48h-279v48c48 0 58 13 58 70v87c-42 -39 -102 -82 -186 -82c-86 0 -147 50 -147 166v104c0 57 -9 70 -59 70v50h280v-50
c-49 0 -59 -13 -59 -70z" />
    <glyph glyph-name="afii10090" unicode="&#x448;" horiz-adv-x="925" 
d="M25 0v48c49 0 59 13 59 70v275c0 57 -10 70 -59 70v50h261v-50c-36 0 -43 -13 -43 -70v-318h140v318c0 57 -6 70 -42 70v50h243v-50c-36 0 -42 -13 -42 -70v-318h140v318c0 57 -8 70 -43 70v50h260v-50c-48 0 -59 -13 -59 -70v-275c0 -57 11 -70 59 -70v-48h-874z" />
    <glyph glyph-name="afii10091" unicode="&#x449;" horiz-adv-x="934" 
d="M763 0h-738v48c49 0 59 13 59 70v275c0 57 -10 70 -59 70v50h260v-50c-35 0 -42 -13 -42 -70v-318h140v318c0 57 -7 70 -42 70v50h243v-50c-36 0 -43 -13 -43 -70v-318h140v318c0 57 -7 70 -42 70v50h260v-50c-49 0 -59 -13 -59 -70v-258c0 -46 10 -60 57 -60h22v-75
l-23 -145h-91c0 95 -7 145 -42 145z" />
    <glyph glyph-name="afii10092" unicode="&#x44a;" horiz-adv-x="669" 
d="M429 513v-50c-48 0 -58 -13 -58 -70v-77h22c195 0 251 -45 251 -156c0 -121 -80 -160 -246 -160h-248v48c48 0 59 13 59 70v324h-34c-61 0 -67 -28 -87 -108h-76l11 179h406zM392 247h-21v-176h24c56 0 79 18 79 87c0 68 -15 89 -82 89z" />
    <glyph glyph-name="afii10093" unicode="&#x44b;" horiz-adv-x="827" 
d="M305 513v-50c-48 0 -59 -13 -59 -70v-77h13c193 0 250 -45 250 -156c0 -121 -81 -160 -245 -160h-239v48c49 0 59 13 59 70v275c0 57 -10 70 -59 70v50h280zM580 393c0 57 -10 70 -58 70v50h279v-50c-48 0 -58 -13 -58 -70v-275c0 -57 10 -70 58 -70v-48h-274v48
c44 0 53 13 53 70v275zM259 247h-13v-176h16c55 0 76 18 76 87c0 68 -12 89 -79 89z" />
    <glyph glyph-name="afii10094" unicode="&#x44c;" horiz-adv-x="544" 
d="M305 513v-50c-48 0 -59 -13 -59 -70v-77h22c196 0 252 -45 252 -156c0 -121 -80 -160 -247 -160h-248v48c49 0 59 13 59 70v275c0 57 -10 70 -59 70v50h280zM268 247h-22v-176h25c56 0 79 18 79 87c0 68 -15 89 -82 89z" />
    <glyph glyph-name="afii10095" unicode="&#x44d;" horiz-adv-x="504" 
d="M134 224v72h169c-3 129 -33 164 -80 164c-38 0 -70 -23 -73 -84h-116v108c49 26 108 41 187 41c150 0 248 -81 248 -278c0 -186 -107 -260 -250 -260c-79 0 -144 14 -189 41v107h116c6 -61 29 -82 71 -82c57 0 82 27 86 171h-169z" />
    <glyph glyph-name="afii10096" unicode="&#x44e;" horiz-adv-x="860" 
d="M825 267c0 -198 -114 -280 -253 -280c-150 0 -234 85 -245 235h-81v-104c0 -57 12 -70 52 -70v-48h-273v48c49 0 59 13 59 70v275c0 57 -10 70 -59 70v50h273v-50c-40 0 -52 -13 -52 -70v-95h82c16 137 105 228 254 228c144 0 243 -79 243 -259zM651 273
c0 142 -24 186 -76 186c-50 0 -75 -43 -75 -209c0 -138 15 -198 78 -198c51 0 73 61 73 221z" />
    <glyph glyph-name="afii10097" unicode="&#x44f;" horiz-adv-x="585" 
d="M500 393v-275c0 -57 10 -70 59 -70v-48h-267v48c36 0 46 13 46 70v93h-5c-62 0 -70 -5 -112 -114c-36 -93 -98 -112 -207 -112l-14 98c38 8 49 20 66 55c25 53 50 83 122 85v5c-100 7 -147 61 -147 133c0 120 94 152 261 152h257v-50c-49 0 -59 -13 -59 -70zM211 362
c0 -68 28 -88 86 -88h41v169h-39c-55 0 -88 -12 -88 -81z" />
    <glyph glyph-name="uni0450" unicode="&#x450;" horiz-adv-x="540" 
d="M343 80c42 0 88 10 133 33l25 -43c-56 -56 -123 -83 -216 -83c-158 0 -250 99 -250 271c0 170 99 268 249 268c164 0 226 -95 226 -248v-47h-300c4 -106 39 -151 133 -151zM286 460c-47 0 -68 -36 -75 -156h139c0 120 -17 156 -64 156zM408 591l-27 -35l-247 96l83 133z
" />
    <glyph glyph-name="afii10071" unicode="&#x451;" horiz-adv-x="540" 
d="M343 80c42 0 88 10 133 33l25 -43c-56 -56 -123 -83 -216 -83c-158 0 -250 99 -250 271c0 170 99 268 249 268c164 0 226 -95 226 -248v-47h-300c4 -106 39 -151 133 -151zM286 460c-47 0 -68 -36 -75 -156h139c0 120 -17 156 -64 156zM251 648c0 -47 -38 -85 -87 -85
c-48 0 -87 38 -87 85c0 48 40 87 88 87c49 0 86 -39 86 -87zM478 648c0 -47 -39 -85 -88 -85c-48 0 -87 38 -87 85c0 48 40 87 89 87s86 -39 86 -87z" />
    <glyph glyph-name="afii10099" unicode="&#x452;" horiz-adv-x="618" 
d="M396 331c0 61 -25 81 -64 81c-42 0 -70 -16 -93 -32v-263c0 -56 10 -69 59 -69v-48h-279v48c48 0 58 13 58 70v449h-61v46h61c0 44 -14 49 -61 49v47l189 26h15c4 -6 19 -35 19 -99v-23h162v-46h-162v-126c44 49 93 84 172 84c82 0 147 -48 147 -155v-342
c0 -153 -114 -211 -210 -233l-31 47c60 30 79 77 79 174v315z" />
    <glyph glyph-name="afii10100" unicode="&#x453;" horiz-adv-x="483" 
d="M156 556l-27 35l190 194l84 -133zM25 513h435l10 -179h-76c-19 80 -26 108 -86 108h-62v-324c0 -57 12 -70 63 -70v-48h-284v48c49 0 59 13 59 70v275c0 57 -10 70 -59 70v50z" />
    <glyph glyph-name="afii10101" unicode="&#x454;" horiz-adv-x="506" 
d="M474 485v-113h-120c-3 61 -14 88 -52 88c-48 0 -96 -31 -102 -164h175v-72h-173c12 -111 64 -146 138 -146c43 0 78 8 120 31l26 -41c-46 -55 -122 -81 -199 -81c-139 0 -252 85 -252 261c0 181 123 277 267 277c79 0 135 -16 172 -40z" />
    <glyph glyph-name="afii10102" unicode="&#x455;" horiz-adv-x="475" 
d="M222 -13c-109 0 -162 28 -191 43v111h106c8 -71 46 -89 97 -89c47 0 79 18 79 58c0 38 -22 55 -66 64l-82 17c-85 18 -133 72 -133 160c0 118 94 175 207 175c93 0 151 -24 178 -36v-110h-98c-8 58 -43 76 -93 76c-42 0 -67 -17 -67 -54c0 -31 18 -46 54 -54l76 -17
c100 -22 159 -78 159 -173c0 -110 -81 -171 -226 -171z" />
    <glyph glyph-name="afii10103" unicode="&#x456;" horiz-adv-x="322" 
d="M305 0h-280v48c49 0 59 13 59 70v236c0 73 -9 83 -57 85v47l196 34h23v-402c0 -57 10 -70 59 -70v-48zM254 651c0 -52 -42 -93 -95 -93c-51 0 -94 41 -94 93c0 51 43 93 96 93s93 -42 93 -93z" />
    <glyph glyph-name="afii10104" unicode="&#x457;" horiz-adv-x="322" 
d="M136 648c0 -47 -38 -85 -87 -85c-48 0 -87 38 -87 85c0 48 40 87 88 87c49 0 86 -39 86 -87zM363 648c0 -47 -39 -85 -88 -85c-48 0 -87 38 -87 85c0 48 40 87 89 87s86 -39 86 -87zM305 0h-280v48c49 0 59 13 59 70v236c0 73 -9 83 -57 85v47l196 34h23v-402
c0 -57 10 -70 59 -70v-48z" />
    <glyph glyph-name="afii10105" unicode="&#x458;" horiz-adv-x="314" 
d="M83 17v337c0 73 -10 83 -58 85v47l196 34h23v-503c0 -149 -119 -205 -212 -223l-29 45c61 28 80 75 80 178zM253 651c0 -52 -43 -93 -96 -93c-51 0 -94 41 -94 93c0 51 44 93 97 93c52 0 93 -42 93 -93z" />
    <glyph glyph-name="afii10106" unicode="&#x459;" horiz-adv-x="809" 
d="M142 393c0 57 -11 70 -59 70v50h498v-50c-48 0 -59 -13 -59 -70v-77h13c193 0 250 -45 250 -156c0 -112 -74 -160 -226 -160h-250v48c40 0 51 13 51 70v320h-134c0 -83 -1 -177 -16 -272c-21 -126 -59 -180 -193 -180l-13 101c44 11 70 21 94 53c42 56 44 147 44 253z
M534 247h-12v-176h15c56 0 77 18 77 87c0 68 -13 89 -80 89z" />
    <glyph glyph-name="afii10107" unicode="&#x45a;" horiz-adv-x="854" 
d="M82 393c0 57 -10 70 -58 70v50h272v-50c-39 0 -51 -13 -51 -70v-81h161v81c0 57 -12 70 -52 70v50h272v-50c-48 0 -58 -13 -58 -70v-81h12c193 0 250 -44 250 -152c0 -111 -67 -160 -245 -160h-231v48c40 0 52 13 52 70v121h-161v-121c0 -57 12 -70 51 -70v-48h-272v48
c48 0 58 13 58 70v275zM580 244h-12v-173h15c56 0 77 18 77 87c0 58 -13 86 -80 86z" />
    <glyph glyph-name="afii10108" unicode="&#x45b;" horiz-adv-x="628" 
d="M239 636v-23h162v-46h-162v-126c44 49 93 84 172 84c82 0 147 -48 147 -155v-252c0 -57 10 -70 58 -70v-48h-279v48c49 0 59 13 59 69v214c0 61 -25 81 -64 81c-42 0 -70 -16 -93 -32v-263c0 -56 10 -69 59 -69v-48h-279v48c48 0 58 13 58 70v449h-61v46h61
c0 44 -14 49 -61 49v47l189 26h15c4 -6 19 -35 19 -99z" />
    <glyph glyph-name="afii10109" unicode="&#x45c;" horiz-adv-x="601" 
d="M220 556l-27 35l190 194l84 -133zM565 414l-46 -5c-48 -5 -67 -28 -77 -62c-12 -44 -34 -64 -82 -78v-4c110 -4 141 -40 156 -100c13 -50 23 -73 66 -82l-13 -98c-140 0 -180 29 -202 127c-21 90 -37 113 -85 113h-36v-107c0 -57 10 -70 50 -70v-48h-271v48
c49 0 59 13 59 70v275c0 57 -10 70 -59 70v50h273v-50c-40 0 -52 -13 -52 -70v-97h12c69 0 106 30 118 100c17 95 70 126 180 130z" />
    <glyph glyph-name="uni045D" unicode="&#x45d;" horiz-adv-x="664" 
d="M448 591l-27 -35l-247 96l83 133zM421 118v92c0 58 2 98 8 134h-6c-10 -33 -22 -61 -47 -98l-117 -174c-13 -19 -14 -37 -14 -72h-220v48c49 0 59 13 59 70v275c0 57 -10 70 -59 70v50h270v-50c-40 0 -53 -13 -53 -70v-90c0 -58 -2 -98 -8 -134h6c10 33 22 60 47 97
l118 175c12 18 13 36 13 72h220v-50c-48 0 -59 -13 -59 -70v-275c0 -57 11 -70 59 -70v-48h-271l2 48c40 0 52 13 52 70z" />
    <glyph glyph-name="afii10110" unicode="&#x45e;" horiz-adv-x="563" 
d="M115 -206l-56 103c90 15 167 39 203 112l-63 -5c-13 52 -25 90 -60 187l-77 211c-17 46 -26 57 -62 62v49h283v-49c-45 -2 -59 -9 -59 -26c0 -6 2 -13 5 -23l69 -215c11 -36 14 -67 16 -75h6c0 8 9 42 19 73l66 217c3 9 4 16 4 22c0 21 -16 25 -61 27v49h215v-49
c-40 -5 -52 -13 -69 -60l-147 -397c-43 -117 -108 -196 -232 -213zM278 564c-94 0 -151 66 -170 145l39 22c32 -48 73 -67 131 -67c57 0 99 19 131 67l39 -22c-20 -79 -77 -145 -170 -145z" />
    <glyph glyph-name="afii10193" unicode="&#x45f;" horiz-adv-x="664" 
d="M25 0v48c49 0 59 13 59 70v275c0 57 -10 70 -59 70v50h273v-50c-40 0 -52 -13 -52 -70v-318h171v318c0 57 -12 70 -52 70v50h273v-50c-49 0 -59 -13 -59 -70v-275c0 -57 10 -70 59 -70v-48h-207c-35 0 -47 -50 -47 -145h-104c0 95 -12 145 -47 145h-208z" />
    <glyph glyph-name="afii10146" unicode="&#x462;" horiz-adv-x="766" 
d="M194 527c-57 0 -71 -12 -92 -97h-81l10 173h201c0 38 -23 42 -66 42v51h304v-51c-42 0 -67 -4 -67 -42h207l10 -173h-82c-22 86 -36 97 -92 97h-43v-122h94c149 0 253 -60 253 -203c0 -92 -53 -202 -253 -202h-331v48c50 0 67 14 67 71v408h-39zM568 199
c0 92 -33 130 -111 130h-54v-251h60c74 0 105 28 105 121z" />
    <glyph glyph-name="afii10194" unicode="&#x463;" horiz-adv-x="620" 
d="M333 445h-22v-102h21c196 0 261 -48 261 -165c0 -131 -89 -178 -255 -178h-248v48c48 0 58 13 58 70v327h-17c-60 0 -67 -12 -87 -82h-71l11 150h164v64c0 73 -13 83 -61 85v47l189 26h15c9 -14 20 -44 20 -100v-122h169l10 -150h-70c-20 70 -26 82 -87 82zM332 274h-21
v-203h24c55 0 96 25 96 104c0 70 -33 99 -99 99z" />
    <glyph glyph-name="afii10147" unicode="&#x472;" horiz-adv-x="714" 
d="M357 -12c-201 0 -317 125 -317 350c0 259 134 370 317 370c187 0 316 -116 316 -371c0 -225 -116 -349 -316 -349zM357 57c74 0 121 44 125 255h-251c5 -207 49 -255 126 -255zM357 632c-81 0 -121 -56 -126 -243h251c-6 186 -46 243 -125 243z" />
    <glyph glyph-name="afii10195" unicode="&#x473;" horiz-adv-x="589" 
d="M554 267c0 -198 -123 -280 -263 -280c-163 0 -256 98 -256 268c0 161 101 271 266 271c145 0 253 -79 253 -259zM296 52c50 0 76 51 80 183h-163c1 -128 19 -183 83 -183zM294 459c-51 0 -78 -38 -81 -174h163c-2 132 -29 174 -82 174z" />
    <glyph glyph-name="afii10148" unicode="&#x474;" horiz-adv-x="710" 
d="M573 493l-150 -493h-137l-204 588c-17 48 -28 54 -62 59v49h298v-49c-40 0 -56 -15 -56 -37c0 -5 2 -13 5 -21l100 -327c13 -43 22 -94 24 -113h6c2 21 11 70 24 115l83 292c29 103 72 148 190 152l14 -129l-45 -6c-52 -7 -72 -20 -90 -80z" />
    <glyph glyph-name="afii10196" unicode="&#x475;" horiz-adv-x="583" 
d="M342 215l49 165c28 95 58 143 184 146l12 -117l-31 -4c-47 -6 -71 -24 -85 -64l-124 -346h-127l-158 409c-18 47 -29 55 -62 60v49h283v-49c-41 0 -56 -13 -56 -34c0 -7 3 -15 6 -24l65 -191c12 -37 16 -63 18 -76h6c1 8 10 42 20 76z" />
    <glyph glyph-name="afii10050" unicode="&#x490;" horiz-adv-x="553" 
d="M27 696h330c76 0 93 15 113 105h82l-12 -181h-276v-501c0 -57 16 -71 84 -71v-48h-321v48c49 0 66 14 66 71v455c0 57 -17 71 -66 71v51z" />
    <glyph glyph-name="afii10098" unicode="&#x491;" horiz-adv-x="473" 
d="M25 513h290c53 0 61 31 79 108h76l-10 -179h-214v-324c0 -57 12 -70 63 -70v-48h-284v48c49 0 59 13 59 70v275c0 57 -10 70 -59 70v50z" />
    <glyph glyph-name="uni0492" unicode="&#x492;" horiz-adv-x="568" 
d="M269 620v-228h128v-81h-128v-192c0 -57 17 -71 84 -71v-48h-321v48c49 0 66 14 66 71v192h-61v81h61v182c0 57 -17 71 -66 71v51h514l12 -190h-82c-21 90 -33 114 -108 114h-99z" />
    <glyph glyph-name="uni0493" unicode="&#x493;" horiz-adv-x="483" 
d="M25 513h435l10 -179h-76c-19 80 -26 108 -86 108h-62v-157h93v-50h-93v-117c0 -57 12 -70 63 -70v-48h-284v48c49 0 59 13 59 70v117h-51v50h51v108c0 57 -10 70 -59 70v50z" />
    <glyph glyph-name="uni0496" unicode="&#x496;" horiz-adv-x="1037" 
d="M842 495c-13 -57 -33 -97 -97 -118v-5c96 -10 142 -60 163 -168c14 -71 34 -127 97 -127h14v-77l-27 -180h-92c0 134 -3 166 -44 182c-68 26 -95 78 -115 165c-31 138 -45 164 -95 164h-51v-213c0 -57 14 -70 63 -70v-48h-298v48c50 0 63 13 63 70v213h-49
c-50 0 -65 -26 -96 -164c-33 -146 -97 -181 -242 -181l-16 105c67 10 76 42 90 113c22 108 68 158 164 168v5c-64 21 -80 62 -97 118c-18 59 -37 78 -93 85l-55 7l13 120c117 -4 187 -48 204 -150c21 -133 84 -150 161 -150h16v167c0 57 -13 70 -63 71v51h298v-51
c-49 -1 -63 -14 -63 -71v-167h17c74 0 139 17 161 150c17 102 84 146 203 150c5 -40 9 -80 13 -120l-55 -7c-50 -6 -78 -28 -92 -85z" />
    <glyph glyph-name="uni0497" unicode="&#x497;" horiz-adv-x="860" 
d="M817 414l-47 -5c-47 -5 -66 -28 -76 -62c-12 -44 -34 -64 -81 -78v-4c109 -4 136 -40 151 -100c13 -50 34 -90 73 -90h19v-75l-24 -145h-90c0 93 -5 125 -50 148c-41 21 -60 47 -74 109c-21 89 -37 113 -83 113h-29v-107c0 -57 10 -70 49 -70v-48h-257v48
c39 0 49 13 49 70v107h-28c-47 0 -64 -23 -84 -113c-23 -98 -64 -127 -202 -127l-13 98c42 9 57 32 69 82c15 60 42 96 152 100v4c-48 14 -69 34 -82 78c-10 34 -29 57 -77 62l-47 5l11 112c109 -4 162 -35 179 -130c12 -70 49 -100 117 -100h5v97c0 57 -11 70 -51 70v50
h261v-50c-40 0 -51 -13 -51 -70v-97h5c69 0 105 30 117 100c17 95 70 126 180 130z" />
    <glyph glyph-name="uni0498" unicode="&#x498;" horiz-adv-x="584" 
d="M249 325h-71v79h74c70 0 104 44 104 116c0 64 -30 112 -93 112c-64 0 -92 -39 -105 -116h-112v137c51 32 133 55 222 55c189 0 268 -78 268 -179c0 -78 -51 -137 -157 -156v-4c108 -13 188 -64 188 -171c0 -131 -100 -206 -265 -211l-8 -29c65 -4 98 -30 98 -78
c0 -61 -42 -85 -122 -85c-49 0 -84 12 -103 25l17 41c22 -14 45 -19 67 -19s35 7 35 26c0 23 -23 31 -57 32l1 21l19 68c-92 6 -173 30 -210 59v146h112c12 -84 43 -133 120 -133c79 0 113 57 113 133c0 90 -44 131 -135 131z" />
    <glyph glyph-name="uni0499" unicode="&#x499;" horiz-adv-x="499" 
d="M350 -120c0 -61 -42 -85 -122 -85c-48 0 -84 12 -103 25l17 41c22 -14 45 -19 67 -19s35 7 35 26c0 23 -23 31 -57 32l1 21l18 66c-71 3 -132 18 -176 44v109h114c6 -61 30 -85 75 -85c47 0 75 22 75 86c0 68 -17 88 -81 88h-44v68h47c56 0 64 35 64 80
c0 55 -14 83 -63 83c-39 0 -63 -23 -66 -84h-116v107c52 26 121 42 188 42c169 0 223 -53 223 -134c0 -63 -33 -102 -121 -119v-5c92 -8 144 -43 144 -121c0 -109 -101 -150 -210 -158l-8 -30c66 -4 99 -30 99 -78z" />
    <glyph glyph-name="uni049A" unicode="&#x49a;" horiz-adv-x="715" 
d="M419 168c-33 139 -45 163 -93 163h-62v-212c0 -57 14 -71 64 -71v-48h-301v48c49 0 66 14 66 71v455c0 57 -17 71 -66 71v51h301v-51c-50 0 -64 -14 -64 -71v-167h27c75 0 139 17 161 150c17 102 84 146 203 150l14 -119l-55 -8c-52 -8 -80 -27 -93 -84
c-13 -58 -33 -97 -97 -119v-5c96 -10 143 -60 164 -168c14 -70 26 -127 91 -127h18v-77l-27 -180h-92c0 135 -3 166 -43 183c-63 27 -93 68 -116 165z" />
    <glyph glyph-name="uni049B" unicode="&#x49b;" horiz-adv-x="608" 
d="M367 112c-21 95 -39 113 -92 113h-29v-107c0 -57 10 -70 50 -70v-48h-271v48c49 0 59 13 59 70v275c0 57 -10 70 -59 70v50h273v-50c-40 0 -52 -13 -52 -70v-97h12c69 0 106 30 118 100c17 95 70 126 180 130l9 -112l-46 -5c-48 -5 -67 -28 -77 -62
c-12 -44 -34 -64 -82 -78v-4c110 -4 141 -40 156 -100c11 -48 24 -90 65 -90h23v-75l-23 -145h-91c0 100 -7 123 -52 148c-40 22 -57 48 -71 109z" />
    <glyph glyph-name="uni049C" unicode="&#x49c;" horiz-adv-x="698" 
d="M521 495c-13 -57 -33 -96 -97 -118v-5c96 -10 143 -60 164 -168c14 -71 23 -103 89 -112l-15 -107c-146 0 -212 36 -243 183c-26 123 -36 155 -64 162l8 -170h-60v171h-39v-212c0 -57 14 -71 64 -71v-48h-301v48c49 0 66 14 66 71v455c0 57 -17 71 -66 71v51h301v-51
c-50 0 -64 -14 -64 -71v-167h39v117h60l-8 -115c48 10 81 55 97 148c17 102 84 146 203 150l14 -120l-55 -7c-52 -7 -80 -27 -93 -85z" />
    <glyph glyph-name="uni049D" unicode="&#x49d;" horiz-adv-x="610" 
d="M246 296h29v88h51l-8 -86c34 7 57 41 67 98c17 95 70 126 179 130l10 -112l-47 -5c-47 -5 -66 -28 -76 -62c-13 -44 -34 -64 -82 -78v-4c109 -4 141 -40 156 -100c12 -50 23 -73 65 -82l-13 -98c-139 0 -179 29 -202 127c-16 70 -30 108 -58 112l9 -113h-51v114h-29v-107
c0 -57 10 -70 50 -70v-48h-271v48c49 0 59 13 59 70v275c0 57 -10 70 -59 70v50h273v-50c-40 0 -52 -13 -52 -70v-97z" />
    <glyph glyph-name="uni04A0" unicode="&#x4a0;" horiz-adv-x="825" 
d="M454 331h-64v-212c0 -57 14 -71 64 -71v-48h-301v48c49 0 66 14 66 71v501h-27c-75 0 -87 -24 -108 -114h-82l13 190h439v-51c-50 0 -64 -14 -64 -71v-167h28c74 0 138 17 160 150c17 102 84 146 203 150l14 -119l-55 -7c-51 -7 -80 -29 -93 -85
c-13 -58 -33 -97 -97 -119v-5c97 -10 143 -60 165 -168c14 -71 22 -103 89 -112l-15 -107c-146 0 -211 37 -244 183c-32 139 -43 163 -91 163z" />
    <glyph glyph-name="uni04A1" unicode="&#x4a1;" horiz-adv-x="717" 
d="M391 225h-29v-107c0 -57 10 -70 50 -70v-48h-271v48c49 0 59 13 59 70v324h-25c-61 0 -67 -28 -87 -108h-76l11 179h391v-50c-40 0 -52 -13 -52 -70v-97h12c68 0 106 30 118 100c17 95 70 126 179 130l10 -112l-47 -5c-47 -5 -66 -28 -76 -62c-13 -44 -34 -64 -82 -78v-4
c110 -4 141 -39 156 -99c12 -50 23 -73 65 -82l-13 -99c-139 0 -180 29 -202 127c-22 95 -38 113 -91 113z" />
    <glyph glyph-name="uni04A2" unicode="&#x4a2;" horiz-adv-x="763" 
d="M720 -180h-91c0 136 -5 180 -42 180h-162v48c49 0 66 14 66 71v195h-227v-195c0 -57 16 -71 66 -71v-48h-303v48c49 0 66 14 66 71v455c0 57 -17 71 -66 71v51h303v-51c-50 0 -66 -14 -66 -71v-179h227v179c0 57 -17 71 -66 71v51h303v-51c-49 0 -66 -14 -66 -71v-451
c0 -32 16 -46 66 -46h20v-77z" />
    <glyph glyph-name="uni04A3" unicode="&#x4a3;" horiz-adv-x="677" 
d="M506 0h-137v48c40 0 52 13 52 70v104h-175v-104c0 -57 12 -70 52 -70v-48h-273v48c49 0 59 13 59 70v275c0 57 -10 70 -59 70v50h273v-50c-40 0 -52 -13 -52 -70v-95h175v95c0 57 -12 70 -52 70v50h273v-50c-49 0 -59 -13 -59 -70v-258c0 -43 8 -60 49 -60h30v-75
l-23 -145h-91c0 95 -7 145 -42 145z" />
    <glyph glyph-name="uni04AA" unicode="&#x4aa;" horiz-adv-x="630" 
d="M467 -128l16 -30c-33 -34 -78 -47 -126 -47c-63 0 -121 24 -121 91c0 46 30 83 103 102c-195 8 -299 138 -299 349c0 260 134 371 329 371c96 0 168 -18 218 -50v-142h-116c-16 76 -37 116 -104 116c-89 0 -136 -61 -136 -287c0 -242 57 -284 134 -284
c79 0 103 39 116 121h111v-138c-33 -26 -86 -43 -147 -51c-49 -7 -78 -53 -78 -88c0 -36 22 -49 46 -49c18 0 33 5 54 16z" />
    <glyph glyph-name="uni04AB" unicode="&#x4ab;" horiz-adv-x="498" 
d="M404 -128l16 -30c-32 -34 -77 -47 -125 -47c-63 0 -121 24 -121 91c0 45 36 88 101 103c-142 1 -240 95 -240 259c0 181 122 277 263 277c80 0 130 -16 167 -40v-114h-121c-2 63 -8 89 -45 89c-40 0 -97 -35 -97 -189c0 -147 63 -193 134 -193c43 0 73 8 114 31l27 -41
c-31 -36 -62 -52 -101 -66c-46 -17 -71 -63 -71 -97c0 -36 22 -49 46 -49c18 0 33 5 53 16z" />
    <glyph glyph-name="uni04AE" unicode="&#x4ae;" horiz-adv-x="669" 
d="M375 363h6l95 222c3 7 9 23 9 32c0 20 -15 30 -49 30v49h216v-49c-40 -5 -54 -15 -77 -63l-154 -320v-145c0 -57 17 -71 76 -71v-48h-323v48c59 0 75 14 75 71v143l-161 324c-23 46 -38 56 -72 61v49h296v-49c-32 0 -47 -13 -47 -33c0 -8 3 -18 8 -29z" />
    <glyph glyph-name="uni04AF" unicode="&#x4af;" horiz-adv-x="563" 
d="M494 404l-131 -375v-107c0 -57 10 -70 60 -70v-48h-280v48c48 0 59 13 59 70v110l-140 372c-18 47 -28 55 -62 60v49h283v-49c-41 0 -56 -13 -56 -34c0 -7 2 -16 6 -27l65 -199c12 -36 17 -63 18 -75h6c1 8 10 42 20 75l60 200c3 10 4 18 4 25c0 24 -18 35 -58 35v49h215
v-49c-40 -5 -53 -13 -69 -60z" />
    </font>
</defs>
</svg>
