<?xml version="1.0" standalone="no"?>
<!DOCTYPE svg PUBLIC "-//W3C//DTD SVG 1.1//EN" "http://www.w3.org/Graphics/SVG/1.1/DTD/svg11.dtd" >
<svg xmlns="http://www.w3.org/2000/svg" xmlns:xlink="http://www.w3.org/1999/xlink" version="1.1">
<metadata>
Created by FontForge 20170910 at Tue Dec 13 17:52:12 2005
 By Jimmy Wärting

</metadata>
<defs>
<font id="MetaPro-BookItalic" horiz-adv-x="540" >
  <font-face 
    font-family="MetaPro-BookItalic"
    font-weight="500"
    font-style="italic"
    font-stretch="normal"
    units-per-em="1000"
    panose-1="2 0 5 3 6 0 0 2 0 4"
    ascent="754"
    descent="-246"
    x-height="502"
    cap-height="688"
    bbox="-231 -286 1415 962"
    underline-thickness="20"
    underline-position="-142"
    stemh="78"
    stemv="114"
    unicode-range="U+000D-FB06"
  />
<missing-glyph horiz-adv-x="556" 
d="M40 0v688h476v-688h-476zM92 52h372v584h-372v-584z" />
    <glyph glyph-name="IJ" unicode="IJ" horiz-adv-x="536" 
d="M278 688l-147 -688h-96l146 688h97zM547 688l-121 -566c-17 -78 -30 -116 -53 -152c-32 -51 -92 -88 -151 -108l-35 57c41 17 76 45 97 72c18 23 29 54 44 125l121 572h98z" />
    <glyph glyph-name="ij" unicode="ij" horiz-adv-x="499" 
d="M240 513l-109 -513h-96l106 498zM289 652c0 -37 -29 -66 -66 -66s-67 29 -67 66s30 67 67 67s66 -30 66 -67zM475 514l-106 -501c-15 -72 -36 -116 -62 -146c-27 -31 -61 -53 -107 -71l-32 59c32 13 56 31 71 54c16 24 27 56 38 106l102 481zM523 652
c0 -37 -29 -67 -66 -67s-67 29 -67 65c0 38 30 69 67 69s66 -31 66 -67z" />
    <glyph glyph-name="uniFB00" unicode="ff" horiz-adv-x="593" 
d="M723 702l-36 -65c-22 14 -45 21 -69 21c-42 0 -73 -29 -82 -80l-14 -76h136l-40 -68h-108l-88 -444c-18 -93 -49 -155 -90 -202l-69 45c30 39 54 90 68 162l87 439h-194l-88 -444c-18 -93 -48 -155 -90 -202l-68 45c30 39 54 90 68 162l86 439h-51l13 68h51l13 67
c13 66 40 111 80 135c28 17 60 24 97 24c44 0 77 -9 102 -26l-36 -65c-21 14 -44 21 -69 21c-41 0 -73 -29 -82 -80l-14 -76h195l12 67c12 66 40 109 81 135c27 17 59 24 97 24c43 0 76 -9 102 -26z" />
    <glyph glyph-name="fi" unicode="fi" horiz-adv-x="565" 
d="M533 502l-107 -502h-96l93 434h-198l-88 -444c-18 -93 -49 -155 -90 -202l-69 45c31 39 54 90 68 162l87 439h-51l13 68h51l12 67c12 66 40 109 81 135c27 17 59 24 97 24c43 0 75 -7 101 -25l-36 -64c-19 12 -44 19 -68 19c-42 0 -73 -29 -82 -80l-14 -76h296zM584 652
c0 -37 -30 -66 -67 -66c-36 0 -66 29 -66 66s30 67 67 67s66 -30 66 -67z" />
    <glyph glyph-name="fl" unicode="fl" horiz-adv-x="568" 
d="M436 703l-36 -65c-20 13 -43 20 -68 20c-41 0 -71 -29 -81 -80l-15 -76h135l-40 -68h-107l-88 -444c-18 -93 -48 -155 -90 -202l-68 45c30 39 54 90 68 162l86 439h-51l14 68h50l13 67c13 66 40 110 80 135c28 17 60 24 98 24c42 0 75 -8 100 -25zM557 738
c3 -11 4 -26 4 -43c0 -39 -7 -89 -16 -132l-92 -428c-6 -26 -8 -42 -8 -52c0 -17 8 -25 23 -25c5 0 13 0 18 2l5 -59c-22 -9 -44 -12 -67 -12c-49 0 -76 25 -76 68c0 14 3 34 8 56l93 442c9 44 13 82 13 112c0 16 -1 29 -3 39z" />
    <glyph glyph-name="uniFB03" unicode="ffi" horiz-adv-x="858" 
d="M826 502l-107 -502h-95l92 434h-198l-87 -444c-18 -93 -49 -155 -90 -202l-69 45c30 39 54 90 68 162l86 439h-202l-88 -444c-18 -93 -48 -155 -90 -202l-68 45c30 39 54 90 68 162l86 439h-51l14 68h50l13 67c13 66 40 111 80 135c28 17 60 24 98 24c43 0 76 -9 102 -26
l-37 -65c-21 14 -44 21 -69 21c-41 0 -71 -29 -81 -80l-15 -76h203l13 67c13 66 40 111 80 135c28 17 60 24 98 24c42 0 74 -8 100 -25l-36 -65c-21 13 -43 20 -68 20c-41 0 -71 -29 -81 -80l-15 -76h296zM877 652c0 -37 -29 -66 -67 -66c-36 0 -66 29 -66 66s30 67 67 67
s66 -30 66 -67z" />
    <glyph glyph-name="uniFB04" unicode="ffl" horiz-adv-x="856" 
d="M724 703l-37 -65c-20 13 -42 20 -66 20c-42 0 -73 -29 -82 -80l-14 -76h134l-39 -68h-107l-88 -444c-18 -93 -49 -155 -90 -202l-69 45c30 39 54 90 68 162l87 439h-197l-88 -444c-18 -93 -48 -155 -90 -202l-68 45c30 39 54 90 68 162l86 439h-51l13 68h51l13 67
c13 66 40 111 80 135c28 17 60 24 97 24c44 0 77 -9 102 -26l-36 -65c-21 14 -44 21 -69 21c-41 0 -73 -29 -82 -80l-14 -76h198l12 67c12 66 40 109 81 135c27 17 59 24 97 24c42 0 74 -8 100 -25zM845 738c3 -11 4 -25 4 -42c0 -39 -7 -90 -16 -133l-92 -428
c-6 -26 -8 -42 -8 -52c0 -17 8 -25 23 -25c5 0 13 0 18 2l5 -59c-22 -9 -44 -12 -67 -12c-49 0 -76 25 -76 68c0 14 3 34 8 56l93 442c9 42 13 80 13 109c0 17 -1 31 -4 42z" />
    <glyph glyph-name=".notdef" horiz-adv-x="556" 
d="M40 0v688h476v-688h-476zM92 52h372v584h-372v-584z" />
    <glyph glyph-name=".null" horiz-adv-x="0" 
 />
    <glyph glyph-name=".null" horiz-adv-x="0" 
 />
    <glyph glyph-name="CR" unicode="&#xd;" horiz-adv-x="225" 
 />
    <glyph glyph-name="space" unicode=" " horiz-adv-x="225" 
 />
    <glyph glyph-name="exclam" unicode="!" horiz-adv-x="306" 
d="M301 702l-127 -498h-71l81 482zM176 60c0 -38 -30 -69 -67 -69s-66 31 -66 68s30 66 67 66c36 0 66 -29 66 -65z" />
    <glyph glyph-name="quotedbl" unicode="&#x22;" horiz-adv-x="337" 
d="M348 708l-53 -251h-86l53 251h86zM179 708l-53 -251h-86l53 251h86z" />
    <glyph glyph-name="numbersign" unicode="#" horiz-adv-x="569" 
d="M581 427h-111l-49 -145h87v-72h-112l-70 -210h-75l70 210h-119l-70 -210h-75l71 210h-88v72h112l48 145h-87v73h111l71 208h74l-70 -208h119l70 208h75l-70 -208h88v-73zM395 427h-119l-49 -145h119z" />
    <glyph glyph-name="dollar" unicode="$" horiz-adv-x="555" 
d="M571 643l-53 -70c-43 32 -81 48 -129 51l-48 -223l35 -14c86 -34 120 -88 120 -169c0 -115 -91 -211 -243 -229l-19 -91h-62l19 88c-78 2 -136 21 -191 57l49 75c50 -32 95 -50 159 -52l54 255l-28 11c-81 32 -119 78 -119 160c0 113 97 198 229 211l17 81h62l-17 -80
c64 -5 123 -27 165 -61zM387 198c0 46 -15 74 -68 100l-48 -226c72 16 116 64 116 126zM326 621c-63 -12 -105 -53 -105 -104c0 -44 15 -68 63 -92z" />
    <glyph glyph-name="percent" unicode="%" horiz-adv-x="852" 
d="M801 211c0 -131 -83 -221 -206 -221c-79 0 -131 41 -131 124c0 126 87 219 204 219c88 0 133 -51 133 -122zM434 574c0 -131 -84 -221 -206 -221c-80 0 -131 41 -131 124c0 126 86 219 203 219c88 0 134 -52 134 -122zM734 688l-488 -688h-77l489 688h76zM723 206
c0 45 -22 67 -68 67c-77 0 -112 -68 -112 -159c0 -48 26 -64 68 -64c73 0 112 70 112 156zM355 569c0 45 -22 67 -68 67c-76 0 -111 -69 -111 -160c0 -47 25 -63 68 -63c72 0 111 70 111 156z" />
    <glyph glyph-name="ampersand" unicode="&#x26;" horiz-adv-x="692" 
d="M627 0h-122l-48 60c-50 -46 -125 -75 -209 -75c-128 0 -204 60 -204 154c0 76 38 149 176 207c-47 49 -59 87 -59 126c0 97 87 187 219 187c95 0 157 -52 157 -123c0 -69 -38 -126 -126 -171l-53 -27l118 -146c25 31 47 138 48 143h80c-18 -88 -42 -151 -82 -206z
M416 113l-151 182c-82 -36 -119 -78 -119 -144c0 -53 41 -95 118 -95c62 0 119 25 152 57zM440 526c0 40 -30 66 -73 66c-47 0 -107 -37 -107 -92c0 -43 8 -60 54 -111c47 20 86 46 104 72c13 19 22 41 22 65z" />
    <glyph glyph-name="quotesingle" unicode="'" horiz-adv-x="268" 
d="M278 708l-53 -251h-86l53 251h86z" />
    <glyph glyph-name="parenleft" unicode="(" horiz-adv-x="330" 
d="M460 718c-83 -45 -128 -82 -164 -138c-38 -58 -67 -143 -92 -254c-16 -72 -27 -149 -27 -209c0 -105 27 -175 103 -225l-34 -51c-97 46 -160 143 -160 280c0 64 10 138 23 200c35 167 89 271 171 348c49 46 109 84 164 104z" />
    <glyph glyph-name="parenright" unicode=")" horiz-adv-x="329" 
d="M274 495c0 -64 -10 -141 -22 -200c-35 -166 -90 -270 -171 -348c-49 -47 -109 -84 -165 -104l-15 58c82 45 127 82 164 138c38 58 69 143 92 254c15 72 27 149 27 210c0 102 -26 174 -103 224l34 48c97 -46 159 -142 159 -280z" />
    <glyph glyph-name="asterisk" unicode="*" horiz-adv-x="469" 
d="M499 541l-138 -46l87 -118l-57 -44l-89 121l-85 -120l-58 44l86 117l-139 47l22 68l140 -48v146h70v-146l139 47z" />
    <glyph glyph-name="plus" unicode="+" horiz-adv-x="562" 
d="M523 306l-19 -85h-183l-40 -187h-91l40 187h-184l19 85h183l39 187h92l-40 -187h184z" />
    <glyph glyph-name="comma" unicode="," horiz-adv-x="289" 
d="M177 49c0 -55 -32 -103 -82 -147c-26 -23 -59 -38 -79 -47l-28 46c37 16 77 51 81 88c-27 3 -48 34 -48 67c0 46 34 77 78 77c45 0 78 -32 78 -84z" />
    <glyph glyph-name="hyphen" unicode="-" horiz-adv-x="346" 
d="M291 311l-18 -85h-204l19 85h203z" />
    <glyph glyph-name="period" unicode="." horiz-adv-x="287" 
d="M178 60c0 -40 -34 -74 -73 -74c-41 0 -72 34 -72 74s31 72 71 72c41 0 74 -32 74 -72z" />
    <glyph glyph-name="slash" unicode="/" horiz-adv-x="414" 
d="M487 759l-454 -909h-74l454 909h74z" />
    <glyph glyph-name="zero" unicode="0" horiz-adv-x="592" 
d="M534 327c0 -99 -44 -216 -113 -276c-49 -43 -111 -67 -180 -67c-118 0 -179 65 -179 182c0 93 38 206 101 269c50 50 115 77 190 77c118 0 181 -67 181 -185zM436 335c0 74 -34 104 -99 104c-43 0 -78 -16 -106 -47c-46 -51 -72 -160 -72 -228c0 -76 33 -106 99 -106
c41 0 76 13 103 42c48 51 75 149 75 235z" />
    <glyph glyph-name="one" unicode="1" horiz-adv-x="441" 
d="M357 511l-93 -436h91l-16 -75h-279l17 75h96l69 326c-47 -27 -93 -51 -143 -69l-13 58l202 121h69z" />
    <glyph glyph-name="two" unicode="2" horiz-adv-x="551" 
d="M492 395c0 -54 -33 -113 -91 -159c-39 -31 -96 -71 -161 -110l-89 -54c24 2 71 4 106 4h192l-36 -76h-391l17 78c10 5 168 107 266 181c45 34 76 74 76 110c0 49 -29 71 -84 71c-45 0 -98 -24 -164 -70l-35 56c87 65 159 95 240 95c94 0 154 -53 154 -126z" />
    <glyph glyph-name="three" unicode="3" horiz-adv-x="533" 
d="M479 383c0 -80 -58 -153 -150 -180c67 -13 105 -69 105 -127c0 -138 -147 -259 -396 -259c-23 0 -39 1 -58 4l-8 67c14 -2 39 -4 57 -4c86 0 169 17 221 56c46 35 79 89 79 136c0 41 -20 75 -58 87c-25 8 -49 9 -108 9h-21l15 70c6 -1 18 -1 24 -1c49 0 94 0 123 13
c48 21 72 71 72 112c0 47 -34 74 -92 74c-52 0 -112 -24 -169 -61l-33 55c77 52 154 83 233 83c99 0 164 -57 164 -134z" />
    <glyph glyph-name="four" unicode="4" horiz-adv-x="547" 
d="M472 76l-17 -76h-52c-13 0 -28 1 -28 1s-1 -15 -4 -31l-31 -146l-94 -21l34 162l9 36s-24 -1 -39 -1h-259l14 69l316 445h100l-256 -362c-21 -30 -57 -76 -61 -79c3 0 18 2 34 2h167s6 25 6 26c4 22 15 61 25 95l39 134l77 20l-42 -195c-5 -22 -8 -36 -12 -54
s-7 -27 -7 -27s20 2 34 2h47z" />
    <glyph glyph-name="five" unicode="5" horiz-adv-x="491" 
d="M451 502l-31 -79h-210l-56 -180c26 3 42 5 66 5c103 0 173 -63 173 -156c0 -10 -1 -21 -3 -32c-24 -151 -176 -245 -349 -245c-30 0 -46 3 -72 9l-3 71c24 -10 45 -14 76 -14c123 0 227 73 245 172c14 76 -32 124 -115 124c-48 0 -100 -9 -134 -21l106 346h307z" />
    <glyph glyph-name="six" unicode="6" horiz-adv-x="575" 
d="M540 632c-106 -31 -204 -87 -264 -156c-28 -32 -51 -66 -75 -117c39 30 84 47 147 47c90 0 164 -65 164 -164c0 -151 -122 -257 -267 -257c-117 0 -188 81 -188 203s59 246 170 347c94 86 204 138 304 165zM409 233c0 69 -38 101 -93 101c-42 0 -89 -17 -138 -48
c-16 -44 -21 -74 -21 -109c0 -71 40 -120 102 -120c86 0 150 72 150 176z" />
    <glyph glyph-name="seven" unicode="7" horiz-adv-x="487" 
d="M513 499l-17 -86c-14 -16 -146 -173 -226 -292c-53 -79 -119 -196 -150 -282l-116 -28c79 220 300 508 408 611c-3 -1 -50 -3 -80 -3h-260l33 80h408z" />
    <glyph glyph-name="eight" unicode="8" horiz-adv-x="584" 
d="M562 538c0 -80 -64 -147 -169 -186c6 -2 43 -21 46 -23c46 -24 76 -72 76 -123c0 -118 -104 -224 -275 -224c-126 0 -196 65 -196 157c0 104 81 173 176 207c-56 28 -83 72 -83 121c0 116 102 201 254 201c108 0 171 -58 171 -130zM416 188c0 48 -19 69 -138 125
c-78 -30 -136 -87 -136 -166c0 -58 41 -96 116 -96c103 0 158 65 158 137zM467 531c0 43 -38 70 -99 70c-80 0 -137 -42 -137 -113c0 -45 26 -68 102 -103c100 43 134 93 134 146z" />
    <glyph glyph-name="nine" unicode="9" horiz-adv-x="562" 
d="M509 319c0 -123 -57 -257 -174 -362c-95 -85 -216 -141 -324 -163l-37 59c166 33 325 147 378 269c-39 -28 -80 -44 -139 -44c-90 0 -159 76 -159 176c0 153 125 263 269 263c115 0 186 -77 186 -198zM408 325c0 72 -39 120 -101 120c-86 0 -149 -76 -149 -183
c0 -70 34 -112 91 -112c42 0 85 17 131 49c19 49 28 90 28 126z" />
    <glyph glyph-name="colon" unicode=":" horiz-adv-x="304" 
d="M186 60c0 -41 -33 -74 -72 -74c-41 0 -72 33 -72 74c0 39 31 71 71 71c41 0 73 -32 73 -71zM252 371c0 -41 -33 -73 -72 -73c-41 0 -72 32 -72 73c0 40 31 71 71 71c41 0 73 -31 73 -71z" />
    <glyph glyph-name="semicolon" unicode=";" horiz-adv-x="321" 
d="M197 49c0 -55 -32 -103 -82 -147c-26 -23 -59 -38 -79 -47l-28 46c37 16 77 51 81 88c-27 3 -48 34 -48 67c0 46 34 77 78 77c45 0 78 -32 78 -84zM253 371c0 -41 -33 -73 -72 -73c-40 0 -72 32 -72 73c0 40 32 71 72 71s72 -31 72 -71z" />
    <glyph glyph-name="less" unicode="&#x3c;" horiz-adv-x="339" 
d="M363 511l-213 -219l113 -211l-83 -52l-146 271l261 270z" />
    <glyph glyph-name="equal" unicode="=" horiz-adv-x="635" 
d="M623 428l-17 -81h-529l18 81h528zM587 259l-17 -81h-528l17 81h528z" />
    <glyph glyph-name="greater" unicode="&#x3e;" horiz-adv-x="340" 
d="M334 299l-261 -270l-68 59l213 219l-113 211l83 52z" />
    <glyph glyph-name="question" unicode="?" horiz-adv-x="446" 
d="M465 569c0 -62 -41 -123 -125 -176c-79 -50 -101 -104 -102 -174h-79c-3 90 29 165 119 221c61 38 91 71 91 108c0 47 -30 70 -77 70c-48 0 -89 -19 -134 -47l-30 62c50 35 117 65 187 65c98 0 150 -52 150 -129zM240 58c0 -38 -30 -68 -67 -68s-66 30 -66 67
s29 67 66 67s67 -30 67 -66z" />
    <glyph glyph-name="at" unicode="@" horiz-adv-x="926" 
d="M865 276c0 -176 -104 -290 -227 -290c-79 0 -111 41 -115 87c-35 -42 -91 -75 -150 -75c-60 0 -121 46 -121 145c0 159 93 310 274 310c49 0 92 -13 135 -36c-27 -89 -44 -179 -63 -269c-5 -21 -7 -37 -7 -50c0 -35 17 -45 50 -45c71 0 136 95 136 223
c0 155 -125 282 -309 282c-195 0 -315 -172 -315 -353c0 -177 129 -301 297 -301c54 0 102 8 144 22l18 -68c-49 -16 -106 -23 -162 -23c-211 0 -386 131 -386 370c0 235 164 420 404 420c223 0 397 -137 397 -349zM561 380c-11 5 -25 7 -42 7c-126 0 -179 -137 -179 -248
c0 -53 20 -68 54 -68c41 0 109 41 128 130z" />
    <glyph glyph-name="A" unicode="A" horiz-adv-x="572" 
d="M522 0h-103l-18 199h-243l-104 -199h-104l376 689h118zM393 279l-17 171c-4 41 -12 144 -12 147c-2 -3 -29 -60 -48 -97l-116 -221h193z" />
    <glyph glyph-name="B" unicode="B" horiz-adv-x="596" 
d="M584 538c0 -80 -50 -146 -154 -173c79 -15 114 -72 114 -144c0 -56 -29 -116 -82 -161s-105 -60 -226 -60h-196l146 688h195c150 0 203 -62 203 -150zM438 221c-1 61 -27 97 -123 97h-113l-51 -239h124c50 0 85 12 111 32c29 22 53 65 52 110zM477 520
c0 55 -29 87 -112 87h-102l-44 -209h113c46 0 79 10 100 27c28 22 45 55 45 95z" />
    <glyph glyph-name="C" unicode="C" horiz-adv-x="552" 
d="M599 642l-55 -61c-33 29 -69 40 -116 40c-71 0 -134 -37 -180 -103c-53 -76 -85 -200 -85 -286c0 -105 53 -164 153 -164c48 0 89 13 139 45l36 -66c-63 -38 -134 -58 -205 -58c-142 0 -226 95 -226 247c0 113 44 245 120 336c68 81 166 127 260 127
c65 0 122 -21 159 -57z" />
    <glyph glyph-name="D" unicode="D" horiz-adv-x="633" 
d="M607 439c0 -117 -60 -276 -139 -351c-67 -63 -136 -88 -252 -88h-176l146 688h151c105 0 157 -12 206 -57c43 -39 64 -100 64 -192zM503 432c0 55 -7 93 -25 122c-29 46 -67 56 -133 56h-78l-112 -530h72c84 0 144 24 180 71c67 87 96 215 96 281z" />
    <glyph glyph-name="E" unicode="E" horiz-adv-x="508" 
d="M567 688l-31 -79h-269l-44 -209h226l-18 -82h-226l-49 -235h292l-18 -83h-390l146 688h381z" />
    <glyph glyph-name="F" unicode="F" horiz-adv-x="436" 
d="M552 688l-32 -79h-253l-44 -208h209l-17 -79h-209l-68 -322h-98l146 688h366z" />
    <glyph glyph-name="G" unicode="G" horiz-adv-x="649" 
d="M632 627l-53 -59c-44 37 -88 50 -141 50c-59 0 -113 -24 -154 -69c-68 -74 -107 -221 -107 -319c0 -108 63 -164 157 -164c40 0 75 8 106 24l42 196h-129v80h240l-69 -324c-61 -35 -141 -54 -214 -54c-152 0 -239 104 -239 244s56 283 147 370c70 67 142 94 235 94
c74 0 134 -23 179 -69z" />
    <glyph glyph-name="H" unicode="H" horiz-adv-x="639" 
d="M645 688l-146 -688h-98l70 326h-266l-70 -326h-95l146 688h95l-60 -282h267l60 282h97z" />
    <glyph glyph-name="I" unicode="I" horiz-adv-x="277" 
d="M283 688l-147 -688h-96l146 688h97z" />
    <glyph glyph-name="J" unicode="J" horiz-adv-x="279" 
d="M285 688l-121 -566c-17 -78 -30 -116 -53 -152c-32 -51 -92 -88 -151 -108l-35 57c41 17 76 45 97 72c18 23 29 54 44 125l121 572h98z" />
    <glyph glyph-name="K" unicode="K" horiz-adv-x="571" 
d="M642 671l-317 -311l191 -351l-110 -20l-189 376l334 340zM284 688l-146 -688h-98l146 688h98z" />
    <glyph glyph-name="L" unicode="L" horiz-adv-x="465" 
d="M420 81l-32 -81h-348l146 688h98l-129 -607h265z" />
    <glyph glyph-name="M" unicode="M" horiz-adv-x="819" 
d="M786 688l-87 -688h-95l63 469c6 44 18 108 20 117c-14 -35 -34 -77 -49 -108l-240 -478h-82l-29 456c-3 47 -6 85 -5 131c-3 -10 -23 -89 -35 -131l-132 -456h-95l208 688h135l26 -422c3 -49 4 -69 1 -118c21 53 31 76 49 113l211 427h136z" />
    <glyph glyph-name="N" unicode="N" horiz-adv-x="643" 
d="M649 688l-146 -688h-101l-113 381c-25 80 -43 160 -45 178c-3 -20 -17 -110 -31 -187l-75 -372h-98l146 688h110l120 -397c21 -70 32 -146 33 -158c2 13 18 119 35 205l71 350h94z" />
    <glyph glyph-name="O" unicode="O" horiz-adv-x="688" 
d="M661 463c0 -165 -64 -341 -182 -421c-56 -38 -111 -54 -187 -54c-150 0 -220 96 -220 244c0 160 66 308 147 384c57 53 119 84 222 84c139 0 220 -87 220 -237zM555 476c0 89 -39 147 -131 147c-66 0 -119 -29 -153 -75c-56 -75 -94 -207 -94 -335
c0 -106 49 -151 134 -151c53 0 96 18 133 57c66 69 111 242 111 357z" />
    <glyph glyph-name="P" unicode="P" horiz-adv-x="559" 
d="M585 529c0 -90 -37 -164 -112 -217c-41 -29 -97 -43 -172 -43h-108l-57 -269h-96l146 688h180c78 0 129 -14 161 -38c40 -30 58 -73 58 -121zM480 508c0 66 -34 100 -128 100h-87l-55 -260h103c57 0 86 12 112 36c37 35 55 81 55 124z" />
    <glyph glyph-name="Q" unicode="Q" horiz-adv-x="689" 
d="M662 463c0 -158 -58 -326 -163 -408c-23 -18 -48 -35 -73 -45c24 -9 53 -27 73 -40c18 -12 58 -28 97 -28c21 0 42 3 47 5l-30 -63c-9 -4 -30 -10 -61 -10c-39 0 -89 25 -133 52c-50 31 -84 51 -130 62c-147 1 -216 97 -216 244c0 160 63 303 147 384
c55 53 120 84 222 84c139 0 220 -87 220 -237zM556 476c0 89 -39 147 -131 147c-66 0 -119 -29 -153 -75c-56 -75 -94 -231 -94 -335c0 -106 49 -151 134 -151c53 0 96 18 133 57c67 69 111 242 111 357z" />
    <glyph glyph-name="R" unicode="R" horiz-adv-x="550" 
d="M567 530c0 -134 -107 -223 -227 -223c27 -26 54 -63 87 -128c22 -43 61 -143 69 -170l-96 -18c-13 31 -36 84 -52 124c-34 84 -60 125 -86 158c-20 26 -33 30 -60 31l-65 -304h-97l147 688h177c139 0 203 -52 203 -158zM464 512c0 68 -37 96 -120 96h-77l-50 -239h65
c61 0 96 7 127 32c30 25 55 67 55 111z" />
    <glyph glyph-name="S" unicode="S" horiz-adv-x="574" 
d="M581 643l-53 -70c-50 37 -92 52 -152 52c-84 0 -145 -47 -145 -108c0 -49 17 -74 81 -100l74 -30c86 -35 120 -88 120 -169c0 -128 -112 -232 -296 -232c-82 0 -143 20 -200 57l49 75c52 -34 99 -52 168 -52c104 0 170 56 170 132c0 52 -18 82 -88 109l-65 25
c-81 31 -119 78 -119 160c0 123 115 213 264 213c74 0 144 -23 192 -62z" />
    <glyph glyph-name="T" unicode="T" horiz-adv-x="469" 
d="M585 688l-27 -81h-181l-129 -607h-95l129 607h-181l18 81h466z" />
    <glyph glyph-name="U" unicode="U" horiz-adv-x="638" 
d="M649 688l-101 -474c-20 -96 -36 -136 -87 -173c-44 -32 -98 -53 -189 -53c-117 0 -198 48 -198 148c0 20 2 55 9 86l99 466h97l-94 -443c-11 -53 -12 -82 -12 -100c0 -47 42 -75 111 -75c59 0 102 23 129 54c21 24 29 45 41 102l98 462h97z" />
    <glyph glyph-name="V" unicode="V" horiz-adv-x="581" 
d="M667 688l-383 -689h-93l-85 689h101l48 -420c6 -53 8 -117 7 -145c11 24 37 77 72 142l229 423h104z" />
    <glyph glyph-name="W" unicode="W" horiz-adv-x="808" 
d="M894 688l-307 -689h-119l-3 356c-1 80 3 152 8 202c-15 -40 -51 -133 -78 -197l-154 -361h-118l-17 689h100l2 -368c1 -94 -6 -166 -9 -216c19 52 49 130 82 206l164 378h108l2 -376c0 -79 -1 -171 -5 -205c14 40 53 139 86 217l155 364h103z" />
    <glyph glyph-name="X" unicode="X" horiz-adv-x="501" 
d="M587 688l-250 -328l142 -360h-112l-102 281l-206 -281h-120l291 370l-121 318h109l82 -235l169 235h118z" />
    <glyph glyph-name="Y" unicode="Y" horiz-adv-x="543" 
d="M639 688l-311 -416l-58 -272h-101l59 276l-132 412h114l67 -243c7 -26 15 -57 18 -80c15 22 34 50 54 79l174 244h116z" />
    <glyph glyph-name="Z" unicode="Z" horiz-adv-x="523" 
d="M566 621l-384 -480c-20 -25 -38 -43 -53 -61c18 1 37 2 61 2h261l-32 -82h-415v70l389 474c20 24 43 51 57 65c-14 -1 -38 -2 -71 -2h-244l33 81h398v-67z" />
    <glyph glyph-name="bracketleft" unicode="[" horiz-adv-x="292" 
d="M373 732l-15 -68h-92l-160 -752h92l-14 -68h-177l189 888h177z" />
    <glyph glyph-name="backslash" unicode="\" horiz-adv-x="418" 
d="M342 -23l-83 -19l-137 773l84 17z" />
    <glyph glyph-name="bracketright" unicode="]" horiz-adv-x="292" 
d="M308 732l-189 -888h-177l15 68h92l160 752h-92l14 68h177z" />
    <glyph glyph-name="asciicircum" unicode="^" horiz-adv-x="628" 
d="M576 292h-91l-94 321l-230 -321h-91l300 416h82z" />
    <glyph glyph-name="underscore" unicode="_" horiz-adv-x="499" 
d="M434 -75l-11 -52h-500l11 52h500z" />
    <glyph glyph-name="grave" unicode="`" horiz-adv-x="323" 
d="M372 616l-32 -53l-221 100l49 84z" />
    <glyph glyph-name="a" unicode="a" horiz-adv-x="530" 
d="M494 475c-8 -26 -21 -75 -28 -110l-43 -202c-5 -25 -8 -44 -8 -60c0 -30 10 -47 26 -64l-75 -57c-26 25 -37 51 -37 88v9c-35 -55 -92 -89 -164 -89c-69 0 -124 50 -124 159c0 104 39 217 105 283c53 53 121 83 200 83c55 0 108 -13 148 -40zM390 429
c-13 7 -33 12 -54 12c-54 0 -91 -17 -132 -65c-48 -57 -68 -154 -68 -226c0 -61 22 -84 64 -84c50 0 106 48 136 110z" />
    <glyph glyph-name="b" unicode="b" horiz-adv-x="570" 
d="M525 346c0 -121 -49 -232 -124 -298c-46 -41 -102 -60 -158 -60c-67 0 -145 17 -195 58c5 16 14 50 19 74l92 435c13 61 15 116 6 149l97 35c10 -36 6 -97 -7 -163l-14 -71c-4 -22 -16 -62 -23 -86c39 53 106 94 172 94c92 0 135 -62 135 -167zM424 345
c0 55 -23 87 -71 87c-50 0 -102 -38 -150 -103l-51 -239c22 -19 52 -28 96 -28c35 0 80 25 102 53c46 57 74 163 74 230z" />
    <glyph glyph-name="c" unicode="c" horiz-adv-x="449" 
d="M459 468l-47 -67c-29 26 -62 36 -95 36c-35 0 -72 -18 -95 -49c-35 -46 -70 -150 -70 -228c0 -66 29 -100 86 -100c39 0 80 20 117 53l35 -58c-56 -46 -106 -67 -171 -67c-112 0 -167 61 -167 171c0 117 62 241 129 298c46 39 96 58 154 58c49 0 91 -15 124 -47z" />
    <glyph glyph-name="d" unicode="d" horiz-adv-x="566" 
d="M579 718l-118 -550c-8 -39 -12 -66 -12 -86c0 -28 7 -44 19 -60l-79 -38c-18 20 -29 43 -29 79v13c-44 -56 -97 -85 -163 -85c-98 0 -144 61 -144 171c0 101 40 206 111 277c48 48 116 72 171 72c51 0 83 -7 104 -18c1 2 11 51 16 74l34 166zM421 414
c-27 16 -46 21 -89 21c-35 0 -79 -20 -107 -51c-43 -49 -75 -154 -75 -225c0 -60 23 -91 68 -91c51 0 110 34 152 106z" />
    <glyph glyph-name="e" unicode="e" horiz-adv-x="510" 
d="M483 383c0 -41 -17 -78 -46 -105c-42 -40 -108 -60 -214 -60c-23 0 -46 3 -62 3c-4 -17 -7 -41 -7 -58c0 -67 42 -101 96 -101c58 0 98 16 145 56l33 -57c-54 -50 -110 -73 -203 -73c-100 0 -171 66 -171 182c0 99 41 207 111 275c50 48 105 70 167 70
c96 0 151 -48 151 -132zM390 379c0 36 -19 65 -71 65c-60 0 -118 -56 -143 -155c11 -1 32 -2 48 -2c77 0 117 11 142 36c15 15 24 33 24 56z" />
    <glyph glyph-name="f" unicode="f" horiz-adv-x="290" 
d="M437 702l-36 -65c-21 14 -44 21 -69 21c-41 0 -73 -29 -82 -80l-14 -76h136l-40 -68h-108l-88 -444c-18 -93 -48 -155 -90 -202l-68 45c30 39 54 90 68 162l86 439h-51l13 68h50c1 5 12 61 13 67c13 67 40 109 81 135c27 17 60 24 97 24c44 0 77 -9 102 -26z" />
    <glyph glyph-name="g" unicode="g" horiz-adv-x="568" 
d="M534 474c-5 -14 -19 -60 -27 -97l-49 -235c-13 -60 -22 -122 -30 -154c-35 -145 -123 -196 -262 -196c-62 0 -117 14 -176 45l33 70c48 -28 93 -40 151 -40c93 0 139 28 160 115c6 27 18 79 20 83c-45 -55 -94 -75 -159 -75c-91 0 -142 60 -142 170c0 106 48 219 115 281
c53 49 115 75 190 75c78 0 124 -12 176 -42zM427 423c-20 10 -44 14 -76 14c-43 0 -85 -15 -118 -49c-45 -46 -81 -155 -81 -225c0 -68 27 -97 74 -97c51 0 105 34 147 107z" />
    <glyph glyph-name="h" unicode="h" horiz-adv-x="570" 
d="M514 418c0 -15 -4 -36 -9 -61l-76 -357h-90l71 338c4 18 7 36 7 47c0 33 -20 49 -51 49c-44 0 -113 -43 -164 -106l-70 -328h-92l118 553c9 39 13 72 13 99c0 20 -3 38 -7 52l97 35c4 -14 6 -32 6 -53c0 -36 -6 -79 -15 -124l-13 -61c-4 -18 -16 -63 -23 -85
c54 67 129 97 189 97c69 0 109 -40 109 -95z" />
    <glyph glyph-name="i" unicode="i" horiz-adv-x="275" 
d="M245 513l-109 -513h-96l106 498zM294 652c0 -37 -29 -66 -66 -66s-67 29 -67 66s30 67 67 67s66 -30 66 -67z" />
    <glyph glyph-name="j" unicode="j" horiz-adv-x="269" 
d="M240 514l-106 -501c-15 -72 -36 -116 -62 -146c-27 -31 -61 -53 -107 -71l-32 59c32 13 56 31 71 54c16 24 27 56 38 106l102 481zM290 659c0 -37 -29 -67 -66 -67s-67 29 -67 65c0 38 30 69 67 69s66 -31 66 -67z" />
    <glyph glyph-name="k" unicode="k" horiz-adv-x="482" 
d="M261 739c4 -13 6 -32 6 -55c0 -32 -4 -73 -14 -118l-121 -566h-92l118 556c8 36 12 70 12 99c0 19 -2 36 -6 49zM515 484l-218 -201l161 -271l-98 -23l-163 300l235 228z" />
    <glyph glyph-name="l" unicode="l" horiz-adv-x="273" 
d="M260 739c4 -13 6 -32 6 -53c0 -38 -6 -84 -14 -123l-92 -428c-6 -26 -8 -42 -8 -52c0 -17 8 -25 23 -25c5 0 13 0 18 2l5 -59c-22 -9 -44 -12 -67 -12c-49 0 -76 25 -76 68c0 14 3 34 8 56l93 442c8 39 12 73 12 100c0 20 -2 36 -6 49z" />
    <glyph glyph-name="m" unicode="m" horiz-adv-x="809" 
d="M753 415c0 -16 -4 -40 -8 -61l-75 -354h-93l73 345c4 18 6 34 6 47c0 28 -13 41 -45 41c-38 0 -96 -44 -144 -104l-70 -329h-91l72 338c5 22 9 46 9 56c0 24 -9 39 -38 39c-37 0 -97 -38 -151 -106l-69 -327h-89l75 355c7 32 10 56 10 76c0 17 -2 32 -7 48l86 38
c8 -17 12 -39 12 -61c0 -14 -2 -28 -5 -42c64 73 126 99 179 99c58 0 86 -36 87 -98c65 72 130 99 181 99c60 0 95 -43 95 -99z" />
    <glyph glyph-name="n" unicode="n" horiz-adv-x="556" 
d="M500 413c0 -13 -2 -28 -5 -42l-79 -371h-92l71 336c5 24 8 40 8 52c0 31 -15 45 -45 45c-38 0 -97 -29 -158 -106l-69 -327h-91l76 353c7 33 10 56 10 76c0 18 -2 33 -7 50l86 38c7 -18 12 -38 12 -62c0 -12 -2 -26 -5 -41c51 65 121 99 188 99c62 0 100 -39 100 -100z
" />
    <glyph glyph-name="o" unicode="o" 
d="M501 336c0 -190 -110 -348 -283 -348c-110 0 -172 66 -172 180c0 196 119 347 282 347c115 0 173 -70 173 -179zM400 343c0 73 -39 99 -88 99c-106 0 -166 -141 -166 -281c0 -71 33 -100 89 -100c108 0 165 142 165 282z" />
    <glyph glyph-name="p" unicode="p" horiz-adv-x="565" 
d="M520 350c0 -90 -36 -212 -91 -275c-48 -55 -116 -87 -182 -87c-48 0 -85 8 -114 24l-43 -203l-95 -20l121 567c6 29 9 53 9 73c0 18 -2 34 -7 50l86 38c7 -16 13 -37 13 -62c0 -12 -1 -24 -4 -38c50 63 119 95 176 95c87 0 131 -64 131 -162zM420 345c0 62 -22 86 -67 86
s-103 -35 -152 -102l-51 -239c21 -18 56 -28 94 -28c46 0 90 28 113 61c37 54 63 154 63 222z" />
    <glyph glyph-name="q" unicode="q" horiz-adv-x="564" 
d="M531 473c-8 -22 -21 -68 -30 -111l-117 -549l-92 -21l40 187c5 25 19 85 21 89c-46 -56 -98 -78 -164 -78c-88 0 -136 58 -136 168c0 108 45 220 110 281c54 50 117 77 197 77c75 0 124 -12 171 -43zM425 426c-20 11 -44 13 -78 13c-42 0 -80 -16 -114 -47
c-49 -45 -82 -161 -82 -229c1 -71 27 -97 72 -97c51 0 103 30 149 108z" />
    <glyph glyph-name="r" unicode="r" horiz-adv-x="365" 
d="M405 508l-40 -94c-10 4 -19 6 -34 6c-41 0 -87 -34 -133 -102l-67 -318h-91l72 338c8 40 12 69 12 92c0 18 -2 34 -7 49l86 38c7 -17 11 -38 11 -62c0 -15 -2 -31 -5 -48c47 66 109 107 156 107c19 0 28 -2 40 -6z" />
    <glyph glyph-name="s" unicode="s" horiz-adv-x="472" 
d="M442 480l-37 -68c-41 23 -77 36 -119 36c-60 0 -104 -24 -104 -69c0 -31 13 -48 54 -65l62 -25c70 -28 104 -66 104 -123c0 -107 -89 -181 -225 -181c-66 0 -131 19 -179 51l38 69c44 -30 97 -48 152 -48c63 0 111 32 111 79c0 37 -16 56 -64 76l-58 24
c-65 27 -97 61 -97 121c0 90 79 163 212 163c55 0 112 -15 150 -40z" />
    <glyph glyph-name="t" unicode="t" horiz-adv-x="308" 
d="M360 502l-35 -68h-103l-60 -283c-4 -21 -7 -38 -7 -52c0 -34 15 -46 49 -46c20 0 36 4 52 10v-57c-31 -14 -63 -21 -98 -21c-63 0 -96 31 -96 83c0 24 1 44 7 71l62 295h-61l13 68h62c10 42 22 86 34 124l100 22c-14 -39 -32 -101 -41 -146h122z" />
    <glyph glyph-name="u" unicode="u" horiz-adv-x="555" 
d="M523 511l-77 -363c-5 -23 -7 -41 -7 -57c0 -24 6 -43 19 -62l-75 -49c-22 23 -34 49 -34 87v12c-56 -64 -118 -95 -179 -95c-69 0 -110 32 -110 101c0 23 3 51 8 75l72 336l94 17l-70 -333c-6 -27 -9 -50 -9 -66c0 -39 14 -54 45 -54c47 0 115 41 161 114l68 320z" />
    <glyph glyph-name="v" unicode="v" horiz-adv-x="462" 
d="M518 501l-294 -505h-85l-75 501l94 17l39 -315c4 -32 6 -70 6 -95c0 1 1 1 1 1c12 30 25 56 46 95l167 302z" />
    <glyph glyph-name="w" unicode="w" horiz-adv-x="686" 
d="M733 502l-250 -505h-87l-13 196c-4 61 -10 163 -10 201h-1c-3 -9 -19 -53 -45 -106l-143 -291h-87l-32 499l93 17l8 -296c1 -49 -1 -89 -2 -102h2c5 14 22 54 44 99l140 288h95l14 -290c2 -45 3 -79 3 -103h1c5 16 26 67 39 96l132 297h99z" />
    <glyph glyph-name="x" unicode="x" horiz-adv-x="423" 
d="M470 502l-200 -230l131 -272h-109c-6 18 -81 196 -82 204c-5 -8 -158 -193 -167 -204h-115l246 276l-104 220l105 9c4 -10 59 -151 62 -163c5 10 117 152 122 160h111z" />
    <glyph glyph-name="y" unicode="y" horiz-adv-x="474" 
d="M520 502l-247 -447c-60 -108 -96 -183 -149 -221c-28 -20 -67 -37 -106 -44l-20 63c29 4 64 24 88 42c27 21 47 52 70 105l-33 -3c0 34 -6 122 -12 170l-42 328l96 17l32 -314c4 -36 4 -87 3 -121h1c1 5 35 73 58 119l157 306h104z" />
    <glyph glyph-name="z" unicode="z" horiz-adv-x="416" 
d="M428 436l-337 -368h263l-37 -68h-348l2 66l340 365h-229l3 71h343v-66z" />
    <glyph glyph-name="braceleft" unicode="{" horiz-adv-x="348" 
d="M429 732l-16 -74h-53c-47 0 -61 -38 -69 -75l-36 -172c-19 -91 -87 -117 -116 -122l-1 -2c24 -3 68 -19 68 -84c0 -11 -1 -24 -4 -38l-36 -172c-3 -11 -4 -22 -4 -33c0 -23 9 -42 41 -42h53l-16 -74h-79c-47 0 -87 31 -87 94c0 11 1 23 4 36l37 175c2 9 3 17 3 25
c0 52 -41 77 -73 77l15 74c38 0 100 34 114 102l37 175c18 87 85 130 139 130h79z" />
    <glyph glyph-name="bar" unicode="|" horiz-adv-x="301" 
d="M322 757l-205 -964h-81l205 964h81z" />
    <glyph glyph-name="braceright" unicode="}" horiz-adv-x="348" 
d="M326 325l-15 -74c-39 0 -99 -33 -114 -102l-37 -175c-18 -87 -83 -130 -139 -130h-79l16 74h53c47 0 61 39 69 75l37 171c21 98 87 120 115 123l1 2c-23 4 -68 24 -68 87c0 10 1 22 4 35l36 172c3 12 4 23 4 34c0 23 -9 41 -41 41h-53l16 74h80c44 0 86 -32 86 -95
c0 -11 -1 -22 -4 -35l-37 -175c-2 -9 -3 -17 -3 -24c0 -52 40 -78 73 -78z" />
    <glyph glyph-name="asciitilde" unicode="~" horiz-adv-x="600" 
d="M540 315c-36 -40 -85 -87 -142 -87c-83 0 -131 67 -198 67c-44 0 -81 -31 -105 -65l-24 59l-1 1c34 39 86 88 146 88c76 0 128 -68 200 -68c48 0 77 35 100 67z" />
    <glyph glyph-name="uni00A0" unicode="&#xa0;" horiz-adv-x="225" 
 />
    <glyph glyph-name="exclamdown" unicode="&#xa1;" horiz-adv-x="306" 
d="M199 288l-81 -482l-117 -16l128 498h70zM260 433c0 -37 -29 -67 -67 -67c-36 0 -66 30 -66 66c0 38 30 68 67 68s66 -30 66 -67z" />
    <glyph glyph-name="cent" unicode="&#xa2;" horiz-adv-x="452" 
d="M461 466l-55 -64c-13 16 -33 26 -54 32l-79 -370c25 6 66 31 85 51l35 -59c-50 -40 -92 -59 -136 -65l-17 -86h-62l17 84c-59 6 -101 30 -123 73c-14 28 -21 62 -21 99c0 24 3 49 8 74c23 112 80 191 140 236c36 27 68 37 107 43l18 83h63l-18 -85c28 -3 65 -19 92 -46z
M290 435c-30 -10 -58 -31 -74 -55c-23 -34 -42 -78 -55 -140c-7 -32 -10 -58 -10 -80c0 -59 23 -86 60 -98z" />
    <glyph glyph-name="sterling" unicode="&#xa3;" horiz-adv-x="557" 
d="M639 655l-74 -67c-24 30 -60 45 -100 45c-96 0 -139 -68 -159 -162l-15 -70h160l-16 -76h-160l-50 -238h247l-18 -87h-454l19 87h105l50 238h-96l16 76h96l16 77c34 164 141 242 275 242c63 0 121 -20 158 -65z" />
    <glyph glyph-name="currency" unicode="&#xa4;" horiz-adv-x="457" 
d="M440 452l-56 -65c9 -10 18 -33 18 -66c0 -53 -20 -129 -67 -168l31 -65l-80 -45c-2 4 -27 62 -28 65c-17 -6 -38 -9 -59 -9s-42 3 -58 9c-4 -6 -52 -67 -52 -67l-70 52l59 65c-9 14 -15 36 -15 62c0 60 29 135 71 172l-31 63l83 44c2 -4 24 -59 26 -64c15 4 34 6 53 6
c20 0 40 -2 54 -7c4 6 51 67 51 67zM316 263c4 19 6 37 6 52c0 43 -18 67 -68 67c-63 0 -93 -47 -105 -104c-4 -19 -6 -36 -6 -51c0 -45 20 -68 69 -68c59 0 91 43 104 104z" />
    <glyph glyph-name="yen" unicode="&#xa5;" 
d="M636 688l-228 -304h138l-15 -70h-175l-32 -42l-10 -49h198l-16 -70h-197l-33 -153h-100l32 153h-187l15 70h188l11 53l-13 38h-167l15 70h130l-97 304h110l68 -243c7 -26 15 -57 18 -80c15 22 33 50 54 79l173 244h120z" />
    <glyph glyph-name="brokenbar" unicode="&#xa6;" horiz-adv-x="262" 
d="M283 757l-87 -411h-81l87 411h81zM165 204l-87 -411h-81l87 411h81z" />
    <glyph glyph-name="section" unicode="&#xa7;" horiz-adv-x="532" 
d="M549 629l-91 -47c-10 42 -44 61 -96 61c-59 0 -113 -38 -113 -90c0 -25 16 -48 46 -64l80 -43c63 -34 117 -72 117 -140c0 -73 -52 -128 -115 -159c27 -22 44 -53 44 -90c0 -110 -93 -203 -254 -203c-90 0 -162 36 -179 124l90 40c5 -57 51 -80 112 -80
c73 0 121 40 121 96c0 41 -48 62 -83 82l-105 61c-34 20 -54 56 -54 98c0 81 59 137 132 171c-33 22 -53 49 -53 92c0 115 112 189 228 189c78 0 154 -27 173 -98zM396 280c0 42 -40 68 -72 85l-64 35c-48 -16 -94 -44 -94 -97c0 -38 33 -57 66 -75l82 -44
c39 15 82 54 82 96z" />
    <glyph glyph-name="dieresis" unicode="&#xa8;" horiz-adv-x="427" 
d="M458 625c0 -33 -26 -60 -58 -60c-33 0 -60 27 -60 60c0 32 26 58 59 58c32 0 59 -26 59 -58zM250 625c0 -33 -26 -60 -58 -60c-33 0 -59 27 -59 60c0 32 26 58 58 58c33 0 59 -26 59 -58z" />
    <glyph glyph-name="copyright" unicode="&#xa9;" horiz-adv-x="873" 
d="M831 355c0 -209 -168 -372 -369 -372c-202 0 -368 163 -368 372s166 372 368 372c201 0 369 -163 369 -372zM759 355c0 175 -133 311 -297 311c-165 0 -296 -136 -296 -311c0 -174 131 -312 296 -312c164 0 297 138 297 312zM580 178c-33 -25 -69 -37 -114 -37
c-55 0 -99 21 -131 60c-31 38 -47 88 -47 148c0 50 9 92 27 126c31 60 88 96 153 96c40 0 79 -12 103 -33l-31 -45c-23 16 -45 23 -71 23c-36 0 -65 -18 -83 -50c-14 -25 -22 -60 -22 -109c0 -51 6 -80 17 -103c18 -40 52 -59 92 -59c29 0 51 8 74 27z" />
    <glyph glyph-name="ordfeminine" unicode="&#xaa;" horiz-adv-x="438" 
d="M462 734c-7 -22 -17 -59 -22 -84l-31 -152c-4 -17 -5 -30 -5 -41c0 -21 7 -33 21 -48l-62 -47c-22 20 -31 39 -32 65c-26 -36 -67 -58 -117 -58c-51 0 -97 38 -97 122c0 77 29 162 79 212c40 40 93 62 152 62c42 0 82 -9 114 -31zM375 695c-8 5 -21 7 -34 7
c-39 0 -67 -12 -96 -46c-35 -42 -49 -111 -49 -164c0 -41 15 -57 44 -57c36 0 75 34 97 79zM404 300l-13 -60h-326l13 60h326z" />
    <glyph glyph-name="guillemotleft" unicode="&#xab;" horiz-adv-x="535" 
d="M325 416l-169 -180l85 -173l-70 -40l-109 222l202 216zM525 416l-169 -180l86 -173l-71 -40l-108 222l201 216z" />
    <glyph glyph-name="logicalnot" unicode="&#xac;" horiz-adv-x="505" 
d="M466 293l-47 -221h-85l30 140h-318l17 81h403z" />
    <glyph glyph-name="uni00AD" unicode="&#xad;" horiz-adv-x="346" 
d="M291 311l-18 -85h-204l19 85h203z" />
    <glyph glyph-name="registered" unicode="&#xae;" horiz-adv-x="873" 
d="M831 355c0 -209 -168 -372 -369 -372c-202 0 -368 163 -368 372s166 372 368 372c201 0 369 -163 369 -372zM759 355c0 175 -133 311 -297 311c-165 0 -296 -136 -296 -311c0 -174 131 -312 296 -312c164 0 297 138 297 312zM627 148h-82l-36 65c-28 51 -48 79 -71 102
c-8 8 -14 12 -27 13v-180h-68v416h127c93 0 135 -54 135 -119c0 -64 -41 -114 -103 -114c15 -8 42 -48 64 -83zM533 444c0 42 -23 64 -84 64h-38v-132h36c36 0 54 5 67 18c12 12 19 29 19 50z" />
    <glyph glyph-name="macron" unicode="&#xaf;" horiz-adv-x="325" 
d="M412 739l-13 -60h-284l13 60h284z" />
    <glyph glyph-name="degree" unicode="&#xb0;" horiz-adv-x="418" 
d="M373 525c-20 -103 -100 -168 -197 -168c-103 0 -151 65 -131 170c20 104 98 169 195 169c105 0 153 -65 133 -171zM295 521c17 88 -7 118 -65 118c-59 0 -93 -36 -107 -108c-17 -87 6 -117 65 -117s93 36 107 107z" />
    <glyph glyph-name="plusminus" unicode="&#xb1;" horiz-adv-x="485" 
d="M464 373l-18 -82h-150l-30 -141h-84l29 141h-150l18 82h150l29 134h84l-28 -134h150zM405 109l-17 -82h-380l17 82h380z" />
    <glyph glyph-name="twosuperior" unicode="&#xb2;" horiz-adv-x="340" 
d="M370 560c0 -85 -87 -153 -146 -202c-21 -17 -48 -35 -64 -47c8 0 22 1 30 1h139l-30 -62h-254l10 47c31 19 71 50 114 87c37 32 115 101 115 158c0 27 -18 43 -46 43c-36 0 -68 -21 -100 -39l-30 42c63 44 112 63 162 63c61 0 100 -38 100 -91z" />
    <glyph glyph-name="threesuperior" unicode="&#xb3;" horiz-adv-x="353" 
d="M383 567c0 -47 -30 -86 -72 -105c28 -14 47 -37 47 -69c0 -67 -72 -122 -128 -143c-33 -12 -77 -19 -121 -19c-15 0 -27 0 -42 2l-7 58c28 -5 32 -6 48 -6c50 0 89 9 125 35c23 16 41 42 41 71c0 18 -10 32 -28 38c-13 4 -20 5 -64 5h-22l13 59h15c42 0 112 -3 112 58
c0 22 -16 36 -47 36c-32 0 -63 -14 -102 -38l-31 45c44 33 104 57 155 57c64 0 108 -33 108 -84z" />
    <glyph glyph-name="acute" unicode="&#xb4;" horiz-adv-x="347" 
d="M389 663l-229 -101l-29 54l214 131z" />
    <glyph glyph-name="mu" unicode="&#xb5;" horiz-adv-x="564" 
d="M532 511l-77 -363c-6 -28 -9 -48 -9 -64c0 -23 6 -35 18 -50l-73 -53c-24 23 -34 42 -35 72c-47 -46 -102 -69 -166 -69c-22 0 -45 6 -56 17c-1 -4 -3 -15 -6 -30c-9 -41 -35 -163 -35 -162l-95 -20l149 707l97 18l-75 -352c-4 -20 -6 -36 -6 -48c0 -17 4 -27 13 -36
c12 -11 33 -18 54 -18c45 0 101 33 133 79l75 355z" />
    <glyph glyph-name="paragraph" unicode="&#xb6;" horiz-adv-x="599" 
d="M610 708l-177 -834h-77l163 766h-115l-163 -766h-77l95 448c-108 0 -174 62 -174 147c0 144 117 239 276 239h249z" />
    <glyph glyph-name="periodcentered" unicode="&#xb7;" horiz-adv-x="307" 
d="M234 278c0 -40 -32 -72 -72 -72s-72 32 -72 72s32 72 72 72s72 -32 72 -72z" />
    <glyph glyph-name="cedilla" unicode="&#xb8;" horiz-adv-x="242" 
d="M140 -109c-7 -42 -51 -89 -119 -89c-30 0 -60 13 -78 24l34 51c21 -10 34 -15 56 -15c17 0 36 10 39 28v4c0 14 -13 23 -29 23s-39 -2 -39 -2l46 97l61 -7l-22 -44c40 -6 52 -27 52 -54c0 -5 0 -10 -1 -16z" />
    <glyph glyph-name="onesuperior" unicode="&#xb9;" horiz-adv-x="322" 
d="M312 644l-71 -332h59l-13 -62h-197l13 62h63l52 242c-30 -17 -63 -28 -95 -38l-10 43l145 85h54z" />
    <glyph glyph-name="ordmasculine" unicode="&#xba;" horiz-adv-x="440" 
d="M465 628c0 -142 -83 -261 -213 -261c-84 0 -131 53 -131 139c0 147 89 259 212 259c88 0 132 -54 132 -137zM382 633c0 51 -28 69 -61 69c-76 0 -118 -101 -118 -202c0 -49 22 -71 61 -71c78 0 118 103 118 204zM400 300l-13 -60h-326l13 60h326z" />
    <glyph glyph-name="guillemotright" unicode="&#xbb;" horiz-adv-x="535" 
d="M277 239l-201 -216l-61 46l168 180l-85 173l71 39zM477 239l-201 -216l-61 46l169 180l-86 173l71 39z" />
    <glyph glyph-name="onequarter" unicode="&#xbc;" horiz-adv-x="952" 
d="M895 764l-719 -917h-73l718 917h74zM899 133l-13 -62h-42l-6 1c-1 -3 0 -9 -1 -13l-14 -63l-77 -16l17 80c1 3 2 8 3 12c-4 0 -9 -1 -13 -1h-166l11 51l198 273h82c-26 -36 -127 -183 -192 -263l13 1h74l6 -1c0 15 6 31 12 49l30 100l66 16l-30 -144c-1 -6 -5 -15 -7 -21
l6 1h43zM314 644l-71 -332h59l-13 -62h-197l13 62h63l52 242c-30 -17 -63 -28 -95 -38l-10 43l145 85h54z" />
    <glyph glyph-name="onehalf" unicode="&#xbd;" horiz-adv-x="934" 
d="M875 764l-719 -917h-73l718 917h74zM907 310c0 -85 -87 -153 -146 -202c-21 -17 -49 -35 -65 -47c8 0 23 1 31 1h139l-30 -62h-254l10 47c31 19 70 50 113 87c37 32 116 101 116 158c0 27 -18 43 -46 43c-36 0 -68 -21 -100 -39l-30 42c63 44 112 63 162 63
c61 0 100 -38 100 -91zM314 644l-71 -332h59l-13 -62h-197l13 62h63l52 242c-30 -17 -63 -28 -95 -38l-10 43l145 85h54z" />
    <glyph glyph-name="threequarters" unicode="&#xbe;" horiz-adv-x="993" 
d="M932 764l-719 -917h-73l718 917h74zM939 133l-13 -62h-42l-6 1c-1 -3 0 -9 -1 -13l-14 -63l-77 -16l17 80c1 3 2 8 3 12c-4 0 -9 -1 -13 -1h-166l11 51l198 273h82c-26 -36 -127 -183 -192 -263l13 1h74l6 -1c0 15 6 31 12 49l30 100l66 16l-30 -144c-1 -6 -5 -15 -7 -21
l6 1h43zM382 567c0 -47 -30 -86 -72 -105c28 -14 47 -37 47 -69c0 -67 -72 -122 -128 -143c-33 -12 -77 -19 -121 -19c-15 0 -27 0 -42 2l-7 58c28 -5 32 -6 48 -6c50 0 89 9 125 35c23 16 41 42 41 71c0 18 -10 32 -28 38c-13 4 -20 5 -64 5h-22l13 59h15
c42 0 112 -3 112 58c0 22 -16 36 -47 36c-32 0 -63 -14 -102 -38l-31 45c44 33 104 57 155 57c64 0 108 -33 108 -84z" />
    <glyph glyph-name="questiondown" unicode="&#xbf;" horiz-adv-x="446" 
d="M324 -142c-51 -36 -119 -66 -189 -66c-96 0 -150 50 -150 127c0 66 42 124 125 176c79 50 101 103 102 173h79c3 -91 -27 -164 -118 -220c-68 -42 -91 -71 -91 -107c0 -46 31 -69 78 -69c46 0 86 15 133 46zM344 432c0 -37 -30 -66 -67 -66c-36 0 -66 29 -66 65
c0 38 30 69 67 69s66 -31 66 -68z" />
    <glyph glyph-name="Agrave" unicode="&#xc0;" horiz-adv-x="572" 
d="M527 0h-103l-18 199h-243l-104 -199h-104l376 689h118zM398 279l-17 171c-4 41 -12 144 -12 147c-2 -3 -29 -60 -48 -97l-116 -221h193zM476 777l-32 -53l-221 100l49 84z" />
    <glyph glyph-name="Aacute" unicode="&#xc1;" horiz-adv-x="572" 
d="M527 0h-103l-18 199h-243l-104 -199h-104l376 689h118zM398 279l-17 171c-4 41 -12 144 -12 147c-2 -3 -29 -60 -48 -97l-116 -221h193zM566 824l-229 -101l-29 54l214 131z" />
    <glyph glyph-name="Acircumflex" unicode="&#xc2;" horiz-adv-x="572" 
d="M527 0h-103l-18 199h-243l-104 -199h-104l376 689h118zM398 279l-17 171c-4 41 -12 144 -12 147c-2 -3 -29 -60 -48 -97l-116 -221h193zM561 771l-40 -51l-121 83l-153 -83l-33 51l201 135z" />
    <glyph glyph-name="Atilde" unicode="&#xc3;" horiz-adv-x="572" 
d="M527 0h-103l-18 199h-243l-104 -199h-104l376 689h118zM398 279l-17 171c-4 41 -12 144 -12 147c-2 -3 -29 -60 -48 -97l-116 -221h193zM559 813c-42 -41 -77 -64 -136 -64s-63 38 -120 38c-32 0 -50 -17 -76 -39l-23 53c42 41 76 64 133 64c60 0 64 -38 122 -38
c32 0 52 16 77 38z" />
    <glyph glyph-name="Adieresis" unicode="&#xc4;" horiz-adv-x="572" 
d="M527 0h-103l-18 199h-243l-104 -199h-104l376 689h118zM398 279l-17 171c-4 41 -12 144 -12 147c-2 -3 -29 -60 -48 -97l-116 -221h193zM341 786c0 -33 -26 -60 -58 -60c-33 0 -59 27 -59 60c0 32 26 58 58 58c33 0 59 -26 59 -58zM549 786c0 -33 -26 -60 -58 -60
c-33 0 -59 27 -59 60c0 32 26 58 58 58c33 0 59 -26 59 -58z" />
    <glyph glyph-name="Aring" unicode="&#xc5;" horiz-adv-x="572" 
d="M527 0h-103l-18 199h-243l-104 -199h-104l376 689h118zM398 279l-17 171c-4 41 -12 144 -12 147c-2 -3 -29 -60 -48 -97l-116 -221h193zM503 819c0 -59 -47 -106 -106 -106s-106 47 -106 106s47 106 106 106s106 -47 106 -106zM452 819c0 31 -24 56 -55 56
s-55 -25 -55 -56s24 -56 55 -56s55 25 55 56z" />
    <glyph glyph-name="AE" unicode="&#xc6;" horiz-adv-x="813" 
d="M872 688l-30 -79h-265l-44 -209h226l-17 -82h-225l-50 -235h293l-18 -83h-391l42 199h-215l-163 -199h-115l567 688h405zM473 576c0 0 -222 -286 -231 -297h168z" />
    <glyph glyph-name="Ccedilla" unicode="&#xc7;" horiz-adv-x="552" 
d="M599 642l-55 -61c-33 29 -69 40 -116 40c-71 0 -134 -37 -180 -103c-53 -76 -85 -200 -85 -286c0 -105 53 -164 153 -164c48 0 89 13 139 45l36 -66c-63 -38 -135 -58 -205 -58l-15 -28c41 -6 56 -26 56 -54c0 -4 0 -8 -1 -13c-6 -42 -55 -88 -123 -88
c-30 0 -60 9 -78 20l28 47c22 -10 35 -15 57 -15c19 0 39 10 44 32v4c0 12 -12 22 -35 22c-16 0 -33 -2 -35 -3l41 83c-105 23 -165 111 -165 240c0 122 37 237 120 336c68 81 166 127 260 127c65 0 122 -21 159 -57z" />
    <glyph glyph-name="Egrave" unicode="&#xc8;" horiz-adv-x="508" 
d="M572 688l-31 -79h-269l-44 -209h226l-18 -82h-226l-49 -235h292l-18 -83h-390l146 688h381zM483 777l-32 -53l-221 100l49 84z" />
    <glyph glyph-name="Eacute" unicode="&#xc9;" horiz-adv-x="508" 
d="M572 688l-31 -79h-269l-44 -209h226l-18 -82h-226l-49 -235h292l-18 -83h-390l146 688h381zM536 824l-229 -101l-29 54l214 131z" />
    <glyph glyph-name="Ecircumflex" unicode="&#xca;" horiz-adv-x="508" 
d="M572 688l-31 -79h-269l-44 -209h226l-18 -82h-226l-49 -235h292l-18 -83h-390l146 688h381zM561 771l-40 -51l-121 83l-153 -83l-33 51l201 135z" />
    <glyph glyph-name="Edieresis" unicode="&#xcb;" horiz-adv-x="508" 
d="M572 688l-31 -79h-269l-44 -209h226l-18 -82h-226l-49 -235h292l-18 -83h-390l146 688h381zM342 786c0 -33 -26 -60 -58 -60c-33 0 -59 27 -59 60c0 32 26 58 58 58c33 0 59 -26 59 -58zM550 786c0 -33 -26 -60 -58 -60c-33 0 -59 27 -59 60c0 32 26 58 58 58
c33 0 59 -26 59 -58z" />
    <glyph glyph-name="Igrave" unicode="&#xcc;" horiz-adv-x="277" 
d="M288 688l-147 -688h-96l146 688h97zM323 777l-32 -53l-221 100l49 84z" />
    <glyph glyph-name="Iacute" unicode="&#xcd;" horiz-adv-x="277" 
d="M288 688l-147 -688h-96l146 688h97zM423 824l-229 -101l-29 54l214 131z" />
    <glyph glyph-name="Icircumflex" unicode="&#xce;" horiz-adv-x="277" 
d="M288 688l-147 -688h-96l146 688h97zM422 771l-40 -51l-121 83l-153 -83l-33 51l201 135z" />
    <glyph glyph-name="Idieresis" unicode="&#xcf;" horiz-adv-x="277" 
d="M288 688l-147 -688h-96l146 688h97zM199 786c0 -33 -26 -60 -58 -60c-33 0 -59 27 -59 60c0 32 26 58 58 58c33 0 59 -26 59 -58zM407 786c0 -33 -26 -60 -58 -60c-33 0 -59 27 -59 60c0 32 26 58 58 58c33 0 59 -26 59 -58z" />
    <glyph glyph-name="Eth" unicode="&#xd0;" horiz-adv-x="633" 
d="M607 439c0 -117 -60 -276 -139 -351c-67 -63 -136 -88 -252 -88h-176l67 316h-82l15 69h82l64 303h151c105 0 157 -12 206 -57c43 -39 64 -100 64 -192zM503 432c0 55 -7 93 -25 122c-29 46 -67 56 -133 56h-78l-48 -225h146l-39 -69h-121l-50 -236h72
c84 0 144 24 180 71c67 87 96 215 96 281z" />
    <glyph glyph-name="Ntilde" unicode="&#xd1;" horiz-adv-x="643" 
d="M654 688l-146 -688h-101l-113 381c-25 80 -43 160 -45 178c-3 -20 -17 -110 -31 -187l-75 -372h-98l146 688h110l120 -397c21 -70 32 -146 33 -158c2 13 18 119 35 205l71 350h94zM603 815c-42 -41 -77 -64 -136 -64s-63 38 -120 38c-32 0 -50 -17 -76 -39l-23 53
c42 41 76 64 133 64c60 0 64 -38 122 -38c32 0 52 16 77 38z" />
    <glyph glyph-name="Ograve" unicode="&#xd2;" horiz-adv-x="688" 
d="M666 463c0 -165 -64 -341 -182 -421c-56 -38 -111 -54 -187 -54c-150 0 -220 96 -220 244c0 160 66 308 147 384c57 53 119 84 222 84c139 0 220 -87 220 -237zM560 476c0 89 -39 147 -131 147c-66 0 -119 -29 -153 -75c-56 -75 -94 -207 -94 -335
c0 -106 49 -151 134 -151c53 0 96 18 133 57c66 69 111 242 111 357zM534 777l-32 -53l-221 100l49 84z" />
    <glyph glyph-name="Oacute" unicode="&#xd3;" horiz-adv-x="688" 
d="M666 463c0 -165 -64 -341 -182 -421c-56 -38 -111 -54 -187 -54c-150 0 -220 96 -220 244c0 160 66 308 147 384c57 53 119 84 222 84c139 0 220 -87 220 -237zM560 476c0 89 -39 147 -131 147c-66 0 -119 -29 -153 -75c-56 -75 -94 -207 -94 -335
c0 -106 49 -151 134 -151c53 0 96 18 133 57c66 69 111 242 111 357zM602 824l-229 -101l-29 54l214 131z" />
    <glyph glyph-name="Ocircumflex" unicode="&#xd4;" horiz-adv-x="688" 
d="M666 463c0 -165 -64 -341 -182 -421c-56 -38 -111 -54 -187 -54c-150 0 -220 96 -220 244c0 160 66 308 147 384c57 53 119 84 222 84c139 0 220 -87 220 -237zM560 476c0 89 -39 147 -131 147c-66 0 -119 -29 -153 -75c-56 -75 -94 -207 -94 -335
c0 -106 49 -151 134 -151c53 0 96 18 133 57c66 69 111 242 111 357zM619 771l-40 -51l-121 83l-153 -83l-33 51l201 135z" />
    <glyph glyph-name="Otilde" unicode="&#xd5;" horiz-adv-x="688" 
d="M666 463c0 -165 -64 -341 -182 -421c-56 -38 -111 -54 -187 -54c-150 0 -220 96 -220 244c0 160 66 308 147 384c57 53 119 84 222 84c139 0 220 -87 220 -237zM560 476c0 89 -39 147 -131 147c-66 0 -119 -29 -153 -75c-56 -75 -94 -207 -94 -335
c0 -106 49 -151 134 -151c53 0 96 18 133 57c66 69 111 242 111 357zM629 813c-42 -41 -77 -64 -136 -64s-63 38 -120 38c-32 0 -50 -17 -76 -39l-23 53c42 41 76 64 133 64c60 0 64 -38 122 -38c32 0 52 16 77 38z" />
    <glyph glyph-name="Odieresis" unicode="&#xd6;" horiz-adv-x="688" 
d="M666 463c0 -165 -64 -341 -182 -421c-56 -38 -111 -54 -187 -54c-150 0 -220 96 -220 244c0 160 66 308 147 384c57 53 119 84 222 84c139 0 220 -87 220 -237zM560 476c0 89 -39 147 -131 147c-66 0 -119 -29 -153 -75c-56 -75 -94 -207 -94 -335
c0 -106 49 -151 134 -151c53 0 96 18 133 57c66 69 111 242 111 357zM406 789c0 -33 -26 -60 -58 -60c-33 0 -59 27 -59 60c0 32 26 58 58 58c33 0 59 -26 59 -58zM614 789c0 -33 -26 -60 -58 -60c-33 0 -59 27 -59 60c0 32 26 58 58 58c33 0 59 -26 59 -58z" />
    <glyph glyph-name="multiply" unicode="&#xd7;" horiz-adv-x="533" 
d="M493 404l-164 -134l108 -137l-72 -60l-108 137l-163 -135l-49 62l164 134l-108 137l72 60l108 -137l163 135z" />
    <glyph glyph-name="Oslash" unicode="&#xd8;" horiz-adv-x="668" 
d="M664 726c0 0 -63 -76 -96 -117c24 -38 37 -87 37 -146c0 -165 -66 -338 -182 -421c-56 -40 -111 -54 -187 -54c-59 0 -105 15 -140 42c-31 -37 -93 -114 -93 -114l-48 37l99 122c-25 41 -38 94 -38 157c0 160 68 307 147 384c55 54 119 84 222 84c58 0 106 -15 142 -44
l87 106zM468 583c-21 26 -54 41 -100 41c-66 0 -119 -30 -153 -76c-56 -75 -95 -207 -95 -335c0 -19 3 -36 6 -50zM499 475c0 16 -1 31 -4 43c0 1 -342 -418 -342 -418c23 -27 57 -39 102 -39c53 0 96 19 133 58c66 68 111 240 111 356z" />
    <glyph glyph-name="Ugrave" unicode="&#xd9;" horiz-adv-x="638" 
d="M654 688l-101 -474c-20 -96 -36 -136 -87 -173c-44 -32 -98 -53 -189 -53c-117 0 -198 48 -198 148c0 20 2 55 9 86l99 466h97l-94 -443c-11 -53 -12 -82 -12 -100c0 -47 42 -75 111 -75c59 0 102 23 129 54c21 24 29 45 41 102l98 462h97zM530 777l-32 -53l-221 100
l49 84z" />
    <glyph glyph-name="Uacute" unicode="&#xda;" horiz-adv-x="638" 
d="M654 688l-101 -474c-20 -96 -36 -136 -87 -173c-44 -32 -98 -53 -189 -53c-117 0 -198 48 -198 148c0 20 2 55 9 86l99 466h97l-94 -443c-11 -53 -12 -82 -12 -100c0 -47 42 -75 111 -75c59 0 102 23 129 54c21 24 29 45 41 102l98 462h97zM571 824l-229 -101l-29 54
l214 131z" />
    <glyph glyph-name="Ucircumflex" unicode="&#xdb;" horiz-adv-x="638" 
d="M654 688l-101 -474c-20 -96 -36 -136 -87 -173c-44 -32 -98 -53 -189 -53c-117 0 -198 48 -198 148c0 20 2 55 9 86l99 466h97l-94 -443c-11 -53 -12 -82 -12 -100c0 -47 42 -75 111 -75c59 0 102 23 129 54c21 24 29 45 41 102l98 462h97zM601 771l-40 -51l-121 83
l-153 -83l-33 51l201 135z" />
    <glyph glyph-name="Udieresis" unicode="&#xdc;" horiz-adv-x="638" 
d="M654 688l-101 -474c-20 -96 -36 -136 -87 -173c-44 -32 -98 -53 -189 -53c-117 0 -198 48 -198 148c0 20 2 55 9 86l99 466h97l-94 -443c-11 -53 -12 -82 -12 -100c0 -47 42 -75 111 -75c59 0 102 23 129 54c21 24 29 45 41 102l98 462h97zM390 786
c0 -33 -26 -60 -58 -60c-33 0 -59 27 -59 60c0 32 26 58 58 58c33 0 59 -26 59 -58zM598 786c0 -33 -26 -60 -58 -60c-33 0 -59 27 -59 60c0 32 26 58 58 58c33 0 59 -26 59 -58z" />
    <glyph glyph-name="Yacute" unicode="&#xdd;" horiz-adv-x="543" 
d="M644 688l-311 -416l-58 -272h-101l59 276l-132 412h114l67 -243c7 -26 15 -57 18 -80c15 22 34 50 54 79l174 244h116zM512 824l-229 -101l-29 54l214 131z" />
    <glyph glyph-name="Thorn" unicode="&#xde;" horiz-adv-x="559" 
d="M562 419c0 -90 -37 -164 -112 -217c-41 -29 -97 -43 -172 -43h-108l-34 -159h-96l146 688h96l-23 -110h84c78 0 129 -14 161 -38c40 -30 58 -73 58 -121zM457 398c0 66 -34 100 -128 100h-87l-55 -260h103c57 0 86 12 112 36c37 35 55 81 55 124z" />
    <glyph glyph-name="germandbls" unicode="&#xdf;" horiz-adv-x="582" 
d="M539 581c0 -149 -180 -152 -180 -185c0 -39 161 -45 161 -188c0 -114 -96 -220 -245 -220c-36 0 -62 5 -84 15l31 65c16 -8 34 -13 55 -13c80 0 146 51 146 133c0 124 -149 99 -149 194c0 96 165 70 165 194c0 39 -28 66 -76 66c-67 0 -107 -43 -128 -146l-101 -506
c-19 -94 -49 -155 -91 -202l-68 45c30 39 54 95 69 168l87 433h-75l14 68h74l3 16c26 141 109 194 234 194c98 0 158 -55 158 -131z" />
    <glyph glyph-name="agrave" unicode="&#xe0;" horiz-adv-x="530" 
d="M499 475c-8 -26 -21 -75 -28 -110l-43 -202c-5 -25 -8 -44 -8 -60c0 -30 10 -47 26 -64l-75 -57c-26 25 -37 51 -37 88v9c-35 -55 -92 -89 -164 -89c-69 0 -124 50 -124 159c0 104 39 217 105 283c53 53 121 83 200 83c55 0 108 -13 148 -40zM395 429
c-13 7 -33 12 -54 12c-54 0 -91 -17 -132 -65c-48 -57 -68 -154 -68 -226c0 -61 22 -84 64 -84c50 0 106 48 136 110zM455 616l-32 -53l-221 100l49 84z" />
    <glyph glyph-name="aacute" unicode="&#xe1;" horiz-adv-x="530" 
d="M499 475c-8 -26 -21 -75 -28 -110l-43 -202c-5 -25 -8 -44 -8 -60c0 -30 10 -47 26 -64l-75 -57c-26 25 -37 51 -37 88v9c-35 -55 -92 -89 -164 -89c-69 0 -124 50 -124 159c0 104 39 217 105 283c53 53 121 83 200 83c55 0 108 -13 148 -40zM395 429
c-13 7 -33 12 -54 12c-54 0 -91 -17 -132 -65c-48 -57 -68 -154 -68 -226c0 -61 22 -84 64 -84c50 0 106 48 136 110zM520 663l-229 -101l-29 54l214 131z" />
    <glyph glyph-name="acircumflex" unicode="&#xe2;" horiz-adv-x="530" 
d="M499 475c-8 -26 -21 -75 -28 -110l-43 -202c-5 -25 -8 -44 -8 -60c0 -30 10 -47 26 -64l-75 -57c-26 25 -37 51 -37 88v9c-35 -55 -92 -89 -164 -89c-69 0 -124 50 -124 159c0 104 39 217 105 283c53 53 121 83 200 83c55 0 108 -13 148 -40zM395 429
c-13 7 -33 12 -54 12c-54 0 -91 -17 -132 -65c-48 -57 -68 -154 -68 -226c0 -61 22 -84 64 -84c50 0 106 48 136 110zM526 610l-40 -51l-121 83l-153 -83l-33 51l201 135z" />
    <glyph glyph-name="atilde" unicode="&#xe3;" horiz-adv-x="530" 
d="M499 475c-8 -26 -21 -75 -28 -110l-43 -202c-5 -25 -8 -44 -8 -60c0 -30 10 -47 26 -64l-75 -57c-26 25 -37 51 -37 88v9c-35 -55 -92 -89 -164 -89c-69 0 -124 50 -124 159c0 104 39 217 105 283c53 53 121 83 200 83c55 0 108 -13 148 -40zM395 429
c-13 7 -33 12 -54 12c-54 0 -91 -17 -132 -65c-48 -57 -68 -154 -68 -226c0 -61 22 -84 64 -84c50 0 106 48 136 110zM527 653c-42 -41 -77 -64 -136 -64s-63 38 -120 38c-32 0 -50 -17 -76 -39l-23 53c42 41 76 64 133 64c60 0 64 -38 122 -38c32 0 52 16 77 38z" />
    <glyph glyph-name="adieresis" unicode="&#xe4;" horiz-adv-x="530" 
d="M499 475c-8 -26 -21 -75 -28 -110l-43 -202c-5 -25 -8 -44 -8 -60c0 -30 10 -47 26 -64l-75 -57c-26 25 -37 51 -37 88v9c-35 -55 -92 -89 -164 -89c-69 0 -124 50 -124 159c0 104 39 217 105 283c53 53 121 83 200 83c55 0 108 -13 148 -40zM395 429
c-13 7 -33 12 -54 12c-54 0 -91 -17 -132 -65c-48 -57 -68 -154 -68 -226c0 -61 22 -84 64 -84c50 0 106 48 136 110zM313 625c0 -33 -26 -60 -58 -60c-33 0 -59 27 -59 60c0 32 26 58 58 58c33 0 59 -26 59 -58zM521 625c0 -33 -26 -60 -58 -60c-33 0 -59 27 -59 60
c0 32 26 58 58 58c33 0 59 -26 59 -58z" />
    <glyph glyph-name="aring" unicode="&#xe5;" horiz-adv-x="530" 
d="M499 475c-8 -26 -21 -75 -28 -110l-43 -202c-5 -25 -8 -44 -8 -60c0 -30 10 -47 26 -64l-75 -57c-26 25 -37 51 -37 88v9c-35 -55 -92 -89 -164 -89c-69 0 -124 50 -124 159c0 104 39 217 105 283c53 53 121 83 200 83c55 0 108 -13 148 -40zM395 429
c-13 7 -33 12 -54 12c-54 0 -91 -17 -132 -65c-48 -57 -68 -154 -68 -226c0 -61 22 -84 64 -84c50 0 106 48 136 110zM473 659c0 -59 -47 -106 -106 -106s-106 47 -106 106s47 106 106 106s106 -47 106 -106zM422 659c0 31 -24 56 -55 56s-55 -25 -55 -56s24 -56 55 -56
s55 25 55 56z" />
    <glyph glyph-name="ae" unicode="&#xe6;" horiz-adv-x="783" 
d="M756 384c0 -42 -21 -79 -50 -107c-41 -39 -109 -59 -211 -59c-23 0 -46 2 -62 3c-4 -17 -7 -41 -7 -58c0 -67 42 -101 96 -101c58 0 99 15 147 55l31 -57c-52 -48 -110 -72 -203 -72c-65 0 -110 28 -142 78c-49 -58 -109 -81 -171 -81c-99 0 -143 58 -143 127
c0 104 89 187 264 187c18 0 38 -1 58 -3l11 45c5 20 6 38 6 49c0 30 -23 48 -64 48c-46 0 -104 -16 -167 -58l-30 66c72 42 151 68 227 68c55 0 94 -25 111 -64c43 42 95 65 153 65c91 0 146 -45 146 -131zM349 231h-3c-13 1 -25 2 -37 2c-108 0 -170 -38 -170 -106
c0 -46 28 -73 69 -73c38 0 72 18 95 47c23 28 38 98 46 130zM662 379c0 36 -19 65 -71 65c-60 0 -119 -56 -143 -156c11 -1 32 -1 48 -1c77 0 117 11 142 36c15 15 24 33 24 56z" />
    <glyph glyph-name="ccedilla" unicode="&#xe7;" horiz-adv-x="449" 
d="M459 468l-47 -67c-29 26 -62 36 -95 36c-35 0 -72 -18 -95 -49c-35 -46 -70 -150 -70 -228c0 -66 29 -100 86 -100c39 0 80 20 117 53l35 -58c-54 -44 -103 -65 -164 -67l-13 -27c41 -6 56 -26 56 -54c0 -4 0 -8 -1 -13c-6 -42 -55 -88 -123 -88c-30 0 -60 9 -78 20
l28 47c22 -10 35 -15 57 -15c19 0 39 10 44 32v4c0 12 -12 22 -35 22c-16 0 -33 -2 -35 -3l38 81c-75 18 -112 75 -112 165c0 120 61 240 129 298c46 39 96 58 154 58c49 0 91 -15 124 -47z" />
    <glyph glyph-name="egrave" unicode="&#xe8;" horiz-adv-x="510" 
d="M488 383c0 -41 -17 -78 -46 -105c-42 -40 -108 -60 -214 -60c-23 0 -46 3 -62 3c-4 -17 -7 -41 -7 -58c0 -67 42 -101 96 -101c58 0 98 16 145 56l33 -57c-54 -50 -110 -73 -203 -73c-100 0 -171 66 -171 182c0 99 41 207 111 275c50 48 105 70 167 70
c96 0 151 -48 151 -132zM395 379c0 36 -19 65 -71 65c-60 0 -118 -56 -143 -155c11 -1 32 -2 48 -2c77 0 117 11 142 36c15 15 24 33 24 56zM435 616l-32 -53l-221 100l49 84z" />
    <glyph glyph-name="eacute" unicode="&#xe9;" horiz-adv-x="510" 
d="M488 383c0 -41 -17 -78 -46 -105c-42 -40 -108 -60 -214 -60c-23 0 -46 3 -62 3c-4 -17 -7 -41 -7 -58c0 -67 42 -101 96 -101c58 0 98 16 145 56l33 -57c-54 -50 -110 -73 -203 -73c-100 0 -171 66 -171 182c0 99 41 207 111 275c50 48 105 70 167 70
c96 0 151 -48 151 -132zM395 379c0 36 -19 65 -71 65c-60 0 -118 -56 -143 -155c11 -1 32 -2 48 -2c77 0 117 11 142 36c15 15 24 33 24 56zM522 663l-229 -101l-29 54l214 131z" />
    <glyph glyph-name="ecircumflex" unicode="&#xea;" horiz-adv-x="510" 
d="M488 383c0 -41 -17 -78 -46 -105c-42 -40 -108 -60 -214 -60c-23 0 -46 3 -62 3c-4 -17 -7 -41 -7 -58c0 -67 42 -101 96 -101c58 0 98 16 145 56l33 -57c-54 -50 -110 -73 -203 -73c-100 0 -171 66 -171 182c0 99 41 207 111 275c50 48 105 70 167 70
c96 0 151 -48 151 -132zM395 379c0 36 -19 65 -71 65c-60 0 -118 -56 -143 -155c11 -1 32 -2 48 -2c77 0 117 11 142 36c15 15 24 33 24 56zM511 610l-40 -51l-121 83l-153 -83l-33 51l201 135z" />
    <glyph glyph-name="edieresis" unicode="&#xeb;" horiz-adv-x="510" 
d="M488 383c0 -41 -17 -78 -46 -105c-42 -40 -108 -60 -214 -60c-23 0 -46 3 -62 3c-4 -17 -7 -41 -7 -58c0 -67 42 -101 96 -101c58 0 98 16 145 56l33 -57c-54 -50 -110 -73 -203 -73c-100 0 -171 66 -171 182c0 99 41 207 111 275c50 48 105 70 167 70
c96 0 151 -48 151 -132zM395 379c0 36 -19 65 -71 65c-60 0 -118 -56 -143 -155c11 -1 32 -2 48 -2c77 0 117 11 142 36c15 15 24 33 24 56zM300 625c0 -33 -26 -60 -58 -60c-33 0 -59 27 -59 60c0 32 26 58 58 58c33 0 59 -26 59 -58zM508 625c0 -33 -26 -60 -58 -60
c-33 0 -59 27 -59 60c0 32 26 58 58 58c33 0 59 -26 59 -58z" />
    <glyph glyph-name="igrave" unicode="&#xec;" horiz-adv-x="275" 
d="M257 513l-109 -513h-96l106 498zM298 616l-32 -53l-221 100l49 84z" />
    <glyph glyph-name="iacute" unicode="&#xed;" horiz-adv-x="275" 
d="M250 513l-109 -513h-96l106 498zM391 663l-229 -101l-29 54l214 131z" />
    <glyph glyph-name="icircumflex" unicode="&#xee;" horiz-adv-x="275" 
d="M257 513l-109 -513h-96l106 498zM392 610l-40 -51l-121 83l-153 -83l-33 51l201 135z" />
    <glyph glyph-name="idieresis" unicode="&#xef;" horiz-adv-x="275" 
d="M250 513l-109 -513h-96l106 498zM179 625c0 -33 -26 -60 -58 -60c-33 0 -59 27 -59 60c0 32 26 58 58 58c33 0 59 -26 59 -58zM387 625c0 -33 -26 -60 -58 -60c-33 0 -59 27 -59 60c0 32 26 58 58 58c33 0 59 -26 59 -58z" />
    <glyph glyph-name="eth" unicode="&#xf0;" horiz-adv-x="534" 
d="M498 330c0 -179 -92 -346 -282 -346c-108 0 -190 64 -190 185c0 146 111 263 262 263c45 0 74 -8 97 -19c-11 56 -50 112 -93 150l-53 -49l-53 36l56 51c-42 27 -92 47 -144 52l69 67c44 -5 97 -23 147 -52l41 38l53 -36l-42 -39c86 -71 132 -190 132 -301zM390 326
c-24 17 -62 26 -109 26c-96 0 -147 -94 -147 -180c0 -63 31 -103 96 -103c125 0 157 161 160 257z" />
    <glyph glyph-name="ntilde" unicode="&#xf1;" horiz-adv-x="556" 
d="M505 413c0 -13 -2 -28 -5 -42l-79 -371h-92l71 336c5 24 8 40 8 52c0 31 -15 45 -45 45c-38 0 -97 -29 -158 -106l-69 -327h-91l76 353c7 33 10 56 10 76c0 18 -2 33 -7 50l86 38c7 -18 12 -38 12 -62c0 -12 -2 -26 -5 -41c51 65 121 99 188 99c62 0 100 -39 100 -100z
M529 653c-42 -41 -77 -64 -136 -64s-63 38 -120 38c-32 0 -50 -17 -76 -39l-23 53c42 41 76 64 133 64c60 0 64 -38 122 -38c32 0 52 16 77 38z" />
    <glyph glyph-name="ograve" unicode="&#xf2;" 
d="M506 336c0 -190 -110 -348 -283 -348c-110 0 -172 66 -172 180c0 196 119 347 282 347c115 0 173 -70 173 -179zM405 343c0 73 -39 99 -88 99c-106 0 -166 -141 -166 -281c0 -71 33 -100 89 -100c108 0 165 142 165 282zM431 616l-32 -53l-221 100l49 84z" />
    <glyph glyph-name="oacute" unicode="&#xf3;" 
d="M506 336c0 -190 -110 -348 -283 -348c-110 0 -172 66 -172 180c0 196 119 347 282 347c115 0 173 -70 173 -179zM405 343c0 73 -39 99 -88 99c-106 0 -166 -141 -166 -281c0 -71 33 -100 89 -100c108 0 165 142 165 282zM510 663l-229 -101l-29 54l214 131z" />
    <glyph glyph-name="ocircumflex" unicode="&#xf4;" 
d="M506 336c0 -190 -110 -348 -283 -348c-110 0 -172 66 -172 180c0 196 119 347 282 347c115 0 173 -70 173 -179zM405 343c0 73 -39 99 -88 99c-106 0 -166 -141 -166 -281c0 -71 33 -100 89 -100c108 0 165 142 165 282zM514 610l-40 -51l-121 83l-153 -83l-33 51
l201 135z" />
    <glyph glyph-name="otilde" unicode="&#xf5;" 
d="M506 336c0 -190 -110 -348 -283 -348c-110 0 -172 66 -172 180c0 196 119 347 282 347c115 0 173 -70 173 -179zM405 343c0 73 -39 99 -88 99c-106 0 -166 -141 -166 -281c0 -71 33 -100 89 -100c108 0 165 142 165 282zM532 653c-42 -41 -77 -64 -136 -64
s-63 38 -120 38c-32 0 -50 -17 -76 -39l-23 53c42 41 76 64 133 64c60 0 64 -38 122 -38c32 0 52 16 77 38z" />
    <glyph glyph-name="odieresis" unicode="&#xf6;" 
d="M506 336c0 -190 -110 -348 -283 -348c-110 0 -172 66 -172 180c0 196 119 347 282 347c115 0 173 -70 173 -179zM405 343c0 73 -39 99 -88 99c-106 0 -166 -141 -166 -281c0 -71 33 -100 89 -100c108 0 165 142 165 282zM305 625c0 -33 -26 -60 -58 -60
c-33 0 -59 27 -59 60c0 32 26 58 58 58c33 0 59 -26 59 -58zM513 625c0 -33 -26 -60 -58 -60c-33 0 -59 27 -59 60c0 32 26 58 58 58c33 0 59 -26 59 -58z" />
    <glyph glyph-name="divide" unicode="&#xf7;" horiz-adv-x="608" 
d="M572 308l-17 -83h-505l17 83h505zM336 59c0 -40 -32 -71 -72 -71c-39 0 -69 31 -69 71c0 41 31 74 71 74c38 0 70 -33 70 -74zM424 475c0 -41 -32 -73 -71 -73s-70 31 -70 71s31 73 71 73c38 0 70 -32 70 -71z" />
    <glyph glyph-name="oslash" unicode="&#xf8;" horiz-adv-x="543" 
d="M547 541c0 0 -65 -80 -76 -93c20 -30 31 -69 31 -115c0 -190 -110 -348 -283 -348c-42 0 -76 9 -103 27c-10 -12 -69 -83 -69 -83l-43 33l73 89c-20 30 -30 69 -30 115c0 196 119 346 281 346c42 0 76 -9 103 -26l71 87zM401 332c0 10 -1 22 -2 27
c-11 -13 -228 -279 -228 -279c14 -16 37 -23 65 -23c106 0 163 136 165 275zM375 417c-16 17 -38 23 -62 23c-102 0 -162 -127 -166 -270c0 -12 0 -22 2 -32z" />
    <glyph glyph-name="ugrave" unicode="&#xf9;" horiz-adv-x="555" 
d="M528 511l-77 -363c-5 -23 -7 -41 -7 -57c0 -24 6 -43 19 -62l-75 -49c-22 23 -34 49 -34 87v12c-56 -64 -118 -95 -179 -95c-69 0 -110 32 -110 101c0 23 3 51 8 75l72 336l94 17l-70 -333c-6 -27 -9 -50 -9 -66c0 -39 14 -54 45 -54c47 0 115 41 161 114l68 320z
M454 616l-32 -53l-221 100l49 84z" />
    <glyph glyph-name="uacute" unicode="&#xfa;" horiz-adv-x="555" 
d="M528 511l-77 -363c-5 -23 -7 -41 -7 -57c0 -24 6 -43 19 -62l-75 -49c-22 23 -34 49 -34 87v12c-56 -64 -118 -95 -179 -95c-69 0 -110 32 -110 101c0 23 3 51 8 75l72 336l94 17l-70 -333c-6 -27 -9 -50 -9 -66c0 -39 14 -54 45 -54c47 0 115 41 161 114l68 320z
M501 663l-229 -101l-29 54l214 131z" />
    <glyph glyph-name="ucircumflex" unicode="&#xfb;" horiz-adv-x="555" 
d="M528 511l-77 -363c-5 -23 -7 -41 -7 -57c0 -24 6 -43 19 -62l-75 -49c-22 23 -34 49 -34 87v12c-56 -64 -118 -95 -179 -95c-69 0 -110 32 -110 101c0 23 3 51 8 75l72 336l94 17l-70 -333c-6 -27 -9 -50 -9 -66c0 -39 14 -54 45 -54c47 0 115 41 161 114l68 320z
M523 610l-40 -51l-121 83l-153 -83l-33 51l201 135z" />
    <glyph glyph-name="udieresis" unicode="&#xfc;" horiz-adv-x="555" 
d="M528 511l-77 -363c-5 -23 -7 -41 -7 -57c0 -24 6 -43 19 -62l-75 -49c-22 23 -34 49 -34 87v12c-56 -64 -118 -95 -179 -95c-69 0 -110 32 -110 101c0 23 3 51 8 75l72 336l94 17l-70 -333c-6 -27 -9 -50 -9 -66c0 -39 14 -54 45 -54c47 0 115 41 161 114l68 320z
M312 625c0 -33 -26 -60 -58 -60c-33 0 -59 27 -59 60c0 32 26 58 58 58c33 0 59 -26 59 -58zM520 625c0 -33 -26 -60 -58 -60c-33 0 -59 27 -59 60c0 32 26 58 58 58c33 0 59 -26 59 -58z" />
    <glyph glyph-name="yacute" unicode="&#xfd;" horiz-adv-x="474" 
d="M525 502l-247 -447c-60 -108 -96 -183 -149 -221c-28 -20 -67 -37 -106 -44l-20 63c29 4 64 24 88 42c27 21 47 52 70 105l-33 -3c0 34 -6 122 -12 170l-42 328l96 17l32 -314c4 -36 4 -87 3 -121h1c1 5 35 73 58 119l157 306h104zM453 663l-229 -101l-29 54l214 131z
" />
    <glyph glyph-name="thorn" unicode="&#xfe;" horiz-adv-x="570" 
d="M524 346c0 -121 -49 -232 -124 -298c-46 -41 -102 -60 -158 -60c-36 0 -75 5 -111 16l-41 -195l-95 -20l163 766c13 61 15 116 6 149l97 35c10 -36 6 -97 -7 -163l-14 -71c-4 -22 -16 -62 -23 -86c39 53 106 94 172 94c92 0 135 -62 135 -167zM423 345
c0 55 -23 87 -71 87c-50 0 -102 -38 -150 -103l-51 -239c22 -19 52 -28 96 -28c35 0 80 25 102 53c46 57 74 163 74 230z" />
    <glyph glyph-name="ydieresis" unicode="&#xff;" horiz-adv-x="474" 
d="M525 502l-247 -447c-60 -108 -96 -183 -149 -221c-28 -20 -67 -37 -106 -44l-20 63c29 4 64 24 88 42c27 21 47 52 70 105l-33 -3c0 34 -6 122 -12 170l-42 328l96 17l32 -314c4 -36 4 -87 3 -121h1c1 5 35 73 58 119l157 306h104zM257 625c0 -33 -26 -60 -58 -60
c-33 0 -59 27 -59 60c0 32 26 58 58 58c33 0 59 -26 59 -58zM465 625c0 -33 -26 -60 -58 -60c-33 0 -59 27 -59 60c0 32 26 58 58 58c33 0 59 -26 59 -58z" />
    <glyph glyph-name="Amacron" unicode="&#x100;" horiz-adv-x="572" 
d="M527 0h-103l-18 199h-243l-104 -199h-104l376 689h118zM398 279l-17 171c-4 41 -12 144 -12 147c-2 -3 -29 -60 -48 -97l-116 -221h193zM530 820l-14 -68h-264l14 68h264z" />
    <glyph glyph-name="amacron" unicode="&#x101;" horiz-adv-x="530" 
d="M499 475c-8 -26 -21 -75 -28 -110l-43 -202c-5 -25 -8 -44 -8 -60c0 -30 10 -47 26 -64l-75 -57c-26 25 -37 51 -37 88v9c-35 -55 -92 -89 -164 -89c-69 0 -124 50 -124 159c0 104 39 217 105 283c53 53 121 83 200 83c55 0 108 -13 148 -40zM395 429
c-13 7 -33 12 -54 12c-54 0 -91 -17 -132 -65c-48 -57 -68 -154 -68 -226c0 -61 22 -84 64 -84c50 0 106 48 136 110zM448 685l-14 -68h-244l14 68h244z" />
    <glyph glyph-name="Abreve" unicode="&#x102;" horiz-adv-x="572" 
d="M527 0h-103l-18 199h-243l-104 -199h-104l376 689h118zM398 279l-17 171c-4 41 -12 144 -12 147c-2 -3 -29 -60 -48 -97l-116 -221h193zM577 846c-18 -19 -118 -115 -195 -115c-78 0 -137 96 -146 115l45 44c14 -17 62 -65 125 -65c54 0 130 52 149 65z" />
    <glyph glyph-name="abreve" unicode="&#x103;" horiz-adv-x="530" 
d="M499 475c-8 -26 -21 -75 -28 -110l-43 -202c-5 -25 -8 -44 -8 -60c0 -30 10 -47 26 -64l-75 -57c-26 25 -37 51 -37 88v9c-35 -55 -92 -89 -164 -89c-69 0 -124 50 -124 159c0 104 39 217 105 283c53 53 121 83 200 83c55 0 108 -13 148 -40zM395 429
c-13 7 -33 12 -54 12c-54 0 -91 -17 -132 -65c-48 -57 -68 -154 -68 -226c0 -61 22 -84 64 -84c50 0 106 48 136 110zM545 693c-18 -19 -118 -115 -195 -115c-78 0 -137 96 -146 115l45 44c14 -17 62 -65 125 -65c54 0 130 52 149 65z" />
    <glyph glyph-name="Aogonek" unicode="&#x104;" horiz-adv-x="572" 
d="M524 -171c-26 -12 -61 -25 -95 -25c-55 0 -81 29 -81 68c0 5 0 11 1 16c8 47 40 87 70 112l-18 199h-243l-104 -199h-104l376 689h118l78 -689h-1c-28 0 -90 -52 -98 -101c0 -3 -1 -6 -1 -8c0 -14 8 -25 28 -25c21 0 36 3 62 15zM393 279l-17 171c-4 41 -12 144 -12 147
c-2 -3 -29 -60 -48 -97l-116 -221h193z" />
    <glyph glyph-name="aogonek" unicode="&#x105;" horiz-adv-x="530" 
d="M494 475c-8 -26 -21 -75 -28 -110l-43 -202c-6 -26 -8 -45 -8 -61c0 -30 9 -47 29 -67l-36 -24c-38 -25 -88 -73 -94 -112c0 -3 -1 -6 -1 -8c0 -14 8 -25 28 -25c21 0 36 3 62 15l12 -52c-26 -12 -61 -25 -95 -25c-54 0 -82 29 -82 67c0 57 46 107 102 146
c-7 16 -11 34 -11 55v7c-35 -55 -92 -89 -164 -89c-69 0 -124 50 -124 159c0 104 39 217 105 283c53 53 121 83 200 83c55 0 108 -13 148 -40zM390 429c-13 7 -33 12 -54 12c-54 0 -91 -17 -132 -65c-48 -57 -68 -154 -68 -226c0 -61 22 -84 64 -84c50 0 106 48 136 110z
" />
    <glyph glyph-name="Cacute" unicode="&#x106;" horiz-adv-x="552" 
d="M604 642l-55 -61c-33 29 -69 40 -116 40c-71 0 -134 -37 -180 -103c-53 -76 -85 -200 -85 -286c0 -105 53 -164 153 -164c48 0 89 13 139 45l36 -66c-63 -38 -134 -58 -205 -58c-142 0 -226 95 -226 247c0 113 44 245 120 336c68 81 166 127 260 127
c65 0 122 -21 159 -57zM607 824l-229 -101l-29 54l214 131z" />
    <glyph glyph-name="cacute" unicode="&#x107;" horiz-adv-x="449" 
d="M464 468l-47 -67c-29 26 -62 36 -95 36c-35 0 -72 -18 -95 -49c-35 -46 -70 -150 -70 -228c0 -66 29 -100 86 -100c39 0 80 20 117 53l35 -58c-56 -46 -106 -67 -171 -67c-112 0 -167 61 -167 171c0 117 62 241 129 298c46 39 96 58 154 58c49 0 91 -15 124 -47zM519 663
l-229 -101l-29 54l214 131z" />
    <glyph glyph-name="Ccircumflex" unicode="&#x108;" horiz-adv-x="552" 
d="M604 642l-55 -61c-33 29 -69 40 -116 40c-71 0 -134 -37 -180 -103c-53 -76 -85 -200 -85 -286c0 -105 53 -164 153 -164c48 0 89 13 139 45l36 -66c-63 -38 -134 -58 -205 -58c-142 0 -226 95 -226 247c0 113 44 245 120 336c68 81 166 127 260 127
c65 0 122 -21 159 -57zM623 771l-40 -51l-121 83l-153 -83l-33 51l201 135z" />
    <glyph glyph-name="ccircumflex" unicode="&#x109;" horiz-adv-x="449" 
d="M464 468l-47 -67c-29 26 -62 36 -95 36c-35 0 -72 -18 -95 -49c-35 -46 -70 -150 -70 -228c0 -66 29 -100 86 -100c39 0 80 20 117 53l35 -58c-56 -46 -106 -67 -171 -67c-112 0 -167 61 -167 171c0 117 62 241 129 298c46 39 96 58 154 58c49 0 91 -15 124 -47zM521 610
l-40 -51l-121 83l-153 -83l-33 51l201 135z" />
    <glyph glyph-name="Cdotaccent" unicode="&#x10a;" horiz-adv-x="552" 
d="M604 642l-55 -61c-33 29 -69 40 -116 40c-71 0 -134 -37 -180 -103c-53 -76 -85 -200 -85 -286c0 -105 53 -164 153 -164c48 0 89 13 139 45l36 -66c-63 -38 -134 -58 -205 -58c-142 0 -226 95 -226 247c0 113 44 245 120 336c68 81 166 127 260 127
c65 0 122 -21 159 -57zM530 795c0 -37 -30 -66 -67 -66s-66 29 -66 66s29 67 67 67c36 0 66 -30 66 -67z" />
    <glyph glyph-name="cdotaccent" unicode="&#x10b;" horiz-adv-x="449" 
d="M464 468l-47 -67c-29 26 -62 36 -95 36c-35 0 -72 -18 -95 -49c-35 -46 -70 -150 -70 -228c0 -66 29 -100 86 -100c39 0 80 20 117 53l35 -58c-56 -46 -106 -67 -171 -67c-112 0 -167 61 -167 171c0 117 62 241 129 298c46 39 96 58 154 58c49 0 91 -15 124 -47zM419 652
c0 -37 -30 -66 -67 -66s-66 29 -66 66s29 67 67 67c36 0 66 -30 66 -67z" />
    <glyph glyph-name="Ccaron" unicode="&#x10c;" horiz-adv-x="552" 
d="M604 642l-55 -61c-33 29 -69 40 -116 40c-71 0 -134 -37 -180 -103c-53 -76 -85 -200 -85 -286c0 -105 53 -164 153 -164c48 0 89 13 139 45l36 -66c-63 -38 -134 -58 -205 -58c-142 0 -226 95 -226 247c0 113 44 245 120 336c68 81 166 127 260 127
c65 0 122 -21 159 -57zM640 858l-200 -135l-147 135l41 51l121 -82l153 82z" />
    <glyph glyph-name="ccaron" unicode="&#x10d;" horiz-adv-x="449" 
d="M464 468l-47 -67c-29 26 -62 36 -95 36c-35 0 -72 -18 -95 -49c-35 -46 -70 -150 -70 -228c0 -66 29 -100 86 -100c39 0 80 20 117 53l35 -58c-56 -46 -106 -67 -171 -67c-112 0 -167 61 -167 171c0 117 62 241 129 298c46 39 96 58 154 58c49 0 91 -15 124 -47zM543 692
l-200 -135l-147 135l41 51l121 -82l153 82z" />
    <glyph glyph-name="Dcaron" unicode="&#x10e;" horiz-adv-x="633" 
d="M612 439c0 -117 -60 -276 -139 -351c-67 -63 -136 -88 -252 -88h-176l146 688h151c105 0 157 -12 206 -57c43 -39 64 -100 64 -192zM508 432c0 55 -7 93 -25 122c-29 46 -67 56 -133 56h-78l-112 -530h72c84 0 144 24 180 71c67 87 96 215 96 281zM592 858l-200 -135
l-147 135l41 51l121 -82l153 82z" />
    <glyph glyph-name="dcaron" unicode="&#x10f;" horiz-adv-x="566" 
d="M584 718l-118 -550c-8 -39 -12 -66 -12 -86c0 -28 7 -44 19 -60l-79 -38c-18 20 -29 43 -29 79v13c-44 -56 -97 -85 -163 -85c-98 0 -144 61 -144 171c0 101 40 206 111 277c48 48 116 72 171 72c51 0 83 -7 104 -18c1 2 11 51 16 74l34 166zM426 414
c-27 16 -46 21 -89 21c-35 0 -79 -20 -107 -51c-43 -49 -75 -154 -75 -225c0 -60 23 -91 68 -91c51 0 110 34 152 106zM752 674c0 -35 -18 -73 -50 -103c-25 -24 -55 -39 -79 -48l-23 37c31 13 59 37 67 64c-19 4 -39 22 -39 52c0 35 25 61 64 61c35 0 60 -27 60 -63z" />
    <glyph glyph-name="Dcroat" unicode="&#x110;" horiz-adv-x="633" 
d="M607 439c0 -117 -60 -276 -139 -351c-67 -63 -136 -88 -252 -88h-176l67 316h-82l15 69h82l64 303h151c105 0 157 -12 206 -57c43 -39 64 -100 64 -192zM503 432c0 55 -7 93 -25 122c-29 46 -67 56 -133 56h-78l-48 -225h146l-39 -69h-121l-50 -236h72
c84 0 144 24 180 71c67 87 96 215 96 281z" />
    <glyph glyph-name="dcroat" unicode="&#x111;" horiz-adv-x="566" 
d="M639 637l-13 -60h-78l-87 -409c-8 -39 -12 -66 -12 -86c0 -28 7 -44 19 -60l-79 -38c-18 20 -29 43 -29 79v13c-44 -56 -97 -85 -163 -85c-98 0 -144 61 -144 171c0 101 40 206 111 277c48 48 116 72 171 72c51 0 83 -7 104 -18c1 2 11 51 16 74l2 10h-115l13 60h114
l20 96l90 -15l-18 -81h78zM421 414c-27 16 -46 21 -89 21c-35 0 -79 -20 -107 -51c-43 -49 -75 -154 -75 -225c0 -60 23 -91 68 -91c51 0 110 34 152 106z" />
    <glyph glyph-name="Emacron" unicode="&#x112;" horiz-adv-x="508" 
d="M572 688l-31 -79h-269l-44 -209h226l-18 -82h-226l-49 -235h292l-18 -83h-390l146 688h381zM533 820l-14 -68h-264l14 68h264z" />
    <glyph glyph-name="emacron" unicode="&#x113;" horiz-adv-x="510" 
d="M485 659l-14 -68h-264l14 68h264zM488 383c0 -41 -17 -78 -46 -105c-42 -40 -108 -60 -214 -60c-23 0 -46 3 -62 3c-4 -17 -7 -41 -7 -58c0 -67 42 -101 96 -101c58 0 98 16 145 56l33 -57c-54 -50 -110 -73 -203 -73c-100 0 -171 66 -171 182c0 99 41 207 111 275
c50 48 105 70 167 70c96 0 151 -48 151 -132zM395 379c0 36 -19 65 -71 65c-60 0 -118 -56 -143 -155c11 -1 32 -2 48 -2c77 0 117 11 142 36c15 15 24 33 24 56z" />
    <glyph glyph-name="Edotaccent" unicode="&#x116;" horiz-adv-x="508" 
d="M572 688l-31 -79h-269l-44 -209h226l-18 -82h-226l-49 -235h292l-18 -83h-390l146 688h381zM451 797c0 -37 -30 -66 -67 -66s-66 29 -66 66s29 67 67 67c36 0 66 -30 66 -67z" />
    <glyph glyph-name="edotaccent" unicode="&#x117;" horiz-adv-x="510" 
d="M488 383c0 -41 -17 -78 -46 -105c-42 -40 -108 -60 -214 -60c-23 0 -46 3 -62 3c-4 -17 -7 -41 -7 -58c0 -67 42 -101 96 -101c58 0 98 16 145 56l33 -57c-54 -50 -110 -73 -203 -73c-100 0 -171 66 -171 182c0 99 41 207 111 275c50 48 105 70 167 70
c96 0 151 -48 151 -132zM395 379c0 36 -19 65 -71 65c-60 0 -118 -56 -143 -155c11 -1 32 -2 48 -2c77 0 117 11 142 36c15 15 24 33 24 56zM428 652c0 -37 -30 -66 -67 -66s-66 29 -66 66s29 67 67 67c36 0 66 -30 66 -67z" />
    <glyph glyph-name="Eogonek" unicode="&#x118;" horiz-adv-x="508" 
d="M567 688l-31 -79h-269l-44 -209h226l-18 -82h-226l-49 -235h292l-18 -83c-28 0 -90 -52 -98 -101c0 -3 -1 -6 -1 -8c0 -14 8 -25 28 -25c21 0 36 3 62 15l12 -52c-26 -12 -61 -25 -95 -25c-55 0 -81 29 -81 68c0 5 0 11 1 16c8 47 40 87 70 112h-288l146 688h381z" />
    <glyph glyph-name="eogonek" unicode="&#x119;" horiz-adv-x="510" 
d="M483 383c0 -41 -17 -78 -46 -105c-42 -40 -108 -60 -214 -60c-23 0 -46 3 -62 3c-4 -17 -7 -41 -7 -58c0 -67 42 -101 96 -101c58 0 98 16 145 56l33 -57c-17 -15 -35 -28 -52 -39c-35 -23 -103 -77 -110 -123c0 -3 -1 -6 -1 -8c0 -14 8 -25 28 -25c21 0 36 3 62 15
l12 -52c-26 -12 -61 -25 -95 -25c-54 0 -82 29 -82 67c0 44 26 84 64 118c-9 -1 -19 -1 -29 -1c-100 0 -171 66 -171 182c0 99 41 207 111 275c50 48 105 70 167 70c96 0 151 -48 151 -132zM390 379c0 36 -19 65 -71 65c-60 0 -118 -56 -143 -155c11 -1 32 -2 48 -2
c77 0 117 11 142 36c15 15 24 33 24 56z" />
    <glyph glyph-name="Ecaron" unicode="&#x11a;" horiz-adv-x="508" 
d="M572 688l-31 -79h-269l-44 -209h226l-18 -82h-226l-49 -235h292l-18 -83h-390l146 688h381zM586 858l-200 -135l-147 135l41 51l121 -82l153 82z" />
    <glyph glyph-name="ecaron" unicode="&#x11b;" horiz-adv-x="510" 
d="M488 383c0 -41 -17 -78 -46 -105c-42 -40 -108 -60 -214 -60c-23 0 -46 3 -62 3c-4 -17 -7 -41 -7 -58c0 -67 42 -101 96 -101c58 0 98 16 145 56l33 -57c-54 -50 -110 -73 -203 -73c-100 0 -171 66 -171 182c0 99 41 207 111 275c50 48 105 70 167 70
c96 0 151 -48 151 -132zM395 379c0 36 -19 65 -71 65c-60 0 -118 -56 -143 -155c11 -1 32 -2 48 -2c77 0 117 11 142 36c15 15 24 33 24 56zM552 692l-200 -135l-147 135l41 51l121 -82l153 82z" />
    <glyph glyph-name="Gcircumflex" unicode="&#x11c;" horiz-adv-x="649" 
d="M637 627l-53 -59c-44 37 -88 50 -141 50c-59 0 -113 -24 -154 -69c-68 -74 -107 -221 -107 -319c0 -108 63 -164 157 -164c40 0 75 8 106 24l42 196h-129v80h240l-69 -324c-61 -35 -141 -54 -214 -54c-152 0 -239 104 -239 244s56 283 147 370c70 67 142 94 235 94
c74 0 134 -23 179 -69zM643 771l-40 -51l-121 83l-153 -83l-33 51l201 135z" />
    <glyph glyph-name="gcircumflex" unicode="&#x11d;" horiz-adv-x="568" 
d="M539 474c-5 -14 -19 -60 -27 -97l-49 -235c-13 -60 -22 -122 -30 -154c-35 -145 -123 -196 -262 -196c-62 0 -117 14 -176 45l33 70c48 -28 93 -40 151 -40c93 0 139 28 160 115c6 27 18 79 20 83c-45 -55 -94 -75 -159 -75c-91 0 -142 60 -142 170c0 106 48 219 115 281
c53 49 115 75 190 75c78 0 124 -12 176 -42zM432 423c-20 10 -44 14 -76 14c-43 0 -85 -15 -118 -49c-45 -46 -81 -155 -81 -225c0 -68 27 -97 74 -97c51 0 105 34 147 107zM550 610l-40 -51l-121 83l-153 -83l-33 51l201 135z" />
    <glyph glyph-name="Gbreve" unicode="&#x11e;" horiz-adv-x="649" 
d="M637 627l-53 -59c-44 37 -88 50 -141 50c-59 0 -113 -24 -154 -69c-68 -74 -107 -221 -107 -319c0 -108 63 -164 157 -164c40 0 75 8 106 24l42 196h-129v80h240l-69 -324c-61 -35 -141 -54 -214 -54c-152 0 -239 104 -239 244s56 283 147 370c70 67 142 94 235 94
c74 0 134 -23 179 -69zM650 846c-18 -19 -118 -115 -195 -115c-78 0 -137 96 -146 115l45 44c14 -17 62 -65 125 -65c54 0 130 52 149 65z" />
    <glyph glyph-name="gbreve" unicode="&#x11f;" horiz-adv-x="568" 
d="M539 474c-5 -14 -19 -60 -27 -97l-49 -235c-13 -60 -22 -122 -30 -154c-35 -145 -123 -196 -262 -196c-62 0 -117 14 -176 45l33 70c48 -28 93 -40 151 -40c93 0 139 28 160 115c6 27 18 79 20 83c-45 -55 -94 -75 -159 -75c-91 0 -142 60 -142 170c0 106 48 219 115 281
c53 49 115 75 190 75c78 0 124 -12 176 -42zM432 423c-20 10 -44 14 -76 14c-43 0 -85 -15 -118 -49c-45 -46 -81 -155 -81 -225c0 -68 27 -97 74 -97c51 0 105 34 147 107zM572 693c-18 -19 -118 -115 -195 -115c-78 0 -137 96 -146 115l45 44c14 -17 62 -65 125 -65
c54 0 130 52 149 65z" />
    <glyph glyph-name="Gdotaccent" unicode="&#x120;" horiz-adv-x="649" 
d="M637 627l-53 -59c-44 37 -88 50 -141 50c-59 0 -113 -24 -154 -69c-68 -74 -107 -221 -107 -319c0 -108 63 -164 157 -164c40 0 75 8 106 24l42 196h-129v80h240l-69 -324c-61 -35 -141 -54 -214 -54c-152 0 -239 104 -239 244s56 283 147 370c70 67 142 94 235 94
c74 0 134 -23 179 -69zM547 795c0 -37 -30 -66 -67 -66s-66 29 -66 66s29 67 67 67c36 0 66 -30 66 -67z" />
    <glyph glyph-name="gdotaccent" unicode="&#x121;" horiz-adv-x="568" 
d="M539 474c-5 -14 -19 -60 -27 -97l-49 -235c-13 -60 -22 -122 -30 -154c-35 -145 -123 -196 -262 -196c-62 0 -117 14 -176 45l33 70c48 -28 93 -40 151 -40c93 0 139 28 160 115c6 27 18 79 20 83c-45 -55 -94 -75 -159 -75c-91 0 -142 60 -142 170c0 106 48 219 115 281
c53 49 115 75 190 75c78 0 124 -12 176 -42zM432 423c-20 10 -44 14 -76 14c-43 0 -85 -15 -118 -49c-45 -46 -81 -155 -81 -225c0 -68 27 -97 74 -97c51 0 105 34 147 107zM458 652c0 -37 -30 -66 -67 -66s-66 29 -66 66s29 67 67 67c36 0 66 -30 66 -67z" />
    <glyph glyph-name="Gcommaaccent" unicode="&#x122;" horiz-adv-x="649" 
d="M637 627l-53 -59c-44 37 -88 50 -141 50c-59 0 -113 -24 -154 -69c-68 -74 -107 -221 -107 -319c0 -108 63 -164 157 -164c40 0 75 8 106 24l42 196h-129v80h240l-69 -324c-61 -35 -141 -54 -214 -54c-152 0 -239 104 -239 244s56 283 147 370c70 67 142 94 235 94
c74 0 134 -23 179 -69zM332 -118c0 -35 -18 -73 -50 -103c-25 -24 -55 -39 -79 -48l-23 37c31 13 59 37 67 64c-19 4 -39 22 -39 52c0 35 25 61 64 61c35 0 60 -27 60 -63z" />
    <glyph glyph-name="gcommaaccent" unicode="&#x123;" horiz-adv-x="568" 
d="M539 474c-5 -14 -19 -60 -27 -97l-49 -235c-13 -60 -22 -122 -30 -154c-35 -145 -123 -196 -262 -196c-62 0 -117 14 -176 45l33 70c48 -28 93 -40 151 -40c93 0 139 28 160 115c6 27 18 79 20 83c-45 -55 -94 -75 -159 -75c-91 0 -142 60 -142 170c0 106 48 219 115 281
c53 49 115 75 190 75c78 0 124 -12 176 -42zM432 423c-20 10 -44 14 -76 14c-43 0 -85 -15 -118 -49c-45 -46 -81 -155 -81 -225c0 -68 27 -97 74 -97c51 0 105 34 147 107zM309 631c0 35 18 73 50 103c25 24 55 39 79 48l23 -37c-31 -13 -59 -37 -67 -64
c19 -4 39 -22 39 -52c0 -35 -25 -61 -64 -61c-35 0 -60 27 -60 63z" />
    <glyph glyph-name="Hcircumflex" unicode="&#x124;" horiz-adv-x="639" 
d="M650 688l-146 -688h-98l70 326h-266l-70 -326h-95l146 688h95l-60 -282h267l60 282h97zM605 771l-40 -51l-121 83l-153 -83l-33 51l201 135z" />
    <glyph glyph-name="hcircumflex" unicode="&#x125;" horiz-adv-x="570" 
d="M519 418c0 -15 -4 -36 -9 -61l-76 -357h-90l71 338c4 18 7 36 7 47c0 33 -20 49 -51 49c-44 0 -113 -43 -164 -106l-70 -328h-92l118 553c9 39 13 72 13 99c0 20 -3 38 -7 52l97 35c4 -14 6 -32 6 -53c0 -36 -6 -79 -15 -124l-13 -61c-4 -18 -16 -63 -23 -85
c54 67 129 97 189 97c69 0 109 -40 109 -95zM429 795l-40 -51l-121 83l-153 -83l-33 51l201 135z" />
    <glyph glyph-name="Hbar" unicode="&#x126;" horiz-adv-x="639" 
d="M645 688l-24 -110h86l-16 -77h-86l-106 -501h-98l70 326h-266l-70 -326h-95l106 501h-84l17 77h84l23 110h95l-24 -110h267l24 110h97zM221 406h267l20 95h-267z" />
    <glyph glyph-name="hbar" unicode="&#x127;" horiz-adv-x="570" 
d="M514 418c0 -15 -4 -36 -9 -61l-76 -357h-90l71 338c4 18 7 36 7 47c0 33 -20 49 -51 49c-44 0 -113 -43 -164 -106l-70 -328h-92l118 553h-63l17 78h58c2 30 -1 54 -6 73l97 35c7 -25 7 -64 2 -108h203l-17 -78h-199l-11 -52c-4 -18 -16 -63 -23 -85c54 67 129 97 189 97
c69 0 109 -40 109 -95z" />
    <glyph glyph-name="Imacron" unicode="&#x12a;" horiz-adv-x="277" 
d="M288 688l-147 -688h-96l146 688h97zM391 820l-14 -68h-264l14 68h264z" />
    <glyph glyph-name="imacron" unicode="&#x12b;" horiz-adv-x="275" 
d="M250 513l-109 -513h-96l106 498zM347 659l-14 -68h-244l14 68h244z" />
    <glyph glyph-name="Iogonek" unicode="&#x12e;" horiz-adv-x="277" 
d="M283 688l-147 -688h-1c-19 0 -84 -52 -92 -101c0 -3 -1 -6 -1 -8c0 -14 8 -25 28 -25c21 0 36 3 62 15l12 -52c-26 -12 -61 -25 -95 -25c-55 0 -81 29 -81 68c0 5 0 11 1 16c8 47 41 88 71 113l146 687h97z" />
    <glyph glyph-name="iogonek" unicode="&#x12f;" horiz-adv-x="275" 
d="M245 513l-109 -513h-1c-19 0 -84 -52 -92 -101c0 -3 -1 -6 -1 -8c0 -14 8 -25 28 -25c21 0 36 3 62 15l12 -52c-26 -12 -61 -25 -95 -25c-55 0 -81 29 -81 68c0 5 0 11 1 16c8 47 41 88 71 113l106 497z" />
    <glyph glyph-name="Idotaccent" unicode="&#x130;" horiz-adv-x="277" 
d="M288 688l-147 -688h-96l146 688h97zM324 797c0 -37 -30 -66 -67 -66s-66 29 -66 66s29 67 67 67c36 0 66 -30 66 -67z" />
    <glyph glyph-name="dotlessi" unicode="&#x131;" horiz-adv-x="275" 
d="M245 513l-109 -513h-96l106 498z" />
    <glyph glyph-name="Jcircumflex" unicode="&#x134;" horiz-adv-x="279" 
d="M290 688l-121 -566c-17 -78 -30 -116 -53 -152c-32 -51 -92 -88 -151 -108l-35 57c41 17 76 45 97 72c18 23 29 54 44 125l121 572h98zM414 771l-40 -51l-121 83l-153 -83l-33 51l201 135z" />
    <glyph glyph-name="jcircumflex" unicode="&#x135;" horiz-adv-x="269" 
d="M245 514l-106 -501c-15 -72 -36 -116 -62 -146c-27 -31 -61 -53 -107 -71l-32 59c32 13 56 31 71 54c16 24 27 56 38 106l102 481zM389 610l-40 -51l-121 83l-153 -83l-33 51l201 135z" />
    <glyph glyph-name="Kcommaaccent" unicode="&#x136;" horiz-adv-x="571" 
d="M647 671l-317 -311l191 -351l-110 -20l-189 376l334 340zM289 688l-146 -688h-98l146 688h98zM301 -117c0 -35 -18 -73 -50 -103c-25 -24 -55 -39 -79 -48l-23 37c31 13 59 37 67 64c-19 4 -39 22 -39 52c0 35 25 61 64 61c35 0 60 -27 60 -63z" />
    <glyph glyph-name="kcommaaccent" unicode="&#x137;" horiz-adv-x="482" 
d="M266 739c4 -13 6 -32 6 -55c0 -32 -4 -73 -14 -118l-121 -566h-92l118 556c8 36 12 70 12 99c0 19 -2 36 -6 49zM520 484l-218 -201l161 -271l-98 -23l-163 300l235 228zM285 -118c0 -35 -18 -73 -50 -103c-25 -24 -55 -39 -79 -48l-23 37c31 13 59 37 67 64
c-19 4 -39 22 -39 52c0 35 25 61 64 61c35 0 60 -27 60 -63z" />
    <glyph glyph-name="Lacute" unicode="&#x139;" horiz-adv-x="465" 
d="M425 81l-32 -81h-348l146 688h98l-129 -607h265zM423 824l-229 -101l-29 54l214 131z" />
    <glyph glyph-name="lacute" unicode="&#x13a;" horiz-adv-x="273" 
d="M265 739c4 -13 6 -32 6 -53c0 -38 -6 -84 -14 -123l-92 -428c-6 -26 -8 -42 -8 -52c0 -17 8 -25 23 -25c5 0 13 0 18 2l5 -59c-22 -9 -44 -12 -67 -12c-49 0 -76 25 -76 68c0 14 3 34 8 56l93 442c8 39 12 73 12 100c0 20 -2 36 -6 49zM377 846l-229 -101l-29 54l214 131
z" />
    <glyph glyph-name="Lcommaaccent" unicode="&#x13b;" horiz-adv-x="465" 
d="M425 81l-32 -81h-348l146 688h98l-129 -607h265zM262 -118c0 -35 -18 -73 -50 -103c-25 -24 -55 -39 -79 -48l-23 37c31 13 59 37 67 64c-19 4 -39 22 -39 52c0 35 25 61 64 61c35 0 60 -27 60 -63z" />
    <glyph glyph-name="lcommaaccent" unicode="&#x13c;" horiz-adv-x="273" 
d="M265 739c4 -13 6 -32 6 -53c0 -38 -6 -84 -14 -123l-92 -428c-6 -26 -8 -42 -8 -52c0 -17 8 -25 23 -25c5 0 13 0 18 2l5 -59c-22 -9 -44 -12 -67 -12c-49 0 -76 25 -76 68c0 14 3 34 8 56l93 442c8 39 12 73 12 100c0 20 -2 36 -6 49zM162 -118c0 -35 -18 -73 -50 -103
c-25 -24 -55 -39 -79 -48l-23 37c31 13 59 37 67 64c-19 4 -39 22 -39 52c0 35 25 61 64 61c35 0 60 -27 60 -63z" />
    <glyph glyph-name="Lcaron" unicode="&#x13d;" horiz-adv-x="465" 
d="M425 81l-32 -81h-348l146 688h98l-129 -607h265zM488 625c0 -35 -18 -73 -50 -103c-25 -24 -55 -39 -79 -48l-23 37c31 13 59 37 67 64c-19 4 -39 22 -39 52c0 35 25 61 64 61c35 0 60 -27 60 -63z" />
    <glyph glyph-name="lcaron" unicode="&#x13e;" horiz-adv-x="273" 
d="M265 739c4 -13 6 -32 6 -53c0 -38 -6 -84 -14 -123l-92 -428c-6 -26 -8 -42 -8 -52c0 -17 8 -25 23 -25c5 0 13 0 18 2l5 -59c-22 -9 -44 -12 -67 -12c-49 0 -76 25 -76 68c0 14 3 34 8 56l93 442c8 39 12 73 12 100c0 20 -2 36 -6 49zM453 673c0 -35 -18 -73 -50 -103
c-25 -24 -55 -39 -79 -48l-23 37c31 13 59 37 67 64c-19 4 -39 22 -39 52c0 35 25 61 64 61c35 0 60 -27 60 -63z" />
    <glyph glyph-name="Lslash" unicode="&#x141;" horiz-adv-x="465" 
d="M420 81l-32 -81h-348l64 302l-69 -21l17 82l69 21l65 304h98l-58 -273l175 53l-17 -82l-175 -53l-54 -252h265z" />
    <glyph glyph-name="lslash" unicode="&#x142;" horiz-adv-x="273" 
d="M291 434l-17 -81l-71 -23l-42 -195c-6 -26 -8 -42 -8 -52c0 -17 8 -25 23 -25c5 0 13 0 18 2l5 -59c-22 -9 -44 -12 -67 -12c-49 0 -76 25 -76 68c0 14 3 34 8 56l39 186l-55 -18l17 82l55 17l37 175c8 39 12 73 12 100c0 20 -2 36 -6 49l98 35c4 -13 6 -32 6 -53
c0 -38 -6 -84 -14 -123l-32 -151z" />
    <glyph glyph-name="Nacute" unicode="&#x143;" horiz-adv-x="643" 
d="M654 688l-146 -688h-101l-113 381c-25 80 -43 160 -45 178c-3 -20 -17 -110 -31 -187l-75 -372h-98l146 688h110l120 -397c21 -70 32 -146 33 -158c2 13 18 119 35 205l71 350h94zM579 824l-229 -101l-29 54l214 131z" />
    <glyph glyph-name="nacute" unicode="&#x144;" horiz-adv-x="556" 
d="M505 413c0 -13 -2 -28 -5 -42l-79 -371h-92l71 336c5 24 8 40 8 52c0 31 -15 45 -45 45c-38 0 -97 -29 -158 -106l-69 -327h-91l76 353c7 33 10 56 10 76c0 18 -2 33 -7 50l86 38c7 -18 12 -38 12 -62c0 -12 -2 -26 -5 -41c51 65 121 99 188 99c62 0 100 -39 100 -100z
M489 663l-229 -101l-29 54l214 131z" />
    <glyph glyph-name="Ncommaaccent" unicode="&#x145;" horiz-adv-x="643" 
d="M654 688l-146 -688h-101l-113 381c-25 80 -43 160 -45 178c-3 -20 -17 -110 -31 -187l-75 -372h-98l146 688h110l120 -397c21 -70 32 -146 33 -158c2 13 18 119 35 205l71 350h94zM325 -118c0 -35 -18 -73 -50 -103c-25 -24 -55 -39 -79 -48l-23 37c31 13 59 37 67 64
c-19 4 -39 22 -39 52c0 35 25 61 64 61c35 0 60 -27 60 -63z" />
    <glyph glyph-name="ncommaaccent" unicode="&#x146;" horiz-adv-x="556" 
d="M505 413c0 -13 -2 -28 -5 -42l-79 -371h-92l71 336c5 24 8 40 8 52c0 31 -15 45 -45 45c-38 0 -97 -29 -158 -106l-69 -327h-91l76 353c7 33 10 56 10 76c0 18 -2 33 -7 50l86 38c7 -18 12 -38 12 -62c0 -12 -2 -26 -5 -41c51 65 121 99 188 99c62 0 100 -39 100 -100z
M285 -118c0 -35 -18 -73 -50 -103c-25 -24 -55 -39 -79 -48l-23 37c31 13 59 37 67 64c-19 4 -39 22 -39 52c0 35 25 61 64 61c35 0 60 -27 60 -63z" />
    <glyph glyph-name="Ncaron" unicode="&#x147;" horiz-adv-x="643" 
d="M654 688l-146 -688h-101l-113 381c-25 80 -43 160 -45 178c-3 -20 -17 -110 -31 -187l-75 -372h-98l146 688h110l120 -397c21 -70 32 -146 33 -158c2 13 18 119 35 205l71 350h94zM625 858l-200 -135l-147 135l41 51l121 -82l153 82z" />
    <glyph glyph-name="ncaron" unicode="&#x148;" horiz-adv-x="556" 
d="M505 413c0 -13 -2 -28 -5 -42l-79 -371h-92l71 336c5 24 8 40 8 52c0 31 -15 45 -45 45c-38 0 -97 -29 -158 -106l-69 -327h-91l76 353c7 33 10 56 10 76c0 18 -2 33 -7 50l86 38c7 -18 12 -38 12 -62c0 -12 -2 -26 -5 -41c51 65 121 99 188 99c62 0 100 -39 100 -100z
M528 692l-200 -135l-147 135l41 51l121 -82l153 82z" />
    <glyph glyph-name="Omacron" unicode="&#x14c;" horiz-adv-x="688" 
d="M666 463c0 -165 -64 -341 -182 -421c-56 -38 -111 -54 -187 -54c-150 0 -220 96 -220 244c0 160 66 308 147 384c57 53 119 84 222 84c139 0 220 -87 220 -237zM560 476c0 89 -39 147 -131 147c-66 0 -119 -29 -153 -75c-56 -75 -94 -207 -94 -335
c0 -106 49 -151 134 -151c53 0 96 18 133 57c66 69 111 242 111 357zM589 821l-14 -68h-264l14 68h264z" />
    <glyph glyph-name="omacron" unicode="&#x14d;" 
d="M486 659l-14 -68h-264l14 68h264zM506 336c0 -190 -110 -348 -283 -348c-110 0 -172 66 -172 180c0 196 119 347 282 347c115 0 173 -70 173 -179zM405 343c0 73 -39 99 -88 99c-106 0 -166 -141 -166 -281c0 -71 33 -100 89 -100c108 0 165 142 165 282z" />
    <glyph glyph-name="Ohungarumlaut" unicode="&#x150;" horiz-adv-x="688" 
d="M559 898l-190 -175l-49 32l163 192zM778 875l-217 -147l-38 41l193 167zM666 463c0 -165 -64 -341 -182 -421c-56 -38 -111 -54 -187 -54c-150 0 -220 96 -220 244c0 160 66 308 147 384c57 53 119 84 222 84c139 0 220 -87 220 -237zM560 476c0 89 -39 147 -131 147
c-66 0 -119 -29 -153 -75c-56 -75 -94 -207 -94 -335c0 -106 49 -151 134 -151c53 0 96 18 133 57c66 69 111 242 111 357z" />
    <glyph glyph-name="ohungarumlaut" unicode="&#x151;" 
d="M506 336c0 -190 -110 -348 -283 -348c-110 0 -172 66 -172 180c0 196 119 347 282 347c115 0 173 -70 173 -179zM405 343c0 73 -39 99 -88 99c-106 0 -166 -141 -166 -281c0 -71 33 -100 89 -100c108 0 165 142 165 282zM446 767l-160 -203l-53 24l131 215zM642 748
l-191 -179l-44 35l164 195z" />
    <glyph glyph-name="OE" unicode="&#x152;" horiz-adv-x="865" 
d="M924 688l-29 -80h-270l-45 -208h226l-17 -82h-226l-49 -235h293l-19 -83h-460c-72 0 -136 3 -193 57c-42 40 -63 97 -63 171c0 126 52 280 143 367c49 47 98 74 153 84c27 5 60 9 103 9h453zM527 597c-23 3 -56 8 -85 8c-86 0 -144 -36 -188 -107
c-42 -68 -73 -184 -73 -266c0 -45 11 -78 32 -107c25 -33 58 -48 102 -48c28 0 77 3 103 7z" />
    <glyph glyph-name="oe" unicode="&#x153;" horiz-adv-x="832" 
d="M805 382c0 -43 -20 -79 -49 -107c-41 -38 -109 -57 -212 -57c-23 0 -45 3 -61 3c-4 -17 -7 -41 -7 -58c0 -67 42 -101 96 -101c58 0 98 16 145 56l33 -57c-32 -29 -78 -73 -203 -73c-63 0 -115 27 -144 77c-47 -50 -110 -80 -185 -80c-129 0 -172 86 -172 181
c0 196 119 346 281 346c74 0 123 -29 149 -79c54 54 112 82 178 82c95 0 151 -46 151 -133zM400 340c0 73 -39 99 -88 99c-107 0 -166 -141 -166 -281c0 -71 32 -100 89 -100c108 0 165 142 165 282zM712 379c0 36 -20 65 -71 65c-60 0 -119 -56 -143 -155
c10 -1 32 -2 48 -2c109 0 166 29 166 92z" />
    <glyph glyph-name="Racute" unicode="&#x154;" horiz-adv-x="550" 
d="M572 530c0 -134 -107 -223 -227 -223c27 -26 54 -63 87 -128c22 -43 61 -143 69 -170l-96 -18c-13 31 -36 84 -52 124c-34 84 -60 125 -86 158c-20 26 -33 30 -60 31l-65 -304h-97l147 688h177c139 0 203 -52 203 -158zM469 512c0 68 -37 96 -120 96h-77l-50 -239h65
c61 0 96 7 127 32c30 25 55 67 55 111zM537 824l-229 -101l-29 54l214 131z" />
    <glyph glyph-name="racute" unicode="&#x155;" horiz-adv-x="365" 
d="M410 508l-40 -94c-10 4 -19 6 -34 6c-41 0 -87 -34 -133 -102l-67 -318h-91l72 338c8 40 12 69 12 92c0 18 -2 34 -7 49l86 38c7 -17 11 -38 11 -62c0 -15 -2 -31 -5 -48c47 66 109 107 156 107c19 0 28 -2 40 -6zM414 663l-229 -101l-29 54l214 131z" />
    <glyph glyph-name="Rcommaaccent" unicode="&#x156;" horiz-adv-x="550" 
d="M572 530c0 -134 -107 -223 -227 -223c27 -26 54 -63 87 -128c22 -43 61 -143 69 -170l-96 -18c-13 31 -36 84 -52 124c-34 84 -60 125 -86 158c-20 26 -33 30 -60 31l-65 -304h-97l147 688h177c139 0 203 -52 203 -158zM469 512c0 68 -37 96 -120 96h-77l-50 -239h65
c61 0 96 7 127 32c30 25 55 67 55 111zM309 -117c0 -35 -18 -73 -50 -103c-25 -24 -55 -39 -79 -48l-23 37c31 13 59 37 67 64c-19 4 -39 22 -39 52c0 35 25 61 64 61c35 0 60 -27 60 -63z" />
    <glyph glyph-name="rcommaaccent" unicode="&#x157;" horiz-adv-x="365" 
d="M410 508l-40 -94c-10 4 -19 6 -34 6c-41 0 -87 -34 -133 -102l-67 -318h-91l72 338c8 40 12 69 12 92c0 18 -2 34 -7 49l86 38c7 -17 11 -38 11 -62c0 -15 -2 -31 -5 -48c47 66 109 107 156 107c19 0 28 -2 40 -6zM136 -118c0 -35 -18 -73 -50 -103
c-25 -24 -55 -39 -79 -48l-23 37c31 13 59 37 67 64c-19 4 -39 22 -39 52c0 35 25 61 64 61c35 0 60 -27 60 -63z" />
    <glyph glyph-name="Rcaron" unicode="&#x158;" horiz-adv-x="550" 
d="M572 530c0 -134 -107 -223 -227 -223c27 -26 54 -63 87 -128c22 -43 61 -143 69 -170l-96 -18c-13 31 -36 84 -52 124c-34 84 -60 125 -86 158c-20 26 -33 30 -60 31l-65 -304h-97l147 688h177c139 0 203 -52 203 -158zM469 512c0 68 -37 96 -120 96h-77l-50 -239h65
c61 0 96 7 127 32c30 25 55 67 55 111zM576 858l-200 -135l-147 135l41 51l121 -82l153 82z" />
    <glyph glyph-name="rcaron" unicode="&#x159;" horiz-adv-x="365" 
d="M410 508l-40 -94c-10 4 -19 6 -34 6c-41 0 -87 -34 -133 -102l-67 -318h-91l72 338c8 40 12 69 12 92c0 18 -2 34 -7 49l86 38c7 -17 11 -38 11 -62c0 -15 -2 -31 -5 -48c47 66 109 107 156 107c19 0 28 -2 40 -6zM469 692l-200 -135l-147 135l41 51l121 -82l153 82z" />
    <glyph glyph-name="Sacute" unicode="&#x15a;" horiz-adv-x="574" 
d="M586 643l-53 -70c-50 37 -92 52 -152 52c-84 0 -145 -47 -145 -108c0 -49 17 -74 81 -100l74 -30c86 -35 120 -88 120 -169c0 -128 -112 -232 -296 -232c-82 0 -143 20 -200 57l49 75c52 -34 99 -52 168 -52c104 0 170 56 170 132c0 52 -18 82 -88 109l-65 25
c-81 31 -119 78 -119 160c0 123 115 213 264 213c74 0 144 -23 192 -62zM546 824l-229 -101l-29 54l214 131z" />
    <glyph glyph-name="sacute" unicode="&#x15b;" horiz-adv-x="472" 
d="M447 480l-37 -68c-41 23 -77 36 -119 36c-60 0 -104 -24 -104 -69c0 -31 13 -48 54 -65l62 -25c70 -28 104 -66 104 -123c0 -107 -89 -181 -225 -181c-66 0 -131 19 -179 51l38 69c44 -30 97 -48 152 -48c63 0 111 32 111 79c0 37 -16 56 -64 76l-58 24
c-65 27 -97 61 -97 121c0 90 79 163 212 163c55 0 112 -15 150 -40zM471 663l-229 -101l-29 54l214 131z" />
    <glyph glyph-name="Scircumflex" unicode="&#x15c;" horiz-adv-x="574" 
d="M586 643l-53 -70c-50 37 -92 52 -152 52c-84 0 -145 -47 -145 -108c0 -49 17 -74 81 -100l74 -30c86 -35 120 -88 120 -169c0 -128 -112 -232 -296 -232c-82 0 -143 20 -200 57l49 75c52 -34 99 -52 168 -52c104 0 170 56 170 132c0 52 -18 82 -88 109l-65 25
c-81 31 -119 78 -119 160c0 123 115 213 264 213c74 0 144 -23 192 -62zM567 771l-40 -51l-121 83l-153 -83l-33 51l201 135z" />
    <glyph glyph-name="scircumflex" unicode="&#x15d;" horiz-adv-x="472" 
d="M447 480l-37 -68c-41 23 -77 36 -119 36c-60 0 -104 -24 -104 -69c0 -31 13 -48 54 -65l62 -25c70 -28 104 -66 104 -123c0 -107 -89 -181 -225 -181c-66 0 -131 19 -179 51l38 69c44 -30 97 -48 152 -48c63 0 111 32 111 79c0 37 -16 56 -64 76l-58 24
c-65 27 -97 61 -97 121c0 90 79 163 212 163c55 0 112 -15 150 -40zM484 610l-40 -51l-121 83l-153 -83l-33 51l201 135z" />
    <glyph glyph-name="Scedilla" unicode="&#x15e;" horiz-adv-x="574" 
d="M581 643l-53 -70c-50 37 -92 52 -152 52c-84 0 -145 -47 -145 -108c0 -49 17 -74 81 -100l74 -30c86 -35 120 -88 120 -169c0 -117 -93 -214 -249 -230l-14 -27c40 -6 52 -27 52 -54c0 -5 0 -10 -1 -16c-7 -42 -51 -89 -119 -89c-30 0 -60 13 -78 24l34 51
c21 -10 34 -15 56 -15c17 0 36 10 39 28v4c0 14 -13 23 -29 23s-39 -2 -39 -2l34 71c-73 3 -129 23 -182 57l49 75c52 -34 99 -52 168 -52c104 0 170 56 170 132c0 52 -18 82 -88 109l-65 25c-81 31 -119 78 -119 160c0 123 115 213 264 213c74 0 144 -23 192 -62z" />
    <glyph glyph-name="scedilla" unicode="&#x15f;" horiz-adv-x="472" 
d="M442 480l-37 -68c-41 23 -77 36 -119 36c-60 0 -104 -24 -104 -69c0 -31 13 -48 54 -65l62 -25c70 -28 104 -66 104 -123c0 -98 -74 -168 -191 -179l-13 -26c40 -6 52 -27 52 -54c0 -5 0 -10 -1 -16c-7 -42 -51 -89 -119 -89c-30 0 -60 13 -78 24l34 51
c21 -10 34 -15 56 -15c17 0 36 10 39 28v4c0 14 -13 23 -29 23s-39 -2 -39 -2l34 71c-55 5 -108 23 -149 50l38 69c44 -30 97 -48 152 -48c63 0 111 32 111 79c0 37 -16 56 -64 76l-58 24c-65 27 -97 61 -97 121c0 90 79 163 212 163c55 0 112 -15 150 -40z" />
    <glyph glyph-name="Scaron" unicode="&#x160;" horiz-adv-x="574" 
d="M586 643l-53 -70c-50 37 -92 52 -152 52c-84 0 -145 -47 -145 -108c0 -49 17 -74 81 -100l74 -30c86 -35 120 -88 120 -169c0 -128 -112 -232 -296 -232c-82 0 -143 20 -200 57l49 75c52 -34 99 -52 168 -52c104 0 170 56 170 132c0 52 -18 82 -88 109l-65 25
c-81 31 -119 78 -119 160c0 123 115 213 264 213c74 0 144 -23 192 -62zM587 859l-200 -135l-147 135l41 51l121 -82l153 82z" />
    <glyph glyph-name="scaron" unicode="&#x161;" horiz-adv-x="472" 
d="M447 480l-37 -68c-41 23 -77 36 -119 36c-60 0 -104 -24 -104 -69c0 -31 13 -48 54 -65l62 -25c70 -28 104 -66 104 -123c0 -107 -89 -181 -225 -181c-66 0 -131 19 -179 51l38 69c44 -30 97 -48 152 -48c63 0 111 32 111 79c0 37 -16 56 -64 76l-58 24
c-65 27 -97 61 -97 121c0 90 79 163 212 163c55 0 112 -15 150 -40zM484 692l-200 -135l-147 135l41 51l121 -82l153 82z" />
    <glyph glyph-name="Tcommaaccent" unicode="&#x162;" horiz-adv-x="469" 
d="M590 688l-27 -81h-181l-129 -607h-95l129 607h-181l18 81h466zM248 -119c0 -35 -18 -73 -50 -103c-25 -24 -55 -39 -79 -48l-23 37c31 13 59 37 67 64c-19 4 -39 22 -39 52c0 35 25 61 64 61c35 0 60 -27 60 -63z" />
    <glyph glyph-name="tcommaaccent" unicode="&#x163;" horiz-adv-x="308" 
d="M365 502l-35 -68h-103l-60 -283c-4 -21 -7 -38 -7 -52c0 -34 15 -46 49 -46c20 0 36 4 52 10v-57c-31 -14 -63 -21 -98 -21c-63 0 -96 31 -96 83c0 24 1 44 7 71l62 295h-61l13 68h62c10 42 22 86 34 124l100 22c-14 -39 -32 -101 -41 -146h122zM197 -118
c0 -35 -18 -73 -50 -103c-25 -24 -55 -39 -79 -48l-23 37c31 13 59 37 67 64c-19 4 -39 22 -39 52c0 35 25 61 64 61c35 0 60 -27 60 -63z" />
    <glyph glyph-name="Tcaron" unicode="&#x164;" horiz-adv-x="469" 
d="M590 688l-27 -81h-181l-129 -607h-95l129 607h-181l18 81h466zM551 858l-200 -135l-147 135l41 51l121 -82l153 82z" />
    <glyph glyph-name="tcaron" unicode="&#x165;" horiz-adv-x="308" 
d="M365 502l-35 -68h-103l-60 -283c-4 -21 -7 -38 -7 -52c0 -34 15 -46 49 -46c20 0 36 4 52 10v-57c-31 -14 -63 -21 -98 -21c-63 0 -96 31 -96 83c0 24 1 44 7 71l62 295h-61l13 68h62c10 42 22 86 34 124l100 22c-14 -39 -32 -101 -41 -146h122zM468 704
c0 -35 -18 -73 -50 -103c-25 -24 -55 -39 -79 -48l-23 37c31 13 59 37 67 64c-19 4 -39 22 -39 52c0 35 25 61 64 61c35 0 60 -27 60 -63z" />
    <glyph glyph-name="Umacron" unicode="&#x16a;" horiz-adv-x="638" 
d="M654 688l-101 -474c-20 -96 -36 -136 -87 -173c-44 -32 -98 -53 -189 -53c-117 0 -198 48 -198 148c0 20 2 55 9 86l99 466h97l-94 -443c-11 -53 -12 -82 -12 -100c0 -47 42 -75 111 -75c59 0 102 23 129 54c21 24 29 45 41 102l98 462h97zM562 820l-14 -68h-264l14 68
h264z" />
    <glyph glyph-name="umacron" unicode="&#x16b;" horiz-adv-x="555" 
d="M497 659l-14 -68h-264l14 68h264zM528 511l-77 -363c-5 -23 -7 -41 -7 -57c0 -24 6 -43 19 -62l-75 -49c-22 23 -34 49 -34 87v12c-56 -64 -118 -95 -179 -95c-69 0 -110 32 -110 101c0 23 3 51 8 75l72 336l94 17l-70 -333c-6 -27 -9 -50 -9 -66c0 -39 14 -54 45 -54
c47 0 115 41 161 114l68 320z" />
    <glyph glyph-name="Ubreve" unicode="&#x16c;" horiz-adv-x="638" 
d="M654 688l-101 -474c-20 -96 -36 -136 -87 -173c-44 -32 -98 -53 -189 -53c-117 0 -198 48 -198 148c0 20 2 55 9 86l99 466h97l-94 -443c-11 -53 -12 -82 -12 -100c0 -47 42 -75 111 -75c59 0 102 23 129 54c21 24 29 45 41 102l98 462h97zM613 890
c-18 -19 -118 -115 -195 -115c-78 0 -137 96 -146 115l45 44c14 -17 62 -65 125 -65c54 0 130 52 149 65z" />
    <glyph glyph-name="ubreve" unicode="&#x16d;" horiz-adv-x="555" 
d="M528 511l-77 -363c-5 -23 -7 -41 -7 -57c0 -24 6 -43 19 -62l-75 -49c-22 23 -34 49 -34 87v12c-56 -64 -118 -95 -179 -95c-69 0 -110 32 -110 101c0 23 3 51 8 75l72 336l94 17l-70 -333c-6 -27 -9 -50 -9 -66c0 -39 14 -54 45 -54c47 0 115 41 161 114l68 320z
M538 699c-18 -19 -118 -115 -195 -115c-78 0 -137 96 -146 115l45 44c14 -17 62 -65 125 -65c54 0 130 52 149 65z" />
    <glyph glyph-name="Uring" unicode="&#x16e;" horiz-adv-x="638" 
d="M654 688l-101 -474c-20 -96 -36 -136 -87 -173c-44 -32 -98 -53 -189 -53c-117 0 -198 48 -198 148c0 20 2 55 9 86l99 466h97l-94 -443c-11 -53 -12 -82 -12 -100c0 -47 42 -75 111 -75c59 0 102 23 129 54c21 24 29 45 41 102l98 462h97zM534 819
c0 -59 -47 -106 -106 -106s-106 47 -106 106s47 106 106 106s106 -47 106 -106zM483 819c0 31 -24 56 -55 56s-55 -25 -55 -56s24 -56 55 -56s55 25 55 56z" />
    <glyph glyph-name="uring" unicode="&#x16f;" horiz-adv-x="555" 
d="M528 511l-77 -363c-5 -23 -7 -41 -7 -57c0 -24 6 -43 19 -62l-75 -49c-22 23 -34 49 -34 87v12c-56 -64 -118 -95 -179 -95c-69 0 -110 32 -110 101c0 23 3 51 8 75l72 336l94 17l-70 -333c-6 -27 -9 -50 -9 -66c0 -39 14 -54 45 -54c47 0 115 41 161 114l68 320z
M468 659c0 -59 -47 -106 -106 -106s-106 47 -106 106s47 106 106 106s106 -47 106 -106zM417 659c0 31 -24 56 -55 56s-55 -25 -55 -56s24 -56 55 -56s55 25 55 56z" />
    <glyph glyph-name="Uhungarumlaut" unicode="&#x170;" horiz-adv-x="638" 
d="M532 898l-190 -175l-48 32l163 192zM751 875l-217 -147l-38 41l193 167zM654 688l-101 -474c-20 -96 -36 -136 -87 -173c-44 -32 -98 -53 -189 -53c-117 0 -198 48 -198 148c0 20 2 55 9 86l99 466h97l-94 -443c-11 -53 -12 -82 -12 -100c0 -47 42 -75 111 -75
c59 0 102 23 129 54c21 24 29 45 41 102l98 462h97z" />
    <glyph glyph-name="uhungarumlaut" unicode="&#x171;" horiz-adv-x="555" 
d="M528 511l-77 -363c-5 -23 -7 -41 -7 -57c0 -24 6 -43 19 -62l-75 -49c-22 23 -34 49 -34 87v12c-56 -64 -118 -95 -179 -95c-69 0 -110 32 -110 101c0 23 3 51 8 75l72 336l94 17l-70 -333c-6 -27 -9 -50 -9 -66c0 -39 14 -54 45 -54c47 0 115 41 161 114l68 320z
M449 767l-160 -203l-53 24l131 215zM645 748l-191 -179l-44 35l164 195z" />
    <glyph glyph-name="Uogonek" unicode="&#x172;" horiz-adv-x="638" 
d="M649 688l-101 -474c-20 -96 -36 -136 -87 -173c-28 -20 -60 -38 -111 -47c-24 -4 -79 -46 -87 -95c0 -3 -1 -6 -1 -8c0 -14 8 -25 28 -25c21 0 36 3 62 15l12 -52c-26 -12 -61 -25 -95 -25c-55 0 -81 29 -81 68c0 5 0 11 1 16c7 40 32 76 58 101c-103 7 -173 54 -173 147
c0 20 2 55 9 86l99 466h97l-94 -443c-11 -53 -12 -82 -12 -100c0 -47 42 -75 111 -75c59 0 102 23 129 54c21 24 29 45 41 102l98 462h97z" />
    <glyph glyph-name="uogonek" unicode="&#x173;" horiz-adv-x="555" 
d="M523 511l-77 -363c-5 -23 -7 -41 -7 -57c0 -24 6 -43 19 -62c0 0 -48 -26 -75 -49s-52 -54 -56 -81c0 -3 -1 -6 -1 -8c0 -14 8 -25 28 -25c21 0 36 3 62 15l12 -52c-26 -12 -61 -25 -95 -25c-54 0 -82 29 -82 67c0 58 48 110 106 149c-5 13 -9 29 -9 47l1 12
c-56 -64 -118 -95 -179 -95c-69 0 -110 32 -110 101c0 23 3 51 8 75l72 336l94 17l-70 -333c-6 -27 -9 -50 -9 -66c0 -39 14 -54 45 -54c47 0 115 41 161 114l68 320z" />
    <glyph glyph-name="Ydieresis" unicode="&#x178;" horiz-adv-x="543" 
d="M644 688l-311 -416l-58 -272h-101l59 276l-132 412h114l67 -243c7 -26 15 -57 18 -80c15 22 34 50 54 79l174 244h116zM328 786c0 -33 -26 -60 -58 -60c-33 0 -59 27 -59 60c0 32 26 58 58 58c33 0 59 -26 59 -58zM536 786c0 -33 -26 -60 -58 -60c-33 0 -59 27 -59 60
c0 32 26 58 58 58c33 0 59 -26 59 -58z" />
    <glyph glyph-name="Zacute" unicode="&#x179;" horiz-adv-x="523" 
d="M571 621l-384 -480c-20 -25 -38 -43 -53 -61c18 1 37 2 61 2h261l-32 -82h-415v70l389 474c20 24 43 51 57 65c-14 -1 -38 -2 -71 -2h-244l33 81h398v-67zM520 824l-229 -101l-29 54l214 131z" />
    <glyph glyph-name="zacute" unicode="&#x17a;" horiz-adv-x="416" 
d="M433 436l-337 -368h263l-37 -68h-348l2 66l340 365h-229l3 71h343v-66zM410 663l-229 -101l-29 54l214 131z" />
    <glyph glyph-name="Zdotaccent" unicode="&#x17b;" horiz-adv-x="523" 
d="M571 621l-384 -480c-20 -25 -38 -43 -53 -61c18 1 37 2 61 2h261l-32 -82h-415v70l389 474c20 24 43 51 57 65c-14 -1 -38 -2 -71 -2h-244l33 81h398v-67zM444 797c0 -37 -30 -66 -67 -66s-66 29 -66 66s29 67 67 67c36 0 66 -30 66 -67z" />
    <glyph glyph-name="zdotaccent" unicode="&#x17c;" horiz-adv-x="416" 
d="M433 436l-337 -368h263l-37 -68h-348l2 66l340 365h-229l3 71h343v-66zM343 652c0 -37 -30 -66 -67 -66s-66 29 -66 66s29 67 67 67c36 0 66 -30 66 -67z" />
    <glyph glyph-name="Zcaron" unicode="&#x17d;" horiz-adv-x="523" 
d="M571 621l-384 -480c-20 -25 -38 -43 -53 -61c18 1 37 2 61 2h261l-32 -82h-415v70l389 474c20 24 43 51 57 65c-14 -1 -38 -2 -71 -2h-244l33 81h398v-67zM580 859l-200 -135l-147 135l41 51l121 -82l153 82z" />
    <glyph glyph-name="zcaron" unicode="&#x17e;" horiz-adv-x="416" 
d="M433 436l-337 -368h263l-37 -68h-348l2 66l340 365h-229l3 71h343v-66zM463 692l-200 -135l-147 135l41 51l121 -82l153 82z" />
    <glyph glyph-name="longs" unicode="&#x17f;" horiz-adv-x="572" 
d="M376 730c39 0 82 -13 115 -37l-52 -58c-25 17 -49 25 -75 25c-67 0 -107 -43 -128 -146l-107 -524c-19 -94 -49 -155 -91 -202l-68 45c30 39 54 95 69 168l87 433h-75l14 68h74l9 34c26 141 111 194 228 194z" />
    <glyph glyph-name="florin" unicode="&#x192;" horiz-adv-x="394" 
d="M472 699l-43 -62c-20 15 -41 21 -64 21c-39 0 -70 -29 -82 -80l-18 -76h130l-41 -68h-104l-92 -384c-35 -145 -49 -188 -176 -253l-32 64c90 50 96 89 117 177l94 396h-46l12 68h50l18 76c25 104 92 150 177 150c41 0 78 -13 100 -29z" />
    <glyph glyph-name="Scommaaccent" unicode="&#x218;" horiz-adv-x="574" 
d="M586 643l-53 -70c-50 37 -92 52 -152 52c-84 0 -145 -47 -145 -108c0 -49 17 -74 81 -100l74 -30c86 -35 120 -88 120 -169c0 -128 -112 -232 -296 -232c-82 0 -143 20 -200 57l49 75c52 -34 99 -52 168 -52c104 0 170 56 170 132c0 52 -18 82 -88 109l-65 25
c-81 31 -119 78 -119 160c0 123 115 213 264 213c74 0 144 -23 192 -62zM276 -118c0 -35 -18 -73 -50 -103c-25 -24 -55 -39 -79 -48l-23 37c31 13 59 37 67 64c-19 4 -39 22 -39 52c0 35 25 61 64 61c35 0 60 -27 60 -63z" />
    <glyph glyph-name="scommaaccent" unicode="&#x219;" horiz-adv-x="472" 
d="M447 480l-37 -68c-41 23 -77 36 -119 36c-60 0 -104 -24 -104 -69c0 -31 13 -48 54 -65l62 -25c70 -28 104 -66 104 -123c0 -107 -89 -181 -225 -181c-66 0 -131 19 -179 51l38 69c44 -30 97 -48 152 -48c63 0 111 32 111 79c0 37 -16 56 -64 76l-58 24
c-65 27 -97 61 -97 121c0 90 79 163 212 163c55 0 112 -15 150 -40zM233 -118c0 -35 -18 -73 -50 -103c-25 -24 -55 -39 -79 -48l-23 37c31 13 59 37 67 64c-19 4 -39 22 -39 52c0 35 25 61 64 61c35 0 60 -27 60 -63z" />
    <glyph glyph-name="uni021A" unicode="&#x21a;" horiz-adv-x="469" 
d="M590 688l-27 -81h-181l-129 -607h-95l129 607h-181l18 81h466zM248 -119c0 -35 -18 -73 -50 -103c-25 -24 -55 -39 -79 -48l-23 37c31 13 59 37 67 64c-19 4 -39 22 -39 52c0 35 25 61 64 61c35 0 60 -27 60 -63z" />
    <glyph glyph-name="uni021B" unicode="&#x21b;" horiz-adv-x="308" 
d="M365 502l-35 -68h-103l-60 -283c-4 -21 -7 -38 -7 -52c0 -34 15 -46 49 -46c20 0 36 4 52 10v-57c-31 -14 -63 -21 -98 -21c-63 0 -96 31 -96 83c0 24 1 44 7 71l62 295h-61l13 68h62c10 42 22 86 34 124l100 22c-14 -39 -32 -101 -41 -146h122zM197 -118
c0 -35 -18 -73 -50 -103c-25 -24 -55 -39 -79 -48l-23 37c31 13 59 37 67 64c-19 4 -39 22 -39 52c0 35 25 61 64 61c35 0 60 -27 60 -63z" />
    <glyph glyph-name="dotlessj" unicode="&#x237;" horiz-adv-x="269" 
d="M240 514l-106 -501c-15 -72 -36 -116 -62 -146c-27 -31 -61 -53 -107 -71l-32 59c32 13 56 31 71 54c16 24 27 56 38 106l102 481z" />
    <glyph glyph-name="circumflex" unicode="&#x2c6;" horiz-adv-x="387" 
d="M446 610l-40 -51l-121 83l-153 -83l-33 51l201 135z" />
    <glyph glyph-name="caron" unicode="&#x2c7;" horiz-adv-x="387" 
d="M465 692l-200 -135l-147 135l41 51l121 -82l153 82z" />
    <glyph glyph-name="breve" unicode="&#x2d8;" horiz-adv-x="380" 
d="M457 693c-18 -19 -118 -115 -195 -115c-78 0 -137 96 -146 115l45 44c14 -17 62 -65 125 -65c54 0 130 52 149 65z" />
    <glyph glyph-name="dotaccent" unicode="&#x2d9;" horiz-adv-x="175" 
d="M243 652c0 -37 -30 -66 -67 -66s-66 29 -66 66s29 67 67 67c36 0 66 -30 66 -67z" />
    <glyph glyph-name="ring" unicode="&#x2da;" horiz-adv-x="256" 
d="M324 659c0 -59 -47 -106 -106 -106s-106 47 -106 106s47 106 106 106s106 -47 106 -106zM273 659c0 31 -24 56 -55 56s-55 -25 -55 -56s24 -56 55 -56s55 25 55 56z" />
    <glyph glyph-name="ogonek" unicode="&#x2db;" horiz-adv-x="244" 
d="M126 -174c-22 -11 -58 -24 -88 -24c-57 0 -84 30 -84 69c0 6 1 13 2 19c13 64 70 113 94 129l50 -32c-8 -5 -66 -44 -74 -90c0 -3 -1 -6 -1 -8c0 -15 8 -26 27 -26c22 0 36 4 61 15z" />
    <glyph glyph-name="tilde" unicode="&#x2dc;" horiz-adv-x="391" 
d="M461 653c-42 -41 -77 -64 -136 -64s-63 38 -120 38c-32 0 -50 -17 -76 -39l-23 53c42 41 76 64 133 64c60 0 64 -38 122 -38c32 0 52 16 77 38z" />
    <glyph glyph-name="hungarumlaut" unicode="&#x2dd;" horiz-adv-x="416" 
d="M297 727l-160 -203l-53 24l131 215zM493 708l-191 -179l-44 35l164 195z" />
    <glyph glyph-name="uni037E" unicode="&#x37e;" horiz-adv-x="321" 
d="M197 49c0 -55 -32 -103 -82 -147c-26 -23 -59 -38 -79 -47l-28 46c37 16 77 51 81 88c-27 3 -48 34 -48 67c0 46 34 77 78 77c45 0 78 -32 78 -84zM253 371c0 -41 -33 -73 -72 -73c-40 0 -72 32 -72 73c0 40 32 71 72 71s72 -31 72 -71z" />
    <glyph glyph-name="tonos" unicode="&#x384;" horiz-adv-x="347" 
d="M306 708l-146 -146l-40 31l126 164z" />
    <glyph glyph-name="dieresistonos" unicode="&#x385;" horiz-adv-x="506" 
d="M404 741l-146 -146l-40 31l126 164zM458 625c0 -33 -26 -60 -58 -60c-33 0 -60 27 -60 60c0 32 26 58 59 58c32 0 59 -26 59 -58zM190 625c0 -33 -26 -60 -58 -60c-33 0 -59 27 -59 60c0 32 26 58 58 58c33 0 59 -26 59 -58z" />
    <glyph glyph-name="Alphatonos" unicode="&#x386;" horiz-adv-x="572" 
d="M522 0h-103l-18 199h-243l-104 -199h-104l376 689h118zM393 279l-17 171c-4 41 -12 144 -12 147c-2 -3 -29 -60 -48 -97l-116 -221h193zM132 651l-146 -146l-40 31l126 164z" />
    <glyph glyph-name="anoteleia" unicode="&#x387;" horiz-adv-x="307" 
d="M234 278c0 -40 -32 -72 -72 -72s-72 32 -72 72s32 72 72 72s72 -32 72 -72z" />
    <glyph glyph-name="Epsilontonos" unicode="&#x388;" horiz-adv-x="508" 
d="M567 688l-31 -79h-269l-44 -209h226l-18 -82h-226l-49 -235h292l-18 -83h-390l146 688h381zM72 651l-146 -146l-40 31l126 164z" />
    <glyph glyph-name="Etatonos" unicode="&#x389;" horiz-adv-x="639" 
d="M645 688l-146 -688h-98l70 326h-266l-70 -326h-95l146 688h95l-60 -282h267l60 282h97zM72 651l-146 -146l-40 31l126 164z" />
    <glyph glyph-name="Iotatonos" unicode="&#x38a;" horiz-adv-x="277" 
d="M283 688l-147 -688h-96l146 688h97zM72 651l-146 -146l-40 31l126 164z" />
    <glyph glyph-name="Omicrontonos" unicode="&#x38c;" horiz-adv-x="688" 
d="M661 463c0 -165 -64 -341 -182 -421c-56 -38 -111 -54 -187 -54c-150 0 -220 96 -220 244c0 160 66 308 147 384c57 53 119 84 222 84c139 0 220 -87 220 -237zM555 476c0 89 -39 147 -131 147c-66 0 -119 -29 -153 -75c-56 -75 -94 -207 -94 -335
c0 -106 49 -151 134 -151c53 0 96 18 133 57c66 69 111 242 111 357zM102 651l-146 -146l-40 31l126 164z" />
    <glyph glyph-name="Upsilontonos" unicode="&#x38e;" horiz-adv-x="543" 
d="M639 688l-311 -416l-58 -272h-101l59 276l-132 412h114l67 -243c7 -26 15 -57 18 -80c15 22 34 50 54 79l174 244h116zM72 651l-146 -146l-40 31l126 164z" />
    <glyph glyph-name="Omegatonos" unicode="&#x38f;" horiz-adv-x="708" 
d="M681 461c0 -150 -96 -306 -209 -379h133l-32 -82h-217v73c120 59 219 253 219 396c0 94 -39 153 -139 153c-68 0 -124 -31 -163 -78c-58 -71 -83 -179 -83 -267c0 -84 29 -168 88 -204l-16 -73h-211v82h119c-57 50 -87 125 -87 208c0 123 49 247 140 325
c60 52 141 85 227 85c150 0 231 -98 231 -239zM102 651l-146 -146l-40 31l126 164z" />
    <glyph glyph-name="iotadieresistonos" unicode="&#x390;" horiz-adv-x="275" 
d="M217 439c0 -33 -6 -67 -13 -100l-44 -204c-6 -26 -8 -42 -8 -52c0 -17 8 -25 23 -25c5 0 13 0 18 2l5 -59c-22 -9 -44 -12 -67 -12c-49 0 -76 25 -76 68c0 14 3 34 8 56l47 218c14 67 19 104 6 149l88 37c10 -24 13 -51 13 -78zM346 741l-146 -146l-40 31l126 164z
M400 625c0 -33 -26 -60 -58 -60c-33 0 -60 27 -60 60c0 32 26 58 59 58c32 0 59 -26 59 -58zM132 625c0 -33 -26 -60 -58 -60c-33 0 -59 27 -59 60c0 32 26 58 58 58c33 0 59 -26 59 -58z" />
    <glyph glyph-name="Alpha" unicode="&#x391;" horiz-adv-x="572" 
d="M522 0h-103l-18 199h-243l-104 -199h-104l376 688h118zM393 279l-17 171c-4 41 -12 144 -12 147c-2 -3 -29 -60 -48 -97l-116 -221h193z" />
    <glyph glyph-name="Beta" unicode="&#x392;" horiz-adv-x="596" 
d="M584 538c0 -80 -50 -146 -154 -173c79 -15 114 -72 114 -144c0 -56 -29 -116 -82 -161s-105 -60 -226 -60h-196l146 688h195c150 0 203 -62 203 -150zM438 221c-1 61 -27 97 -123 97h-113l-51 -239h124c50 0 85 12 111 32c29 22 53 65 52 110zM477 520
c0 55 -29 87 -112 87h-102l-44 -209h113c46 0 79 10 100 27c28 22 45 55 45 95z" />
    <glyph glyph-name="Gamma" unicode="&#x393;" horiz-adv-x="411" 
d="M537 688l-32 -81h-238l-129 -607h-98l146 688h351z" />
    <glyph glyph-name="uni0394" unicode="&#x394;" horiz-adv-x="605" 
d="M553 80l-23 -80h-545v63l364 625h114zM449 80l-48 370c-5 32 -17 144 -17 144h-1c1 0 -31 -61 -49 -94l-235 -420h350z" />
    <glyph glyph-name="Epsilon" unicode="&#x395;" horiz-adv-x="508" 
d="M567 688l-31 -79h-269l-44 -209h226l-18 -82h-226l-49 -235h292l-18 -83h-390l146 688h381z" />
    <glyph glyph-name="Zeta" unicode="&#x396;" horiz-adv-x="523" 
d="M566 621l-384 -480c-20 -25 -38 -43 -53 -61c18 1 37 2 61 2h261l-32 -82h-415v70l389 474c20 24 43 51 57 65c-14 -1 -38 -2 -71 -2h-244l33 81h398v-67z" />
    <glyph glyph-name="Eta" unicode="&#x397;" horiz-adv-x="639" 
d="M645 688l-146 -688h-98l70 326h-266l-70 -326h-95l146 688h95l-60 -282h267l60 282h97z" />
    <glyph glyph-name="Theta" unicode="&#x398;" horiz-adv-x="688" 
d="M661 463c0 -165 -64 -341 -182 -421c-56 -38 -111 -54 -187 -54c-150 0 -220 96 -220 244c0 160 66 308 147 384c57 53 119 84 222 84c139 0 220 -87 220 -237zM535 319h-350c-5 -35 -8 -71 -8 -106c0 -106 49 -151 134 -151c53 0 96 18 133 57c39 41 71 119 91 200z
M555 476c0 89 -39 147 -131 147c-66 0 -119 -29 -153 -75c-28 -38 -52 -90 -68 -148h347c3 27 5 53 5 76z" />
    <glyph glyph-name="Iota" unicode="&#x399;" horiz-adv-x="277" 
d="M283 688l-147 -688h-96l146 688h97z" />
    <glyph glyph-name="Kappa" unicode="&#x39a;" horiz-adv-x="571" 
d="M642 671l-317 -311l191 -351l-110 -20l-189 376l334 340zM284 688l-146 -688h-98l146 688h98z" />
    <glyph glyph-name="Lambda" unicode="&#x39b;" horiz-adv-x="544" 
d="M494 0h-102l-35 451c-4 40 -10 141 -10 146c-2 -5 -26 -61 -43 -97l-251 -500h-103l361 688h118z" />
    <glyph glyph-name="Mu" unicode="&#x39c;" horiz-adv-x="819" 
d="M786 688l-87 -688h-95l63 469c6 44 18 108 20 117c-14 -35 -34 -77 -49 -108l-240 -478h-82l-29 456c-3 47 -6 85 -5 131c-3 -10 -23 -89 -35 -131l-132 -456h-95l208 688h135l26 -422c3 -49 4 -69 1 -118c21 53 31 76 49 113l211 427h136z" />
    <glyph glyph-name="Nu" unicode="&#x39d;" horiz-adv-x="643" 
d="M649 688l-146 -688h-101l-113 381c-25 80 -43 160 -45 178c-3 -20 -17 -110 -31 -187l-75 -372h-98l146 688h110l120 -397c21 -70 32 -146 33 -158c2 13 18 119 35 205l71 350h94z" />
    <glyph glyph-name="Xi" unicode="&#x39e;" horiz-adv-x="528" 
d="M483 0h-443l23 89h420v-89zM587 688l-21 -84h-415v84h436zM516 404l-22 -85h-373l21 85h374z" />
    <glyph glyph-name="Omicron" unicode="&#x39f;" horiz-adv-x="688" 
d="M661 463c0 -165 -64 -341 -182 -421c-56 -38 -111 -54 -187 -54c-150 0 -220 96 -220 244c0 160 66 308 147 384c57 53 119 84 222 84c139 0 220 -87 220 -237zM555 476c0 89 -39 147 -131 147c-66 0 -119 -29 -153 -75c-56 -75 -94 -207 -94 -335
c0 -106 49 -151 134 -151c53 0 96 18 133 57c66 69 111 242 111 357z" />
    <glyph glyph-name="Pi" unicode="&#x3a0;" horiz-adv-x="627" 
d="M633 688l-146 -688h-98l130 607h-254l-130 -607h-95l146 688h447z" />
    <glyph glyph-name="Rho" unicode="&#x3a1;" horiz-adv-x="559" 
d="M585 529c0 -90 -37 -164 -112 -217c-41 -29 -97 -43 -172 -43h-108l-57 -269h-96l146 688h180c78 0 129 -14 161 -38c40 -30 58 -73 58 -121zM480 508c0 66 -34 100 -128 100h-87l-55 -260h103c57 0 86 12 112 36c37 35 55 81 55 124z" />
    <glyph glyph-name="Sigma" unicode="&#x3a3;" horiz-adv-x="513" 
d="M572 688l-33 -81h-236c-15 0 -47 0 -54 1c5 -6 26 -36 35 -53l104 -182l-220 -252c-9 -11 -21 -23 -39 -41c21 1 33 2 52 2h263l-33 -82h-407v71l269 303l-137 241l29 73h407z" />
    <glyph glyph-name="Tau" unicode="&#x3a4;" horiz-adv-x="469" 
d="M585 688l-27 -81h-181l-129 -607h-95l129 607h-181l18 81h466z" />
    <glyph glyph-name="Upsilon" unicode="&#x3a5;" horiz-adv-x="543" 
d="M639 688l-311 -416l-58 -272h-101l59 276l-132 412h114l67 -243c7 -26 15 -57 18 -80c15 22 34 50 54 79l174 244h116z" />
    <glyph glyph-name="Phi" unicode="&#x3a6;" horiz-adv-x="754" 
d="M722 408c0 -199 -159 -317 -341 -330l-16 -78h-96l16 79c-155 11 -228 94 -228 207c0 199 160 323 343 333l15 69h97l-15 -69c163 -13 225 -103 225 -211zM385 544c-135 -20 -220 -110 -220 -245c0 -80 45 -132 136 -144zM613 400c0 80 -44 128 -133 141l-83 -387
c138 18 216 111 216 246z" />
    <glyph glyph-name="Chi" unicode="&#x3a7;" horiz-adv-x="501" 
d="M587 688l-250 -328l142 -360h-112l-102 281l-206 -281h-120l291 370l-121 318h109l82 -235l169 235h118z" />
    <glyph glyph-name="Psi" unicode="&#x3a8;" horiz-adv-x="744" 
d="M775 688l-59 -276c-17 -79 -48 -141 -89 -180c-61 -59 -144 -75 -224 -80l-32 -152h-96l33 155c-112 6 -212 65 -212 176c0 16 2 49 8 81l59 276h98l-55 -259c-7 -32 -8 -55 -8 -70c0 -70 34 -118 126 -128l97 457h96l-97 -457c74 11 131 43 163 95c18 29 31 64 39 103
l55 259h98z" />
    <glyph glyph-name="uni03A9" unicode="&#x3a9;" horiz-adv-x="708" 
d="M681 461c0 -150 -96 -306 -209 -379h133l-32 -82h-217v73c120 59 219 253 219 396c0 94 -39 153 -139 153c-68 0 -124 -31 -163 -78c-58 -71 -83 -179 -83 -267c0 -84 29 -168 88 -204l-16 -73h-211v82h119c-57 50 -87 125 -87 208c0 123 49 247 140 325
c60 52 141 85 227 85c150 0 231 -98 231 -239z" />
    <glyph glyph-name="Iotadieresis" unicode="&#x3aa;" horiz-adv-x="277" 
d="M283 688l-147 -688h-96l146 688h97zM403 786c0 -33 -26 -60 -58 -60c-33 0 -60 27 -60 60c0 32 26 58 59 58c32 0 59 -26 59 -58zM195 786c0 -33 -26 -60 -58 -60c-33 0 -59 27 -59 60c0 32 26 58 58 58c33 0 59 -26 59 -58z" />
    <glyph glyph-name="Upsilondieresis" unicode="&#x3ab;" horiz-adv-x="543" 
d="M639 688l-311 -416l-58 -272h-101l59 276l-132 412h114l67 -243c7 -26 15 -57 18 -80c15 22 34 50 54 79l174 244h116zM532 786c0 -33 -26 -60 -58 -60c-33 0 -60 27 -60 60c0 32 26 58 59 58c32 0 59 -26 59 -58zM324 786c0 -33 -26 -60 -58 -60c-33 0 -59 27 -59 60
c0 32 26 58 58 58c33 0 59 -26 59 -58z" />
    <glyph glyph-name="alphatonos" unicode="&#x3ac;" horiz-adv-x="530" 
d="M494 475c-8 -26 -21 -75 -28 -110l-43 -202c-16 -74 -7 -98 18 -124l-75 -57c-28 27 -39 55 -37 97c-35 -55 -92 -89 -164 -89c-69 0 -124 50 -124 159c0 104 39 217 105 283c53 53 121 83 200 83c55 0 108 -13 148 -40zM390 429c-13 7 -33 12 -54 12
c-54 0 -91 -17 -132 -65c-48 -57 -68 -154 -68 -226c0 -61 22 -84 64 -84c50 0 106 48 136 110zM501 708l-146 -146l-40 31l126 164z" />
    <glyph glyph-name="epsilontonos" unicode="&#x3ad;" horiz-adv-x="484" 
d="M494 446l-45 -51c-37 33 -79 55 -141 55c-47 0 -105 -34 -105 -89c0 -36 30 -56 75 -56h77l-15 -70h-74c-68 0 -130 -38 -130 -111c0 -46 46 -67 95 -67c69 0 127 17 183 53l29 -56c-93 -61 -151 -69 -243 -69c-70 0 -168 27 -168 122c0 85 61 148 142 169
c-50 12 -70 45 -70 80c0 111 113 164 216 164c74 0 128 -24 174 -74zM476 708l-146 -146l-40 31l126 164z" />
    <glyph glyph-name="etatonos" unicode="&#x3ae;" horiz-adv-x="556" 
d="M501 416c0 -12 -3 -28 -5 -40l-55 -241c-6 -26 -9 -42 -9 -52c0 -17 9 -25 24 -25c5 0 13 0 18 2l5 -59c-22 -9 -43 -12 -66 -12c-49 0 -77 24 -77 67c0 14 4 35 9 57l49 225c5 23 10 40 10 52c0 31 -16 43 -46 43c-38 0 -97 -29 -158 -106l-69 -327h-91l76 353
c13 62 13 89 3 126l86 38c10 -28 17 -59 7 -103c51 65 121 99 188 99c62 0 101 -36 101 -97zM486 708l-146 -146l-40 31l126 164z" />
    <glyph glyph-name="iotatonos" unicode="&#x3af;" horiz-adv-x="275" 
d="M217 439c0 -33 -6 -67 -13 -100l-44 -204c-6 -26 -8 -42 -8 -52c0 -17 8 -25 23 -25c5 0 13 0 18 2l5 -59c-22 -9 -44 -12 -67 -12c-49 0 -76 25 -76 68c0 14 3 34 8 56l47 218c14 67 19 104 6 149l88 37c10 -24 13 -51 13 -78zM348 708l-146 -146l-40 31l126 164z" />
    <glyph glyph-name="upsilondieresistonos" unicode="&#x3b0;" horiz-adv-x="546" 
d="M517 511l-75 -350c-21 -98 -97 -177 -227 -177c-109 0 -160 54 -160 131c0 14 3 30 6 45l72 336l94 17l-69 -324c-4 -21 -8 -43 -8 -60c0 -44 23 -72 81 -72c75 0 110 58 126 132l66 305zM484 741l-146 -146l-40 31l126 164zM538 625c0 -33 -26 -60 -58 -60
c-33 0 -60 27 -60 60c0 32 26 58 59 58c32 0 59 -26 59 -58zM270 625c0 -33 -26 -60 -58 -60c-33 0 -59 27 -59 60c0 32 26 58 58 58c33 0 59 -26 59 -58z" />
    <glyph glyph-name="alpha" unicode="&#x3b1;" horiz-adv-x="530" 
d="M494 475c-8 -26 -21 -75 -28 -110l-43 -202c-5 -25 -8 -44 -8 -60c0 -30 10 -47 26 -64l-75 -57c-26 25 -37 51 -37 88v9c-35 -55 -92 -89 -164 -89c-69 0 -124 50 -124 159c0 104 39 217 105 283c53 53 121 83 200 83c55 0 108 -13 148 -40zM390 429
c-13 7 -33 12 -54 12c-54 0 -91 -17 -132 -65c-48 -57 -68 -154 -68 -226c0 -61 22 -84 64 -84c50 0 106 48 136 110z" />
    <glyph glyph-name="beta" unicode="&#x3b2;" horiz-adv-x="594" 
d="M554 573c0 -91 -61 -161 -141 -183c78 -19 106 -94 106 -162c0 -140 -132 -240 -272 -240c-48 0 -81 8 -110 24l-41 -203l-97 -20l148 720c26 128 100 204 250 204c97 0 157 -60 157 -140zM461 565c0 47 -25 79 -87 79c-61 0 -113 -28 -134 -128l-87 -426
c21 -18 52 -28 101 -28c100 0 166 78 166 170c0 71 -42 117 -136 117h-9l13 65c104 0 173 60 173 151z" />
    <glyph glyph-name="gamma" unicode="&#x3b3;" horiz-adv-x="454" 
d="M489 502l-282 -501c-1 -13 -28 -130 -48 -192l-94 -20c31 98 62 213 62 322c0 96 -3 215 -19 305c-2 9 -15 21 -34 21c-7 0 -18 -2 -25 -6l-6 58c23 13 61 26 86 26c51 0 63 -41 67 -71c14 -101 15 -190 14 -295c13 26 27 53 38 74l145 279h96z" />
    <glyph glyph-name="delta" unicode="&#x3b4;" 
d="M547 688l-31 -76h-192c86 -64 173 -173 173 -292c0 -187 -108 -332 -279 -332c-110 0 -172 65 -172 179c0 171 79 324 272 333c-45 46 -84 81 -132 111l31 77h330zM396 329c0 75 -32 100 -85 100c-122 0 -165 -166 -165 -268c0 -71 33 -100 89 -100
c108 0 161 128 161 268z" />
    <glyph glyph-name="epsilon" unicode="&#x3b5;" horiz-adv-x="484" 
d="M494 446l-45 -51c-37 33 -79 55 -141 55c-47 0 -105 -34 -105 -89c0 -36 30 -56 75 -56h77l-15 -70h-74c-68 0 -130 -38 -130 -111c0 -46 46 -67 95 -67c69 0 127 17 183 53l29 -56c-93 -61 -151 -69 -243 -69c-70 0 -168 27 -168 122c0 85 61 148 142 169
c-50 12 -70 45 -70 80c0 111 113 164 216 164c74 0 128 -24 174 -74z" />
    <glyph glyph-name="zeta" unicode="&#x3b6;" horiz-adv-x="453" 
d="M534 688l-25 -72c-129 -90 -352 -272 -352 -448c0 -43 19 -76 84 -76h51c70 0 109 -34 109 -99c0 -85 -54 -144 -105 -197l-53 34c30 35 68 74 68 123c0 27 -15 47 -48 47h-51c-101 0 -160 64 -160 144c0 192 206 363 344 467h-245l18 77h365z" />
    <glyph glyph-name="eta" unicode="&#x3b7;" horiz-adv-x="556" 
d="M501 416c0 -12 -3 -28 -5 -40l-55 -241c-6 -26 -9 -42 -9 -52c0 -17 9 -25 24 -25c5 0 13 0 18 2l5 -59c-22 -9 -43 -12 -66 -12c-49 0 -77 24 -77 67c0 14 4 35 9 57l49 225c5 23 10 40 10 52c0 31 -16 43 -46 43c-38 0 -97 -29 -158 -106l-69 -327h-91l76 353
c13 62 13 89 3 126l86 38c10 -28 17 -59 7 -103c51 65 121 99 188 99c62 0 101 -36 101 -97z" />
    <glyph glyph-name="theta" unicode="&#x3b8;" horiz-adv-x="569" 
d="M534 496c0 -184 -83 -508 -309 -508c-122 0 -160 103 -160 206c0 182 85 506 306 506c125 0 163 -100 163 -204zM416 327h-241c-10 -40 -20 -101 -20 -138c0 -65 19 -133 84 -133c111 0 160 190 177 271zM444 505c0 62 -20 127 -86 127c-101 0 -150 -162 -167 -237h239
c7 32 14 82 14 110z" />
    <glyph glyph-name="iota" unicode="&#x3b9;" horiz-adv-x="275" 
d="M217 439c0 -33 -6 -67 -13 -100l-44 -204c-6 -26 -8 -42 -8 -52c0 -17 8 -25 23 -25c5 0 13 0 18 2l5 -59c-22 -9 -44 -12 -67 -12c-49 0 -76 25 -76 68c0 14 3 34 8 56l47 218c14 67 19 104 6 149l88 37c10 -24 13 -51 13 -78z" />
    <glyph glyph-name="kappa" unicode="&#x3ba;" horiz-adv-x="482" 
d="M521 482l-223 -206l154 -265l-98 -23l-156 294l240 233zM217 439c0 -33 -6 -67 -13 -100l-72 -339h-92l70 331c14 67 19 104 6 149l88 37c10 -24 13 -51 13 -78z" />
    <glyph glyph-name="lambda" unicode="&#x3bb;" horiz-adv-x="512" 
d="M459 1c-21 -8 -47 -13 -69 -13c-46 0 -70 25 -72 66l-15 242c-3 45 -4 90 -4 124h-6c-15 -34 -41 -87 -57 -118l-166 -315l-88 21l184 329c33 59 61 108 88 167l35 -5l-8 77c-5 52 -14 86 -71 86c-22 0 -40 -4 -54 -9v53c30 15 65 24 95 24c81 0 106 -62 118 -185
l46 -466c1 -15 3 -22 23 -22c3 0 13 2 16 3z" />
    <glyph glyph-name="uni03BC" unicode="&#x3bc;" horiz-adv-x="564" 
d="M532 511l-77 -363c-6 -28 -9 -48 -9 -64c0 -23 6 -35 18 -50l-73 -53c-24 23 -34 42 -35 72c-47 -46 -102 -69 -166 -69c-22 0 -45 6 -56 17c-1 -4 -3 -15 -6 -30c-9 -41 -35 -163 -35 -162l-95 -20l149 707l97 18l-75 -352c-4 -20 -6 -36 -6 -48c0 -17 4 -27 13 -36
c12 -11 33 -18 54 -18c45 0 101 33 133 79l75 355z" />
    <glyph glyph-name="nu" unicode="&#x3bd;" horiz-adv-x="462" 
d="M518 501l-294 -505h-85l-75 501l94 17l39 -315c4 -32 6 -70 6 -95c0 1 1 1 1 1c12 30 25 56 46 95l167 302z" />
    <glyph glyph-name="xi" unicode="&#x3be;" horiz-adv-x="475" 
d="M556 688l-27 -76h-151c-68 0 -130 -70 -130 -136c0 -44 32 -79 93 -79h93l-15 -69h-77c-97 0 -185 -58 -185 -159c0 -45 21 -77 94 -77h63c70 0 109 -34 109 -99c0 -85 -54 -144 -105 -197l-53 34c30 35 68 74 68 123c0 27 -15 47 -48 47h-73c-104 0 -160 66 -160 149
c0 102 84 194 183 215c-54 20 -89 60 -89 109c0 53 47 124 98 139h-91l17 76h386z" />
    <glyph glyph-name="omicron" unicode="&#x3bf;" 
d="M501 336c0 -190 -110 -348 -283 -348c-110 0 -172 66 -172 180c0 196 119 347 282 347c115 0 173 -70 173 -179zM400 343c0 73 -39 99 -88 99c-106 0 -166 -141 -166 -281c0 -71 33 -100 89 -100c108 0 165 142 165 282z" />
    <glyph glyph-name="pi" unicode="&#x3c0;" horiz-adv-x="533" 
d="M583 502l-35 -68h-54l-66 -299c-6 -26 -9 -42 -9 -52c0 -17 9 -25 24 -25c5 0 13 0 18 2l5 -59c-22 -9 -43 -12 -66 -12c-49 0 -77 24 -77 67c0 14 4 35 9 57l70 321h-170l-93 -434h-91l93 434h-66l13 68h495z" />
    <glyph glyph-name="rho" unicode="&#x3c1;" horiz-adv-x="555" 
d="M516 338c0 -166 -90 -348 -259 -348c-36 0 -83 10 -120 51l-50 -231l-94 -21l104 488c35 169 118 238 250 238c116 0 169 -73 169 -177zM252 66c127 0 163 173 163 281c0 72 -46 97 -83 97c-75 0 -122 -57 -149 -183l-29 -138c16 -35 58 -57 98 -57z" />
    <glyph glyph-name="sigma1" unicode="&#x3c2;" horiz-adv-x="443" 
d="M453 468l-47 -67c-27 24 -58 36 -95 36c-39 0 -70 -16 -95 -49c-15 -19 -30 -49 -43 -89c-12 -39 -18 -71 -18 -98c0 -53 24 -86 73 -99c46 -13 78 -25 95 -37c25 -17 37 -40 37 -71c0 -39 -11 -75 -33 -110c-14 -23 -38 -52 -72 -87l-53 34c23 27 38 45 45 56
c15 23 23 46 23 67c0 19 -9 32 -26 40l-30 8l-30 9c-88 27 -132 82 -132 165c0 53 11 104 33 155c22 52 52 94 90 126c45 39 96 58 154 58c50 0 91 -16 124 -47z" />
    <glyph glyph-name="sigma" unicode="&#x3c3;" horiz-adv-x="553" 
d="M590 502l-35 -68h-84c19 -26 30 -58 30 -98c0 -190 -110 -348 -283 -348c-110 0 -172 66 -172 180c0 196 106 334 269 334h275zM400 343c0 73 -39 91 -88 91c-106 0 -166 -133 -166 -273c0 -71 33 -100 89 -100c108 0 165 142 165 282z" />
    <glyph glyph-name="tau" unicode="&#x3c4;" horiz-adv-x="383" 
d="M433 502l-35 -68h-123l-60 -283c-4 -21 -7 -38 -7 -52c0 -34 15 -46 49 -46c20 0 36 4 52 10v-57c-31 -14 -63 -21 -98 -21c-63 0 -96 31 -96 83c0 24 1 44 7 71l62 295h-131l13 68h367z" />
    <glyph glyph-name="upsilon" unicode="&#x3c5;" horiz-adv-x="546" 
d="M517 511l-75 -350c-21 -98 -97 -177 -227 -177c-109 0 -160 54 -160 131c0 14 3 30 6 45l72 336l94 17l-69 -324c-4 -21 -8 -43 -8 -60c0 -44 23 -72 81 -72c75 0 110 58 126 132l66 305z" />
    <glyph glyph-name="phi" unicode="&#x3c6;" horiz-adv-x="671" 
d="M632 331c0 -174 -124 -335 -304 -345l-38 -176l-94 -21l42 197c-125 8 -192 82 -192 195c0 148 114 306 265 335l-14 -68c-96 -38 -148 -166 -148 -262c0 -77 25 -114 104 -128l51 234c35 163 92 223 187 223c87 0 141 -71 141 -184zM530 330c0 95 -28 112 -58 112
c-38 0 -57 -57 -77 -148l-52 -237c129 25 187 153 187 273z" />
    <glyph glyph-name="chi" unicode="&#x3c7;" horiz-adv-x="423" 
d="M470 502l-200 -230l131 -272h-109c-6 18 -81 196 -82 204c-5 -8 -158 -193 -167 -204h-115l246 276l-104 220l105 9c4 -10 59 -151 62 -163c5 10 117 152 122 160h111z" />
    <glyph glyph-name="psi" unicode="&#x3c8;" horiz-adv-x="684" 
d="M655 511l-65 -308c-31 -144 -141 -214 -265 -217l-38 -176l-95 -21l42 197c-107 3 -179 52 -179 158c0 24 2 39 7 59l63 293l94 17l-69 -324c-2 -10 -4 -30 -4 -39c0 -58 39 -87 103 -91l103 496c14 67 16 117 6 149l98 35c11 -36 5 -115 -8 -176l-108 -504
c77 4 141 66 155 130l66 305z" />
    <glyph glyph-name="omega" unicode="&#x3c9;" horiz-adv-x="675" 
d="M636 306c0 -141 -53 -318 -222 -318c-51 0 -92 34 -104 78c-29 -44 -76 -78 -126 -78c-91 0 -138 58 -138 143c0 149 88 291 199 384l43 -29c-79 -88 -144 -215 -144 -335c0 -58 13 -86 57 -86c36 0 73 46 88 113l42 198h91l-42 -198c-5 -21 -7 -40 -7 -56
c0 -35 13 -57 47 -57c96 0 126 200 126 278c0 56 -10 100 -28 139l48 36c42 -55 70 -122 70 -212z" />
    <glyph glyph-name="iotadieresis" unicode="&#x3ca;" horiz-adv-x="275" 
d="M217 439c0 -33 -6 -67 -13 -100l-44 -204c-6 -26 -8 -42 -8 -52c0 -17 8 -25 23 -25c5 0 13 0 18 2l5 -59c-22 -9 -44 -12 -67 -12c-49 0 -76 25 -76 68c0 14 3 34 8 56l47 218c14 67 19 104 6 149l88 37c10 -24 13 -51 13 -78zM348 625c0 -33 -26 -60 -58 -60
c-33 0 -60 27 -60 60c0 32 26 58 59 58c32 0 59 -26 59 -58zM180 625c0 -33 -26 -60 -58 -60c-33 0 -59 27 -59 60c0 32 26 58 58 58c33 0 59 -26 59 -58z" />
    <glyph glyph-name="upsilondieresis" unicode="&#x3cb;" horiz-adv-x="546" 
d="M517 511l-75 -350c-21 -98 -97 -177 -227 -177c-109 0 -160 54 -160 131c0 14 3 30 6 45l72 336l94 17l-69 -324c-4 -21 -8 -43 -8 -60c0 -44 23 -72 81 -72c75 0 110 58 126 132l66 305zM513 625c0 -33 -26 -60 -58 -60c-33 0 -60 27 -60 60c0 32 26 58 59 58
c32 0 59 -26 59 -58zM305 625c0 -33 -26 -60 -58 -60c-33 0 -59 27 -59 60c0 32 26 58 58 58c33 0 59 -26 59 -58z" />
    <glyph glyph-name="omicrontonos" unicode="&#x3cc;" 
d="M501 336c0 -190 -110 -348 -283 -348c-110 0 -172 66 -172 180c0 196 119 347 282 347c115 0 173 -70 173 -179zM400 343c0 73 -39 99 -88 99c-106 0 -166 -141 -166 -281c0 -71 33 -100 89 -100c108 0 165 142 165 282zM481 708l-146 -146l-40 31l126 164z" />
    <glyph glyph-name="upsilontonos" unicode="&#x3cd;" horiz-adv-x="546" 
d="M517 511l-75 -350c-21 -98 -97 -177 -227 -177c-109 0 -160 54 -160 131c0 14 3 30 6 45l72 336l94 17l-69 -324c-4 -21 -8 -43 -8 -60c0 -44 23 -72 81 -72c75 0 110 58 126 132l66 305zM476 708l-146 -146l-40 31l126 164z" />
    <glyph glyph-name="omegatonos" unicode="&#x3ce;" horiz-adv-x="675" 
d="M636 306c0 -141 -53 -318 -222 -318c-51 0 -92 34 -104 78c-29 -44 -76 -78 -126 -78c-91 0 -138 58 -138 143c0 149 88 291 199 384l43 -29c-79 -88 -144 -215 -144 -335c0 -58 13 -86 57 -86c36 0 73 46 88 113l42 198h91l-42 -198c-15 -67 -10 -113 40 -113
c96 0 126 200 126 278c0 56 -10 100 -28 139l48 36c42 -55 70 -122 70 -212zM556 708l-146 -146l-40 31l126 164z" />
    <glyph glyph-name="beta1" unicode="&#x3d0;" horiz-adv-x="571" 
d="M531 573c0 -91 -56 -164 -137 -186c77 -22 106 -79 106 -147c0 -140 -112 -252 -252 -252c-67 0 -155 17 -205 58c5 16 14 50 19 74l83 389c29 137 98 204 240 204c89 0 146 -60 146 -140zM438 565c0 47 -21 79 -77 79s-102 -23 -124 -128l-90 -426
c22 -19 60 -29 104 -29c100 0 151 91 151 183c0 71 -27 105 -121 105h-6l14 64c90 0 149 54 149 152z" />
    <glyph glyph-name="phi1" unicode="&#x3d5;" horiz-adv-x="650" 
d="M611 336c0 -186 -124 -341 -292 -348l-38 -178l-95 -21l41 199c-104 4 -181 70 -181 180c0 192 133 341 292 347l8 40c14 67 16 117 6 149l98 35c11 -36 5 -115 -8 -176l-10 -48c107 -6 179 -74 179 -179zM322 442c-101 -9 -176 -145 -176 -281c0 -66 45 -96 97 -100z
M510 343c0 66 -48 94 -94 98l-81 -380c103 9 175 146 175 282z" />
    <glyph glyph-name="uni03DC" unicode="&#x3dc;" horiz-adv-x="564" 
d="M532 511l-77 -363c-6 -28 -9 -48 -9 -64c0 -23 6 -35 18 -50l-73 -53c-24 23 -34 42 -35 72c-47 -46 -102 -69 -166 -69c-22 0 -45 6 -56 17c-1 -4 -3 -15 -6 -30c-9 -41 -35 -163 -35 -162l-95 -20l149 707l97 18l-75 -352c-4 -20 -6 -36 -6 -48c0 -17 4 -27 13 -36
c12 -11 33 -18 54 -18c45 0 101 33 133 79l75 355z" />
    <glyph glyph-name="afii10023" unicode="&#x401;" horiz-adv-x="508" 
d="M567 688l-31 -80h-270l-44 -208h227l-18 -80h-226l-51 -240h294l-18 -80h-390l146 688h381zM552 786c0 -33 -26 -60 -58 -60c-33 0 -60 27 -60 60c0 32 26 58 59 58c32 0 59 -26 59 -58zM344 786c0 -33 -26 -60 -58 -60c-33 0 -59 27 -59 60c0 32 26 58 58 58
c33 0 59 -26 59 -58z" />
    <glyph glyph-name="afii10051" unicode="&#x402;" horiz-adv-x="656" 
d="M575 688l-26 -80h-191l-45 -208c48 26 95 36 138 36c35 0 86 -5 122 -41c32 -33 38 -75 38 -106c0 -81 -33 -186 -87 -241c-44 -45 -96 -60 -149 -60c-33 0 -61 6 -88 24l34 72c20 -16 44 -22 65 -22c28 0 51 10 69 32c32 37 54 138 54 182c0 27 -8 49 -22 62
c-12 11 -33 20 -65 20c-19 0 -62 -2 -124 -30l-69 -328h-96l129 608h-171l18 80h466z" />
    <glyph glyph-name="afii10052" unicode="&#x403;" horiz-adv-x="485" 
d="M550 688l-32 -80h-253l-129 -608h-96l146 688h364zM509 824l-229 -101l-29 54l214 131z" />
    <glyph glyph-name="afii10053" unicode="&#x404;" horiz-adv-x="550" 
d="M435 398l-16 -78h-244c-4 -23 -9 -56 -9 -82c0 -37 7 -89 34 -123c16 -20 49 -49 112 -49c52 0 102 17 144 47l34 -64c-76 -53 -165 -61 -202 -61c-72 0 -127 25 -162 60c-53 52 -66 124 -66 181c0 135 56 284 147 372c74 71 161 99 233 99c55 0 115 -15 157 -58l-53 -60
c-35 33 -84 40 -117 40c-41 0 -89 -16 -132 -53c-57 -50 -87 -124 -101 -171h241z" />
    <glyph glyph-name="afii10054" unicode="&#x405;" horiz-adv-x="574" 
d="M581 638l-53 -70c-50 37 -92 52 -152 52c-84 0 -145 -42 -145 -103c0 -49 17 -74 81 -100l74 -30c86 -35 120 -88 120 -169c0 -128 -112 -230 -296 -230c-82 0 -143 20 -200 57l49 75c52 -34 99 -52 168 -52c104 0 170 54 170 130c0 52 -18 82 -88 109l-65 25
c-81 31 -119 78 -119 160c0 123 115 208 264 208c74 0 144 -23 192 -62z" />
    <glyph glyph-name="afii10055" unicode="&#x406;" horiz-adv-x="277" 
d="M283 688l-147 -688h-96l146 688h97z" />
    <glyph glyph-name="afii10056" unicode="&#x407;" horiz-adv-x="277" 
d="M283 688l-147 -688h-96l146 688h97zM223 786c0 -33 -24 -60 -53 -60s-53 27 -53 60c0 32 24 58 52 58c30 0 54 -26 54 -58zM369 786c0 -33 -24 -60 -52 -60c-30 0 -54 27 -54 60c0 32 23 58 53 58c28 0 53 -26 53 -58z" />
    <glyph glyph-name="afii10057" unicode="&#x408;" horiz-adv-x="279" 
d="M285 688l-121 -566c-17 -78 -30 -116 -53 -152c-32 -51 -92 -88 -151 -108l-35 57c43 17 78 45 99 72c18 23 29 54 44 125l121 572h96z" />
    <glyph glyph-name="afii10058" unicode="&#x409;" horiz-adv-x="895" 
d="M611 688l-59 -277h98c60 0 124 -4 173 -54c32 -33 42 -73 42 -115c0 -61 -19 -116 -69 -164c-75 -72 -164 -78 -225 -78h-202l129 610h-163l-40 -148c-29 -107 -49 -176 -75 -254c-21 -63 -42 -116 -78 -152c-43 -44 -97 -57 -140 -61l-29 -3l-3 69l20 5
c26 6 54 15 82 43c35 35 56 89 76 150c17 50 44 134 80 276l39 153h344zM481 78h88c42 0 99 3 144 46c28 27 46 69 46 111c0 31 -11 55 -26 70c-26 26 -67 28 -93 28h-104z" />
    <glyph glyph-name="afii10059" unicode="&#x40a;" horiz-adv-x="927" 
d="M643 688l-59 -277h98c60 0 124 -4 173 -54c32 -33 42 -73 42 -115c0 -61 -19 -116 -69 -164c-75 -72 -164 -78 -225 -78h-201l70 333h-266l-71 -333h-95l145 688h96l-58 -277h266l58 277h96zM513 78h88c42 0 99 3 144 46c28 27 46 69 46 111c0 31 -11 55 -26 70
c-26 26 -67 28 -93 28h-104z" />
    <glyph glyph-name="afii10060" unicode="&#x40b;" horiz-adv-x="658" 
d="M576 688l-27 -80h-191l-44 -209c58 26 106 36 153 36c55 0 95 -16 117 -39c16 -16 29 -41 29 -79c0 -13 -1 -29 -62 -317h-96c56 266 58 278 58 290c0 16 -3 32 -16 45c-4 4 -23 23 -70 23c-38 0 -89 -14 -128 -30l-70 -328h-96l129 608h-171l17 80h468z" />
    <glyph glyph-name="afii10061" unicode="&#x40c;" horiz-adv-x="608" 
d="M646 697l4 -66l-34 -8c-14 -3 -32 -8 -47 -23c-9 -9 -18 -24 -24 -36l-41 -87c-12 -26 -24 -51 -47 -75c-20 -21 -41 -31 -64 -36c8 -3 18 -8 29 -18c28 -27 31 -63 33 -87l8 -127c1 -13 3 -35 14 -47c9 -10 25 -15 40 -20l25 -8l-32 -67l-50 6c-24 3 -55 11 -73 29
c-22 22 -23 53 -23 76l-1 129c0 19 -1 51 -17 71c-20 24 -51 23 -71 23h-70l-69 -326h-96l146 688h96l-60 -284h83c26 0 56 3 81 29c7 7 20 23 37 62l41 96c8 19 20 46 41 66c28 27 61 31 86 34zM554 824l-229 -101l-29 54l214 131z" />
    <glyph glyph-name="afii10062" unicode="&#x40e;" horiz-adv-x="521" 
d="M203 688l60 -323c6 -31 11 -56 17 -109c23 46 41 81 62 119l171 313h97l-314 -562c-18 -32 -36 -62 -58 -85c-36 -38 -76 -55 -136 -60l-34 -3l-3 69l20 4c32 6 63 14 92 43c19 19 32 43 48 72l21 38l-49 -9l-95 493h101zM465 887l48 -24c-4 -9 -16 -38 -40 -63
c-38 -39 -86 -47 -125 -47c-31 0 -67 5 -96 32c-12 12 -33 37 -33 78l58 24c3 -19 10 -35 24 -46c20 -16 50 -16 57 -16c21 0 44 5 62 16c19 11 35 29 45 46z" />
    <glyph glyph-name="afii10145" unicode="&#x40f;" horiz-adv-x="620" 
d="M186 688h96l-130 -608h249l129 608h96l-145 -688h-175l-38 -180h-92l38 180h-174z" />
    <glyph glyph-name="afii10017" unicode="&#x410;" horiz-adv-x="572" 
d="M444 689l78 -689h-103l-18 199h-243l-104 -199h-104l376 689h118zM200 279h193l-17 171c-3 27 -5 54 -12 148c-13 -28 -36 -75 -48 -98z" />
    <glyph glyph-name="afii10018" unicode="&#x411;" horiz-adv-x="591" 
d="M185 688h394l-31 -80h-284l-44 -205h94c73 0 137 -9 182 -54c23 -23 47 -62 47 -124c0 -68 -30 -115 -63 -148c-64 -63 -142 -77 -228 -77h-212zM152 80h123c69 0 106 27 120 40c24 22 42 57 42 105c0 15 -3 46 -26 69c-26 25 -65 29 -94 29h-114z" />
    <glyph glyph-name="afii10019" unicode="&#x412;" horiz-adv-x="596" 
d="M583 538c0 -80 -49 -146 -153 -173c79 -15 114 -72 114 -144c0 -56 -29 -116 -82 -161s-105 -60 -226 -60h-196l146 688h195c150 0 202 -62 202 -150zM438 222c-1 61 -27 97 -123 97h-111l-51 -239h122c50 0 85 12 111 32c29 22 53 65 52 110zM477 521
c0 55 -29 87 -112 87h-100l-44 -209h111c46 0 79 10 100 27c28 22 45 55 45 95z" />
    <glyph glyph-name="afii10020" unicode="&#x413;" horiz-adv-x="485" 
d="M550 688l-32 -80h-253l-129 -608h-96l146 688h364z" />
    <glyph glyph-name="afii10021" unicode="&#x414;" horiz-adv-x="647" 
d="M632 688l-130 -612h70l-54 -255h-92l38 179h-407l-38 -179h-92l55 255h51c40 57 93 142 134 231c38 83 68 176 95 281l26 100h344zM353 612l-24 -87c-31 -111 -62 -196 -96 -266c-35 -72 -77 -137 -110 -183h283l113 536h-166z" />
    <glyph glyph-name="afii10022" unicode="&#x415;" horiz-adv-x="508" 
d="M567 688l-31 -80h-270l-44 -208h227l-18 -80h-226l-51 -240h294l-18 -80h-390l146 688h381z" />
    <glyph glyph-name="afii10024" unicode="&#x416;" horiz-adv-x="891" 
d="M525 404h47c24 0 59 -1 88 22c22 17 35 44 46 69l41 96c6 15 20 44 38 63c23 24 56 33 89 37l55 6l4 -66l-34 -8c-15 -4 -34 -10 -48 -25c-5 -5 -12 -14 -22 -34l-45 -90c-13 -27 -23 -49 -46 -72c-17 -17 -37 -29 -62 -36c11 -4 18 -10 26 -18c28 -28 34 -58 36 -87
l9 -132c1 -12 0 -28 14 -42c6 -6 17 -14 44 -22l19 -6l-31 -67l-59 7c-23 3 -50 12 -65 28c-23 24 -22 61 -22 83l-1 122c0 20 -2 56 -21 75s-46 19 -67 19h-50l-69 -326h-96l69 326h-49c-30 0 -63 -4 -91 -33c-17 -17 -28 -40 -37 -61l-46 -108c-12 -28 -23 -62 -49 -87
c-30 -29 -70 -36 -97 -39l-54 -6l-4 67l29 8c17 5 37 12 51 25c13 12 19 27 25 40l61 129c9 20 25 43 42 60c19 19 45 35 72 45c-11 5 -25 13 -34 22c-28 26 -30 61 -31 86l-5 85c-1 14 -1 36 -12 48c-9 10 -24 13 -36 17l-29 10l32 63l46 -6c37 -5 55 -15 64 -24
c22 -21 20 -51 21 -76l3 -96c1 -21 0 -50 17 -69c18 -21 50 -22 69 -22h59l60 284h96z" />
    <glyph glyph-name="afii10025" unicode="&#x417;" horiz-adv-x="543" 
d="M249 319h-76l15 74h63c37 0 85 2 126 41c19 18 40 50 40 98c0 25 -7 46 -26 65c-26 25 -58 29 -85 29c-32 0 -55 -5 -83 -17c-13 -6 -37 -17 -64 -36l-31 64c41 26 78 40 94 45c40 14 74 18 114 18c48 0 105 -6 148 -51c28 -29 39 -64 39 -105c0 -52 -18 -89 -50 -121
c-29 -29 -70 -50 -110 -60c34 -5 63 -21 82 -41c20 -20 38 -53 38 -100c0 -51 -20 -107 -64 -153c-66 -68 -147 -81 -220 -81c-42 0 -84 4 -130 20c-31 11 -55 23 -79 43l57 68c43 -40 96 -57 151 -57c56 0 103 18 132 45s46 68 46 109c0 34 -13 60 -31 76
c-28 25 -67 27 -96 27z" />
    <glyph glyph-name="afii10026" unicode="&#x418;" horiz-adv-x="662" 
d="M521 0h-96l94 443c7 33 25 100 34 135c-14 -28 -34 -62 -50 -84l-363 -494h-100l147 688h96l-96 -449c-9 -41 -16 -73 -32 -119c20 40 37 67 63 102l340 466h110z" />
    <glyph glyph-name="afii10027" unicode="&#x419;" horiz-adv-x="662" 
d="M521 0h-96l94 443c7 33 25 100 34 135c-14 -28 -34 -62 -50 -84l-363 -494h-100l147 688h96l-96 -449c-9 -41 -16 -73 -32 -119c20 40 37 67 63 102l340 466h110zM549 860l48 -24c-4 -9 -16 -38 -40 -63c-38 -39 -86 -47 -125 -47c-31 0 -67 5 -96 32
c-12 12 -33 37 -33 78l58 24c3 -19 10 -35 24 -46c20 -16 50 -16 57 -16c21 0 44 5 62 16c19 11 35 29 45 46z" />
    <glyph glyph-name="afii10028" unicode="&#x41a;" horiz-adv-x="608" 
d="M646 697l4 -66l-34 -8c-14 -3 -32 -8 -47 -23c-9 -9 -18 -24 -24 -36l-41 -87c-12 -26 -24 -51 -47 -75c-20 -21 -41 -31 -64 -36c8 -3 18 -8 29 -18c28 -27 31 -63 33 -87l8 -127c1 -13 3 -35 14 -47c9 -10 25 -15 40 -20l25 -8l-32 -67l-50 6c-24 3 -55 11 -73 29
c-22 22 -23 53 -23 76l-1 129c0 19 -1 51 -17 71c-20 24 -51 23 -71 23h-70l-69 -326h-96l146 688h96l-60 -284h83c26 0 56 3 81 29c7 7 20 23 37 62l41 96c8 19 20 46 41 66c28 27 61 31 86 34z" />
    <glyph glyph-name="afii10029" unicode="&#x41b;" horiz-adv-x="605" 
d="M335 610l-40 -148c-29 -107 -49 -176 -75 -254c-21 -63 -42 -116 -78 -152c-43 -44 -97 -57 -140 -61l-29 -3l-3 69l20 5c26 6 54 15 82 43c35 35 56 89 76 150c17 50 44 134 80 276l39 153h344l-146 -688h-96l130 610h-164z" />
    <glyph glyph-name="afii10030" unicode="&#x41c;" horiz-adv-x="819" 
d="M786 688l-87 -688h-95l63 469c6 44 18 108 20 117c-14 -35 -34 -77 -49 -108l-240 -478h-82l-29 456c-3 47 -6 85 -5 131c-3 -10 -23 -89 -35 -131l-132 -456h-95l208 688h135l26 -422c3 -49 4 -69 1 -118c21 53 31 76 49 113l211 427h136z" />
    <glyph glyph-name="afii10031" unicode="&#x41d;" horiz-adv-x="639" 
d="M645 688l-146 -688h-96l70 326h-267l-70 -326h-96l146 688h96l-60 -282h267l60 282h96z" />
    <glyph glyph-name="afii10032" unicode="&#x41e;" horiz-adv-x="688" 
d="M661 463c0 -165 -64 -341 -182 -421c-56 -38 -111 -54 -187 -54c-150 0 -220 96 -220 244c0 160 66 308 147 384c57 53 119 84 222 84c139 0 220 -87 220 -237zM555 475c0 89 -39 147 -130 147c-66 0 -119 -29 -153 -75c-56 -75 -94 -207 -94 -335
c0 -105 49 -150 134 -150c52 0 95 18 132 57c66 69 111 242 111 356z" />
    <glyph glyph-name="afii10033" unicode="&#x41f;" horiz-adv-x="615" 
d="M621 688l-146 -688h-96l130 608h-243l-130 -608h-96l147 688h434z" />
    <glyph glyph-name="afii10034" unicode="&#x420;" horiz-adv-x="559" 
d="M585 529c0 -90 -37 -164 -112 -217c-41 -29 -97 -43 -172 -43h-108l-57 -269h-96l146 688h180c78 0 129 -14 161 -38c40 -30 58 -73 58 -121zM479 509c0 65 -34 99 -128 99h-86l-55 -259h102c57 0 86 12 112 36c37 35 55 81 55 124z" />
    <glyph glyph-name="afii10035" unicode="&#x421;" horiz-adv-x="552" 
d="M599 643l-55 -61c-33 29 -69 40 -113 40c-71 0 -134 -37 -180 -103c-53 -76 -85 -200 -85 -288c0 -106 53 -165 153 -165c45 0 86 13 136 45l36 -65c-63 -38 -134 -58 -205 -58c-142 0 -226 95 -226 248c0 114 44 246 120 337c68 81 166 127 260 127
c65 0 122 -21 159 -57z" />
    <glyph glyph-name="afii10036" unicode="&#x422;" horiz-adv-x="469" 
d="M575 688l-27 -80h-180l-129 -608h-96l129 608h-181l18 80h466z" />
    <glyph glyph-name="afii10037" unicode="&#x423;" horiz-adv-x="521" 
d="M203 688l60 -323c6 -31 11 -56 17 -109c23 46 41 81 62 119l171 313h97l-314 -562c-18 -32 -36 -62 -58 -85c-36 -38 -76 -55 -136 -60l-34 -3l-3 69l20 4c32 6 63 14 92 43c19 19 32 43 48 72l21 38l-49 -9l-95 493h101z" />
    <glyph glyph-name="afii10038" unicode="&#x424;" horiz-adv-x="734" 
d="M363 0h-96l23 109h-9c-39 0 -113 0 -164 52c-40 41 -45 96 -45 130c0 87 37 196 96 255c76 76 173 81 220 81h12l21 100h96l-21 -100h19c45 0 107 -5 151 -49c39 -38 47 -91 47 -131c0 -98 -39 -198 -95 -255c-71 -72 -159 -83 -219 -83h-13zM478 561l-81 -386h15
c35 0 85 6 125 45c51 50 76 159 76 227c0 22 -2 61 -26 85c-27 28 -71 29 -97 29h-12zM389 561h-9c-38 0 -89 -5 -133 -49c-48 -47 -75 -148 -75 -220c0 -27 4 -61 28 -86c29 -30 73 -31 98 -31h10z" />
    <glyph glyph-name="afii10039" unicode="&#x425;" horiz-adv-x="501" 
d="M587 688l-250 -328l142 -360h-112l-102 281l-206 -281h-120l291 370l-121 318h109l82 -235l169 235h118z" />
    <glyph glyph-name="afii10040" unicode="&#x426;" horiz-adv-x="639" 
d="M186 688h96l-129 -608h246l129 608h96l-129 -608h72l-54 -260h-93l38 180h-418z" />
    <glyph glyph-name="afii10041" unicode="&#x427;" horiz-adv-x="587" 
d="M447 0h-96l64 302c-66 -27 -123 -31 -154 -31c-65 0 -103 18 -123 38c-17 17 -33 45 -33 88c0 13 2 27 5 43l53 248h96l-50 -234c-2 -12 -4 -22 -4 -32c0 -20 4 -39 19 -52c21 -19 50 -21 69 -21c53 0 107 16 138 27l66 312h96z" />
    <glyph glyph-name="afii10042" unicode="&#x428;" horiz-adv-x="864" 
d="M281 688l-129 -608h199l129 608h96l-129 -608h199l128 608h96l-145 -688h-685l145 688h96z" />
    <glyph glyph-name="afii10043" unicode="&#x429;" horiz-adv-x="885" 
d="M281 688l-129 -608h199l129 608h96l-129 -608h199l128 608h96l-128 -608h73l-54 -260h-92l38 180h-667l145 688h96z" />
    <glyph glyph-name="afii10044" unicode="&#x42a;" horiz-adv-x="653" 
d="M369 688l-59 -277h98c60 0 124 -4 173 -54c32 -33 42 -73 42 -115c0 -61 -19 -116 -69 -164c-75 -72 -164 -78 -225 -78h-202l129 608h-176l17 80h272zM239 78h88c42 0 99 3 144 46c28 27 46 69 46 111c0 31 -11 55 -26 70c-26 26 -67 28 -93 28h-104z" />
    <glyph glyph-name="afii10045" unicode="&#x42b;" horiz-adv-x="811" 
d="M282 688l-59 -277h94c60 0 124 -4 173 -54c32 -33 42 -73 42 -115c0 -61 -19 -116 -69 -164c-75 -72 -164 -78 -225 -78h-198l146 688h96zM721 688h96l-145 -688h-96zM152 78h84c42 0 99 3 144 46c28 27 46 69 46 111c0 31 -11 55 -26 70c-26 26 -67 28 -93 28h-100z" />
    <glyph glyph-name="afii10046" unicode="&#x42c;" horiz-adv-x="566" 
d="M282 688l-59 -277h98c60 0 124 -4 173 -54c32 -33 42 -73 42 -115c0 -61 -19 -116 -69 -164c-75 -72 -164 -78 -225 -78h-202l146 688h96zM152 78h88c42 0 99 3 144 46c28 27 46 69 46 111c0 31 -11 55 -26 70c-26 26 -67 28 -93 28h-104z" />
    <glyph glyph-name="afii10047" unicode="&#x42d;" horiz-adv-x="584" 
d="M152 574l-28 66c24 17 52 32 85 43c36 12 67 17 108 17c53 0 124 -7 178 -62c51 -52 62 -124 62 -179c0 -115 -38 -274 -136 -375c-68 -70 -144 -96 -242 -96c-27 0 -76 4 -119 22c-16 7 -41 20 -65 43l55 67c48 -45 100 -54 145 -54c52 0 102 12 148 59
c53 54 76 135 86 193h-244l14 78h243c4 26 7 57 7 83c0 34 -5 79 -37 110c-32 30 -77 33 -104 33c-39 0 -91 -7 -156 -48z" />
    <glyph glyph-name="afii10048" unicode="&#x42e;" horiz-adv-x="911" 
d="M222 406h113c19 68 58 147 114 203c54 55 126 91 218 91c71 0 121 -24 155 -58c52 -51 62 -118 62 -179c0 -152 -53 -301 -139 -385c-69 -68 -151 -90 -222 -90c-74 0 -122 28 -150 55c-31 31 -64 87 -64 188c0 32 3 66 8 95h-112l-69 -326h-96l145 688h96zM649 622
c-36 0 -84 -10 -128 -55c-76 -78 -111 -244 -111 -351c0 -33 3 -84 35 -118c20 -21 53 -36 95 -36c36 0 81 12 121 51c74 72 117 262 117 365c0 24 -3 79 -39 113c-28 27 -65 31 -90 31z" />
    <glyph glyph-name="afii10049" unicode="&#x42f;" horiz-adv-x="612" 
d="M472 0h-96l63 299h-74c-32 0 -70 0 -102 -30c-17 -16 -28 -39 -39 -64l-39 -91c-10 -24 -23 -57 -45 -78c-29 -28 -70 -35 -90 -37l-58 -7l-7 67l19 5c34 9 51 18 61 28s17 24 25 39l51 104c10 20 23 45 42 65c28 29 58 38 79 42v2c-35 7 -62 24 -80 43
c-24 26 -34 58 -34 93c0 39 10 92 60 139c57 55 135 69 223 69h187zM504 608h-87c-39 0 -94 -6 -133 -45c-24 -24 -36 -58 -36 -90c0 -27 9 -51 30 -69c27 -22 61 -25 95 -25h83z" />
    <glyph glyph-name="afii10065" unicode="&#x430;" horiz-adv-x="530" 
d="M494 475c-8 -26 -21 -75 -28 -110l-43 -202c-5 -24 -8 -43 -8 -58c0 -32 9 -49 26 -66l-75 -57c-28 27 -39 55 -37 97c-35 -55 -92 -89 -164 -89c-69 0 -124 50 -124 159c0 104 39 217 105 283c53 53 121 82 206 82c49 0 102 -12 142 -39zM390 428c-13 7 -33 11 -54 12
c-54 -2 -91 -17 -132 -65c-48 -57 -68 -154 -68 -226c0 -60 22 -83 64 -83c50 0 106 48 136 110z" />
    <glyph glyph-name="afii10066" unicode="&#x431;" horiz-adv-x="549" 
d="M538 766l26 -79c-48 -27 -85 -37 -120 -50c-114 -40 -174 -75 -209 -109c-17 -17 -30 -35 -40 -57c-7 -16 -20 -52 -23 -60c22 27 52 54 84 70c29 15 58 21 92 21c35 0 81 -7 116 -42c38 -38 44 -89 44 -126c0 -96 -33 -210 -105 -277c-42 -39 -104 -69 -175 -69
c-73 0 -111 32 -124 45c-24 24 -49 66 -49 139c0 56 16 139 30 192c39 143 89 207 121 239c41 40 92 66 142 85l67 26c33 13 31 10 67 25c20 8 35 15 56 27zM323 428c-43 0 -76 -18 -99 -42c-40 -42 -73 -156 -73 -222c0 -24 4 -56 26 -78c18 -19 40 -24 62 -24
c60 0 102 39 129 93c26 51 40 122 40 175c0 24 -3 53 -23 74c-19 20 -43 24 -62 24z" />
    <glyph glyph-name="afii10067" unicode="&#x432;" horiz-adv-x="532" 
d="M46 24l63 292c9 40 22 92 60 133c31 33 86 65 169 65c68 0 102 -23 118 -40c15 -15 31 -41 31 -82c0 -33 -10 -64 -37 -91c-19 -19 -44 -32 -67 -39c21 -6 37 -17 48 -28c20 -20 29 -45 29 -75c0 -46 -20 -87 -48 -114c-51 -50 -123 -57 -180 -57c-40 0 -105 2 -174 31z
M181 227l-34 -156c10 -3 19 -6 30 -8c18 -3 45 -7 70 -7c26 0 62 5 88 27c29 24 32 56 32 76c0 14 -3 34 -19 49c-21 19 -53 19 -74 19h-93zM193 290h84c31 0 70 3 97 31c16 17 23 41 23 62c0 25 -11 39 -18 45c-12 11 -31 18 -55 18c-39 0 -66 -15 -83 -32
c-24 -24 -33 -54 -37 -73z" />
    <glyph glyph-name="afii10068" unicode="&#x433;" horiz-adv-x="463" 
d="M134 403l-24 67c21 11 48 23 72 30c39 12 74 14 95 14c38 0 88 -6 123 -41c20 -20 34 -48 34 -87c0 -36 -12 -62 -34 -83c-26 -26 -64 -43 -139 -73c-68 -27 -99 -39 -120 -60c-16 -15 -22 -32 -22 -51c0 -11 3 -26 17 -38c18 -16 49 -19 71 -19c29 0 63 3 108 24
c12 5 30 15 37 19l23 -68l-11 -6c-11 -6 -41 -21 -85 -32c-33 -8 -63 -11 -96 -11c-32 0 -91 2 -129 41c-16 16 -31 43 -31 83c0 48 22 80 42 99c33 32 85 50 131 67l45 17c53 20 72 34 81 44c12 12 17 27 17 43c0 20 -9 32 -16 39c-17 16 -43 19 -62 19
c-24 0 -48 -3 -86 -18c-13 -5 -29 -12 -41 -19z" />
    <glyph glyph-name="afii10069" unicode="&#x434;" horiz-adv-x="555" 
d="M198 657l29 71c24 4 51 7 76 7c71 0 126 -22 158 -54c51 -50 59 -131 59 -188c0 -80 -15 -181 -36 -256c-13 -47 -39 -122 -90 -175c-34 -35 -93 -74 -178 -74c-61 0 -100 23 -125 52c-20 24 -41 66 -41 136c0 101 41 197 101 257c42 42 92 67 160 67c24 0 44 -3 65 -10
c19 -6 35 -14 52 -27c0 9 2 36 2 54c0 33 -3 76 -33 108c-20 21 -54 41 -116 41c-26 0 -57 -4 -83 -9zM150 167c0 -24 3 -60 24 -83c15 -16 32 -22 53 -22c50 0 86 26 114 68c40 60 67 168 76 259c-12 8 -26 16 -39 22c-17 8 -39 15 -65 15c-34 0 -62 -13 -86 -36
c-51 -49 -77 -145 -77 -223z" />
    <glyph glyph-name="afii10070" unicode="&#x435;" horiz-adv-x="510" 
d="M483 383c0 -41 -17 -78 -46 -105c-42 -40 -108 -60 -214 -60c-23 0 -46 3 -62 3c-4 -17 -7 -41 -7 -58c0 -67 42 -101 96 -101c58 0 98 16 145 56l33 -57c-54 -50 -110 -73 -203 -73c-100 0 -171 66 -171 182c0 99 41 207 111 275c50 48 105 70 167 70
c96 0 151 -48 151 -132zM390 380c0 36 -19 65 -71 65c-60 0 -118 -56 -143 -155c11 -1 32 -2 48 -2c77 0 117 11 142 36c15 15 24 33 24 56z" />
    <glyph glyph-name="afii10072" unicode="&#x436;" horiz-adv-x="832" 
d="M317 0l49 231h-78c-13 -47 -41 -129 -98 -185c-43 -42 -90 -58 -133 -58c-22 0 -56 3 -92 39l47 59c11 -13 29 -28 53 -28c27 0 47 14 61 28c63 62 91 195 91 272c0 21 -2 52 -21 71c-8 8 -20 15 -39 15c-26 0 -52 -12 -74 -40l-32 54c47 50 92 56 119 56
c54 0 83 -24 96 -37c35 -36 39 -87 39 -125c0 -18 -1 -39 -2 -51h78l41 195l94 18l-45 -213h82c16 49 43 106 93 155c20 20 65 58 129 58c38 0 70 -16 92 -40l-48 -58c-12 18 -32 28 -52 28c-15 0 -36 -5 -59 -26c-32 -30 -54 -82 -67 -121c-14 -42 -27 -106 -27 -156
c0 -18 2 -47 15 -63c9 -11 25 -20 44 -20c31 0 55 17 75 40l32 -55c-41 -49 -93 -55 -120 -55c-29 0 -65 6 -94 36c-22 22 -40 61 -40 125c0 26 3 57 8 82h-78l-49 -231h-90z" />
    <glyph glyph-name="afii10073" unicode="&#x437;" horiz-adv-x="451" 
d="M154 294h38c26 0 72 2 100 30c16 16 20 33 20 50c0 12 -1 32 -17 48c-13 13 -35 22 -63 22c-26 0 -52 -6 -73 -14c-16 -6 -35 -16 -51 -25l-25 61c23 13 49 24 72 32c33 11 60 16 96 16c42 0 89 -6 123 -41c26 -26 32 -57 32 -86c0 -31 -7 -61 -33 -87
c-17 -17 -43 -32 -71 -39c24 -6 40 -18 49 -27c24 -24 29 -50 29 -74c0 -47 -15 -83 -45 -113c-55 -54 -141 -59 -177 -59c-34 0 -68 6 -95 15c-30 11 -53 26 -71 43l47 63c8 -7 25 -23 50 -35c22 -11 44 -16 73 -16s64 5 91 32c15 15 27 37 27 68c0 30 -14 45 -26 53
c-13 9 -34 13 -67 13h-46z" />
    <glyph glyph-name="afii10074" unicode="&#x438;" horiz-adv-x="555" 
d="M523 511l-77 -363c-5 -23 -7 -41 -7 -57c0 -25 6 -43 19 -62l-75 -49c-24 25 -37 54 -34 103c-56 -64 -118 -95 -179 -95c-69 0 -110 32 -110 101c0 23 3 51 8 75l72 332l94 17l-70 -331c-6 -27 -9 -50 -9 -66c0 -39 14 -54 45 -54c47 0 115 41 161 114l68 318z" />
    <glyph glyph-name="afii10075" unicode="&#x439;" horiz-adv-x="556" 
d="M524 514l-78 -366c-5 -24 -7 -43 -7 -59c0 -28 8 -45 19 -60l-75 -49c-13 13 -24 30 -30 53c-4 16 -5 35 -4 50c-13 -15 -34 -36 -61 -55c-36 -26 -73 -40 -121 -40c-35 0 -64 10 -81 27c-24 24 -26 60 -26 80c0 25 4 48 8 69l71 332l95 18l-70 -332
c-5 -24 -9 -51 -9 -68c0 -5 0 -29 12 -41c10 -10 25 -11 32 -11c44 0 94 34 122 63c20 21 37 46 40 51l68 318zM455 700l47 -25c-9 -21 -24 -45 -43 -64c-34 -34 -73 -46 -118 -46c-46 0 -77 14 -95 32c-17 17 -32 44 -33 78l58 25c1 -12 5 -31 19 -45c17 -18 38 -20 58 -20
c22 0 42 3 63 17c13 8 28 23 44 48z" />
    <glyph glyph-name="afii10076" unicode="&#x43a;" horiz-adv-x="531" 
d="M146 496l95 18l-44 -205l-26 -91h2c4 8 26 52 52 94c22 35 47 68 79 99c30 29 58 49 96 68c31 15 64 27 99 34l22 -66l-17 -4c-42 -10 -105 -39 -166 -99c-21 -20 -37 -39 -53 -65l20 -2c16 -2 48 -6 67 -26c20 -20 22 -50 24 -70l6 -78c1 -12 1 -23 11 -33
c7 -7 17 -10 28 -13l19 -5l-25 -62l-41 5c-18 2 -46 4 -63 23c-19 20 -19 53 -19 76l-1 73c0 19 -6 34 -15 41c-10 9 -36 13 -50 13c-49 -71 -80 -135 -115 -221h-91z" />
    <glyph glyph-name="afii10077" unicode="&#x43b;" horiz-adv-x="507" 
d="M280 0l91 432h-111l-25 -82c-33 -107 -31 -102 -52 -163c-25 -72 -46 -123 -75 -151c-21 -20 -55 -38 -102 -42l-36 -3l-6 65l22 5c30 7 45 17 55 27c13 12 44 49 86 182c8 26 34 112 38 126l30 106h282l-107 -502h-90z" />
    <glyph glyph-name="afii10078" unicode="&#x43c;" horiz-adv-x="644" 
d="M158 502h110l23 -282c1 -16 4 -67 3 -105c29 67 25 61 46 103l146 284h110l-61 -502h-87l45 325c3 22 10 58 16 84h-2c-14 -32 -33 -71 -37 -78l-165 -331h-75l-24 332c-3 35 -3 54 -3 77h-2c-4 -18 -13 -57 -17 -70l-95 -339h-84z" />
    <glyph glyph-name="afii10079" unicode="&#x43d;" horiz-adv-x="551" 
d="M179 232l-49 -232h-90l105 496l94 18l-45 -212h192l41 194l94 18l-109 -514h-90l49 232h-192z" />
    <glyph glyph-name="afii10080" unicode="&#x43e;" 
d="M501 335c0 -189 -110 -347 -283 -347c-110 0 -172 66 -172 179c0 196 119 347 282 347c115 0 173 -70 173 -179zM401 342c0 72 -39 98 -88 98c-107 0 -167 -141 -167 -280c0 -69 33 -98 90 -98c108 0 165 142 165 280z" />
    <glyph glyph-name="afii10081" unicode="&#x43f;" horiz-adv-x="556" 
d="M500 413c0 -13 -2 -28 -5 -42l-79 -371h-90l71 336c5 24 8 40 8 53c0 31 -15 45 -45 45c-40 0 -99 -29 -161 -107l-69 -327h-90l76 353c7 35 10 59 10 80c0 16 -3 30 -7 46l86 38c6 -18 12 -36 12 -59c0 -13 -1 -28 -5 -44c51 65 121 100 188 100c62 0 100 -40 100 -101z
" />
    <glyph glyph-name="afii10082" unicode="&#x440;" horiz-adv-x="565" 
d="M520 350c0 -90 -36 -212 -91 -275c-48 -55 -116 -87 -182 -87c-48 0 -85 8 -114 24l-43 -203l-95 -20l121 567c6 30 9 53 9 74c0 18 -2 34 -7 49l86 38c7 -16 13 -36 13 -61c0 -12 -1 -25 -4 -39c50 63 119 95 176 95c87 0 131 -64 131 -162zM420 345c0 62 -22 86 -67 86
s-103 -35 -152 -102l-51 -239c21 -18 56 -28 94 -28c46 0 90 28 113 61c37 54 63 154 63 222z" />
    <glyph glyph-name="afii10083" unicode="&#x441;" horiz-adv-x="449" 
d="M446 467l-47 -67c-29 26 -62 36 -95 36c-35 0 -72 -18 -95 -49c-35 -46 -70 -150 -70 -228c0 -65 29 -99 86 -99c39 0 80 20 117 53l35 -58c-56 -46 -106 -67 -171 -67c-112 0 -167 61 -167 170c0 117 62 241 129 298c46 39 96 58 154 58c49 0 91 -15 124 -47z" />
    <glyph glyph-name="afii10084" unicode="&#x442;" horiz-adv-x="809" 
d="M753 415c0 -16 -4 -40 -8 -61l-75 -354h-90l73 345c4 18 6 34 6 48c0 28 -13 41 -45 41c-41 0 -99 -44 -147 -105l-70 -329h-90l72 338c5 22 9 47 9 57c0 24 -9 39 -38 39c-37 0 -97 -38 -151 -107l-69 -327h-90l75 355c7 32 10 56 10 76c0 17 -2 32 -7 48l86 38
c8 -17 12 -39 12 -61c0 -14 -2 -28 -5 -42c64 74 126 100 179 100c58 0 86 -36 87 -99c65 72 130 99 181 99c60 0 95 -43 95 -99z" />
    <glyph glyph-name="afii10085" unicode="&#x443;" horiz-adv-x="474" 
d="M520 502l-247 -447c-60 -108 -96 -183 -149 -221c-28 -20 -67 -37 -106 -44l-20 63c29 4 64 24 88 42c27 21 47 52 70 105l-33 -3c0 34 -6 122 -12 170l-42 328l96 17l32 -314c4 -36 4 -87 3 -121h1c1 5 35 73 58 119l157 306h104z" />
    <glyph glyph-name="afii10086" unicode="&#x444;" horiz-adv-x="746" 
d="M523 734l-56 -267c20 19 58 47 113 47c33 0 60 -10 83 -33c38 -38 44 -89 44 -129c0 -97 -31 -222 -102 -298c-48 -52 -101 -66 -144 -66c-39 0 -65 14 -87 37l-48 -223h-91l47 223c-26 -21 -60 -37 -107 -37c-32 0 -60 8 -85 33c-21 22 -44 62 -44 136
c0 105 44 235 112 303c39 39 81 54 127 54c59 0 83 -34 91 -47l53 248zM452 397l-63 -300c17 -24 44 -35 70 -35s49 11 69 30c51 49 83 167 83 257c0 17 -1 54 -24 75c-10 9 -26 16 -45 16c-36 0 -69 -23 -90 -43zM298 97l63 300c-17 29 -46 43 -72 43
c-30 0 -50 -15 -64 -29c-54 -55 -83 -183 -83 -251c0 -30 6 -62 23 -80c10 -11 25 -18 45 -18c35 0 68 19 88 35z" />
    <glyph glyph-name="afii10087" unicode="&#x445;" horiz-adv-x="423" 
d="M470 502l-200 -230l131 -272h-109c-6 18 -81 196 -82 204c-5 -8 -158 -193 -167 -204h-115l246 276l-104 220l105 9c4 -10 59 -151 62 -163c5 10 117 152 122 160h111z" />
    <glyph glyph-name="afii10088" unicode="&#x446;" horiz-adv-x="567" 
d="M427 495l95 18l-76 -358c-4 -18 -8 -38 -8 -58c0 -9 0 -16 4 -25h73l-52 -245h-86l36 173h-7c-25 0 -38 10 -43 15c-12 12 -15 31 -15 46c0 9 1 17 2 22c-24 -27 -52 -50 -77 -65c-33 -20 -67 -30 -107 -30c-20 0 -58 3 -82 29c-16 17 -24 44 -24 72c0 18 5 55 9 75
l70 332l95 17l-70 -331c-4 -20 -9 -53 -9 -69c0 -10 1 -28 13 -40c9 -9 22 -11 31 -11c29 0 61 14 90 36c25 19 50 45 70 79z" />
    <glyph glyph-name="afii10089" unicode="&#x447;" horiz-adv-x="504" 
d="M380 497l94 17l-109 -514h-90l44 209c-19 -9 -54 -24 -109 -24c-57 0 -89 18 -107 35c-19 18 -28 39 -28 68c0 13 2 29 7 53l33 156l95 17l-37 -175c-2 -11 -4 -21 -4 -29c0 -18 6 -29 15 -37c18 -17 49 -18 59 -18c21 0 57 4 90 20z" />
    <glyph glyph-name="afii10090" unicode="&#x448;" horiz-adv-x="806" 
d="M680 496l94 18l-77 -369c-5 -26 -10 -52 -10 -76c0 -14 2 -31 7 -48l-87 -38c-8 21 -12 47 -12 67c0 13 2 26 5 37c-22 -27 -49 -51 -79 -69s-66 -30 -102 -30c-21 0 -41 4 -59 21c-20 19 -26 47 -26 71v6c-8 -10 -35 -44 -76 -69c-33 -20 -67 -29 -100 -29
c-32 0 -58 11 -73 26c-22 23 -25 56 -25 76c0 19 3 39 7 58l74 348l95 18l-77 -365c-5 -24 -6 -37 -6 -45c0 -9 1 -22 10 -31c4 -4 13 -11 31 -11c34 0 61 19 82 36c27 22 47 44 66 68l70 330l94 18l-76 -358c-4 -17 -9 -35 -9 -55c0 -10 1 -21 9 -30c7 -8 16 -9 25 -9
c33 0 63 19 86 37c25 20 50 45 69 68z" />
    <glyph glyph-name="afii10091" unicode="&#x449;" horiz-adv-x="819" 
d="M697 145c-4 -21 -7 -31 -7 -52c0 -8 0 -14 4 -21h73l-52 -245h-86l37 173h-9c-13 0 -30 1 -43 14c-12 12 -16 31 -16 49c0 9 1 17 2 24c-22 -27 -49 -51 -79 -69s-66 -30 -102 -30c-21 0 -41 4 -59 21c-22 21 -27 51 -26 77c-8 -10 -35 -44 -76 -69
c-33 -20 -67 -29 -100 -29c-32 0 -58 11 -73 26c-22 23 -25 56 -25 76c0 19 3 39 7 58l74 348l95 18l-77 -365c-5 -24 -6 -37 -6 -45c0 -9 1 -22 10 -31c4 -4 13 -11 31 -11c34 0 61 19 82 36c27 22 47 44 66 68l70 330l94 18l-76 -358c-4 -17 -9 -35 -9 -55
c0 -10 1 -21 9 -30c7 -8 16 -9 25 -9c33 0 63 19 86 37c25 20 50 45 69 68l70 329l94 18z" />
    <glyph glyph-name="afii10092" unicode="&#x44a;" horiz-adv-x="554" 
d="M106 24l89 408h-145l28 70h222l-43 -197c31 10 57 13 85 13c70 0 108 -22 130 -44c16 -16 37 -47 37 -96s-20 -95 -53 -128c-52 -52 -120 -62 -169 -62c-43 0 -107 7 -163 29zM241 235l-34 -163c11 -4 42 -14 81 -14c23 0 59 4 88 30c27 25 33 55 33 80
c0 16 -2 39 -20 57c-19 20 -47 23 -72 23s-45 -3 -76 -13z" />
    <glyph glyph-name="afii10093" unicode="&#x44b;" horiz-adv-x="725" 
d="M240 514l-44 -209c33 10 64 13 91 13c65 0 103 -23 125 -44c27 -26 36 -57 36 -93c0 -53 -21 -101 -57 -136c-38 -37 -93 -57 -179 -57c-42 0 -99 8 -154 31l-12 5l100 472zM602 496l93 18l-109 -514h-90zM180 236l-34 -164c28 -11 57 -14 76 -14c45 0 75 14 93 30
c20 19 33 50 33 83c0 19 -5 37 -20 53c-21 21 -51 24 -74 24c-20 0 -43 -2 -74 -12z" />
    <glyph glyph-name="afii10094" unicode="&#x44c;" horiz-adv-x="493" 
d="M46 24l100 473l93 17l-44 -209c35 11 62 13 86 13c60 0 103 -17 130 -44c16 -16 37 -47 37 -96s-20 -95 -53 -128c-52 -52 -120 -62 -169 -62c-51 0 -124 12 -164 29zM180 235l-34 -163c11 -4 42 -14 81 -14c23 0 59 4 88 30c27 25 33 55 33 80c0 16 -2 39 -20 57
c-19 20 -47 23 -72 23s-45 -3 -76 -13z" />
    <glyph glyph-name="afii10095" unicode="&#x44d;" horiz-adv-x="461" 
d="M146 227l14 70h158c2 10 4 28 4 47c0 22 -3 54 -26 77c-20 20 -44 23 -64 23c-24 0 -46 -5 -64 -14c-13 -6 -28 -16 -42 -27l-35 54c17 13 43 30 65 39c40 17 81 18 99 18c38 0 86 -7 123 -46c36 -38 44 -86 44 -129c0 -76 -17 -201 -102 -286c-35 -35 -82 -65 -168 -65
c-35 0 -71 6 -104 23c-21 11 -40 26 -56 44l57 55c12 -16 25 -27 37 -34c22 -13 42 -18 66 -18c39 0 67 12 93 37c41 39 56 93 62 132h-161z" />
    <glyph glyph-name="afii10096" unicode="&#x44e;" horiz-adv-x="740" 
d="M194 302h86c14 48 41 100 81 141c44 45 99 72 170 72c65 0 103 -25 123 -46c41 -43 46 -106 46 -141c0 -112 -42 -205 -101 -265c-51 -52 -106 -75 -177 -75c-36 0 -82 6 -117 41c-38 37 -47 93 -47 140c0 24 2 47 5 63h-84l-49 -232h-90l105 497l94 17zM516 441
c-31 0 -56 -10 -81 -34c-53 -51 -81 -157 -81 -245c0 -18 2 -55 21 -77c17 -20 41 -23 60 -23c35 0 61 12 86 36c55 54 79 159 79 238c0 27 -3 60 -24 82c-18 19 -42 23 -60 23z" />
    <glyph glyph-name="afii10097" unicode="&#x44f;" horiz-adv-x="518" 
d="M337 207h-36c-30 0 -61 0 -84 -24c-9 -9 -16 -22 -24 -38l-27 -54c-9 -19 -23 -48 -44 -69c-24 -24 -49 -27 -85 -29l-35 -2l-11 64l18 3c13 2 25 6 39 18c13 11 20 25 28 38l30 52c9 16 15 29 28 42c11 11 30 26 67 33c-31 4 -57 20 -72 36s-27 38 -27 71
c0 20 4 64 45 105c50 49 120 60 189 60c47 0 99 -7 133 -12l19 -3l-105 -498h-90zM351 277l34 158c-27 5 -47 8 -67 8c-53 0 -84 -16 -101 -33c-16 -17 -24 -40 -24 -63c0 -13 3 -33 19 -48c22 -21 59 -22 81 -22h58z" />
    <glyph glyph-name="afii10071" unicode="&#x451;" horiz-adv-x="520" 
d="M483 383c0 -41 -17 -78 -46 -105c-42 -40 -108 -60 -214 -60c-23 0 -46 3 -62 3c-4 -17 -7 -41 -7 -58c0 -67 42 -101 96 -101c58 0 98 16 145 56l33 -57c-54 -50 -110 -73 -203 -73c-100 0 -171 66 -171 182c0 99 41 207 111 275c50 48 105 70 167 70
c96 0 151 -48 151 -132zM390 380c0 36 -19 65 -71 65c-60 0 -118 -56 -143 -155c11 -1 32 -2 48 -2c77 0 117 11 142 36c15 15 24 33 24 56zM510 646c0 -34 -27 -60 -58 -60c-34 0 -60 26 -60 60c0 31 25 58 59 58c31 0 59 -27 59 -58zM302 646c0 -34 -25 -60 -58 -60
c-32 0 -59 26 -59 60c0 31 27 58 58 58c34 0 59 -27 59 -58z" />
    <glyph glyph-name="afii10099" unicode="&#x452;" horiz-adv-x="566" 
d="M260 611h173l-35 -60h-151l-11 -53c-6 -29 -13 -54 -16 -62c45 35 113 69 177 69c34 0 70 -11 90 -32c18 -18 23 -41 23 -65c0 -19 -3 -39 -7 -55l-59 -276c-18 -84 -36 -163 -94 -221c-37 -37 -81 -55 -96 -60l-30 57c18 8 40 21 55 36c38 37 56 99 75 190l55 257
c3 14 5 27 5 39c0 14 -3 27 -12 35c-14 13 -39 14 -45 14c-31 0 -58 -11 -78 -21c-25 -12 -52 -31 -74 -49l-75 -354h-90l117 551h-58l13 60h58l24 114h90z" />
    <glyph glyph-name="afii10100" unicode="&#x453;" horiz-adv-x="463" 
d="M134 403l-24 67c21 11 48 23 72 30c39 12 74 14 95 14c38 0 88 -6 123 -41c20 -20 34 -48 34 -87c0 -36 -12 -62 -34 -83c-26 -26 -64 -43 -139 -73c-68 -27 -99 -39 -120 -60c-16 -15 -22 -32 -22 -51c0 -11 3 -26 17 -38c18 -16 49 -19 71 -19c29 0 63 3 108 24
c12 5 30 15 37 19l23 -68l-11 -6c-11 -6 -41 -21 -85 -32c-33 -8 -63 -11 -96 -11c-32 0 -91 2 -129 41c-16 16 -31 43 -31 83c0 48 22 80 42 99c33 32 85 50 131 67l45 17c53 20 72 34 81 44c12 12 17 27 17 43c0 20 -9 32 -16 39c-17 16 -43 19 -62 19
c-24 0 -48 -3 -86 -18c-13 -5 -29 -12 -41 -19zM409 663l-229 -101l-29 54l214 131z" />
    <glyph glyph-name="afii10101" unicode="&#x454;" horiz-adv-x="454" 
d="M306 225h-159c-6 -23 -10 -48 -10 -72c0 -22 3 -49 23 -68c12 -12 32 -23 66 -23c26 0 49 5 73 18c15 8 33 21 48 34l35 -59c-21 -20 -48 -38 -74 -49c-16 -7 -49 -18 -97 -18c-65 0 -103 19 -126 40c-24 22 -46 61 -46 130c0 89 38 216 117 290c53 50 111 66 163 66
c45 0 75 -11 79 -13c17 -7 38 -20 53 -33l-54 -62c-28 29 -63 35 -87 35c-27 0 -60 -7 -91 -38c-27 -27 -48 -72 -57 -108h159z" />
    <glyph glyph-name="afii10102" unicode="&#x455;" horiz-adv-x="472" 
d="M442 474l-37 -68c-41 23 -77 36 -119 36c-60 0 -104 -18 -104 -63c0 -31 13 -48 54 -65l62 -25c70 -28 104 -66 104 -123c0 -107 -89 -178 -225 -178c-66 0 -131 19 -179 51l38 69c44 -30 97 -48 152 -48c63 0 111 29 111 76c0 37 -16 56 -64 76l-58 24
c-65 27 -97 61 -97 121c0 90 79 157 212 157c55 0 112 -15 150 -40z" />
    <glyph glyph-name="afii10103" unicode="&#x456;" horiz-adv-x="275" 
d="M245 513l-109 -513h-96l106 498zM294 652c0 -37 -29 -66 -66 -66s-67 29 -67 66s30 67 67 67s66 -30 66 -67z" />
    <glyph glyph-name="afii10104" unicode="&#x457;" horiz-adv-x="275" 
d="M245 513l-109 -513h-96l106 498zM342 625c0 -33 -23 -60 -50 -60c-28 0 -51 27 -51 60c0 32 22 58 50 58s51 -26 51 -58zM197 625c0 -33 -22 -60 -49 -60c-28 0 -51 27 -51 60c0 32 23 58 50 58c28 0 50 -26 50 -58z" />
    <glyph glyph-name="afii10105" unicode="&#x458;" horiz-adv-x="269" 
d="M240 514l-106 -501c-15 -72 -36 -116 -62 -146c-27 -31 -61 -53 -107 -71l-32 59c32 13 56 31 71 54c16 24 27 56 38 106l102 481zM290 659c0 -37 -29 -67 -66 -67s-67 29 -67 65c0 38 30 69 67 69s66 -31 66 -67z" />
    <glyph glyph-name="afii10106" unicode="&#x459;" horiz-adv-x="732" 
d="M434 305c35 11 62 13 86 13c60 0 103 -17 130 -44c16 -16 37 -47 37 -96s-20 -95 -53 -128c-52 -52 -120 -62 -169 -62c-51 0 -124 12 -164 29l-16 7l85 408h-110l-25 -82c-33 -107 -31 -102 -52 -163c-25 -72 -46 -123 -75 -151c-21 -20 -55 -38 -102 -42l-36 -3l-6 65
l22 5c30 7 45 17 55 27c13 12 44 49 86 182c8 26 34 112 38 126l30 106h281zM419 235l-34 -163c11 -4 42 -14 81 -14c23 0 59 4 88 30c27 25 33 55 33 80c0 16 -2 39 -20 57c-19 20 -47 23 -72 23s-45 -3 -76 -13z" />
    <glyph glyph-name="afii10107" unicode="&#x45a;" horiz-adv-x="774" 
d="M327 24l44 208h-192l-49 -232h-90l105 496l94 18l-45 -212h192l41 195l93 17l-44 -209c35 11 62 13 86 13c60 0 103 -17 130 -44c16 -16 37 -47 37 -96s-20 -95 -53 -128c-52 -52 -120 -62 -169 -62c-51 0 -124 12 -164 29zM461 235l-34 -163c11 -4 42 -14 81 -14
c23 0 59 4 88 30c27 25 33 55 33 80c0 16 -2 39 -20 57c-19 20 -47 23 -72 23s-45 -3 -76 -13z" />
    <glyph glyph-name="afii10108" unicode="&#x45b;" horiz-adv-x="565" 
d="M427 0h-90l72 337c2 9 5 22 5 35c0 12 -2 25 -8 34c-7 9 -22 19 -49 19c-24 0 -56 -10 -77 -20c-23 -11 -55 -33 -76 -51l-75 -354h-89l117 551h-58l13 60h58l19 96l94 18l-24 -114h173l-35 -60h-151l-11 -53c-6 -29 -13 -54 -16 -62c84 64 149 69 179 69
c46 0 72 -16 87 -31c18 -19 24 -42 24 -65c0 -19 -3 -39 -7 -56z" />
    <glyph glyph-name="afii10109" unicode="&#x45c;" horiz-adv-x="531" 
d="M146 496l95 18l-44 -205l-26 -91h2c4 8 26 52 52 94c22 35 47 68 79 99c30 29 58 49 96 68c31 15 64 27 99 34l22 -66l-17 -4c-42 -10 -105 -39 -166 -99c-21 -20 -37 -39 -53 -65l20 -2c16 -2 48 -6 67 -26c20 -20 22 -50 24 -70l6 -78c1 -12 1 -23 11 -33
c7 -7 17 -10 28 -13l19 -5l-25 -62l-41 5c-18 2 -46 4 -63 23c-19 20 -19 53 -19 76l-1 73c0 19 -6 34 -15 41c-10 9 -36 13 -50 13c-49 -71 -80 -135 -115 -221h-91zM449 663l-229 -101l-29 54l214 131z" />
    <glyph glyph-name="afii10110" unicode="&#x45e;" horiz-adv-x="474" 
d="M520 502l-247 -447c-60 -108 -96 -183 -149 -221c-28 -20 -67 -37 -106 -44l-20 63c29 4 64 24 88 42c27 21 47 52 70 105l-33 -3c0 34 -6 122 -12 170l-42 328l96 17l32 -314c4 -36 4 -87 3 -121h1c1 5 35 73 58 119l157 306h104zM415 721l47 -25
c-9 -21 -24 -45 -43 -64c-34 -34 -73 -46 -118 -46c-46 0 -77 14 -95 32c-17 17 -32 44 -33 78l58 25c1 -12 5 -31 19 -45c17 -18 38 -20 58 -20c22 0 42 3 63 17c13 8 28 23 44 48z" />
    <glyph glyph-name="afii10193" unicode="&#x45f;" horiz-adv-x="556" 
d="M524 514l-78 -366c-5 -23 -7 -42 -7 -57c0 -29 8 -47 19 -62l-75 -49c-13 13 -24 30 -30 53c-4 16 -5 35 -4 50c-13 -15 -34 -36 -61 -55c-36 -26 -73 -40 -121 -40c-35 0 -64 10 -81 27c-24 24 -26 60 -26 80c0 25 4 48 8 69l71 332l95 18l-70 -332
c-5 -24 -9 -51 -9 -68c0 -5 0 -29 12 -41c10 -10 25 -11 32 -11c44 0 94 34 122 63c20 21 37 46 40 51l68 318zM170 -175l35 132l87 31l-36 -163h-86z" />
    <glyph glyph-name="afii10050" unicode="&#x490;" horiz-adv-x="497" 
d="M136 0h-96l146 688h268l33 156h90l-50 -236h-262z" />
    <glyph glyph-name="afii10098" unicode="&#x491;" horiz-adv-x="416" 
d="M130 0h-90l106 502h225l30 144h80l-45 -214h-215z" />
    <glyph glyph-name="endash" unicode="&#x2013;" horiz-adv-x="588" 
d="M554 313l-15 -70h-486l16 70h485z" />
    <glyph glyph-name="emdash" unicode="&#x2014;" horiz-adv-x="815" 
d="M781 313l-15 -70h-713l16 70h712z" />
    <glyph glyph-name="afii00208" unicode="&#x2015;" horiz-adv-x="815" 
d="M781 313l-15 -70h-713l16 70h712z" />
    <glyph glyph-name="quoteleft" unicode="&#x2018;" horiz-adv-x="270" 
d="M312 668c-37 -16 -77 -51 -81 -88c27 -3 48 -34 48 -67c0 -46 -34 -77 -78 -77c-45 0 -78 32 -78 84c0 55 32 103 82 147c26 23 59 38 79 47z" />
    <glyph glyph-name="quoteright" unicode="&#x2019;" horiz-adv-x="270" 
d="M289 617c0 -55 -32 -103 -82 -147c-26 -23 -59 -38 -79 -47l-28 46c37 16 77 51 81 88c-27 3 -48 34 -48 67c0 46 34 77 78 77c45 0 78 -32 78 -84z" />
    <glyph glyph-name="quotesinglbase" unicode="&#x201a;" horiz-adv-x="269" 
d="M166 49c0 -55 -32 -103 -82 -147c-26 -23 -59 -38 -79 -47l-28 46c37 16 77 51 81 88c-27 3 -48 34 -48 67c0 46 34 77 78 77c45 0 78 -32 78 -84z" />
    <glyph glyph-name="quotedblleft" unicode="&#x201c;" horiz-adv-x="477" 
d="M520 668c-37 -16 -77 -51 -81 -88c27 -3 48 -34 48 -67c0 -46 -34 -77 -78 -77c-45 0 -78 32 -78 84c0 55 32 103 82 147c26 23 59 38 79 47zM312 668c-37 -16 -77 -51 -81 -88c27 -3 48 -34 48 -67c0 -46 -34 -77 -78 -77c-45 0 -78 32 -78 84c0 55 32 103 82 147
c26 23 59 38 79 47z" />
    <glyph glyph-name="quotedblright" unicode="&#x201d;" horiz-adv-x="474" 
d="M494 617c0 -55 -32 -103 -82 -147c-26 -23 -59 -38 -79 -47l-28 46c37 16 77 51 81 88c-27 3 -48 34 -48 67c0 46 34 77 78 77c45 0 78 -32 78 -84zM290 617c0 -55 -32 -103 -82 -147c-26 -23 -59 -38 -79 -47l-28 46c37 16 77 51 81 88c-27 3 -48 34 -48 67
c0 46 34 77 78 77c45 0 78 -32 78 -84z" />
    <glyph glyph-name="quotedblbase" unicode="&#x201e;" horiz-adv-x="475" 
d="M373 49c0 -55 -32 -103 -82 -147c-26 -23 -59 -38 -79 -47l-28 46c37 16 77 51 81 88c-27 3 -48 34 -48 67c0 46 34 77 78 77c45 0 78 -32 78 -84zM167 49c0 -55 -32 -103 -82 -147c-26 -23 -59 -38 -79 -47l-28 46c37 16 77 51 81 88c-27 3 -48 34 -48 67
c0 46 34 77 78 77c45 0 78 -32 78 -84z" />
    <glyph glyph-name="dagger" unicode="&#x2020;" horiz-adv-x="481" 
d="M513 529l-31 -82h-147l-96 -447h-92l95 447h-155l18 82h155l33 159h93l-34 -159h161z" />
    <glyph glyph-name="daggerdbl" unicode="&#x2021;" horiz-adv-x="495" 
d="M517 529l-31 -82h-147l-44 -206h155l-17 -82h-155l-35 -159h-92l34 159h-160l30 82h147l44 206h-155l18 82h155l33 159h93l-34 -159h161z" />
    <glyph glyph-name="bullet" unicode="&#x2022;" horiz-adv-x="521" 
d="M462 354c0 -98 -79 -177 -177 -177s-177 79 -177 177s79 177 177 177s177 -79 177 -177z" />
    <glyph glyph-name="ellipsis" unicode="&#x2026;" horiz-adv-x="788" 
d="M658 60c0 -40 -34 -74 -73 -74c-41 0 -72 34 -72 74s31 72 71 72c41 0 74 -32 74 -72zM422 60c0 -40 -33 -74 -72 -74c-41 0 -72 34 -72 74s31 72 71 72c41 0 73 -32 73 -72zM187 60c0 -40 -33 -74 -72 -74c-41 0 -72 34 -72 74s31 72 71 72c41 0 73 -32 73 -72z" />
    <glyph glyph-name="perthousand" unicode="&#x2030;" horiz-adv-x="1231" 
d="M800 211c0 -131 -83 -221 -206 -221c-79 0 -131 41 -131 124c0 126 87 219 204 219c88 0 133 -51 133 -122zM433 574c0 -131 -84 -221 -206 -221c-80 0 -131 41 -131 124c0 126 86 219 203 219c88 0 134 -52 134 -122zM1170 210c0 -130 -84 -220 -206 -220
c-80 0 -131 41 -131 123c0 127 86 220 203 220c88 0 134 -52 134 -123zM733 688l-488 -688h-77l489 688h76zM722 206c0 45 -22 67 -68 67c-77 0 -112 -68 -112 -159c0 -48 26 -64 68 -64c73 0 112 70 112 156zM1091 206c0 45 -22 67 -68 67c-76 0 -111 -69 -111 -160
c0 -47 25 -63 68 -63c72 0 111 69 111 156zM354 569c0 45 -22 67 -68 67c-76 0 -111 -69 -111 -160c0 -47 25 -63 68 -63c72 0 111 70 111 156z" />
    <glyph glyph-name="guilsinglleft" unicode="&#x2039;" horiz-adv-x="335" 
d="M324 415l-168 -179l85 -173l-70 -40l-108 222l201 216z" />
    <glyph glyph-name="guilsinglright" unicode="&#x203a;" horiz-adv-x="335" 
d="M276 239l-202 -216l-61 46l169 180l-85 173l70 39z" />
    <glyph glyph-name="fraction" unicode="&#x2044;" horiz-adv-x="350" 
d="M568 763l-722 -917h-77l723 917h76z" />
    <glyph glyph-name="uni2070" unicode="&#x2070;" horiz-adv-x="347" 
d="M388 572c11 -37 7 -88 -1 -125c-25 -119 -95 -206 -194 -206c-84 0 -110 71 -110 142c0 23 4 46 8 67c23 109 105 201 190 201c67 0 96 -44 107 -79zM314 535c-4 40 -21 56 -44 56c-18 0 -40 -13 -60 -43c-16 -24 -28 -55 -37 -98c-7 -32 -10 -59 -10 -79
c0 -28 9 -71 44 -71c20 0 45 16 64 48c15 24 26 58 35 98c6 29 11 59 8 89z" />
    <glyph glyph-name="uni2074" unicode="&#x2074;" horiz-adv-x="349" 
d="M375 383l-13 -62h-42l-6 1c-1 -3 0 -9 -1 -13l-14 -63l-77 -16l17 80c1 3 2 8 3 12c-4 0 -9 -1 -13 -1h-166l11 51l198 273h82c-26 -36 -127 -183 -192 -263l13 1h74l6 -1c0 15 8 31 13 49l29 100l66 16l-30 -144c-1 -6 -5 -15 -7 -21l6 1h43z" />
    <glyph glyph-name="uni2075" unicode="&#x2075;" horiz-adv-x="308" 
d="M371 641l-25 -64h-124l-26 -83c10 1 16 2 27 2c67 0 113 -33 113 -91c0 -67 -53 -127 -112 -152c-32 -14 -73 -23 -109 -23c-20 0 -33 1 -53 6l-3 62c33 -13 41 -12 59 -12c57 0 135 38 135 103c0 38 -27 47 -61 47c-27 0 -55 -4 -94 -18l68 223h205z" />
    <glyph glyph-name="uni2076" unicode="&#x2076;" horiz-adv-x="343" 
d="M386 618c-73 -21 -154 -66 -193 -134c21 9 48 17 70 17c56 0 108 -36 108 -96c0 -91 -86 -165 -175 -165c-76 0 -120 49 -120 122c0 71 35 134 84 184c68 70 126 99 218 126zM289 395c0 28 -20 45 -48 45c-21 0 -46 -6 -72 -21c-6 -20 -11 -41 -11 -62
c0 -30 11 -57 49 -57c50 0 82 49 82 95z" />
    <glyph glyph-name="uni2077" unicode="&#x2077;" horiz-adv-x="340" 
d="M421 641l-28 -65c-48 -51 -99 -110 -140 -165c-42 -58 -71 -104 -97 -166l-91 -21c40 91 87 161 139 228c39 51 79 94 111 125c-8 0 -18 -1 -27 -1h-171l32 65h272z" />
    <glyph glyph-name="uni2078" unicode="&#x2078;" horiz-adv-x="349" 
d="M399 571c0 -54 -43 -91 -89 -111c32 -22 63 -41 63 -81c0 -87 -96 -140 -180 -140c-65 0 -125 30 -125 93c0 58 43 101 93 124c-24 17 -40 42 -40 71c0 5 1 10 2 16c16 76 95 108 165 108c67 0 111 -30 111 -80zM291 362c0 10 -3 18 -9 24c-10 11 -28 24 -68 42
c-34 -17 -65 -42 -65 -83c0 -29 21 -47 61 -47c37 0 81 23 81 64zM322 558c0 21 -17 35 -52 35c-30 0 -71 -16 -71 -52c0 -26 34 -44 54 -53c26 12 62 32 68 61c1 3 1 6 1 9z" />
    <glyph glyph-name="uni2079" unicode="&#x2079;" horiz-adv-x="354" 
d="M410 541c0 -91 -65 -181 -133 -236c-54 -44 -125 -77 -191 -86l-34 49c40 6 52 10 73 18c51 20 114 55 149 105c-16 -5 -35 -10 -51 -10c-66 0 -107 41 -107 101c0 94 88 170 180 170c67 0 114 -44 114 -111zM329 533c0 38 -19 58 -48 58c-51 0 -83 -56 -83 -102
c0 -31 18 -47 47 -47c22 0 42 4 66 19c11 23 18 47 18 72z" />
    <glyph glyph-name="uni2080" unicode="&#x2080;" horiz-adv-x="347" 
d="M341 17c0 -24 -2 -49 -7 -70c-25 -119 -96 -206 -194 -206c-84 0 -110 71 -110 142c0 23 4 46 8 67c23 109 105 201 190 201c82 0 113 -64 113 -134zM261 35c-4 40 -22 56 -45 56c-18 0 -39 -13 -59 -43c-16 -24 -28 -55 -37 -98c-7 -32 -11 -59 -11 -79
c0 -28 10 -71 45 -71c20 0 45 16 64 48c15 24 26 58 35 98c5 23 9 46 9 70c0 6 0 13 -1 19z" />
    <glyph glyph-name="uni2081" unicode="&#x2081;" horiz-adv-x="290" 
d="M260 144l-71 -332h59l-13 -62h-197l13 62h63l52 242c-30 -17 -63 -28 -95 -38l-10 43l145 85h54z" />
    <glyph glyph-name="uni2082" unicode="&#x2082;" horiz-adv-x="330" 
d="M329 60c0 -83 -88 -154 -146 -202c-21 -17 -45 -35 -61 -47c8 0 19 1 27 1h139l-30 -62h-254l10 47c31 19 70 50 113 87c38 33 116 100 116 158c0 27 -18 43 -46 43c-36 0 -68 -21 -100 -39l-30 42c63 44 112 63 162 63c61 0 100 -38 100 -91z" />
    <glyph glyph-name="uni2083" unicode="&#x2083;" horiz-adv-x="332" 
d="M331 67c0 -46 -31 -86 -72 -105c28 -14 46 -37 46 -69c0 -68 -69 -122 -127 -143c-33 -12 -77 -19 -121 -19c-15 0 -28 0 -43 2l-6 58c28 -5 31 -6 47 -6c50 0 90 9 126 35c22 16 41 43 41 71c0 18 -10 32 -28 38c-13 4 -20 5 -64 5h-22l13 59h15c41 0 112 -2 112 58
c0 22 -16 36 -47 36c-32 0 -63 -14 -102 -38l-31 45c44 33 104 57 155 57c64 0 108 -33 108 -84z" />
    <glyph glyph-name="uni2084" unicode="&#x2084;" horiz-adv-x="349" 
d="M322 -117l-13 -62h-42l-6 1c-1 -3 0 -9 -1 -13l-14 -63l-77 -16l17 80c1 3 2 8 3 12c-4 0 -9 -1 -13 -1h-166l11 51l198 273h82c-26 -36 -127 -183 -192 -263l13 1h74l6 -1c0 15 7 31 12 49l30 100l66 16l-30 -144c-1 -6 -5 -15 -7 -21l6 1h43z" />
    <glyph glyph-name="uni2085" unicode="&#x2085;" horiz-adv-x="308" 
d="M318 141l-25 -64h-124l-26 -83c10 1 16 2 27 2c67 0 113 -33 113 -91c0 -67 -53 -127 -112 -152c-32 -14 -73 -23 -109 -23c-20 0 -33 1 -53 6l-3 64c33 -13 41 -14 59 -14c58 0 135 38 135 103c0 38 -27 47 -61 47c-27 0 -55 -4 -94 -18l68 223h205z" />
    <glyph glyph-name="uni2086" unicode="&#x2086;" horiz-adv-x="343" 
d="M333 118c-73 -21 -154 -66 -193 -134c21 9 48 17 70 17c56 0 108 -36 108 -96c0 -91 -86 -165 -175 -165c-76 0 -120 49 -120 122c0 71 35 134 84 184c68 70 126 99 218 126zM236 -105c0 28 -21 45 -49 45c-21 0 -45 -6 -71 -21c-6 -20 -11 -41 -11 -62
c0 -30 11 -57 49 -57c50 0 82 49 82 95z" />
    <glyph glyph-name="uni2087" unicode="&#x2087;" horiz-adv-x="340" 
d="M368 141l-28 -65c-48 -51 -99 -110 -140 -165c-42 -58 -71 -104 -97 -166l-92 -21c40 91 88 161 140 228c39 51 79 94 111 125c-8 0 -18 -1 -27 -1h-171l32 65h272z" />
    <glyph glyph-name="uni2088" unicode="&#x2088;" horiz-adv-x="349" 
d="M346 71c0 -54 -43 -91 -89 -111c32 -22 63 -38 63 -78c0 -87 -86 -143 -180 -143c-65 0 -125 30 -125 93c0 58 43 101 93 124c-23 16 -40 41 -40 70c0 85 95 125 167 125c67 0 111 -30 111 -80zM238 -138c0 10 -3 18 -9 24c-10 11 -28 24 -68 42c-34 -17 -65 -42 -65 -83
c0 -29 21 -47 61 -47c37 0 81 23 81 64zM269 58c0 21 -17 35 -52 35c-30 0 -71 -16 -71 -52c0 -26 34 -44 54 -53c27 13 69 35 69 70z" />
    <glyph glyph-name="uni2089" unicode="&#x2089;" horiz-adv-x="354" 
d="M357 41c0 -91 -65 -181 -133 -236c-54 -44 -126 -77 -192 -86l-33 49c40 6 52 10 73 18c51 20 114 55 149 105c-16 -5 -35 -10 -51 -10c-66 0 -108 41 -108 101c0 94 88 170 180 170c67 0 115 -44 115 -111zM276 33c0 38 -20 58 -49 58c-51 0 -82 -56 -82 -102
c0 -31 18 -47 47 -47c22 0 42 4 66 19c11 23 18 47 18 72z" />
    <glyph glyph-name="Euro" unicode="&#x20ac;" horiz-adv-x="638" 
d="M674 665l-34 -81c-28 27 -67 41 -113 41c-99 0 -178 -75 -210 -165h243l-16 -75h-255c-7 -26 -12 -52 -17 -79h255l-16 -75h-245c0 -114 47 -164 150 -164c53 0 93 14 136 43v-82c-43 -20 -90 -38 -160 -38c-144 0 -228 94 -228 241h-114l16 75h103c4 27 10 53 18 79
h-104l16 75h116c58 143 165 242 318 242c73 0 110 -18 141 -37z" />
    <glyph glyph-name="afii61352" unicode="&#x2116;" horiz-adv-x="948" 
d="M649 688l-146 -688h-101l-113 381c-8 29 -18 59 -27 97c-4 16 -6 30 -18 84c-4 -36 -7 -58 -12 -88c-9 -57 -12 -67 -19 -102l-75 -372h-98l146 688h110l120 -397c8 -26 18 -68 24 -100c1 -8 4 -25 9 -58c3 20 11 73 17 106c4 22 15 83 18 99l71 350h94zM963 580
c0 -48 -20 -120 -61 -164c-32 -35 -70 -47 -116 -47c-25 0 -53 6 -75 27c-26 25 -29 61 -29 80c0 52 20 123 64 168c33 33 68 44 109 44c18 0 54 -2 79 -26c13 -12 29 -37 29 -82zM897 582c0 22 -6 58 -51 58c-20 0 -36 -6 -50 -20c-25 -25 -48 -98 -48 -144
c0 -20 5 -36 15 -46c6 -6 18 -13 38 -13c18 0 34 5 49 19c33 30 47 106 47 146zM883 203h-257l14 56h258z" />
    <glyph glyph-name="uni2117" unicode="&#x2117;" horiz-adv-x="874" 
d="M809 354c0 -212 -170 -372 -372 -372c-203 0 -372 160 -372 372s169 372 372 372c202 0 372 -160 372 -372zM743 354c0 180 -136 318 -306 318c-171 0 -306 -138 -306 -318s135 -318 306 -318c170 0 306 138 306 318zM601 444c0 -42 -10 -74 -38 -99s-59 -34 -100 -34
h-64v-161h-57v413h116c43 0 66 -3 89 -18c35 -23 54 -59 54 -101zM538 434c0 29 -7 48 -22 61s-35 18 -72 18h-45v-153h61c33 0 46 7 58 21c13 15 20 31 20 53z" />
    <glyph glyph-name="trademark" unicode="&#x2122;" horiz-adv-x="949" 
d="M914 688l-50 -430h-77l37 291c0 2 1 8 1 8l-4 -8l-149 -291h-66l-23 281c-1 8 -1 16 -2 23c-1 -9 -4 -18 -6 -24l-80 -280h-78l130 430h99l21 -261c1 -12 1 -22 1 -31c5 10 9 20 15 31l131 261h100zM440 688l-22 -65h-113l-75 -365h-78l75 365h-113l13 65h313z" />
    <glyph glyph-name="Omega" unicode="&#x2126;" horiz-adv-x="688" 
d="M681 440c0 -139 -63 -307 -195 -369h132l-15 -71h-220l15 71c141 53 191 233 191 372c0 95 -34 174 -146 174c-191 0 -262 -228 -262 -386c0 -98 36 -140 79 -160l-15 -71h-220l15 71h129c-54 34 -77 100 -77 177c0 206 141 435 365 435c149 0 224 -106 224 -243z" />
    <glyph glyph-name="arrowleft" unicode="&#x2190;" horiz-adv-x="1200" 
d="M501 676c0 -32 -26 -57 -57 -57c-32 0 -57 25 -57 57c0 31 25 57 57 57c31 0 57 -26 57 -57zM345 -72c0 -31 -26 -57 -57 -57c-32 0 -57 26 -57 57c0 32 25 57 57 57c31 0 57 -25 57 -57zM224 177c0 -31 -25 -57 -57 -57c-31 0 -57 26 -57 57c0 32 26 57 57 57
c32 0 57 -25 57 -57zM388 551c0 -31 -25 -57 -57 -57c-31 0 -57 26 -57 57c0 32 26 57 57 57c32 0 57 -25 57 -57zM276 427c0 -32 -25 -57 -57 -57c-31 0 -57 25 -57 57c0 31 26 57 57 57c32 0 57 -26 57 -57zM284 53c0 -32 -25 -57 -57 -57c-31 0 -57 25 -57 57
c0 31 26 57 57 57c32 0 57 -26 57 -57zM501 302c0 -31 -25 -57 -57 -57c-31 0 -57 26 -57 57s26 57 57 57c32 0 57 -26 57 -57zM839 302c0 -31 -26 -57 -57 -57c-32 0 -57 26 -57 57s25 57 57 57c31 0 57 -26 57 -57zM1176 302c0 -31 -25 -57 -57 -57c-31 0 -57 26 -57 57
s26 57 57 57c32 0 57 -26 57 -57zM333 302c0 -31 -26 -57 -57 -57c-32 0 -57 26 -57 57s25 57 57 57c31 0 57 -26 57 -57zM670 302c0 -31 -25 -57 -57 -57c-31 0 -57 26 -57 57s26 57 57 57c32 0 57 -26 57 -57zM164 302c0 -31 -26 -57 -57 -57c-32 0 -57 26 -57 57
s25 57 57 57c31 0 57 -26 57 -57zM1008 302c0 -31 -26 -57 -57 -57c-32 0 -57 26 -57 57s25 57 57 57c31 0 57 -26 57 -57z" />
    <glyph glyph-name="arrowup" unicode="&#x2191;" horiz-adv-x="1172" 
d="M1018 533c0 -31 -26 -57 -57 -57s-57 26 -57 57s26 57 57 57s57 -26 57 -57zM893 615c0 -31 -26 -57 -57 -57s-57 26 -57 57s26 57 57 57s57 -26 57 -57zM768 697c0 -31 -26 -57 -57 -57s-57 26 -57 57s26 57 57 57s57 -26 57 -57zM643 779c0 -31 -26 -57 -57 -57
s-57 26 -57 57s26 57 57 57s57 -26 57 -57zM643 611c0 -31 -26 -57 -57 -57s-57 26 -57 57s26 57 57 57s57 -26 57 -57zM518 697c0 -31 -26 -57 -57 -57s-57 26 -57 57s26 57 57 57s57 -26 57 -57zM643 443c0 -31 -26 -57 -57 -57s-57 26 -57 57s26 57 57 57s57 -26 57 -57z
M393 615c0 -31 -26 -57 -57 -57s-57 26 -57 57s26 57 57 57s57 -26 57 -57zM643 275c0 -31 -26 -57 -57 -57s-57 26 -57 57s26 57 57 57s57 -26 57 -57zM268 533c0 -31 -26 -57 -57 -57s-57 26 -57 57s26 57 57 57s57 -26 57 -57zM643 107c0 -31 -26 -57 -57 -57
s-57 26 -57 57s26 57 57 57s57 -26 57 -57zM643 -61c0 -31 -26 -57 -57 -57s-57 26 -57 57s26 57 57 57s57 -26 57 -57zM643 -229c0 -31 -26 -57 -57 -57s-57 26 -57 57s26 57 57 57s57 -26 57 -57z" />
    <glyph glyph-name="arrowright" unicode="&#x2192;" horiz-adv-x="1200" 
d="M969 676c0 -32 -25 -57 -57 -57c-31 0 -57 25 -57 57c0 31 26 57 57 57c32 0 57 -26 57 -57zM1030 551c0 -31 -26 -57 -57 -57c-32 0 -57 26 -57 57c0 32 25 57 57 57c31 0 57 -25 57 -57zM839 -72c0 -31 -25 -57 -57 -57c-31 0 -57 26 -57 57c0 32 26 57 57 57
c32 0 57 -25 57 -57zM1116 427c0 -32 -26 -57 -57 -57c-32 0 -57 25 -57 57c0 31 25 57 57 57c31 0 57 -26 57 -57zM952 53c0 -32 -26 -57 -57 -57c-32 0 -57 25 -57 57c0 31 25 57 57 57c31 0 57 -26 57 -57zM1064 177c0 -31 -26 -57 -57 -57c-32 0 -57 26 -57 57
c0 32 25 57 57 57c31 0 57 -25 57 -57zM839 302c0 -31 -26 -57 -57 -57c-32 0 -57 26 -57 57s25 57 57 57c31 0 57 -26 57 -57zM1176 302c0 -31 -25 -57 -57 -57c-31 0 -57 26 -57 57s26 57 57 57c32 0 57 -26 57 -57zM332 302c0 -31 -25 -57 -57 -57c-31 0 -57 26 -57 57
s26 57 57 57c32 0 57 -26 57 -57zM670 302c0 -31 -26 -57 -57 -57c-32 0 -57 26 -57 57s25 57 57 57c31 0 57 -26 57 -57zM1007 302c0 -31 -25 -57 -57 -57c-31 0 -57 26 -57 57s26 57 57 57c32 0 57 -26 57 -57zM501 302c0 -31 -25 -57 -57 -57c-31 0 -57 26 -57 57
s26 57 57 57c32 0 57 -26 57 -57zM164 302c0 -31 -26 -57 -57 -57c-32 0 -57 26 -57 57s25 57 57 57c31 0 57 -26 57 -57z" />
    <glyph glyph-name="arrowdown" unicode="&#x2193;" horiz-adv-x="1172" 
d="M643 779c0 -31 -26 -57 -57 -57s-57 26 -57 57s26 57 57 57s57 -26 57 -57zM643 611c0 -31 -26 -57 -57 -57s-57 26 -57 57s26 57 57 57s57 -26 57 -57zM643 443c0 -31 -26 -57 -57 -57s-57 26 -57 57s26 57 57 57s57 -26 57 -57zM1018 17c0 -31 -26 -57 -57 -57
s-57 26 -57 57s26 57 57 57s57 -26 57 -57zM643 275c0 -31 -26 -57 -57 -57s-57 26 -57 57s26 57 57 57s57 -26 57 -57zM893 -65c0 -31 -26 -57 -57 -57s-57 26 -57 57s26 57 57 57s57 -26 57 -57zM643 107c0 -31 -26 -57 -57 -57s-57 26 -57 57s26 57 57 57s57 -26 57 -57z
M768 -147c0 -31 -26 -57 -57 -57s-57 26 -57 57s26 57 57 57s57 -26 57 -57zM643 -61c0 -31 -26 -57 -57 -57s-57 26 -57 57s26 57 57 57s57 -26 57 -57zM643 -229c0 -31 -26 -57 -57 -57s-57 26 -57 57s26 57 57 57s57 -26 57 -57zM518 -147c0 -31 -26 -57 -57 -57
s-57 26 -57 57s26 57 57 57s57 -26 57 -57zM393 -65c0 -31 -26 -57 -57 -57s-57 26 -57 57s26 57 57 57s57 -26 57 -57zM268 17c0 -31 -26 -57 -57 -57s-57 26 -57 57s26 57 57 57s57 -26 57 -57z" />
    <glyph glyph-name="uni2196" unicode="&#x2196;" horiz-adv-x="1172" 
d="M709 591c-11 -11 -26 -17 -41 -17s-29 6 -40 17s-17 25 -17 40s6 30 17 41s25 16 40 16s30 -5 41 -16s16 -26 16 -41s-5 -29 -16 -40zM389 381c-11 -11 -26 -17 -41 -17s-29 6 -40 17s-17 25 -17 40s6 30 17 41s25 16 40 16s30 -5 41 -16s16 -26 16 -41s-5 -29 -16 -40z
M240 353c-11 -11 -26 -17 -41 -17s-29 6 -40 17s-17 25 -17 40s6 30 17 41s25 16 40 16s30 -5 41 -16s16 -26 16 -41s-5 -29 -16 -40zM983 -213c-11 -11 -26 -17 -41 -17s-29 6 -40 17s-17 25 -17 40s6 30 17 41s25 16 40 16s30 -5 41 -16s16 -26 16 -41s-5 -29 -16 -40z
M508 262c-11 -11 -26 -17 -41 -17s-29 6 -40 17s-17 25 -17 40s6 30 17 41s25 16 40 16s30 -5 41 -16s16 -26 16 -41s-5 -29 -16 -40zM416 530c-11 -11 -26 -17 -40 -17c-15 0 -29 6 -40 17s-17 25 -17 40s6 30 17 41s25 16 40 16c14 0 29 -5 40 -16s16 -26 16 -41
s-5 -29 -16 -40zM270 500c-11 -11 -26 -17 -41 -17s-29 6 -40 17s-17 25 -17 40c0 14 6 29 17 40s25 16 40 16s30 -5 41 -16s16 -26 16 -40c0 -15 -5 -29 -16 -40zM626 143c-11 -11 -26 -17 -40 -17c-15 0 -29 6 -40 17s-17 25 -17 40s6 30 17 41s25 16 40 16
c14 0 29 -5 40 -16s16 -26 16 -41s-5 -29 -16 -40zM745 25c-11 -11 -26 -17 -41 -17s-29 6 -40 17s-17 25 -17 40c0 14 6 29 17 40s25 16 40 16s30 -5 41 -16s16 -26 16 -40c0 -15 -5 -29 -16 -40zM864 -94c-11 -11 -26 -17 -41 -17s-29 6 -40 17s-17 25 -17 40
c0 14 6 29 17 40s25 16 40 16s30 -5 41 -16s16 -26 16 -40c0 -15 -5 -29 -16 -40zM179 61c-11 -11 -26 -17 -41 -17s-29 6 -40 17s-17 25 -17 40c0 14 6 29 17 40s25 16 40 16s30 -5 41 -16s16 -26 16 -40c0 -15 -5 -29 -16 -40zM209 207c-11 -11 -26 -17 -40 -17
c-15 0 -29 6 -40 17s-17 25 -17 40s6 30 17 41s25 16 40 16c14 0 29 -5 40 -16s16 -26 16 -41s-5 -29 -16 -40zM563 561c-11 -11 -26 -17 -41 -17s-29 6 -40 17s-17 25 -17 40c0 14 6 29 17 40s25 16 40 16s30 -5 41 -16s16 -26 16 -40c0 -15 -5 -29 -16 -40z" />
    <glyph glyph-name="uni2197" unicode="&#x2197;" horiz-adv-x="1172" 
d="M745 530c-11 -11 -26 -17 -41 -17s-29 6 -40 17s-17 25 -17 40s6 30 17 41s25 16 40 16s30 -5 41 -16s16 -26 16 -41s-5 -29 -16 -40zM179 -213c-11 -11 -26 -17 -41 -17s-29 6 -40 17s-17 25 -17 40s6 30 17 41s25 16 40 16s30 -5 41 -16s16 -26 16 -41s-5 -29 -16 -40z
M535 143c-11 -11 -26 -17 -41 -17s-29 6 -40 17s-17 25 -17 40s6 30 17 41s25 16 40 16s30 -5 41 -16s16 -26 16 -41s-5 -29 -16 -40zM922 353c-11 -11 -26 -17 -41 -17s-29 6 -40 17s-17 25 -17 40s6 30 17 41s25 16 40 16s30 -5 41 -16s16 -26 16 -41s-5 -29 -16 -40z
M654 262c-11 -11 -26 -17 -41 -17s-29 6 -40 17s-17 25 -17 40s6 30 17 41s25 16 40 16s30 -5 41 -16s16 -26 16 -41s-5 -29 -16 -40zM773 381c-11 -11 -26 -17 -41 -17s-29 6 -40 17s-17 25 -17 40s6 30 17 41s25 16 40 16s30 -5 41 -16s16 -26 16 -41s-5 -29 -16 -40z
M983 61c-11 -11 -26 -17 -41 -17s-29 6 -40 17s-17 25 -17 40c0 14 6 29 17 40s25 16 40 16s30 -5 41 -16s16 -26 16 -40c0 -15 -5 -29 -16 -40zM952 207c-11 -11 -26 -17 -40 -17c-15 0 -29 6 -40 17s-17 25 -17 40s6 30 17 41s25 16 40 16c14 0 29 -5 40 -16
s16 -26 16 -41s-5 -29 -16 -40zM452 591c-11 -11 -26 -17 -40 -17c-15 0 -29 6 -40 17s-17 25 -17 40s6 30 17 41s25 16 40 16c14 0 29 -5 40 -16s16 -26 16 -41s-5 -29 -16 -40zM599 561c-11 -11 -26 -17 -41 -17s-29 6 -40 17s-17 25 -17 40c0 14 6 29 17 40s25 16 40 16
s30 -5 41 -16s16 -26 16 -40c0 -15 -5 -29 -16 -40zM297 -94c-11 -11 -26 -17 -40 -17c-15 0 -29 6 -40 17s-17 25 -17 40c0 14 6 29 17 40s25 16 40 16c14 0 29 -5 40 -16s16 -26 16 -40c0 -15 -5 -29 -16 -40zM891 500c-11 -11 -26 -17 -40 -17c-15 0 -29 6 -40 17
s-17 25 -17 40c0 14 6 29 17 40s25 16 40 16c14 0 29 -5 40 -16s16 -26 16 -40c0 -15 -5 -29 -16 -40zM416 25c-11 -11 -26 -17 -40 -17c-15 0 -29 6 -40 17s-17 25 -17 40c0 14 6 29 17 40s25 16 40 16c14 0 29 -5 40 -16s16 -26 16 -40c0 -15 -5 -29 -16 -40z" />
    <glyph glyph-name="uni2198" unicode="&#x2198;" horiz-adv-x="1172" 
d="M983 317c-11 -11 -26 -17 -41 -17s-29 6 -40 17s-17 25 -17 40s6 30 17 41s25 16 40 16s30 -5 41 -16s16 -26 16 -41s-5 -29 -16 -40zM179 591c-11 -11 -26 -17 -41 -17s-29 6 -40 17s-17 25 -17 40s6 30 17 41s25 16 40 16s30 -5 41 -16s16 -26 16 -41s-5 -29 -16 -40z
M745 -152c-11 -11 -26 -17 -41 -17s-29 6 -40 17s-17 25 -17 40s6 30 17 41s25 16 40 16s30 -5 41 -16s16 -26 16 -41s-5 -29 -16 -40zM773 -3c-11 -11 -26 -17 -41 -17s-29 6 -40 17s-17 25 -17 40s6 30 17 41s25 16 40 16s30 -5 41 -16s16 -26 16 -41s-5 -29 -16 -40z
M654 116c-11 -11 -26 -17 -41 -17s-29 6 -40 17s-17 25 -17 40s6 30 17 41s25 16 40 16s30 -5 41 -16s16 -26 16 -41s-5 -29 -16 -40zM922 25c-11 -11 -26 -17 -41 -17s-29 6 -40 17s-17 25 -17 40c0 14 6 29 17 40s25 16 40 16s30 -5 41 -16s16 -26 16 -40
c0 -15 -5 -29 -16 -40zM297 472c-11 -11 -26 -17 -40 -17c-15 0 -29 6 -40 17s-17 25 -17 40s6 30 17 41s25 16 40 16c14 0 29 -5 40 -16s16 -26 16 -41s-5 -29 -16 -40zM416 353c-11 -11 -26 -17 -40 -17c-15 0 -29 6 -40 17s-17 25 -17 40s6 30 17 41s25 16 40 16
c14 0 29 -5 40 -16s16 -26 16 -41s-5 -29 -16 -40zM535 235c-11 -11 -26 -17 -41 -17s-29 6 -40 17s-17 25 -17 40c0 14 6 29 17 40s25 16 40 16s30 -5 41 -16s16 -26 16 -40c0 -15 -5 -29 -16 -40zM891 -122c-11 -11 -26 -17 -40 -17c-15 0 -29 6 -40 17s-17 25 -17 40
s6 30 17 41s25 16 40 16c14 0 29 -5 40 -16s16 -26 16 -41s-5 -29 -16 -40zM452 -213c-11 -11 -26 -17 -40 -17c-15 0 -29 6 -40 17s-17 25 -17 40s6 30 17 41s25 16 40 16c14 0 29 -5 40 -16s16 -26 16 -41s-5 -29 -16 -40zM599 -182c-11 -11 -26 -17 -41 -17s-29 6 -40 17
s-17 25 -17 40c0 14 6 29 17 40s25 16 40 16s30 -5 41 -16s16 -26 16 -40c0 -15 -5 -29 -16 -40zM952 171c-11 -11 -26 -17 -40 -17c-15 0 -29 6 -40 17s-17 25 -17 40s6 30 17 41s25 16 40 16c14 0 29 -5 40 -16s16 -26 16 -41s-5 -29 -16 -40z" />
    <glyph glyph-name="uni2199" unicode="&#x2199;" horiz-adv-x="1172" 
d="M983 591c-11 -11 -26 -17 -41 -17s-29 6 -40 17s-17 25 -17 40s6 30 17 41s25 16 40 16s30 -5 41 -16s16 -26 16 -41s-5 -29 -16 -40zM270 -122c-11 -11 -26 -17 -41 -17s-29 6 -40 17s-17 25 -17 40s6 30 17 41s25 16 40 16s30 -5 41 -16s16 -26 16 -41s-5 -29 -16 -40z
M389 -3c-11 -11 -26 -17 -41 -17s-29 6 -40 17s-17 25 -17 40s6 30 17 41s25 16 40 16s30 -5 41 -16s16 -26 16 -41s-5 -29 -16 -40zM709 -213c-11 -11 -26 -17 -41 -17s-29 6 -40 17s-17 25 -17 40s6 30 17 41s25 16 40 16s30 -5 41 -16s16 -26 16 -41s-5 -29 -16 -40z
M508 116c-11 -11 -26 -17 -41 -17s-29 6 -40 17s-17 25 -17 40s6 30 17 41s25 16 40 16s30 -5 41 -16s16 -26 16 -41s-5 -29 -16 -40zM864 472c-11 -11 -26 -17 -41 -17s-29 6 -40 17s-17 25 -17 40s6 30 17 41s25 16 40 16s30 -5 41 -16s16 -26 16 -41s-5 -29 -16 -40z
M745 353c-11 -11 -26 -17 -41 -17s-29 6 -40 17s-17 25 -17 40s6 30 17 41s25 16 40 16s30 -5 41 -16s16 -26 16 -41s-5 -29 -16 -40zM179 317c-11 -11 -26 -17 -41 -17s-29 6 -40 17s-17 25 -17 40s6 30 17 41s25 16 40 16s30 -5 41 -16s16 -26 16 -41s-5 -29 -16 -40z
M240 25c-11 -11 -26 -17 -41 -17s-29 6 -40 17s-17 25 -17 40c0 14 6 29 17 40s25 16 40 16s30 -5 41 -16s16 -26 16 -40c0 -15 -5 -29 -16 -40zM416 -152c-11 -11 -26 -17 -40 -17c-15 0 -29 6 -40 17s-17 25 -17 40s6 30 17 41s25 16 40 16c14 0 29 -5 40 -16
s16 -26 16 -41s-5 -29 -16 -40zM209 171c-11 -11 -26 -17 -40 -17c-15 0 -29 6 -40 17s-17 25 -17 40s6 30 17 41s25 16 40 16c14 0 29 -5 40 -16s16 -26 16 -41s-5 -29 -16 -40zM563 -182c-11 -11 -26 -17 -41 -17s-29 6 -40 17s-17 25 -17 40c0 14 6 29 17 40s25 16 40 16
s30 -5 41 -16s16 -26 16 -40c0 -15 -5 -29 -16 -40zM626 235c-11 -11 -26 -17 -40 -17c-15 0 -29 6 -40 17s-17 25 -17 40c0 14 6 29 17 40s25 16 40 16c14 0 29 -5 40 -16s16 -26 16 -40c0 -15 -5 -29 -16 -40z" />
    <glyph glyph-name="partialdiff" unicode="&#x2202;" horiz-adv-x="586" 
d="M554 340c0 -30 -3 -61 -10 -92c-36 -169 -152 -264 -282 -264c-108 0 -180 67 -180 175c0 145 111 273 262 273c45 0 76 -8 96 -15c-12 44 -38 89 -71 125c-50 53 -129 102 -215 111l69 67c85 -10 204 -67 265 -161c43 -67 66 -140 66 -219zM446 323
c-18 15 -67 29 -109 29c-96 0 -147 -94 -147 -180c0 -63 35 -103 96 -103c75 0 129 68 151 170c6 28 8 70 9 84z" />
    <glyph glyph-name="Delta" unicode="&#x2206;" horiz-adv-x="624" 
d="M549 0h-534l346 588h88zM451 65l-67 436l-245 -436h312z" />
    <glyph glyph-name="product" unicode="&#x220f;" horiz-adv-x="705" 
d="M767 645l-19 -88h-72l-101 -477h72l-17 -80h-241l17 80h69l101 477h-270l-101 -477h69l-17 -80h-242l17 80h73l101 477h-73l19 88h615z" />
    <glyph glyph-name="summation" unicode="&#x2211;" horiz-adv-x="508" 
d="M575 686l-47 -84h-248l193 -257l-314 -260h292l-45 -85h-391l16 72l318 272l-195 266l42 76h379z" />
    <glyph glyph-name="minus" unicode="&#x2212;" horiz-adv-x="585" 
d="M551 315l-16 -75h-481l16 75h481z" />
    <glyph glyph-name="uni2219" unicode="&#x2219;" horiz-adv-x="307" 
d="M234 278c0 -40 -32 -72 -72 -72s-72 32 -72 72s32 72 72 72s72 -32 72 -72z" />
    <glyph glyph-name="radical" unicode="&#x221a;" horiz-adv-x="561" 
d="M677 710l-406 -710h-85l-57 434h-62l16 74h138l30 -249c5 -38 9 -81 11 -113c13 26 31 61 55 103l260 461h100z" />
    <glyph glyph-name="infinity" unicode="&#x221e;" horiz-adv-x="927" 
d="M922 303c0 -126 -107 -212 -229 -212c-60 0 -111 25 -150 57l-68 57l-90 -56c-63 -39 -120 -59 -179 -59c-65 0 -152 27 -152 123c0 126 110 213 231 213c58 0 111 -26 155 -62l64 -52l90 56c59 37 123 59 178 59c65 0 150 -28 150 -124zM412 255l-59 48
c-24 20 -53 33 -88 33c-57 0 -108 -39 -108 -98c0 -36 27 -63 74 -63c35 0 82 19 121 43zM819 278c0 36 -27 63 -74 63c-35 0 -82 -19 -121 -43l-59 -37l60 -47c25 -19 51 -34 86 -34c57 0 108 39 108 98z" />
    <glyph glyph-name="uni2224" unicode="&#x2224;" horiz-adv-x="307" 
d="M234 278c0 -40 -32 -72 -72 -72s-72 32 -72 72s32 72 72 72s72 -32 72 -72z" />
    <glyph glyph-name="logicaland" unicode="&#x2227;" horiz-adv-x="307" 
d="M234 278c0 -40 -32 -72 -72 -72s-72 32 -72 72s32 72 72 72s72 -32 72 -72z" />
    <glyph glyph-name="integral" unicode="&#x222b;" horiz-adv-x="238" 
d="M492 702l-53 -78c-17 15 -36 24 -55 24c-37 0 -65 -28 -79 -79l-172 -610c-21 -73 -53 -105 -93 -129c-30 -18 -61 -28 -98 -28c-30 0 -70 11 -93 27l53 79c17 -15 36 -24 55 -24c37 0 65 28 79 78l172 610c21 73 53 105 93 129c30 18 61 28 98 28c30 0 70 -11 93 -27z
" />
    <glyph glyph-name="approxequal" unicode="&#x2248;" horiz-adv-x="582" 
d="M571 394c-35 -43 -78 -89 -140 -89c-36 0 -66 17 -98 33c-33 17 -66 39 -103 39c-41 0 -73 -34 -99 -68l-16 66c35 42 77 88 139 88c35 0 65 -16 98 -32c34 -17 65 -40 102 -40c42 0 74 35 101 69zM528 194c-35 -43 -78 -89 -140 -89c-36 0 -66 17 -98 33
c-33 17 -65 39 -102 39c-41 0 -74 -34 -100 -68l-16 66c35 42 78 88 140 88c35 0 64 -16 97 -32c34 -17 66 -40 103 -40c42 0 73 35 100 69z" />
    <glyph glyph-name="notequal" unicode="&#x2260;" horiz-adv-x="634" 
d="M640 430l-17 -82h-200l-73 -91h254l-18 -82h-300l-137 -170l-46 34l114 136h-155l18 82h203l72 91h-256l17 82h302l140 171l45 -33l-115 -138h152z" />
    <glyph glyph-name="lessequal" unicode="&#x2264;" horiz-adv-x="467" 
d="M490 510l-20 -97l-263 -107l221 -88l-20 -94l-337 138l16 76zM405 110l-17 -84h-367l17 84h367z" />
    <glyph glyph-name="greaterequal" unicode="&#x2265;" horiz-adv-x="467" 
d="M454 338l-16 -76l-397 -138l20 94l259 88l-217 107l20 97zM405 110l-17 -84h-367l17 84h367z" />
    <glyph glyph-name="dotmath" unicode="&#x22c5;" horiz-adv-x="307" 
d="M234 278c0 -40 -32 -72 -72 -72s-72 32 -72 72s32 72 72 72s72 -32 72 -72z" />
    <glyph glyph-name="uni25B4" unicode="&#x25b4;" horiz-adv-x="516" 
d="M288 543l178 -386h-356z" />
    <glyph glyph-name="uni25B8" unicode="&#x25b8;" horiz-adv-x="516" 
d="M481 350l-386 -178v356z" />
    <glyph glyph-name="uni25BE" unicode="&#x25be;" horiz-adv-x="516" 
d="M288 157l-178 386h356z" />
    <glyph glyph-name="uni25C2" unicode="&#x25c2;" horiz-adv-x="516" 
d="M95 350l386 178v-356z" />
    <glyph glyph-name="lozenge" unicode="&#x25ca;" horiz-adv-x="592" 
d="M580 344l-273 -344h-86l-123 344l269 343h86zM486 344l-95 269l-205 -269l91 -270z" />
    <glyph glyph-name="uniFB06" unicode="&#xfb06;" horiz-adv-x="760" 
d="M817 502l-35 -68h-103l-60 -283c-4 -21 -7 -38 -7 -52c0 -34 15 -46 49 -46c20 0 36 4 52 10v-57c-31 -14 -63 -21 -98 -21c-63 0 -96 31 -96 83c0 24 1 44 7 71l62 295h-61l13 68h63l30 141c-33 15 -78 27 -114 27c-61 0 -140 -33 -140 -106c0 -28 10 -54 34 -71
c8 -4 16 -8 24 -13l-37 -68c-41 23 -77 36 -119 36c-60 0 -104 -24 -104 -69c0 -31 13 -48 54 -65l62 -25c70 -28 104 -66 104 -123c0 -107 -89 -181 -225 -181c-66 0 -131 19 -179 51l38 69c44 -30 97 -48 152 -48c63 0 111 32 111 79c0 37 -16 56 -64 76l-58 24
c-65 27 -97 61 -97 121c0 90 79 163 212 163c14 0 29 -1 43 -3c-6 13 -16 30 -16 59c0 112 121 156 225 156c70 0 131 -17 196 -36c0 0 -28 -139 -40 -194h122z" />
    <glyph glyph-name="parenleft.case" horiz-adv-x="330" 
d="M465 763c-83 -45 -128 -82 -164 -138c-38 -58 -67 -143 -92 -254c-16 -72 -27 -149 -27 -209c0 -105 27 -175 103 -225l-34 -51c-97 46 -160 143 -160 280c0 64 10 138 23 200c35 167 89 271 171 348c49 46 109 84 164 104z" />
    <glyph glyph-name="parenright.case" horiz-adv-x="329" 
d="M279 540c0 -64 -10 -141 -22 -200c-35 -166 -90 -270 -171 -348c-49 -47 -109 -84 -165 -104l-15 58c82 45 127 82 164 138c38 58 69 143 92 254c15 72 27 149 27 210c0 102 -26 174 -103 224l34 48c97 -46 159 -142 159 -280z" />
    <glyph glyph-name="hyphen.case" horiz-adv-x="346" 
d="M296 394l-18 -85h-204l19 85h203z" />
    <glyph glyph-name="bracketleft.case" horiz-adv-x="292" 
d="M378 796l-15 -68h-92l-160 -752h92l-14 -68h-177l189 888h177z" />
    <glyph glyph-name="bracketright.case" horiz-adv-x="292" 
d="M313 796l-189 -888h-177l15 68h92l160 752h-92l14 68h177z" />
    <glyph glyph-name="braceleft.case" horiz-adv-x="348" 
d="M434 796l-16 -74h-53c-47 0 -61 -38 -69 -75l-36 -172c-19 -91 -87 -117 -116 -122l-1 -2c24 -3 68 -19 68 -84c0 -11 -1 -24 -4 -38l-36 -172c-3 -11 -4 -22 -4 -33c0 -23 9 -42 41 -42h53l-16 -74h-79c-47 0 -87 31 -87 94c0 11 1 23 4 36l37 175c2 9 3 17 3 25
c0 52 -41 77 -73 77l15 74c38 0 100 34 114 102l37 175c18 87 85 130 139 130h79z" />
    <glyph glyph-name="braceright.case" horiz-adv-x="348" 
d="M331 389l-15 -74c-39 0 -99 -33 -114 -102l-37 -175c-18 -87 -83 -130 -139 -130h-79l16 74h53c47 0 61 39 69 75l37 171c21 98 87 120 115 123l1 2c-23 4 -68 24 -68 87c0 10 1 22 4 35l36 172c3 12 4 23 4 34c0 23 -9 41 -41 41h-53l16 74h80c44 0 86 -32 86 -95
c0 -11 -1 -22 -4 -35l-37 -175c-2 -9 -3 -17 -3 -24c0 -52 40 -78 73 -78z" />
    <glyph glyph-name="guillemotleft.case" horiz-adv-x="535" 
d="M330 526l-169 -180l85 -173l-70 -40l-109 222l202 216zM530 526l-169 -180l86 -173l-71 -40l-108 222l201 216z" />
    <glyph glyph-name="uni00AD.case" horiz-adv-x="346" 
d="M296 394l-18 -85h-204l19 85h203z" />
    <glyph glyph-name="guillemotright.case" horiz-adv-x="535" 
d="M282 349l-201 -216l-61 46l168 180l-85 173l71 39zM482 349l-201 -216l-61 46l169 180l-86 173l71 39z" />
    <glyph glyph-name="endash.case" horiz-adv-x="588" 
d="M559 387l-15 -70h-486l16 70h485z" />
    <glyph glyph-name="emdash.case" horiz-adv-x="815" 
d="M786 387l-15 -70h-713l16 70h712z" />
    <glyph glyph-name="guilsinglleft.case" horiz-adv-x="335" 
d="M329 525l-168 -179l85 -173l-70 -40l-108 222l201 216z" />
    <glyph glyph-name="guilsinglright.case" horiz-adv-x="335" 
d="M281 349l-202 -216l-61 46l169 180l-85 173l70 39z" />
    <glyph glyph-name="zero.dnom" horiz-adv-x="347" 
d="M341 267c0 -24 -2 -49 -7 -70c-25 -119 -96 -206 -194 -206c-84 0 -110 71 -110 142c0 23 4 46 8 67c23 109 105 201 190 201c82 0 113 -64 113 -134zM261 285c-4 40 -22 56 -45 56c-18 0 -39 -13 -59 -43c-16 -24 -28 -55 -37 -98c-7 -32 -11 -59 -11 -79
c0 -28 10 -71 45 -71c20 0 45 16 64 48c15 24 26 58 35 98c5 23 9 46 9 70c0 6 0 13 -1 19z" />
    <glyph glyph-name="one.dnom" horiz-adv-x="290" 
d="M260 394l-71 -332h59l-13 -62h-197l13 62h63l52 242c-30 -17 -63 -28 -95 -38l-10 43l145 85h54z" />
    <glyph glyph-name="two.dnom" horiz-adv-x="330" 
d="M329 310c0 -83 -88 -154 -146 -202c-21 -17 -45 -35 -61 -47c8 0 19 1 27 1h139l-30 -62h-254l10 47c31 19 70 50 113 87c38 33 116 100 116 158c0 27 -18 43 -46 43c-36 0 -68 -21 -100 -39l-30 42c63 44 112 63 162 63c61 0 100 -38 100 -91z" />
    <glyph glyph-name="three.dnom" horiz-adv-x="332" 
d="M331 317c0 -46 -31 -86 -72 -105c28 -14 46 -37 46 -69c0 -68 -69 -122 -127 -143c-33 -12 -77 -19 -121 -19c-15 0 -28 0 -43 2l-6 58c28 -5 31 -6 47 -6c50 0 90 9 126 35c22 16 41 43 41 71c0 18 -10 32 -28 38c-13 4 -20 5 -64 5h-22l13 59h15c41 0 112 -2 112 58
c0 22 -16 36 -47 36c-32 0 -63 -14 -102 -38l-31 45c44 33 104 57 155 57c64 0 108 -33 108 -84z" />
    <glyph glyph-name="four.dnom" horiz-adv-x="349" 
d="M322 133l-13 -62h-42l-6 1c-1 -3 0 -9 -1 -13l-14 -63l-77 -16l17 80c1 3 2 8 3 12c-4 0 -9 -1 -13 -1h-166l11 51l198 273h82c-26 -36 -127 -183 -192 -263l13 1h74l6 -1c0 15 7 31 12 49l30 100l66 16l-30 -144c-1 -6 -5 -15 -7 -21l6 1h43z" />
    <glyph glyph-name="five.dnom" horiz-adv-x="308" 
d="M318 391l-25 -64h-124l-26 -83c10 1 16 2 27 2c67 0 113 -33 113 -91c0 -67 -53 -127 -112 -152c-32 -14 -73 -23 -109 -23c-20 0 -33 1 -53 6l-3 64c33 -13 41 -14 59 -14c58 0 135 38 135 103c0 38 -27 47 -61 47c-27 0 -55 -4 -94 -18l68 223h205z" />
    <glyph glyph-name="six.dnom" horiz-adv-x="343" 
d="M333 368c-73 -21 -154 -66 -193 -134c21 9 48 17 70 17c56 0 108 -36 108 -96c0 -91 -86 -165 -175 -165c-76 0 -120 49 -120 122c0 71 35 134 84 184c68 70 126 99 218 126zM236 145c0 28 -21 45 -49 45c-21 0 -45 -6 -71 -21c-6 -20 -11 -41 -11 -62
c0 -30 11 -57 49 -57c50 0 82 49 82 95z" />
    <glyph glyph-name="seven.dnom" horiz-adv-x="340" 
d="M368 391l-28 -65c-48 -51 -99 -110 -140 -165c-42 -58 -71 -104 -97 -166l-92 -21c40 91 88 161 140 228c39 51 79 94 111 125c-8 0 -18 -1 -27 -1h-171l32 65h272z" />
    <glyph glyph-name="eight.dnom" horiz-adv-x="349" 
d="M346 321c0 -54 -43 -91 -89 -111c32 -22 63 -38 63 -78c0 -87 -86 -143 -180 -143c-65 0 -125 30 -125 93c0 58 43 101 93 124c-23 16 -40 41 -40 70c0 85 95 125 167 125c67 0 111 -30 111 -80zM238 112c0 10 -3 18 -9 24c-10 11 -28 24 -68 42c-34 -17 -65 -42 -65 -83
c0 -29 21 -47 61 -47c37 0 81 23 81 64zM269 308c0 21 -17 35 -52 35c-30 0 -71 -16 -71 -52c0 -26 34 -44 54 -53c27 13 69 35 69 70z" />
    <glyph glyph-name="nine.dnom" horiz-adv-x="354" 
d="M357 291c0 -91 -65 -181 -133 -236c-54 -44 -126 -77 -192 -86l-33 49c40 6 52 10 73 18c51 20 114 55 149 105c-16 -5 -35 -10 -51 -10c-66 0 -108 41 -108 101c0 94 88 170 180 170c67 0 115 -44 115 -111zM276 283c0 38 -20 58 -49 58c-51 0 -82 -56 -82 -102
c0 -31 18 -47 47 -47c22 0 42 4 66 19c11 23 18 47 18 72z" />
    <glyph glyph-name="germandbls.hist" horiz-adv-x="721" 
d="M376 730c39 0 82 -13 115 -37l-52 -58c-25 17 -49 25 -75 25c-67 0 -107 -43 -128 -146l-107 -524c-19 -94 -49 -155 -91 -202l-68 45c30 39 54 95 69 168l87 433h-75l14 68h74l9 34c26 141 111 194 228 194zM696 480l-37 -68c-41 23 -77 36 -119 36
c-60 0 -104 -24 -104 -69c0 -31 13 -48 54 -65l62 -25c70 -28 104 -66 104 -123c0 -107 -89 -181 -225 -181c-66 0 -131 19 -179 51l38 69c44 -30 97 -48 152 -48c63 0 111 32 111 79c0 37 -16 56 -64 76l-58 24c-65 27 -97 61 -97 121c0 90 79 163 212 163
c55 0 112 -15 150 -40z" />
    <glyph glyph-name="grave.lc" 
d="M426 616l-32 -53l-221 100l49 84z" />
    <glyph glyph-name="dieresis.lc" 
d="M509 625c0 -33 -26 -60 -58 -60c-33 0 -60 27 -60 60c0 32 26 58 59 58c32 0 59 -26 59 -58zM301 625c0 -33 -26 -60 -58 -60c-33 0 -59 27 -59 60c0 32 26 58 58 58c33 0 59 -26 59 -58z" />
    <glyph glyph-name="macron.lc" horiz-adv-x="325" 
d="M342 659l-14 -68h-244l14 68h244z" />
    <glyph glyph-name="acute.lc" 
d="M505 663l-229 -101l-29 54l214 131z" />
    <glyph glyph-name="circumflex.lc" 
d="M509 610l-40 -51l-121 83l-153 -83l-33 51l201 135z" />
    <glyph glyph-name="caron.lc" horiz-adv-x="416" 
d="M458 692l-200 -135l-147 135l41 51l121 -82l153 82z" />
    <glyph glyph-name="breve.lc" horiz-adv-x="380" 
d="M457 699c-18 -19 -118 -115 -195 -115c-78 0 -137 96 -146 115l45 44c14 -17 62 -65 125 -65c54 0 130 52 149 65z" />
    <glyph glyph-name="dotaccent.lc" horiz-adv-x="175" 
d="M243 652c0 -37 -30 -66 -67 -66s-66 29 -66 66s29 67 67 67c36 0 66 -30 66 -67z" />
    <glyph glyph-name="ring.lc" horiz-adv-x="530" 
d="M468 659c0 -59 -47 -106 -106 -106s-106 47 -106 106s47 106 106 106s106 -47 106 -106zM417 659c0 31 -24 56 -55 56s-55 -25 -55 -56s24 -56 55 -56s55 25 55 56z" />
    <glyph glyph-name="tilde.lc" 
d="M527 653c-42 -41 -77 -64 -136 -64s-63 38 -120 38c-32 0 -50 -17 -76 -39l-23 53c42 41 76 64 133 64c60 0 64 -38 122 -38c32 0 52 16 77 38z" />
    <glyph glyph-name="hungarumlaut.lc" horiz-adv-x="416" 
d="M297 765l-160 -203l-53 24l131 215zM493 746l-191 -179l-44 35l164 195z" />
    <glyph glyph-name="diedot.lc" 
d="M301 625c0 -33 -26 -60 -58 -60c-33 0 -59 27 -59 60c0 32 26 58 58 58c33 0 59 -26 59 -58z" />
    <glyph glyph-name="zero.lf" horiz-adv-x="570" 
d="M545 446c0 -147 -46 -275 -109 -352c-61 -75 -127 -109 -211 -109c-98 0 -168 77 -168 231c0 144 51 272 125 355c55 62 119 98 190 98c98 0 173 -71 173 -223zM446 465c0 87 -29 132 -81 132c-36 0 -78 -18 -118 -75c-57 -81 -92 -236 -92 -335c0 -91 38 -132 85 -132
c40 0 87 29 123 84c50 76 83 214 83 326z" />
    <glyph glyph-name="one.lf" horiz-adv-x="410" 
d="M358 657l-141 -657h-92l117 546c-39 -25 -89 -52 -167 -83l-12 56l225 138h70z" />
    </font>
</defs>
</svg>
