<?xml version="1.0" standalone="no"?>
<!DOCTYPE svg PUBLIC "-//W3C//DTD SVG 1.1//EN" "http://www.w3.org/Graphics/SVG/1.1/DTD/svg11.dtd" >
<svg xmlns="http://www.w3.org/2000/svg" xmlns:xlink="http://www.w3.org/1999/xlink" version="1.1">
<metadata>
Created by FontForge 20170910 at Mon Mar 19 09:49:16 2012
 By Jimmy Wärting

</metadata>
<defs>
<font id="MetaSerifPro-Black" horiz-adv-x="1" >
  <font-face 
    font-family="MetaSerifPro-Black"
    font-weight="900"
    font-stretch="normal"
    units-per-em="1000"
    panose-1="2 1 10 4 5 1 1 2 1 2"
    ascent="763"
    descent="-237"
    x-height="516"
    cap-height="697"
    bbox="-758 -290 1677 1184"
    underline-thickness="83"
    underline-position="-83"
    stemh="50"
    stemv="173"
    unicode-range="U+000D-FEFF"
  />
<missing-glyph horiz-adv-x="553" 
d="M71 0v689h411v-689h-411zM121 50h311v589h-311v-589z" />
    <glyph glyph-name="f_b" unicode="fb" horiz-adv-x="974" 
d="M756 243c0 136 -34 172 -85 172c-28 0 -54 -8 -77 -30v-273c19 -22 43 -28 71 -28c53 0 91 26 91 159zM594 736v-287c20 47 68 80 143 80c123 0 202 -85 202 -268c0 -201 -106 -274 -243 -274c-77 0 -124 29 -143 70c-5 -20 -16 -46 -30 -57h-115c9 24 13 52 13 117v463
c0 51 -20 91 -83 91c-44 0 -81 -21 -81 -114v-41h114l-17 -84h-96v-312c0 -57 10 -70 57 -70v-50h-287v50c47 0 57 13 57 70v312h-60v59l60 25v27c0 150 106 203 237 203c67 0 112 -12 156 -40l28 30h88z" />
    <glyph glyph-name="f_f" unicode="ff" horiz-adv-x="705" 
d="M258 432v-312c0 -57 10 -70 57 -70v-50h-287v50c47 0 57 13 57 70v312h-60v59l60 25v21c0 140 113 201 254 201c56 0 105 -11 145 -30c34 26 83 38 143 38c42 0 114 -8 148 -24v-115h-97c0 51 -14 64 -38 64c-30 0 -42 -21 -42 -59v-96h121l-17 -84h-103v-312
c0 -57 12 -70 77 -70v-50h-307v50c47 0 57 13 57 70v312h-168zM257 553v-37h169v65c0 51 -19 82 -78 82c-47 0 -91 -29 -91 -110z" />
    <glyph glyph-name="f_f_b" unicode="ffb" horiz-adv-x="1315" 
d="M935 736v-287c20 47 68 80 143 80c123 0 202 -85 202 -268c0 -201 -106 -274 -243 -274c-77 0 -124 29 -143 70c-5 -20 -16 -46 -30 -57h-115c9 24 13 52 13 117v463c0 51 -20 91 -83 91c-44 0 -81 -21 -81 -114v-41h114l-17 -84h-96v-312c0 -57 10 -70 57 -70v-50h-287
v50c47 0 57 13 57 70v312h-168v-312c0 -57 10 -70 57 -70v-50h-287v50c47 0 57 13 57 70v312h-60v59l60 25v21c0 140 113 201 254 201c67 0 113 -17 154 -37c43 31 106 45 170 45c67 0 112 -12 156 -40l28 30h88zM257 553v-37h169v65c0 51 -19 82 -78 82
c-47 0 -91 -29 -91 -110zM1097 243c0 136 -34 172 -85 172c-28 0 -54 -8 -77 -30v-273c19 -22 43 -28 71 -28c53 0 91 26 91 159z" />
    <glyph glyph-name="f_f_h" unicode="ffh" horiz-adv-x="1323" 
d="M935 736v-292c44 50 93 85 172 85c83 0 149 -49 149 -159v-250c0 -57 10 -70 57 -70v-50h-287v50c47 0 57 13 57 70v208c0 61 -24 81 -63 81c-38 0 -65 -15 -85 -27v-262c0 -57 10 -70 57 -70v-50h-287v50c47 0 57 13 57 70v460c0 51 -20 91 -83 91
c-44 0 -81 -21 -81 -114v-41h114l-17 -84h-96v-312c0 -57 10 -70 57 -70v-50h-287v50c47 0 57 13 57 70v312h-168v-312c0 -57 10 -70 57 -70v-50h-287v50c47 0 57 13 57 70v312h-60v59l60 25v21c0 140 113 201 254 201c67 0 113 -17 154 -37c43 31 106 45 170 45
c67 0 112 -12 156 -40l28 30h88zM257 553v-37h169v65c0 51 -19 82 -78 82c-47 0 -91 -29 -91 -110z" />
    <glyph glyph-name="f_f_i" unicode="ffi" horiz-adv-x="1004" 
d="M489 702c42 30 102 44 178 44c74 0 144 -12 188 -37v-115h-137c0 54 -14 77 -57 77s-63 -21 -63 -87v-68h248l61 10h25v-406c0 -57 10 -70 57 -70v-50h-287v50c47 0 57 13 57 70v227c0 71 -9 85 -52 85h-108v-312c0 -57 10 -70 57 -70v-50h-287v50c47 0 57 13 57 70v312
h-168v-312c0 -57 10 -70 57 -70v-50h-287v50c47 0 57 13 57 70v312h-60v59l60 25v21c0 140 113 201 254 201c56 0 107 -12 150 -36zM426 516v65c0 51 -19 82 -78 82c-47 0 -91 -29 -91 -110v-37h169z" />
    <glyph glyph-name="f_f_j" unicode="ffj" horiz-adv-x="1000" 
d="M426 516v65c0 51 -19 82 -78 82c-47 0 -91 -29 -91 -110v-37h169zM707 432h-108v-312c0 -57 10 -70 57 -70v-50h-287v50c47 0 57 13 57 70v312h-168v-312c0 -57 10 -70 57 -70v-50h-287v50c47 0 57 13 57 70v312h-60v59l60 25v21c0 140 113 201 254 201
c56 0 107 -12 150 -36c42 30 102 44 178 44c74 0 144 -12 188 -37v-115h-137c0 54 -14 77 -57 77s-63 -21 -63 -87v-68h248l61 10h25v-508c0 -149 -129 -209 -224 -224l-29 46c61 28 80 75 80 178v329c0 71 -9 85 -52 85z" />
    <glyph glyph-name="f_f_k" unicode="ffk" horiz-adv-x="1301" 
d="M1183 409l-88 -95l126 -212c27 -45 47 -48 80 -52v-50h-214l-143 259l125 142c11 12 16 24 16 34c0 18 -17 30 -48 30v51h245v-51c-40 -5 -65 -19 -99 -56zM493 701c43 31 106 45 170 45c67 0 112 -12 156 -40l28 30h88v-616c0 -57 10 -70 57 -70v-50h-287v50
c47 0 57 13 57 70v460c0 51 -20 91 -83 91c-44 0 -81 -21 -81 -114v-41h114l-17 -84h-96v-312c0 -57 10 -70 57 -70v-50h-287v50c47 0 57 13 57 70v312h-168v-312c0 -57 10 -70 57 -70v-50h-287v50c47 0 57 13 57 70v312h-60v59l60 25v21c0 140 113 201 254 201
c67 0 113 -17 154 -37zM257 553v-37h169v65c0 51 -19 82 -78 82c-47 0 -91 -29 -91 -110z" />
    <glyph glyph-name="f_f_l" unicode="ffl" horiz-adv-x="1007" 
d="M493 701c43 31 106 45 170 45c67 0 112 -12 156 -40l28 30h88v-616c0 -57 10 -70 57 -70v-50h-287v50c47 0 57 13 57 70v460c0 51 -20 91 -83 91c-44 0 -81 -21 -81 -114v-41h114l-17 -84h-96v-312c0 -57 10 -70 57 -70v-50h-287v50c47 0 57 13 57 70v312h-168v-312
c0 -57 10 -70 57 -70v-50h-287v50c47 0 57 13 57 70v312h-60v59l60 25v21c0 140 113 201 254 201c67 0 113 -17 154 -37zM257 553v-37h169v65c0 51 -19 82 -78 82c-47 0 -91 -29 -91 -110z" />
    <glyph glyph-name="f_f_t" unicode="fft" horiz-adv-x="1078" 
d="M619 746c42 0 114 -8 148 -24v-115h-97c0 51 -12 64 -36 64c-26 0 -36 -20 -36 -58v-97h182c5 45 22 95 48 133l128 13c-5 -36 -9 -95 -9 -146h121l-17 -84h-103v-255c0 -72 4 -104 54 -104c19 0 34 4 57 13l19 -59c-41 -26 -89 -40 -152 -40c-98 0 -151 34 -151 148v297
h-176v-312c0 -57 12 -70 77 -70v-50h-307v50c47 0 57 13 57 70v312h-168v-312c0 -57 10 -70 57 -70v-50h-287v50c47 0 57 13 57 70v312h-60v59l60 25v21c0 140 113 201 254 201c56 0 105 -11 145 -30c34 26 75 38 135 38zM257 553v-37h169v65c0 51 -19 82 -78 82
c-47 0 -91 -29 -91 -110z" />
    <glyph glyph-name="f_h" unicode="fh" horiz-adv-x="982" 
d="M594 736v-292c44 50 93 85 172 85c83 0 149 -49 149 -159v-250c0 -57 10 -70 57 -70v-50h-287v50c47 0 57 13 57 70v208c0 61 -24 81 -63 81c-38 0 -65 -15 -85 -27v-262c0 -57 10 -70 57 -70v-50h-287v50c47 0 57 13 57 70v460c0 51 -20 91 -83 91
c-44 0 -81 -21 -81 -114v-41h114l-17 -84h-96v-312c0 -57 10 -70 57 -70v-50h-287v50c47 0 57 13 57 70v312h-60v59l60 25v27c0 150 106 203 237 203c67 0 112 -12 156 -40l28 30h88z" />
    <glyph glyph-name="f_i" unicode="fi" horiz-adv-x="663" 
d="M258 432v-312c0 -57 10 -70 57 -70v-50h-287v50c47 0 57 13 57 70v312h-60v59l60 25v46c0 131 91 184 241 184c74 0 144 -12 188 -37v-115h-137c0 54 -14 77 -57 77s-63 -21 -63 -87v-68h248l61 10h25v-406c0 -57 10 -70 57 -70v-50h-287v50c47 0 57 13 57 70v227
c0 71 -9 85 -52 85h-108z" />
    <glyph glyph-name="f_j" unicode="fj" horiz-adv-x="659" 
d="M418 18v329c0 71 -9 85 -52 85h-108v-312c0 -57 10 -70 57 -70v-50h-287v50c47 0 57 13 57 70v312h-60v59l60 25v46c0 131 91 184 241 184c74 0 144 -12 188 -37v-115h-137c0 54 -14 77 -57 77s-63 -21 -63 -87v-68h248l61 10h25v-508c0 -149 -129 -209 -224 -224l-29 46
c61 28 80 75 80 178z" />
    <glyph glyph-name="f_k" unicode="fk" horiz-adv-x="960" 
d="M842 409l-88 -95l126 -212c27 -45 47 -48 80 -52v-50h-214l-143 259l125 142c11 12 16 24 16 34c0 18 -17 30 -48 30v51h245v-51c-40 -5 -65 -19 -99 -56zM421 120v460c0 51 -20 91 -83 91c-44 0 -81 -21 -81 -114v-41h114l-17 -84h-96v-312c0 -57 10 -70 57 -70v-50
h-287v50c47 0 57 13 57 70v312h-60v59l60 25v27c0 150 106 203 237 203c67 0 112 -12 156 -40l28 30h88v-616c0 -57 10 -70 57 -70v-50h-287v50c47 0 57 13 57 70z" />
    <glyph glyph-name="f_l" unicode="fl" horiz-adv-x="666" 
d="M421 120v460c0 51 -20 91 -83 91c-44 0 -81 -21 -81 -114v-41h114l-17 -84h-96v-312c0 -57 10 -70 57 -70v-50h-287v50c47 0 57 13 57 70v312h-60v59l60 25v27c0 150 106 203 237 203c67 0 112 -12 156 -40l28 30h88v-616c0 -57 10 -70 57 -70v-50h-287v50
c47 0 57 13 57 70z" />
    <glyph glyph-name="f_t" unicode="ft" horiz-adv-x="737" 
d="M257 516h182c5 45 22 95 48 133l128 13c-5 -36 -9 -95 -9 -146h121l-17 -84h-103v-255c0 -72 4 -104 54 -104c19 0 34 4 57 13l19 -59c-41 -26 -89 -40 -152 -40c-98 0 -151 34 -151 148v297h-176v-312c0 -57 12 -70 77 -70v-50h-307v50c47 0 57 13 57 70v312h-60v59
l60 25v65c0 112 70 165 193 165c42 0 114 -8 148 -24v-115h-97c0 51 -12 64 -36 64c-26 0 -36 -20 -36 -58v-97z" />
    <glyph glyph-name=".notdef" horiz-adv-x="553" 
d="M71 0v689h411v-689h-411zM121 50h311v589h-311v-589z" />
    <glyph glyph-name=".null" horiz-adv-x="0" 
 />
    <glyph glyph-name=".null" horiz-adv-x="0" 
 />
    <glyph glyph-name="CR" unicode="&#xd;" horiz-adv-x="225" 
 />
    <glyph glyph-name="space" unicode=" " horiz-adv-x="225" 
 />
    <glyph glyph-name="exclam" unicode="!" horiz-adv-x="325" 
d="M108 228l-53 459l215 17l-52 -476h-110zM162 -13c-56 0 -102 46 -102 103c0 55 46 101 102 101s103 -46 103 -101c0 -57 -47 -103 -103 -103z" />
    <glyph glyph-name="quotedbl" unicode="&#x22;" horiz-adv-x="454" 
d="M369 453h-105v256h105v-256zM190 453h-105v256h105v-256z" />
    <glyph glyph-name="numbersign" unicode="#" horiz-adv-x="582" 
d="M60 419v90h106l28 200h82l-28 -200h122l28 200h82l-28 -200h100v-90h-112l-17 -118h99v-90h-111l-29 -211h-82l29 211h-122l-29 -211h-82l29 211h-95v90h107l17 118h-94zM236 419l-17 -118h122l17 118h-122z" />
    <glyph glyph-name="dollar" unicode="$" horiz-adv-x="594" 
d="M316 -101h-59v88c-132 3 -195 37 -232 57v137h128c8 -86 46 -123 104 -129v218l-47 11c-115 27 -184 77 -184 204c0 141 91 213 231 223v87h59v-87c107 -3 175 -32 207 -47v-150h-124c-7 65 -25 112 -83 124v-194l43 -10c127 -31 205 -85 205 -215
c0 -137 -89 -215 -248 -227v-90zM398 154c0 47 -20 82 -82 102v-202c48 9 82 38 82 100zM179 551c0 -42 18 -78 78 -95v181c-50 -7 -78 -39 -78 -86z" />
    <glyph glyph-name="percent" unicode="%" horiz-adv-x="1048" 
d="M419 458c0 -156 -93 -217 -198 -217c-120 0 -191 63 -191 209c0 154 80 215 200 215c99 0 189 -61 189 -207zM276 460c0 118 -21 154 -56 154c-31 0 -55 -35 -55 -158c0 -118 13 -169 57 -169c35 0 54 41 54 173zM792 730l-487 -853h-76l487 853h76zM1018 208
c0 -156 -93 -217 -198 -217c-120 0 -191 63 -191 209c0 154 80 215 200 215c99 0 189 -61 189 -207zM875 210c0 118 -21 154 -56 154c-31 0 -55 -35 -55 -158c0 -118 13 -169 57 -169c35 0 54 41 54 173z" />
    <glyph glyph-name="ampersand" unicode="&#x26;" horiz-adv-x="725" 
d="M518 548c0 -81 -70 -132 -151 -167l163 -176c7 22 18 40 18 83c0 36 -17 44 -70 49v46h223v-46c-46 -2 -63 -10 -71 -51c-12 -62 -29 -97 -52 -134l57 -61c32 -34 47 -42 90 -42v-49h-232l-39 40c-52 -32 -101 -53 -203 -53c-129 0 -236 50 -236 172c0 94 63 151 161 179
l-35 35c-43 43 -73 92 -73 152c0 99 85 176 233 176c131 0 217 -49 217 -153zM323 59c35 0 67 9 92 25l-195 206c-22 -28 -33 -62 -33 -108c0 -78 59 -123 136 -123zM233 563c0 -38 28 -72 84 -128l12 -12c38 37 52 73 52 132c0 48 -27 79 -77 79c-42 0 -71 -22 -71 -71z
" />
    <glyph glyph-name="quotesingle" unicode="'" horiz-adv-x="275" 
d="M190 453h-105v256h105v-256z" />
    <glyph glyph-name="parenleft" unicode="(" horiz-adv-x="345" 
d="M195 314c0 -180 17 -338 130 -411l-27 -50c-205 67 -268 198 -268 461s63 394 268 461l27 -50c-113 -73 -130 -231 -130 -411z" />
    <glyph glyph-name="parenright" unicode=")" horiz-adv-x="345" 
d="M150 314c0 180 -17 338 -130 411l27 50c205 -67 268 -198 268 -461s-63 -394 -268 -461l-27 50c113 73 130 231 130 411z" />
    <glyph glyph-name="asterisk" unicode="*" horiz-adv-x="461" 
d="M421 564l-110 -66l53 -123l-37 -29l-98 94l-95 -91l-36 27l51 122l-109 68l13 41l129 -13l28 125h42l28 -125l127 12z" />
    <glyph glyph-name="plus" unicode="+" horiz-adv-x="577" 
d="M246 507h84v-197h192v-78h-192v-200h-84v200h-191v78h191v197z" />
    <glyph glyph-name="comma" unicode="," horiz-adv-x="288" 
d="M243 51c0 -109 -64 -178 -194 -202l-34 44c74 20 111 42 111 77c0 25 -10 33 -37 44c-25 11 -52 30 -52 74c0 48 39 88 96 88c64 0 110 -53 110 -125z" />
    <glyph glyph-name="hyphen" unicode="-" horiz-adv-x="363" 
d="M318 217h-273v133h273v-133z" />
    <glyph glyph-name="period" unicode="." horiz-adv-x="295" 
d="M250 90c0 -57 -47 -103 -103 -103s-102 46 -102 103c0 55 46 101 102 101s103 -46 103 -101z" />
    <glyph glyph-name="slash" unicode="/" horiz-adv-x="433" 
d="M20 -149l260 920h108l-260 -920h-108z" />
    <glyph glyph-name="zero" unicode="0" horiz-adv-x="598" 
d="M558 271c0 -204 -113 -284 -265 -284c-153 0 -253 98 -253 269c0 161 108 273 263 273c131 0 255 -73 255 -258zM366 277c0 142 -23 182 -68 182c-42 0 -68 -38 -68 -211c0 -137 13 -196 70 -196c44 0 66 45 66 225z" />
    <glyph glyph-name="one" unicode="1" horiz-adv-x="425" 
d="M323 516v-385c0 -60 8 -78 87 -81v-50h-356v50c84 4 96 20 96 82v263c-41 -22 -65 -31 -107 -41l-23 55l192 107h111z" />
    <glyph glyph-name="two" unicode="2" horiz-adv-x="492" 
d="M245 529c131 0 209 -54 209 -167c0 -116 -96 -174 -262 -235l-33 -12h313l-17 -115h-440v90l108 79c79 57 130 92 130 170c0 50 -39 82 -90 82c-44 0 -74 -11 -105 -31l-28 64c50 45 117 75 215 75z" />
    <glyph glyph-name="three" unicode="3" horiz-adv-x="484" 
d="M168 429c-52 0 -92 -17 -123 -35l-31 62c58 43 125 73 223 73c120 0 198 -56 198 -164c0 -84 -46 -133 -133 -157c96 -14 152 -85 152 -164c0 -162 -177 -209 -324 -209c-51 0 -91 4 -128 13l-12 65c37 -5 73 -8 106 -8c136 0 172 57 172 135c0 77 -51 123 -121 123
c-16 0 -31 0 -47 -2v79c19 -1 34 -2 58 -2c61 0 97 25 97 101c0 60 -26 90 -87 90z" />
    <glyph glyph-name="four" unicode="4" horiz-adv-x="577" 
d="M319 -179v183h-304v77l227 435h171l-266 -439h172c0 119 10 177 54 253l120 18v-271h84v-73h-84v-164z" />
    <glyph glyph-name="five" unicode="5" horiz-adv-x="492" 
d="M457 70c0 -169 -162 -234 -326 -234c-62 0 -92 6 -128 18l-13 62c40 -10 60 -12 110 -12c70 0 172 27 172 139c0 88 -52 131 -122 131c-36 0 -74 -8 -98 -19l35 361h364l-16 -141h-280l-15 -126c29 9 58 13 93 13c131 0 224 -69 224 -192z" />
    <glyph glyph-name="six" unicode="6" horiz-adv-x="577" 
d="M488 633c-141 -53 -221 -119 -252 -234c28 16 66 27 109 27c115 0 202 -64 202 -210c0 -149 -93 -229 -257 -229c-165 0 -250 99 -250 272c0 258 222 386 428 432zM296 349c-25 0 -50 -4 -72 -13c-4 -32 -6 -54 -6 -84c0 -132 33 -204 89 -204c54 0 71 51 71 148
c0 100 -16 153 -82 153z" />
    <glyph glyph-name="seven" unicode="7" horiz-adv-x="454" 
d="M449 516l-18 -133c-112 -150 -174 -310 -206 -522l-182 -28c48 205 178 392 292 539h-330l17 144h427z" />
    <glyph glyph-name="eight" unicode="8" horiz-adv-x="586" 
d="M35 158c0 79 67 122 140 144c-74 42 -118 88 -118 188c0 144 117 193 235 193c140 0 227 -60 227 -159c0 -77 -47 -110 -124 -136c101 -47 156 -82 156 -198c0 -127 -93 -203 -260 -203c-185 0 -256 62 -256 171zM393 145c0 78 -53 85 -170 134c-28 -36 -39 -69 -39 -119
c0 -77 39 -110 106 -110c65 0 103 33 103 95zM211 529c0 -44 19 -76 121 -116c28 27 42 54 42 111c0 60 -27 96 -81 96c-51 0 -82 -34 -82 -91z" />
    <glyph glyph-name="nine" unicode="9" horiz-adv-x="583" 
d="M46 -138c98 36 175 80 228 138c30 33 53 70 68 114c-27 -14 -65 -24 -105 -24c-115 0 -202 64 -202 210c0 149 93 229 252 229c152 0 256 -93 256 -272c0 -258 -243 -398 -449 -444zM286 167c24 0 51 3 72 11c4 27 7 55 7 86c0 132 -34 204 -90 204
c-54 0 -70 -51 -70 -148c0 -92 15 -153 81 -153z" />
    <glyph glyph-name="colon" unicode=":" horiz-adv-x="315" 
d="M260 373c0 -57 -47 -103 -103 -103s-102 46 -102 103c0 55 46 101 102 101s103 -46 103 -101zM260 90c0 -57 -47 -103 -103 -103s-102 46 -102 103c0 55 46 101 102 101s103 -46 103 -101z" />
    <glyph glyph-name="semicolon" unicode=";" horiz-adv-x="308" 
d="M258 51c0 -109 -64 -178 -194 -202l-34 44c74 20 111 42 111 77c0 25 -10 33 -37 44c-25 11 -52 30 -52 74c0 48 39 88 96 88c64 0 110 -53 110 -125zM251 371c0 -57 -47 -103 -103 -103s-102 46 -102 103c0 55 46 101 102 101s103 -46 103 -101z" />
    <glyph glyph-name="less" unicode="&#x3c;" horiz-adv-x="486" 
d="M431 43l-376 203v85l376 237v-99l-285 -176l285 -156v-94z" />
    <glyph glyph-name="equal" unicode="=" horiz-adv-x="577" 
d="M55 153v79h467v-79h-467zM55 313v79h467v-79h-467z" />
    <glyph glyph-name="greater" unicode="&#x3e;" horiz-adv-x="486" 
d="M431 246l-376 -203v94l285 156l-285 176v99l376 -237v-85z" />
    <glyph glyph-name="question" unicode="?" horiz-adv-x="479" 
d="M322 90c0 -57 -47 -103 -103 -103s-102 46 -102 103c0 55 46 101 102 101s103 -46 103 -101zM220 628c-44 0 -74 -31 -76 -96h-114v126c53 33 137 51 203 51c124 0 221 -50 221 -162c0 -91 -65 -136 -113 -168c-63 -42 -88 -60 -88 -110c0 -8 1 -30 3 -44h-75
c-15 15 -36 51 -36 95c0 45 27 83 73 125c36 33 63 63 63 118c0 38 -22 65 -61 65z" />
    <glyph glyph-name="at" unicode="@" horiz-adv-x="908" 
d="M595 11c-100 0 -136 29 -136 83c-34 -54 -71 -87 -141 -87c-66 0 -105 42 -105 121c0 159 119 322 297 322c57 0 127 -7 163 -25c-9 -25 -21 -61 -27 -90l-45 -212c-2 -10 -3 -18 -3 -25c0 -23 13 -33 46 -33c72 0 128 70 128 226c0 198 -117 286 -293 286
c-203 0 -346 -144 -346 -384c0 -190 114 -320 304 -320c71 0 119 10 161 24l15 -38c-53 -21 -109 -35 -188 -35c-219 0 -385 127 -385 370c0 254 191 431 441 431c234 0 387 -137 387 -340c0 -196 -130 -274 -273 -274zM473 178l49 204c-11 8 -20 9 -32 9
c-77 0 -135 -148 -135 -253c0 -36 9 -44 27 -44c27 0 59 36 91 84z" />
    <glyph glyph-name="A" unicode="A" horiz-adv-x="677" 
d="M425 98l-25 77h-207l-21 -77c-3 -9 -4 -16 -4 -21c0 -22 19 -24 61 -26v-51h-224v51c40 5 54 12 69 58l190 588h142l206 -588c15 -42 24 -53 60 -58v-51h-300v51c44 2 58 9 58 25c0 6 -2 13 -5 22zM267 435l-50 -175h155l-58 178c-13 42 -17 64 -20 80h-6
c-2 -12 -6 -34 -21 -83z" />
    <glyph glyph-name="B" unicode="B" horiz-adv-x="646" 
d="M25 0v50c47 0 64 13 64 70v454c0 57 -17 70 -64 70v53h350c128 0 232 -58 232 -189c0 -104 -68 -144 -157 -156v-4c125 -12 181 -71 181 -171c0 -111 -62 -177 -235 -177h-371zM272 74h59c73 0 108 22 108 118c0 85 -32 119 -101 119h-66v-237zM272 388h44
c70 0 96 19 96 115c0 85 -29 114 -100 114h-40v-229z" />
    <glyph glyph-name="C" unicode="C" horiz-adv-x="638" 
d="M360 -13c-202 0 -320 122 -320 350c0 264 136 372 334 372c94 0 168 -18 221 -51v-146h-124c-15 76 -35 116 -99 116c-85 0 -128 -57 -128 -283c0 -242 53 -280 124 -280c79 0 101 40 113 123h119v-143c-43 -33 -140 -58 -240 -58z" />
    <glyph glyph-name="D" unicode="D" horiz-adv-x="700" 
d="M25 0v50c47 0 64 13 64 70v454c0 57 -17 70 -64 70v53h306c204 0 329 -96 329 -353c0 -233 -119 -344 -334 -344h-301zM272 74h33c115 0 159 41 159 265c0 230 -43 278 -155 278h-37v-543z" />
    <glyph glyph-name="E" unicode="E" horiz-adv-x="605" 
d="M25 0v50c47 0 64 13 64 70v454c0 57 -17 70 -64 70v53h514l12 -177h-88c-22 76 -31 97 -107 97h-84v-230h48c62 0 77 14 81 71h77v-218h-77c-4 54 -18 71 -80 71h-49v-237h105c62 0 89 23 97 116h89v-190h-538z" />
    <glyph glyph-name="F" unicode="F" horiz-adv-x="588" 
d="M25 0v50c47 0 64 13 64 70v454c0 57 -17 70 -64 70v53h514l12 -177h-88c-22 76 -31 97 -107 97h-84v-230h48c62 0 77 14 81 71h77v-218h-77c-4 54 -18 71 -80 71h-49v-191c0 -57 17 -70 84 -70v-50h-331z" />
    <glyph glyph-name="G" unicode="G" horiz-adv-x="717" 
d="M449 82v149c0 57 -15 70 -76 70v53h324v-53c-48 0 -66 -13 -66 -70v-173c-61 -50 -170 -71 -263 -71c-207 0 -328 122 -328 350c0 264 139 372 342 372c96 0 172 -18 226 -51v-146h-127c-15 76 -36 116 -101 116c-87 0 -135 -57 -135 -283c0 -242 55 -281 128 -281
c39 0 60 6 76 18z" />
    <glyph glyph-name="H" unicode="H" horiz-adv-x="762" 
d="M490 120v190h-218v-190c0 -57 17 -70 64 -70v-50h-311v50c47 0 64 13 64 70v454c0 57 -17 70 -64 70v53h311v-53c-47 0 -64 -13 -64 -70v-179h218v179c0 57 -17 70 -64 70v53h311v-53c-47 0 -64 -13 -64 -70v-454c0 -57 17 -70 64 -70v-50h-311v50c47 0 64 13 64 70z" />
    <glyph glyph-name="I" unicode="I" horiz-adv-x="361" 
d="M89 120v454c0 57 -17 70 -64 70v53h311v-53c-47 0 -64 -13 -64 -70v-454c0 -57 17 -70 64 -70v-50h-311v50c47 0 64 13 64 70z" />
    <glyph glyph-name="J" unicode="J" horiz-adv-x="361" 
d="M89 100v474c0 57 -17 70 -64 70v53h311v-53c-47 0 -64 -13 -64 -70v-467c0 -164 -106 -229 -277 -254l-26 49c105 48 120 87 120 198z" />
    <glyph glyph-name="K" unicode="K" horiz-adv-x="711" 
d="M89 120v454c0 57 -17 70 -64 70v53h311v-53c-47 0 -64 -13 -64 -70v-454c0 -57 17 -70 64 -70v-50h-311v50c47 0 64 13 64 70zM583 588l-137 -175l169 -314c21 -39 42 -46 81 -49v-50h-230l-178 340l192 259c5 7 8 15 8 21c0 14 -12 26 -38 26v51h229v-51
c-40 -5 -66 -20 -96 -58z" />
    <glyph glyph-name="L" unicode="L" horiz-adv-x="570" 
d="M272 574v-500h72c62 0 100 29 118 128h91l-14 -202h-514v50c47 0 64 13 64 70v454c0 57 -17 70 -64 70v53h311v-53c-47 0 -64 -13 -64 -70z" />
    <glyph glyph-name="M" unicode="M" horiz-adv-x="912" 
d="M852 697v-52c-69 -4 -74 -23 -69 -76l40 -443c5 -56 13 -75 69 -77v-49h-314v49c63 2 68 16 63 72l-26 305c-2 26 -3 77 -3 104v22h-4c-3 -17 -14 -77 -25 -117l-113 -435h-107l-124 407c-16 52 -27 120 -32 146h-4c-1 -30 -3 -100 -6 -140l-18 -291c-3 -57 7 -73 61 -73
v-49h-220v49c56 2 66 19 70 79l30 441c3 49 4 73 -69 76v52h286l92 -304c14 -47 25 -119 28 -143h4c4 23 14 88 28 143l78 304h285z" />
    <glyph glyph-name="N" unicode="N" horiz-adv-x="712" 
d="M541 401v173c0 57 -17 70 -64 70v53h220v-53c-47 0 -64 -13 -64 -70v-574h-130l-242 368c-44 67 -72 120 -83 140h-3c2 -21 8 -90 8 -140v-248c0 -57 17 -70 64 -70v-50h-222v50c47 0 64 13 64 70v454c0 57 -17 70 -64 70v53h260l194 -296c32 -49 54 -97 66 -125h4
c-2 20 -8 81 -8 125z" />
    <glyph glyph-name="O" unicode="O" horiz-adv-x="720" 
d="M360 -12c-202 0 -320 121 -320 349c0 264 136 372 320 372s320 -108 320 -372c0 -228 -118 -349 -320 -349zM360 628c-78 0 -116 -57 -116 -283c0 -242 45 -284 116 -284s116 42 116 287c0 223 -38 280 -116 280z" />
    <glyph glyph-name="P" unicode="P" horiz-adv-x="617" 
d="M272 258v-138c0 -57 17 -70 84 -70v-50h-331v50c47 0 64 13 64 70v454c0 57 -17 70 -64 70v53h347c141 0 245 -58 245 -217c0 -103 -45 -222 -253 -222h-92zM422 481c0 101 -29 136 -100 136h-50v-274h54c70 0 96 28 96 138z" />
    <glyph glyph-name="Q" unicode="Q" horiz-adv-x="720" 
d="M615 -148c-139 0 -200 125 -311 140c-159 21 -264 126 -264 345c0 264 136 372 320 372s320 -108 320 -372c0 -168 -78 -295 -191 -318c42 -8 118 -30 157 -30c25 0 45 3 65 8l-27 -128c-17 -12 -34 -17 -69 -17zM360 628c-78 0 -116 -57 -116 -283
c0 -242 45 -284 116 -284s116 42 116 287c0 223 -38 280 -116 280z" />
    <glyph glyph-name="R" unicode="R" horiz-adv-x="684" 
d="M430 306v-4c49 -13 92 -42 113 -73c26 -38 36 -58 65 -121c17 -38 25 -56 71 -58v-50h-225c-43 110 -46 118 -84 193c-34 65 -51 78 -98 85v-158c0 -57 17 -70 64 -70v-50h-311v50c47 0 64 13 64 70v454c0 57 -17 70 -64 70v53h347c141 0 245 -58 245 -206
c0 -126 -84 -176 -187 -185zM422 491c0 91 -29 126 -96 126h-54v-255h54c70 0 96 24 96 129z" />
    <glyph glyph-name="S" unicode="S" horiz-adv-x="556" 
d="M254 -14c-120 0 -181 29 -229 57v137h119c9 -94 52 -130 116 -130c62 0 106 27 106 103c0 53 -23 86 -97 105l-72 19c-107 27 -171 80 -171 208c0 153 100 224 249 224c111 0 181 -32 213 -48v-150h-118c-8 77 -32 128 -107 128c-60 0 -86 -35 -86 -88
c0 -45 19 -79 86 -95l68 -16c117 -28 195 -93 195 -225c0 -149 -98 -229 -272 -229z" />
    <glyph glyph-name="T" unicode="T" horiz-adv-x="633" 
d="M27 697h579l12 -197h-87c-22 86 -28 117 -94 117h-29v-497c0 -57 17 -70 74 -70v-50h-331v50c57 0 74 13 74 70v497h-29c-66 0 -72 -31 -94 -117h-87z" />
    <glyph glyph-name="U" unicode="U" horiz-adv-x="693" 
d="M519 228v346c0 57 -17 70 -64 70v53h217v-53c-47 0 -64 -13 -64 -70v-348c0 -145 -71 -239 -261 -239c-183 0 -262 66 -262 236v351c0 57 -17 70 -64 70v53h311v-53c-47 0 -64 -13 -64 -70v-357c0 -107 42 -139 119 -139c78 0 132 35 132 150z" />
    <glyph glyph-name="V" unicode="V" horiz-adv-x="717" 
d="M431 0h-144l-208 591c-16 47 -27 50 -59 55v51h307v-51c-39 0 -54 -15 -54 -36c0 -5 2 -13 4 -20l102 -331c12 -40 19 -86 20 -100h6c1 17 8 61 21 103l99 328c2 6 3 12 3 18c0 23 -17 38 -57 38v51h226v-51c-40 -5 -54 -12 -69 -58z" />
    <glyph glyph-name="W" unicode="W" horiz-adv-x="979" 
d="M587 0l-73 281c-16 61 -25 140 -27 160h-5c-3 -20 -10 -87 -29 -161l-70 -280h-170l-136 585c-11 47 -26 56 -60 61v51h300v-51c-37 0 -53 -14 -53 -39c0 -4 0 -8 1 -13l57 -287c13 -65 16 -139 16 -156h5c2 15 8 75 27 156l93 390h118l100 -387c21 -81 29 -135 31 -158
h6c1 19 4 77 20 157l57 284c1 5 2 11 2 16c0 29 -23 37 -57 37v51h222v-51c-38 -5 -56 -11 -67 -58l-138 -588h-170z" />
    <glyph glyph-name="X" unicode="X" horiz-adv-x="713" 
d="M593 588l-147 -208l174 -271c26 -40 37 -53 73 -58v-51h-329v51c34 0 52 15 52 33c0 7 -2 13 -7 21l-100 164h-6l-101 -166c-4 -6 -6 -13 -6 -19c0 -18 18 -32 50 -33v-51h-226v51c38 5 58 17 84 58l150 234l-155 245c-26 41 -33 53 -65 58v51h316v-51
c-34 0 -52 -14 -52 -33c0 -6 2 -14 6 -21l87 -144h6l91 142c5 9 8 17 8 24c0 19 -19 32 -50 32v51h224v-51c-38 -5 -50 -19 -77 -58z" />
    <glyph glyph-name="Y" unicode="Y" horiz-adv-x="680" 
d="M384 366h6l93 220c5 12 8 22 8 31c0 19 -14 29 -47 29v51h219v-51c-40 -5 -53 -14 -74 -58l-157 -327v-141c0 -57 17 -70 74 -70v-50h-331v50c57 0 74 13 74 70v140l-164 328c-22 44 -34 53 -68 58v51h305v-51c-32 0 -47 -13 -47 -33c0 -8 2 -17 7 -27z" />
    <glyph glyph-name="Z" unicode="Z" horiz-adv-x="587" 
d="M550 641l-318 -567h111c77 0 101 33 121 123h88l-10 -197h-515v56l321 569h-99c-67 0 -85 -35 -105 -113h-92l8 185h490v-56z" />
    <glyph glyph-name="bracketleft" unicode="[" horiz-adv-x="385" 
d="M355 -155h-265v928h265v-62h-106v-804h106v-62z" />
    <glyph glyph-name="backslash" unicode="\" horiz-adv-x="433" 
d="M153 771l260 -920h-108l-260 920h108z" />
    <glyph glyph-name="bracketright" unicode="]" horiz-adv-x="385" 
d="M295 -155h-265v62h106v804h-106v62h265v-928z" />
    <glyph glyph-name="asciicircum" unicode="^" horiz-adv-x="604" 
d="M539 310h-115l-124 276l-121 -276h-114l183 398h108z" />
    <glyph glyph-name="underscore" unicode="_" horiz-adv-x="496" 
d="M498 -125h-500v83h500v-83z" />
    <glyph glyph-name="grave" unicode="`" horiz-adv-x="440" 
d="M360 590l-28 -36l-252 97l88 139z" />
    <glyph glyph-name="a" unicode="a" horiz-adv-x="552" 
d="M483 158c0 -75 12 -87 59 -87v-48c-23 -15 -64 -29 -116 -29c-58 0 -98 27 -108 69c-16 -38 -59 -76 -139 -76c-87 0 -159 42 -159 149c0 118 82 170 239 170c12 0 41 -1 54 -2v47c0 72 -19 104 -64 104c-46 0 -58 -36 -65 -92h-129v108c57 34 141 58 227 58
c117 0 205 -51 205 -168c0 -30 -4 -112 -4 -203zM311 244h-35c-49 0 -79 -29 -79 -84c0 -50 19 -66 49 -66c17 0 46 6 62 23z" />
    <glyph glyph-name="b" unicode="b" horiz-adv-x="617" 
d="M399 243c0 136 -34 172 -85 172c-28 0 -54 -8 -77 -30v-273c19 -22 43 -28 71 -28c53 0 91 26 91 159zM196 57c-5 -20 -16 -46 -30 -57h-115c9 24 13 52 13 117v459c0 73 -13 83 -59 85v49l196 26h15c10 -13 21 -43 21 -100v-187c20 47 68 80 143 80
c123 0 202 -85 202 -268c0 -201 -106 -274 -243 -274c-77 0 -124 29 -143 70z" />
    <glyph glyph-name="c" unicode="c" horiz-adv-x="503" 
d="M473 488v-117h-129c-1 63 -5 89 -40 89c-34 0 -92 -32 -92 -187c0 -145 66 -190 133 -190c41 0 71 7 112 28l27 -43c-47 -56 -120 -81 -197 -81c-139 0 -252 85 -252 263c0 182 125 279 268 279c80 0 131 -15 170 -41z" />
    <glyph glyph-name="d" unicode="d" horiz-adv-x="630" 
d="M394 65c-23 -45 -82 -78 -157 -78c-123 0 -202 85 -202 268c0 201 106 274 238 274c50 0 93 -17 112 -45v92c0 73 -13 83 -59 85v49l204 26h28v-582c0 -73 9 -81 57 -85v-46l-177 -36h-15c-10 12 -26 39 -29 78zM223 266c0 -136 34 -172 85 -172c28 0 54 8 77 30v281
c-19 22 -43 28 -71 28c-53 0 -91 -34 -91 -167z" />
    <glyph glyph-name="e" unicode="e" horiz-adv-x="549" 
d="M351 85c42 0 87 9 133 31l26 -44c-57 -59 -126 -85 -222 -85c-161 0 -253 99 -253 272c0 171 100 270 254 270c170 0 230 -96 230 -250v-49h-297c4 -100 37 -145 129 -145zM291 460c-43 0 -61 -35 -68 -154h126c0 120 -15 154 -58 154z" />
    <glyph glyph-name="f" unicode="f" horiz-adv-x="364" 
d="M258 432v-312c0 -57 12 -70 77 -70v-50h-307v50c47 0 57 13 57 70v312h-60v59l60 25v65c0 112 78 165 201 165c42 0 114 -8 148 -24v-115h-97c0 51 -14 64 -38 64c-30 0 -42 -21 -42 -59v-96h121l-17 -84h-103z" />
    <glyph glyph-name="g" unicode="g" horiz-adv-x="559" 
d="M258 -202c-143 0 -248 29 -248 103c0 32 23 59 52 70h124c-10 -18 -13 -28 -13 -46c0 -45 28 -60 93 -60c78 0 107 23 107 70c0 45 -32 58 -119 62c-44 2 -107 5 -129 8c-56 7 -78 44 -78 91c0 54 44 97 118 114c-86 17 -136 68 -136 149c0 112 90 170 226 170
c51 0 85 -12 115 -19c23 -5 25 -7 50 -7c37 0 82 29 110 56l59 -108c-28 -21 -56 -33 -87 -33c-24 0 -43 3 -65 11c24 -15 40 -41 40 -81c0 -70 -38 -151 -238 -151h-7c-15 -9 -24 -17 -24 -30c0 -12 6 -21 24 -22l98 -6c133 -8 199 -44 199 -152
c0 -139 -113 -189 -271 -189zM255 262c39 0 57 27 57 95c0 80 -17 104 -57 104c-37 0 -56 -26 -56 -101c0 -70 20 -98 56 -98z" />
    <glyph glyph-name="h" unicode="h" horiz-adv-x="635" 
d="M247 636v-192c44 50 93 85 172 85c83 0 149 -49 149 -159v-250c0 -57 10 -70 57 -70v-50h-287v50c47 0 57 13 57 70v208c0 61 -24 81 -63 81c-38 0 -65 -15 -85 -27v-262c0 -57 10 -70 57 -70v-50h-287v50c47 0 57 13 57 70v456c0 73 -13 83 -59 85v49l196 26h15
c11 -15 21 -45 21 -100z" />
    <glyph glyph-name="i" unicode="i" horiz-adv-x="327" 
d="M312 0h-287v50c47 0 57 13 57 70v235c0 73 -9 83 -55 85v49l203 33h25v-402c0 -57 10 -70 57 -70v-50zM263 652c0 -54 -45 -98 -101 -98c-54 0 -99 44 -99 98s46 98 102 98c55 0 98 -44 98 -98z" />
    <glyph glyph-name="j" unicode="j" horiz-adv-x="321" 
d="M80 18v337c0 73 -9 83 -55 85v49l203 33h25v-504c0 -149 -129 -209 -224 -224l-29 46c61 28 80 75 80 178zM261 652c0 -54 -45 -98 -101 -98c-54 0 -99 44 -99 98s46 98 102 98c55 0 98 -44 98 -98z" />
    <glyph glyph-name="k" unicode="k" horiz-adv-x="612" 
d="M17 0v50c47 0 57 13 57 70v456c0 73 -13 83 -59 85v49l196 26h15c4 -5 21 -31 21 -100v-516c0 -57 10 -70 57 -70v-50h-287zM398 0l-143 259l125 142c31 35 16 64 -32 64v51h245v-51c-40 -5 -65 -19 -99 -56l-88 -95l126 -212c27 -45 47 -48 80 -52v-50h-214z" />
    <glyph glyph-name="l" unicode="l" horiz-adv-x="319" 
d="M247 636v-516c0 -57 10 -70 57 -70v-50h-287v50c47 0 57 13 57 70v456c0 73 -13 83 -59 85v49l196 26h15c4 -5 21 -31 21 -100z" />
    <glyph glyph-name="m" unicode="m" horiz-adv-x="944" 
d="M553 436c43 58 101 93 175 93c83 0 149 -49 149 -159v-251c0 -57 10 -70 57 -70v-49h-282v49c47 0 52 13 52 70v209c0 61 -24 81 -59 81s-59 -15 -79 -27v-263c0 -57 5 -70 52 -70v-49h-277v49c47 0 52 13 52 70v209c0 61 -24 81 -59 81s-59 -15 -79 -27v-263
c0 -57 5 -70 52 -70v-49h-282v49c47 0 57 13 57 70v236c0 73 -9 83 -55 85v49l176 40h15c5 -8 27 -44 31 -88c42 55 94 88 168 88c61 0 113 -36 136 -93z" />
    <glyph glyph-name="n" unicode="n" horiz-adv-x="643" 
d="M576 370v-250c0 -57 10 -70 57 -70v-50h-287v50c47 0 57 13 57 70v208c0 61 -24 81 -63 81c-38 0 -65 -15 -85 -27v-262c0 -57 10 -70 57 -70v-50h-287v50c47 0 57 13 57 70v235c0 73 -9 83 -55 85v49l176 40h15c6 -8 29 -49 33 -91c43 50 97 91 176 91
c83 0 149 -49 149 -159z" />
    <glyph glyph-name="o" unicode="o" horiz-adv-x="598" 
d="M563 271c0 -204 -127 -284 -268 -284c-167 0 -260 98 -260 269c0 161 101 273 271 273c145 0 257 -73 257 -258zM373 278c0 141 -25 181 -74 181c-47 0 -74 -38 -74 -210c0 -136 14 -195 76 -195c48 0 72 59 72 224z" />
    <glyph glyph-name="p" unicode="p" horiz-adv-x="635" 
d="M417 243c0 136 -34 172 -85 172c-28 0 -54 -8 -77 -30v-281c19 -22 43 -28 71 -28c53 0 91 34 91 167zM249 444c23 45 74 85 149 85c123 0 202 -85 202 -268c0 -201 -106 -274 -243 -274c-40 0 -78 10 -102 40v-103c0 -57 10 -70 57 -70v-50h-287v50c47 0 57 13 57 70
v431c0 73 -9 83 -55 85v49l176 40h15c5 -7 27 -43 31 -85z" />
    <glyph glyph-name="q" unicode="q" horiz-adv-x="620" 
d="M223 266c0 -136 34 -172 85 -172c28 0 54 8 77 30v281c-19 22 -43 28 -71 28c-53 0 -91 -34 -91 -167zM414 476c8 28 24 45 42 53h114c-7 -26 -12 -80 -12 -140v-465c0 -57 10 -70 57 -70v-50h-287v50c47 0 57 13 57 70v141c-23 -45 -73 -78 -148 -78
c-123 0 -202 85 -202 268c0 201 117 274 249 274c62 0 105 -20 130 -53z" />
    <glyph glyph-name="r" unicode="r" horiz-adv-x="432" 
d="M254 396c20 93 92 133 147 133c17 0 33 -4 41 -7l-31 -173c-22 6 -37 9 -65 9c-73 0 -91 -21 -91 -91v-147c0 -57 12 -70 77 -70v-50h-307v50c47 0 57 13 57 70v235c0 73 -9 83 -55 85v49l176 40h15c7 -11 33 -62 36 -133z" />
    <glyph glyph-name="s" unicode="s" horiz-adv-x="482" 
d="M225 -13c-112 0 -165 28 -195 43v113h112c8 -71 48 -88 96 -88c45 0 75 17 75 53s-21 52 -63 61l-85 18c-87 18 -134 73 -134 162c0 122 96 180 212 180c94 0 154 -24 182 -36v-113h-104c-7 58 -43 76 -92 76c-40 0 -64 -16 -64 -51c0 -29 18 -43 50 -50l79 -17
c101 -23 163 -81 163 -179c0 -112 -83 -172 -232 -172z" />
    <glyph glyph-name="t" unicode="t" horiz-adv-x="373" 
d="M363 516l-17 -84h-103v-255c0 -72 4 -104 54 -104c19 0 34 4 57 13l19 -59c-41 -26 -89 -40 -152 -40c-98 0 -151 34 -151 148v297h-60v59l67 28c5 45 20 92 46 130l128 13c-5 -36 -9 -95 -9 -146h121z" />
    <glyph glyph-name="u" unicode="u" horiz-adv-x="619" 
d="M547 522v-368c0 -73 9 -81 57 -85v-46l-177 -36h-15c-5 6 -25 32 -29 78c-36 -49 -92 -78 -169 -78c-88 0 -144 43 -144 145v223c0 73 -9 83 -55 85v49l203 33h25v-347c0 -51 14 -81 60 -81c23 0 45 6 71 26v235c0 73 -9 83 -55 85v49l203 33h25z" />
    <glyph glyph-name="v" unicode="v" horiz-adv-x="572" 
d="M355 -5h-135l-160 412c-18 46 -26 53 -60 58v51h292v-51c-39 0 -54 -14 -54 -35c0 -7 2 -15 5 -23l63 -186c13 -40 17 -64 18 -74h6c1 7 8 40 19 74l57 185c3 9 4 16 4 23c0 25 -19 36 -57 36v51h219v-51c-40 -5 -52 -12 -69 -58z" />
    <glyph glyph-name="w" unicode="w" horiz-adv-x="842" 
d="M394 225l-65 -230h-146l-120 402c-16 55 -27 63 -63 68v51h288v-51c-39 0 -54 -15 -54 -38c0 -6 1 -13 3 -20l44 -179c9 -37 12 -72 13 -80h6c0 6 3 44 12 80l72 288h127l92 -289c11 -33 15 -69 16 -79h6c0 4 5 49 10 73l42 187c1 5 2 12 2 21c0 27 -18 36 -56 36v51h219
v-51c-42 -5 -57 -14 -70 -62l-111 -408h-146l-80 229c-12 35 -17 93 -17 99h-6c-1 -11 -7 -59 -18 -98z" />
    <glyph glyph-name="x" unicode="x" horiz-adv-x="577" 
d="M250 193l-63 -89c-7 -10 -10 -19 -10 -27c0 -16 12 -27 40 -27v-50h-202v50c39 4 50 19 76 54l115 153l-111 153c-32 44 -37 50 -69 55v51h281v-51c-20 0 -31 -8 -31 -22c0 -8 4 -17 11 -28l48 -70h4l49 70c5 7 8 15 8 25c0 15 -11 25 -34 25v51h202v-51
c-41 -5 -54 -21 -82 -58l-100 -132l111 -159c36 -50 44 -62 84 -66v-50h-282v50c18 0 33 9 33 25c0 7 -3 16 -10 26l-64 92h-4z" />
    <glyph glyph-name="y" unicode="y" horiz-adv-x="572" 
d="M117 -205l-61 108c92 14 173 39 209 107l-66 -5c-13 52 -25 88 -62 190l-76 209c-17 46 -25 56 -61 61v51h292v-51c-44 -2 -58 -9 -58 -25c0 -6 2 -13 5 -22l68 -218c10 -31 13 -60 14 -66h6c1 7 8 40 17 68l66 216c3 9 4 16 4 22c0 20 -18 23 -61 25v51h219v-51
c-40 -5 -52 -12 -69 -58l-148 -396c-43 -117 -111 -200 -238 -216z" />
    <glyph glyph-name="z" unicode="z" horiz-adv-x="517" 
d="M497 153l-18 -153h-437v65l249 383h-75c-68 0 -83 -16 -94 -91h-67v159h437v-59l-255 -390h67c80 0 99 2 128 86h65z" />
    <glyph glyph-name="braceleft" unicode="{" horiz-adv-x="406" 
d="M281 614v-167c0 -106 -67 -131 -97 -136v-4c30 -5 97 -30 97 -134v-169c0 -54 12 -104 80 -104h20v-55h-101c-111 0 -149 63 -149 149v196c0 67 -36 91 -106 91v55c70 0 106 24 106 91v197c0 86 38 149 149 149h101v-55h-20c-68 0 -80 -50 -80 -104z" />
    <glyph glyph-name="bar" unicode="|" horiz-adv-x="279" 
d="M189 -149h-99v920h99v-920z" />
    <glyph glyph-name="braceright" unicode="}" horiz-adv-x="406" 
d="M125 447v167c0 54 -12 104 -80 104h-20v55h101c111 0 149 -63 149 -149v-197c0 -67 36 -91 106 -91v-55c-70 0 -106 -24 -106 -91v-196c0 -86 -38 -149 -149 -149h-101v55h20c68 0 80 50 80 104v169c0 104 67 129 97 134v4c-30 5 -97 30 -97 136z" />
    <glyph glyph-name="asciitilde" unicode="~" horiz-adv-x="587" 
d="M384 352c29 0 67 9 85 47l38 -17c-18 -79 -72 -150 -129 -150c-58 0 -135 29 -179 29c-31 0 -64 -12 -83 -49l-36 16c10 79 66 156 125 156c58 0 129 -32 179 -32z" />
    <glyph glyph-name="uni00A0" unicode="&#xa0;" horiz-adv-x="225" 
 />
    <glyph glyph-name="exclamdown" unicode="&#xa1;" horiz-adv-x="325" 
d="M55 -188l52 476h110l53 -459zM60 426c0 57 47 103 103 103s102 -46 102 -103c0 -55 -46 -101 -102 -101s-103 46 -103 101z" />
    <glyph glyph-name="cent" unicode="&#xa2;" horiz-adv-x="544" 
d="M337 -101h-59v88c-135 4 -243 89 -243 263c0 171 110 267 243 278v80h59v-80c68 -4 132 -18 166 -40v-118h-113c-1 51 -23 81 -53 91v-387c48 1 97 12 150 48l27 -38c-38 -50 -89 -85 -177 -94v-91zM203 273c0 -117 32 -169 75 -189v374c-45 -14 -75 -62 -75 -185z" />
    <glyph glyph-name="sterling" unicode="&#xa3;" horiz-adv-x="634" 
d="M293 74h82c62 0 100 29 118 128h91l-14 -202h-544v50c57 0 84 13 84 70v190h-80v66h80v92c0 155 130 215 253 215c85 0 158 -24 185 -47v-125h-128c-2 71 -17 102 -58 102c-54 0 -69 -43 -69 -110v-127h191v-66h-191v-236z" />
    <glyph glyph-name="currency" unicode="&#xa4;" horiz-adv-x="484" 
d="M242 102c-26 0 -51 3 -73 11l-52 -82l-59 39l50 77c-36 32 -58 80 -58 141c0 60 21 108 57 141l-49 75l59 40l51 -79c22 8 47 12 74 12c25 0 49 -4 70 -11l50 78l60 -40l-47 -73c37 -33 59 -81 59 -143c0 -63 -23 -111 -61 -143l49 -75l-60 -39l-52 80
c-21 -6 -44 -9 -68 -9zM241 407c-62 0 -80 -44 -80 -113c0 -84 20 -125 80 -125s80 41 80 125c0 69 -18 113 -80 113z" />
    <glyph glyph-name="yen" unicode="&#xa5;" horiz-adv-x="670" 
d="M597 187h-170v-67c0 -57 17 -70 74 -70v-50h-331v50c57 0 74 13 74 70v67h-172v61h172v12l-26 52h-146v61h115l-107 215c-22 44 -34 53 -68 58v51h305v-51c-32 0 -47 -13 -47 -33c0 -8 2 -17 7 -27l102 -220h6l93 220c5 12 8 22 8 31c0 19 -14 29 -47 29v51h219v-51
c-40 -5 -53 -14 -74 -58l-103 -215h116v-61h-146l-24 -51v-13h170v-61z" />
    <glyph glyph-name="brokenbar" unicode="&#xa6;" horiz-adv-x="279" 
d="M189 -149h-99v400h99v-400zM189 367h-99v400h99v-400z" />
    <glyph glyph-name="section" unicode="&#xa7;" horiz-adv-x="589" 
d="M549 353c0 -84 -52 -135 -132 -162c56 -31 89 -81 89 -152c0 -112 -83 -172 -232 -172c-112 0 -165 28 -195 43v113h112c8 -71 48 -88 96 -88c45 0 75 17 75 53c0 33 -22 47 -63 61l-125 42c-84 28 -134 73 -134 162c0 93 54 144 132 165c-59 28 -92 73 -92 146
c0 122 96 180 212 180c94 0 154 -24 182 -36v-113h-104c-7 58 -43 76 -92 76c-40 0 -64 -16 -64 -51c0 -29 19 -40 50 -50l122 -38c99 -31 163 -81 163 -179zM352 360l-108 32c-42 -9 -66 -40 -66 -73c0 -29 15 -49 46 -60l106 -37c44 10 75 31 75 73c0 31 -12 52 -53 65z
" />
    <glyph glyph-name="dieresis" unicode="&#xa8;" horiz-adv-x="572" 
d="M263 650c0 -49 -41 -89 -92 -89c-50 0 -91 40 -91 89c0 50 42 90 93 90s90 -40 90 -90zM492 650c0 -49 -41 -89 -92 -89c-50 0 -91 40 -91 89c0 50 42 90 93 90s90 -40 90 -90z" />
    <glyph glyph-name="copyright" unicode="&#xa9;" horiz-adv-x="802" 
d="M344 358c0 -92 10 -156 71 -156c35 0 51 16 57 60h81v-80c-27 -15 -73 -32 -139 -32c-142 0 -211 67 -211 198c0 133 67 203 208 203c66 0 113 -17 139 -32v-80h-86c-4 40 -13 68 -51 68c-62 0 -69 -56 -69 -149zM401 31c168 0 301 122 301 312c0 194 -133 314 -301 314
s-301 -120 -301 -314c0 -190 133 -312 301 -312zM401 -12c-202 0 -356 140 -356 356c0 214 160 357 356 357s356 -143 356 -357c0 -216 -154 -356 -356 -356z" />
    <glyph glyph-name="ordfeminine" unicode="&#xaa;" horiz-adv-x="443" 
d="M380 466c0 -56 9 -65 43 -65v-36c-17 -11 -61 -22 -99 -22c-42 0 -71 20 -79 52c-11 -29 -42 -57 -104 -57c-60 0 -121 31 -121 112c0 88 69 127 172 127c25 0 40 -2 50 -3v37c0 54 -14 78 -47 78s-43 -26 -43 -69h-107v81c42 25 112 43 174 43c85 0 164 -38 164 -126
c0 -22 -3 -84 -3 -152zM240 529c-8 1 -18 2 -25 2c-36 0 -53 -22 -53 -60c0 -32 12 -53 34 -53c17 0 30 5 42 17z" />
    <glyph glyph-name="guillemotleft" unicode="&#xab;" horiz-adv-x="653" 
d="M212 249l113 -179l-58 -50l-227 234l227 235l58 -50zM470 249l113 -179l-58 -50l-227 234l227 235l58 -50z" />
    <glyph glyph-name="logicalnot" unicode="&#xac;" horiz-adv-x="508" 
d="M55 224v81h398v-237h-85v156h-313z" />
    <glyph glyph-name="uni00AD" unicode="&#xad;" horiz-adv-x="363" 
d="M318 217h-273v133h273v-133z" />
    <glyph glyph-name="registered" unicode="&#xae;" horiz-adv-x="802" 
d="M411 193v-37h-187v37c39 0 39 13 39 55v203c0 42 0 55 -39 55v39h186c90 0 150 -24 150 -106c0 -80 -46 -98 -108 -102v-3c27 -4 50 -13 64 -40c10 -17 21 -36 35 -68c13 -29 16 -33 46 -33v-37h-140c-12 36 -28 70 -39 98c-23 59 -27 68 -45 69v-75c0 -42 0 -55 38 -55z
M445 434c0 49 -13 61 -59 61h-13v-131h22c37 0 50 17 50 70zM401 31c168 0 301 122 301 312c0 194 -133 314 -301 314s-301 -120 -301 -314c0 -190 133 -312 301 -312zM401 -12c-202 0 -356 140 -356 356c0 214 160 357 356 357s356 -143 356 -357
c0 -216 -154 -356 -356 -356z" />
    <glyph glyph-name="macron" unicode="&#xaf;" horiz-adv-x="471" 
d="M391 605h-311v87h311v-87z" />
    <glyph glyph-name="degree" unicode="&#xb0;" horiz-adv-x="418" 
d="M373 525c0 -103 -67 -168 -164 -168c-103 0 -164 65 -164 170c0 104 65 169 162 169c105 0 166 -65 166 -171zM286 524c0 75 -25 101 -76 101c-52 0 -76 -31 -76 -92c0 -75 25 -101 77 -101c51 0 75 31 75 92z" />
    <glyph glyph-name="plusminus" unicode="&#xb1;" horiz-adv-x="508" 
d="M213 507h85v-136h155v-81h-155v-145h-85v145h-158v81h158v136zM55 24v81h398v-81h-398z" />
    <glyph glyph-name="twosuperior" unicode="&#xb2;" horiz-adv-x="406" 
d="M192 665c97 0 161 -42 161 -125c0 -96 -68 -136 -178 -181l-39 -16h240l-12 -93h-344v68l65 53c86 71 114 94 114 154c0 38 -30 55 -59 55c-36 0 -64 -10 -86 -25l-25 41c32 35 91 69 163 69z" />
    <glyph glyph-name="threesuperior" unicode="&#xb3;" horiz-adv-x="366" 
d="M124 595c-35 0 -56 -10 -80 -23l-22 40c38 32 87 53 156 53c83 0 144 -34 144 -101c0 -52 -48 -86 -111 -99c77 -3 125 -46 125 -101c0 -98 -120 -134 -228 -134c-36 0 -67 5 -90 11l-8 54c26 -5 48 -8 74 -8c65 0 97 32 97 80c0 43 -22 66 -71 66c-11 0 -16 0 -29 -1v58
c14 -1 20 -1 37 -1c42 0 64 12 64 59c0 32 -27 47 -58 47z" />
    <glyph glyph-name="acute" unicode="&#xb4;" horiz-adv-x="440" 
d="M108 554l-28 36l192 200l88 -139z" />
    <glyph glyph-name="mu" unicode="&#xb5;" horiz-adv-x="622" 
d="M48 -208l-5 34c10 53 14 117 14 188v153c-1 156 -2 227 -4 341l130 21h45v-359c0 -71 31 -80 50 -80c24 0 56 10 81 38v380l129 21h45v-406c0 -40 15 -52 45 -52c12 0 27 1 39 4v-58c-32 -19 -70 -30 -125 -30c-70 0 -102 33 -118 71c-20 -37 -57 -70 -110 -70
c-22 0 -40 3 -53 9l-5 -3c15 -36 22 -60 22 -128v-50z" />
    <glyph glyph-name="paragraph" unicode="&#xb6;" horiz-adv-x="681" 
d="M571 570v-687h-80v747h-80v-747h-80v392h-96c-134 0 -215 60 -215 214c0 143 61 208 216 208h415v-51c-67 -2 -80 -19 -80 -76zM214 488c0 -103 15 -145 81 -145h36v287h-36c-66 0 -81 -25 -81 -142z" />
    <glyph glyph-name="periodcentered" unicode="&#xb7;" horiz-adv-x="305" 
d="M255 283c0 -57 -47 -103 -103 -103s-102 46 -102 103c0 55 46 101 102 101s103 -46 103 -101z" />
    <glyph glyph-name="cedilla" unicode="&#xb8;" horiz-adv-x="288" 
d="M266 -121c0 -62 -44 -85 -126 -85c-50 0 -87 12 -106 25l17 42c22 -14 46 -19 68 -19s34 7 34 25c0 22 -21 30 -55 31l1 21l29 100l53 -6l-16 -55c66 -4 101 -30 101 -79z" />
    <glyph glyph-name="onesuperior" unicode="&#xb9;" horiz-adv-x="365" 
d="M268 657v-286c0 -60 8 -78 77 -81v-40h-297v40c74 4 86 20 86 82v182c-21 -16 -45 -29 -81 -39l-23 43l159 99h79z" />
    <glyph glyph-name="ordmasculine" unicode="&#xba;" horiz-adv-x="460" 
d="M430 551c0 -153 -97 -213 -203 -213c-126 0 -197 73 -197 201c0 121 76 205 206 205c110 0 194 -55 194 -193zM283 556c0 106 -18 136 -52 136c-33 0 -52 -29 -52 -157c0 -102 10 -146 53 -146c34 0 51 44 51 167z" />
    <glyph glyph-name="guillemotright" unicode="&#xbb;" horiz-adv-x="653" 
d="M328 70l113 179l-113 190l58 50l227 -235l-227 -234zM70 70l113 179l-113 190l58 50l227 -235l-227 -234z" />
    <glyph glyph-name="onequarter" unicode="&#xbc;" horiz-adv-x="1001" 
d="M268 657v-286c0 -60 8 -78 77 -81v-40h-297v40c74 4 86 20 86 82v182c-21 -16 -45 -29 -81 -39l-23 43l159 99h79zM778 730l-487 -853h-76l487 853h76zM786 -8v97h-178v61l137 256h111l-160 -255h90c0 69 13 115 44 146l89 11v-157h52v-62h-52v-89z" />
    <glyph glyph-name="onehalf" unicode="&#xbd;" horiz-adv-x="1034" 
d="M268 657v-286c0 -60 8 -78 77 -81v-40h-297v40c74 4 86 20 86 82v182c-21 -16 -45 -29 -81 -39l-23 43l159 99h79zM778 730l-487 -853h-76l487 853h76zM820 415c97 0 161 -42 161 -125c0 -96 -68 -136 -178 -181l-39 -16h240l-12 -93h-344v68l65 53c86 71 114 94 114 154
c0 38 -30 55 -59 55c-36 0 -64 -10 -86 -25l-25 41c32 35 91 69 163 69z" />
    <glyph glyph-name="threequarters" unicode="&#xbe;" horiz-adv-x="972" 
d="M124 595c-35 0 -56 -10 -80 -23l-22 40c38 32 87 53 156 53c83 0 144 -34 144 -101c0 -52 -48 -86 -111 -99c77 -3 125 -46 125 -101c0 -98 -120 -134 -228 -134c-36 0 -67 5 -90 11l-8 54c26 -5 48 -8 74 -8c65 0 97 32 97 80c0 43 -22 66 -71 66c-11 0 -16 0 -29 -1v58
c14 -1 20 -1 37 -1c42 0 64 12 64 59c0 32 -27 47 -58 47zM749 730l-487 -853h-76l487 853h76zM757 -8v97h-178v61l137 256h111l-160 -255h90c0 69 13 115 44 146l89 11v-157h52v-62h-52v-89z" />
    <glyph glyph-name="questiondown" unicode="&#xbf;" horiz-adv-x="479" 
d="M157 426c0 57 47 103 103 103s102 -46 102 -103c0 -55 -46 -101 -102 -101s-103 46 -103 101zM259 -112c44 0 74 31 76 96h114v-126c-53 -33 -137 -51 -203 -51c-124 0 -221 50 -221 162c0 91 65 136 113 168c63 42 88 60 88 110c0 8 -1 30 -3 44h75
c15 -15 36 -51 36 -95c0 -45 -27 -83 -73 -125c-36 -33 -63 -63 -63 -118c0 -38 22 -65 61 -65z" />
    <glyph glyph-name="Agrave" unicode="&#xc0;" horiz-adv-x="677" 
d="M425 98l-25 77h-207l-21 -77c-3 -9 -4 -16 -4 -21c0 -22 19 -24 61 -26v-51h-224v51c40 5 54 12 69 58l190 588h142l206 -588c15 -42 24 -53 60 -58v-51h-300v51c44 2 58 9 58 25c0 6 -2 13 -5 22zM267 435l-50 -175h155l-58 178c-13 42 -17 64 -20 80h-6
c-2 -12 -6 -34 -21 -83zM421 766l-25 -39l-260 73l74 146z" />
    <glyph glyph-name="Aacute" unicode="&#xc1;" horiz-adv-x="677" 
d="M425 98l-25 77h-207l-21 -77c-3 -9 -4 -16 -4 -21c0 -22 19 -24 61 -26v-51h-224v51c40 5 54 12 69 58l190 588h142l206 -588c15 -42 24 -53 60 -58v-51h-300v51c44 2 58 9 58 25c0 6 -2 13 -5 22zM267 435l-50 -175h155l-58 178c-13 42 -17 64 -20 80h-6
c-2 -12 -6 -34 -21 -83zM248 727l-25 39l211 180l74 -146z" />
    <glyph glyph-name="Acircumflex" unicode="&#xc2;" horiz-adv-x="677" 
d="M425 98l-25 77h-207l-21 -77c-3 -9 -4 -16 -4 -21c0 -22 19 -24 61 -26v-51h-224v51c40 5 54 12 69 58l190 588h142l206 -588c15 -42 24 -53 60 -58v-51h-300v51c44 2 58 9 58 25c0 6 -2 13 -5 22zM267 435l-50 -175h155l-58 178c-13 42 -17 64 -20 80h-6
c-2 -12 -6 -34 -21 -83zM495 732l-157 75l-157 -75l-25 40l182 183l182 -183z" />
    <glyph glyph-name="Atilde" unicode="&#xc3;" horiz-adv-x="677" 
d="M425 98l-25 77h-207l-21 -77c-3 -9 -4 -16 -4 -21c0 -22 19 -24 61 -26v-51h-224v51c40 5 54 12 69 58l190 588h142l206 -588c15 -42 24 -53 60 -58v-51h-300v51c44 2 58 9 58 25c0 6 -2 13 -5 22zM267 435l-50 -175h155l-58 178c-13 42 -17 64 -20 80h-6
c-2 -12 -6 -34 -21 -83zM409 873c29 0 57 9 75 47l38 -17c-18 -79 -62 -143 -119 -143c-58 0 -95 32 -139 32c-31 0 -54 -12 -73 -49l-36 16c10 79 56 149 115 149c58 0 89 -35 139 -35z" />
    <glyph glyph-name="Adieresis" unicode="&#xc4;" horiz-adv-x="677" 
d="M425 98l-25 77h-207l-21 -77c-3 -9 -4 -16 -4 -21c0 -22 19 -24 61 -26v-51h-224v51c40 5 54 12 69 58l190 588h142l206 -588c15 -42 24 -53 60 -58v-51h-300v51c44 2 58 9 58 25c0 6 -2 13 -5 22zM267 435l-50 -175h155l-58 178c-13 42 -17 64 -20 80h-6
c-2 -12 -6 -34 -21 -83zM315 830c0 -49 -41 -89 -92 -89c-50 0 -91 40 -91 89c0 50 42 90 93 90s90 -40 90 -90zM544 830c0 -49 -41 -89 -92 -89c-50 0 -91 40 -91 89c0 50 42 90 93 90s90 -40 90 -90z" />
    <glyph glyph-name="Aring" unicode="&#xc5;" horiz-adv-x="677" 
d="M425 98l-25 77h-207l-21 -77c-3 -9 -4 -16 -4 -21c0 -22 19 -24 61 -26v-51h-224v51c40 5 54 12 69 58l190 588h142l206 -588c15 -42 24 -53 60 -58v-51h-300v51c44 2 58 9 58 25c0 6 -2 13 -5 22zM267 435l-50 -175h155l-58 178c-13 42 -17 64 -20 80h-6
c-2 -12 -6 -34 -21 -83zM338 733c-73 0 -124 52 -124 122s51 122 124 122c74 0 125 -52 125 -122s-51 -122 -125 -122zM338 915c-33 0 -53 -26 -53 -60c0 -31 20 -56 53 -56c34 0 54 25 54 56c0 34 -20 60 -54 60z" />
    <glyph glyph-name="AE" unicode="&#xc6;" horiz-adv-x="945" 
d="M92 109l228 465c7 15 11 27 11 37c0 24 -21 33 -54 33v53h602l12 -177h-88c-22 76 -31 97 -107 97h-84v-230h48c62 0 77 14 81 71h77v-218h-77c-4 54 -18 71 -80 71h-49v-237h105c62 0 89 23 97 116h89v-190h-530v50c47 0 64 13 64 70v97h-189l-60 -119
c-5 -10 -7 -17 -7 -23c0 -17 20 -22 61 -24v-51h-237v51c40 5 66 14 87 58zM442 616l-151 -315h146v118c0 86 7 170 11 197h-6z" />
    <glyph glyph-name="Ccedilla" unicode="&#xc7;" horiz-adv-x="638" 
d="M454 -121c0 -62 -44 -85 -126 -85c-50 0 -87 12 -106 25l17 42c22 -14 46 -19 68 -19s34 7 34 25c0 22 -21 30 -55 31l1 21l20 71c-169 20 -267 139 -267 347c0 264 136 372 334 372c94 0 168 -18 221 -51v-146h-124c-15 76 -35 116 -99 116c-85 0 -128 -57 -128 -283
c0 -242 53 -280 124 -280c79 0 101 40 113 123h119v-143c-43 -33 -139 -58 -239 -58l-8 -29c66 -4 101 -30 101 -79z" />
    <glyph glyph-name="Egrave" unicode="&#xc8;" horiz-adv-x="605" 
d="M25 0v50c47 0 64 13 64 70v454c0 57 -17 70 -64 70v53h514l12 -177h-88c-22 76 -31 97 -107 97h-84v-230h48c62 0 77 14 81 71h77v-218h-77c-4 54 -18 71 -80 71h-49v-237h105c62 0 89 23 97 116h89v-190h-538zM421 766l-25 -39l-260 73l74 146z" />
    <glyph glyph-name="Eacute" unicode="&#xc9;" horiz-adv-x="605" 
d="M25 0v50c47 0 64 13 64 70v454c0 57 -17 70 -64 70v53h514l12 -177h-88c-22 76 -31 97 -107 97h-84v-230h48c62 0 77 14 81 71h77v-218h-77c-4 54 -18 71 -80 71h-49v-237h105c62 0 89 23 97 116h89v-190h-538zM194 727l-25 39l211 180l74 -146z" />
    <glyph glyph-name="Ecircumflex" unicode="&#xca;" horiz-adv-x="605" 
d="M25 0v50c47 0 64 13 64 70v454c0 57 -17 70 -64 70v53h514l12 -177h-88c-22 76 -31 97 -107 97h-84v-230h48c62 0 77 14 81 71h77v-218h-77c-4 54 -18 71 -80 71h-49v-237h105c62 0 89 23 97 116h89v-190h-538zM463 732l-157 75l-157 -75l-25 40l182 183l182 -183z" />
    <glyph glyph-name="Edieresis" unicode="&#xcb;" horiz-adv-x="605" 
d="M25 0v50c47 0 64 13 64 70v454c0 57 -17 70 -64 70v53h514l12 -177h-88c-22 76 -31 97 -107 97h-84v-230h48c62 0 77 14 81 71h77v-218h-77c-4 54 -18 71 -80 71h-49v-237h105c62 0 89 23 97 116h89v-190h-538zM283 830c0 -49 -41 -89 -92 -89c-50 0 -91 40 -91 89
c0 50 42 90 93 90s90 -40 90 -90zM512 830c0 -49 -41 -89 -92 -89c-50 0 -91 40 -91 89c0 50 42 90 93 90s90 -40 90 -90z" />
    <glyph glyph-name="Igrave" unicode="&#xcc;" horiz-adv-x="361" 
d="M89 120v454c0 57 -17 70 -64 70v53h311v-53c-47 0 -64 -13 -64 -70v-454c0 -57 17 -70 64 -70v-50h-311v50c47 0 64 13 64 70zM295 766l-25 -39l-260 73l74 146z" />
    <glyph glyph-name="Iacute" unicode="&#xcd;" horiz-adv-x="361" 
d="M89 120v454c0 57 -17 70 -64 70v53h311v-53c-47 0 -64 -13 -64 -70v-454c0 -57 17 -70 64 -70v-50h-311v50c47 0 64 13 64 70zM68 727l-25 39l211 180l74 -146z" />
    <glyph glyph-name="Icircumflex" unicode="&#xce;" horiz-adv-x="361" 
d="M89 120v454c0 57 -17 70 -64 70v53h311v-53c-47 0 -64 -13 -64 -70v-454c0 -57 17 -70 64 -70v-50h-311v50c47 0 64 13 64 70zM337 732l-157 75l-157 -75l-25 40l182 183l182 -183z" />
    <glyph glyph-name="Idieresis" unicode="&#xcf;" horiz-adv-x="361" 
d="M89 120v454c0 57 -17 70 -64 70v53h311v-53c-47 0 -64 -13 -64 -70v-454c0 -57 17 -70 64 -70v-50h-311v50c47 0 64 13 64 70zM157 830c0 -49 -41 -89 -92 -89c-50 0 -91 40 -91 89c0 50 42 90 93 90s90 -40 90 -90zM386 830c0 -49 -41 -89 -92 -89c-50 0 -91 40 -91 89
c0 50 42 90 93 90s90 -40 90 -90z" />
    <glyph glyph-name="Eth" unicode="&#xd0;" horiz-adv-x="700" 
d="M26 312v81h63v181c0 57 -17 70 -64 70v53h306c204 0 329 -96 329 -353c0 -233 -119 -344 -334 -344h-301v50c47 0 64 13 64 70v192h-63zM464 339c0 230 -43 278 -155 278h-37v-224h111v-81h-111v-238h33c115 0 159 41 159 265z" />
    <glyph glyph-name="Ntilde" unicode="&#xd1;" horiz-adv-x="712" 
d="M541 401v173c0 57 -17 70 -64 70v53h220v-53c-47 0 -64 -13 -64 -70v-574h-130l-242 368c-44 67 -72 120 -83 140h-3c2 -21 8 -90 8 -140v-248c0 -57 17 -70 64 -70v-50h-222v50c47 0 64 13 64 70v454c0 57 -17 70 -64 70v53h260l194 -296c32 -49 54 -97 66 -125h4
c-2 20 -8 81 -8 125zM432 873c29 0 57 9 75 47l38 -17c-18 -79 -62 -143 -119 -143c-58 0 -95 32 -139 32c-31 0 -54 -12 -73 -49l-36 16c10 79 56 149 115 149c58 0 89 -35 139 -35z" />
    <glyph glyph-name="Ograve" unicode="&#xd2;" horiz-adv-x="720" 
d="M360 -12c-202 0 -320 121 -320 349c0 264 136 372 320 372s320 -108 320 -372c0 -228 -118 -349 -320 -349zM360 628c-78 0 -116 -57 -116 -283c0 -242 45 -284 116 -284s116 42 116 287c0 223 -38 280 -116 280zM475 766l-25 -39l-260 73l74 146z" />
    <glyph glyph-name="Oacute" unicode="&#xd3;" horiz-adv-x="720" 
d="M360 -12c-202 0 -320 121 -320 349c0 264 136 372 320 372s320 -108 320 -372c0 -228 -118 -349 -320 -349zM360 628c-78 0 -116 -57 -116 -283c0 -242 45 -284 116 -284s116 42 116 287c0 223 -38 280 -116 280zM248 727l-25 39l211 180l74 -146z" />
    <glyph glyph-name="Ocircumflex" unicode="&#xd4;" horiz-adv-x="720" 
d="M360 -12c-202 0 -320 121 -320 349c0 264 136 372 320 372s320 -108 320 -372c0 -228 -118 -349 -320 -349zM360 628c-78 0 -116 -57 -116 -283c0 -242 45 -284 116 -284s116 42 116 287c0 223 -38 280 -116 280zM517 732l-157 75l-157 -75l-25 40l182 183l182 -183z" />
    <glyph glyph-name="Otilde" unicode="&#xd5;" horiz-adv-x="720" 
d="M360 -12c-202 0 -320 121 -320 349c0 264 136 372 320 372s320 -108 320 -372c0 -228 -118 -349 -320 -349zM360 628c-78 0 -116 -57 -116 -283c0 -242 45 -284 116 -284s116 42 116 287c0 223 -38 280 -116 280zM431 873c29 0 57 9 75 47l38 -17
c-18 -79 -62 -143 -119 -143c-58 0 -95 32 -139 32c-31 0 -54 -12 -73 -49l-36 16c10 79 56 149 115 149c58 0 89 -35 139 -35z" />
    <glyph glyph-name="Odieresis" unicode="&#xd6;" horiz-adv-x="720" 
d="M360 -12c-202 0 -320 121 -320 349c0 264 136 372 320 372s320 -108 320 -372c0 -228 -118 -349 -320 -349zM360 628c-78 0 -116 -57 -116 -283c0 -242 45 -284 116 -284s116 42 116 287c0 223 -38 280 -116 280zM337 830c0 -49 -41 -89 -92 -89c-50 0 -91 40 -91 89
c0 50 42 90 93 90s90 -40 90 -90zM566 830c0 -49 -41 -89 -92 -89c-50 0 -91 40 -91 89c0 50 42 90 93 90s90 -40 90 -90z" />
    <glyph glyph-name="multiply" unicode="&#xd7;" horiz-adv-x="525" 
d="M56 421l55 57l151 -151l151 151l57 -57l-151 -151l151 -150l-57 -57l-151 152l-151 -152l-56 57l150 150z" />
    <glyph glyph-name="Oslash" unicode="&#xd8;" horiz-adv-x="720" 
d="M625 724l-53 -86c67 -59 108 -157 108 -301c0 -228 -118 -349 -320 -349c-66 0 -122 13 -169 38l-51 -83l-50 29l53 86c-67 58 -103 152 -103 279c0 264 136 372 320 372c60 0 116 -12 163 -37l51 81zM480 348c0 52 -3 95 -7 131l-211 -340c21 -63 55 -78 98 -78
c71 0 120 42 120 287zM360 628c-78 0 -120 -57 -120 -283c0 -48 2 -89 5 -122l209 337c-20 51 -52 68 -94 68z" />
    <glyph glyph-name="Ugrave" unicode="&#xd9;" horiz-adv-x="693" 
d="M519 228v346c0 57 -17 70 -64 70v53h217v-53c-47 0 -64 -13 -64 -70v-348c0 -145 -71 -239 -261 -239c-183 0 -262 66 -262 236v351c0 57 -17 70 -64 70v53h311v-53c-47 0 -64 -13 -64 -70v-357c0 -107 42 -139 119 -139c78 0 132 35 132 150zM498 766l-25 -39l-260 73
l74 146z" />
    <glyph glyph-name="Uacute" unicode="&#xda;" horiz-adv-x="693" 
d="M519 228v346c0 57 -17 70 -64 70v53h217v-53c-47 0 -64 -13 -64 -70v-348c0 -145 -71 -239 -261 -239c-183 0 -262 66 -262 236v351c0 57 -17 70 -64 70v53h311v-53c-47 0 -64 -13 -64 -70v-357c0 -107 42 -139 119 -139c78 0 132 35 132 150zM271 727l-25 39l211 180
l74 -146z" />
    <glyph glyph-name="Ucircumflex" unicode="&#xdb;" horiz-adv-x="693" 
d="M519 228v346c0 57 -17 70 -64 70v53h217v-53c-47 0 -64 -13 -64 -70v-348c0 -145 -71 -239 -261 -239c-183 0 -262 66 -262 236v351c0 57 -17 70 -64 70v53h311v-53c-47 0 -64 -13 -64 -70v-357c0 -107 42 -139 119 -139c78 0 132 35 132 150zM540 732l-157 75l-157 -75
l-25 40l182 183l182 -183z" />
    <glyph glyph-name="Udieresis" unicode="&#xdc;" horiz-adv-x="693" 
d="M519 228v346c0 57 -17 70 -64 70v53h217v-53c-47 0 -64 -13 -64 -70v-348c0 -145 -71 -239 -261 -239c-183 0 -262 66 -262 236v351c0 57 -17 70 -64 70v53h311v-53c-47 0 -64 -13 -64 -70v-357c0 -107 42 -139 119 -139c78 0 132 35 132 150zM360 830
c0 -49 -41 -89 -92 -89c-50 0 -91 40 -91 89c0 50 42 90 93 90s90 -40 90 -90zM589 830c0 -49 -41 -89 -92 -89c-50 0 -91 40 -91 89c0 50 42 90 93 90s90 -40 90 -90z" />
    <glyph glyph-name="Yacute" unicode="&#xdd;" horiz-adv-x="680" 
d="M384 366h6l93 220c5 12 8 22 8 31c0 19 -14 29 -47 29v51h219v-51c-40 -5 -53 -14 -74 -58l-157 -327v-141c0 -57 17 -70 74 -70v-50h-331v50c57 0 74 13 74 70v140l-164 328c-22 44 -34 53 -68 58v51h305v-51c-32 0 -47 -13 -47 -33c0 -8 2 -17 7 -27zM248 727l-25 39
l211 180l74 -146z" />
    <glyph glyph-name="Thorn" unicode="&#xde;" horiz-adv-x="617" 
d="M422 358c0 86 -29 116 -100 116h-50v-234h54c70 0 96 24 96 118zM272 573v-19h100c141 0 245 -38 245 -197c0 -103 -45 -202 -253 -202h-92v-35c0 -57 17 -70 84 -70v-50h-331v50c47 0 64 13 64 70v454c0 57 -17 70 -64 70v53h311v-53c-47 0 -64 -38 -64 -71z" />
    <glyph glyph-name="germandbls" unicode="&#xdf;" horiz-adv-x="659" 
d="M85 516v23c0 144 107 207 250 207c155 0 232 -55 232 -146c0 -75 -40 -120 -111 -157c-23 -12 -30 -18 -30 -29c0 -10 10 -17 24 -23c122 -55 189 -96 189 -225c0 -109 -78 -179 -202 -179c-67 0 -112 20 -142 43l20 55c26 -17 51 -22 76 -22c49 0 74 40 74 93
c0 74 -31 124 -91 176c-39 33 -64 47 -64 76c0 22 19 35 54 64c34 29 51 57 51 109c0 56 -20 90 -75 90c-46 0 -82 -37 -82 -126v-545h-230v50c47 0 57 13 57 70v312h-60v59z" />
    <glyph glyph-name="agrave" unicode="&#xe0;" horiz-adv-x="552" 
d="M483 158c0 -75 12 -87 59 -87v-48c-23 -15 -64 -29 -116 -29c-58 0 -98 27 -108 69c-16 -38 -59 -76 -139 -76c-87 0 -159 42 -159 149c0 118 82 170 239 170c12 0 41 -1 54 -2v47c0 72 -19 104 -64 104c-46 0 -58 -36 -65 -92h-129v108c57 34 141 58 227 58
c117 0 205 -51 205 -168c0 -30 -4 -112 -4 -203zM311 244h-35c-49 0 -79 -29 -79 -84c0 -50 19 -66 49 -66c17 0 46 6 62 23zM392 590l-28 -36l-252 97l88 139z" />
    <glyph glyph-name="aacute" unicode="&#xe1;" horiz-adv-x="552" 
d="M483 158c0 -75 12 -87 59 -87v-48c-23 -15 -64 -29 -116 -29c-58 0 -98 27 -108 69c-16 -38 -59 -76 -139 -76c-87 0 -159 42 -159 149c0 118 82 170 239 170c12 0 41 -1 54 -2v47c0 72 -19 104 -64 104c-46 0 -58 -36 -65 -92h-129v108c57 34 141 58 227 58
c117 0 205 -51 205 -168c0 -30 -4 -112 -4 -203zM311 244h-35c-49 0 -79 -29 -79 -84c0 -50 19 -66 49 -66c17 0 46 6 62 23zM165 554l-28 36l192 200l88 -139z" />
    <glyph glyph-name="acircumflex" unicode="&#xe2;" horiz-adv-x="552" 
d="M483 158c0 -75 12 -87 59 -87v-48c-23 -15 -64 -29 -116 -29c-58 0 -98 27 -108 69c-16 -38 -59 -76 -139 -76c-87 0 -159 42 -159 149c0 118 82 170 239 170c12 0 41 -1 54 -2v47c0 72 -19 104 -64 104c-46 0 -58 -36 -65 -92h-129v108c57 34 141 58 227 58
c117 0 205 -51 205 -168c0 -30 -4 -112 -4 -203zM311 244h-35c-49 0 -79 -29 -79 -84c0 -50 19 -66 49 -66c17 0 46 6 62 23zM434 552l-157 75l-157 -75l-25 40l182 183l182 -183z" />
    <glyph glyph-name="atilde" unicode="&#xe3;" horiz-adv-x="552" 
d="M483 158c0 -75 12 -87 59 -87v-48c-23 -15 -64 -29 -116 -29c-58 0 -98 27 -108 69c-16 -38 -59 -76 -139 -76c-87 0 -159 42 -159 149c0 118 82 170 239 170c12 0 41 -1 54 -2v47c0 72 -19 104 -64 104c-46 0 -58 -36 -65 -92h-129v108c57 34 141 58 227 58
c117 0 205 -51 205 -168c0 -30 -4 -112 -4 -203zM311 244h-35c-49 0 -79 -29 -79 -84c0 -50 19 -66 49 -66c17 0 46 6 62 23zM338 693c29 0 57 9 75 47l38 -17c-18 -79 -62 -143 -119 -143c-58 0 -95 32 -139 32c-31 0 -54 -12 -73 -49l-36 16c10 79 56 149 115 149
c58 0 89 -35 139 -35z" />
    <glyph glyph-name="adieresis" unicode="&#xe4;" horiz-adv-x="552" 
d="M483 158c0 -75 12 -87 59 -87v-48c-23 -15 -64 -29 -116 -29c-58 0 -98 27 -108 69c-16 -38 -59 -76 -139 -76c-87 0 -159 42 -159 149c0 118 82 170 239 170c12 0 41 -1 54 -2v47c0 72 -19 104 -64 104c-46 0 -58 -36 -65 -92h-129v108c57 34 141 58 227 58
c117 0 205 -51 205 -168c0 -30 -4 -112 -4 -203zM311 244h-35c-49 0 -79 -29 -79 -84c0 -50 19 -66 49 -66c17 0 46 6 62 23zM248 650c0 -49 -41 -89 -92 -89c-50 0 -91 40 -91 89c0 50 42 90 93 90s90 -40 90 -90zM477 650c0 -49 -41 -89 -92 -89c-50 0 -91 40 -91 89
c0 50 42 90 93 90s90 -40 90 -90z" />
    <glyph glyph-name="aring" unicode="&#xe5;" horiz-adv-x="552" 
d="M483 158c0 -75 12 -87 59 -87v-48c-23 -15 -64 -29 -116 -29c-58 0 -98 27 -108 69c-16 -38 -59 -76 -139 -76c-87 0 -159 42 -159 149c0 118 82 170 239 170c12 0 41 -1 54 -2v47c0 72 -19 104 -64 104c-46 0 -58 -36 -65 -92h-129v108c57 34 141 58 227 58
c117 0 205 -51 205 -168c0 -30 -4 -112 -4 -203zM311 244h-35c-49 0 -79 -29 -79 -84c0 -50 19 -66 49 -66c17 0 46 6 62 23zM267 563c-73 0 -124 52 -124 122s51 122 124 122c74 0 125 -52 125 -122s-51 -122 -125 -122zM267 745c-33 0 -53 -26 -53 -60
c0 -31 20 -56 53 -56c34 0 54 25 54 56c0 34 -20 60 -54 60z" />
    <glyph glyph-name="ae" unicode="&#xe6;" horiz-adv-x="830" 
d="M426 482c37 27 89 47 146 47c168 0 228 -96 228 -250v-45h-297c4 -100 37 -149 129 -149c42 0 87 9 133 31l26 -44c-57 -59 -126 -85 -222 -85c-89 0 -157 27 -200 81c-24 -37 -85 -81 -185 -81c-92 0 -164 42 -164 149c0 118 83 168 240 168h57v47c0 72 -23 104 -68 104
c-46 0 -58 -36 -65 -92h-129v108c57 34 141 58 216 58c67 0 124 -19 155 -47zM572 460c-43 0 -61 -35 -68 -154h126c0 120 -15 154 -58 154zM260 94c31 0 60 10 80 22c-14 33 -23 72 -24 118h-28c-61 0 -91 -19 -91 -74c0 -41 19 -66 63 -66z" />
    <glyph glyph-name="ccedilla" unicode="&#xe7;" horiz-adv-x="503" 
d="M257 -206c-50 0 -87 12 -106 25l17 42c22 -14 46 -19 68 -19s34 7 34 25c0 22 -21 30 -55 31l1 21l21 72c-115 18 -202 103 -202 259c0 182 125 279 268 279c80 0 131 -15 170 -41v-117h-129c-1 63 -5 89 -40 89c-34 0 -92 -32 -92 -187c0 -145 66 -190 133 -190
c41 0 71 7 112 28l27 -43c-44 -52 -110 -77 -181 -81h-13l-8 -29c66 -4 101 -30 101 -79c0 -62 -44 -85 -126 -85z" />
    <glyph glyph-name="egrave" unicode="&#xe8;" horiz-adv-x="549" 
d="M351 85c42 0 87 9 133 31l26 -44c-57 -59 -126 -85 -222 -85c-161 0 -253 99 -253 272c0 171 100 270 254 270c170 0 230 -96 230 -250v-49h-297c4 -100 37 -145 129 -145zM291 460c-43 0 -61 -35 -68 -154h126c0 120 -15 154 -58 154zM416 590l-28 -36l-252 97l88 139z
" />
    <glyph glyph-name="eacute" unicode="&#xe9;" horiz-adv-x="549" 
d="M351 85c42 0 87 9 133 31l26 -44c-57 -59 -126 -85 -222 -85c-161 0 -253 99 -253 272c0 171 100 270 254 270c170 0 230 -96 230 -250v-49h-297c4 -100 37 -145 129 -145zM291 460c-43 0 -61 -35 -68 -154h126c0 120 -15 154 -58 154zM179 554l-28 36l192 200l88 -139z
" />
    <glyph glyph-name="ecircumflex" unicode="&#xea;" horiz-adv-x="549" 
d="M351 85c42 0 87 9 133 31l26 -44c-57 -59 -126 -85 -222 -85c-161 0 -253 99 -253 272c0 171 100 270 254 270c170 0 230 -96 230 -250v-49h-297c4 -100 37 -145 129 -145zM291 460c-43 0 -61 -35 -68 -154h126c0 120 -15 154 -58 154zM446 552l-157 75l-157 -75l-25 40
l182 183l182 -183z" />
    <glyph glyph-name="edieresis" unicode="&#xeb;" horiz-adv-x="549" 
d="M351 85c42 0 87 9 133 31l26 -44c-57 -59 -126 -85 -222 -85c-161 0 -253 99 -253 272c0 171 100 270 254 270c170 0 230 -96 230 -250v-49h-297c4 -100 37 -145 129 -145zM291 460c-43 0 -61 -35 -68 -154h126c0 120 -15 154 -58 154zM260 650c0 -49 -41 -89 -92 -89
c-50 0 -91 40 -91 89c0 50 42 90 93 90s90 -40 90 -90zM489 650c0 -49 -41 -89 -92 -89c-50 0 -91 40 -91 89c0 50 42 90 93 90s90 -40 90 -90z" />
    <glyph glyph-name="igrave" unicode="&#xec;" horiz-adv-x="327" 
d="M312 0h-287v50c47 0 57 13 57 70v235c0 73 -9 83 -55 85v49l203 33h25v-402c0 -57 10 -70 57 -70v-50zM283 590l-28 -36l-252 97l88 139z" />
    <glyph glyph-name="iacute" unicode="&#xed;" horiz-adv-x="327" 
d="M312 0h-287v50c47 0 57 13 57 70v235c0 73 -9 83 -55 85v49l203 33h25v-402c0 -57 10 -70 57 -70v-50zM56 554l-28 36l192 200l88 -139z" />
    <glyph glyph-name="icircumflex" unicode="&#xee;" horiz-adv-x="327" 
d="M312 0h-287v50c47 0 57 13 57 70v235c0 73 -9 83 -55 85v49l203 33h25v-402c0 -57 10 -70 57 -70v-50zM325 552l-157 75l-157 -75l-25 40l182 183l182 -183z" />
    <glyph glyph-name="idieresis" unicode="&#xef;" horiz-adv-x="327" 
d="M312 0h-287v50c47 0 57 13 57 70v235c0 73 -9 83 -55 85v49l203 33h25v-402c0 -57 10 -70 57 -70v-50zM145 650c0 -49 -41 -89 -92 -89c-50 0 -91 40 -91 89c0 50 42 90 93 90s90 -40 90 -90zM374 650c0 -49 -41 -89 -92 -89c-50 0 -91 40 -91 89c0 50 42 90 93 90
s90 -40 90 -90z" />
    <glyph glyph-name="eth" unicode="&#xf0;" horiz-adv-x="586" 
d="M109 529l-21 52l140 48c-37 23 -83 42 -140 57l25 48c84 -14 161 -31 223 -64l134 47l21 -52l-94 -33c103 -77 154 -188 154 -347c0 -204 -115 -298 -257 -298c-146 0 -259 74 -259 267c0 170 107 260 235 260c29 0 61 -6 83 -18c-17 38 -39 63 -71 93zM373 282
c0 76 -4 104 -15 147c-16 14 -34 16 -54 16c-56 0 -86 -70 -86 -190c0 -151 24 -203 79 -203c46 0 76 52 76 230z" />
    <glyph glyph-name="ntilde" unicode="&#xf1;" horiz-adv-x="643" 
d="M576 370v-250c0 -57 10 -70 57 -70v-50h-287v50c47 0 57 13 57 70v208c0 61 -24 81 -63 81c-38 0 -65 -15 -85 -27v-262c0 -57 10 -70 57 -70v-50h-287v50c47 0 57 13 57 70v235c0 73 -9 83 -55 85v49l176 40h15c6 -8 29 -49 33 -91c43 50 97 91 176 91
c83 0 149 -49 149 -159zM400 693c29 0 57 9 75 47l38 -17c-18 -79 -62 -143 -119 -143c-58 0 -95 32 -139 32c-31 0 -54 -12 -73 -49l-36 16c10 79 56 149 115 149c58 0 89 -35 139 -35z" />
    <glyph glyph-name="ograve" unicode="&#xf2;" horiz-adv-x="598" 
d="M563 271c0 -204 -127 -284 -268 -284c-167 0 -260 98 -260 269c0 161 101 273 271 273c145 0 257 -73 257 -258zM373 278c0 141 -25 181 -74 181c-47 0 -74 -38 -74 -210c0 -136 14 -195 76 -195c48 0 72 59 72 224zM414 590l-28 -36l-252 97l88 139z" />
    <glyph glyph-name="oacute" unicode="&#xf3;" horiz-adv-x="598" 
d="M563 271c0 -204 -127 -284 -268 -284c-167 0 -260 98 -260 269c0 161 101 273 271 273c145 0 257 -73 257 -258zM373 278c0 141 -25 181 -74 181c-47 0 -74 -38 -74 -210c0 -136 14 -195 76 -195c48 0 72 59 72 224zM187 554l-28 36l192 200l88 -139z" />
    <glyph glyph-name="ocircumflex" unicode="&#xf4;" horiz-adv-x="598" 
d="M563 271c0 -204 -127 -284 -268 -284c-167 0 -260 98 -260 269c0 161 101 273 271 273c145 0 257 -73 257 -258zM373 278c0 141 -25 181 -74 181c-47 0 -74 -38 -74 -210c0 -136 14 -195 76 -195c48 0 72 59 72 224zM456 552l-157 75l-157 -75l-25 40l182 183l182 -183z
" />
    <glyph glyph-name="otilde" unicode="&#xf5;" horiz-adv-x="598" 
d="M563 271c0 -204 -127 -284 -268 -284c-167 0 -260 98 -260 269c0 161 101 273 271 273c145 0 257 -73 257 -258zM373 278c0 141 -25 181 -74 181c-47 0 -74 -38 -74 -210c0 -136 14 -195 76 -195c48 0 72 59 72 224zM370 693c29 0 57 9 75 47l38 -17
c-18 -79 -62 -143 -119 -143c-58 0 -95 32 -139 32c-31 0 -54 -12 -73 -49l-36 16c10 79 56 149 115 149c58 0 89 -35 139 -35z" />
    <glyph glyph-name="odieresis" unicode="&#xf6;" horiz-adv-x="598" 
d="M563 271c0 -204 -127 -284 -268 -284c-167 0 -260 98 -260 269c0 161 101 273 271 273c145 0 257 -73 257 -258zM373 278c0 141 -25 181 -74 181c-47 0 -74 -38 -74 -210c0 -136 14 -195 76 -195c48 0 72 59 72 224zM276 650c0 -49 -41 -89 -92 -89c-50 0 -91 40 -91 89
c0 50 42 90 93 90s90 -40 90 -90zM505 650c0 -49 -41 -89 -92 -89c-50 0 -91 40 -91 89c0 50 42 90 93 90s90 -40 90 -90z" />
    <glyph glyph-name="divide" unicode="&#xf7;" horiz-adv-x="616" 
d="M383 470c0 -45 -34 -78 -74 -78c-42 0 -75 32 -75 76c0 41 33 76 75 76c40 0 74 -34 74 -74zM55 232v78h506v-78h-506zM383 67c0 -44 -34 -77 -74 -77c-42 0 -75 32 -75 75c0 42 33 77 75 77c40 0 74 -34 74 -75z" />
    <glyph glyph-name="oslash" unicode="&#xf8;" horiz-adv-x="598" 
d="M514 541l-39 -61c54 -40 88 -108 88 -209c0 -204 -127 -284 -268 -284c-46 0 -86 8 -120 21l-43 -67l-46 27l42 66c-61 45 -93 121 -93 222c0 161 101 273 271 273c45 0 86 -8 123 -23l39 62zM216 249c0 -28 0 -52 2 -73l148 231c-14 38 -37 52 -67 52
c-50 0 -83 -38 -83 -210zM382 278c0 19 -1 37 -2 53l-146 -230c13 -32 34 -47 67 -47c51 0 81 59 81 224z" />
    <glyph glyph-name="ugrave" unicode="&#xf9;" horiz-adv-x="619" 
d="M547 522v-368c0 -73 9 -81 57 -85v-46l-177 -36h-15c-5 6 -25 32 -29 78c-36 -49 -92 -78 -169 -78c-88 0 -144 43 -144 145v223c0 73 -9 83 -55 85v49l203 33h25v-347c0 -51 14 -81 60 -81c23 0 45 6 71 26v235c0 73 -9 83 -55 85v49l203 33h25zM424 590l-28 -36
l-252 97l88 139z" />
    <glyph glyph-name="uacute" unicode="&#xfa;" horiz-adv-x="619" 
d="M547 522v-368c0 -73 9 -81 57 -85v-46l-177 -36h-15c-5 6 -25 32 -29 78c-36 -49 -92 -78 -169 -78c-88 0 -144 43 -144 145v223c0 73 -9 83 -55 85v49l203 33h25v-347c0 -51 14 -81 60 -81c23 0 45 6 71 26v235c0 73 -9 83 -55 85v49l203 33h25zM197 554l-28 36l192 200
l88 -139z" />
    <glyph glyph-name="ucircumflex" unicode="&#xfb;" horiz-adv-x="619" 
d="M547 522v-368c0 -73 9 -81 57 -85v-46l-177 -36h-15c-5 6 -25 32 -29 78c-36 -49 -92 -78 -169 -78c-88 0 -144 43 -144 145v223c0 73 -9 83 -55 85v49l203 33h25v-347c0 -51 14 -81 60 -81c23 0 45 6 71 26v235c0 73 -9 83 -55 85v49l203 33h25zM466 552l-157 75
l-157 -75l-25 40l182 183l182 -183z" />
    <glyph glyph-name="udieresis" unicode="&#xfc;" horiz-adv-x="619" 
d="M547 522v-368c0 -73 9 -81 57 -85v-46l-177 -36h-15c-5 6 -25 32 -29 78c-36 -49 -92 -78 -169 -78c-88 0 -144 43 -144 145v223c0 73 -9 83 -55 85v49l203 33h25v-347c0 -51 14 -81 60 -81c23 0 45 6 71 26v235c0 73 -9 83 -55 85v49l203 33h25zM286 650
c0 -49 -41 -89 -92 -89c-50 0 -91 40 -91 89c0 50 42 90 93 90s90 -40 90 -90zM515 650c0 -49 -41 -89 -92 -89c-50 0 -91 40 -91 89c0 50 42 90 93 90s90 -40 90 -90z" />
    <glyph glyph-name="yacute" unicode="&#xfd;" horiz-adv-x="572" 
d="M117 -205l-61 108c92 14 173 39 209 107l-66 -5c-13 52 -25 88 -62 190l-76 209c-17 46 -25 56 -61 61v51h292v-51c-44 -2 -58 -9 -58 -25c0 -6 2 -13 5 -22l68 -218c10 -31 13 -60 14 -66h6c1 7 8 40 17 68l66 216c3 9 4 16 4 22c0 20 -18 23 -61 25v51h219v-51
c-40 -5 -52 -12 -69 -58l-148 -396c-43 -117 -111 -200 -238 -216zM202 554l-28 36l192 200l88 -139z" />
    <glyph glyph-name="thorn" unicode="&#xfe;" horiz-adv-x="617" 
d="M399 243c0 136 -34 172 -85 172c-28 0 -54 -8 -77 -30v-281c19 -22 43 -28 71 -28c53 0 91 34 91 167zM5 710l196 26h15c4 -5 21 -31 21 -100v-192c23 45 68 85 143 85c123 0 202 -85 202 -268c0 -201 -106 -274 -243 -274c-40 0 -78 10 -102 40v-103
c0 -57 10 -70 57 -70v-50h-287v50c47 0 57 13 57 70v652c0 73 -13 83 -59 85v49z" />
    <glyph glyph-name="ydieresis" unicode="&#xff;" horiz-adv-x="572" 
d="M117 -205l-61 108c92 14 173 39 209 107l-66 -5c-13 52 -25 88 -62 190l-76 209c-17 46 -25 56 -61 61v51h292v-51c-44 -2 -58 -9 -58 -25c0 -6 2 -13 5 -22l68 -218c10 -31 13 -60 14 -66h6c1 7 8 40 17 68l66 216c3 9 4 16 4 22c0 20 -18 23 -61 25v51h219v-51
c-40 -5 -52 -12 -69 -58l-148 -396c-43 -117 -111 -200 -238 -216zM291 650c0 -49 -41 -89 -92 -89c-50 0 -91 40 -91 89c0 50 42 90 93 90s90 -40 90 -90zM520 650c0 -49 -41 -89 -92 -89c-50 0 -91 40 -91 89c0 50 42 90 93 90s90 -40 90 -90z" />
    <glyph glyph-name="Amacron" unicode="&#x100;" horiz-adv-x="677" 
d="M425 98l-25 77h-207l-21 -77c-3 -9 -4 -16 -4 -21c0 -22 19 -24 61 -26v-51h-224v51c40 5 54 12 69 58l190 588h142l206 -588c15 -42 24 -53 60 -58v-51h-300v51c44 2 58 9 58 25c0 6 -2 13 -5 22zM267 435l-50 -175h155l-58 178c-13 42 -17 64 -20 80h-6
c-2 -12 -6 -34 -21 -83zM497 775h-317v87h317v-87z" />
    <glyph glyph-name="amacron" unicode="&#x101;" horiz-adv-x="552" 
d="M483 158c0 -75 12 -87 59 -87v-48c-23 -15 -64 -29 -116 -29c-58 0 -98 27 -108 69c-16 -38 -59 -76 -139 -76c-87 0 -159 42 -159 149c0 118 82 170 239 170c12 0 41 -1 54 -2v47c0 72 -19 104 -64 104c-46 0 -58 -36 -65 -92h-129v108c57 34 141 58 227 58
c117 0 205 -51 205 -168c0 -30 -4 -112 -4 -203zM311 244h-35c-49 0 -79 -29 -79 -84c0 -50 19 -66 49 -66c17 0 46 6 62 23zM427 605h-311v87h311v-87z" />
    <glyph glyph-name="Abreve" unicode="&#x102;" horiz-adv-x="677" 
d="M425 98l-25 77h-207l-21 -77c-3 -9 -4 -16 -4 -21c0 -22 19 -24 61 -26v-51h-224v51c40 5 54 12 69 58l190 588h142l206 -588c15 -42 24 -53 60 -58v-51h-300v51c44 2 58 9 58 25c0 6 -2 13 -5 22zM267 435l-50 -175h155l-58 178c-13 42 -17 64 -20 80h-6
c-2 -12 -6 -34 -21 -83zM338 744c-107 0 -153 92 -172 174l40 22c32 -48 70 -83 132 -83s100 35 132 83l40 -22c-19 -82 -65 -174 -172 -174z" />
    <glyph glyph-name="abreve" unicode="&#x103;" horiz-adv-x="552" 
d="M483 158c0 -75 12 -87 59 -87v-48c-23 -15 -64 -29 -116 -29c-58 0 -98 27 -108 69c-16 -38 -59 -76 -139 -76c-87 0 -159 42 -159 149c0 118 82 170 239 170c12 0 41 -1 54 -2v47c0 72 -19 104 -64 104c-46 0 -58 -36 -65 -92h-129v108c57 34 141 58 227 58
c117 0 205 -51 205 -168c0 -30 -4 -112 -4 -203zM311 244h-35c-49 0 -79 -29 -79 -84c0 -50 19 -66 49 -66c17 0 46 6 62 23zM273 564c-107 0 -153 92 -172 174l40 22c32 -48 70 -83 132 -83s100 35 132 83l40 -22c-19 -82 -65 -174 -172 -174z" />
    <glyph glyph-name="Aogonek" unicode="&#x104;" horiz-adv-x="677" 
d="M494 -125l16 -32c-34 -35 -81 -48 -130 -48c-63 0 -125 22 -125 88c0 55 46 84 140 139c25 15 35 28 35 48c0 9 -1 14 -5 28l-25 77h-207l-21 -77c-3 -10 -4 -16 -4 -22c0 -20 18 -23 61 -25v-51h-224v51c40 5 54 12 69 58l190 588h142l205 -585c17 -49 27 -56 61 -61
v-51h-169c-69 0 -109 -50 -109 -94c0 -36 23 -48 46 -48c18 0 34 5 54 17zM267 435l-50 -175h155l-58 178c-13 42 -17 64 -20 80h-6c-2 -12 -6 -34 -21 -83z" />
    <glyph glyph-name="aogonek" unicode="&#x105;" horiz-adv-x="552" 
d="M540 -125l16 -32c-34 -35 -81 -48 -130 -48c-63 0 -125 22 -125 91c0 50 51 81 112 110c-52 3 -87 32 -95 67c-16 -38 -59 -76 -139 -76c-87 0 -159 42 -159 149c0 118 82 170 239 170c12 0 41 -1 54 -2v47c0 72 -19 104 -64 104c-46 0 -58 -36 -65 -92h-129v108
c57 34 141 58 227 58c117 0 205 -51 205 -168c0 -30 -4 -112 -4 -203c0 -75 12 -87 59 -87v-48c-56 -28 -102 -65 -102 -117c0 -36 23 -48 46 -48c18 0 34 5 54 17zM311 244h-35c-49 0 -79 -29 -79 -84c0 -50 19 -66 49 -66c17 0 46 6 62 23z" />
    <glyph glyph-name="Cacute" unicode="&#x106;" horiz-adv-x="638" 
d="M360 -13c-202 0 -320 122 -320 350c0 264 136 372 334 372c94 0 168 -18 221 -51v-146h-124c-15 76 -35 116 -99 116c-85 0 -128 -57 -128 -283c0 -242 53 -280 124 -280c79 0 101 40 113 123h119v-143c-43 -33 -140 -58 -240 -58zM256 727l-25 39l211 180l74 -146z" />
    <glyph glyph-name="cacute" unicode="&#x107;" horiz-adv-x="503" 
d="M473 488v-117h-129c-1 63 -5 89 -40 89c-34 0 -92 -32 -92 -187c0 -145 66 -190 133 -190c41 0 71 7 112 28l27 -43c-47 -56 -120 -81 -197 -81c-139 0 -252 85 -252 263c0 182 125 279 268 279c80 0 131 -15 170 -41zM185 554l-28 36l192 200l88 -139z" />
    <glyph glyph-name="Ccircumflex" unicode="&#x108;" horiz-adv-x="638" 
d="M360 -13c-202 0 -320 122 -320 350c0 264 136 372 334 372c94 0 168 -18 221 -51v-146h-124c-15 76 -35 116 -99 116c-85 0 -128 -57 -128 -283c0 -242 53 -280 124 -280c79 0 101 40 113 123h119v-143c-43 -33 -140 -58 -240 -58zM525 732l-157 75l-157 -75l-25 40
l182 183l182 -183z" />
    <glyph glyph-name="ccircumflex" unicode="&#x109;" horiz-adv-x="503" 
d="M473 488v-117h-129c-1 63 -5 89 -40 89c-34 0 -92 -32 -92 -187c0 -145 66 -190 133 -190c41 0 71 7 112 28l27 -43c-47 -56 -120 -81 -197 -81c-139 0 -252 85 -252 263c0 182 125 279 268 279c80 0 131 -15 170 -41zM445 552l-157 75l-157 -75l-25 40l182 183l182 -183
z" />
    <glyph glyph-name="Cdotaccent" unicode="&#x10a;" horiz-adv-x="638" 
d="M360 -13c-202 0 -320 122 -320 350c0 264 136 372 334 372c94 0 168 -18 221 -51v-146h-124c-15 76 -35 116 -99 116c-85 0 -128 -57 -128 -283c0 -242 53 -280 124 -280c79 0 101 40 113 123h119v-143c-43 -33 -140 -58 -240 -58zM464 836c0 -51 -43 -93 -96 -93
c-52 0 -95 42 -95 93c0 52 44 94 97 94s94 -42 94 -94z" />
    <glyph glyph-name="cdotaccent" unicode="&#x10b;" horiz-adv-x="503" 
d="M473 488v-117h-129c-1 63 -5 89 -40 89c-34 0 -92 -32 -92 -187c0 -145 66 -190 133 -190c41 0 71 7 112 28l27 -43c-47 -56 -120 -81 -197 -81c-139 0 -252 85 -252 263c0 182 125 279 268 279c80 0 131 -15 170 -41zM393 656c0 -51 -43 -93 -96 -93
c-52 0 -95 42 -95 93c0 52 44 94 97 94s94 -42 94 -94z" />
    <glyph glyph-name="Ccaron" unicode="&#x10c;" horiz-adv-x="638" 
d="M360 -13c-202 0 -320 122 -320 350c0 264 136 372 334 372c94 0 168 -18 221 -51v-146h-124c-15 76 -35 116 -99 116c-85 0 -128 -57 -128 -283c0 -242 53 -280 124 -280c79 0 101 40 113 123h119v-143c-43 -33 -140 -58 -240 -58zM368 880l157 75l25 -40l-182 -183
l-182 183l25 40z" />
    <glyph glyph-name="ccaron" unicode="&#x10d;" horiz-adv-x="503" 
d="M473 488v-117h-129c-1 63 -5 89 -40 89c-34 0 -92 -32 -92 -187c0 -145 66 -190 133 -190c41 0 71 7 112 28l27 -43c-47 -56 -120 -81 -197 -81c-139 0 -252 85 -252 263c0 182 125 279 268 279c80 0 131 -15 170 -41zM297 700l157 75l25 -40l-182 -183l-182 183l25 40z
" />
    <glyph glyph-name="Dcaron" unicode="&#x10e;" horiz-adv-x="700" 
d="M25 0v50c47 0 64 13 64 70v454c0 57 -17 70 -64 70v53h306c204 0 329 -96 329 -353c0 -233 -119 -344 -334 -344h-301zM272 74h33c115 0 159 41 159 265c0 230 -43 278 -155 278h-37v-543zM334 880l157 75l25 -40l-182 -183l-182 183l25 40z" />
    <glyph glyph-name="dcaron" unicode="&#x10f;" horiz-adv-x="630" 
d="M394 65c-23 -45 -82 -78 -157 -78c-123 0 -202 85 -202 268c0 201 106 274 238 274c50 0 93 -17 112 -45v92c0 73 -13 83 -59 85v49l204 26h28v-582c0 -73 9 -81 57 -85v-46l-177 -36h-15c-10 12 -26 39 -29 78zM223 266c0 -136 34 -172 85 -172c28 0 54 8 77 30v281
c-19 22 -43 28 -71 28c-53 0 -91 -34 -91 -167zM732 728l-69 -172l-67 8l12 176z" />
    <glyph glyph-name="Dcroat" unicode="&#x110;" horiz-adv-x="700" 
d="M26 312v81h63v181c0 57 -17 70 -64 70v53h306c204 0 329 -96 329 -353c0 -233 -119 -344 -334 -344h-301v50c47 0 64 13 64 70v192h-63zM464 339c0 230 -43 278 -155 278h-37v-224h111v-81h-111v-238h33c115 0 159 41 159 265z" />
    <glyph glyph-name="dcroat" unicode="&#x111;" horiz-adv-x="630" 
d="M222 614h163c0 40 -13 47 -59 47v49l204 26h28v-122h57v-47h-57v-413c0 -73 9 -81 57 -85v-46l-177 -36h-15c-5 6 -25 32 -29 78c-23 -45 -82 -78 -157 -78c-123 0 -202 85 -202 268c0 201 106 274 238 274c50 0 93 -17 112 -45v83h-163v47zM223 266
c0 -136 34 -172 85 -172c28 0 54 8 77 30v281c-19 22 -43 28 -71 28c-53 0 -91 -34 -91 -167z" />
    <glyph glyph-name="Emacron" unicode="&#x112;" horiz-adv-x="605" 
d="M25 0v50c47 0 64 13 64 70v454c0 57 -17 70 -64 70v53h514l12 -177h-88c-22 76 -31 97 -107 97h-84v-230h48c62 0 77 14 81 71h77v-218h-77c-4 54 -18 71 -80 71h-49v-237h105c62 0 89 23 97 116h89v-190h-538zM465 775h-317v87h317v-87z" />
    <glyph glyph-name="emacron" unicode="&#x113;" horiz-adv-x="549" 
d="M351 85c42 0 87 9 133 31l26 -44c-57 -59 -126 -85 -222 -85c-161 0 -253 99 -253 272c0 171 100 270 254 270c170 0 230 -96 230 -250v-49h-297c4 -100 37 -145 129 -145zM291 460c-43 0 -61 -35 -68 -154h126c0 120 -15 154 -58 154zM440 605h-311v87h311v-87z" />
    <glyph glyph-name="Ebreve" unicode="&#x114;" horiz-adv-x="605" 
d="M25 0v50c47 0 64 13 64 70v454c0 57 -17 70 -64 70v53h514l12 -177h-88c-22 76 -31 97 -107 97h-84v-230h48c62 0 77 14 81 71h77v-218h-77c-4 54 -18 71 -80 71h-49v-237h105c62 0 89 23 97 116h89v-190h-538zM294 744c-107 0 -153 92 -172 174l40 22
c32 -48 70 -83 132 -83s100 35 132 83l40 -22c-19 -82 -65 -174 -172 -174z" />
    <glyph glyph-name="ebreve" unicode="&#x115;" horiz-adv-x="549" 
d="M351 85c42 0 87 9 133 31l26 -44c-57 -59 -126 -85 -222 -85c-161 0 -253 99 -253 272c0 171 100 270 254 270c170 0 230 -96 230 -250v-49h-297c4 -100 37 -145 129 -145zM291 460c-43 0 -61 -35 -68 -154h126c0 120 -15 154 -58 154zM281 564c-107 0 -153 92 -172 174
l40 22c32 -48 70 -83 132 -83s100 35 132 83l40 -22c-19 -82 -65 -174 -172 -174z" />
    <glyph glyph-name="Edotaccent" unicode="&#x116;" horiz-adv-x="605" 
d="M25 0v50c47 0 64 13 64 70v454c0 57 -17 70 -64 70v53h514l12 -177h-88c-22 76 -31 97 -107 97h-84v-230h48c62 0 77 14 81 71h77v-218h-77c-4 54 -18 71 -80 71h-49v-237h105c62 0 89 23 97 116h89v-190h-538zM402 836c0 -51 -43 -93 -96 -93c-52 0 -95 42 -95 93
c0 52 44 94 97 94s94 -42 94 -94z" />
    <glyph glyph-name="edotaccent" unicode="&#x117;" horiz-adv-x="549" 
d="M351 85c42 0 87 9 133 31l26 -44c-57 -59 -126 -85 -222 -85c-161 0 -253 99 -253 272c0 171 100 270 254 270c170 0 230 -96 230 -250v-49h-297c4 -100 37 -145 129 -145zM291 460c-43 0 -61 -35 -68 -154h126c0 120 -15 154 -58 154zM383 656c0 -51 -43 -93 -96 -93
c-52 0 -95 42 -95 93c0 52 44 94 97 94s94 -42 94 -94z" />
    <glyph glyph-name="Eogonek" unicode="&#x118;" horiz-adv-x="605" 
d="M428 -205c-63 0 -125 22 -125 91c0 53 38 82 111 114h-389v50c47 0 64 13 64 70v454c0 57 -17 70 -64 70v53h514l12 -177h-88c-22 76 -31 97 -107 97h-84v-230h48c62 0 77 14 81 71h77v-218h-77c-4 54 -18 71 -80 71h-49v-237h105c62 0 89 23 97 116h89v-190l-22 -2
c-60 -5 -99 -44 -99 -92c0 -36 23 -48 46 -48c18 0 34 5 54 17l16 -32c-34 -35 -81 -48 -130 -48z" />
    <glyph glyph-name="eogonek" unicode="&#x119;" horiz-adv-x="549" 
d="M461 -125l16 -32c-34 -35 -81 -48 -130 -48c-63 0 -125 22 -125 91c0 46 41 77 99 103c-10 -1 -26 -2 -33 -2c-161 0 -253 99 -253 272c0 171 100 270 254 270c170 0 230 -96 230 -250v-49h-297c4 -100 37 -145 129 -145c42 0 87 9 133 31l26 -44
c-14 -15 -46 -41 -72 -60c-50 -37 -77 -72 -77 -106c0 -36 23 -48 46 -48c18 0 34 5 54 17zM291 460c-43 0 -61 -35 -68 -154h126c0 120 -15 154 -58 154z" />
    <glyph glyph-name="Ecaron" unicode="&#x11a;" horiz-adv-x="605" 
d="M25 0v50c47 0 64 13 64 70v454c0 57 -17 70 -64 70v53h514l12 -177h-88c-22 76 -31 97 -107 97h-84v-230h48c62 0 77 14 81 71h77v-218h-77c-4 54 -18 71 -80 71h-49v-237h105c62 0 89 23 97 116h89v-190h-538zM306 880l157 75l25 -40l-182 -183l-182 183l25 40z" />
    <glyph glyph-name="ecaron" unicode="&#x11b;" horiz-adv-x="549" 
d="M351 85c42 0 87 9 133 31l26 -44c-57 -59 -126 -85 -222 -85c-161 0 -253 99 -253 272c0 171 100 270 254 270c170 0 230 -96 230 -250v-49h-297c4 -100 37 -145 129 -145zM291 460c-43 0 -61 -35 -68 -154h126c0 120 -15 154 -58 154zM289 700l157 75l25 -40l-182 -183
l-182 183l25 40z" />
    <glyph glyph-name="Gcircumflex" unicode="&#x11c;" horiz-adv-x="717" 
d="M449 82v149c0 57 -15 70 -76 70v53h324v-53c-48 0 -66 -13 -66 -70v-173c-61 -50 -170 -71 -263 -71c-207 0 -328 122 -328 350c0 264 139 372 342 372c96 0 172 -18 226 -51v-146h-127c-15 76 -36 116 -101 116c-87 0 -135 -57 -135 -283c0 -242 55 -281 128 -281
c39 0 60 6 76 18zM551 732l-157 75l-157 -75l-25 40l182 183l182 -183z" />
    <glyph glyph-name="gcircumflex" unicode="&#x11d;" horiz-adv-x="559" 
d="M258 -202c-143 0 -248 29 -248 103c0 32 23 59 52 70h124c-10 -18 -13 -28 -13 -46c0 -45 28 -60 93 -60c78 0 107 23 107 70c0 45 -32 58 -119 62c-44 2 -107 5 -129 8c-56 7 -78 44 -78 91c0 54 44 97 118 114c-86 17 -136 68 -136 149c0 112 90 170 226 170
c51 0 85 -12 115 -19c23 -5 25 -7 50 -7c37 0 82 29 110 56l59 -108c-28 -21 -56 -33 -87 -33c-24 0 -43 3 -65 11c24 -15 40 -41 40 -81c0 -70 -38 -151 -238 -151h-7c-15 -9 -24 -17 -24 -30c0 -12 6 -21 24 -22l98 -6c133 -8 199 -44 199 -152
c0 -139 -113 -189 -271 -189zM255 262c39 0 57 27 57 95c0 80 -17 104 -57 104c-37 0 -56 -26 -56 -101c0 -70 20 -98 56 -98zM422 552l-157 75l-157 -75l-25 40l182 183l182 -183z" />
    <glyph glyph-name="Gbreve" unicode="&#x11e;" horiz-adv-x="717" 
d="M449 82v149c0 57 -15 70 -76 70v53h324v-53c-48 0 -66 -13 -66 -70v-173c-61 -50 -170 -71 -263 -71c-207 0 -328 122 -328 350c0 264 139 372 342 372c96 0 172 -18 226 -51v-146h-127c-15 76 -36 116 -101 116c-87 0 -135 -57 -135 -283c0 -242 55 -281 128 -281
c39 0 60 6 76 18zM394 744c-107 0 -153 92 -172 174l40 22c32 -48 70 -83 132 -83s100 35 132 83l40 -22c-19 -82 -65 -174 -172 -174z" />
    <glyph glyph-name="gbreve" unicode="&#x11f;" horiz-adv-x="559" 
d="M258 -202c-143 0 -248 29 -248 103c0 32 23 59 52 70h124c-10 -18 -13 -28 -13 -46c0 -45 28 -60 93 -60c78 0 107 23 107 70c0 45 -32 58 -119 62c-44 2 -107 5 -129 8c-56 7 -78 44 -78 91c0 54 44 97 118 114c-86 17 -136 68 -136 149c0 112 90 170 226 170
c51 0 85 -12 115 -19c23 -5 25 -7 50 -7c37 0 82 29 110 56l59 -108c-28 -21 -56 -33 -87 -33c-24 0 -43 3 -65 11c24 -15 40 -41 40 -81c0 -70 -38 -151 -238 -151h-7c-15 -9 -24 -17 -24 -30c0 -12 6 -21 24 -22l98 -6c133 -8 199 -44 199 -152
c0 -139 -113 -189 -271 -189zM255 262c39 0 57 27 57 95c0 80 -17 104 -57 104c-37 0 -56 -26 -56 -101c0 -70 20 -98 56 -98zM265 564c-107 0 -153 92 -172 174l40 22c32 -48 70 -83 132 -83s100 35 132 83l40 -22c-19 -82 -65 -174 -172 -174z" />
    <glyph glyph-name="Gdotaccent" unicode="&#x120;" horiz-adv-x="717" 
d="M449 82v149c0 57 -15 70 -76 70v53h324v-53c-48 0 -66 -13 -66 -70v-173c-61 -50 -170 -71 -263 -71c-207 0 -328 122 -328 350c0 264 139 372 342 372c96 0 172 -18 226 -51v-146h-127c-15 76 -36 116 -101 116c-87 0 -135 -57 -135 -283c0 -242 55 -281 128 -281
c39 0 60 6 76 18zM490 836c0 -51 -43 -93 -96 -93c-52 0 -95 42 -95 93c0 52 44 94 97 94s94 -42 94 -94z" />
    <glyph glyph-name="gdotaccent" unicode="&#x121;" horiz-adv-x="559" 
d="M258 -202c-143 0 -248 29 -248 103c0 32 23 59 52 70h124c-10 -18 -13 -28 -13 -46c0 -45 28 -60 93 -60c78 0 107 23 107 70c0 45 -32 58 -119 62c-44 2 -107 5 -129 8c-56 7 -78 44 -78 91c0 54 44 97 118 114c-86 17 -136 68 -136 149c0 112 90 170 226 170
c51 0 85 -12 115 -19c23 -5 25 -7 50 -7c37 0 82 29 110 56l59 -108c-28 -21 -56 -33 -87 -33c-24 0 -43 3 -65 11c24 -15 40 -41 40 -81c0 -70 -38 -151 -238 -151h-7c-15 -9 -24 -17 -24 -30c0 -12 6 -21 24 -22l98 -6c133 -8 199 -44 199 -152
c0 -139 -113 -189 -271 -189zM255 262c39 0 57 27 57 95c0 80 -17 104 -57 104c-37 0 -56 -26 -56 -101c0 -70 20 -98 56 -98zM361 656c0 -51 -43 -93 -96 -93c-52 0 -95 42 -95 93c0 52 44 94 97 94s94 -42 94 -94z" />
    <glyph glyph-name="Gcommaaccent" unicode="&#x122;" horiz-adv-x="717" 
d="M449 82v149c0 57 -15 70 -76 70v53h324v-53c-48 0 -66 -13 -66 -70v-173c-61 -50 -170 -71 -263 -71c-207 0 -328 122 -328 350c0 264 139 372 342 372c96 0 172 -18 226 -51v-146h-127c-15 76 -36 116 -101 116c-87 0 -135 -57 -135 -283c0 -242 55 -281 128 -281
c39 0 60 6 76 18zM489 -143c0 -87 -78 -130 -162 -147l-28 38c54 17 75 28 75 53c0 13 -6 19 -26 28c-22 9 -40 26 -40 63c0 40 33 72 84 72c61 0 97 -43 97 -107z" />
    <glyph glyph-name="gcommaaccent" unicode="&#x123;" horiz-adv-x="559" 
d="M258 -202c-143 0 -248 29 -248 103c0 32 23 59 52 70h124c-10 -18 -13 -28 -13 -46c0 -45 28 -60 93 -60c78 0 107 23 107 70c0 45 -32 58 -119 62c-44 2 -107 5 -129 8c-56 7 -78 44 -78 91c0 54 44 97 118 114c-86 17 -136 68 -136 149c0 112 90 170 226 170
c51 0 85 -12 115 -19c23 -5 25 -7 50 -7c37 0 82 29 110 56l59 -108c-28 -21 -56 -33 -87 -33c-24 0 -43 3 -65 11c24 -15 40 -41 40 -81c0 -70 -38 -151 -238 -151h-7c-15 -9 -24 -17 -24 -30c0 -12 6 -21 24 -22l98 -6c133 -8 199 -44 199 -152
c0 -139 -113 -189 -271 -189zM255 262c39 0 57 27 57 95c0 80 -17 104 -57 104c-37 0 -56 -26 -56 -101c0 -70 20 -98 56 -98zM170 678c0 87 78 130 162 147l28 -38c-54 -17 -75 -28 -75 -53c0 -13 6 -19 26 -28c22 -9 40 -26 40 -63c0 -40 -33 -72 -84 -72
c-61 0 -97 43 -97 107z" />
    <glyph glyph-name="Hcircumflex" unicode="&#x124;" horiz-adv-x="762" 
d="M490 120v190h-218v-190c0 -57 17 -70 64 -70v-50h-311v50c47 0 64 13 64 70v454c0 57 -17 70 -64 70v53h311v-53c-47 0 -64 -13 -64 -70v-179h218v179c0 57 -17 70 -64 70v53h311v-53c-47 0 -64 -13 -64 -70v-454c0 -57 17 -70 64 -70v-50h-311v50c47 0 64 13 64 70z
M538 732l-157 75l-157 -75l-25 40l182 183l182 -183z" />
    <glyph glyph-name="hcircumflex" unicode="&#x125;" horiz-adv-x="635" 
d="M247 636v-192c44 50 93 85 172 85c83 0 149 -49 149 -159v-250c0 -57 10 -70 57 -70v-50h-287v50c47 0 57 13 57 70v208c0 61 -24 81 -63 81c-38 0 -65 -15 -85 -27v-262c0 -57 10 -70 57 -70v-50h-287v50c47 0 57 13 57 70v456c0 73 -13 83 -59 85v49l196 26h15
c11 -15 21 -45 21 -100zM477 760l-157 75l-157 -75l-25 40l182 183l182 -183z" />
    <glyph glyph-name="Hbar" unicode="&#x126;" horiz-adv-x="762" 
d="M25 482v71h64v21c0 57 -17 70 -64 70v53h311v-53c-47 0 -64 -13 -64 -70v-21h218v21c0 57 -17 70 -64 70v53h311v-53c-47 0 -64 -13 -64 -70v-21h64v-71h-64v-362c0 -57 17 -70 64 -70v-50h-311v50c47 0 64 13 64 70v190h-218v-190c0 -57 17 -70 64 -70v-50h-311v50
c47 0 64 13 64 70v362h-64zM272 395h218v87h-218v-87z" />
    <glyph glyph-name="hbar" unicode="&#x127;" horiz-adv-x="635" 
d="M247 636v-22h161v-47h-161v-123c44 50 93 85 172 85c83 0 149 -49 149 -159v-250c0 -57 10 -70 57 -70v-50h-287v50c47 0 57 13 57 70v208c0 61 -24 81 -63 81c-38 0 -65 -15 -85 -27v-262c0 -57 10 -70 57 -70v-50h-287v50c47 0 57 13 57 70v447h-59v47h59
c0 42 -15 47 -59 47v49l196 26h15c4 -5 21 -31 21 -100z" />
    <glyph glyph-name="Itilde" unicode="&#x128;" horiz-adv-x="361" 
d="M89 120v454c0 57 -17 70 -64 70v53h311v-53c-47 0 -64 -13 -64 -70v-454c0 -57 17 -70 64 -70v-50h-311v50c47 0 64 13 64 70zM251 873c29 0 57 9 75 47l38 -17c-18 -79 -62 -143 -119 -143c-58 0 -95 32 -139 32c-31 0 -54 -12 -73 -49l-36 16c10 79 56 149 115 149
c58 0 89 -35 139 -35z" />
    <glyph glyph-name="itilde" unicode="&#x129;" horiz-adv-x="327" 
d="M312 0h-287v50c47 0 57 13 57 70v235c0 73 -9 83 -55 85v49l203 33h25v-402c0 -57 10 -70 57 -70v-50zM239 693c29 0 57 9 75 47l38 -17c-18 -79 -62 -143 -119 -143c-58 0 -95 32 -139 32c-31 0 -54 -12 -73 -49l-36 16c10 79 56 149 115 149c58 0 89 -35 139 -35z" />
    <glyph glyph-name="Imacron" unicode="&#x12a;" horiz-adv-x="361" 
d="M89 120v454c0 57 -17 70 -64 70v53h311v-53c-47 0 -64 -13 -64 -70v-454c0 -57 17 -70 64 -70v-50h-311v50c47 0 64 13 64 70zM339 775h-317v87h317v-87z" />
    <glyph glyph-name="imacron" unicode="&#x12b;" horiz-adv-x="327" 
d="M312 0h-287v50c47 0 57 13 57 70v235c0 73 -9 83 -55 85v49l203 33h25v-402c0 -57 10 -70 57 -70v-50zM288 605h-261v87h261v-87z" />
    <glyph glyph-name="Ibreve" unicode="&#x12c;" horiz-adv-x="361" 
d="M89 120v454c0 57 -17 70 -64 70v53h311v-53c-47 0 -64 -13 -64 -70v-454c0 -57 17 -70 64 -70v-50h-311v50c47 0 64 13 64 70zM180 744c-107 0 -153 92 -172 174l40 22c32 -48 70 -83 132 -83s100 35 132 83l40 -22c-19 -82 -65 -174 -172 -174z" />
    <glyph glyph-name="ibreve" unicode="&#x12d;" horiz-adv-x="327" 
d="M312 0h-287v50c47 0 57 13 57 70v235c0 73 -9 83 -55 85v49l203 33h25v-402c0 -57 10 -70 57 -70v-50zM168 564c-107 0 -153 92 -172 174l40 22c32 -48 70 -83 132 -83s100 35 132 83l40 -22c-19 -82 -65 -174 -172 -174z" />
    <glyph glyph-name="Iogonek" unicode="&#x12e;" horiz-adv-x="361" 
d="M316 -125l16 -32c-34 -35 -81 -48 -130 -48c-63 0 -125 22 -125 91c0 53 33 82 106 114h-158v50c47 0 64 13 64 70v454c0 57 -17 70 -64 70v53h311v-53c-47 0 -64 -13 -64 -70v-454c0 -57 17 -70 64 -70v-50h-24c-53 0 -96 -48 -96 -94c0 -36 23 -48 46 -48
c18 0 34 5 54 17z" />
    <glyph glyph-name="iogonek" unicode="&#x12f;" horiz-adv-x="327" 
d="M303 -125l16 -32c-34 -35 -81 -48 -130 -48c-63 0 -125 22 -125 91c0 53 33 82 106 114h-145v50c47 0 57 13 57 70v235c0 73 -9 83 -55 85v49l203 33h25v-402c0 -57 10 -70 57 -70v-50c-68 -6 -109 -56 -109 -94c0 -36 23 -48 46 -48c18 0 34 5 54 17zM263 652
c0 -54 -45 -98 -101 -98c-54 0 -99 44 -99 98s46 98 102 98c55 0 98 -44 98 -98z" />
    <glyph glyph-name="Idotaccent" unicode="&#x130;" horiz-adv-x="361" 
d="M89 120v454c0 57 -17 70 -64 70v53h311v-53c-47 0 -64 -13 -64 -70v-454c0 -57 17 -70 64 -70v-50h-311v50c47 0 64 13 64 70zM276 836c0 -51 -43 -93 -96 -93c-52 0 -95 42 -95 93c0 52 44 94 97 94s94 -42 94 -94z" />
    <glyph glyph-name="dotlessi" unicode="&#x131;" horiz-adv-x="327" 
d="M312 0h-287v50c47 0 57 13 57 70v235c0 73 -9 83 -55 85v49l203 33h25v-402c0 -57 10 -70 57 -70v-50z" />
    <glyph glyph-name="IJ" unicode="&#x132;" horiz-adv-x="722" 
d="M89 120v454c0 57 -17 70 -64 70v53h311v-53c-47 0 -64 -13 -64 -70v-454c0 -57 17 -70 64 -70v-50h-311v50c47 0 64 13 64 70zM450 100v474c0 57 -17 70 -64 70v53h311v-53c-47 0 -64 -13 -64 -70v-467c0 -164 -106 -229 -277 -254l-26 49c105 48 120 87 120 198z" />
    <glyph glyph-name="ij" unicode="&#x133;" horiz-adv-x="648" 
d="M312 0h-287v50c47 0 57 13 57 70v235c0 73 -9 83 -55 85v49l203 33h25v-402c0 -57 10 -70 57 -70v-50zM263 652c0 -54 -45 -98 -101 -98c-54 0 -99 44 -99 98s46 98 102 98c55 0 98 -44 98 -98zM407 18v337c0 73 -9 83 -55 85v49l203 33h25v-504
c0 -149 -129 -209 -224 -224l-29 46c61 28 80 75 80 178zM588 652c0 -54 -45 -98 -101 -98c-54 0 -99 44 -99 98s46 98 102 98c55 0 98 -44 98 -98z" />
    <glyph glyph-name="Jcircumflex" unicode="&#x134;" horiz-adv-x="361" 
d="M89 100v474c0 57 -17 70 -64 70v53h311v-53c-47 0 -64 -13 -64 -70v-467c0 -164 -106 -229 -277 -254l-26 49c105 48 120 87 120 198zM335 732l-157 75l-157 -75l-25 40l182 183l182 -183z" />
    <glyph glyph-name="jcircumflex" unicode="&#x135;" horiz-adv-x="321" 
d="M80 18v337c0 73 -9 83 -55 85v49l203 33h25v-504c0 -149 -129 -209 -224 -224l-29 46c61 28 80 75 80 178zM319 552l-157 75l-157 -75l-25 40l182 183l182 -183z" />
    <glyph glyph-name="Kcommaaccent" unicode="&#x136;" horiz-adv-x="711" 
d="M89 120v454c0 57 -17 70 -64 70v53h311v-53c-47 0 -64 -13 -64 -70v-454c0 -57 17 -70 64 -70v-50h-311v50c47 0 64 13 64 70zM583 588l-137 -175l169 -314c21 -39 42 -46 81 -49v-50h-230l-178 340l192 259c5 7 8 15 8 21c0 14 -12 26 -38 26v51h229v-51
c-40 -5 -66 -20 -96 -58zM455 -143c0 -87 -78 -130 -162 -147l-28 38c54 17 75 28 75 53c0 13 -6 19 -26 28c-22 9 -40 26 -40 63c0 40 33 72 84 72c61 0 97 -43 97 -107z" />
    <glyph glyph-name="kcommaaccent" unicode="&#x137;" horiz-adv-x="612" 
d="M17 0v50c47 0 57 13 57 70v456c0 73 -13 83 -59 85v49l196 26h15c4 -5 21 -31 21 -100v-516c0 -57 10 -70 57 -70v-50h-287zM398 0l-143 259l125 142c31 35 16 64 -32 64v51h245v-51c-40 -5 -65 -19 -99 -56l-88 -95l126 -212c27 -45 47 -48 80 -52v-50h-214zM408 -143
c0 -87 -78 -130 -162 -147l-28 38c54 17 75 28 75 53c0 13 -6 19 -26 28c-22 9 -40 26 -40 63c0 40 33 72 84 72c61 0 97 -43 97 -107z" />
    <glyph glyph-name="kgreenlandic" unicode="&#x138;" horiz-adv-x="622" 
d="M504 409l-88 -95l126 -212c27 -45 47 -48 80 -52v-50h-214l-143 259l125 142c11 12 16 24 16 34c0 18 -17 30 -48 30v51h245v-51c-40 -5 -65 -19 -99 -56zM312 0h-287v50c47 0 57 13 57 70v235c0 73 -9 83 -55 85v49l203 33h25v-402c0 -57 10 -70 57 -70v-50z" />
    <glyph glyph-name="Lacute" unicode="&#x139;" horiz-adv-x="570" 
d="M272 574v-500h72c62 0 100 29 118 128h91l-14 -202h-514v50c47 0 64 13 64 70v454c0 57 -17 70 -64 70v53h311v-53c-47 0 -64 -13 -64 -70zM82 727l-25 39l211 180l74 -146z" />
    <glyph glyph-name="lacute" unicode="&#x13a;" horiz-adv-x="319" 
d="M247 636v-516c0 -57 10 -70 57 -70v-50h-287v50c47 0 57 13 57 70v456c0 73 -13 83 -59 85v49l196 26h15c4 -5 21 -31 21 -100zM47 737l-25 39l211 180l74 -146z" />
    <glyph glyph-name="Lcommaaccent" unicode="&#x13b;" horiz-adv-x="570" 
d="M272 574v-500h72c62 0 100 29 118 128h91l-14 -202h-514v50c47 0 64 13 64 70v454c0 57 -17 70 -64 70v53h311v-53c-47 0 -64 -13 -64 -70zM384 -143c0 -87 -78 -130 -162 -147l-28 38c54 17 75 28 75 53c0 13 -6 19 -26 28c-22 9 -40 26 -40 63c0 40 33 72 84 72
c61 0 97 -43 97 -107z" />
    <glyph glyph-name="lcommaaccent" unicode="&#x13c;" horiz-adv-x="319" 
d="M247 636v-516c0 -57 10 -70 57 -70v-50h-287v50c47 0 57 13 57 70v456c0 73 -13 83 -59 85v49l196 26h15c4 -5 21 -31 21 -100zM254 -143c0 -87 -78 -130 -162 -147l-28 38c54 17 75 28 75 53c0 13 -6 19 -26 28c-22 9 -40 26 -40 63c0 40 33 72 84 72
c61 0 97 -43 97 -107z" />
    <glyph glyph-name="Lcaron" unicode="&#x13d;" horiz-adv-x="570" 
d="M272 574v-500h72c62 0 100 29 118 128h91l-14 -202h-514v50c47 0 64 13 64 70v454c0 57 -17 70 -64 70v53h311v-53c-47 0 -64 -13 -64 -70zM531 728l-69 -172l-67 8l12 176z" />
    <glyph glyph-name="lcaron" unicode="&#x13e;" horiz-adv-x="319" 
d="M247 636v-516c0 -57 10 -70 57 -70v-50h-287v50c47 0 57 13 57 70v456c0 73 -13 83 -59 85v49l196 26h15c4 -5 21 -31 21 -100zM419 728l-69 -172l-67 8l12 176z" />
    <glyph glyph-name="Ldot" unicode="&#x13f;" horiz-adv-x="570" 
d="M272 574v-500h72c62 0 100 29 118 128h91l-14 -202h-514v50c47 0 64 13 64 70v454c0 57 -17 70 -64 70v53h311v-53c-47 0 -64 -13 -64 -70zM570 383c0 -56 -45 -100 -100 -100c-54 0 -98 44 -98 100c0 53 44 97 98 97c55 0 100 -44 100 -97z" />
    <glyph glyph-name="ldot" unicode="&#x140;" horiz-adv-x="471" 
d="M247 636v-516c0 -57 10 -70 57 -70v-50h-287v50c47 0 57 13 57 70v456c0 73 -13 83 -59 85v49l196 26h15c4 -5 21 -31 21 -100zM488 359c0 -53 -44 -96 -97 -96c-52 0 -95 43 -95 96c0 51 43 95 95 95c53 0 97 -44 97 -95z" />
    <glyph glyph-name="Lslash" unicode="&#x141;" horiz-adv-x="570" 
d="M272 574v-194l188 68v-63l-188 -68v-243h72c62 0 100 29 118 128h91l-14 -202h-514v50c47 0 64 13 64 70v132l-64 -23v62l64 23v260c0 57 -17 70 -64 70v53h311v-53c-47 0 -64 -13 -64 -70z" />
    <glyph glyph-name="lslash" unicode="&#x142;" horiz-adv-x="336" 
d="M15 347l69 29v200c0 73 -13 83 -59 85v49l196 26h15c4 -5 21 -31 21 -100v-185l74 32v-61l-74 -32v-270c0 -57 10 -70 57 -70v-50h-287v50c47 0 57 13 57 70v196l-69 -29v60z" />
    <glyph glyph-name="Nacute" unicode="&#x143;" horiz-adv-x="712" 
d="M541 401v173c0 57 -17 70 -64 70v53h220v-53c-47 0 -64 -13 -64 -70v-574h-130l-242 368c-44 67 -72 120 -83 140h-3c2 -21 8 -90 8 -140v-248c0 -57 17 -70 64 -70v-50h-222v50c47 0 64 13 64 70v454c0 57 -17 70 -64 70v53h260l194 -296c32 -49 54 -97 66 -125h4
c-2 20 -8 81 -8 125zM249 727l-25 39l211 180l74 -146z" />
    <glyph glyph-name="nacute" unicode="&#x144;" horiz-adv-x="643" 
d="M576 370v-250c0 -57 10 -70 57 -70v-50h-287v50c47 0 57 13 57 70v208c0 61 -24 81 -63 81c-38 0 -65 -15 -85 -27v-262c0 -57 10 -70 57 -70v-50h-287v50c47 0 57 13 57 70v235c0 73 -9 83 -55 85v49l176 40h15c6 -8 29 -49 33 -91c43 50 97 91 176 91
c83 0 149 -49 149 -159zM217 554l-28 36l192 200l88 -139z" />
    <glyph glyph-name="Ncommaaccent" unicode="&#x145;" horiz-adv-x="712" 
d="M541 401v173c0 57 -17 70 -64 70v53h220v-53c-47 0 -64 -13 -64 -70v-574h-130l-242 368c-44 67 -72 120 -83 140h-3c2 -21 8 -90 8 -140v-248c0 -57 17 -70 64 -70v-50h-222v50c47 0 64 13 64 70v454c0 57 -17 70 -64 70v53h260l194 -296c32 -49 54 -97 66 -125h4
c-2 20 -8 81 -8 125zM456 -143c0 -87 -78 -130 -162 -147l-28 38c54 17 75 28 75 53c0 13 -6 19 -26 28c-22 9 -40 26 -40 63c0 40 33 72 84 72c61 0 97 -43 97 -107z" />
    <glyph glyph-name="ncommaaccent" unicode="&#x146;" horiz-adv-x="643" 
d="M576 370v-250c0 -57 10 -70 57 -70v-50h-287v50c47 0 57 13 57 70v208c0 61 -24 81 -63 81c-38 0 -65 -15 -85 -27v-262c0 -57 10 -70 57 -70v-50h-287v50c47 0 57 13 57 70v235c0 73 -9 83 -55 85v49l176 40h15c6 -8 29 -49 33 -91c43 50 97 91 176 91
c83 0 149 -49 149 -159zM424 -143c0 -87 -78 -130 -162 -147l-28 38c54 17 75 28 75 53c0 13 -6 19 -26 28c-22 9 -40 26 -40 63c0 40 33 72 84 72c61 0 97 -43 97 -107z" />
    <glyph glyph-name="Ncaron" unicode="&#x147;" horiz-adv-x="712" 
d="M541 401v173c0 57 -17 70 -64 70v53h220v-53c-47 0 -64 -13 -64 -70v-574h-130l-242 368c-44 67 -72 120 -83 140h-3c2 -21 8 -90 8 -140v-248c0 -57 17 -70 64 -70v-50h-222v50c47 0 64 13 64 70v454c0 57 -17 70 -64 70v53h260l194 -296c32 -49 54 -97 66 -125h4
c-2 20 -8 81 -8 125zM361 880l157 75l25 -40l-182 -183l-182 183l25 40z" />
    <glyph glyph-name="ncaron" unicode="&#x148;" horiz-adv-x="643" 
d="M576 370v-250c0 -57 10 -70 57 -70v-50h-287v50c47 0 57 13 57 70v208c0 61 -24 81 -63 81c-38 0 -65 -15 -85 -27v-262c0 -57 10 -70 57 -70v-50h-287v50c47 0 57 13 57 70v235c0 73 -9 83 -55 85v49l176 40h15c6 -8 29 -49 33 -91c43 50 97 91 176 91
c83 0 149 -49 149 -159zM329 700l157 75l25 -40l-182 -183l-182 183l25 40z" />
    <glyph glyph-name="napostrophe" unicode="&#x149;" horiz-adv-x="931" 
d="M243 588c0 -109 -64 -178 -194 -202l-34 44c74 20 111 42 111 77c0 25 -10 33 -37 44c-25 11 -52 30 -52 74c0 48 39 88 96 88c64 0 110 -53 110 -125zM864 370v-250c0 -57 10 -70 57 -70v-50h-287v50c47 0 57 13 57 70v208c0 61 -24 81 -63 81c-38 0 -65 -15 -85 -27
v-262c0 -57 10 -70 57 -70v-50h-287v50c47 0 57 13 57 70v235c0 73 -9 83 -55 85v49l176 40h15c6 -8 29 -49 33 -91c43 50 97 91 176 91c83 0 149 -49 149 -159z" />
    <glyph glyph-name="Eng" unicode="&#x14a;" horiz-adv-x="712" 
d="M495 15l-234 353c-39 60 -75 125 -83 140h-3c2 -18 8 -96 8 -140v-248c0 -57 17 -70 64 -70v-50h-222v50c47 0 64 13 64 70v454c0 57 -17 70 -64 70v53h260l194 -296c32 -49 57 -105 66 -125h4c-2 15 -8 79 -8 125v173c0 57 -17 70 -64 70v53h220v-53
c-47 0 -64 -13 -64 -70v-499c0 -162 -70 -237 -229 -264l-29 45c76 32 119 83 120 159z" />
    <glyph glyph-name="eng" unicode="&#x14b;" horiz-adv-x="633" 
d="M403 18v310c0 61 -24 81 -63 81c-38 0 -65 -15 -85 -27v-262c0 -57 10 -70 57 -70v-50h-287v50c47 0 57 13 57 70v235c0 73 -9 83 -55 85v49l176 40h15c6 -8 29 -49 33 -91c43 50 97 91 176 91c83 0 149 -49 149 -159v-352c0 -149 -129 -209 -224 -224l-29 46
c61 28 80 75 80 178z" />
    <glyph glyph-name="Omacron" unicode="&#x14c;" horiz-adv-x="720" 
d="M360 -12c-202 0 -320 121 -320 349c0 264 136 372 320 372s320 -108 320 -372c0 -228 -118 -349 -320 -349zM360 628c-78 0 -116 -57 -116 -283c0 -242 45 -284 116 -284s116 42 116 287c0 223 -38 280 -116 280zM519 775h-317v87h317v-87z" />
    <glyph glyph-name="omacron" unicode="&#x14d;" horiz-adv-x="598" 
d="M563 271c0 -204 -127 -284 -268 -284c-167 0 -260 98 -260 269c0 161 101 273 271 273c145 0 257 -73 257 -258zM373 278c0 141 -25 181 -74 181c-47 0 -74 -38 -74 -210c0 -136 14 -195 76 -195c48 0 72 59 72 224zM455 605h-311v87h311v-87z" />
    <glyph glyph-name="Obreve" unicode="&#x14e;" horiz-adv-x="720" 
d="M360 -12c-202 0 -320 121 -320 349c0 264 136 372 320 372s320 -108 320 -372c0 -228 -118 -349 -320 -349zM360 628c-78 0 -116 -57 -116 -283c0 -242 45 -284 116 -284s116 42 116 287c0 223 -38 280 -116 280zM360 744c-107 0 -153 92 -172 174l40 22
c32 -48 70 -83 132 -83s100 35 132 83l40 -22c-19 -82 -65 -174 -172 -174z" />
    <glyph glyph-name="obreve" unicode="&#x14f;" horiz-adv-x="598" 
d="M563 271c0 -204 -127 -284 -268 -284c-167 0 -260 98 -260 269c0 161 101 273 271 273c145 0 257 -73 257 -258zM373 278c0 141 -25 181 -74 181c-47 0 -74 -38 -74 -210c0 -136 14 -195 76 -195c48 0 72 59 72 224zM299 564c-107 0 -153 92 -172 174l40 22
c32 -48 70 -83 132 -83s100 35 132 83l40 -22c-19 -82 -65 -174 -172 -174z" />
    <glyph glyph-name="Ohungarumlaut" unicode="&#x150;" horiz-adv-x="720" 
d="M360 -12c-202 0 -320 121 -320 349c0 264 136 372 320 372s320 -108 320 -372c0 -228 -118 -349 -320 -349zM360 628c-78 0 -116 -57 -116 -283c0 -242 45 -284 116 -284s116 42 116 287c0 223 -38 280 -116 280zM440 940l-141 -200l-52 21l60 228zM618 906l-161 -176
l-46 26l82 224z" />
    <glyph glyph-name="ohungarumlaut" unicode="&#x151;" horiz-adv-x="598" 
d="M563 271c0 -204 -127 -284 -268 -284c-167 0 -260 98 -260 269c0 161 101 273 271 273c145 0 257 -73 257 -258zM373 278c0 141 -25 181 -74 181c-47 0 -74 -38 -74 -210c0 -136 14 -195 76 -195c48 0 72 59 72 224zM379 760l-141 -200l-52 21l60 228zM557 726l-161 -176
l-46 26l82 224z" />
    <glyph glyph-name="OE" unicode="&#x152;" horiz-adv-x="1003" 
d="M429 74h58v543h-62c-112 0 -189 -48 -189 -278c0 -224 78 -265 193 -265zM403 697h534l12 -177h-88c-22 76 -31 97 -107 97h-84v-230h48c62 0 77 14 81 71h77v-218h-77c-4 54 -18 71 -80 71h-49v-237h105c62 0 89 23 97 116h89v-190h-553c-215 0 -368 111 -368 344
c0 257 159 353 363 353z" />
    <glyph glyph-name="oe" unicode="&#x153;" horiz-adv-x="889" 
d="M691 85c42 0 87 9 133 31l26 -44c-57 -59 -126 -85 -222 -85c-68 0 -134 24 -165 60c-41 -40 -106 -60 -168 -60c-167 0 -260 98 -260 269c0 161 101 273 271 273c64 0 128 -23 166 -60c37 38 95 60 157 60c170 0 230 -96 230 -250v-49h-297c4 -100 37 -145 129 -145z
M373 278c0 141 -25 181 -74 181c-47 0 -74 -38 -74 -210c0 -136 14 -195 76 -195c48 0 72 59 72 224zM631 460c-43 0 -61 -35 -68 -154h126c0 120 -15 154 -58 154z" />
    <glyph glyph-name="Racute" unicode="&#x154;" horiz-adv-x="684" 
d="M430 306v-4c49 -13 92 -42 113 -73c26 -38 36 -58 65 -121c17 -38 25 -56 71 -58v-50h-225c-43 110 -46 118 -84 193c-34 65 -51 78 -98 85v-158c0 -57 17 -70 64 -70v-50h-311v50c47 0 64 13 64 70v454c0 57 -17 70 -64 70v53h347c141 0 245 -58 245 -206
c0 -126 -84 -176 -187 -185zM422 491c0 91 -29 126 -96 126h-54v-255h54c70 0 96 24 96 129zM240 727l-25 39l211 180l74 -146z" />
    <glyph glyph-name="racute" unicode="&#x155;" horiz-adv-x="432" 
d="M254 396c20 93 92 133 147 133c17 0 33 -4 41 -7l-31 -173c-22 6 -37 9 -65 9c-73 0 -91 -21 -91 -91v-147c0 -57 12 -70 77 -70v-50h-307v50c47 0 57 13 57 70v235c0 73 -9 83 -55 85v49l176 40h15c7 -11 33 -62 36 -133zM144 554l-28 36l192 200l88 -139z" />
    <glyph glyph-name="Rcommaaccent" unicode="&#x156;" horiz-adv-x="684" 
d="M430 306v-4c49 -13 92 -42 113 -73c26 -38 36 -58 65 -121c17 -38 25 -56 71 -58v-50h-225c-43 110 -46 118 -84 193c-34 65 -51 78 -98 85v-158c0 -57 17 -70 64 -70v-50h-311v50c47 0 64 13 64 70v454c0 57 -17 70 -64 70v53h347c141 0 245 -58 245 -206
c0 -126 -84 -176 -187 -185zM422 491c0 91 -29 126 -96 126h-54v-255h54c70 0 96 24 96 129zM447 -143c0 -87 -78 -130 -162 -147l-28 38c54 17 75 28 75 53c0 13 -6 19 -26 28c-22 9 -40 26 -40 63c0 40 33 72 84 72c61 0 97 -43 97 -107z" />
    <glyph glyph-name="rcommaaccent" unicode="&#x157;" horiz-adv-x="432" 
d="M254 396c20 93 92 133 147 133c17 0 33 -4 41 -7l-31 -173c-22 6 -37 9 -65 9c-73 0 -91 -21 -91 -91v-147c0 -57 12 -70 77 -70v-50h-307v50c47 0 57 13 57 70v235c0 73 -9 83 -55 85v49l176 40h15c7 -11 33 -62 36 -133zM259 -143c0 -87 -78 -130 -162 -147l-28 38
c54 17 75 28 75 53c0 13 -6 19 -26 28c-22 9 -40 26 -40 63c0 40 33 72 84 72c61 0 97 -43 97 -107z" />
    <glyph glyph-name="Rcaron" unicode="&#x158;" horiz-adv-x="684" 
d="M430 306v-4c49 -13 92 -42 113 -73c26 -38 36 -58 65 -121c17 -38 25 -56 71 -58v-50h-225c-43 110 -46 118 -84 193c-34 65 -51 78 -98 85v-158c0 -57 17 -70 64 -70v-50h-311v50c47 0 64 13 64 70v454c0 57 -17 70 -64 70v53h347c141 0 245 -58 245 -206
c0 -126 -84 -176 -187 -185zM422 491c0 91 -29 126 -96 126h-54v-255h54c70 0 96 24 96 129zM320 880l157 75l25 -40l-182 -183l-182 183l25 40z" />
    <glyph glyph-name="rcaron" unicode="&#x159;" horiz-adv-x="432" 
d="M254 396c20 93 92 133 147 133c17 0 33 -4 41 -7l-31 -173c-22 6 -37 9 -65 9c-73 0 -91 -21 -91 -91v-147c0 -57 12 -70 77 -70v-50h-307v50c47 0 57 13 57 70v235c0 73 -9 83 -55 85v49l176 40h15c7 -11 33 -62 36 -133zM256 700l157 75l25 -40l-182 -183l-182 183
l25 40z" />
    <glyph glyph-name="Sacute" unicode="&#x15a;" horiz-adv-x="556" 
d="M254 -14c-120 0 -181 29 -229 57v137h119c9 -94 52 -130 116 -130c62 0 106 27 106 103c0 53 -23 86 -97 105l-72 19c-107 27 -171 80 -171 208c0 153 100 224 249 224c111 0 181 -32 213 -48v-150h-118c-8 77 -32 128 -107 128c-60 0 -86 -35 -86 -88
c0 -45 19 -79 86 -95l68 -16c117 -28 195 -93 195 -225c0 -149 -98 -229 -272 -229zM171 727l-25 39l211 180l74 -146z" />
    <glyph glyph-name="sacute" unicode="&#x15b;" horiz-adv-x="482" 
d="M225 -13c-112 0 -165 28 -195 43v113h112c8 -71 48 -88 96 -88c45 0 75 17 75 53s-21 52 -63 61l-85 18c-87 18 -134 73 -134 162c0 122 96 180 212 180c94 0 154 -24 182 -36v-113h-104c-7 58 -43 76 -92 76c-40 0 -64 -16 -64 -51c0 -29 18 -43 50 -50l79 -17
c101 -23 163 -81 163 -179c0 -112 -83 -172 -232 -172zM139 554l-28 36l192 200l88 -139z" />
    <glyph glyph-name="Scircumflex" unicode="&#x15c;" horiz-adv-x="556" 
d="M254 -14c-120 0 -181 29 -229 57v137h119c9 -94 52 -130 116 -130c62 0 106 27 106 103c0 53 -23 86 -97 105l-72 19c-107 27 -171 80 -171 208c0 153 100 224 249 224c111 0 181 -32 213 -48v-150h-118c-8 77 -32 128 -107 128c-60 0 -86 -35 -86 -88
c0 -45 19 -79 86 -95l68 -16c117 -28 195 -93 195 -225c0 -149 -98 -229 -272 -229zM440 732l-157 75l-157 -75l-25 40l182 183l182 -183z" />
    <glyph glyph-name="scircumflex" unicode="&#x15d;" horiz-adv-x="482" 
d="M225 -13c-112 0 -165 28 -195 43v113h112c8 -71 48 -88 96 -88c45 0 75 17 75 53s-21 52 -63 61l-85 18c-87 18 -134 73 -134 162c0 122 96 180 212 180c94 0 154 -24 182 -36v-113h-104c-7 58 -43 76 -92 76c-40 0 -64 -16 -64 -51c0 -29 18 -43 50 -50l79 -17
c101 -23 163 -81 163 -179c0 -112 -83 -172 -232 -172zM408 552l-157 75l-157 -75l-25 40l182 183l182 -183z" />
    <glyph glyph-name="Scedilla" unicode="&#x15e;" horiz-adv-x="556" 
d="M379 -121c0 -62 -44 -85 -126 -85c-50 0 -87 12 -106 25l17 42c22 -14 46 -19 68 -19s34 7 34 25c0 22 -21 30 -55 31l1 21l19 68c-102 3 -161 30 -206 56v137h119c9 -94 52 -130 116 -130c62 0 106 27 106 103c0 53 -23 86 -97 105l-72 19c-107 27 -171 80 -171 208
c0 153 100 224 249 224c111 0 181 -32 213 -48v-150h-118c-8 77 -32 128 -107 128c-60 0 -86 -35 -86 -88c0 -45 19 -79 86 -95l68 -16c117 -28 195 -93 195 -225c0 -140 -86 -218 -240 -228l-8 -29c66 -4 101 -30 101 -79z" />
    <glyph glyph-name="scedilla" unicode="&#x15f;" horiz-adv-x="482" 
d="M347 -121c0 -62 -44 -85 -126 -85c-50 0 -87 12 -106 25l17 42c22 -14 46 -19 68 -19s34 7 34 25c0 22 -21 30 -55 31l1 21l20 69c-95 4 -143 28 -170 42v113h112c8 -71 48 -88 96 -88c45 0 75 17 75 53s-21 52 -63 61l-85 18c-87 18 -134 73 -134 162
c0 122 96 180 212 180c94 0 154 -24 182 -36v-113h-104c-7 58 -43 76 -92 76c-40 0 -64 -16 -64 -51c0 -29 18 -43 50 -50l79 -17c101 -23 163 -81 163 -179c0 -105 -72 -163 -203 -171l-8 -30c66 -4 101 -30 101 -79z" />
    <glyph glyph-name="Scaron" unicode="&#x160;" horiz-adv-x="556" 
d="M254 -14c-120 0 -181 29 -229 57v137h119c9 -94 52 -130 116 -130c62 0 106 27 106 103c0 53 -23 86 -97 105l-72 19c-107 27 -171 80 -171 208c0 153 100 224 249 224c111 0 181 -32 213 -48v-150h-118c-8 77 -32 128 -107 128c-60 0 -86 -35 -86 -88
c0 -45 19 -79 86 -95l68 -16c117 -28 195 -93 195 -225c0 -149 -98 -229 -272 -229zM283 880l157 75l25 -40l-182 -183l-182 183l25 40z" />
    <glyph glyph-name="scaron" unicode="&#x161;" horiz-adv-x="482" 
d="M225 -13c-112 0 -165 28 -195 43v113h112c8 -71 48 -88 96 -88c45 0 75 17 75 53s-21 52 -63 61l-85 18c-87 18 -134 73 -134 162c0 122 96 180 212 180c94 0 154 -24 182 -36v-113h-104c-7 58 -43 76 -92 76c-40 0 -64 -16 -64 -51c0 -29 18 -43 50 -50l79 -17
c101 -23 163 -81 163 -179c0 -112 -83 -172 -232 -172zM251 700l157 75l25 -40l-182 -183l-182 183l25 40z" />
    <glyph glyph-name="Tcommaaccent" unicode="&#x162;" horiz-adv-x="633" 
d="M27 697h579l12 -197h-87c-22 86 -28 117 -94 117h-29v-497c0 -57 17 -70 74 -70v-50h-142l-12 -42c66 -4 101 -30 101 -79c0 -62 -44 -85 -126 -85c-50 0 -87 12 -106 25l17 42c22 -14 46 -19 68 -19s34 7 34 25c0 22 -21 30 -55 31l1 21l23 81h-134v50c57 0 74 13 74 70
v497h-29c-66 0 -72 -31 -94 -117h-87z" />
    <glyph glyph-name="tcommaaccent" unicode="&#x163;" horiz-adv-x="373" 
d="M363 516l-17 -84h-103v-255c0 -72 4 -104 54 -104c19 0 34 4 57 13l19 -59c-40 -26 -87 -39 -148 -40l-8 -29c66 -4 101 -30 101 -79c0 -62 -44 -85 -126 -85c-50 0 -87 12 -106 25l17 42c22 -14 46 -19 68 -19s34 7 34 25c0 22 -21 30 -55 31l1 21l21 72
c-67 11 -102 50 -102 144v297h-60v59l67 28c5 45 20 92 46 130l128 13c-5 -36 -9 -95 -9 -146h121z" />
    <glyph glyph-name="Tcaron" unicode="&#x164;" horiz-adv-x="633" 
d="M27 697h579l12 -197h-87c-22 86 -28 117 -94 117h-29v-497c0 -57 17 -70 74 -70v-50h-331v50c57 0 74 13 74 70v497h-29c-66 0 -72 -31 -94 -117h-87zM316 880l157 75l25 -40l-182 -183l-182 183l25 40z" />
    <glyph glyph-name="tcaron" unicode="&#x165;" horiz-adv-x="373" 
d="M363 516l-17 -84h-103v-255c0 -72 4 -104 54 -104c19 0 34 4 57 13l19 -59c-41 -26 -89 -40 -152 -40c-98 0 -151 34 -151 148v297h-60v59l67 28c5 45 20 92 46 130l128 13c-5 -36 -9 -95 -9 -146h121zM419 728l-69 -172l-67 8l12 176z" />
    <glyph glyph-name="Tbar" unicode="&#x166;" horiz-adv-x="633" 
d="M27 697h579l12 -197h-87c-22 86 -28 117 -94 117h-29v-224h115v-86h-115v-187c0 -57 17 -70 74 -70v-50h-331v50c57 0 74 13 74 70v187h-109v86h109v224h-29c-66 0 -72 -31 -94 -117h-87z" />
    <glyph glyph-name="tbar" unicode="&#x167;" horiz-adv-x="373" 
d="M363 516l-17 -84h-103v-85h108v-81h-108v-89c0 -72 4 -104 54 -104c19 0 34 4 57 13l19 -59c-41 -26 -89 -40 -152 -40c-98 0 -151 34 -151 148v131h-60v81h60v85h-60v59l67 28c5 45 20 92 46 130l128 13c-5 -36 -9 -95 -9 -146h121z" />
    <glyph glyph-name="Utilde" unicode="&#x168;" horiz-adv-x="693" 
d="M519 228v346c0 57 -17 70 -64 70v53h217v-53c-47 0 -64 -13 -64 -70v-348c0 -145 -71 -239 -261 -239c-183 0 -262 66 -262 236v351c0 57 -17 70 -64 70v53h311v-53c-47 0 -64 -13 -64 -70v-357c0 -107 42 -139 119 -139c78 0 132 35 132 150zM454 873c29 0 57 9 75 47
l38 -17c-18 -79 -62 -143 -119 -143c-58 0 -95 32 -139 32c-31 0 -54 -12 -73 -49l-36 16c10 79 56 149 115 149c58 0 89 -35 139 -35z" />
    <glyph glyph-name="utilde" unicode="&#x169;" horiz-adv-x="619" 
d="M547 522v-368c0 -73 9 -81 57 -85v-46l-177 -36h-15c-5 6 -25 32 -29 78c-36 -49 -92 -78 -169 -78c-88 0 -144 43 -144 145v223c0 73 -9 83 -55 85v49l203 33h25v-347c0 -51 14 -81 60 -81c23 0 45 6 71 26v235c0 73 -9 83 -55 85v49l203 33h25zM380 693
c29 0 57 9 75 47l38 -17c-18 -79 -62 -143 -119 -143c-58 0 -95 32 -139 32c-31 0 -54 -12 -73 -49l-36 16c10 79 56 149 115 149c58 0 89 -35 139 -35z" />
    <glyph glyph-name="Umacron" unicode="&#x16a;" horiz-adv-x="693" 
d="M519 228v346c0 57 -17 70 -64 70v53h217v-53c-47 0 -64 -13 -64 -70v-348c0 -145 -71 -239 -261 -239c-183 0 -262 66 -262 236v351c0 57 -17 70 -64 70v53h311v-53c-47 0 -64 -13 -64 -70v-357c0 -107 42 -139 119 -139c78 0 132 35 132 150zM542 775h-317v87h317v-87z
" />
    <glyph glyph-name="umacron" unicode="&#x16b;" horiz-adv-x="619" 
d="M547 522v-368c0 -73 9 -81 57 -85v-46l-177 -36h-15c-5 6 -25 32 -29 78c-36 -49 -92 -78 -169 -78c-88 0 -144 43 -144 145v223c0 73 -9 83 -55 85v49l203 33h25v-347c0 -51 14 -81 60 -81c23 0 45 6 71 26v235c0 73 -9 83 -55 85v49l203 33h25zM465 605h-311v87h311
v-87z" />
    <glyph glyph-name="Ubreve" unicode="&#x16c;" horiz-adv-x="693" 
d="M519 228v346c0 57 -17 70 -64 70v53h217v-53c-47 0 -64 -13 -64 -70v-348c0 -145 -71 -239 -261 -239c-183 0 -262 66 -262 236v351c0 57 -17 70 -64 70v53h311v-53c-47 0 -64 -13 -64 -70v-357c0 -107 42 -139 119 -139c78 0 132 35 132 150zM383 744
c-107 0 -153 92 -172 174l40 22c32 -48 70 -83 132 -83s100 35 132 83l40 -22c-19 -82 -65 -174 -172 -174z" />
    <glyph glyph-name="ubreve" unicode="&#x16d;" horiz-adv-x="619" 
d="M547 522v-368c0 -73 9 -81 57 -85v-46l-177 -36h-15c-5 6 -25 32 -29 78c-36 -49 -92 -78 -169 -78c-88 0 -144 43 -144 145v223c0 73 -9 83 -55 85v49l203 33h25v-347c0 -51 14 -81 60 -81c23 0 45 6 71 26v235c0 73 -9 83 -55 85v49l203 33h25zM309 564
c-107 0 -153 92 -172 174l40 22c32 -48 70 -83 132 -83s100 35 132 83l40 -22c-19 -82 -65 -174 -172 -174z" />
    <glyph glyph-name="Uring" unicode="&#x16e;" horiz-adv-x="693" 
d="M519 228v346c0 57 -17 70 -64 70v53h217v-53c-47 0 -64 -13 -64 -70v-348c0 -145 -71 -239 -261 -239c-183 0 -262 66 -262 236v351c0 57 -17 70 -64 70v53h311v-53c-47 0 -64 -13 -64 -70v-357c0 -107 42 -139 119 -139c78 0 132 35 132 150zM383 723
c-73 0 -124 52 -124 122s51 122 124 122c74 0 125 -52 125 -122s-51 -122 -125 -122zM383 905c-33 0 -53 -26 -53 -60c0 -31 20 -56 53 -56c34 0 54 25 54 56c0 34 -20 60 -54 60z" />
    <glyph glyph-name="uring" unicode="&#x16f;" horiz-adv-x="619" 
d="M547 522v-368c0 -73 9 -81 57 -85v-46l-177 -36h-15c-5 6 -25 32 -29 78c-36 -49 -92 -78 -169 -78c-88 0 -144 43 -144 145v223c0 73 -9 83 -55 85v49l203 33h25v-347c0 -51 14 -81 60 -81c23 0 45 6 71 26v235c0 73 -9 83 -55 85v49l203 33h25zM309 563
c-73 0 -124 52 -124 122s51 122 124 122c74 0 125 -52 125 -122s-51 -122 -125 -122zM309 745c-33 0 -53 -26 -53 -60c0 -31 20 -56 53 -56c34 0 54 25 54 56c0 34 -20 60 -54 60z" />
    <glyph glyph-name="Uhungarumlaut" unicode="&#x170;" horiz-adv-x="693" 
d="M519 228v346c0 57 -17 70 -64 70v53h217v-53c-47 0 -64 -13 -64 -70v-348c0 -145 -71 -239 -261 -239c-183 0 -262 66 -262 236v351c0 57 -17 70 -64 70v53h311v-53c-47 0 -64 -13 -64 -70v-357c0 -107 42 -139 119 -139c78 0 132 35 132 150zM463 940l-141 -200l-52 21
l60 228zM641 906l-161 -176l-46 26l82 224z" />
    <glyph glyph-name="uhungarumlaut" unicode="&#x171;" horiz-adv-x="619" 
d="M547 522v-368c0 -73 9 -81 57 -85v-46l-177 -36h-15c-5 6 -25 32 -29 78c-36 -49 -92 -78 -169 -78c-88 0 -144 43 -144 145v223c0 73 -9 83 -55 85v49l203 33h25v-347c0 -51 14 -81 60 -81c23 0 45 6 71 26v235c0 73 -9 83 -55 85v49l203 33h25zM389 760l-141 -200
l-52 21l60 228zM567 726l-161 -176l-46 26l82 224z" />
    <glyph glyph-name="Uogonek" unicode="&#x172;" horiz-adv-x="693" 
d="M514 -125l16 -32c-34 -35 -81 -48 -130 -48c-63 0 -125 22 -125 91c0 49 31 75 94 102c-10 -1 -16 -1 -22 -1c-183 0 -262 66 -262 236v351c0 57 -17 70 -64 70v53h311v-53c-47 0 -64 -13 -64 -70v-357c0 -107 42 -139 119 -139c78 0 132 35 132 150v346
c0 57 -17 70 -64 70v53h217v-53c-47 0 -64 -13 -64 -70v-348c0 -90 -24 -156 -88 -197c-64 -40 -106 -67 -106 -123c0 -36 23 -48 46 -48c18 0 34 5 54 17z" />
    <glyph glyph-name="uogonek" unicode="&#x173;" horiz-adv-x="619" 
d="M555 -125l16 -32c-34 -35 -81 -48 -130 -48c-63 0 -125 22 -125 91c0 48 34 74 94 104c-7 9 -24 35 -27 75c-36 -49 -92 -78 -169 -78c-88 0 -144 43 -144 145v223c0 73 -9 83 -55 85v49l203 33h25v-347c0 -51 14 -81 60 -81c23 0 45 6 71 26v235c0 73 -9 83 -55 85v49
l203 33h25v-368c0 -73 9 -81 57 -85v-46l-35 -7c-75 -15 -114 -62 -114 -110c0 -36 23 -48 46 -48c18 0 34 5 54 17z" />
    <glyph glyph-name="Wcircumflex" unicode="&#x174;" horiz-adv-x="979" 
d="M587 0l-73 281c-16 61 -25 140 -27 160h-5c-3 -20 -10 -87 -29 -161l-70 -280h-170l-136 585c-11 47 -26 56 -60 61v51h300v-51c-37 0 -53 -14 -53 -39c0 -4 0 -8 1 -13l57 -287c13 -65 16 -139 16 -156h5c2 15 8 75 27 156l93 390h118l100 -387c21 -81 29 -135 31 -158
h6c1 19 4 77 20 157l57 284c1 5 2 11 2 16c0 29 -23 37 -57 37v51h222v-51c-38 -5 -56 -11 -67 -58l-138 -588h-170zM678 732l-157 75l-157 -75l-25 40l182 183l182 -183z" />
    <glyph glyph-name="wcircumflex" unicode="&#x175;" horiz-adv-x="842" 
d="M394 225l-65 -230h-146l-120 402c-16 55 -27 63 -63 68v51h288v-51c-39 0 -54 -15 -54 -38c0 -6 1 -13 3 -20l44 -179c9 -37 12 -72 13 -80h6c0 6 3 44 12 80l72 288h127l92 -289c11 -33 15 -69 16 -79h6c0 4 5 49 10 73l42 187c1 5 2 12 2 21c0 27 -18 36 -56 36v51h219
v-51c-42 -5 -57 -14 -70 -62l-111 -408h-146l-80 229c-12 35 -17 93 -17 99h-6c-1 -11 -7 -59 -18 -98zM606 552l-157 75l-157 -75l-25 40l182 183l182 -183z" />
    <glyph glyph-name="Ycircumflex" unicode="&#x176;" horiz-adv-x="680" 
d="M384 366h6l93 220c5 12 8 22 8 31c0 19 -14 29 -47 29v51h219v-51c-40 -5 -53 -14 -74 -58l-157 -327v-141c0 -57 17 -70 74 -70v-50h-331v50c57 0 74 13 74 70v140l-164 328c-22 44 -34 53 -68 58v51h305v-51c-32 0 -47 -13 -47 -33c0 -8 2 -17 7 -27zM517 732l-157 75
l-157 -75l-25 40l182 183l182 -183z" />
    <glyph glyph-name="ycircumflex" unicode="&#x177;" horiz-adv-x="572" 
d="M117 -205l-61 108c92 14 173 39 209 107l-66 -5c-13 52 -25 88 -62 190l-76 209c-17 46 -25 56 -61 61v51h292v-51c-44 -2 -58 -9 -58 -25c0 -6 2 -13 5 -22l68 -218c10 -31 13 -60 14 -66h6c1 7 8 40 17 68l66 216c3 9 4 16 4 22c0 20 -18 23 -61 25v51h219v-51
c-40 -5 -52 -12 -69 -58l-148 -396c-43 -117 -111 -200 -238 -216zM471 552l-157 75l-157 -75l-25 40l182 183l182 -183z" />
    <glyph glyph-name="Ydieresis" unicode="&#x178;" horiz-adv-x="680" 
d="M384 366h6l93 220c5 12 8 22 8 31c0 19 -14 29 -47 29v51h219v-51c-40 -5 -53 -14 -74 -58l-157 -327v-141c0 -57 17 -70 74 -70v-50h-331v50c57 0 74 13 74 70v140l-164 328c-22 44 -34 53 -68 58v51h305v-51c-32 0 -47 -13 -47 -33c0 -8 2 -17 7 -27zM337 830
c0 -49 -41 -89 -92 -89c-50 0 -91 40 -91 89c0 50 42 90 93 90s90 -40 90 -90zM566 830c0 -49 -41 -89 -92 -89c-50 0 -91 40 -91 89c0 50 42 90 93 90s90 -40 90 -90z" />
    <glyph glyph-name="Zacute" unicode="&#x179;" horiz-adv-x="587" 
d="M550 641l-318 -567h111c77 0 101 33 121 123h88l-10 -197h-515v56l321 569h-99c-67 0 -85 -35 -105 -113h-92l8 185h490v-56zM201 727l-25 39l211 180l74 -146z" />
    <glyph glyph-name="zacute" unicode="&#x17a;" horiz-adv-x="517" 
d="M497 153l-18 -153h-437v65l249 383h-75c-68 0 -83 -16 -94 -91h-67v159h437v-59l-255 -390h67c80 0 99 2 128 86h65zM176 554l-28 36l192 200l88 -139z" />
    <glyph glyph-name="Zdotaccent" unicode="&#x17b;" horiz-adv-x="587" 
d="M550 641l-318 -567h111c77 0 101 33 121 123h88l-10 -197h-515v56l321 569h-99c-67 0 -85 -35 -105 -113h-92l8 185h490v-56zM409 836c0 -51 -43 -93 -96 -93c-52 0 -95 42 -95 93c0 52 44 94 97 94s94 -42 94 -94z" />
    <glyph glyph-name="zdotaccent" unicode="&#x17c;" horiz-adv-x="517" 
d="M497 153l-18 -153h-437v65l249 383h-75c-68 0 -83 -16 -94 -91h-67v159h437v-59l-255 -390h67c80 0 99 2 128 86h65zM372 656c0 -51 -43 -93 -96 -93c-52 0 -95 42 -95 93c0 52 44 94 97 94s94 -42 94 -94z" />
    <glyph glyph-name="Zcaron" unicode="&#x17d;" horiz-adv-x="587" 
d="M550 641l-318 -567h111c77 0 101 33 121 123h88l-10 -197h-515v56l321 569h-99c-67 0 -85 -35 -105 -113h-92l8 185h490v-56zM313 880l157 75l25 -40l-182 -183l-182 183l25 40z" />
    <glyph glyph-name="zcaron" unicode="&#x17e;" horiz-adv-x="517" 
d="M497 153l-18 -153h-437v65l249 383h-75c-68 0 -83 -16 -94 -91h-67v159h437v-59l-255 -390h67c80 0 99 2 128 86h65zM279 700l157 75l25 -40l-182 -183l-182 183l25 40z" />
    <glyph glyph-name="longs" unicode="&#x17f;" horiz-adv-x="364" 
d="M258 612v-492c0 -57 12 -70 77 -70v-50h-307v50c47 0 57 13 57 70v312h-60v59l60 25v65c0 112 78 165 201 165c42 0 114 -8 148 -24v-115h-97c0 51 -14 64 -38 64c-30 0 -41 -21 -41 -59z" />
    <glyph glyph-name="uni018F" unicode="&#x18f;" horiz-adv-x="697" 
d="M279 584c-73 0 -135 -27 -190 -64l-38 54c58 71 150 135 290 135c193 0 316 -131 316 -362c0 -241 -133 -360 -321 -360c-202 0 -301 98 -301 287c0 35 3 75 14 112h397c-5 134 -48 198 -167 198zM336 61c70 0 111 66 111 242h-206c-2 -21 -3 -42 -3 -61
c0 -108 33 -181 98 -181z" />
    <glyph glyph-name="florin" unicode="&#x192;" horiz-adv-x="367" 
d="M33 361l5 64l73 13l10 96c13 121 106 175 233 175c67 0 116 -13 153 -33l-8 -113h-98c0 57 -4 78 -39 78c-30 0 -56 -19 -61 -88l-9 -118h116v-74h-122l-29 -381c-10 -128 -103 -171 -271 -171l-6 44c64 12 93 38 98 117l27 391h-72z" />
    <glyph glyph-name="uni01B5" unicode="&#x1b5;" horiz-adv-x="587" 
d="M550 640l-134 -235h105v-81h-151l-142 -250h115c77 0 101 33 121 123h88l-10 -197h-515v56l153 268h-106v81h153l125 219h-103c-67 0 -85 -35 -105 -113h-92l8 185h490v-56z" />
    <glyph glyph-name="uni01B6" unicode="&#x1b6;" horiz-adv-x="517" 
d="M66 242v45h122l106 161h-78c-68 0 -83 -16 -94 -91h-67v159h437v-59l-113 -170h80v-45h-109l-116 -175h70c80 0 99 2 128 86h65l-18 -153h-437v65l116 177h-92z" />
    <glyph glyph-name="Aringacute" unicode="&#x1fa;" horiz-adv-x="677" 
d="M425 98l-25 77h-207l-21 -77c-3 -9 -4 -16 -4 -21c0 -22 19 -24 61 -26v-51h-224v51c40 5 54 12 69 58l190 588h142l206 -588c15 -42 24 -53 60 -58v-51h-300v51c44 2 58 9 58 25c0 6 -2 13 -5 22zM267 435l-50 -175h155l-58 178c-13 42 -17 64 -20 80h-6
c-2 -12 -6 -34 -21 -83zM338 720c-73 0 -124 52 -124 122s51 122 124 122c74 0 125 -52 125 -122s-51 -122 -125 -122zM338 902c-33 0 -53 -26 -53 -60c0 -31 20 -56 53 -56c34 0 54 25 54 56c0 34 -20 60 -54 60zM222 965l-25 39l211 180l74 -146z" />
    <glyph glyph-name="aringacute" unicode="&#x1fb;" horiz-adv-x="552" 
d="M483 158c0 -75 12 -87 59 -87v-48c-23 -15 -64 -29 -116 -29c-58 0 -98 27 -108 69c-16 -38 -59 -76 -139 -76c-87 0 -159 42 -159 149c0 118 82 170 239 170c12 0 41 -1 54 -2v47c0 72 -19 104 -64 104c-46 0 -58 -36 -65 -92h-129v108c57 34 141 58 227 58
c117 0 205 -51 205 -168c0 -30 -4 -112 -4 -203zM311 244h-35c-49 0 -79 -29 -79 -84c0 -50 19 -66 49 -66c17 0 46 6 62 23zM275 553c-73 0 -124 52 -124 122s51 122 124 122c74 0 125 -52 125 -122s-51 -122 -125 -122zM275 735c-33 0 -53 -26 -53 -60
c0 -31 20 -56 53 -56c34 0 54 25 54 56c0 34 -20 60 -54 60zM164 802l-25 39l211 180l74 -146z" />
    <glyph glyph-name="AEacute" unicode="&#x1fc;" horiz-adv-x="945" 
d="M92 109l228 465c7 15 11 27 11 37c0 24 -21 33 -54 33v53h602l12 -177h-88c-22 76 -31 97 -107 97h-84v-230h48c62 0 77 14 81 71h77v-218h-77c-4 54 -18 71 -80 71h-49v-237h105c62 0 89 23 97 116h89v-190h-530v50c47 0 64 13 64 70v97h-189l-60 -119
c-5 -10 -7 -17 -7 -23c0 -17 20 -22 61 -24v-51h-237v51c40 5 66 14 87 58zM442 616l-151 -315h146v118c0 86 7 170 11 197h-6zM508 727l-25 39l211 180l74 -146z" />
    <glyph glyph-name="aeacute" unicode="&#x1fd;" horiz-adv-x="830" 
d="M426 482c37 27 89 47 146 47c168 0 228 -96 228 -250v-45h-297c4 -100 37 -149 129 -149c42 0 87 9 133 31l26 -44c-57 -59 -126 -85 -222 -85c-89 0 -157 27 -200 81c-24 -37 -85 -81 -185 -81c-92 0 -164 42 -164 149c0 118 83 168 240 168h57v47c0 72 -23 104 -68 104
c-46 0 -58 -36 -65 -92h-129v108c57 34 141 58 216 58c67 0 124 -19 155 -47zM572 460c-43 0 -61 -35 -68 -154h126c0 120 -15 154 -58 154zM260 94c31 0 60 10 80 22c-14 33 -23 72 -24 118h-28c-61 0 -91 -19 -91 -74c0 -41 19 -66 63 -66zM361 554l-28 36l192 200
l88 -139z" />
    <glyph glyph-name="Oslashacute" unicode="&#x1fe;" horiz-adv-x="720" 
d="M625 724l-53 -86c67 -59 108 -157 108 -301c0 -228 -118 -349 -320 -349c-66 0 -122 13 -169 38l-51 -83l-50 29l53 86c-67 58 -103 152 -103 279c0 264 136 372 320 372c60 0 116 -12 163 -37l51 81zM480 348c0 52 -3 95 -7 131l-211 -340c21 -63 55 -78 98 -78
c71 0 120 42 120 287zM360 628c-78 0 -120 -57 -120 -283c0 -48 2 -89 5 -122l209 337c-20 51 -52 68 -94 68zM248 727l-25 39l211 180l74 -146z" />
    <glyph glyph-name="oslashacute" unicode="&#x1ff;" horiz-adv-x="598" 
d="M514 541l-39 -61c54 -40 88 -108 88 -209c0 -204 -127 -284 -268 -284c-46 0 -86 8 -120 21l-43 -67l-46 27l42 66c-61 45 -93 121 -93 222c0 161 101 273 271 273c45 0 86 -8 123 -23l39 62zM216 249c0 -28 0 -52 2 -73l148 231c-14 38 -37 52 -67 52
c-50 0 -83 -38 -83 -210zM382 278c0 19 -1 37 -2 53l-146 -230c13 -32 34 -47 67 -47c51 0 81 59 81 224zM187 554l-28 36l192 200l88 -139z" />
    <glyph glyph-name="Scommaaccent" unicode="&#x218;" horiz-adv-x="556" 
d="M254 -14c-120 0 -181 29 -229 57v137h119c9 -94 52 -130 116 -130c62 0 106 27 106 103c0 53 -23 86 -97 105l-72 19c-107 27 -171 80 -171 208c0 153 100 224 249 224c111 0 181 -32 213 -48v-150h-118c-8 77 -32 128 -107 128c-60 0 -86 -35 -86 -88
c0 -45 19 -79 86 -95l68 -16c117 -28 195 -93 195 -225c0 -149 -98 -229 -272 -229zM369 -143c0 -87 -78 -130 -162 -147l-28 38c54 17 75 28 75 53c0 13 -6 19 -26 28c-22 9 -40 26 -40 63c0 40 33 72 84 72c61 0 97 -43 97 -107z" />
    <glyph glyph-name="scommaaccent" unicode="&#x219;" horiz-adv-x="482" 
d="M225 -13c-112 0 -165 28 -195 43v113h112c8 -71 48 -88 96 -88c45 0 75 17 75 53s-21 52 -63 61l-85 18c-87 18 -134 73 -134 162c0 122 96 180 212 180c94 0 154 -24 182 -36v-113h-104c-7 58 -43 76 -92 76c-40 0 -64 -16 -64 -51c0 -29 18 -43 50 -50l79 -17
c101 -23 163 -81 163 -179c0 -112 -83 -172 -232 -172zM346 -143c0 -87 -78 -130 -162 -147l-28 38c54 17 75 28 75 53c0 13 -6 19 -26 28c-22 9 -40 26 -40 63c0 40 33 72 84 72c61 0 97 -43 97 -107z" />
    <glyph glyph-name="uni021A" unicode="&#x21a;" horiz-adv-x="633" 
d="M27 697h579l12 -197h-87c-22 86 -28 117 -94 117h-29v-497c0 -57 17 -70 74 -70v-50h-331v50c57 0 74 13 74 70v497h-29c-66 0 -72 -31 -94 -117h-87zM411 -143c0 -87 -78 -130 -162 -147l-28 38c54 17 75 28 75 53c0 13 -6 19 -26 28c-22 9 -40 26 -40 63
c0 40 33 72 84 72c61 0 97 -43 97 -107z" />
    <glyph glyph-name="uni021B" unicode="&#x21b;" horiz-adv-x="373" 
d="M363 516l-17 -84h-103v-255c0 -72 4 -104 54 -104c19 0 34 4 57 13l19 -59c-41 -26 -89 -40 -152 -40c-98 0 -151 34 -151 148v297h-60v59l67 28c5 45 20 92 46 130l128 13c-5 -36 -9 -95 -9 -146h121zM288 -143c0 -87 -78 -130 -162 -147l-28 38c54 17 75 28 75 53
c0 13 -6 19 -26 28c-22 9 -40 26 -40 63c0 40 33 72 84 72c61 0 97 -43 97 -107z" />
    <glyph glyph-name="uni0237" unicode="&#x237;" horiz-adv-x="321" 
d="M80 18v337c0 73 -9 83 -55 85v49l203 33h25v-504c0 -149 -129 -209 -224 -224l-29 46c61 28 80 75 80 178z" />
    <glyph glyph-name="uni0259" unicode="&#x259;" horiz-adv-x="549" 
d="M198 431c-42 0 -87 -9 -133 -31l-26 44c57 59 126 85 222 85c161 0 253 -99 253 -272c0 -171 -100 -270 -254 -270c-170 0 -230 96 -230 250v49h297c-4 100 -37 145 -129 145zM258 56c43 0 61 35 68 154h-126v-5c0 -116 16 -149 58 -149z" />
    <glyph glyph-name="uni02BB" unicode="&#x2bb;" horiz-adv-x="288" 
d="M45 511c0 109 64 178 194 202l34 -44c-74 -20 -111 -42 -111 -77c0 -25 10 -33 37 -44c25 -11 52 -30 52 -74c0 -48 -39 -88 -96 -88c-64 0 -110 53 -110 125z" />
    <glyph glyph-name="afii57929" unicode="&#x2bc;" horiz-adv-x="288" 
d="M243 588c0 -109 -64 -178 -194 -202l-34 44c74 20 111 42 111 77c0 25 -10 33 -37 44c-25 11 -52 30 -52 74c0 48 39 88 96 88c64 0 110 -53 110 -125z" />
    <glyph glyph-name="circumflex" unicode="&#x2c6;" horiz-adv-x="524" 
d="M419 552l-157 75l-157 -75l-25 40l182 183l182 -183z" />
    <glyph glyph-name="caron" unicode="&#x2c7;" horiz-adv-x="524" 
d="M262 700l157 75l25 -40l-182 -183l-182 183l25 40z" />
    <glyph glyph-name="breve" unicode="&#x2d8;" horiz-adv-x="504" 
d="M252 564c-107 0 -153 92 -172 174l40 22c32 -48 70 -83 132 -83s100 35 132 83l40 -22c-19 -82 -65 -174 -172 -174z" />
    <glyph glyph-name="dotaccent" unicode="&#x2d9;" horiz-adv-x="351" 
d="M271 656c0 -51 -43 -93 -96 -93c-52 0 -95 42 -95 93c0 52 44 94 97 94s94 -42 94 -94z" />
    <glyph glyph-name="ring" unicode="&#x2da;" horiz-adv-x="409" 
d="M204 563c-73 0 -124 52 -124 122s51 122 124 122c74 0 125 -52 125 -122s-51 -122 -125 -122zM204 745c-33 0 -53 -26 -53 -60c0 -31 20 -56 53 -56c34 0 54 25 54 56c0 34 -20 60 -54 60z" />
    <glyph glyph-name="ogonek" unicode="&#x2db;" horiz-adv-x="288" 
d="M242 -125l16 -32c-34 -35 -81 -48 -130 -48c-63 0 -125 22 -125 91c0 70 60 98 194 149l22 -21c-50 -36 -77 -74 -77 -108c0 -36 23 -48 46 -48c18 0 34 5 54 17z" />
    <glyph glyph-name="tilde" unicode="&#x2dc;" horiz-adv-x="527" 
d="M334 693c29 0 57 9 75 47l38 -17c-18 -79 -62 -143 -119 -143c-58 0 -95 32 -139 32c-31 0 -54 -12 -73 -49l-36 16c10 79 56 149 115 149c58 0 89 -35 139 -35z" />
    <glyph glyph-name="hungarumlaut" unicode="&#x2dd;" horiz-adv-x="531" 
d="M273 760l-141 -200l-52 21l60 228zM451 726l-161 -176l-46 26l82 224z" />
    <glyph glyph-name="gravecomb" unicode="&#x300;" 
d="M-183 590l-28 -36l-252 97l88 139z" />
    <glyph glyph-name="acutecomb" unicode="&#x301;" 
d="M-410 554l-28 36l192 200l88 -139z" />
    <glyph glyph-name="uni0302" unicode="&#x302;" 
d="M-141 552l-157 75l-157 -75l-25 40l182 183l182 -183z" />
    <glyph glyph-name="tildecomb" unicode="&#x303;" 
d="M-227 693c29 0 57 9 75 47l38 -17c-18 -79 -62 -143 -119 -143c-58 0 -95 32 -139 32c-31 0 -54 -12 -73 -49l-36 16c10 79 56 149 115 149c58 0 89 -35 139 -35z" />
    <glyph glyph-name="uni0304" unicode="&#x304;" 
d="M-79 609h-311v87h311v-87z" />
    <glyph glyph-name="uni0306" unicode="&#x306;" 
d="M-251 552c-107 0 -153 92 -172 174l40 22c32 -48 70 -83 132 -83s100 35 132 83l40 -22c-19 -82 -65 -174 -172 -174z" />
    <glyph glyph-name="uni0307" unicode="&#x307;" 
d="M-63 652c0 -54 -45 -98 -101 -98c-54 0 -99 44 -99 98s46 98 102 98c55 0 98 -44 98 -98z" />
    <glyph glyph-name="uni0308" unicode="&#x308;" 
d="M-308 650c0 -49 -41 -89 -92 -89c-50 0 -91 40 -91 89c0 50 42 90 93 90s90 -40 90 -90zM-79 650c0 -49 -41 -89 -92 -89c-50 0 -91 40 -91 89c0 50 42 90 93 90s90 -40 90 -90z" />
    <glyph glyph-name="uni030A" unicode="&#x30a;" 
d="M-204 563c-73 0 -124 52 -124 122s51 122 124 122c74 0 125 -52 125 -122s-51 -122 -125 -122zM-204 745c-33 0 -53 -26 -53 -60c0 -31 20 -56 53 -56c34 0 54 25 54 56c0 34 -20 60 -54 60z" />
    <glyph glyph-name="uni030B" unicode="&#x30b;" 
d="M-257 764l-141 -200l-52 21l60 228zM-79 730l-161 -176l-46 26l82 224z" />
    <glyph glyph-name="uni030C" unicode="&#x30c;" 
d="M-237 700l157 75l25 -40l-182 -183l-182 183l25 40z" />
    <glyph glyph-name="uni0312" unicode="&#x312;" 
d="M-259 678c0 87 78 130 162 147l28 -38c-54 -17 -75 -28 -75 -53c0 -13 6 -19 26 -28c22 -9 40 -26 40 -63c0 -40 -33 -72 -84 -72c-61 0 -97 43 -97 107z" />
    <glyph glyph-name="uni0313" unicode="&#x313;" 
d="M-68 728l-69 -172l-67 8l12 176z" />
    <glyph glyph-name="dotbelowcomb" unicode="&#x323;" 
d="M263 -140c0 -54 -45 -98 -101 -98c-54 0 -99 44 -99 98s46 98 102 98c55 0 98 -44 98 -98z" />
    <glyph glyph-name="uni0326" unicode="&#x326;" 
d="M270 -143c0 -87 -78 -130 -162 -147l-28 38c54 17 75 28 75 53c0 13 -6 19 -26 28c-22 9 -40 26 -40 63c0 40 33 72 84 72c61 0 97 -43 97 -107z" />
    <glyph glyph-name="uni0327" unicode="&#x327;" 
d="M-21 -121c0 -62 -44 -85 -126 -85c-50 0 -87 12 -106 25l17 42c22 -14 46 -19 68 -19s34 7 34 25c0 22 -21 30 -55 31l1 21l29 100l53 -6l-16 -55c66 -4 101 -30 101 -79z" />
    <glyph glyph-name="uni0328" unicode="&#x328;" 
d="M-45 -126l16 -32c-34 -35 -81 -48 -130 -48c-63 0 -125 22 -125 91c0 70 60 98 194 149l22 -21c-50 -36 -77 -74 -77 -108c0 -36 23 -48 46 -48c18 0 34 5 54 17z" />
    <glyph glyph-name="uni0335" unicode="&#x335;" 
d="M-79 215h-311v87h311v-87z" />
    <glyph glyph-name="uni0336" unicode="&#x336;" 
d="M-44 202h-714v113h714v-113z" />
    <glyph glyph-name="uni037E" unicode="&#x37e;" horiz-adv-x="308" 
d="M258 51c0 -109 -64 -178 -194 -202l-34 44c74 20 111 42 111 77c0 25 -10 33 -37 44c-25 11 -52 30 -52 74c0 48 39 88 96 88c64 0 110 -53 110 -125zM251 371c0 -57 -47 -103 -103 -103s-102 46 -102 103c0 55 46 101 102 101s103 -46 103 -101z" />
    <glyph glyph-name="tonos" unicode="&#x384;" horiz-adv-x="392" 
d="M205 557l-100 4l60 214l148 -31z" />
    <glyph glyph-name="dieresistonos" unicode="&#x385;" horiz-adv-x="490" 
d="M169 645c0 -44 -37 -80 -83 -80c-45 0 -81 36 -81 80c0 45 37 81 83 81s81 -36 81 -81zM485 645c0 -44 -37 -80 -82 -80s-82 36 -82 80c0 45 37 81 83 81s81 -36 81 -81zM269 567l-90 4l28 227l136 -40z" />
    <glyph glyph-name="Alphatonos" unicode="&#x386;" horiz-adv-x="677" 
d="M425 98l-25 77h-207l-21 -77c-3 -9 -4 -16 -4 -21c0 -22 19 -24 61 -26v-51h-224v51c40 5 54 12 69 58l190 588h142l206 -588c15 -42 24 -53 60 -58v-51h-300v51c44 2 58 9 58 25c0 6 -2 13 -5 22zM267 435l-50 -175h155l-58 178c-13 42 -17 64 -20 80h-6
c-2 -12 -6 -34 -21 -83zM119 497l-100 4l57 214l148 -31z" />
    <glyph glyph-name="anoteleia" unicode="&#x387;" horiz-adv-x="305" 
d="M255 283c0 -57 -47 -103 -103 -103s-102 46 -102 103c0 55 46 101 102 101s103 -46 103 -101z" />
    <glyph glyph-name="Epsilontonos" unicode="&#x388;" horiz-adv-x="605" 
d="M25 0v50c47 0 64 13 64 70v454c0 57 -17 70 -64 70v53h514l12 -177h-88c-22 76 -31 97 -107 97h-84v-230h48c62 0 77 14 81 71h77v-218h-77c-4 54 -18 71 -80 71h-49v-237h105c62 0 89 23 97 116h89v-190h-538zM-109 497l-100 4l57 214l148 -31z" />
    <glyph glyph-name="Etatonos" unicode="&#x389;" horiz-adv-x="762" 
d="M490 120v190h-218v-190c0 -57 17 -70 64 -70v-50h-311v50c47 0 64 13 64 70v454c0 57 -17 70 -64 70v53h311v-53c-47 0 -64 -13 -64 -70v-179h218v179c0 57 -17 70 -64 70v53h311v-53c-47 0 -64 -13 -64 -70v-454c0 -57 17 -70 64 -70v-50h-311v50c47 0 64 13 64 70z
M-110 497l-100 4l57 214l148 -31z" />
    <glyph glyph-name="Iotatonos" unicode="&#x38a;" horiz-adv-x="361" 
d="M89 120v454c0 57 -17 70 -64 70v53h311v-53c-47 0 -64 -13 -64 -70v-454c0 -57 17 -70 64 -70v-50h-311v50c47 0 64 13 64 70zM-112 497l-100 4l57 214l148 -31z" />
    <glyph glyph-name="Omicrontonos" unicode="&#x38c;" horiz-adv-x="720" 
d="M360 -12c-202 0 -320 121 -320 349c0 264 136 372 320 372s320 -108 320 -372c0 -228 -118 -349 -320 -349zM360 628c-78 0 -116 -57 -116 -283c0 -242 45 -284 116 -284s116 42 116 287c0 223 -38 280 -116 280zM12 497l-100 4l57 214l148 -31z" />
    <glyph glyph-name="Upsilontonos" unicode="&#x38e;" horiz-adv-x="680" 
d="M384 366h6l93 220c5 12 8 22 8 31c0 19 -14 29 -47 29v51h219v-51c-40 -5 -53 -14 -74 -58l-157 -327v-141c0 -57 17 -70 74 -70v-50h-331v50c57 0 74 13 74 70v140l-164 328c-22 44 -34 53 -68 58v51h305v-51c-32 0 -47 -13 -47 -33c0 -8 2 -17 7 -27zM-120 497l-100 4
l57 214l148 -31z" />
    <glyph glyph-name="Omegatonos" unicode="&#x38f;" horiz-adv-x="738" 
d="M369 634c-93 0 -124 -51 -124 -243c0 -139 25 -228 95 -297v-94h-296l-14 173h71c16 -77 56 -79 118 -79h30c-93 49 -205 159 -205 306c0 196 145 309 325 309s325 -113 325 -309c0 -147 -112 -257 -205 -306h30c62 0 102 2 118 79h71l-14 -173h-296v94
c70 69 95 158 95 297c0 192 -31 243 -124 243zM4 497l-100 4l57 214l148 -31z" />
    <glyph glyph-name="iotadieresistonos" unicode="&#x390;" horiz-adv-x="309" 
d="M220 529v-402c0 -40 15 -52 45 -52c12 0 27 1 39 4v-58c-32 -19 -70 -30 -125 -30c-107 0 -131 82 -131 146v200c0 73 0 128 -3 169l145 23h30zM55 645c0 -44 -37 -80 -83 -80c-45 0 -81 36 -81 80c0 45 37 81 83 81s81 -36 81 -81zM371 645c0 -44 -37 -80 -82 -80
s-82 36 -82 80c0 45 37 81 83 81s81 -36 81 -81zM155 567l-90 4l28 227l136 -40z" />
    <glyph glyph-name="Alpha" unicode="&#x391;" horiz-adv-x="677" 
d="M425 98l-25 77h-207l-21 -77c-3 -9 -4 -16 -4 -21c0 -22 19 -24 61 -26v-51h-224v51c40 5 54 12 69 58l190 588h142l206 -588c15 -42 24 -53 60 -58v-51h-300v51c44 2 58 9 58 25c0 6 -2 13 -5 22zM267 435l-50 -175h155l-58 178c-13 42 -17 64 -20 80h-6
c-2 -12 -6 -34 -21 -83z" />
    <glyph glyph-name="Beta" unicode="&#x392;" horiz-adv-x="646" 
d="M25 0v50c47 0 64 13 64 70v454c0 57 -17 70 -64 70v53h350c128 0 232 -58 232 -189c0 -104 -68 -144 -157 -156v-4c125 -12 181 -71 181 -171c0 -111 -62 -177 -235 -177h-371zM272 74h59c73 0 108 22 108 118c0 85 -32 119 -101 119h-66v-237zM272 388h44
c70 0 96 19 96 115c0 85 -29 114 -100 114h-40v-229z" />
    <glyph glyph-name="Gamma" unicode="&#x393;" horiz-adv-x="570" 
d="M272 617v-497c0 -57 17 -70 84 -70v-50h-331v50c47 0 64 13 64 70v454c0 57 -17 70 -64 70v53h523l12 -194h-88c-21 90 -31 114 -107 114h-93z" />
    <glyph glyph-name="uni0394" unicode="&#x394;" horiz-adv-x="601" 
d="M113 76h279l-110 332c-20 60 -29 98 -30 110h-6c-2 -13 -10 -53 -29 -112zM591 0h-581v55l216 642h134l231 -642v-55z" />
    <glyph glyph-name="Epsilon" unicode="&#x395;" horiz-adv-x="605" 
d="M25 0v50c47 0 64 13 64 70v454c0 57 -17 70 -64 70v53h514l12 -177h-88c-22 76 -31 97 -107 97h-84v-230h48c62 0 77 14 81 71h77v-218h-77c-4 54 -18 71 -80 71h-49v-237h105c62 0 89 23 97 116h89v-190h-538z" />
    <glyph glyph-name="Zeta" unicode="&#x396;" horiz-adv-x="587" 
d="M550 641l-318 -567h111c77 0 101 33 121 123h88l-10 -197h-515v56l321 569h-99c-67 0 -85 -35 -105 -113h-92l8 185h490v-56z" />
    <glyph glyph-name="Eta" unicode="&#x397;" horiz-adv-x="762" 
d="M490 120v190h-218v-190c0 -57 17 -70 64 -70v-50h-311v50c47 0 64 13 64 70v454c0 57 -17 70 -64 70v53h311v-53c-47 0 -64 -13 -64 -70v-179h218v179c0 57 -17 70 -64 70v53h311v-53c-47 0 -64 -13 -64 -70v-454c0 -57 17 -70 64 -70v-50h-311v50c47 0 64 13 64 70z" />
    <glyph glyph-name="Theta" unicode="&#x398;" horiz-adv-x="750" 
d="M375 -12c-202 0 -335 121 -335 349c0 264 151 372 335 372s335 -108 335 -372c0 -228 -133 -349 -335 -349zM375 628c-83 0 -136 -57 -136 -283c0 -242 60 -284 136 -284s136 42 136 287c0 223 -53 280 -136 280zM385 311h-13c-42 0 -47 -16 -51 -55h-45v198h45
c4 -42 10 -55 52 -55h11c42 0 48 13 52 55h45v-198h-45c-4 39 -9 55 -51 55z" />
    <glyph glyph-name="Iota" unicode="&#x399;" horiz-adv-x="361" 
d="M89 120v454c0 57 -17 70 -64 70v53h311v-53c-47 0 -64 -13 -64 -70v-454c0 -57 17 -70 64 -70v-50h-311v50c47 0 64 13 64 70z" />
    <glyph glyph-name="Kappa" unicode="&#x39a;" horiz-adv-x="711" 
d="M89 120v454c0 57 -17 70 -64 70v53h311v-53c-47 0 -64 -13 -64 -70v-454c0 -57 17 -70 64 -70v-50h-311v50c47 0 64 13 64 70zM583 588l-137 -175l169 -314c21 -39 42 -46 81 -49v-50h-230l-178 340l192 259c5 7 8 15 8 21c0 14 -12 26 -38 26v51h229v-51
c-40 -5 -66 -20 -96 -58z" />
    <glyph glyph-name="Lambda" unicode="&#x39b;" horiz-adv-x="671" 
d="M419 98l-107 340c-13 42 -17 64 -20 80h-6c-2 -12 -6 -34 -20 -83l-94 -337c-3 -9 -4 -16 -4 -21c0 -22 19 -24 61 -26v-51h-224v51c40 5 54 12 69 58l188 588h142l202 -588c15 -42 24 -53 60 -58v-51h-300v51c44 2 57 9 57 25c0 6 -1 13 -4 22z" />
    <glyph glyph-name="Mu" unicode="&#x39c;" horiz-adv-x="912" 
d="M852 697v-52c-69 -4 -74 -23 -69 -76l40 -443c5 -56 13 -75 69 -77v-49h-314v49c63 2 68 16 63 72l-26 305c-2 26 -3 77 -3 104v22h-4c-3 -17 -14 -77 -25 -117l-113 -435h-107l-124 407c-16 52 -27 120 -32 146h-4c-1 -30 -3 -100 -6 -140l-18 -291c-3 -57 7 -73 61 -73
v-49h-220v49c56 2 66 19 70 79l30 441c3 49 4 73 -69 76v52h286l92 -304c14 -47 25 -119 28 -143h4c4 23 14 88 28 143l78 304h285z" />
    <glyph glyph-name="Nu" unicode="&#x39d;" horiz-adv-x="712" 
d="M541 401v173c0 57 -17 70 -64 70v53h220v-53c-47 0 -64 -13 -64 -70v-574h-130l-242 368c-44 67 -72 120 -83 140h-3c2 -21 8 -90 8 -140v-248c0 -57 17 -70 64 -70v-50h-222v50c47 0 64 13 64 70v454c0 57 -17 70 -64 70v53h260l194 -296c32 -49 54 -97 66 -125h4
c-2 20 -8 81 -8 125z" />
    <glyph glyph-name="Xi" unicode="&#x39e;" horiz-adv-x="625" 
d="M590 0h-555l-7 210h89c8 -73 35 -91 97 -91h197c62 0 89 18 97 91h89zM390 583h-155c-76 0 -95 -27 -107 -93h-88l9 207h527l9 -207h-88c-12 66 -31 93 -107 93zM275 306c-62 0 -72 -17 -80 -61h-77v208h77c8 -47 19 -61 81 -61h73c62 0 73 14 81 61h77v-208h-77
c-8 44 -18 61 -80 61h-75z" />
    <glyph glyph-name="Omicron" unicode="&#x39f;" horiz-adv-x="720" 
d="M360 -12c-202 0 -320 121 -320 349c0 264 136 372 320 372s320 -108 320 -372c0 -228 -118 -349 -320 -349zM360 628c-78 0 -116 -57 -116 -283c0 -242 45 -284 116 -284s116 42 116 287c0 223 -38 280 -116 280z" />
    <glyph glyph-name="Pi" unicode="&#x3a0;" horiz-adv-x="758" 
d="M486 120v495h-214v-495c0 -57 15 -70 62 -70v-50h-309v50c47 0 64 13 64 70v454c0 57 -17 70 -64 70v53h708v-53c-47 0 -64 -13 -64 -70v-454c0 -57 17 -70 64 -70v-50h-309v50c47 0 62 13 62 70z" />
    <glyph glyph-name="Rho" unicode="&#x3a1;" horiz-adv-x="617" 
d="M272 258v-138c0 -57 17 -70 84 -70v-50h-331v50c47 0 64 13 64 70v454c0 57 -17 70 -64 70v53h347c141 0 245 -58 245 -217c0 -103 -45 -222 -253 -222h-92zM422 481c0 101 -29 136 -100 136h-50v-274h54c70 0 96 28 96 138z" />
    <glyph glyph-name="Sigma" unicode="&#x3a3;" horiz-adv-x="592" 
d="M242 332l-229 307v58h521l12 -175h-88c-22 76 -31 102 -107 102h-115l175 -245l-222 -254h178c73 0 85 21 107 97h88l-22 -222h-530v65z" />
    <glyph glyph-name="Tau" unicode="&#x3a4;" horiz-adv-x="633" 
d="M27 697h579l12 -197h-87c-22 86 -28 117 -94 117h-29v-497c0 -57 17 -70 74 -70v-50h-331v50c57 0 74 13 74 70v497h-29c-66 0 -72 -31 -94 -117h-87z" />
    <glyph glyph-name="Upsilon" unicode="&#x3a5;" horiz-adv-x="680" 
d="M384 366h6l93 220c5 12 8 22 8 31c0 19 -14 29 -47 29v51h219v-51c-40 -5 -53 -14 -74 -58l-157 -327v-141c0 -57 17 -70 74 -70v-50h-331v50c57 0 74 13 74 70v140l-164 328c-22 44 -34 53 -68 58v51h305v-51c-32 0 -47 -13 -47 -33c0 -8 2 -17 7 -27z" />
    <glyph glyph-name="Phi" unicode="&#x3a6;" horiz-adv-x="901" 
d="M604 697v-53c-40 0 -63 -10 -63 -48c220 0 330 -74 330 -248c0 -208 -167 -248 -330 -248c0 -41 22 -50 63 -50v-50h-307v50c41 0 63 9 63 50c-163 0 -330 40 -330 248c0 174 110 248 330 248c0 38 -23 48 -63 48v53h307zM219 348c0 -107 23 -170 142 -176v352
c-110 0 -142 -64 -142 -176zM682 348c0 112 -32 176 -142 176v-352c119 6 142 69 142 176z" />
    <glyph glyph-name="Chi" unicode="&#x3a7;" horiz-adv-x="713" 
d="M593 588l-147 -208l174 -271c26 -40 37 -53 73 -58v-51h-329v51c34 0 52 15 52 33c0 7 -2 13 -7 21l-100 164h-6l-101 -166c-4 -6 -6 -13 -6 -19c0 -18 18 -32 50 -33v-51h-226v51c38 5 58 17 84 58l150 234l-155 245c-26 41 -33 53 -65 58v51h316v-51
c-34 0 -52 -14 -52 -33c0 -6 2 -14 6 -21l87 -144h6l91 142c5 9 8 17 8 24c0 19 -19 32 -50 32v51h224v-51c-38 -5 -50 -19 -77 -58z" />
    <glyph glyph-name="Psi" unicode="&#x3a8;" horiz-adv-x="823" 
d="M769 486c-11 -92 -41 -142 -80 -175c-46 -38 -111 -59 -188 -63v-128c0 -57 17 -70 64 -70v-50h-307v50c47 0 64 13 64 70v128c-77 4 -143 26 -188 64c-39 33 -69 82 -80 174c-11 95 -15 110 -52 121l19 102c142 -8 188 -49 202 -194c12 -123 35 -166 99 -179v238
c0 57 -10 70 -57 70v53h293v-53c-47 0 -57 -13 -57 -70v-238c63 13 87 56 99 179c14 145 60 186 202 194l19 -102c-37 -11 -41 -26 -52 -121z" />
    <glyph glyph-name="uni03A9" unicode="&#x3a9;" horiz-adv-x="738" 
d="M369 634c-93 0 -124 -51 -124 -243c0 -139 25 -228 95 -297v-94h-296l-14 173h71c16 -77 56 -79 118 -79h30c-93 49 -205 159 -205 306c0 196 145 309 325 309s325 -113 325 -309c0 -147 -112 -257 -205 -306h30c62 0 102 2 118 79h71l-14 -173h-296v94
c70 69 95 158 95 297c0 192 -31 243 -124 243z" />
    <glyph glyph-name="Iotadieresis" unicode="&#x3aa;" horiz-adv-x="361" 
d="M89 120v454c0 57 -17 70 -64 70v53h311v-53c-47 0 -64 -13 -64 -70v-454c0 -57 17 -70 64 -70v-50h-311v50c47 0 64 13 64 70zM158 830c0 -49 -41 -89 -92 -89c-50 0 -91 40 -91 89c0 50 42 90 93 90s90 -40 90 -90zM387 830c0 -49 -41 -89 -92 -89c-50 0 -91 40 -91 89
c0 50 42 90 93 90s90 -40 90 -90z" />
    <glyph glyph-name="Upsilondieresis" unicode="&#x3ab;" horiz-adv-x="680" 
d="M384 366h6l93 220c5 12 8 22 8 31c0 19 -14 29 -47 29v51h219v-51c-40 -5 -53 -14 -74 -58l-157 -327v-141c0 -57 17 -70 74 -70v-50h-331v50c57 0 74 13 74 70v140l-164 328c-22 44 -34 53 -68 58v51h305v-51c-32 0 -47 -13 -47 -33c0 -8 2 -17 7 -27zM317 830
c0 -49 -41 -89 -92 -89c-50 0 -91 40 -91 89c0 50 42 90 93 90s90 -40 90 -90zM546 830c0 -49 -41 -89 -92 -89c-50 0 -91 40 -91 89c0 50 42 90 93 90s90 -40 90 -90z" />
    <glyph glyph-name="alphatonos" unicode="&#x3ac;" horiz-adv-x="629" 
d="M499 -9c-63 0 -96 28 -113 71c-27 -44 -76 -72 -138 -72c-132 0 -213 94 -213 257s72 282 225 282c57 0 98 -23 123 -55c5 12 11 24 18 37l122 11h30c-11 -42 -12 -86 -12 -129v-261c0 -45 18 -57 44 -57c12 0 22 1 34 4v-54c-36 -20 -73 -34 -120 -34zM369 190v127
c0 106 -31 138 -66 138c-42 0 -83 -44 -83 -197s25 -194 72 -194c43 0 77 56 77 126zM310 557l-100 4l60 214l148 -31z" />
    <glyph glyph-name="epsilontonos" unicode="&#x3ad;" horiz-adv-x="518" 
d="M321 80c72 0 119 24 158 46l29 -45c-46 -53 -128 -98 -247 -98c-124 0 -236 38 -236 159c0 79 53 121 145 128v6c-88 16 -121 52 -121 118c0 84 68 135 238 135c67 0 144 -12 196 -39v-114h-125c-1 63 -30 84 -65 84c-45 0 -68 -27 -68 -81c0 -43 9 -76 63 -76h52v-72
h-49c-61 0 -79 -28 -79 -75c0 -62 56 -76 109 -76zM315 557l-100 4l60 214l148 -31z" />
    <glyph glyph-name="etatonos" unicode="&#x3ae;" horiz-adv-x="661" 
d="M398 137c0 61 2 154 2 236c0 49 -17 55 -46 55c-33 0 -72 -25 -96 -54v-127c0 -126 -2 -194 -6 -247h-184v35c11 24 18 64 18 161v150c0 62 -14 71 -71 73v57l186 53h30c5 -10 16 -47 17 -85c48 49 120 85 181 85c111 0 143 -50 143 -141v-261c0 -40 15 -52 45 -52
c12 0 27 1 39 4v-58c-32 -19 -70 -30 -125 -30c-107 0 -133 82 -133 146zM406 557l-100 4l60 214l148 -31z" />
    <glyph glyph-name="iotatonos" unicode="&#x3af;" horiz-adv-x="309" 
d="M220 529v-402c0 -40 15 -52 45 -52c12 0 27 1 39 4v-58c-32 -19 -70 -30 -125 -30c-107 0 -131 82 -131 146v200c0 73 0 128 -3 169l145 23h30zM161 557l-100 4l60 214l148 -31z" />
    <glyph glyph-name="upsilondieresistonos" unicode="&#x3b0;" horiz-adv-x="622" 
d="M356 477v29l154 23c23 -27 77 -112 77 -211c0 -186 -105 -331 -329 -331c-112 0 -170 53 -170 161v208c0 53 -15 73 -83 75v58c35 19 83 36 131 36c97 0 125 -60 125 -135v-248c0 -49 6 -87 38 -87c78 0 100 135 100 240c0 82 -26 150 -43 182zM215 645
c0 -44 -37 -80 -83 -80c-45 0 -81 36 -81 80c0 45 37 81 83 81s81 -36 81 -81zM531 645c0 -44 -37 -80 -82 -80s-82 36 -82 80c0 45 37 81 83 81s81 -36 81 -81zM315 567l-90 4l28 227l136 -40z" />
    <glyph glyph-name="alpha" unicode="&#x3b1;" horiz-adv-x="629" 
d="M499 -9c-63 0 -96 28 -113 71c-27 -44 -76 -72 -138 -72c-132 0 -213 94 -213 257s72 282 225 282c57 0 98 -23 123 -55c5 12 11 24 18 37l122 11h30c-11 -42 -12 -86 -12 -129v-261c0 -45 18 -57 44 -57c12 0 22 1 34 4v-54c-36 -20 -73 -34 -120 -34zM369 190v127
c0 106 -31 138 -66 138c-42 0 -83 -44 -83 -197s25 -194 72 -194c43 0 77 56 77 126z" />
    <glyph glyph-name="beta" unicode="&#x3b2;" horiz-adv-x="588" 
d="M326 -13c-35 0 -84 10 -103 26c2 -28 6 -87 6 -147v-50l-180 -24l-5 34c10 53 13 117 13 188v522c0 144 84 210 237 210c160 0 226 -70 226 -182c0 -74 -39 -136 -126 -160v-5c117 -16 162 -86 162 -194c0 -122 -56 -218 -230 -218zM299 64c49 0 78 25 78 140
c0 122 -34 161 -106 161h-18v65h22c53 0 70 38 70 131c0 85 -18 121 -53 121c-40 0 -63 -23 -63 -151v-441c17 -16 41 -26 70 -26z" />
    <glyph glyph-name="gamma" unicode="&#x3b3;" horiz-adv-x="529" 
d="M370 467v46l132 13l7 -65c0 -135 -72 -340 -131 -439c-54 -90 -133 -186 -300 -244l-46 116c124 10 181 32 181 83c0 23 -7 61 -79 279c-58 175 -80 179 -144 180v56c35 19 76 32 121 32c102 0 139 -79 177 -203c25 -80 35 -144 35 -200c0 -21 -2 -40 -5 -59h5
c39 79 95 282 95 343c0 30 -7 50 -48 62z" />
    <glyph glyph-name="delta" unicode="&#x3b4;" horiz-adv-x="578" 
d="M85 595c0 96 79 151 203 151c132 0 195 -55 195 -129c0 -15 -3 -32 -9 -49l-68 -25c-23 69 -66 117 -144 117c-48 0 -73 -15 -73 -41c0 -35 61 -58 173 -120c102 -56 186 -122 186 -257c0 -144 -86 -255 -260 -255c-181 0 -258 87 -258 236c0 93 45 174 139 228
c-61 43 -84 87 -84 144zM216 228c0 -96 8 -174 74 -174s72 80 72 177c0 81 -27 126 -117 175c-28 -45 -29 -65 -29 -178z" />
    <glyph glyph-name="epsilon" unicode="&#x3b5;" horiz-adv-x="518" 
d="M321 80c72 0 119 24 158 46l29 -45c-46 -53 -128 -98 -247 -98c-124 0 -236 38 -236 159c0 79 53 121 145 128v6c-88 16 -121 52 -121 118c0 84 68 135 238 135c67 0 144 -12 196 -39v-114h-125c-1 63 -30 84 -65 84c-45 0 -68 -27 -68 -81c0 -43 9 -76 63 -76h52v-72
h-49c-61 0 -79 -28 -79 -75c0 -62 56 -76 109 -76z" />
    <glyph glyph-name="zeta" unicode="&#x3b6;" horiz-adv-x="482" 
d="M196 564c-56 28 -94 95 -94 161l59 24c23 -57 70 -94 134 -103l131 94l71 -19v-28c-16 -101 -90 -148 -190 -148c-53 -53 -95 -140 -95 -272c0 -96 37 -118 131 -149c98 -32 143 -58 143 -147c0 -57 -45 -118 -122 -189l-92 52c27 36 46 66 46 97s-20 45 -73 58
c-154 38 -210 101 -210 249c0 127 72 242 161 320z" />
    <glyph glyph-name="eta" unicode="&#x3b7;" horiz-adv-x="661" 
d="M398 137c0 61 2 154 2 236c0 49 -17 55 -46 55c-33 0 -72 -25 -96 -54v-127c0 -126 -2 -194 -6 -247h-184v35c11 24 18 64 18 161v150c0 62 -14 71 -71 73v57l186 53h30c5 -10 16 -47 17 -85c48 49 120 85 181 85c111 0 143 -50 143 -141v-261c0 -40 15 -52 45 -52
c12 0 27 1 39 4v-58c-32 -19 -70 -30 -125 -30c-107 0 -133 82 -133 146z" />
    <glyph glyph-name="theta" unicode="&#x3b8;" horiz-adv-x="576" 
d="M544 380c0 -274 -118 -393 -259 -393c-167 0 -253 137 -253 378c0 231 94 382 264 382c145 0 248 -112 248 -367zM291 54c53 0 72 83 74 280h-154c1 -190 18 -280 80 -280zM289 677c-54 0 -76 -68 -78 -276h154c-1 200 -19 276 -76 276z" />
    <glyph glyph-name="iota" unicode="&#x3b9;" horiz-adv-x="309" 
d="M220 529v-402c0 -40 15 -52 45 -52c12 0 27 1 39 4v-58c-32 -19 -70 -30 -125 -30c-107 0 -131 82 -131 146v200c0 73 0 128 -3 169l145 23h30z" />
    <glyph glyph-name="kappa" unicode="&#x3ba;" horiz-adv-x="589" 
d="M420 357c-7 -8 -12 -16 -19 -24l91 -168c26 -40 39 -49 87 -58l-13 -116c-180 0 -205 46 -243 137l-36 85l-29 -29c-1 -87 -3 -141 -6 -184h-184v25c11 24 18 74 18 171v150c0 62 -14 71 -71 73v57l186 53h30c14 -27 27 -77 27 -138v-99c40 42 77 84 104 127
c42 66 64 107 199 111l9 -125l-55 -7c-53 -7 -73 -12 -95 -41z" />
    <glyph glyph-name="lambda" unicode="&#x3bb;" horiz-adv-x="578" 
d="M234 438h-5l-115 -448h-30l-84 26c19 22 38 51 60 132l105 381l40 -7l-22 83c-14 50 -52 51 -106 51v58c36 21 69 32 117 32c55 0 116 -13 144 -92l155 -527c11 -39 18 -55 48 -55c12 0 25 1 37 4v-58c-32 -19 -60 -30 -104 -30c-102 0 -137 70 -158 146z" />
    <glyph glyph-name="uni03BC" unicode="&#x3bc;" horiz-adv-x="622" 
d="M48 -208l-5 34c10 53 14 117 14 188v153c-1 156 -2 227 -4 341l130 21h45v-359c0 -71 31 -80 50 -80c24 0 56 10 81 38v380l129 21h45v-406c0 -40 15 -52 45 -52c12 0 27 1 39 4v-58c-32 -19 -70 -30 -125 -30c-70 0 -102 33 -118 71c-20 -37 -57 -70 -110 -70
c-22 0 -40 3 -53 9l-5 -3c15 -36 22 -60 22 -128v-50z" />
    <glyph glyph-name="nu" unicode="&#x3bd;" horiz-adv-x="540" 
d="M351 -9h-121l-143 363c-21 55 -36 81 -97 82v56c35 19 76 32 121 32c88 0 116 -65 140 -132l87 -245h5c39 79 85 197 85 258c0 30 -7 50 -48 62v46l133 13l7 -65c0 -147 -96 -348 -169 -470z" />
    <glyph glyph-name="xi" unicode="&#x3be;" horiz-adv-x="490" 
d="M167 574c-56 28 -87 86 -87 151l59 24c23 -57 63 -88 127 -97l143 87l71 -19v-28c-27 -120 -113 -137 -213 -137c-33 -25 -44 -50 -44 -80c0 -71 50 -95 142 -95h40v-72h-37c-107 0 -165 -40 -165 -97c0 -56 39 -66 144 -91c100 -24 143 -61 143 -140
c0 -57 -45 -121 -122 -192l-92 52c27 36 46 69 46 100s-19 44 -73 55c-134 28 -224 67 -224 174c0 105 108 167 200 174v6c-113 6 -151 46 -151 102c0 49 35 87 93 123z" />
    <glyph glyph-name="omicron" unicode="&#x3bf;" horiz-adv-x="598" 
d="M563 271c0 -204 -127 -284 -268 -284c-167 0 -260 98 -260 269c0 161 101 273 271 273c145 0 257 -73 257 -258zM373 278c0 141 -25 181 -74 181c-47 0 -74 -38 -74 -210c0 -136 14 -195 76 -195c48 0 72 59 72 224z" />
    <glyph glyph-name="pi" unicode="&#x3c0;" horiz-adv-x="630" 
d="M481 -9c-107 0 -131 82 -131 146v108c0 34 2 88 5 127h-138c-1 -135 -6 -276 -38 -372h-153l-2 25c58 66 100 196 114 347c-39 -2 -72 -20 -96 -43l-37 30c23 96 77 157 203 157h268c45 0 72 2 104 13h30l-19 -136c-19 -12 -42 -20 -72 -21v-245c0 -40 20 -52 50 -52
c12 0 27 1 39 4v-58c-32 -19 -72 -30 -127 -30z" />
    <glyph glyph-name="rho" unicode="&#x3c1;" horiz-adv-x="604" 
d="M223 -134v-50l-180 -24l-5 34c10 53 13 117 13 188v284c0 144 91 231 257 231c160 0 261 -83 261 -258c0 -152 -73 -284 -247 -284c-48 0 -92 21 -106 39l-4 -2c4 -32 11 -103 11 -158zM379 259c0 165 -25 201 -79 201c-40 0 -77 -32 -77 -157v-200c10 -15 40 -38 74 -38
c49 0 82 40 82 194z" />
    <glyph glyph-name="sigma1" unicode="&#x3c2;" horiz-adv-x="488" 
d="M212 273c0 -86 26 -118 120 -151c97 -34 146 -60 146 -145c0 -57 -45 -118 -122 -189l-92 52c27 36 46 69 46 100s-20 42 -73 55c-143 35 -202 118 -202 259c0 177 125 275 268 275c80 0 131 -15 170 -41v-117h-129c-1 63 -5 89 -40 89c-34 0 -92 -32 -92 -187z" />
    <glyph glyph-name="sigma" unicode="&#x3c3;" horiz-adv-x="606" 
d="M450 440v-5c69 -46 99 -121 99 -186c0 -184 -119 -262 -260 -262c-162 0 -254 98 -254 269c0 161 100 273 265 273c63 0 90 -13 172 -13c36 0 82 5 116 19l18 -108c-22 -11 -33 -14 -63 -14c-35 0 -76 19 -93 27zM361 278c0 158 -22 181 -68 181c-44 0 -68 -38 -68 -210
c0 -136 11 -195 70 -195c48 0 66 59 66 224z" />
    <glyph glyph-name="tau" unicode="&#x3c4;" horiz-adv-x="585" 
d="M457 372h-81v-245c0 -40 20 -52 50 -52c12 0 27 1 39 4v-58c-32 -19 -72 -30 -127 -30c-107 0 -128 82 -128 146c0 119 16 197 20 235h-81c-41 0 -76 -19 -102 -43l-37 30c23 96 75 157 201 157h225c45 0 72 2 104 13h30l-19 -136c-21 -13 -58 -21 -94 -21z" />
    <glyph glyph-name="upsilon" unicode="&#x3c5;" horiz-adv-x="622" 
d="M356 477v29l154 23c23 -27 77 -112 77 -211c0 -186 -105 -331 -329 -331c-112 0 -170 53 -170 161v208c0 53 -15 73 -83 75v58c35 19 83 36 131 36c97 0 125 -60 125 -135v-248c0 -49 6 -87 38 -87c78 0 100 135 100 240c0 82 -26 150 -43 182z" />
    <glyph glyph-name="phi" unicode="&#x3c6;" horiz-adv-x="858" 
d="M823 271c0 -128 -34 -281 -318 -284v-171l-176 -24l-5 34c8 46 12 101 13 161c-185 5 -302 78 -302 243c0 124 55 223 140 296l135 -18c-55 -57 -97 -166 -97 -259c0 -126 28 -191 124 -194v243c0 144 72 231 238 231c160 0 248 -83 248 -258zM505 303v-248
c89 4 131 73 131 223c0 156 -24 182 -69 182c-40 0 -62 -32 -62 -157z" />
    <glyph glyph-name="chi" unicode="&#x3c7;" horiz-adv-x="557" 
d="M438 -12c-83 0 -110 37 -145 108l-43 87h-5l-137 -193h-30l-78 26c29 20 49 41 99 110l95 129l-71 137c-21 40 -33 48 -63 48c-12 0 -23 -2 -30 -4v58c32 19 70 30 119 30c83 0 99 -31 133 -96l33 -65h5l102 159h30l84 -26c-29 -20 -51 -38 -99 -108l-68 -100l93 -158
c27 -47 38 -58 63 -58c12 0 19 2 32 4v-58c-32 -19 -77 -30 -119 -30z" />
    <glyph glyph-name="psi" unicode="&#x3c8;" horiz-adv-x="841" 
d="M513 736v-681c71 7 110 84 110 237c0 82 -29 153 -46 185v29l147 23c28 -29 82 -124 82 -215c0 -167 -91 -321 -293 -326v-172l-175 -24l-5 34c8 46 16 101 17 161c-122 2 -262 56 -262 231v138c0 53 -15 73 -83 75v58c35 19 83 36 131 36c97 0 120 -60 120 -135v-180
c0 -104 37 -147 94 -154v488c0 73 -3 126 -5 169l138 23h30z" />
    <glyph glyph-name="omega" unicode="&#x3c9;" horiz-adv-x="824" 
d="M330 263c0 29 -4 65 -7 101l144 19h30v-241c0 -74 19 -87 41 -87c52 0 69 98 69 222c0 95 -31 166 -51 197v30l148 24c19 -25 85 -143 85 -234c0 -191 -84 -307 -262 -307c-81 0 -123 32 -145 71c-26 -44 -68 -71 -136 -71c-122 0 -211 73 -211 243c0 124 57 223 142 296
l138 -18c-55 -57 -99 -166 -99 -259c0 -129 9 -192 58 -192c39 0 56 53 56 206z" />
    <glyph glyph-name="iotadieresis" unicode="&#x3ca;" horiz-adv-x="309" 
d="M220 529v-402c0 -40 15 -52 45 -52c12 0 27 1 39 4v-58c-32 -19 -70 -30 -125 -30c-107 0 -131 82 -131 146v200c0 73 0 128 -3 169l145 23h30zM112 650c0 -49 -41 -89 -92 -89c-50 0 -91 40 -91 89c0 50 42 90 93 90s90 -40 90 -90zM341 650c0 -49 -41 -89 -92 -89
c-50 0 -91 40 -91 89c0 50 42 90 93 90s90 -40 90 -90z" />
    <glyph glyph-name="upsilondieresis" unicode="&#x3cb;" horiz-adv-x="622" 
d="M356 477v29l154 23c23 -27 77 -112 77 -211c0 -186 -105 -331 -329 -331c-112 0 -170 53 -170 161v208c0 53 -15 73 -83 75v58c35 19 83 36 131 36c97 0 125 -60 125 -135v-248c0 -49 6 -87 38 -87c78 0 100 135 100 240c0 82 -26 150 -43 182zM278 650
c0 -49 -41 -89 -92 -89c-50 0 -91 40 -91 89c0 50 42 90 93 90s90 -40 90 -90zM507 650c0 -49 -41 -89 -92 -89c-50 0 -91 40 -91 89c0 50 42 90 93 90s90 -40 90 -90z" />
    <glyph glyph-name="omicrontonos" unicode="&#x3cc;" horiz-adv-x="598" 
d="M563 271c0 -204 -127 -284 -268 -284c-167 0 -260 98 -260 269c0 161 101 273 271 273c145 0 257 -73 257 -258zM373 278c0 141 -25 181 -74 181c-47 0 -74 -38 -74 -210c0 -136 14 -195 76 -195c48 0 72 59 72 224zM343 557l-100 4l60 214l148 -31z" />
    <glyph glyph-name="upsilontonos" unicode="&#x3cd;" horiz-adv-x="622" 
d="M356 477v29l154 23c23 -27 77 -112 77 -211c0 -186 -105 -331 -329 -331c-112 0 -170 53 -170 161v208c0 53 -15 73 -83 75v58c35 19 83 36 131 36c97 0 125 -60 125 -135v-248c0 -49 6 -87 38 -87c78 0 100 135 100 240c0 82 -26 150 -43 182zM339 557l-100 4l60 214
l148 -31z" />
    <glyph glyph-name="omegatonos" unicode="&#x3ce;" horiz-adv-x="824" 
d="M330 263c0 29 -4 65 -7 101l144 19h30v-241c0 -74 19 -87 41 -87c52 0 69 98 69 222c0 95 -31 166 -51 197v30l148 24c19 -25 85 -143 85 -234c0 -191 -84 -307 -262 -307c-81 0 -123 32 -145 71c-26 -44 -68 -71 -136 -71c-122 0 -211 73 -211 243c0 124 57 223 142 296
l138 -18c-55 -57 -99 -166 -99 -259c0 -129 9 -192 58 -192c39 0 56 53 56 206zM475 557l-100 4l60 214l148 -31z" />
    <glyph glyph-name="uni03D0" unicode="&#x3d0;" horiz-adv-x="614" 
d="M543 567c0 -72 -47 -130 -126 -170c103 -19 166 -82 166 -190c0 -145 -91 -220 -270 -220c-165 0 -273 110 -273 345c0 311 101 414 265 414c162 0 238 -70 238 -179zM405 206c0 85 -18 124 -78 159c-23 -6 -49 -11 -76 -16l-9 68c97 19 127 67 127 145
c0 79 -17 120 -67 120c-61 0 -87 -56 -87 -342c0 -221 32 -287 97 -287c51 0 93 37 93 153z" />
    <glyph glyph-name="theta1" unicode="&#x3d1;" horiz-adv-x="616" 
d="M25 308l113 33c49 -29 83 -65 83 -163c0 -103 34 -125 82 -125c55 0 90 49 95 254c-204 38 -331 101 -331 244c0 109 69 195 242 195c164 0 267 -83 267 -394c0 -266 -103 -365 -271 -365s-255 64 -255 209c0 54 -8 79 -25 112zM241 550c0 -92 38 -145 158 -166
c-2 274 -34 298 -87 298c-47 0 -71 -46 -71 -132z" />
    <glyph glyph-name="Upsilon1" unicode="&#x3d2;" horiz-adv-x="669" 
d="M432 217v-107c0 -57 17 -60 74 -60v-50h-331v50c57 0 74 3 74 60v97c0 168 -56 336 -247 384l13 118c252 0 336 -112 349 -365h4c25 218 94 364 288 364l13 -89c-166 -27 -237 -181 -237 -402z" />
    <glyph glyph-name="uni03D3" unicode="&#x3d3;" horiz-adv-x="669" 
d="M432 217v-107c0 -57 17 -60 74 -60v-50h-331v50c57 0 74 3 74 60v97c0 168 -56 336 -247 384l13 118c252 0 336 -112 349 -365h4c25 218 94 364 288 364l13 -89c-166 -27 -237 -181 -237 -402zM-124 497l-100 4l57 214l148 -31z" />
    <glyph glyph-name="uni03D4" unicode="&#x3d4;" horiz-adv-x="669" 
d="M323 830c0 -49 -41 -89 -92 -89c-50 0 -91 40 -91 89c0 50 42 90 93 90s90 -40 90 -90zM552 830c0 -49 -41 -89 -92 -89c-50 0 -91 40 -91 89c0 50 42 90 93 90s90 -40 90 -90zM432 217v-107c0 -57 17 -60 74 -60v-50h-331v50c57 0 74 3 74 60v97c0 168 -56 336 -247 384
l13 118c252 0 336 -112 349 -365h4c25 218 94 364 288 364l13 -89c-166 -27 -237 -181 -237 -402z" />
    <glyph glyph-name="phi1" unicode="&#x3d5;" horiz-adv-x="865" 
d="M515 736v-208c209 -8 314 -85 314 -258c0 -180 -87 -273 -314 -282v-172l-175 -24l-5 34c8 47 14 101 15 162c-228 9 -314 102 -314 282c0 173 105 250 314 258v16c0 73 -1 128 -4 169l139 23h30zM644 259c0 139 -46 190 -129 199v-402c76 6 129 41 129 203zM221 259
c0 -162 52 -197 129 -203v402c-83 -9 -129 -60 -129 -199z" />
    <glyph glyph-name="uni0400" unicode="&#x400;" horiz-adv-x="605" 
d="M25 0v50c47 0 64 13 64 70v454c0 57 -17 70 -64 70v53h514l12 -177h-88c-22 76 -31 97 -107 97h-84v-230h48c62 0 77 14 81 71h77v-218h-77c-4 54 -18 71 -80 71h-49v-237h105c62 0 89 23 97 116h89v-190h-538zM421 766l-25 -39l-260 73l74 146z" />
    <glyph glyph-name="afii10023" unicode="&#x401;" horiz-adv-x="605" 
d="M25 0v50c47 0 64 13 64 70v454c0 57 -17 70 -64 70v53h514l12 -177h-88c-22 76 -31 97 -107 97h-84v-230h48c62 0 77 14 81 71h77v-218h-77c-4 54 -18 71 -80 71h-49v-237h105c62 0 89 23 97 116h89v-190h-538zM283 830c0 -49 -41 -89 -92 -89c-50 0 -91 40 -91 89
c0 50 42 90 93 90s90 -40 90 -90zM512 830c0 -49 -41 -89 -92 -89c-50 0 -91 40 -91 89c0 50 42 90 93 90s90 -40 90 -90z" />
    <glyph glyph-name="afii10051" unicode="&#x402;" horiz-adv-x="848" 
d="M625 260c0 80 -32 105 -103 105c-39 0 -79 -10 -114 -26v-219c0 -57 19 -70 66 -70v-50h-323v50c57 0 74 13 74 70v497h-29c-66 0 -72 -31 -94 -117h-87l12 197h579l11 -182h-88c-22 86 -36 102 -92 102h-29v-199c49 28 112 52 182 52c159 0 218 -78 218 -197v-60
c0 -164 -103 -229 -268 -261l-22 54c105 48 107 82 107 193v61z" />
    <glyph glyph-name="afii10052" unicode="&#x403;" horiz-adv-x="570" 
d="M272 617v-497c0 -57 17 -70 84 -70v-50h-331v50c47 0 64 13 64 70v454c0 57 -17 70 -64 70v53h523l12 -194h-88c-21 90 -31 114 -107 114h-93zM182 727l-25 39l211 180l74 -146z" />
    <glyph glyph-name="afii10053" unicode="&#x404;" horiz-adv-x="643" 
d="M367 65c79 0 107 40 119 123h119v-143c-43 -33 -129 -58 -243 -58c-202 0 -322 122 -322 350c0 264 131 372 329 372c94 0 165 -18 231 -51v-146h-124c-15 76 -45 116 -109 116c-77 0 -116 -56 -122 -233h218v-85h-219c3 -220 57 -245 123 -245z" />
    <glyph glyph-name="afii10054" unicode="&#x405;" horiz-adv-x="556" 
d="M254 -14c-120 0 -181 29 -229 57v137h119c9 -94 52 -130 116 -130c62 0 106 27 106 103c0 53 -23 86 -97 105l-72 19c-107 27 -171 80 -171 208c0 153 100 224 249 224c111 0 181 -32 213 -48v-150h-118c-8 77 -32 128 -107 128c-60 0 -86 -35 -86 -88
c0 -45 19 -79 86 -95l68 -16c117 -28 195 -93 195 -225c0 -149 -98 -229 -272 -229z" />
    <glyph glyph-name="afii10055" unicode="&#x406;" horiz-adv-x="361" 
d="M89 120v454c0 57 -17 70 -64 70v53h311v-53c-47 0 -64 -13 -64 -70v-454c0 -57 17 -70 64 -70v-50h-311v50c47 0 64 13 64 70z" />
    <glyph glyph-name="afii10056" unicode="&#x407;" horiz-adv-x="361" 
d="M89 120v454c0 57 -17 70 -64 70v53h311v-53c-47 0 -64 -13 -64 -70v-454c0 -57 17 -70 64 -70v-50h-311v50c47 0 64 13 64 70zM158 830c0 -49 -41 -89 -92 -89c-50 0 -91 40 -91 89c0 50 42 90 93 90s90 -40 90 -90zM387 830c0 -49 -41 -89 -92 -89c-50 0 -91 40 -91 89
c0 50 42 90 93 90s90 -40 90 -90z" />
    <glyph glyph-name="afii10057" unicode="&#x408;" horiz-adv-x="361" 
d="M89 100v474c0 57 -17 70 -64 70v53h311v-53c-47 0 -64 -13 -64 -70v-467c0 -164 -106 -229 -277 -254l-26 49c105 48 120 87 120 198z" />
    <glyph glyph-name="afii10058" unicode="&#x409;" horiz-adv-x="990" 
d="M188 574c0 57 -17 70 -64 70v53h575v-53c-45 0 -64 -11 -64 -70v-147h85c141 0 252 -61 252 -215c0 -98 -49 -212 -257 -212h-325v50c47 0 62 13 62 70v495h-174c-1 -178 -13 -334 -38 -448c-31 -137 -93 -183 -222 -183l-14 112c49 12 85 24 117 64c46 57 67 179 67 414
zM777 211c0 96 -33 136 -104 136h-38v-264h42c70 0 100 23 100 128z" />
    <glyph glyph-name="afii10059" unicode="&#x40a;" horiz-adv-x="998" 
d="M470 120v206h-198v-206c0 -57 12 -70 59 -70v-50h-306v50c47 0 64 13 64 70v454c0 57 -17 70 -64 70v53h306v-53c-47 0 -59 -13 -59 -70v-163h198v163c0 57 -12 70 -59 70v53h306v-53c-47 0 -64 -13 -64 -70v-163h85c141 0 252 -55 252 -204c0 -92 -49 -207 -257 -207
h-322v50c47 0 59 13 59 70zM691 331h-38v-248h42c70 0 100 27 100 123c0 93 -33 125 -104 125z" />
    <glyph glyph-name="afii10060" unicode="&#x40b;" horiz-adv-x="882" 
d="M808 120c0 -57 17 -70 64 -70v-50h-301v50c39 0 54 13 54 70v140c0 80 -32 105 -103 105c-39 0 -79 -10 -114 -26v-219c0 -57 19 -70 66 -70v-50h-323v50c57 0 74 13 74 70v497h-29c-66 0 -72 -31 -94 -117h-87l12 197h579l11 -182h-88c-22 86 -36 102 -92 102h-29v-199
c49 28 112 52 182 52c159 0 218 -78 218 -197v-153z" />
    <glyph glyph-name="afii10061" unicode="&#x40c;" horiz-adv-x="705" 
d="M527 488c-12 -47 -31 -88 -95 -110v-5c99 -8 151 -61 170 -164c13 -71 18 -102 83 -112l-16 -112c-148 0 -216 37 -248 182c-30 136 -41 163 -87 163h-62v-210c0 -57 14 -70 61 -70v-50h-308v50c47 0 64 13 64 70v454c0 57 -17 70 -64 70v53h308v-53
c-47 0 -61 -13 -61 -70v-164h26c72 0 137 19 159 149c18 104 89 146 207 150l14 -126l-54 -7c-53 -7 -82 -27 -97 -88zM263 727l-25 39l211 180l74 -146z" />
    <glyph glyph-name="uni040D" unicode="&#x40d;" horiz-adv-x="753" 
d="M490 462h-4c-12 -32 -33 -73 -63 -125l-133 -229c-17 -29 -18 -55 -18 -108h-247v50c47 0 64 13 64 70v454c0 57 -17 70 -64 70v53h310v-53c-47 0 -64 -13 -64 -70v-214c0 -44 -6 -105 -8 -125h4c12 32 33 73 63 125l133 229c17 29 18 55 18 108h247v-53
c-47 0 -64 -13 -64 -70v-454c0 -57 17 -70 64 -70v-50h-310v50c47 0 64 13 64 70v217c0 44 6 105 8 125zM511 766l-25 -39l-260 73l74 146z" />
    <glyph glyph-name="afii10062" unicode="&#x40e;" horiz-adv-x="701" 
d="M329 185l-47 -5l-206 411c-22 44 -29 50 -61 55v51h306v-51c-39 0 -54 -15 -54 -36c0 -5 1 -13 4 -20l114 -251h20c1 17 21 61 39 100l68 149c3 7 4 11 4 19c0 24 -17 39 -57 39v51h227v-51c-40 -5 -51 -14 -71 -58l-189 -408c-72 -155 -101 -196 -267 -196l-14 116
c107 11 157 29 184 85zM368 730c-97 0 -153 67 -172 149l40 22c32 -48 74 -68 132 -68s100 20 132 68l40 -22c-19 -82 -75 -149 -172 -149z" />
    <glyph glyph-name="afii10145" unicode="&#x40f;" horiz-adv-x="758" 
d="M436 -180h-114c0 136 -22 180 -52 180h-245v50c47 0 64 13 64 70v454c0 57 -17 70 -64 70v53h309v-53c-47 0 -62 -13 -62 -70v-492h214v492c0 57 -15 70 -62 70v53h309v-53c-47 0 -64 -13 -64 -70v-454c0 -57 17 -70 64 -70v-50h-245c-30 0 -52 -44 -52 -180z" />
    <glyph glyph-name="afii10017" unicode="&#x410;" horiz-adv-x="677" 
d="M425 98l-25 77h-207l-21 -77c-3 -9 -4 -16 -4 -21c0 -22 19 -24 61 -26v-51h-224v51c40 5 54 12 69 58l190 588h142l206 -588c15 -42 24 -53 60 -58v-51h-300v51c44 2 58 9 58 25c0 6 -2 13 -5 22zM267 435l-50 -175h155l-58 178c-13 42 -17 64 -20 80h-6
c-2 -12 -6 -34 -21 -83z" />
    <glyph glyph-name="afii10018" unicode="&#x411;" horiz-adv-x="631" 
d="M355 621h-83v-194h95c141 0 252 -61 252 -215c0 -98 -49 -212 -257 -212h-337v50c47 0 64 13 64 70v454c0 57 -17 70 -64 70v53h513l13 -187h-87c-18 87 -33 111 -109 111zM424 211c0 96 -33 136 -104 136h-48v-264h52c70 0 100 23 100 128z" />
    <glyph glyph-name="afii10019" unicode="&#x412;" horiz-adv-x="646" 
d="M25 0v50c47 0 64 13 64 70v454c0 57 -17 70 -64 70v53h350c128 0 232 -58 232 -189c0 -104 -68 -144 -157 -156v-4c125 -12 181 -71 181 -171c0 -111 -62 -177 -235 -177h-371zM272 74h59c73 0 108 22 108 118c0 85 -32 119 -101 119h-66v-237zM272 388h44
c70 0 96 19 96 115c0 85 -29 114 -100 114h-40v-229z" />
    <glyph glyph-name="afii10020" unicode="&#x413;" horiz-adv-x="570" 
d="M272 617v-497c0 -57 17 -70 84 -70v-50h-331v50c47 0 64 13 64 70v454c0 57 -17 70 -64 70v53h523l12 -194h-88c-21 90 -31 114 -107 114h-93z" />
    <glyph glyph-name="afii10021" unicode="&#x414;" horiz-adv-x="727" 
d="M109 -180h-105v262h39c27 18 49 43 73 87c41 79 53 170 53 405c0 57 -17 70 -64 70v53h587v-53c-47 0 -64 -13 -64 -70v-449c0 -28 14 -43 54 -43h30v-82l-28 -180h-98c0 136 -7 180 -42 180h-367c-47 0 -68 -64 -68 -180zM182 89v-7h263v533h-184
c-1 -177 -9 -322 -30 -404c-11 -42 -28 -93 -49 -122z" />
    <glyph glyph-name="afii10022" unicode="&#x415;" horiz-adv-x="605" 
d="M25 0v50c47 0 64 13 64 70v454c0 57 -17 70 -64 70v53h514l12 -177h-88c-22 76 -31 97 -107 97h-84v-230h48c62 0 77 14 81 71h77v-218h-77c-4 54 -18 71 -80 71h-49v-237h105c62 0 89 23 97 116h89v-190h-538z" />
    <glyph glyph-name="afii10024" unicode="&#x416;" horiz-adv-x="1029" 
d="M655 330h-49v-210c0 -57 14 -70 61 -70v-50h-305v50c47 0 61 13 61 70v210h-49c-50 0 -63 -29 -92 -163c-32 -146 -98 -182 -246 -182l-16 112c65 10 71 41 84 112c19 103 70 156 169 164v5c-64 22 -83 63 -95 110c-15 61 -44 81 -97 88l-54 7l14 126
c118 -4 189 -46 207 -150c22 -130 87 -149 159 -149h16v164c0 57 -14 70 -61 70v53h305v-53c-47 0 -61 -13 -61 -70v-164h16c72 0 137 19 159 149c18 104 89 146 207 150l14 -126l-54 -7c-53 -7 -82 -27 -97 -88c-12 -47 -31 -88 -95 -110v-5c99 -8 150 -61 169 -164
c13 -71 19 -102 84 -112l-16 -112c-148 0 -213 36 -245 182c-29 134 -43 163 -93 163z" />
    <glyph glyph-name="afii10025" unicode="&#x417;" horiz-adv-x="592" 
d="M255 323h-76v83h76c64 0 98 40 98 112c0 62 -27 110 -88 110c-58 0 -87 -38 -100 -116h-119v141c53 33 135 56 226 56c197 0 274 -82 274 -180c0 -78 -50 -137 -158 -156v-4c109 -13 189 -64 189 -171c0 -135 -106 -211 -284 -211c-106 0 -210 28 -253 61v150h119
c12 -83 43 -133 115 -133c74 0 108 55 108 131c0 90 -47 127 -127 127z" />
    <glyph glyph-name="afii10026" unicode="&#x418;" horiz-adv-x="753" 
d="M490 462h-4c-12 -32 -33 -73 -63 -125l-133 -229c-17 -29 -18 -55 -18 -108h-247v50c47 0 64 13 64 70v454c0 57 -17 70 -64 70v53h310v-53c-47 0 -64 -13 -64 -70v-214c0 -44 -6 -105 -8 -125h4c12 32 33 73 63 125l133 229c17 29 18 55 18 108h247v-53
c-47 0 -64 -13 -64 -70v-454c0 -57 17 -70 64 -70v-50h-310v50c47 0 64 13 64 70v217c0 44 6 105 8 125z" />
    <glyph glyph-name="afii10027" unicode="&#x419;" horiz-adv-x="753" 
d="M490 462h-4c-12 -32 -33 -73 -63 -125l-133 -229c-17 -29 -18 -55 -18 -108h-247v50c47 0 64 13 64 70v454c0 57 -17 70 -64 70v53h310v-53c-47 0 -64 -13 -64 -70v-214c0 -44 -6 -105 -8 -125h4c12 32 33 73 63 125l133 229c17 29 18 55 18 108h247v-53
c-47 0 -64 -13 -64 -70v-454c0 -57 17 -70 64 -70v-50h-310v50c47 0 64 13 64 70v217c0 44 6 105 8 125zM376 730c-97 0 -153 67 -172 149l40 22c32 -48 74 -68 132 -68s100 20 132 68l40 -22c-19 -82 -75 -149 -172 -149z" />
    <glyph glyph-name="afii10028" unicode="&#x41a;" horiz-adv-x="705" 
d="M527 488c-12 -47 -31 -88 -95 -110v-5c99 -8 151 -61 170 -164c13 -71 18 -102 83 -112l-16 -112c-148 0 -216 37 -248 182c-30 136 -41 163 -87 163h-62v-210c0 -57 14 -70 61 -70v-50h-308v50c47 0 64 13 64 70v454c0 57 -17 70 -64 70v53h308v-53
c-47 0 -61 -13 -61 -70v-164h26c72 0 137 19 159 149c18 104 89 146 207 150l14 -126l-54 -7c-53 -7 -82 -27 -97 -88z" />
    <glyph glyph-name="afii10029" unicode="&#x41b;" horiz-adv-x="736" 
d="M188 574c0 57 -17 70 -64 70v53h587v-53c-47 0 -64 -13 -64 -70v-454c0 -57 17 -70 64 -70v-50h-309v50c47 0 62 13 62 70v495h-186c-1 -178 -13 -334 -38 -448c-31 -137 -93 -183 -222 -183l-14 112c49 12 85 24 117 64c46 57 67 179 67 414z" />
    <glyph glyph-name="afii10030" unicode="&#x41c;" horiz-adv-x="912" 
d="M852 697v-52c-69 -4 -74 -23 -69 -76l40 -443c5 -56 13 -75 69 -77v-49h-314v49c63 2 68 16 63 72l-26 305c-2 26 -3 77 -3 104v22h-4c-3 -17 -14 -77 -25 -117l-113 -435h-107l-124 407c-16 52 -27 120 -32 146h-4c-1 -30 -3 -100 -6 -140l-18 -291c-3 -57 7 -73 61 -73
v-49h-220v49c56 2 66 19 70 79l30 441c3 49 4 73 -69 76v52h286l92 -304c14 -47 25 -119 28 -143h4c4 23 14 88 28 143l78 304h285z" />
    <glyph glyph-name="afii10031" unicode="&#x41d;" horiz-adv-x="762" 
d="M490 120v190h-218v-190c0 -57 17 -70 64 -70v-50h-311v50c47 0 64 13 64 70v454c0 57 -17 70 -64 70v53h311v-53c-47 0 -64 -13 -64 -70v-179h218v179c0 57 -17 70 -64 70v53h311v-53c-47 0 -64 -13 -64 -70v-454c0 -57 17 -70 64 -70v-50h-311v50c47 0 64 13 64 70z" />
    <glyph glyph-name="afii10032" unicode="&#x41e;" horiz-adv-x="720" 
d="M360 -12c-202 0 -320 121 -320 349c0 264 136 372 320 372s320 -108 320 -372c0 -228 -118 -349 -320 -349zM360 628c-78 0 -116 -57 -116 -283c0 -242 45 -284 116 -284s116 42 116 287c0 223 -38 280 -116 280z" />
    <glyph glyph-name="afii10033" unicode="&#x41f;" horiz-adv-x="758" 
d="M486 120v495h-214v-495c0 -57 15 -70 62 -70v-50h-309v50c47 0 64 13 64 70v454c0 57 -17 70 -64 70v53h708v-53c-47 0 -64 -13 -64 -70v-454c0 -57 17 -70 64 -70v-50h-309v50c47 0 62 13 62 70z" />
    <glyph glyph-name="afii10034" unicode="&#x420;" horiz-adv-x="617" 
d="M272 258v-138c0 -57 17 -70 84 -70v-50h-331v50c47 0 64 13 64 70v454c0 57 -17 70 -64 70v53h347c141 0 245 -58 245 -217c0 -103 -45 -222 -253 -222h-92zM422 481c0 101 -29 136 -100 136h-50v-274h54c70 0 96 28 96 138z" />
    <glyph glyph-name="afii10035" unicode="&#x421;" horiz-adv-x="638" 
d="M360 -13c-202 0 -320 122 -320 350c0 264 136 372 334 372c94 0 168 -18 221 -51v-146h-124c-15 76 -35 116 -99 116c-85 0 -128 -57 -128 -283c0 -242 53 -280 124 -280c79 0 101 40 113 123h119v-143c-43 -33 -140 -58 -240 -58z" />
    <glyph glyph-name="afii10036" unicode="&#x422;" horiz-adv-x="633" 
d="M27 697h579l12 -197h-87c-22 86 -28 117 -94 117h-29v-497c0 -57 17 -70 74 -70v-50h-331v50c57 0 74 13 74 70v497h-29c-66 0 -72 -31 -94 -117h-87z" />
    <glyph glyph-name="afii10037" unicode="&#x423;" horiz-adv-x="701" 
d="M329 185l-47 -5l-206 411c-22 44 -29 50 -61 55v51h306v-51c-39 0 -54 -15 -54 -36c0 -5 1 -13 4 -20l114 -251h20c1 17 21 61 39 100l68 149c3 7 4 11 4 19c0 24 -17 39 -57 39v51h227v-51c-40 -5 -51 -14 -71 -58l-189 -408c-72 -155 -101 -196 -267 -196l-14 116
c107 11 157 29 184 85z" />
    <glyph glyph-name="afii10038" unicode="&#x424;" horiz-adv-x="901" 
d="M361 172v387c-127 -6 -142 -88 -142 -193c0 -109 15 -185 142 -194zM541 100c0 -41 22 -50 63 -50v-50h-307v50c41 0 63 10 63 50c-186 0 -330 54 -330 266c0 199 132 262 330 266c0 38 -23 48 -63 48v53h307v-53c-41 0 -63 -10 -63 -48c198 -4 330 -67 330 -266
c0 -212 -144 -266 -330 -266zM540 559v-387c127 9 142 85 142 194c0 105 -15 187 -142 193z" />
    <glyph glyph-name="afii10039" unicode="&#x425;" horiz-adv-x="713" 
d="M593 588l-147 -208l174 -271c26 -40 37 -53 73 -58v-51h-329v51c34 0 52 15 52 33c0 7 -2 13 -7 21l-100 164h-6l-101 -166c-4 -6 -6 -13 -6 -19c0 -18 18 -32 50 -33v-51h-226v51c38 5 58 17 84 58l150 234l-155 245c-26 41 -33 53 -65 58v51h316v-51
c-34 0 -52 -14 -52 -33c0 -6 2 -14 6 -21l87 -144h6l91 142c5 9 8 17 8 24c0 19 -19 32 -50 32v51h224v-51c-38 -5 -50 -19 -77 -58z" />
    <glyph glyph-name="afii10040" unicode="&#x426;" horiz-adv-x="768" 
d="M725 -180h-98c0 136 -7 180 -42 180h-560v50c47 0 64 13 64 70v454c0 57 -17 70 -64 70v53h309v-53c-47 0 -62 -13 -62 -70v-492h214v492c0 57 -15 70 -62 70v53h309v-53c-47 0 -64 -13 -64 -70v-449c0 -30 17 -43 64 -43h20v-82z" />
    <glyph glyph-name="afii10041" unicode="&#x427;" horiz-adv-x="746" 
d="M74 574c0 57 -17 70 -64 70v53h301v-53c-39 0 -54 -13 -54 -70v-167c0 -80 38 -105 103 -105c38 0 78 10 114 25v247c0 57 -15 70 -54 70v53h301v-53c-47 0 -64 -13 -64 -70v-454c0 -57 17 -70 64 -70v-50h-311v50c47 0 64 13 64 70v126c-46 -27 -105 -49 -172 -49
c-169 0 -228 78 -228 197v180z" />
    <glyph glyph-name="afii10042" unicode="&#x428;" horiz-adv-x="1059" 
d="M25 0v50c47 0 64 13 64 70v454c0 57 -17 70 -64 70v53h297v-53c-36 0 -52 -13 -52 -70v-495h164v495c0 57 -16 70 -52 70v53h295v-53c-47 0 -64 -13 -64 -70v-495h176v495c0 57 -16 70 -52 70v53h297v-53c-47 0 -64 -13 -64 -70v-454c0 -57 17 -70 64 -70v-50h-1009z" />
    <glyph glyph-name="afii10043" unicode="&#x429;" horiz-adv-x="1069" 
d="M25 0v50c47 0 64 13 64 70v454c0 57 -17 70 -64 70v53h297v-53c-36 0 -52 -13 -52 -70v-495h164v495c0 57 -16 70 -52 70v53h295v-53c-47 0 -64 -13 -64 -70v-495h176v495c0 57 -16 70 -52 70v53h297v-53c-47 0 -64 -13 -64 -70v-449c0 -30 17 -43 64 -43h20v-82
l-28 -180h-98c0 136 -7 180 -42 180h-861z" />
    <glyph glyph-name="afii10044" unicode="&#x42a;" horiz-adv-x="782" 
d="M517 0h-337v50c47 0 64 13 64 70v497h-39c-76 0 -86 -24 -107 -114h-88l12 194h469v-53c-45 0 -64 -11 -64 -70v-147h95c141 0 252 -61 252 -215c0 -98 -49 -212 -257 -212zM579 211c0 96 -33 136 -104 136h-48v-264h52c70 0 100 23 100 128z" />
    <glyph glyph-name="afii10045" unicode="&#x42b;" horiz-adv-x="968" 
d="M352 0h-327v50c47 0 64 13 64 70v454c0 57 -17 70 -64 70v53h311v-53c-45 0 -64 -11 -64 -70v-147h85c141 0 252 -61 252 -215c0 -98 -49 -212 -257 -212zM414 211c0 96 -33 136 -104 136h-38v-264h42c70 0 100 23 100 128zM696 120v454c0 57 -17 70 -64 70v53h311v-53
c-47 0 -64 -13 -64 -70v-454c0 -57 17 -70 64 -70v-50h-311v50c47 0 64 13 64 70z" />
    <glyph glyph-name="afii10046" unicode="&#x42c;" horiz-adv-x="627" 
d="M362 0h-337v50c47 0 64 13 64 70v454c0 57 -17 70 -64 70v53h311v-53c-45 0 -64 -11 -64 -70v-147h95c141 0 252 -61 252 -215c0 -98 -49 -212 -257 -212zM424 211c0 96 -33 136 -104 136h-48v-264h52c70 0 100 23 100 128z" />
    <glyph glyph-name="afii10047" unicode="&#x42d;" horiz-adv-x="643" 
d="M180 310v85h218c-7 177 -45 233 -122 233c-64 0 -94 -40 -109 -116h-124v146c69 34 142 51 236 51c198 0 324 -108 324 -372c0 -228 -115 -350 -317 -350c-114 0 -205 25 -248 58v143h119c12 -83 40 -123 119 -123c65 0 119 25 123 245h-219z" />
    <glyph glyph-name="afii10048" unicode="&#x42e;" horiz-adv-x="1032" 
d="M682 -12c-189 0 -301 111 -310 322h-100v-190c0 -57 17 -70 64 -70v-50h-311v50c47 0 64 13 64 70v454c0 57 -17 70 -64 70v53h311v-53c-47 0 -64 -13 -64 -70v-179h102c18 222 143 314 308 314c178 0 310 -108 310 -372c0 -228 -113 -349 -310 -349zM682 628
c-73 0 -106 -57 -106 -283c0 -242 40 -284 106 -284s106 42 106 287c0 223 -33 280 -106 280z" />
    <glyph glyph-name="afii10049" unicode="&#x42f;" horiz-adv-x="665" 
d="M223 308v4c-91 8 -182 56 -182 182c0 148 104 203 245 203h354v-53c-47 0 -64 -13 -64 -70v-454c0 -57 17 -70 64 -70v-50h-304v50c40 0 57 13 57 70v164c-60 0 -92 0 -124 -120c-39 -146 -105 -179 -253 -179l-16 112c62 9 71 43 83 87c19 70 41 116 140 124zM236 494
c0 -105 27 -126 86 -126h71v249h-61c-67 0 -96 -32 -96 -123z" />
    <glyph glyph-name="afii10065" unicode="&#x430;" horiz-adv-x="552" 
d="M483 158c0 -75 12 -87 59 -87v-48c-23 -15 -64 -29 -116 -29c-58 0 -98 27 -108 69c-16 -38 -59 -76 -139 -76c-87 0 -159 42 -159 149c0 118 82 170 239 170c12 0 41 -1 54 -2v47c0 72 -19 104 -64 104c-46 0 -58 -36 -65 -92h-129v108c57 34 141 58 227 58
c117 0 205 -51 205 -168c0 -30 -4 -112 -4 -203zM311 244h-35c-49 0 -79 -29 -79 -84c0 -50 19 -66 49 -66c17 0 46 6 62 23z" />
    <glyph glyph-name="afii10066" unicode="&#x431;" horiz-adv-x="576" 
d="M415 600l-91 -25c-122 -33 -175 -77 -177 -203h7c25 90 89 134 175 134c143 0 215 -88 215 -248c0 -157 -95 -271 -261 -271c-175 0 -248 116 -248 311c0 201 62 348 219 396l96 29c32 10 63 20 87 43l88 -82c-14 -29 -48 -66 -110 -84zM286 436c-59 0 -75 -73 -75 -181
c0 -102 11 -202 76 -202c64 0 69 85 69 203c0 117 -15 180 -70 180z" />
    <glyph glyph-name="afii10067" unicode="&#x432;" horiz-adv-x="568" 
d="M82 394c0 57 -10 70 -57 70v52h236c196 0 250 -34 250 -130c0 -56 -36 -96 -124 -113v-6c92 -7 146 -46 146 -121c0 -121 -102 -146 -264 -146h-244v50c47 0 57 13 57 70v274zM267 228h-14v-153h17c50 0 75 5 75 74c0 68 -17 79 -78 79zM265 443h-12v-143h17
c54 0 62 27 62 79c0 54 -22 64 -67 64z" />
    <glyph glyph-name="afii10068" unicode="&#x433;" horiz-adv-x="491" 
d="M25 516h443l11 -183h-81c-20 80 -26 109 -87 109h-56v-322c0 -57 12 -70 61 -70v-50h-291v50c47 0 57 13 57 70v274c0 57 -10 70 -57 70v52z" />
    <glyph glyph-name="afii10069" unicode="&#x434;" horiz-adv-x="636" 
d="M459 0h-302c-34 0 -42 -50 -42 -145h-105v222h28c27 16 52 38 70 74c33 67 33 141 33 243c0 57 -10 70 -57 70v52h516v-52c-47 0 -57 -13 -57 -70v-267c0 -24 2 -39 10 -48h68v-79l-23 -145h-97c0 95 -7 145 -42 145zM181 82v-5h189v360h-140c0 -73 -1 -165 -16 -264
c-6 -39 -17 -73 -33 -91z" />
    <glyph glyph-name="afii10070" unicode="&#x435;" horiz-adv-x="549" 
d="M351 85c42 0 87 9 133 31l26 -44c-57 -59 -126 -85 -222 -85c-161 0 -253 99 -253 272c0 171 100 270 254 270c170 0 230 -96 230 -250v-49h-297c4 -100 37 -145 129 -145zM291 460c-43 0 -61 -35 -68 -154h126c0 120 -15 154 -58 154z" />
    <glyph glyph-name="afii10072" unicode="&#x436;" horiz-adv-x="869" 
d="M833 411l-47 -5c-49 -6 -69 -28 -79 -63c-11 -40 -35 -59 -83 -73v-4c118 -3 146 -39 159 -96c12 -51 27 -73 66 -82l-14 -104c-142 0 -184 25 -206 126c-20 93 -36 114 -83 114h-27v-104c0 -57 10 -70 47 -70v-50h-263v50c37 0 47 13 47 70v104h-27
c-46 0 -63 -21 -83 -114c-22 -101 -64 -126 -206 -126l-14 104c39 9 54 31 66 82c13 57 41 93 159 96v4c-48 14 -72 33 -83 73c-10 35 -31 57 -80 63l-47 5l11 118c110 -4 167 -33 183 -130c11 -68 49 -101 116 -101h5v96c0 57 -12 70 -49 70v52h267v-52
c-37 0 -49 -13 -49 -70v-96h5c67 0 105 33 116 101c16 97 73 126 183 130z" />
    <glyph glyph-name="afii10073" unicode="&#x437;" horiz-adv-x="513" 
d="M228 -13c-80 0 -150 15 -198 44v112h123c5 -63 29 -85 69 -85c43 0 69 18 69 81c0 68 -15 89 -76 89h-43v72h46c54 0 60 36 60 79c0 54 -12 81 -57 81c-35 0 -60 -21 -61 -84h-125v110c52 27 125 43 192 43c170 0 228 -51 228 -135c0 -66 -35 -104 -123 -121v-6
c92 -7 146 -43 146 -122c0 -121 -127 -158 -250 -158z" />
    <glyph glyph-name="afii10074" unicode="&#x438;" horiz-adv-x="673" 
d="M422 120v82c0 58 2 98 8 134h-6c-10 -33 -22 -62 -47 -99l-110 -163c-12 -19 -15 -36 -15 -74h-227v50c47 0 57 13 57 70v274c0 57 -10 70 -57 70v52h276v-52c-37 0 -50 -13 -50 -70v-80c0 -58 -2 -98 -8 -134h6c10 33 22 62 47 99l110 163c12 19 15 36 15 74h227v-52
c-47 0 -57 -13 -57 -70v-274c0 -57 10 -70 57 -70v-50h-279l3 50c37 0 50 13 50 70z" />
    <glyph glyph-name="afii10075" unicode="&#x439;" horiz-adv-x="673" 
d="M422 120v82c0 58 2 98 8 134h-6c-10 -33 -22 -62 -47 -99l-110 -163c-12 -19 -15 -36 -15 -74h-227v50c47 0 57 13 57 70v274c0 57 -10 70 -57 70v52h276v-52c-37 0 -50 -13 -50 -70v-80c0 -58 -2 -98 -8 -134h6c10 33 22 62 47 99l110 163c12 19 15 36 15 74h227v-52
c-47 0 -57 -13 -57 -70v-274c0 -57 10 -70 57 -70v-50h-279l3 50c37 0 50 13 50 70zM337 564c-97 0 -153 67 -172 149l40 22c32 -48 74 -68 132 -68s100 20 132 68l40 -22c-19 -82 -75 -149 -172 -149z" />
    <glyph glyph-name="afii10076" unicode="&#x43a;" horiz-adv-x="612" 
d="M576 411l-47 -5c-49 -6 -69 -28 -79 -63c-11 -40 -35 -59 -83 -73v-4c118 -3 151 -39 164 -96c12 -51 22 -73 61 -82l-14 -104c-142 0 -184 25 -206 126c-20 93 -35 114 -83 114h-34v-104c0 -57 10 -70 47 -70v-50h-277v50c47 0 57 13 57 70v274c0 57 -10 70 -57 70v52
h279v-52c-37 0 -49 -13 -49 -70v-96h10c67 0 107 33 118 101c16 97 73 126 183 130z" />
    <glyph glyph-name="afii10077" unicode="&#x43b;" horiz-adv-x="625" 
d="M141 394c0 57 -10 70 -57 70v52h516v-52c-47 0 -57 -13 -57 -70v-274c0 -57 10 -70 57 -70v-50h-279v50c37 0 49 13 49 70v317h-140c0 -73 -1 -167 -15 -266c-19 -130 -57 -186 -198 -186l-13 107c45 11 71 21 95 54c40 55 42 146 42 248z" />
    <glyph glyph-name="afii10078" unicode="&#x43c;" horiz-adv-x="760" 
d="M20 0v50c47 0 56 13 60 70l17 274c0 8 0 15 -1 22c-3 38 -16 48 -56 48v52h236l71 -230c14 -45 22 -89 23 -111h6c1 22 9 70 24 110l86 231h234v-52c-40 0 -53 -10 -56 -48c-1 -7 -1 -14 -1 -22l17 -274c4 -57 13 -70 60 -70v-50h-269v50c33 0 47 10 47 52
c0 5 -1 19 -3 47l-7 92c-2 30 -4 61 -5 91h-5c-3 -38 -7 -70 -17 -104l-72 -228h-125l-66 195c-13 39 -25 97 -28 136h-6c-1 -23 -2 -59 -5 -93l-7 -97c-2 -24 -2 -34 -2 -39c0 -42 14 -52 47 -52v-50h-197z" />
    <glyph glyph-name="afii10079" unicode="&#x43d;" horiz-adv-x="677" 
d="M422 394c0 57 -12 70 -49 70v52h279v-52c-47 0 -57 -13 -57 -70v-274c0 -57 10 -70 57 -70v-50h-279v50c37 0 49 13 49 70v100h-167v-100c0 -57 12 -70 49 -70v-50h-279v50c47 0 57 13 57 70v274c0 57 -10 70 -57 70v52h279v-52c-37 0 -49 -13 -49 -70v-93h167v93z" />
    <glyph glyph-name="afii10080" unicode="&#x43e;" horiz-adv-x="598" 
d="M563 271c0 -204 -127 -284 -268 -284c-167 0 -260 98 -260 269c0 161 101 273 271 273c145 0 257 -73 257 -258zM373 278c0 141 -25 181 -74 181c-47 0 -74 -38 -74 -210c0 -136 14 -195 76 -195c48 0 72 59 72 224z" />
    <glyph glyph-name="afii10081" unicode="&#x43f;" horiz-adv-x="673" 
d="M82 394c0 57 -10 70 -57 70v52h623v-52c-47 0 -57 -13 -57 -70v-274c0 -57 10 -70 57 -70v-50h-279v50c37 0 49 13 49 70v317h-163v-317c0 -57 12 -70 49 -70v-50h-279v50c47 0 57 13 57 70v274z" />
    <glyph glyph-name="afii10082" unicode="&#x440;" horiz-adv-x="635" 
d="M417 243c0 136 -34 172 -85 172c-28 0 -54 -8 -77 -30v-281c19 -22 43 -28 71 -28c53 0 91 34 91 167zM249 444c23 45 74 85 149 85c123 0 202 -85 202 -268c0 -201 -106 -274 -243 -274c-40 0 -78 10 -102 40v-103c0 -57 10 -70 57 -70v-50h-287v50c47 0 57 13 57 70
v431c0 73 -9 83 -55 85v49l176 40h15c5 -7 27 -43 31 -85z" />
    <glyph glyph-name="afii10083" unicode="&#x441;" horiz-adv-x="503" 
d="M473 488v-117h-129c-1 63 -5 89 -40 89c-34 0 -92 -32 -92 -187c0 -145 66 -190 133 -190c41 0 71 7 112 28l27 -43c-47 -56 -120 -81 -197 -81c-139 0 -252 85 -252 263c0 182 125 279 268 279c80 0 131 -15 170 -41z" />
    <glyph glyph-name="afii10084" unicode="&#x442;" horiz-adv-x="585" 
d="M405 442h-26v-322c0 -57 12 -70 61 -70v-50h-295v50c49 0 61 13 61 70v322h-26c-61 0 -67 -29 -87 -109h-81l11 183h539l11 -183h-81c-20 80 -26 109 -87 109z" />
    <glyph glyph-name="afii10085" unicode="&#x443;" horiz-adv-x="572" 
d="M117 -205l-61 108c92 14 173 39 209 107l-66 -5c-13 52 -25 88 -62 190l-76 209c-17 46 -25 56 -61 61v51h292v-51c-44 -2 -58 -9 -58 -25c0 -6 2 -13 5 -22l68 -218c10 -31 13 -60 14 -66h6c1 7 8 40 17 68l66 216c3 9 4 16 4 22c0 20 -18 23 -61 25v51h219v-51
c-40 -5 -52 -12 -69 -58l-148 -396c-43 -117 -111 -200 -238 -216z" />
    <glyph glyph-name="afii10086" unicode="&#x444;" horiz-adv-x="874" 
d="M38 261c0 184 98 268 204 268c33 0 82 -13 110 -47v94c0 73 -13 83 -59 85v49l193 26h15c10 -13 21 -43 21 -100v-158c25 29 67 51 123 51c115 0 191 -88 191 -274c0 -184 -98 -268 -204 -268c-33 0 -82 11 -110 45v-108c0 -57 10 -70 57 -70v-50h-284v50
c47 0 57 13 57 70v114c-26 -30 -67 -51 -123 -51c-115 0 -191 91 -191 274zM584 429c-19 0 -38 -6 -62 -20v-312c17 -14 38 -24 56 -24c53 0 83 39 83 172c0 128 -26 184 -77 184zM290 87c18 0 38 6 62 21v310c-18 15 -38 25 -56 25c-53 0 -83 -39 -83 -172
c0 -128 26 -184 77 -184z" />
    <glyph glyph-name="afii10087" unicode="&#x445;" horiz-adv-x="577" 
d="M250 193l-63 -89c-7 -10 -10 -19 -10 -27c0 -16 12 -27 40 -27v-50h-202v50c39 4 50 19 76 54l115 153l-111 153c-32 44 -37 50 -69 55v51h281v-51c-20 0 -31 -8 -31 -22c0 -8 4 -17 11 -28l48 -70h4l49 70c5 7 8 15 8 25c0 15 -11 25 -34 25v51h202v-51
c-41 -5 -54 -21 -82 -58l-100 -132l111 -159c36 -50 44 -62 84 -66v-50h-282v50c18 0 33 9 33 25c0 7 -3 16 -10 26l-64 92h-4z" />
    <glyph glyph-name="afii10088" unicode="&#x446;" horiz-adv-x="683" 
d="M506 0h-481v50c47 0 57 13 57 70v274c0 57 -10 70 -57 70v52h279v-52c-37 0 -49 -13 -49 -70v-315h163v315c0 57 -12 70 -49 70v52h279v-52c-47 0 -57 -13 -57 -70v-254c0 -44 8 -61 47 -61h30v-79l-23 -145h-97c0 95 -7 145 -42 145z" />
    <glyph glyph-name="afii10089" unicode="&#x447;" horiz-adv-x="653" 
d="M235 394v-87c0 -52 16 -79 63 -79c38 0 69 20 100 49v117c0 57 -12 70 -49 70v52h279v-52c-47 0 -57 -13 -57 -70v-274c0 -57 10 -70 57 -70v-50h-287v50c47 0 57 13 57 70v88c-43 -40 -103 -85 -191 -85c-85 0 -145 48 -145 166v105c0 57 -9 70 -57 70v52h287v-52
c-47 0 -57 -13 -57 -70z" />
    <glyph glyph-name="afii10090" unicode="&#x448;" horiz-adv-x="939" 
d="M25 0v50c47 0 57 13 57 70v274c0 57 -10 70 -57 70v52h265v-52c-32 0 -39 -13 -39 -70v-315h134v315c0 57 -6 70 -39 70v52h247v-52c-33 0 -39 -13 -39 -70v-315h134v315c0 57 -7 70 -39 70v52h265v-52c-47 0 -57 -13 -57 -70v-274c0 -57 10 -70 57 -70v-50h-889z" />
    <glyph glyph-name="afii10091" unicode="&#x449;" horiz-adv-x="949" 
d="M772 0h-747v50c47 0 57 13 57 70v274c0 57 -10 70 -57 70v52h265v-52c-32 0 -39 -13 -39 -70v-315h134v315c0 57 -6 70 -39 70v52h247v-52c-33 0 -39 -13 -39 -70v-315h134v315c0 57 -7 70 -39 70v52h265v-52c-47 0 -57 -13 -57 -70v-254c0 -47 10 -61 57 -61h20v-79
l-23 -145h-97c0 95 -7 145 -42 145z" />
    <glyph glyph-name="afii10092" unicode="&#x44a;" horiz-adv-x="683" 
d="M442 516v-52c-47 0 -57 -13 -57 -70v-75h17c202 0 256 -46 256 -157c0 -121 -78 -162 -251 -162h-252v50c47 0 57 13 57 70v322h-32c-61 0 -67 -29 -87 -109h-81l11 183h419zM401 247h-16v-172h19c50 0 72 15 72 84c0 68 -14 88 -75 88z" />
    <glyph glyph-name="afii10093" unicode="&#x44b;" horiz-adv-x="840" 
d="M312 516v-52c-47 0 -57 -13 -57 -70v-75h7c199 0 254 -46 254 -157c0 -121 -79 -162 -249 -162h-242v50c47 0 57 13 57 70v274c0 57 -10 70 -57 70v52h287zM585 394c0 57 -10 70 -57 70v52h287v-52c-47 0 -57 -13 -57 -70v-274c0 -57 10 -70 57 -70v-50h-282v50
c43 0 52 13 52 70v274zM261 247h-6v-172h9c50 0 70 15 70 84c0 68 -12 88 -73 88z" />
    <glyph glyph-name="afii10094" unicode="&#x44c;" horiz-adv-x="553" 
d="M312 516v-52c-47 0 -57 -13 -57 -70v-75h17c202 0 256 -46 256 -157c0 -121 -78 -162 -251 -162h-252v50c47 0 57 13 57 70v274c0 57 -10 70 -57 70v52h287zM271 247h-16v-172h19c50 0 72 15 72 84c0 68 -14 88 -75 88z" />
    <glyph glyph-name="afii10095" unicode="&#x44d;" horiz-adv-x="511" 
d="M135 224v76h165c-4 127 -31 160 -73 160c-35 0 -67 -21 -68 -84h-125v112c52 27 111 41 191 41c150 0 251 -80 251 -281c0 -187 -109 -261 -252 -261c-80 0 -146 12 -194 41v110h125c5 -63 26 -82 66 -82c51 0 75 23 79 168h-165z" />
    <glyph glyph-name="afii10096" unicode="&#x44e;" horiz-adv-x="878" 
d="M843 271c0 -204 -117 -284 -258 -284c-155 0 -238 84 -249 233h-81v-100c0 -57 12 -70 49 -70v-50h-279v50c47 0 57 13 57 70v274c0 57 -10 70 -57 70v52h279v-52c-37 0 -49 -13 -49 -70v-93h82c16 136 105 228 259 228c145 0 247 -73 247 -258zM658 278
c0 141 -22 181 -69 181c-45 0 -69 -38 -69 -210c0 -136 11 -195 71 -195c46 0 67 59 67 224z" />
    <glyph glyph-name="afii10097" unicode="&#x44f;" horiz-adv-x="595" 
d="M513 394v-274c0 -57 10 -70 57 -70v-50h-273v50c34 0 43 13 43 70v91h-4c-61 0 -67 -5 -108 -114c-35 -94 -103 -113 -214 -113l-14 104c35 8 45 19 61 53c24 51 51 83 126 84v5c-102 8 -146 65 -146 133c0 120 93 153 266 153h263v-52c-47 0 -57 -13 -57 -70zM222 364
c0 -68 27 -86 85 -86h33v165h-36c-50 0 -82 -10 -82 -79z" />
    <glyph glyph-name="uni0450" unicode="&#x450;" horiz-adv-x="549" 
d="M351 85c42 0 87 9 133 31l26 -44c-57 -59 -126 -85 -222 -85c-161 0 -253 99 -253 272c0 171 100 270 254 270c170 0 230 -96 230 -250v-49h-297c4 -100 37 -145 129 -145zM291 460c-43 0 -61 -35 -68 -154h126c0 120 -15 154 -58 154zM416 590l-28 -36l-252 97l88 139z
" />
    <glyph glyph-name="afii10071" unicode="&#x451;" horiz-adv-x="549" 
d="M351 85c42 0 87 9 133 31l26 -44c-57 -59 -126 -85 -222 -85c-161 0 -253 99 -253 272c0 171 100 270 254 270c170 0 230 -96 230 -250v-49h-297c4 -100 37 -145 129 -145zM291 460c-43 0 -61 -35 -68 -154h126c0 120 -15 154 -58 154zM260 650c0 -49 -41 -89 -92 -89
c-50 0 -91 40 -91 89c0 50 42 90 93 90s90 -40 90 -90zM489 650c0 -49 -41 -89 -92 -89c-50 0 -91 40 -91 89c0 50 42 90 93 90s90 -40 90 -90z" />
    <glyph glyph-name="afii10099" unicode="&#x452;" horiz-adv-x="625" 
d="M395 328c0 61 -24 81 -63 81c-38 0 -65 -15 -85 -27v-262c0 -57 10 -70 57 -70v-50h-287v50c47 0 57 13 57 70v447h-59v47h59c0 42 -15 47 -59 47v49l196 26h15c4 -5 21 -31 21 -100v-22h161v-47h-161v-123c44 50 93 85 172 85c83 0 149 -49 149 -159v-352
c0 -149 -129 -209 -224 -224l-29 46c61 28 80 75 80 178v310z" />
    <glyph glyph-name="afii10100" unicode="&#x453;" horiz-adv-x="491" 
d="M25 516h443l11 -183h-81c-20 80 -26 109 -87 109h-56v-322c0 -57 12 -70 61 -70v-50h-291v50c47 0 57 13 57 70v274c0 57 -10 70 -57 70v52zM157 554l-28 36l192 200l88 -139z" />
    <glyph glyph-name="afii10101" unicode="&#x454;" horiz-adv-x="513" 
d="M483 488v-117h-129c-1 63 -11 89 -46 89c-43 0 -92 -28 -98 -160h172v-76h-170c13 -107 67 -141 137 -141c41 0 77 7 118 28l27 -43c-47 -56 -126 -81 -203 -81c-139 0 -256 85 -256 263c0 182 129 279 272 279c80 0 137 -15 176 -41z" />
    <glyph glyph-name="afii10102" unicode="&#x455;" horiz-adv-x="482" 
d="M225 -13c-112 0 -165 28 -195 43v113h112c8 -71 48 -88 96 -88c45 0 75 17 75 53s-21 52 -63 61l-85 18c-87 18 -134 73 -134 162c0 122 96 180 212 180c94 0 154 -24 182 -36v-113h-104c-7 58 -43 76 -92 76c-40 0 -64 -16 -64 -51c0 -29 18 -43 50 -50l79 -17
c101 -23 163 -81 163 -179c0 -112 -83 -172 -232 -172z" />
    <glyph glyph-name="afii10103" unicode="&#x456;" horiz-adv-x="327" 
d="M312 0h-287v50c47 0 57 13 57 70v235c0 73 -9 83 -55 85v49l203 33h25v-402c0 -57 10 -70 57 -70v-50zM263 652c0 -54 -45 -98 -101 -98c-54 0 -99 44 -99 98s46 98 102 98c55 0 98 -44 98 -98z" />
    <glyph glyph-name="afii10104" unicode="&#x457;" horiz-adv-x="327" 
d="M312 0h-287v50c47 0 57 13 57 70v235c0 73 -9 83 -55 85v49l203 33h25v-402c0 -57 10 -70 57 -70v-50zM141 650c0 -49 -41 -89 -92 -89c-50 0 -91 40 -91 89c0 50 42 90 93 90s90 -40 90 -90zM370 650c0 -49 -41 -89 -92 -89c-50 0 -91 40 -91 89c0 50 42 90 93 90
s90 -40 90 -90z" />
    <glyph glyph-name="afii10105" unicode="&#x458;" horiz-adv-x="321" 
d="M80 18v337c0 73 -9 83 -55 85v49l203 33h25v-504c0 -149 -129 -209 -224 -224l-29 46c61 28 80 75 80 178zM261 652c0 -54 -45 -98 -101 -98c-54 0 -99 44 -99 98s46 98 102 98c55 0 98 -44 98 -98z" />
    <glyph glyph-name="afii10106" unicode="&#x459;" horiz-adv-x="819" 
d="M141 394c0 57 -10 70 -57 70v52h506v-52c-47 0 -57 -13 -57 -70v-75h7c199 0 254 -46 254 -157c0 -110 -70 -162 -227 -162h-256v50c37 0 49 13 49 70v317h-130c0 -73 -1 -167 -15 -266c-19 -130 -57 -186 -198 -186l-13 107c45 11 71 21 95 54c40 55 42 146 42 248z
M539 247h-6v-172h9c50 0 70 15 70 84c0 68 -12 88 -73 88z" />
    <glyph glyph-name="afii10107" unicode="&#x45a;" horiz-adv-x="868" 
d="M82 394c0 57 -10 70 -57 70v52h279v-52c-37 0 -49 -13 -49 -70v-81h154v81c0 57 -12 70 -49 70v52h279v-52c-47 0 -57 -13 -57 -70v-81h7c199 0 254 -46 254 -151c0 -110 -63 -162 -249 -162h-234v50c37 0 49 13 49 70v116h-154v-116c0 -57 12 -70 49 -70v-50h-279v50
c47 0 57 13 57 70v274zM588 242h-6v-167h9c50 0 70 15 70 84c0 57 -12 83 -73 83z" />
    <glyph glyph-name="afii10108" unicode="&#x45b;" horiz-adv-x="635" 
d="M247 636v-22h161v-47h-161v-123c44 50 93 85 172 85c83 0 149 -49 149 -159v-250c0 -57 10 -70 57 -70v-50h-287v50c47 0 57 13 57 70v208c0 61 -24 81 -63 81c-38 0 -65 -15 -85 -27v-262c0 -57 10 -70 57 -70v-50h-287v50c47 0 57 13 57 70v447h-59v47h59
c0 42 -15 47 -59 47v49l196 26h15c4 -5 21 -31 21 -100z" />
    <glyph glyph-name="afii10109" unicode="&#x45c;" horiz-adv-x="612" 
d="M576 411l-47 -5c-49 -6 -69 -28 -79 -63c-11 -40 -35 -59 -83 -73v-4c118 -3 151 -39 164 -96c12 -51 22 -73 61 -82l-14 -104c-142 0 -184 25 -206 126c-20 93 -35 114 -83 114h-34v-104c0 -57 10 -70 47 -70v-50h-277v50c47 0 57 13 57 70v274c0 57 -10 70 -57 70v52
h279v-52c-37 0 -49 -13 -49 -70v-96h10c67 0 107 33 118 101c16 97 73 126 183 130zM224 554l-28 36l192 200l88 -139z" />
    <glyph glyph-name="uni045D" unicode="&#x45d;" horiz-adv-x="673" 
d="M422 120v82c0 58 2 98 8 134h-6c-10 -33 -22 -62 -47 -99l-110 -163c-12 -19 -15 -36 -15 -74h-227v50c47 0 57 13 57 70v274c0 57 -10 70 -57 70v52h276v-52c-37 0 -50 -13 -50 -70v-80c0 -58 -2 -98 -8 -134h6c10 33 22 62 47 99l110 163c12 19 15 36 15 74h227v-52
c-47 0 -57 -13 -57 -70v-274c0 -57 10 -70 57 -70v-50h-279l3 50c37 0 50 13 50 70zM456 590l-28 -36l-252 97l88 139z" />
    <glyph glyph-name="afii10110" unicode="&#x45e;" horiz-adv-x="572" 
d="M117 -205l-61 108c92 14 173 39 209 107l-66 -5c-13 52 -25 88 -62 190l-76 209c-17 46 -25 56 -61 61v51h292v-51c-44 -2 -58 -9 -58 -25c0 -6 2 -13 5 -22l68 -218c10 -31 13 -60 14 -66h6c1 7 8 40 17 68l66 216c3 9 4 16 4 22c0 20 -18 23 -61 25v51h219v-51
c-40 -5 -52 -12 -69 -58l-148 -396c-43 -117 -111 -200 -238 -216zM283 564c-97 0 -153 67 -172 149l40 22c32 -48 74 -68 132 -68s100 20 132 68l40 -22c-19 -82 -75 -149 -172 -149z" />
    <glyph glyph-name="afii10193" unicode="&#x45f;" horiz-adv-x="673" 
d="M25 0v50c47 0 57 13 57 70v274c0 57 -10 70 -57 70v52h279v-52c-37 0 -49 -13 -49 -70v-315h163v315c0 57 -12 70 -49 70v52h279v-52c-47 0 -57 -13 -57 -70v-274c0 -57 10 -70 57 -70v-50h-208c-35 0 -47 -50 -47 -145h-113c0 95 -12 145 -47 145h-208z" />
    <glyph glyph-name="afii10146" unicode="&#x462;" horiz-adv-x="778" 
d="M199 527c-55 0 -70 -11 -92 -97h-87l11 177h202c0 34 -25 37 -64 37v53h311v-53c-38 0 -64 -3 -64 -37h208l10 -177h-87c-22 86 -37 97 -92 97h-39v-120h95c141 0 252 -56 252 -205c0 -86 -49 -202 -257 -202h-337v50c47 0 64 13 64 70v407h-34zM568 201
c0 89 -33 126 -104 126h-48v-244h52c70 0 100 25 100 118z" />
    <glyph glyph-name="afii10194" unicode="&#x463;" horiz-adv-x="632" 
d="M342 445h-21v-102h17c202 0 266 -47 266 -164c0 -131 -88 -179 -261 -179h-252v50c47 0 57 13 57 70v325h-16c-61 0 -67 -12 -87 -82h-75l11 153h167v60c0 73 -13 83 -59 85v49l196 26h15c10 -13 21 -43 21 -100v-120h172l11 -153h-75c-20 70 -26 82 -87 82zM337 271h-16
v-196h19c50 0 92 22 92 101c0 69 -34 95 -95 95z" />
    <glyph glyph-name="afii10147" unicode="&#x472;" horiz-adv-x="720" 
d="M360 -12c-202 0 -320 121 -320 349c0 264 136 372 320 372s320 -108 320 -372c0 -228 -118 -349 -320 -349zM360 61c67 0 111 37 115 248h-231c5 -211 48 -248 116 -248zM360 628c-73 0 -111 -49 -116 -237h231c-5 187 -43 237 -115 237z" />
    <glyph glyph-name="afii10195" unicode="&#x473;" horiz-adv-x="598" 
d="M563 271c0 -204 -127 -284 -268 -284c-167 0 -260 98 -260 269c0 161 101 273 271 273c145 0 257 -73 257 -258zM301 54c44 0 67 49 71 183h-147c1 -128 16 -183 76 -183zM299 459c-44 0 -70 -33 -74 -172h148c-1 133 -26 172 -74 172z" />
    <glyph glyph-name="afii10148" unicode="&#x474;" horiz-adv-x="717" 
d="M581 490l-150 -490h-144l-208 591c-16 47 -27 50 -59 55v51h307v-51c-39 0 -54 -15 -54 -36c0 -5 2 -13 4 -20l102 -331c12 -40 19 -86 20 -100h6c1 17 9 61 21 103l85 299c29 102 74 144 192 148l14 -136l-44 -5c-53 -7 -74 -18 -92 -78z" />
    <glyph glyph-name="afii10196" unicode="&#x475;" horiz-adv-x="592" 
d="M349 221l47 162c28 94 59 144 188 147l12 -124l-28 -4c-49 -6 -73 -24 -86 -58l-126 -349h-136l-160 412c-18 46 -26 53 -60 58v51h292v-51c-39 0 -54 -14 -54 -35c0 -7 2 -14 5 -23l63 -186c13 -40 17 -64 18 -74h6c1 7 9 40 19 74z" />
    <glyph glyph-name="afii10050" unicode="&#x490;" horiz-adv-x="560" 
d="M25 697h334c76 0 92 14 113 104h88l-12 -184h-276v-497c0 -57 17 -70 84 -70v-50h-331v50c47 0 64 13 64 70v454c0 57 -17 70 -64 70v53z" />
    <glyph glyph-name="afii10098" unicode="&#x491;" horiz-adv-x="481" 
d="M25 516h294c53 0 60 33 79 109h81l-11 -183h-213v-322c0 -57 12 -70 61 -70v-50h-291v50c47 0 57 13 57 70v274c0 57 -10 70 -57 70v52z" />
    <glyph glyph-name="uni0492" unicode="&#x492;" horiz-adv-x="575" 
d="M277 617v-224h121v-86h-121v-187c0 -57 17 -70 84 -70v-50h-331v50c47 0 64 13 64 70v187h-59v86h59v181c0 57 -17 70 -64 70v53h523l12 -194h-88c-21 90 -31 114 -107 114h-93z" />
    <glyph glyph-name="uni0493" unicode="&#x493;" horiz-adv-x="491" 
d="M25 516h443l11 -183h-81c-20 80 -26 109 -87 109h-56v-155h89v-50h-89v-117c0 -57 12 -70 61 -70v-50h-291v50c47 0 57 13 57 70v117h-50v50h50v107c0 57 -10 70 -57 70v52z" />
    <glyph glyph-name="uni0496" unicode="&#x496;" horiz-adv-x="1047" 
d="M655 330h-49v-210c0 -57 14 -70 61 -70v-50h-305v50c47 0 61 13 61 70v210h-49c-50 0 -63 -29 -92 -163c-32 -146 -98 -182 -246 -182l-16 112c65 10 71 41 84 112c19 103 70 156 169 164v5c-64 22 -83 63 -95 110c-15 61 -44 81 -97 88l-54 7l14 126
c118 -4 189 -46 207 -150c22 -130 87 -149 159 -149h16v164c0 57 -14 70 -61 70v53h305v-53c-47 0 -61 -13 -61 -70v-164h16c72 0 137 19 159 149c18 104 89 146 207 150l14 -126l-54 -7c-53 -7 -82 -27 -97 -88c-12 -47 -31 -88 -95 -110v-5c99 -8 150 -61 169 -164
c13 -71 26 -127 91 -127h12v-82l-28 -180h-98c0 135 -3 166 -41 182c-62 26 -94 71 -114 165c-29 134 -42 163 -92 163z" />
    <glyph glyph-name="uni0497" unicode="&#x497;" horiz-adv-x="874" 
d="M833 411l-47 -5c-49 -6 -69 -28 -79 -63c-11 -40 -35 -59 -83 -73v-4c118 -3 146 -39 159 -96c12 -51 34 -91 70 -91h16v-79l-23 -145h-97c0 94 -4 120 -51 148c-38 22 -56 46 -69 107c-20 93 -38 114 -83 114h-27v-104c0 -57 10 -70 47 -70v-50h-263v50
c37 0 47 13 47 70v104h-27c-45 0 -63 -21 -83 -114c-22 -101 -64 -126 -206 -126l-14 104c39 9 54 31 66 82c13 57 41 93 159 96v4c-48 14 -72 33 -83 73c-10 35 -31 57 -80 63l-47 5l11 118c110 -4 167 -33 183 -130c11 -68 50 -101 117 -101h4v96c0 57 -12 70 -49 70v52
h267v-52c-37 0 -49 -13 -49 -70v-96h4c67 0 106 33 117 101c16 97 73 126 183 130z" />
    <glyph glyph-name="uni0498" unicode="&#x498;" horiz-adv-x="592" 
d="M255 323h-76v83h76c64 0 98 40 98 112c0 62 -27 110 -88 110c-58 0 -87 -38 -100 -116h-119v141c53 33 135 56 226 56c197 0 274 -82 274 -180c0 -78 -50 -137 -158 -156v-4c109 -13 189 -64 189 -171c0 -131 -101 -207 -270 -211l-8 -29c66 -4 101 -30 101 -79
c0 -62 -44 -85 -126 -85c-50 0 -87 12 -106 25l17 42c22 -14 46 -19 68 -19s34 7 34 25c0 22 -21 30 -55 31l1 21l20 70c-92 6 -176 30 -213 59v150h119c12 -83 43 -133 115 -133c74 0 108 55 108 131c0 90 -47 127 -127 127z" />
    <glyph glyph-name="uni0499" unicode="&#x499;" horiz-adv-x="508" 
d="M356 -121c0 -62 -44 -85 -126 -85c-50 0 -87 12 -106 25l17 42c22 -14 46 -19 68 -19s34 7 34 25c0 22 -21 30 -55 31l1 21l18 68c-71 3 -133 17 -177 44v112h123c5 -63 29 -85 69 -85c43 0 69 18 69 81c0 68 -15 89 -76 89h-43v72h46c54 0 60 36 60 79
c0 54 -12 81 -57 81c-35 0 -60 -21 -61 -84h-125v110c52 27 125 43 192 43c170 0 228 -51 228 -135c0 -66 -35 -104 -123 -121v-6c92 -7 146 -43 146 -122c0 -110 -105 -150 -216 -157l-7 -30c66 -4 101 -30 101 -79z" />
    <glyph glyph-name="uni049A" unicode="&#x49a;" horiz-adv-x="723" 
d="M421 167c-32 136 -44 163 -90 163h-59v-210c0 -57 14 -70 61 -70v-50h-308v50c47 0 64 13 64 70v454c0 57 -17 70 -64 70v53h308v-53c-47 0 -61 -13 -61 -70v-164h26c72 0 137 19 159 149c18 104 89 146 207 150l14 -126l-54 -7c-53 -7 -82 -27 -97 -88
c-12 -47 -31 -88 -95 -110v-5c99 -8 151 -61 170 -164c13 -71 22 -127 85 -127h17v-82l-28 -180h-98c0 136 -3 164 -42 183c-58 28 -93 71 -115 164z" />
    <glyph glyph-name="uni049B" unicode="&#x49b;" horiz-adv-x="617" 
d="M372 110c-21 98 -37 114 -91 114h-26v-104c0 -57 10 -70 47 -70v-50h-277v50c47 0 57 13 57 70v274c0 57 -10 70 -57 70v52h279v-52c-37 0 -49 -13 -49 -70v-96h10c67 0 107 33 118 101c16 97 73 126 183 130l10 -118l-47 -5c-49 -6 -69 -28 -79 -63
c-11 -40 -35 -59 -83 -73v-4c118 -3 151 -39 164 -96c11 -50 22 -89 60 -91h21v-79l-23 -145h-97c0 94 -4 120 -51 148c-38 22 -56 46 -69 107z" />
    <glyph glyph-name="uni049C" unicode="&#x49c;" horiz-adv-x="705" 
d="M527 488c-12 -47 -31 -88 -95 -110v-5c99 -8 151 -61 170 -164c13 -71 18 -102 83 -112l-16 -112c-148 0 -219 35 -247 182c-25 133 -35 152 -61 161l9 -167h-62v169h-36v-210c0 -57 14 -70 61 -70v-50h-308v50c47 0 64 13 64 70v454c0 57 -17 70 -64 70v53h308v-53
c-47 0 -61 -13 -61 -70v-164h36v117h62l-9 -113c46 14 80 55 96 145c18 104 89 146 207 150l14 -126l-54 -7c-53 -7 -82 -27 -97 -88z" />
    <glyph glyph-name="uni049D" unicode="&#x49d;" horiz-adv-x="622" 
d="M255 298h28v87h52l-8 -84c31 7 56 37 66 98c16 97 73 126 183 130l10 -118l-47 -5c-49 -6 -69 -28 -79 -63c-11 -40 -35 -59 -83 -73v-4c118 -3 151 -39 164 -96c12 -51 22 -73 61 -82l-14 -104c-142 0 -184 25 -206 126c-16 72 -28 110 -56 114l9 -113h-52v113h-28v-104
c0 -57 10 -70 47 -70v-50h-277v50c47 0 57 13 57 70v274c0 57 -10 70 -57 70v52h279v-52c-37 0 -49 -13 -49 -70v-96z" />
    <glyph glyph-name="uni04A0" unicode="&#x4a0;" horiz-adv-x="835" 
d="M465 330h-63v-210c0 -57 14 -70 61 -70v-50h-308v50c47 0 64 13 64 70v497h-24c-76 0 -86 -24 -107 -114h-88l12 194h451v-53c-47 0 -61 -13 -61 -70v-164h26c72 0 137 19 159 149c18 104 89 146 207 150l14 -126l-54 -7c-53 -7 -82 -27 -97 -88
c-12 -47 -31 -88 -95 -110v-5c99 -8 151 -61 170 -164c13 -71 18 -102 83 -112l-16 -112c-148 0 -216 37 -248 182c-30 136 -41 163 -86 163z" />
    <glyph glyph-name="uni04A1" unicode="&#x4a1;" horiz-adv-x="731" 
d="M400 224h-26v-104c0 -57 10 -70 47 -70v-50h-277v50c47 0 57 13 57 70v322h-21c-61 0 -67 -29 -87 -109h-81l11 183h400v-52c-37 0 -49 -13 -49 -70v-96h10c67 0 107 33 118 101c16 97 73 126 183 130l10 -118l-47 -5c-49 -6 -69 -28 -79 -63c-11 -40 -35 -59 -83 -73v-4
c118 -3 151 -38 164 -95c12 -51 22 -73 61 -82l-14 -105c-142 0 -184 25 -206 126c-21 98 -37 114 -91 114z" />
    <glyph glyph-name="uni04A2" unicode="&#x4a2;" horiz-adv-x="772" 
d="M729 -180h-98c0 136 -7 180 -42 180h-163v50c47 0 64 13 64 70v190h-218v-190c0 -57 17 -70 64 -70v-50h-311v50c47 0 64 13 64 70v454c0 57 -17 70 -64 70v53h311v-53c-47 0 -64 -13 -64 -70v-179h218v179c0 57 -17 70 -64 70v53h311v-53c-47 0 -64 -13 -64 -70v-449
c0 -30 17 -43 64 -43h20v-82z" />
    <glyph glyph-name="uni04A3" unicode="&#x4a3;" horiz-adv-x="687" 
d="M510 0h-137v50c37 0 49 13 49 70v100h-167v-100c0 -57 12 -70 49 -70v-50h-279v50c47 0 57 13 57 70v274c0 57 -10 70 -57 70v52h279v-52c-37 0 -49 -13 -49 -70v-93h167v93c0 57 -12 70 -49 70v52h279v-52c-47 0 -57 -13 -57 -70v-254c0 -44 8 -61 47 -61h30v-79
l-23 -145h-97c0 95 -7 145 -42 145z" />
    <glyph glyph-name="uni04AA" unicode="&#x4aa;" horiz-adv-x="638" 
d="M473 -125l16 -32c-34 -35 -81 -48 -130 -48c-63 0 -125 22 -125 91c0 47 29 86 104 103c-193 9 -298 136 -298 348c0 264 136 372 334 372c94 0 168 -18 221 -51v-146h-124c-15 76 -35 116 -99 116c-85 0 -128 -57 -128 -283c0 -242 53 -280 124 -280
c79 0 101 40 113 123h119v-143c-34 -27 -86 -43 -154 -52c-41 -5 -73 -47 -73 -87c0 -36 23 -48 46 -48c18 0 34 5 54 17z" />
    <glyph glyph-name="uni04AB" unicode="&#x4ab;" horiz-adv-x="503" 
d="M411 -125l16 -32c-34 -35 -81 -48 -130 -48c-63 0 -125 22 -125 91c0 46 37 90 99 103c-138 2 -236 97 -236 261c0 182 125 279 268 279c80 0 131 -15 170 -41v-117h-129c-1 63 -5 89 -40 89c-34 0 -92 -32 -92 -187c0 -145 66 -190 133 -190c41 0 71 7 112 28l27 -43
c-31 -37 -67 -55 -108 -68c-45 -14 -65 -65 -65 -94c0 -36 23 -48 46 -48c18 0 34 5 54 17z" />
    <glyph glyph-name="uni04AE" unicode="&#x4ae;" horiz-adv-x="680" 
d="M384 366h6l93 220c5 12 8 22 8 31c0 19 -14 29 -47 29v51h219v-51c-40 -5 -53 -14 -74 -58l-157 -327v-141c0 -57 17 -70 74 -70v-50h-331v50c57 0 74 13 74 70v140l-164 328c-22 44 -34 53 -68 58v51h305v-51c-32 0 -47 -13 -47 -33c0 -8 2 -17 7 -27z" />
    <glyph glyph-name="uni04AF" unicode="&#x4af;" horiz-adv-x="572" 
d="M503 407l-131 -378v-105c0 -57 10 -70 57 -70v-50h-286v50c47 0 57 13 57 70v111l-140 372c-18 46 -26 53 -60 58v51h292v-51c-39 0 -54 -14 -54 -35c0 -7 1 -16 5 -27l63 -194c13 -40 17 -64 18 -74h6c1 7 9 40 19 74l57 196c3 9 4 17 4 24c0 25 -19 36 -57 36v51h219
v-51c-40 -5 -53 -12 -69 -58z" />
    <glyph glyph-name="uni04B0" unicode="&#x4b0;" horiz-adv-x="680" 
d="M384 366h6l93 220c5 12 8 22 8 31c0 19 -14 29 -47 29v51h219v-51c-40 -5 -53 -14 -74 -58l-155 -322h87v-86h-89v-60c0 -57 17 -70 74 -70v-50h-331v50c57 0 74 13 74 70v60h-91v86h88l-161 322c-22 44 -34 53 -68 58v51h305v-51c-32 0 -47 -13 -47 -33
c0 -8 2 -17 7 -27z" />
    </font>
</defs>
</svg>
