<?xml version="1.0" standalone="no"?>
<!DOCTYPE svg PUBLIC "-//W3C//DTD SVG 1.1//EN" "http://www.w3.org/Graphics/SVG/1.1/DTD/svg11.dtd" >
<svg xmlns="http://www.w3.org/2000/svg" xmlns:xlink="http://www.w3.org/1999/xlink" version="1.1">
<metadata>
Created by FontForge 20170910 at Mon Mar 19 09:51:03 2012
 By Jimmy Wärting

</metadata>
<defs>
<font id="MetaSerifPro-BlackItalic" horiz-adv-x="1" >
  <font-face 
    font-family="MetaSerifPro-BlackItalic"
    font-weight="900"
    font-style="italic"
    font-stretch="normal"
    units-per-em="1000"
    panose-1="2 1 10 4 5 1 1 2 1 2"
    ascent="763"
    descent="-237"
    x-height="523"
    cap-height="697"
    bbox="-772 -290 1626 1186"
    underline-thickness="83"
    underline-position="-83"
    slope="-11"
    stemh="113"
    stemv="183"
    unicode-range="U+000D-FEFF"
  />
<missing-glyph horiz-adv-x="553" 
d="M71 0v689h411v-689h-411zM121 50h311v589h-311v-589z" />
    <glyph glyph-name="f_b" unicode="fb" horiz-adv-x="912" 
d="M566 337l-53 -253c7 -12 18 -19 41 -19c101 0 152 164 152 274c0 54 -19 67 -45 67c-29 0 -65 -25 -95 -69zM357 144l88 416c3 15 5 28 5 40c0 41 -19 64 -56 64c-42 0 -66 -22 -77 -76l-15 -72h99l-32 -80h-84l-95 -473c-22 -108 -100 -151 -195 -151
c-48 0 -72 9 -90 18v41c84 5 103 27 118 106l90 459h-63l15 57l66 22l15 59c27 104 110 160 237 160c52 0 85 -7 135 -33l92 29h13c3 -10 7 -27 7 -53c0 -28 -4 -67 -15 -116l-32 -144c42 66 99 112 175 112c79 0 134 -59 134 -158c0 -217 -117 -385 -314 -385
c-62 0 -99 27 -116 63c-5 -17 -22 -40 -32 -49h-112c15 37 28 90 39 144z" />
    <glyph glyph-name="f_f" unicode="ff" horiz-adv-x="677" 
d="M436 516l5 22c5 22 10 48 10 66c0 30 -13 55 -57 55c-45 0 -65 -22 -80 -90l-12 -53h134zM331 -9l87 445h-133l-95 -473c-22 -108 -100 -151 -195 -151c-48 0 -72 9 -90 18v41c84 5 103 27 118 106l90 459h-63l15 57l66 22l10 41c29 123 119 174 248 174
c68 0 108 -16 145 -34c37 26 93 38 136 38c54 0 112 -9 147 -26l-18 -101h-102c0 39 -7 55 -32 55c-16 0 -29 -9 -37 -46l-21 -100h123l-34 -80h-106l-92 -459c-22 -108 -97 -151 -192 -151c-46 0 -67 9 -85 18v41c81 5 95 27 110 106z" />
    <glyph glyph-name="f_f_b" unicode="ffb" horiz-adv-x="1217" 
d="M436 516l5 22c5 22 10 48 10 66c0 30 -13 55 -57 55c-45 0 -65 -22 -80 -90l-12 -53h134zM871 337l-53 -253c7 -12 18 -19 41 -19c101 0 152 164 152 274c0 54 -19 67 -45 67c-29 0 -65 -25 -95 -69zM699 664c-42 0 -66 -22 -77 -76l-15 -72h99l-32 -80h-84l-92 -459
c-22 -108 -97 -151 -192 -151c-46 0 -67 9 -85 18v41c81 5 95 27 110 106l87 445h-133l-95 -473c-22 -108 -100 -151 -195 -151c-48 0 -72 9 -90 18v41c84 5 103 27 118 106l90 459h-63l15 57l66 22l10 41c29 123 119 174 248 174c65 0 108 -15 146 -35c40 25 91 39 153 39
c52 0 85 -7 135 -33l92 29h13c3 -10 7 -27 7 -53c0 -28 -4 -67 -15 -116l-32 -144c42 66 99 112 175 112c79 0 134 -59 134 -158c0 -217 -117 -385 -314 -385c-62 0 -99 27 -116 63c-5 -17 -22 -40 -32 -49h-112c15 37 28 90 39 144l88 416c3 15 5 28 5 40
c0 41 -19 64 -56 64z" />
    <glyph glyph-name="f_f_h" unicode="ffh" horiz-adv-x="1218" 
d="M915 730h13c3 -9 6 -27 6 -52c0 -28 -3 -67 -14 -117l-35 -161c49 79 118 129 192 129c71 0 105 -45 105 -106c0 -15 -2 -30 -6 -46l-55 -232c-4 -17 -7 -32 -7 -41c0 -22 12 -32 44 -32c9 0 19 1 31 2l4 -45c-44 -25 -90 -38 -144 -38c-72 0 -106 34 -106 96
c0 18 3 39 9 62l48 194c2 7 3 14 3 20c0 18 -9 28 -29 28c-31 0 -70 -31 -110 -88l-67 -303h-169l122 560c3 15 5 28 5 40c0 41 -19 64 -56 64c-42 0 -66 -22 -77 -76l-15 -72h99l-32 -80h-84l-92 -459c-22 -108 -97 -151 -192 -151c-46 0 -67 9 -85 18v41
c81 5 95 27 110 106l87 445h-133l-95 -473c-22 -108 -100 -151 -195 -151c-48 0 -72 9 -90 18v41c84 5 103 27 118 106l90 459h-63l15 57l66 22l10 41c29 123 119 174 248 174c65 0 108 -15 146 -35c40 25 91 39 153 39c66 0 89 -11 135 -33zM436 516l5 22c5 22 10 48 10 66
c0 30 -13 55 -57 55c-45 0 -65 -22 -80 -90l-12 -53h134z" />
    <glyph glyph-name="f_f_i" unicode="ffi" horiz-adv-x="928" 
d="M436 516l5 22c5 22 10 48 10 66c0 30 -13 55 -57 55c-45 0 -65 -22 -80 -90l-12 -53h134zM664 436h-74l-92 -459c-22 -108 -97 -151 -192 -151c-46 0 -67 9 -85 18v41c81 5 95 27 110 106l87 445h-133l-95 -473c-22 -108 -100 -151 -195 -151c-48 0 -72 9 -90 18v41
c84 5 103 27 118 106l90 459h-63l15 57l66 22l10 41c29 123 119 174 248 174c63 0 113 -15 148 -36c46 28 106 40 173 40c83 0 129 -14 180 -38l-27 -115h-119c0 56 -7 81 -49 81c-29 0 -61 -14 -72 -69l-16 -77h190c62 0 96 -23 96 -80c0 -14 -3 -31 -7 -50l-57 -241
c-4 -17 -7 -31 -7 -41c0 -23 12 -32 44 -32c9 0 19 1 31 2l4 -45c-44 -25 -90 -38 -144 -38c-73 0 -105 35 -105 97c0 18 2 34 8 61l52 221c3 12 4 22 4 30c0 27 -17 36 -52 36z" />
    <glyph glyph-name="f_f_j" unicode="ffj" horiz-adv-x="909" 
d="M643 15l70 355c2 11 3 20 3 28c0 29 -16 38 -52 38h-74l-92 -459c-22 -108 -97 -151 -192 -151c-46 0 -67 9 -85 18v41c81 5 95 27 110 106l87 445h-133l-95 -473c-22 -108 -100 -151 -195 -151c-48 0 -72 9 -90 18v41c84 5 103 27 118 106l90 459h-63l15 57l66 22l10 41
c29 123 119 174 248 174c63 0 113 -15 148 -36c46 28 106 40 173 40c83 0 129 -14 180 -38l-27 -115h-119c0 56 -7 81 -49 81c-29 0 -61 -14 -72 -69l-16 -77h190c62 0 95 -22 95 -81c0 -14 -2 -30 -6 -49l-80 -390c-25 -121 -101 -174 -278 -199l-16 61
c87 25 111 52 131 157zM436 516l5 22c5 22 10 48 10 66c0 30 -13 55 -57 55c-45 0 -65 -22 -80 -90l-12 -53h134z" />
    <glyph glyph-name="f_f_k" unicode="ffk" horiz-adv-x="1188" 
d="M1013 328l60 -189c17 -54 31 -70 66 -70c8 0 16 1 26 2l4 -42c-40 -26 -91 -38 -132 -38c-72 0 -103 23 -124 103l-47 175l191 247h161l-9 -43c-43 0 -105 -42 -156 -100zM630 0l120 560c3 15 5 28 5 40c0 41 -19 64 -56 64c-42 0 -66 -22 -77 -76l-15 -72h99l-32 -80
h-84l-92 -459c-22 -108 -97 -151 -192 -151c-46 0 -67 9 -85 18v41c81 5 95 27 110 106l87 445h-133l-95 -473c-22 -108 -100 -151 -195 -151c-48 0 -72 9 -90 18v41c84 5 103 27 118 106l90 459h-63l15 57l66 22l10 41c29 123 119 174 248 174c65 0 108 -15 146 -35
c40 25 91 39 153 39c55 0 89 -9 135 -33l92 29h13c3 -10 7 -27 7 -53c0 -28 -4 -67 -15 -116l-121 -561h-169zM436 516l5 22c5 22 10 48 10 66c0 30 -13 55 -57 55c-45 0 -65 -22 -80 -90l-12 -53h134z" />
    <glyph glyph-name="f_f_l" unicode="ffl" horiz-adv-x="935" 
d="M436 516l5 22c5 22 10 48 10 66c0 30 -13 55 -57 55c-45 0 -65 -22 -80 -90l-12 -53h134zM699 664c-42 0 -66 -22 -77 -76l-15 -72h99l-32 -80h-84l-92 -459c-22 -108 -97 -151 -192 -151c-46 0 -67 9 -85 18v41c81 5 95 27 110 106l87 445h-133l-95 -473
c-22 -108 -100 -151 -195 -151c-48 0 -72 9 -90 18v41c84 5 103 27 118 106l90 459h-63l15 57l66 22l10 41c29 123 119 174 248 174c65 0 108 -15 146 -35c40 25 91 39 153 39c58 0 84 -8 135 -33l92 29h13c3 -10 7 -27 7 -53c0 -28 -4 -67 -15 -116l-90 -416
c-4 -17 -6 -30 -6 -40c0 -24 12 -33 43 -33c9 0 19 1 31 2l4 -45c-44 -25 -90 -38 -144 -38c-73 0 -104 34 -104 97c0 18 2 39 7 61l89 411c3 15 5 28 5 40c0 41 -19 64 -56 64z" />
    <glyph glyph-name="f_f_t" unicode="fft" horiz-adv-x="989" 
d="M436 516l5 22c5 22 10 48 10 66c0 30 -13 55 -57 55c-45 0 -65 -22 -80 -90l-12 -53h134zM670 734c54 0 89 -9 124 -26l-18 -101h-99c0 39 -1 55 -20 55c-14 0 -21 -9 -29 -46l-21 -100h140c19 50 58 110 102 142l107 8c-15 -35 -33 -93 -46 -150h119l-31 -80h-106
l-56 -260c-4 -20 -6 -35 -6 -49c0 -35 13 -53 50 -53c18 0 46 4 68 12l8 -52c-43 -34 -105 -48 -161 -48c-95 0 -136 46 -136 109c0 25 3 48 10 81l54 260h-133l-92 -459c-22 -108 -97 -151 -192 -151c-46 0 -67 9 -85 18v41c81 5 95 27 110 106l87 445h-133l-95 -473
c-22 -108 -100 -151 -195 -151c-48 0 -72 9 -90 18v41c84 5 103 27 118 106l90 459h-63l15 57l66 22l10 41c29 123 119 174 248 174c68 0 108 -16 145 -34c37 26 93 38 136 38z" />
    <glyph glyph-name="f_h" unicode="fh" horiz-adv-x="913" 
d="M383 734c66 0 89 -11 135 -33l92 29h13c3 -9 6 -27 6 -52c0 -28 -3 -67 -14 -117l-35 -161c49 79 118 129 192 129c71 0 105 -45 105 -106c0 -15 -2 -30 -6 -46l-55 -232c-4 -17 -7 -32 -7 -41c0 -22 12 -32 44 -32c9 0 19 1 31 2l4 -45c-44 -25 -90 -38 -144 -38
c-72 0 -106 34 -106 96c0 18 3 39 9 62l48 194c2 7 3 14 3 20c0 18 -9 28 -29 28c-31 0 -70 -31 -110 -88l-67 -303h-169l122 560c3 15 5 28 5 40c0 41 -19 64 -56 64c-42 0 -66 -22 -77 -76l-15 -72h99l-32 -80h-84l-95 -473c-22 -108 -100 -151 -195 -151
c-48 0 -72 9 -90 18v41c84 5 103 27 118 106l90 459h-63l15 57l66 22l15 59c27 104 110 160 237 160z" />
    <glyph glyph-name="f_i" unicode="fi" horiz-adv-x="623" 
d="M581 386l-57 -241c-4 -17 -7 -31 -7 -41c0 -23 12 -32 44 -32c9 0 19 1 31 2l4 -45c-44 -25 -90 -38 -144 -38c-73 0 -105 35 -105 97c0 18 2 34 8 61l52 221c3 12 4 22 4 30c0 27 -17 36 -52 36h-74l-95 -473c-22 -108 -100 -151 -195 -151c-48 0 -72 9 -90 18v41
c84 5 103 27 118 106l90 459h-63l15 57l66 22l13 54c28 121 130 165 261 165c83 0 129 -14 180 -38l-27 -115h-119c0 56 -7 81 -49 81c-29 0 -61 -14 -72 -69l-16 -77h190c62 0 96 -23 96 -80c0 -14 -3 -31 -7 -50z" />
    <glyph glyph-name="f_j" unicode="fj" horiz-adv-x="604" 
d="M359 436h-74l-95 -473c-22 -108 -100 -151 -195 -151c-48 0 -72 9 -90 18v41c84 5 103 27 118 106l90 459h-63l15 57l66 22l13 54c28 121 130 165 261 165c83 0 129 -14 180 -38l-27 -115h-119c0 56 -7 81 -49 81c-29 0 -61 -14 -72 -69l-16 -77h190c62 0 95 -22 95 -81
c0 -14 -2 -30 -6 -49l-80 -390c-25 -121 -101 -174 -278 -199l-16 61c87 25 111 52 131 157l70 355c2 11 3 20 3 28c0 29 -16 38 -52 38z" />
    <glyph glyph-name="f_k" unicode="fk" horiz-adv-x="883" 
d="M383 734c55 0 89 -9 135 -33l92 29h13c3 -10 7 -27 7 -53c0 -28 -4 -67 -15 -116l-121 -561h-169l120 560c3 15 5 28 5 40c0 41 -19 64 -56 64c-42 0 -66 -22 -77 -76l-15 -72h99l-32 -80h-84l-95 -473c-22 -108 -100 -151 -195 -151c-48 0 -72 9 -90 18v41
c84 5 103 27 118 106l90 459h-63l15 57l66 22l15 59c27 104 110 160 237 160zM708 328l60 -189c17 -54 31 -70 66 -70c8 0 16 1 26 2l4 -42c-40 -26 -91 -38 -132 -38c-72 0 -103 23 -124 103l-47 175l191 247h161l-9 -43c-43 0 -105 -42 -156 -100z" />
    <glyph glyph-name="f_l" unicode="fl" horiz-adv-x="630" 
d="M23 -23l90 459h-63l15 57l66 22l15 59c27 104 110 160 237 160c58 0 84 -8 135 -33l92 29h13c3 -10 7 -27 7 -53c0 -28 -4 -67 -15 -116l-90 -416c-4 -17 -6 -30 -6 -40c0 -24 12 -33 43 -33c9 0 19 1 31 2l4 -45c-44 -25 -90 -38 -144 -38c-73 0 -104 34 -104 97
c0 18 2 39 7 61l89 411c3 15 5 28 5 40c0 41 -19 64 -56 64c-42 0 -66 -22 -77 -76l-15 -72h99l-32 -80h-84l-95 -473c-22 -108 -100 -151 -195 -151c-48 0 -72 9 -90 18v41c84 5 103 27 118 106z" />
    <glyph glyph-name="f_t" unicode="ft" horiz-adv-x="684" 
d="M302 516h140c19 50 58 110 102 142l107 8c-15 -35 -33 -93 -46 -150h119l-31 -80h-106l-56 -260c-4 -20 -6 -35 -6 -49c0 -35 13 -53 50 -53c18 0 46 4 68 12l8 -52c-43 -34 -105 -48 -161 -48c-95 0 -136 46 -136 109c0 25 3 48 10 81l54 260h-133l-95 -473
c-22 -108 -100 -151 -195 -151c-48 0 -72 9 -90 18v41c84 5 103 27 118 106l90 459h-63l15 57l66 22l14 59c25 105 109 160 220 160c54 0 89 -9 124 -26l-18 -101h-99c0 39 -1 55 -20 55c-14 0 -21 -9 -29 -46z" />
    <glyph glyph-name=".notdef" horiz-adv-x="553" 
d="M71 0v689h411v-689h-411zM121 50h311v589h-311v-589z" />
    <glyph glyph-name=".null" horiz-adv-x="0" 
 />
    <glyph glyph-name=".null" horiz-adv-x="0" 
 />
    <glyph glyph-name="CR" unicode="&#xd;" horiz-adv-x="225" 
 />
    <glyph glyph-name="space" unicode=" " horiz-adv-x="225" 
 />
    <glyph glyph-name="exclam" unicode="!" horiz-adv-x="299" 
d="M339 704l-153 -476h-110l45 459zM215 90c0 -57 -47 -103 -103 -103s-102 46 -102 103c0 55 46 101 102 101s103 -46 103 -101z" />
    <glyph glyph-name="quotedbl" unicode="&#x22;" horiz-adv-x="443" 
d="M394 453h-105l49 256h105zM215 453h-105l49 256h105z" />
    <glyph glyph-name="numbersign" unicode="#" horiz-adv-x="579" 
d="M90 419l17 90h106l67 200h87l-67 -200h117l67 200h87l-67 -200h100l-17 -90h-112l-40 -118h99l-17 -90h-111l-70 -211h-87l70 211h-117l-70 -211h-87l70 211h-95l17 90h107l40 118h-94zM271 419l-40 -118h117l40 118h-117z" />
    <glyph glyph-name="dollar" unicode="$" horiz-adv-x="551" 
d="M202 -101h-59l17 88c-102 7 -163 38 -190 62l26 143h113c0 -70 14 -121 64 -137l43 221l-48 19c-76 30 -126 86 -126 181c0 141 101 229 258 233l17 86h59l-17 -88c101 -7 157 -37 182 -51l-28 -147h-112c0 64 -18 105 -57 121l-38 -196l42 -17c90 -37 149 -81 149 -190
c0 -157 -120 -234 -278 -240zM336 157c0 47 -21 74 -65 96l-40 -202c56 6 105 38 105 106zM190 543c0 -44 27 -69 61 -86l35 182c-56 -4 -96 -40 -96 -96z" />
    <glyph glyph-name="percent" unicode="%" horiz-adv-x="1078" 
d="M486 502c0 -164 -110 -261 -249 -261c-108 0 -172 65 -172 173c0 142 92 251 248 251c109 0 173 -62 173 -163zM244 293c51 0 74 66 95 174c6 32 10 59 10 80c0 43 -14 65 -45 65c-44 0 -76 -60 -94 -173c-5 -32 -8 -58 -8 -78c0 -53 17 -68 42 -68zM888 730l-608 -853
h-82l610 853h80zM1073 252c0 -164 -110 -261 -249 -261c-108 0 -172 65 -172 173c0 142 92 251 248 251c109 0 173 -62 173 -163zM831 43c51 0 74 66 95 174c6 32 10 59 10 80c0 43 -14 65 -45 65c-44 0 -76 -60 -94 -173c-5 -32 -8 -58 -8 -78c0 -53 17 -68 42 -68z" />
    <glyph glyph-name="ampersand" unicode="&#x26;" horiz-adv-x="720" 
d="M555 562c0 -89 -72 -146 -176 -185l134 -172c13 19 31 46 31 95c0 26 -17 32 -64 37l7 46h223l-7 -46c-46 -2 -64 -10 -78 -51c-21 -62 -44 -97 -72 -134l48 -61c27 -35 41 -42 84 -42l-8 -49h-223l-33 40c-57 -32 -117 -54 -219 -54c-119 0 -212 54 -212 165
c0 101 82 158 200 183l-33 39c-32 37 -53 83 -53 134c0 111 93 202 253 202c121 0 198 -52 198 -147zM285 59c35 0 73 10 101 26l-164 208c-36 -26 -55 -69 -55 -124c0 -77 48 -110 118 -110zM350 642c-45 0 -82 -32 -82 -83c0 -35 23 -74 66 -124l13 -16
c44 37 72 87 72 139c0 50 -23 84 -69 84z" />
    <glyph glyph-name="quotesingle" unicode="'" horiz-adv-x="264" 
d="M215 453h-105l49 256h105z" />
    <glyph glyph-name="parenleft" unicode="(" horiz-adv-x="410" 
d="M301 -120l-44 -37c-106 48 -197 156 -197 350c0 289 113 481 382 582l38 -45c-178 -115 -247 -328 -247 -562c0 -116 6 -215 68 -288z" />
    <glyph glyph-name="parenright" unicode=")" horiz-adv-x="445" 
d="M144 738l44 37c106 -48 197 -156 197 -345c0 -297 -113 -486 -382 -587l-38 45c178 115 247 326 247 562c0 116 -6 215 -68 288z" />
    <glyph glyph-name="asterisk" unicode="*" horiz-adv-x="461" 
d="M435 464l-118 -13l7 -123l-69 -19l-47 119l-113 -50l-35 61l91 81l-76 94l47 55l104 -67l63 105l63 -26l-31 -119l120 -28z" />
    <glyph glyph-name="plus" unicode="+" horiz-adv-x="586" 
d="M294 507h88l-38 -197h192l-15 -78h-192l-39 -200h-88l39 200h-191l15 78h191z" />
    <glyph glyph-name="comma" unicode="," horiz-adv-x="278" 
d="M218 67c0 -111 -100 -195 -219 -219l-24 42c74 20 117 57 117 92c0 18 -7 27 -27 36c-25 11 -50 26 -50 70c0 48 39 88 96 88c72 0 107 -53 107 -109z" />
    <glyph glyph-name="hyphen" unicode="-" horiz-adv-x="371" 
d="M308 217h-273l28 133h273z" />
    <glyph glyph-name="period" unicode="." horiz-adv-x="285" 
d="M215 90c0 -57 -47 -103 -103 -103s-102 46 -102 103c0 55 46 101 102 101s103 -46 103 -101z" />
    <glyph glyph-name="slash" unicode="/" horiz-adv-x="390" 
d="M470 761l-437 -910h-103l436 910h104z" />
    <glyph glyph-name="zero" unicode="0" horiz-adv-x="600" 
d="M565 316c0 -168 -91 -330 -308 -330c-136 0 -222 82 -222 211c0 157 92 332 303 332c129 0 227 -62 227 -213zM260 56c28 0 57 9 81 69c22 56 48 167 48 256c0 53 -17 77 -54 77c-34 0 -58 -15 -78 -68c-26 -69 -49 -183 -49 -269c0 -44 17 -65 52 -65z" />
    <glyph glyph-name="one" unicode="1" horiz-adv-x="413" 
d="M373 516l-82 -385c-3 -16 -6 -29 -6 -39c0 -30 18 -40 76 -42l-10 -50h-361l10 50c86 4 101 20 115 87l54 258c-45 -22 -71 -31 -115 -41l-12 55l215 107h116z" />
    <glyph glyph-name="two" unicode="2" horiz-adv-x="479" 
d="M271 529c121 0 179 -54 179 -142c0 -123 -123 -186 -277 -258l-30 -14h290l-40 -115h-418l19 90l100 66c105 71 168 113 168 196c0 43 -22 69 -63 69c-49 0 -95 -26 -134 -57l-33 58c47 55 129 107 239 107z" />
    <glyph glyph-name="three" unicode="3" horiz-adv-x="452" 
d="M178 429c-55 0 -96 -21 -132 -52l-31 56c52 57 133 96 234 96c120 0 173 -63 173 -153c0 -104 -81 -147 -169 -171c82 -8 129 -63 129 -125c0 -199 -210 -244 -360 -244c-43 0 -90 8 -119 20l-18 65c36 -9 72 -15 119 -15c129 0 199 58 199 172c0 52 -30 86 -89 86
c-22 0 -36 0 -52 -2l17 78c20 -1 34 -2 54 -2c69 0 119 32 119 117c0 45 -23 74 -74 74z" />
    <glyph glyph-name="four" unicode="4" horiz-adv-x="586" 
d="M233 -179l39 183h-292l17 77l307 435h171l-357 -439h170c25 119 47 177 108 253l129 18l-57 -271h78l-16 -73h-78l-35 -164z" />
    <glyph glyph-name="five" unicode="5" horiz-adv-x="457" 
d="M408 107c0 -184 -182 -271 -365 -271c-59 0 -86 8 -118 20l-11 62c35 -10 53 -14 101 -14c66 0 212 32 212 176c0 58 -27 94 -94 94c-34 0 -86 -8 -112 -19l110 361h346l-45 -141h-266l-43 -129c24 10 69 16 107 16c120 0 178 -68 178 -155z" />
    <glyph glyph-name="six" unicode="6" horiz-adv-x="582" 
d="M567 632c-152 -53 -262 -127 -318 -242c30 20 65 40 136 40c80 0 166 -58 166 -169c0 -181 -105 -275 -288 -275c-150 0 -233 79 -233 214c0 278 222 434 529 490zM310 348c-37 0 -64 -13 -85 -26c-13 -27 -29 -92 -29 -154s16 -121 66 -121c88 0 117 107 117 194
c0 73 -23 107 -69 107z" />
    <glyph glyph-name="seven" unicode="7" horiz-adv-x="467" 
d="M492 516l-46 -133c-144 -150 -232 -315 -287 -522l-188 -28c79 227 225 405 377 539h-330l47 144h427z" />
    <glyph glyph-name="eight" unicode="8" horiz-adv-x="562" 
d="M10 134c0 107 83 151 170 181c-54 40 -85 75 -85 154c0 137 110 214 251 214c123 0 206 -49 206 -137c0 -100 -69 -137 -156 -163c84 -51 129 -93 129 -186c0 -140 -117 -211 -276 -211c-157 0 -239 61 -239 148zM224 286c-43 -44 -62 -92 -62 -138c0 -60 34 -99 94 -99
c71 0 105 39 105 89c0 55 -30 84 -137 148zM252 526c0 -34 21 -68 92 -113c43 33 66 69 66 132c0 45 -24 73 -76 73c-51 0 -82 -36 -82 -92z" />
    <glyph glyph-name="nine" unicode="9" horiz-adv-x="587" 
d="M-20 -122c160 43 302 124 362 247c-30 -20 -71 -40 -138 -40c-89 0 -168 50 -168 174c0 163 107 270 280 270c160 0 241 -89 241 -216c0 -283 -218 -446 -549 -488zM277 167c37 0 68 13 89 26c11 24 23 78 23 132c0 69 -19 138 -79 138c-82 0 -102 -102 -102 -189
c0 -73 23 -107 69 -107z" />
    <glyph glyph-name="colon" unicode=":" horiz-adv-x="287" 
d="M262 373c0 -57 -47 -103 -103 -103s-102 46 -102 103c0 55 46 101 102 101s103 -46 103 -101zM215 90c0 -57 -47 -103 -103 -103s-102 46 -102 103c0 55 46 101 102 101s103 -46 103 -101z" />
    <glyph glyph-name="semicolon" unicode=";" horiz-adv-x="287" 
d="M262 373c0 -57 -47 -103 -103 -103s-102 46 -102 103c0 55 46 101 102 101s103 -46 103 -101zM218 67c0 -111 -100 -195 -219 -219l-24 42c74 20 117 57 117 92c0 18 -7 27 -27 36c-25 11 -50 26 -50 70c0 48 39 88 96 88c72 0 107 -53 107 -109z" />
    <glyph glyph-name="less" unicode="&#x3c;" horiz-adv-x="513" 
d="M407 43l-337 203l17 85l422 237l-19 -103l-320 -176l255 -156z" />
    <glyph glyph-name="equal" unicode="=" horiz-adv-x="614" 
d="M50 153l16 79h467l-16 -79h-467zM81 313l16 79h467l-16 -79h-467z" />
    <glyph glyph-name="greater" unicode="&#x3e;" horiz-adv-x="532" 
d="M445 246l-415 -203l18 98l315 156l-250 176l19 95l330 -237z" />
    <glyph glyph-name="question" unicode="?" horiz-adv-x="494" 
d="M308 90c0 -57 -47 -103 -103 -103s-102 46 -102 103c0 55 46 101 102 101s103 -46 103 -101zM284 630c-51 0 -63 -33 -81 -98h-118l28 135c55 28 118 42 193 42c133 0 208 -47 208 -146c0 -104 -79 -158 -144 -190c-83 -42 -119 -63 -119 -131c0 -5 1 -15 1 -17h-75
c-9 11 -19 32 -19 59c0 72 58 123 109 161c44 33 70 63 70 126c0 36 -14 59 -53 59z" />
    <glyph glyph-name="at" unicode="@" horiz-adv-x="908" 
d="M595 11c-100 0 -136 29 -136 83c-34 -54 -71 -87 -141 -87c-66 0 -105 42 -105 121c0 159 119 322 297 322c57 0 127 -7 163 -25c-9 -25 -21 -61 -27 -90l-45 -212c-2 -10 -3 -18 -3 -25c0 -23 13 -33 46 -33c72 0 128 70 128 226c0 198 -117 286 -293 286
c-203 0 -346 -144 -346 -384c0 -190 114 -320 304 -320c71 0 119 10 161 24l15 -38c-53 -21 -109 -35 -188 -35c-219 0 -385 127 -385 370c0 254 191 431 441 431c234 0 387 -137 387 -340c0 -196 -130 -274 -273 -274zM473 178l49 204c-11 8 -20 9 -32 9
c-77 0 -135 -148 -135 -253c0 -36 9 -44 27 -44c27 0 59 36 91 84z" />
    <glyph glyph-name="A" unicode="A" horiz-adv-x="650" 
d="M379 98l-10 77h-207l-32 -68c-5 -12 -8 -21 -8 -29c0 -17 14 -26 51 -28l-9 -50h-224l9 50c41 5 57 13 81 59l304 588h138l100 -588c8 -46 15 -54 48 -59l-9 -50h-304l9 50c52 2 64 13 64 35c0 4 0 5 -1 13zM286 435l-84 -175h155l-22 170c-6 43 -6 64 -6 88h-6
c-8 -20 -17 -41 -37 -83z" />
    <glyph glyph-name="B" unicode="B" horiz-adv-x="656" 
d="M346 617l-44 -229h24c47 0 76 4 98 26c26 25 40 71 40 120c0 70 -30 83 -86 83h-32zM353 311h-66l-46 -237h33c54 0 86 2 113 20c34 23 49 75 49 125c0 70 -27 92 -83 92zM460 355v-4c111 -9 164 -63 164 -144c0 -94 -53 -159 -137 -184c-65 -20 -126 -23 -196 -23h-311
l9 50c47 0 67 13 78 70l88 454c2 12 4 23 4 31c0 31 -17 39 -54 39l10 53h324c131 0 217 -45 217 -157c0 -114 -92 -178 -196 -185z" />
    <glyph glyph-name="C" unicode="C" horiz-adv-x="634" 
d="M328 -14c-192 0 -284 103 -284 279c0 232 149 444 411 444c92 0 161 -18 209 -51l-29 -146h-125c0 76 -14 116 -73 116c-124 0 -202 -180 -202 -416c0 -114 40 -146 106 -146c69 0 103 42 131 125h126l-30 -151c-49 -33 -151 -54 -240 -54z" />
    <glyph glyph-name="D" unicode="D" horiz-adv-x="713" 
d="M494 476c0 107 -23 141 -111 141h-37l-105 -543h33c58 0 107 8 143 63c40 62 77 198 77 339zM115 697h295c185 0 278 -94 278 -264c0 -155 -42 -256 -118 -339c-61 -66 -158 -94 -260 -94h-330l9 50c47 0 67 13 78 70l88 454c2 12 4 23 4 31c0 31 -17 39 -54 39z" />
    <glyph glyph-name="E" unicode="E" horiz-adv-x="604" 
d="M629 697l-22 -177h-88c-8 76 -13 97 -89 97h-84l-44 -230h48c62 0 79 14 95 71h77l-43 -218h-77c1 7 2 17 2 24c0 35 -16 47 -68 47h-49l-46 -237h105c62 0 93 23 119 116h89l-36 -190h-538l9 50c47 0 67 13 78 70l88 454c2 12 4 23 4 31c0 31 -17 39 -54 39l10 53h514z
" />
    <glyph glyph-name="F" unicode="F" horiz-adv-x="574" 
d="M287 311l-37 -191c-2 -11 -3 -21 -3 -29c0 -33 19 -41 73 -41l-9 -50h-331l9 50c47 0 67 13 78 70l88 454c2 12 4 23 4 31c0 31 -17 39 -54 39l10 53h514l-22 -177h-88c-8 76 -13 97 -89 97h-84l-44 -230h48c62 0 79 14 95 71h77l-43 -218h-77c1 7 2 17 2 24
c0 35 -16 47 -68 47h-49z" />
    <glyph glyph-name="G" unicode="G" horiz-adv-x="710" 
d="M417 78l30 154c2 9 4 23 4 31c0 30 -18 39 -67 39l11 52h315l-10 -52c-49 0 -68 -13 -79 -70l-37 -191c-59 -34 -154 -55 -233 -55c-206 0 -306 98 -306 278c0 226 139 445 424 445c92 0 167 -20 216 -51l-29 -146h-121c0 80 -19 116 -84 116c-128 0 -215 -168 -215 -404
c0 -122 37 -161 114 -161c24 0 51 6 67 15z" />
    <glyph glyph-name="H" unicode="H" horiz-adv-x="772" 
d="M468 120l37 190h-218l-37 -190c-2 -12 -4 -23 -4 -31c0 -31 17 -39 54 -39l-9 -50h-311l9 50c47 0 67 13 78 70l88 454c2 12 4 23 4 31c0 31 -17 39 -54 39l10 53h311l-10 -53c-47 0 -67 -13 -78 -70l-35 -179h218l35 179c2 12 4 23 4 31c0 31 -17 39 -54 39l10 53h311
l-10 -53c-47 0 -67 -13 -78 -70l-88 -454c-2 -12 -4 -23 -4 -31c0 -31 17 -39 54 -39l-9 -50h-311l9 50c47 0 67 13 78 70z" />
    <glyph glyph-name="I" unicode="I" horiz-adv-x="371" 
d="M67 120l88 454c2 12 4 23 4 31c0 31 -17 39 -54 39l10 53h311l-10 -53c-47 0 -67 -13 -78 -70l-88 -454c-2 -12 -4 -23 -4 -31c0 -31 17 -39 54 -39l-9 -50h-311l9 50c47 0 67 13 78 70z" />
    <glyph glyph-name="J" unicode="J" horiz-adv-x="366" 
d="M63 100l92 474c2 12 4 23 4 31c0 31 -17 39 -54 39l10 53h311l-10 -53c-47 0 -67 -13 -78 -70l-94 -484c-32 -164 -131 -230 -322 -237l-14 51c112 31 133 85 155 196z" />
    <glyph glyph-name="K" unicode="K" horiz-adv-x="683" 
d="M67 120l88 454c2 12 4 23 4 31c0 31 -17 39 -54 39l10 53h311l-10 -53c-47 0 -67 -13 -78 -70l-88 -454c-2 -12 -4 -23 -4 -31c0 -31 17 -39 54 -39l-9 -50h-311l9 50c47 0 67 13 78 70zM642 588l-174 -180l123 -309c15 -36 33 -46 71 -49l-9 -50h-225l-119 340l226 252
c8 9 12 19 12 28c0 14 -10 26 -34 26l10 51h230l-10 -51c-41 -5 -64 -20 -101 -58z" />
    <glyph glyph-name="L" unicode="L" horiz-adv-x="574" 
d="M338 574l-97 -500h72c62 0 106 29 143 128h91l-53 -202h-514l9 50c47 0 67 13 78 70l88 454c2 12 4 23 4 31c0 31 -17 39 -54 39l10 53h311l-10 -53c-47 0 -67 -13 -78 -70z" />
    <glyph glyph-name="M" unicode="M" horiz-adv-x="914" 
d="M954 697l-10 -52c-71 -4 -78 -23 -85 -76l-56 -441c-2 -15 -2 -22 -2 -31c0 -34 13 -45 58 -47l-9 -50h-315l9 50c64 2 70 15 78 71l39 293c7 57 19 129 22 145h-6c-6 -16 -33 -88 -61 -146l-201 -413h-106l-34 399c-2 25 -3 51 -3 74c0 41 2 75 3 86h-6
c-3 -17 -17 -92 -33 -146l-83 -291c-5 -17 -7 -27 -7 -37c0 -27 17 -35 58 -35l-9 -50h-230l9 50c57 2 70 18 87 78l125 441c5 17 8 31 8 41c0 24 -16 32 -63 35l10 52h285l22 -316c3 -45 4 -84 4 -111c0 -19 -1 -31 -1 -37h6c3 13 21 75 50 138l150 326h297z" />
    <glyph glyph-name="N" unicode="N" horiz-adv-x="710" 
d="M555 395l35 179c2 12 4 23 4 31c0 31 -17 39 -54 39l10 53h220l-10 -53c-47 0 -67 -13 -78 -70l-111 -574h-113l-170 377c-41 90 -50 153 -50 165h-6c-2 -23 -13 -121 -22 -165l-49 -257c-2 -12 -4 -23 -4 -31c0 -31 17 -39 54 -39l-9 -50h-222l9 50c47 0 67 13 78 70
l88 454c2 12 4 23 4 31c0 31 -17 39 -54 39l10 53h243l135 -302c31 -70 35 -128 35 -140h6c1 14 9 76 21 140z" />
    <glyph glyph-name="O" unicode="O" horiz-adv-x="716" 
d="M323 -14c-187 0 -279 127 -279 292c0 201 121 431 365 431c173 0 282 -107 282 -293c0 -210 -114 -430 -368 -430zM409 629c-45 0 -71 -19 -91 -51c-60 -97 -83 -252 -83 -369c0 -90 25 -147 87 -147c46 0 73 15 97 50c57 83 80 249 80 362c0 105 -21 155 -90 155z" />
    <glyph glyph-name="P" unicode="P" horiz-adv-x="628" 
d="M277 258l-27 -138c-2 -11 -3 -21 -3 -29c0 -33 19 -41 73 -41l-9 -50h-331l9 50c47 0 67 13 78 70l88 454c2 12 4 23 4 31c0 31 -17 39 -54 39l10 53h305c152 0 238 -51 238 -191c0 -97 -45 -182 -147 -223c-45 -18 -99 -25 -162 -25h-72zM470 509c0 75 -23 108 -88 108
h-36l-53 -274h34c42 0 71 5 98 30c28 26 45 74 45 136z" />
    <glyph glyph-name="Q" unicode="Q" horiz-adv-x="716" 
d="M210 2c-110 43 -166 149 -166 278c0 201 121 429 365 429c173 0 282 -107 282 -293c0 -188 -91 -378 -291 -417c36 -13 107 -28 172 -28c32 0 55 2 83 8l-52 -128c-19 -12 -53 -17 -88 -17c-139 0 -204 130 -305 168zM409 629c-45 0 -71 -19 -91 -51
c-60 -97 -83 -252 -83 -369c0 -90 25 -147 87 -147c40 0 67 5 97 50c55 84 80 249 80 362c0 105 -21 155 -90 155z" />
    <glyph glyph-name="R" unicode="R" horiz-adv-x="675" 
d="M444 306v-4c32 -11 74 -39 94 -74c22 -38 31 -62 49 -120c12 -38 23 -58 60 -58l-9 -50h-215c-22 87 -31 121 -54 193c-21 65 -43 80 -88 87l-31 -160c-2 -12 -4 -23 -4 -31c0 -31 17 -39 54 -39l-9 -50h-311l9 50c47 0 67 13 78 70l88 454c2 12 4 23 4 31
c0 31 -17 39 -54 39l10 53h308c150 0 238 -54 238 -173c0 -127 -94 -198 -217 -218zM346 617l-49 -255h42c86 0 135 68 135 164c0 66 -25 91 -89 91h-39z" />
    <glyph glyph-name="S" unicode="S" horiz-adv-x="551" 
d="M235 -14c-133 0 -210 36 -240 63l26 143h118c-1 -97 30 -142 104 -142c60 0 107 31 107 107c0 56 -23 80 -87 107l-67 28c-76 32 -126 91 -126 186c0 144 109 231 268 231c133 0 194 -37 222 -53l-28 -147h-114c3 93 -29 130 -95 130c-61 0 -101 -37 -101 -94
c0 -50 33 -75 75 -93l72 -30c90 -37 151 -81 151 -195c0 -159 -125 -241 -285 -241z" />
    <glyph glyph-name="T" unicode="T" horiz-adv-x="634" 
d="M110 697h579l-26 -197h-87c-7 94 -12 117 -72 117h-29l-96 -497c-2 -12 -3 -22 -3 -30c0 -32 18 -40 63 -40l-9 -50h-331l9 50c57 0 77 13 88 70l96 497h-29c-66 0 -78 -31 -116 -117h-87z" />
    <glyph glyph-name="U" unicode="U" horiz-adv-x="691" 
d="M512 228l67 346c2 12 4 23 4 31c0 31 -17 39 -54 39l10 53h217l-10 -53c-47 0 -67 -13 -78 -70l-67 -346c-30 -154 -106 -242 -269 -242c-172 0 -253 69 -255 192c0 28 3 59 9 92l59 304c2 12 4 23 4 31c0 31 -17 39 -54 39l10 53h311l-10 -53c-47 0 -67 -13 -78 -70
l-62 -317c-6 -33 -9 -61 -9 -84c1 -65 35 -95 112 -95c76 0 123 48 143 150z" />
    <glyph glyph-name="V" unicode="V" horiz-adv-x="673" 
d="M357 0h-140l-93 589c-7 47 -16 50 -49 55l10 53h300l-10 -53c-50 0 -65 -22 -61 -54l41 -331c3 -25 4 -74 4 -80h6c2 5 11 30 37 83l163 328c6 12 8 22 7 30c-3 15 -18 24 -50 24l10 53h226l-10 -53c-41 -5 -56 -10 -80 -56z" />
    <glyph glyph-name="W" unicode="W" horiz-adv-x="948" 
d="M523 0l-15 282c-1 16 -1 32 -1 48c0 50 3 95 5 107h-6c-4 -15 -22 -83 -49 -144l-128 -293h-173l-32 587c-3 47 -16 52 -49 57l10 53h297l-10 -53c-45 0 -62 -17 -62 -47v-3l8 -313v-21c0 -33 -2 -68 -4 -108h6c4 14 21 79 43 132l166 413h131l19 -448
c2 -36 -2 -84 -3 -96h6c8 35 27 95 41 130l119 310c4 10 6 18 6 25c0 21 -20 26 -51 26l10 53h226l-10 -53c-41 -5 -60 -10 -80 -56l-248 -588h-172z" />
    <glyph glyph-name="X" unicode="X" horiz-adv-x="700" 
d="M636 588l-188 -207l122 -272c18 -40 31 -54 70 -59l-9 -50h-313l9 50c46 0 63 23 48 58l-66 156h-6l-121 -148c-14 -17 -20 -30 -20 -40c0 -17 15 -25 43 -26l-9 -50h-226l9 50c39 5 62 18 96 59l195 234l-107 245c-18 41 -30 51 -61 56l11 53h299l-10 -53
c-36 0 -54 -11 -54 -31c0 -6 2 -13 5 -21l57 -137h6l110 132c12 14 18 26 18 36c0 14 -13 21 -38 21l10 53h226l-10 -53c-39 -5 -61 -17 -96 -56z" />
    <glyph glyph-name="Y" unicode="Y" horiz-adv-x="643" 
d="M375 347h6l145 239c7 12 12 23 12 32c0 15 -12 26 -42 26l10 53h222l-10 -53c-41 -5 -53 -12 -82 -56l-226 -333l-26 -135c-2 -12 -3 -22 -3 -30c0 -32 18 -40 63 -40l-9 -50h-331l9 50c57 0 77 13 88 70l26 134l-95 334c-13 46 -24 51 -57 56l10 53h289l-10 -53
c-36 0 -48 -17 -48 -40c0 -6 1 -12 2 -18z" />
    <glyph glyph-name="Z" unicode="Z" horiz-adv-x="579" 
d="M618 641l-411 -567h112c77 0 107 33 145 123h88l-48 -197h-534l10 56l415 569h-95c-67 0 -92 -35 -127 -113h-92l44 185h504z" />
    <glyph glyph-name="bracketleft" unicode="[" horiz-adv-x="382" 
d="M281 -155h-271l181 928h271l-12 -62h-106l-157 -804h106z" />
    <glyph glyph-name="backslash" unicode="\" horiz-adv-x="438" 
d="M210 761l173 -910h-100l-173 910h100z" />
    <glyph glyph-name="bracketright" unicode="]" horiz-adv-x="382" 
d="M116 773h271l-181 -928h-271l12 62h106l157 804h-106z" />
    <glyph glyph-name="asciicircum" unicode="^" horiz-adv-x="539" 
d="M504 310h-112l-71 276l-174 -276h-117l260 398h108z" />
    <glyph glyph-name="underscore" unicode="_" horiz-adv-x="496" 
d="M442 -125h-500v83h500v-83z" />
    <glyph glyph-name="grave" unicode="`" horiz-adv-x="440" 
d="M360 590l-28 -36l-252 97l88 139z" />
    <glyph glyph-name="a" unicode="a" horiz-adv-x="593" 
d="M338 196l56 237c-11 11 -24 14 -43 14c-84 0 -157 -159 -157 -285c0 -49 11 -69 33 -69c33 0 72 44 111 103zM322 93c-42 -66 -99 -107 -173 -107c-81 0 -129 52 -129 148c0 203 151 395 324 395c60 0 91 -26 100 -59c11 20 26 35 41 46h107c-13 -30 -28 -73 -41 -128
l-55 -243c-4 -17 -7 -30 -7 -41c0 -23 12 -32 44 -32c9 0 23 1 31 2l4 -45c-44 -25 -90 -38 -144 -38c-48 0 -77 15 -91 45c-7 15 -11 34 -11 57z" />
    <glyph glyph-name="b" unicode="b" horiz-adv-x="595" 
d="M249 337l-53 -253c7 -12 20 -19 43 -19c101 0 150 164 150 274c0 54 -19 67 -45 67c-29 0 -65 -25 -95 -69zM298 561l-32 -144c42 66 99 112 175 112c79 0 134 -59 134 -177c0 -198 -126 -366 -300 -366c-74 0 -113 27 -130 63c-5 -17 -22 -40 -32 -49h-112
c15 37 27 90 39 144l89 421c4 17 5 31 5 42c0 34 -16 45 -55 45l12 52l202 26h13c3 -10 7 -27 7 -53c0 -28 -4 -67 -15 -116z" />
    <glyph glyph-name="c" unicode="c" horiz-adv-x="483" 
d="M340 529c77 0 129 -22 153 -42l-21 -116h-114c2 54 1 87 -37 87c-67 0 -116 -127 -116 -268c0 -70 27 -104 83 -104c53 0 79 17 115 42l35 -50c-39 -48 -97 -92 -209 -92c-127 0 -199 78 -199 213c0 156 111 330 310 330z" />
    <glyph glyph-name="d" unicode="d" horiz-adv-x="613" 
d="M418 512l11 53c5 22 5 31 5 42c0 34 -16 45 -55 45l12 52l202 26h13c3 -10 7 -27 7 -53c0 -28 -4 -67 -15 -116l-90 -416c-4 -17 -6 -30 -6 -40c0 -24 11 -33 43 -33c9 0 19 1 31 2l4 -45c-44 -25 -90 -38 -144 -38c-46 0 -75 15 -90 43c-8 16 -12 35 -12 59
c-42 -66 -109 -107 -183 -107c-81 0 -131 52 -131 148c0 203 156 395 329 395c30 0 53 -6 69 -17zM347 196l52 237c-11 11 -24 14 -43 14c-84 0 -162 -151 -162 -285c0 -49 13 -69 35 -69c38 0 79 44 118 103z" />
    <glyph glyph-name="e" unicode="e" horiz-adv-x="531" 
d="M521 386c0 -144 -157 -171 -294 -171h-23c-2 -10 -3 -27 -3 -43c0 -50 26 -85 88 -85c55 0 99 13 146 53l33 -46c-61 -72 -141 -108 -231 -108c-140 0 -207 74 -207 200c0 190 136 343 306 343c108 0 185 -37 185 -143zM366 410c0 30 -16 47 -41 47
c-47 0 -89 -67 -110 -174c14 0 28 1 41 3c67 10 110 48 110 124z" />
    <glyph glyph-name="f" unicode="f" horiz-adv-x="372" 
d="M285 436l-95 -473c-22 -108 -100 -151 -195 -151c-48 0 -72 9 -90 18v41c84 5 103 27 118 106l90 459h-63l15 57l66 22l14 59c25 105 115 160 220 160c54 0 112 -9 147 -26l-18 -101h-102c0 39 -7 55 -32 55c-16 0 -29 -9 -37 -46l-21 -100h123l-34 -80h-106z" />
    <glyph glyph-name="g" unicode="g" horiz-adv-x="541" 
d="M575 546l36 -108c-29 -18 -54 -20 -82 -20c-22 0 -48 5 -66 16c15 -13 35 -36 35 -85c0 -78 -59 -153 -241 -153c-9 0 -23 1 -28 1c-37 -9 -50 -19 -50 -33c0 -10 4 -17 21 -19l130 -17c84 -11 148 -38 148 -129c0 -151 -140 -202 -295 -202c-146 0 -233 23 -233 100
c0 37 27 62 54 74l122 3c-12 -18 -20 -35 -20 -57c0 -42 33 -53 85 -53c82 0 127 25 127 77c0 38 -31 46 -87 52c-69 7 -117 12 -130 14c-54 8 -77 32 -77 79c0 68 55 106 134 124c-65 15 -110 54 -110 131c0 117 98 188 244 188c72 0 133 -26 176 -26c40 0 76 16 107 43z
M262 262c56 0 78 61 78 136c0 45 -22 63 -49 63c-57 0 -78 -68 -78 -136c0 -46 25 -63 49 -63z" />
    <glyph glyph-name="h" unicode="h" horiz-adv-x="600" 
d="M334 149l48 194c2 7 3 14 3 20c0 18 -9 28 -29 28c-31 0 -70 -31 -110 -88l-67 -303h-169l123 565c4 17 5 32 5 43c0 33 -16 44 -55 44l12 52l202 26h13c3 -9 6 -27 6 -52c0 -28 -3 -67 -14 -117l-35 -161c49 79 118 129 192 129c71 0 105 -45 105 -106
c0 -15 -2 -30 -6 -46l-55 -232c-4 -17 -7 -32 -7 -41c0 -22 12 -32 44 -32c9 0 19 1 31 2l4 -45c-44 -25 -90 -38 -144 -38c-72 0 -106 34 -106 96c0 18 3 39 9 62z" />
    <glyph glyph-name="i" unicode="i" horiz-adv-x="313" 
d="M271 386l-57 -241c-4 -17 -7 -31 -7 -41c0 -23 12 -32 44 -32c9 0 19 1 31 2l4 -45c-44 -25 -90 -38 -144 -38c-73 0 -105 35 -105 97c0 18 2 34 8 61l51 208c4 15 6 29 6 38c0 35 -21 49 -67 49l9 42c34 18 83 37 139 37c61 0 95 -26 95 -85c0 -15 -3 -33 -7 -52z
M324 660c0 -51 -43 -92 -95 -92c-51 0 -94 41 -94 92s43 93 96 93c52 0 93 -42 93 -93z" />
    <glyph glyph-name="j" unicode="j" horiz-adv-x="292" 
d="M269 386l-80 -390c-25 -121 -101 -174 -278 -199l-16 61c87 25 110 52 131 157l68 342c3 15 4 27 4 37c0 36 -18 50 -65 50l9 42c34 18 83 37 139 37c62 0 94 -26 94 -86c0 -15 -2 -32 -6 -51zM322 660c0 -51 -43 -92 -95 -92c-51 0 -94 41 -94 92s43 93 96 93
c52 0 93 -42 93 -93z" />
    <glyph glyph-name="k" unicode="k" horiz-adv-x="568" 
d="M393 328l60 -189c17 -54 31 -70 66 -70c8 0 18 1 26 2l4 -42c-40 -26 -91 -38 -132 -38c-72 0 -103 23 -124 103l-47 175l191 247h161l-9 -43c-43 0 -105 -42 -156 -100zM179 0h-169l121 565c4 17 5 31 5 42c0 34 -16 45 -55 45l12 52l202 26h13c3 -10 6 -24 6 -53
c0 -32 -3 -67 -14 -116z" />
    <glyph glyph-name="l" unicode="l" horiz-adv-x="312" 
d="M38 149l90 416c4 17 5 31 5 42c0 34 -16 45 -55 45l12 52l202 26h13c3 -10 7 -27 7 -53c0 -23 -4 -67 -15 -116l-90 -416c-4 -17 -6 -30 -6 -40c0 -24 10 -33 45 -33c8 0 20 1 29 2l4 -45c-44 -25 -90 -38 -144 -38c-73 0 -104 34 -104 97c0 18 2 39 7 61z" />
    <glyph glyph-name="m" unicode="m" horiz-adv-x="889" 
d="M623 149l47 190c2 8 3 14 3 20c0 17 -9 28 -29 28c-24 0 -61 -31 -99 -84l-63 -303h-169l71 339c1 4 3 14 3 20c0 17 -9 28 -29 28c-24 0 -61 -31 -99 -84l-65 -303h-169l81 376c4 17 4 30 -1 41c-8 17 -27 26 -63 27l9 42c38 19 83 37 138 37c53 0 84 -28 84 -102
c0 -8 0 -17 -1 -27c52 87 110 135 185 135c67 0 105 -51 105 -112c0 -7 -1 -15 -2 -22c50 77 113 134 188 134c71 0 105 -45 105 -106c0 -14 -2 -30 -6 -46l-55 -232c-4 -17 -7 -31 -7 -41c0 -23 12 -32 44 -32c9 0 19 1 31 2l4 -45c-44 -25 -90 -38 -144 -38
c-72 0 -106 34 -106 96c0 18 3 39 9 62z" />
    <glyph glyph-name="n" unicode="n" horiz-adv-x="613" 
d="M347 149l48 194c2 7 3 14 3 20c0 17 -9 28 -29 28c-31 0 -70 -31 -110 -88l-65 -303h-169l81 376c2 8 2 16 2 22c0 30 -18 45 -66 46l9 42c38 19 83 37 138 37c53 0 84 -28 84 -102c0 -8 0 -17 -1 -27c52 87 120 135 200 135c71 0 105 -45 105 -106c0 -15 -2 -30 -6 -46
l-55 -232c-4 -17 -7 -31 -7 -41c0 -24 12 -32 44 -32c9 0 21 1 31 2l4 -45c-44 -25 -90 -38 -144 -38c-72 0 -106 34 -106 96c0 18 3 39 9 62z" />
    <glyph glyph-name="o" unicode="o" horiz-adv-x="567" 
d="M546 316c0 -168 -89 -330 -300 -330c-133 0 -217 82 -217 211c0 157 90 332 296 332c125 0 221 -62 221 -213zM251 56c26 0 54 9 76 69c21 56 44 167 44 256c0 53 -15 77 -50 77c-32 0 -54 -15 -73 -68c-24 -69 -45 -183 -45 -269c0 -44 15 -65 48 -65z" />
    <glyph glyph-name="p" unicode="p" horiz-adv-x="615" 
d="M270 337l-55 -265c7 -12 18 -19 41 -19c101 0 153 176 153 286c0 54 -19 67 -45 67c-29 0 -64 -25 -94 -69zM281 420v-6c42 66 104 115 180 115c79 0 134 -59 134 -158c0 -217 -145 -385 -331 -385c-32 0 -51 3 -66 9l-16 -71c-4 -17 -5 -27 -5 -37c0 -26 14 -33 48 -33
l-12 -50h-286l12 50c47 0 59 13 71 70l96 452c3 16 3 30 -1 40c-7 18 -26 27 -63 28l9 42c38 19 83 37 138 37c54 0 92 -27 92 -103z" />
    <glyph glyph-name="q" unicode="q" horiz-adv-x="595" 
d="M281 -76l46 169c-42 -66 -102 -107 -176 -107c-81 0 -131 52 -131 148c0 203 159 395 332 395c60 0 91 -26 100 -59c11 20 26 35 41 46h107c-13 -30 -28 -73 -41 -128l-106 -464c-3 -15 -5 -27 -5 -37c0 -26 14 -33 48 -33l-12 -50h-288l12 50c47 0 58 14 73 70zM346 196
l56 237c-11 11 -24 14 -43 14c-87 0 -165 -151 -165 -285c0 -49 13 -69 35 -69c38 0 78 44 117 103z" />
    <glyph glyph-name="r" unicode="r" horiz-adv-x="445" 
d="M484 517l-42 -172c-26 10 -42 13 -66 13c-65 0 -110 -19 -138 -151l-44 -207h-169l81 376c4 20 3 35 -4 46c-9 14 -28 21 -60 22l9 42c38 19 83 37 138 37c52 0 79 -37 79 -112c0 -8 -1 -19 -2 -31c37 86 94 149 164 149c22 0 35 -2 54 -12z" />
    <glyph glyph-name="s" unicode="s" horiz-adv-x="470" 
d="M181 -14c-96 0 -152 25 -181 47l18 111h103c0 -53 22 -86 75 -86c45 0 84 11 84 61c0 33 -22 47 -61 59l-40 12c-73 22 -120 64 -120 149c0 125 98 190 227 190c86 0 140 -22 175 -39l-19 -113h-100c0 51 -17 83 -69 83c-40 0 -79 -21 -79 -63c0 -27 24 -40 59 -50
l40 -12c93 -28 134 -72 134 -155c0 -122 -89 -194 -246 -194z" />
    <glyph glyph-name="t" unicode="t" horiz-adv-x="372" 
d="M412 516l-31 -80h-106l-56 -260c-4 -20 -6 -35 -6 -49c0 -35 13 -53 50 -53c18 0 46 4 68 12l8 -52c-43 -34 -105 -48 -161 -48c-95 0 -136 46 -136 109c0 25 3 48 10 81l54 260h-59l12 57l71 23c19 50 48 110 92 142l117 8c-15 -35 -33 -93 -46 -150h119z" />
    <glyph glyph-name="u" unicode="u" horiz-adv-x="591" 
d="M323 88c-45 -69 -104 -102 -179 -102c-74 0 -111 40 -111 107c0 17 2 36 7 56l51 208c4 15 6 29 6 38c0 35 -21 49 -67 49l9 42c34 18 83 37 139 37c61 0 95 -26 95 -86c0 -14 -3 -32 -7 -51l-51 -210c-4 -15 -5 -27 -5 -37c0 -25 11 -34 31 -34c33 0 68 37 101 89
l68 322h166l-77 -371c-4 -17 -6 -31 -6 -40c0 -24 12 -33 45 -33c5 0 20 1 29 2l4 -45c-44 -25 -90 -38 -144 -38c-43 0 -72 11 -88 34c-11 15 -16 36 -16 63z" />
    <glyph glyph-name="v" unicode="v" horiz-adv-x="505" 
d="M384 523l146 -13v-47l-278 -463h-133l-41 362c-7 66 -9 85 -73 85l8 42c27 17 84 34 128 34c54 0 85 -26 92 -91l17 -172c3 -29 4 -52 4 -71c0 -25 -1 -36 -3 -51h6l58 127c47 101 67 180 69 258z" />
    <glyph glyph-name="w" unicode="w" horiz-adv-x="792" 
d="M394 324l-147 -324h-138l-31 362c-6 65 -9 85 -73 85l8 42c27 17 84 34 128 34c54 0 83 -26 90 -91l15 -151c2 -19 3 -38 3 -52c-1 -36 -4 -60 -8 -72h6l148 359h130l17 -234c3 -41 3 -66 3 -87s-1 -34 -1 -38h6c20 41 51 101 61 124c47 105 58 164 60 242l146 -13v-47
l-278 -463h-129l-15 203c-1 17 -2 32 -2 46c0 34 4 67 5 75h-4z" />
    <glyph glyph-name="x" unicode="x" horiz-adv-x="537" 
d="M191 251l-51 139c-21 56 -34 64 -88 64l7 42c27 13 73 27 130 27c60 0 83 -17 98 -63l33 -102l105 158h152l-9 -45c-50 -5 -91 -38 -129 -84l-91 -111l51 -148c16 -46 26 -62 66 -62c5 0 16 1 27 2l7 -47c-31 -14 -93 -30 -137 -30c-79 0 -98 25 -120 101l-23 79
l-112 -171h-147l9 51c51 9 80 28 129 88z" />
    <glyph glyph-name="y" unicode="y" horiz-adv-x="505" 
d="M188 18l-75 -3c-2 58 -6 122 -17 203l-22 160c-9 66 -25 69 -69 69l8 43c27 13 75 33 128 33c69 0 88 -41 99 -135l13 -107c4 -29 5 -56 5 -79c0 -53 -7 -89 -9 -99h6l38 85c82 184 91 263 91 335l146 -13v-46l-255 -473c-68 -125 -154 -180 -259 -196l-71 115
c99 15 203 29 243 108z" />
    <glyph glyph-name="z" unicode="z" horiz-adv-x="500" 
d="M509 441l-339 -301c24 4 45 6 63 6c49 0 79 -11 104 -11c57 0 74 9 98 63l44 -13c-22 -160 -84 -199 -168 -199c-97 0 -109 48 -183 48c-32 0 -54 -9 -76 -34h-62l15 74l325 293c-70 2 -92 8 -126 8c-39 0 -77 -6 -93 -62l-51 10c6 127 64 200 167 200
c84 0 128 -47 171 -47c27 0 38 8 71 40h56z" />
    <glyph glyph-name="braceleft" unicode="{" horiz-adv-x="392" 
d="M341 614l-33 -167c-20 -106 -92 -131 -123 -136l-1 -4c25 -4 75 -23 75 -96c0 -11 -1 -24 -4 -38l-33 -169c-3 -14 -4 -28 -4 -41c0 -36 14 -63 64 -63h20l-11 -55h-101c-91 0 -124 43 -124 106c0 14 1 28 4 43l38 196c2 10 3 19 3 27c0 46 -31 64 -91 64l11 55
c70 0 111 24 124 91l38 197c17 86 67 149 178 149h101l-11 -55h-20c-68 0 -90 -50 -100 -104z" />
    <glyph glyph-name="bar" unicode="|" horiz-adv-x="265" 
d="M109 -149h-99l176 910h99z" />
    <glyph glyph-name="braceright" unicode="}" horiz-adv-x="402" 
d="M66 4l33 167c20 106 92 131 123 136l1 4c-25 4 -75 23 -75 96c0 11 1 24 4 38l33 169c3 14 4 28 4 41c0 36 -14 63 -64 63h-20l11 55h101c91 0 124 -43 124 -106c0 -14 -1 -28 -4 -43l-38 -196c-2 -10 -3 -19 -3 -27c0 -46 31 -64 91 -64l-11 -55
c-70 0 -111 -24 -124 -91l-38 -197c-17 -86 -67 -149 -178 -149h-101l11 55h20c68 0 90 50 100 104z" />
    <glyph glyph-name="asciitilde" unicode="~" horiz-adv-x="587" 
d="M384 352c29 0 67 9 85 47l38 -17c-18 -79 -72 -150 -129 -150c-58 0 -135 29 -179 29c-31 0 -64 -12 -83 -49l-36 16c10 79 66 156 125 156c58 0 129 -32 179 -32z" />
    <glyph glyph-name="uni00A0" unicode="&#xa0;" horiz-adv-x="225" 
 />
    <glyph glyph-name="exclamdown" unicode="&#xa1;" horiz-adv-x="299" 
d="M-60 -188l153 476h110l-45 -459zM64 426c0 57 47 103 103 103s102 -46 102 -103c0 -55 -46 -101 -102 -101s-103 46 -103 101z" />
    <glyph glyph-name="cent" unicode="&#xa2;" horiz-adv-x="535" 
d="M248 -101h-59l17 88c-117 9 -186 85 -186 212c0 148 106 311 291 328l16 81h59l-16 -80c67 -5 123 -29 145 -46l-22 -116h-104v11c0 50 -7 75 -32 83l-74 -380c53 1 92 19 134 50l34 -48c-36 -43 -93 -85 -186 -94zM183 190c0 -46 16 -78 44 -96l70 362
c-62 -28 -114 -136 -114 -266z" />
    <glyph glyph-name="sterling" unicode="&#xa3;" horiz-adv-x="609" 
d="M250 74h72c62 0 106 29 143 128h91l-53 -202h-533l9 50c57 0 87 13 98 70l37 190h-80l13 66h80l17 92c28 153 145 215 290 215c85 0 143 -23 175 -52l-23 -120h-121v11c0 63 -9 91 -48 91c-48 0 -71 -43 -84 -110l-24 -127h172l-13 -66h-172z" />
    <glyph glyph-name="currency" unicode="&#xa4;" horiz-adv-x="498" 
d="M210 102c-26 0 -50 3 -71 11l-67 -82l-52 39l65 77c-23 24 -35 57 -35 98c0 78 40 148 94 186l-35 75l67 40l36 -79c23 8 44 10 71 10c25 0 48 -4 68 -11l65 78l52 -40l-61 -73c23 -25 36 -57 36 -98c0 -82 -44 -154 -99 -190l34 -75l-67 -39l-37 80
c-22 -6 -40 -7 -64 -7zM268 406c-73 0 -106 -72 -106 -156c0 -51 18 -82 59 -82c86 0 107 105 107 164c0 47 -19 74 -60 74z" />
    <glyph glyph-name="yen" unicode="&#xa5;" horiz-adv-x="642" 
d="M359 347h6l145 239c7 12 12 23 12 32c0 15 -12 26 -42 26l10 53h222l-10 -53c-41 -5 -53 -12 -82 -56l-146 -215h122l-12 -61h-152l-43 -64h183l-12 -61h-179l-13 -67c-2 -12 -3 -22 -3 -30c0 -32 18 -40 63 -40l-9 -50h-331l9 50c57 0 77 13 88 70l13 67h-163l12 61h166
l-19 64h-135l12 61h106l-61 215c-12 45 -24 51 -57 56l10 53h289l-10 -53c-36 0 -48 -17 -48 -40c0 -6 0 -11 2 -18z" />
    <glyph glyph-name="brokenbar" unicode="&#xa6;" horiz-adv-x="266" 
d="M208 356h-99l78 401h99zM109 -150h-99l78 401h99z" />
    <glyph glyph-name="section" unicode="&#xa7;" horiz-adv-x="503" 
d="M12 259c0 91 58 148 149 176c-39 29 -61 70 -61 131c0 114 94 178 213 178c96 0 150 -22 185 -39l-19 -113h-100c0 48 -17 82 -69 82c-40 0 -77 -20 -77 -62c0 -27 22 -46 57 -58l73 -30c91 -37 128 -88 128 -163c0 -96 -59 -149 -148 -176c50 -31 71 -72 71 -135
c0 -102 -84 -183 -234 -183c-103 0 -159 25 -188 47l18 111h103c0 -53 20 -87 75 -87c45 0 81 15 81 65c0 28 -13 44 -53 60l-70 28c-86 34 -134 85 -134 168zM145 318c0 -34 27 -61 62 -75l66 -26c40 12 71 37 71 80c0 47 -23 66 -53 79l-63 26c-52 -15 -83 -47 -83 -84z
" />
    <glyph glyph-name="dieresis" unicode="&#xa8;" horiz-adv-x="572" 
d="M263 650c0 -49 -41 -89 -92 -89c-50 0 -91 40 -91 89c0 50 42 90 93 90s90 -40 90 -90zM492 650c0 -49 -41 -89 -92 -89c-50 0 -91 40 -91 89c0 50 42 90 93 90s90 -40 90 -90z" />
    <glyph glyph-name="copyright" unicode="&#xa9;" horiz-adv-x="802" 
d="M354 358c0 -92 10 -156 71 -156c35 0 51 16 57 60h81v-80c-27 -15 -73 -32 -139 -32c-142 0 -211 67 -211 198c0 133 67 203 208 203c66 0 113 -17 139 -32v-80h-86c-4 40 -13 68 -51 68c-62 0 -69 -56 -69 -149zM411 31c168 0 301 122 301 312c0 194 -133 314 -301 314
s-301 -120 -301 -314c0 -190 133 -312 301 -312zM411 -12c-202 0 -356 140 -356 356c0 214 160 357 356 357s356 -143 356 -357c0 -216 -154 -356 -356 -356z" />
    <glyph glyph-name="ordfeminine" unicode="&#xaa;" horiz-adv-x="493" 
d="M319 494l41 177c-8 9 -18 11 -31 11c-61 0 -114 -119 -114 -213c0 -37 8 -51 24 -51c24 0 52 32 80 76zM306 418c-31 -50 -76 -80 -135 -80c-63 0 -101 38 -101 115c0 158 117 290 253 290c47 0 68 -19 75 -44c8 15 19 26 30 34h95c-10 -22 -22 -57 -31 -95l-41 -182
c-3 -13 -5 -22 -5 -30c0 -18 9 -24 33 -24c7 0 14 0 23 1l3 -33c-33 -19 -74 -29 -114 -29c-32 0 -56 10 -70 28c-10 12 -15 29 -15 49z" />
    <glyph glyph-name="guillemotleft" unicode="&#xab;" horiz-adv-x="639" 
d="M349 441l-146 -187l78 -191l-56 -43l-195 235l273 234zM609 441l-146 -187l78 -191l-56 -43l-195 235l273 234z" />
    <glyph glyph-name="logicalnot" unicode="&#xac;" horiz-adv-x="514" 
d="M50 224l16 81h398l-46 -237h-89l30 156h-309z" />
    <glyph glyph-name="uni00AD" unicode="&#xad;" horiz-adv-x="371" 
d="M308 217h-273l28 133h273z" />
    <glyph glyph-name="registered" unicode="&#xae;" horiz-adv-x="802" 
d="M421 193v-37h-187v37c39 0 39 13 39 55v203c0 42 0 55 -39 55v39h186c90 0 150 -24 150 -106c0 -80 -46 -98 -108 -102v-3c27 -4 50 -13 64 -40c10 -17 21 -36 35 -68c13 -29 16 -33 46 -33v-37h-140c-12 36 -28 70 -39 98c-23 59 -27 68 -45 69v-75c0 -42 0 -55 38 -55z
M455 434c0 49 -13 61 -59 61h-13v-131h22c37 0 50 17 50 70zM411 31c168 0 301 122 301 312c0 194 -133 314 -301 314s-301 -120 -301 -314c0 -190 133 -312 301 -312zM411 -12c-202 0 -356 140 -356 356c0 214 160 357 356 357s356 -143 356 -357
c0 -216 -154 -356 -356 -356z" />
    <glyph glyph-name="macron" unicode="&#xaf;" horiz-adv-x="489" 
d="M391 605h-311l18 87h311z" />
    <glyph glyph-name="degree" unicode="&#xb0;" horiz-adv-x="371" 
d="M401 549c0 -99 -66 -192 -182 -192c-90 0 -149 54 -149 144c0 119 72 195 180 195c93 0 151 -55 151 -147zM226 429c60 0 87 53 87 120c0 56 -24 76 -68 76c-55 0 -87 -46 -87 -117c0 -59 23 -79 68 -79z" />
    <glyph glyph-name="plusminus" unicode="&#xb1;" horiz-adv-x="570" 
d="M302 507h89l-26 -136h155l-16 -81h-155l-28 -145h-89l28 145h-158l16 81h158zM50 24l16 81h402l-16 -81h-402z" />
    <glyph glyph-name="twosuperior" unicode="&#xb2;" horiz-adv-x="366" 
d="M238 665c81 0 140 -39 140 -110c0 -104 -80 -145 -195 -191l-52 -21h226l-30 -93h-307l9 80l91 57c80 50 122 86 122 142c0 34 -23 51 -63 51c-30 0 -65 -10 -92 -33l-26 40c41 45 102 78 177 78z" />
    <glyph glyph-name="threesuperior" unicode="&#xb3;" horiz-adv-x="342" 
d="M168 596c-28 0 -47 -9 -74 -29l-23 37c32 37 85 61 146 61c74 0 125 -34 125 -91c0 -65 -48 -102 -116 -110c65 -2 107 -41 107 -91c0 -110 -121 -143 -234 -143c-41 0 -73 7 -92 16l-7 48c16 -4 47 -8 63 -8c75 0 132 22 132 91c0 39 -20 57 -56 57c-16 0 -23 -1 -34 -2
l10 58c9 -1 19 -1 30 -1c49 0 73 23 73 63c0 30 -22 44 -50 44z" />
    <glyph glyph-name="acute" unicode="&#xb4;" horiz-adv-x="440" 
d="M108 554l-28 36l192 200l88 -139z" />
    <glyph glyph-name="mu" unicode="&#xb5;" horiz-adv-x="605" 
d="M581 74l4 -45c-44 -25 -90 -38 -144 -38c-62 0 -85 26 -90 76c-1 8 -1 17 -1 26c-28 -70 -76 -106 -126 -106c-36 0 -52 9 -64 38l-4 -1c8 -27 13 -55 13 -83c0 -25 -4 -50 -11 -75l-14 -48l-174 -26v34c23 53 38 119 54 188l81 343c4 15 6 29 6 38c0 35 -21 49 -67 49
l9 42c34 18 83 37 139 37c61 0 95 -26 95 -86c0 -14 -3 -32 -7 -51l-51 -210c-4 -15 -6 -27 -6 -37c0 -25 12 -34 32 -34c33 0 68 37 101 89l68 322h166l-76 -366c-4 -19 -7 -36 -7 -45c0 -24 12 -33 45 -33c5 0 20 1 29 2z" />
    <glyph glyph-name="paragraph" unicode="&#xb6;" horiz-adv-x="693" 
d="M633 570l-133 -687h-80l145 747h-80l-145 -747h-80l76 392h-85c-124 0 -191 57 -191 163c0 158 86 259 263 259h415l-10 -51c-67 -2 -84 -19 -95 -76zM369 630c-80 0 -119 -77 -119 -198c0 -57 17 -89 63 -89h36l56 287h-36z" />
    <glyph glyph-name="periodcentered" unicode="&#xb7;" horiz-adv-x="295" 
d="M255 294c0 -57 -47 -103 -103 -103s-102 46 -102 103c0 55 46 101 102 101s103 -46 103 -101z" />
    <glyph glyph-name="cedilla" unicode="&#xb8;" horiz-adv-x="392" 
d="M312 -121c0 -62 -49 -85 -126 -85c-50 0 -87 12 -106 25l17 42c22 -14 46 -19 68 -19s34 7 34 25c0 22 -21 30 -55 31l1 21l44 100l48 -6l-26 -55c66 -4 101 -30 101 -79z" />
    <glyph glyph-name="onesuperior" unicode="&#xb9;" horiz-adv-x="335" 
d="M327 657l-67 -312c-2 -11 -2 -13 -2 -18c0 -23 14 -34 64 -37l-7 -40h-287l7 40c71 7 80 18 88 55l47 219c-23 -15 -58 -26 -87 -30l-12 47l160 76h96z" />
    <glyph glyph-name="ordmasculine" unicode="&#xba;" horiz-adv-x="461" 
d="M481 584c0 -126 -70 -247 -235 -247c-105 0 -171 61 -171 158c0 118 70 249 232 249c99 0 174 -46 174 -160zM250 389c19 0 39 7 55 52c15 42 33 125 33 192c0 40 -10 58 -35 58c-23 0 -39 -11 -53 -51c-17 -52 -34 -137 -34 -202c0 -33 11 -49 34 -49z" />
    <glyph glyph-name="guillemotright" unicode="&#xbb;" horiz-adv-x="639" 
d="M30 68l146 187l-78 191l56 43l195 -235l-273 -234zM290 68l146 187l-78 191l56 43l195 -235l-273 -234z" />
    <glyph glyph-name="onequarter" unicode="&#xbc;" horiz-adv-x="1001" 
d="M842 730l-608 -853h-82l610 853h80zM767 -23l23 112h-202l11 56l191 262h121l-214 -256h105c14 65 40 117 75 150l85 8l-34 -158h52l-12 -62h-52l-17 -101zM327 657l-67 -312c-2 -11 -2 -13 -2 -18c0 -23 14 -34 64 -37l-7 -40h-287l7 40c71 7 80 18 88 55l47 219
c-23 -15 -58 -26 -87 -30l-12 47l160 76h96z" />
    <glyph glyph-name="onehalf" unicode="&#xbd;" horiz-adv-x="1034" 
d="M832 730l-608 -853h-82l610 853h80zM846 415c81 0 140 -39 140 -110c0 -104 -80 -145 -195 -191l-52 -21h226l-30 -93h-307l9 80l91 57c80 50 122 86 122 142c0 34 -23 51 -63 51c-30 0 -65 -10 -92 -33l-26 40c41 45 102 78 177 78zM327 657l-67 -312
c-2 -11 -2 -13 -2 -18c0 -23 14 -34 64 -37l-7 -40h-287l7 40c71 7 80 18 88 55l47 219c-23 -15 -58 -26 -87 -30l-12 47l160 76h96z" />
    <glyph glyph-name="threequarters" unicode="&#xbe;" horiz-adv-x="972" 
d="M168 596c-28 0 -47 -9 -74 -29l-23 37c32 37 85 61 146 61c74 0 125 -34 125 -91c0 -65 -48 -102 -116 -110c65 -2 107 -41 107 -91c0 -110 -121 -143 -234 -143c-41 0 -73 7 -92 16l-7 48c16 -4 47 -8 63 -8c75 0 132 22 132 91c0 39 -20 57 -56 57c-16 0 -23 -1 -34 -2
l10 58c9 -1 19 -1 30 -1c49 0 73 23 73 63c0 30 -22 44 -50 44zM808 730l-608 -853h-82l610 853h80zM718 -23l23 112h-202l11 56l191 262h121l-214 -256h105c14 65 40 117 75 150l85 8l-34 -158h52l-12 -62h-52l-17 -101z" />
    <glyph glyph-name="questiondown" unicode="&#xbf;" horiz-adv-x="494" 
d="M201 426c0 57 47 103 103 103s102 -46 102 -103c0 -55 -46 -101 -102 -101s-103 46 -103 101zM225 -114c51 0 63 33 81 98h118l-28 -135c-55 -28 -118 -42 -193 -42c-133 0 -208 47 -208 146c0 104 79 158 144 190c83 42 119 63 119 131c0 5 -1 11 -1 17h75
c9 -11 19 -32 19 -59c0 -72 -58 -123 -109 -161c-44 -33 -70 -63 -70 -126c0 -36 14 -59 53 -59z" />
    <glyph glyph-name="Agrave" unicode="&#xc0;" horiz-adv-x="650" 
d="M379 98l-10 77h-207l-32 -68c-5 -12 -8 -21 -8 -29c0 -17 14 -26 51 -28l-9 -50h-224l9 50c41 5 57 13 81 59l304 588h138l100 -588c8 -46 15 -54 48 -59l-9 -50h-304l9 50c52 2 64 13 64 35c0 4 0 5 -1 13zM286 435l-84 -175h155l-22 170c-6 43 -6 64 -6 88h-6
c-8 -20 -17 -41 -37 -83zM529 760l-25 -39l-260 73l74 146z" />
    <glyph glyph-name="Aacute" unicode="&#xc1;" horiz-adv-x="650" 
d="M379 98l-10 77h-207l-32 -68c-5 -12 -8 -21 -8 -29c0 -17 14 -26 51 -28l-9 -50h-224l9 50c41 5 57 13 81 59l304 588h138l100 -588c8 -46 15 -54 48 -59l-9 -50h-304l9 50c52 2 64 13 64 35c0 4 0 5 -1 13zM286 435l-84 -175h155l-22 170c-6 43 -6 64 -6 88h-6
c-8 -20 -17 -41 -37 -83zM309 721l-25 39l211 180l74 -146z" />
    <glyph glyph-name="Acircumflex" unicode="&#xc2;" horiz-adv-x="650" 
d="M379 98l-10 77h-207l-32 -68c-5 -12 -8 -21 -8 -29c0 -17 14 -26 51 -28l-9 -50h-224l9 50c41 5 57 13 81 59l304 588h138l100 -588c8 -46 15 -54 48 -59l-9 -50h-304l9 50c52 2 64 13 64 35c0 4 0 5 -1 13zM286 435l-84 -175h155l-22 170c-6 43 -6 64 -6 88h-6
c-8 -20 -17 -41 -37 -83zM559 731l-139 77l-170 -75l-22 38l218 183l139 -189z" />
    <glyph glyph-name="Atilde" unicode="&#xc3;" horiz-adv-x="650" 
d="M379 98l-10 77h-207l-32 -68c-5 -12 -8 -21 -8 -29c0 -17 14 -26 51 -28l-9 -50h-224l9 50c41 5 57 13 81 59l304 588h138l100 -588c8 -46 15 -54 48 -59l-9 -50h-304l9 50c52 2 64 13 64 35c0 4 0 5 -1 13zM286 435l-84 -175h155l-22 170c-6 43 -6 64 -6 88h-6
c-8 -20 -17 -41 -37 -83zM488 873c29 0 57 9 75 47l38 -17c-18 -79 -62 -143 -119 -143c-58 0 -95 32 -139 32c-31 0 -54 -12 -73 -49l-36 16c10 79 56 149 115 149c58 0 89 -35 139 -35z" />
    <glyph glyph-name="Adieresis" unicode="&#xc4;" horiz-adv-x="650" 
d="M379 98l-10 77h-207l-32 -68c-5 -12 -8 -21 -8 -29c0 -17 14 -26 51 -28l-9 -50h-224l9 50c41 5 57 13 81 59l304 588h138l100 -588c8 -46 15 -54 48 -59l-9 -50h-304l9 50c52 2 64 13 64 35c0 4 0 5 -1 13zM286 435l-84 -175h155l-22 170c-6 43 -6 64 -6 88h-6
c-8 -20 -17 -41 -37 -83zM393 830c0 -49 -41 -89 -92 -89c-50 0 -91 40 -91 89c0 50 42 90 93 90s90 -40 90 -90zM622 830c0 -49 -41 -89 -92 -89c-50 0 -91 40 -91 89c0 50 42 90 93 90s90 -40 90 -90z" />
    <glyph glyph-name="Aring" unicode="&#xc5;" horiz-adv-x="650" 
d="M379 98l-10 77h-207l-32 -68c-5 -12 -8 -21 -8 -29c0 -17 14 -26 51 -28l-9 -50h-224l9 50c41 5 57 13 81 59l304 588h138l100 -588c8 -46 15 -54 48 -59l-9 -50h-304l9 50c52 2 64 13 64 35c0 4 0 5 -1 13zM286 435l-84 -175h155l-22 170c-6 43 -6 64 -6 88h-6
c-8 -20 -17 -41 -37 -83zM417 733c-73 0 -119 52 -119 116c0 75 54 128 132 128c73 0 117 -53 117 -117c0 -75 -50 -127 -130 -127zM425 915c-35 0 -56 -27 -56 -63c0 -32 18 -54 49 -54c35 0 58 26 58 60c0 33 -19 57 -51 57z" />
    <glyph glyph-name="AE" unicode="&#xc6;" horiz-adv-x="939" 
d="M402 120l21 111h-191l-88 -124c-10 -14 -16 -25 -16 -34c0 -13 13 -21 45 -23l-9 -50h-224l9 50c41 5 65 16 95 59l326 465c11 14 16 26 16 36c0 22 -23 34 -56 34l10 53h624l-22 -177h-88c-8 76 -13 97 -89 97h-84l-44 -230h48c62 0 79 14 95 71h77l-43 -218h-77
c7 54 -4 71 -66 71h-49l-46 -237h105c62 0 93 23 119 116h89l-36 -190h-538l9 50c47 0 67 13 78 70zM507 616l-213 -299h146l16 79c24 125 51 204 57 220h-6z" />
    <glyph glyph-name="Ccedilla" unicode="&#xc7;" horiz-adv-x="634" 
d="M394 -121c0 -62 -49 -85 -126 -85c-50 0 -87 12 -106 25l17 42c22 -14 46 -19 68 -19s34 7 34 25c0 22 -21 30 -55 31l1 21l32 73c-145 22 -215 119 -215 273c0 232 149 444 411 444c92 0 161 -18 209 -51l-29 -146h-125c0 76 -14 116 -73 116
c-124 0 -202 -180 -202 -416c0 -114 40 -146 106 -146c69 0 103 42 131 125h126l-30 -151c-49 -33 -151 -54 -240 -54c-8 0 -15 0 -22 1l-13 -29c66 -4 101 -30 101 -79z" />
    <glyph glyph-name="Egrave" unicode="&#xc8;" horiz-adv-x="604" 
d="M629 697l-22 -177h-88c-8 76 -13 97 -89 97h-84l-44 -230h48c62 0 79 14 95 71h77l-43 -218h-77c1 7 2 17 2 24c0 35 -16 47 -68 47h-49l-46 -237h105c62 0 93 23 119 116h89l-36 -190h-538l9 50c47 0 67 13 78 70l88 454c2 12 4 23 4 31c0 31 -17 39 -54 39l10 53h514z
M510 760l-25 -39l-260 73l74 146z" />
    <glyph glyph-name="Eacute" unicode="&#xc9;" horiz-adv-x="604" 
d="M629 697l-22 -177h-88c-8 76 -13 97 -89 97h-84l-44 -230h48c62 0 79 14 95 71h77l-43 -218h-77c1 7 2 17 2 24c0 35 -16 47 -68 47h-49l-46 -237h105c62 0 93 23 119 116h89l-36 -190h-538l9 50c47 0 67 13 78 70l88 454c2 12 4 23 4 31c0 31 -17 39 -54 39l10 53h514z
M300 721l-25 39l211 180l74 -146z" />
    <glyph glyph-name="Ecircumflex" unicode="&#xca;" horiz-adv-x="604" 
d="M629 697l-22 -177h-88c-8 76 -13 97 -89 97h-84l-44 -230h48c62 0 79 14 95 71h77l-43 -218h-77c1 7 2 17 2 24c0 35 -16 47 -68 47h-49l-46 -237h105c62 0 93 23 119 116h89l-36 -190h-538l9 50c47 0 67 13 78 70l88 454c2 12 4 23 4 31c0 31 -17 39 -54 39l10 53h514z
M544 731l-139 77l-170 -75l-22 38l218 183l139 -189z" />
    <glyph glyph-name="Edieresis" unicode="&#xcb;" horiz-adv-x="604" 
d="M629 697l-22 -177h-88c-8 76 -13 97 -89 97h-84l-44 -230h48c62 0 79 14 95 71h77l-43 -218h-77c1 7 2 17 2 24c0 35 -16 47 -68 47h-49l-46 -237h105c62 0 93 23 119 116h89l-36 -190h-538l9 50c47 0 67 13 78 70l88 454c2 12 4 23 4 31c0 31 -17 39 -54 39l10 53h514z
M375 830c0 -49 -41 -89 -92 -89c-50 0 -91 40 -91 89c0 50 42 90 93 90s90 -40 90 -90zM604 830c0 -49 -41 -89 -92 -89c-50 0 -91 40 -91 89c0 50 42 90 93 90s90 -40 90 -90z" />
    <glyph glyph-name="Igrave" unicode="&#xcc;" horiz-adv-x="371" 
d="M67 120l88 454c2 12 4 23 4 31c0 31 -17 39 -54 39l10 53h311l-10 -53c-47 0 -67 -13 -78 -70l-88 -454c-2 -12 -4 -23 -4 -31c0 -31 17 -39 54 -39l-9 -50h-311l9 50c47 0 67 13 78 70zM409 760l-25 -39l-260 73l74 146z" />
    <glyph glyph-name="Iacute" unicode="&#xcd;" horiz-adv-x="371" 
d="M67 120l88 454c2 12 4 23 4 31c0 31 -17 39 -54 39l10 53h311l-10 -53c-47 0 -67 -13 -78 -70l-88 -454c-2 -12 -4 -23 -4 -31c0 -31 17 -39 54 -39l-9 -50h-311l9 50c47 0 67 13 78 70zM183 721l-25 39l211 180l74 -146z" />
    <glyph glyph-name="Icircumflex" unicode="&#xce;" horiz-adv-x="371" 
d="M67 120l88 454c2 12 4 23 4 31c0 31 -17 39 -54 39l10 53h311l-10 -53c-47 0 -67 -13 -78 -70l-88 -454c-2 -12 -4 -23 -4 -31c0 -31 17 -39 54 -39l-9 -50h-311l9 50c47 0 67 13 78 70zM437 731l-139 77l-170 -75l-22 38l218 183l139 -189z" />
    <glyph glyph-name="Idieresis" unicode="&#xcf;" horiz-adv-x="371" 
d="M67 120l88 454c2 12 4 23 4 31c0 31 -17 39 -54 39l10 53h311l-10 -53c-47 0 -67 -13 -78 -70l-88 -454c-2 -12 -4 -23 -4 -31c0 -31 17 -39 54 -39l-9 -50h-311l9 50c47 0 67 13 78 70zM274 830c0 -49 -41 -89 -92 -89c-50 0 -91 40 -91 89c0 50 42 90 93 90
s90 -40 90 -90zM503 830c0 -49 -41 -89 -92 -89c-50 0 -91 40 -91 89c0 50 42 90 93 90s90 -40 90 -90z" />
    <glyph glyph-name="Eth" unicode="&#xd0;" horiz-adv-x="713" 
d="M35 310l18 85h67l35 179c2 12 4 23 4 31c0 31 -17 39 -54 39l10 53h295c185 0 278 -94 278 -264c0 -155 -42 -256 -118 -339c-61 -66 -158 -94 -260 -94h-330l9 50c47 0 67 13 78 70l37 190h-69zM494 476c0 107 -23 141 -111 141h-37l-43 -222h109l-18 -85h-108l-45 -236
h33c58 0 107 8 143 63c40 62 77 198 77 339z" />
    <glyph glyph-name="Ntilde" unicode="&#xd1;" horiz-adv-x="710" 
d="M555 395l35 179c2 12 4 23 4 31c0 31 -17 39 -54 39l10 53h220l-10 -53c-47 0 -67 -13 -78 -70l-111 -574h-113l-170 377c-41 90 -50 153 -50 165h-6c-2 -23 -13 -121 -22 -165l-49 -257c-2 -12 -4 -23 -4 -31c0 -31 17 -39 54 -39l-9 -50h-222l9 50c47 0 67 13 78 70
l88 454c2 12 4 23 4 31c0 31 -17 39 -54 39l10 53h243l135 -302c31 -70 35 -128 35 -140h6c1 14 9 76 21 140zM540 873c29 0 57 9 75 47l38 -17c-18 -79 -62 -143 -119 -143c-58 0 -95 32 -139 32c-31 0 -54 -12 -73 -49l-36 16c10 79 56 149 115 149c58 0 89 -35 139 -35z
" />
    <glyph glyph-name="Ograve" unicode="&#xd2;" horiz-adv-x="716" 
d="M323 -14c-187 0 -279 127 -279 292c0 201 121 431 365 431c173 0 282 -107 282 -293c0 -210 -114 -430 -368 -430zM409 629c-45 0 -71 -19 -91 -51c-60 -97 -83 -252 -83 -369c0 -90 25 -147 87 -147c46 0 73 15 97 50c57 83 80 249 80 362c0 105 -21 155 -90 155z
M554 760l-25 -39l-260 73l74 146z" />
    <glyph glyph-name="Oacute" unicode="&#xd3;" horiz-adv-x="716" 
d="M323 -14c-187 0 -279 127 -279 292c0 201 121 431 365 431c173 0 282 -107 282 -293c0 -210 -114 -430 -368 -430zM409 629c-45 0 -71 -19 -91 -51c-60 -97 -83 -252 -83 -369c0 -90 25 -147 87 -147c46 0 73 15 97 50c57 83 80 249 80 362c0 105 -21 155 -90 155z
M334 721l-25 39l211 180l74 -146z" />
    <glyph glyph-name="Ocircumflex" unicode="&#xd4;" horiz-adv-x="716" 
d="M323 -14c-187 0 -279 127 -279 292c0 201 121 431 365 431c173 0 282 -107 282 -293c0 -210 -114 -430 -368 -430zM409 629c-45 0 -71 -19 -91 -51c-60 -97 -83 -252 -83 -369c0 -90 25 -147 87 -147c46 0 73 15 97 50c57 83 80 249 80 362c0 105 -21 155 -90 155z
M586 731l-139 77l-170 -75l-22 38l218 183l139 -189z" />
    <glyph glyph-name="Otilde" unicode="&#xd5;" horiz-adv-x="716" 
d="M323 -14c-187 0 -279 127 -279 292c0 201 121 431 365 431c173 0 282 -107 282 -293c0 -210 -114 -430 -368 -430zM409 629c-45 0 -71 -19 -91 -51c-60 -97 -83 -252 -83 -369c0 -90 25 -147 87 -147c46 0 73 15 97 50c57 83 80 249 80 362c0 105 -21 155 -90 155z
M503 873c29 0 57 9 75 47l38 -17c-18 -79 -62 -143 -119 -143c-58 0 -95 32 -139 32c-31 0 -54 -12 -73 -49l-36 16c10 79 56 149 115 149c58 0 89 -35 139 -35z" />
    <glyph glyph-name="Odieresis" unicode="&#xd6;" horiz-adv-x="716" 
d="M323 -14c-187 0 -279 127 -279 292c0 201 121 431 365 431c173 0 282 -107 282 -293c0 -210 -114 -430 -368 -430zM409 629c-45 0 -71 -19 -91 -51c-60 -97 -83 -252 -83 -369c0 -90 25 -147 87 -147c46 0 73 15 97 50c57 83 80 249 80 362c0 105 -21 155 -90 155z
M413 830c0 -49 -41 -89 -92 -89c-50 0 -91 40 -91 89c0 50 42 90 93 90s90 -40 90 -90zM642 830c0 -49 -41 -89 -92 -89c-50 0 -91 40 -91 89c0 50 42 90 93 90s90 -40 90 -90z" />
    <glyph glyph-name="multiply" unicode="&#xd7;" horiz-adv-x="573" 
d="M114 424l61 54l122 -151l180 151l46 -57l-180 -151l122 -150l-63 -54l-122 152l-185 -155l-45 57l184 153z" />
    <glyph glyph-name="Oslash" unicode="&#xd8;" horiz-adv-x="716" 
d="M680 703l-61 -80c46 -51 72 -122 72 -207c0 -210 -114 -430 -368 -430c-65 0 -118 16 -160 43l-59 -77l-47 33l62 82c-50 54 -75 130 -75 211c0 201 121 431 365 431c65 0 122 -17 166 -47l57 74zM409 629c-45 0 -75 -19 -95 -51c-60 -97 -85 -251 -85 -368l267 349
c-12 47 -39 70 -87 70zM423 112c57 83 82 249 82 363l-266 -347c14 -42 40 -66 83 -66c46 0 77 15 101 50z" />
    <glyph glyph-name="Ugrave" unicode="&#xd9;" horiz-adv-x="691" 
d="M512 228l67 346c2 12 4 23 4 31c0 31 -17 39 -54 39l10 53h217l-10 -53c-47 0 -67 -13 -78 -70l-67 -346c-30 -154 -106 -242 -269 -242c-172 0 -253 69 -255 192c0 28 3 59 9 92l59 304c2 12 4 23 4 31c0 31 -17 39 -54 39l10 53h311l-10 -53c-47 0 -67 -13 -78 -70
l-62 -317c-6 -33 -9 -61 -9 -84c1 -65 35 -95 112 -95c76 0 123 48 143 150zM585 760l-25 -39l-260 73l74 146z" />
    <glyph glyph-name="Uacute" unicode="&#xda;" horiz-adv-x="691" 
d="M512 228l67 346c2 12 4 23 4 31c0 31 -17 39 -54 39l10 53h217l-10 -53c-47 0 -67 -13 -78 -70l-67 -346c-30 -154 -106 -242 -269 -242c-172 0 -253 69 -255 192c0 28 3 59 9 92l59 304c2 12 4 23 4 31c0 31 -17 39 -54 39l10 53h311l-10 -53c-47 0 -67 -13 -78 -70
l-62 -317c-6 -33 -9 -61 -9 -84c1 -65 35 -95 112 -95c76 0 123 48 143 150zM372 721l-25 39l211 180l74 -146z" />
    <glyph glyph-name="Ucircumflex" unicode="&#xdb;" horiz-adv-x="691" 
d="M512 228l67 346c2 12 4 23 4 31c0 31 -17 39 -54 39l10 53h217l-10 -53c-47 0 -67 -13 -78 -70l-67 -346c-30 -154 -106 -242 -269 -242c-172 0 -253 69 -255 192c0 28 3 59 9 92l59 304c2 12 4 23 4 31c0 31 -17 39 -54 39l10 53h311l-10 -53c-47 0 -67 -13 -78 -70
l-62 -317c-6 -33 -9 -61 -9 -84c1 -65 35 -95 112 -95c76 0 123 48 143 150zM627 731l-139 77l-170 -75l-22 38l218 183l139 -189z" />
    <glyph glyph-name="Udieresis" unicode="&#xdc;" horiz-adv-x="691" 
d="M512 228l67 346c2 12 4 23 4 31c0 31 -17 39 -54 39l10 53h217l-10 -53c-47 0 -67 -13 -78 -70l-67 -346c-30 -154 -106 -242 -269 -242c-172 0 -253 69 -255 192c0 28 3 59 9 92l59 304c2 12 4 23 4 31c0 31 -17 39 -54 39l10 53h311l-10 -53c-47 0 -67 -13 -78 -70
l-62 -317c-6 -33 -9 -61 -9 -84c1 -65 35 -95 112 -95c76 0 123 48 143 150zM446 830c0 -49 -41 -89 -92 -89c-50 0 -91 40 -91 89c0 50 42 90 93 90s90 -40 90 -90zM675 830c0 -49 -41 -89 -92 -89c-50 0 -91 40 -91 89c0 50 42 90 93 90s90 -40 90 -90z" />
    <glyph glyph-name="Yacute" unicode="&#xdd;" horiz-adv-x="643" 
d="M375 347h6l145 239c7 12 12 23 12 32c0 15 -12 26 -42 26l10 53h222l-10 -53c-41 -5 -53 -12 -82 -56l-226 -333l-26 -135c-2 -12 -3 -22 -3 -30c0 -32 18 -40 63 -40l-9 -50h-331l9 50c57 0 77 13 88 70l26 134l-95 334c-13 46 -24 51 -57 56l10 53h289l-10 -53
c-36 0 -48 -17 -48 -40c0 -6 1 -12 2 -18zM335 721l-25 39l211 180l74 -146z" />
    <glyph glyph-name="Thorn" unicode="&#xde;" horiz-adv-x="624" 
d="M448 384c0 61 -25 90 -90 90h-40l-45 -234h58c29 0 51 2 72 20c28 24 45 68 45 124zM338 574l-4 -20h63c151 0 237 -45 237 -172c0 -89 -45 -167 -146 -204c-44 -17 -98 -23 -160 -23h-72l-6 -35c-2 -11 -3 -21 -3 -29c0 -33 19 -41 73 -41l-9 -50h-331l9 50
c47 0 67 13 78 70l88 454c2 11 4 23 4 31c0 31 -17 39 -54 39l10 53h311l-10 -53c-47 0 -67 -13 -78 -70z" />
    <glyph glyph-name="germandbls" unicode="&#xdf;" horiz-adv-x="620" 
d="M406 672c-38 0 -75 -19 -92 -102l-124 -607c-22 -108 -100 -151 -195 -151c-48 0 -72 9 -90 18v41c84 5 103 27 118 106l90 459h-63l15 57l66 22l9 36c28 121 127 183 279 183c119 0 191 -50 191 -137c0 -89 -71 -138 -158 -168c-25 -9 -34 -13 -34 -24
c0 -8 9 -15 34 -28c100 -54 141 -112 141 -201c0 -127 -104 -190 -210 -190c-68 0 -113 25 -141 60l27 42c24 -17 42 -24 74 -24c49 0 79 36 79 98c0 54 -6 98 -58 165l-9 12c-20 26 -28 37 -28 55c0 27 21 42 57 67c45 31 81 79 81 132c0 46 -9 79 -59 79z" />
    <glyph glyph-name="agrave" unicode="&#xe0;" horiz-adv-x="593" 
d="M338 196l56 237c-11 11 -24 14 -43 14c-84 0 -157 -159 -157 -285c0 -49 11 -69 33 -69c33 0 72 44 111 103zM322 93c-42 -66 -99 -107 -173 -107c-81 0 -129 52 -129 148c0 203 151 395 324 395c60 0 91 -26 100 -59c11 20 26 35 41 46h107c-13 -30 -28 -73 -41 -128
l-55 -243c-4 -17 -7 -30 -7 -41c0 -23 12 -32 44 -32c9 0 23 1 31 2l4 -45c-44 -25 -90 -38 -144 -38c-48 0 -77 15 -91 45c-7 15 -11 34 -11 57zM513 590l-28 -36l-252 97l88 139z" />
    <glyph glyph-name="aacute" unicode="&#xe1;" horiz-adv-x="593" 
d="M338 196l56 237c-11 11 -24 14 -43 14c-84 0 -157 -159 -157 -285c0 -49 11 -69 33 -69c33 0 72 44 111 103zM322 93c-42 -66 -99 -107 -173 -107c-81 0 -129 52 -129 148c0 203 151 395 324 395c60 0 91 -26 100 -59c11 20 26 35 41 46h107c-13 -30 -28 -73 -41 -128
l-55 -243c-4 -17 -7 -30 -7 -41c0 -23 12 -32 44 -32c9 0 23 1 31 2l4 -45c-44 -25 -90 -38 -144 -38c-48 0 -77 15 -91 45c-7 15 -11 34 -11 57zM289 554l-28 36l192 200l88 -139z" />
    <glyph glyph-name="acircumflex" unicode="&#xe2;" horiz-adv-x="593" 
d="M338 196l56 237c-11 11 -24 14 -43 14c-84 0 -157 -159 -157 -285c0 -49 11 -69 33 -69c33 0 72 44 111 103zM322 93c-42 -66 -99 -107 -173 -107c-81 0 -129 52 -129 148c0 203 151 395 324 395c60 0 91 -26 100 -59c11 20 26 35 41 46h107c-13 -30 -28 -73 -41 -128
l-55 -243c-4 -17 -7 -30 -7 -41c0 -23 12 -32 44 -32c9 0 23 1 31 2l4 -45c-44 -25 -90 -38 -144 -38c-48 0 -77 15 -91 45c-7 15 -11 34 -11 57zM552 552l-139 77l-170 -75l-22 38l218 183l139 -189z" />
    <glyph glyph-name="atilde" unicode="&#xe3;" horiz-adv-x="593" 
d="M338 196l56 237c-11 11 -24 14 -43 14c-84 0 -157 -159 -157 -285c0 -49 11 -69 33 -69c33 0 72 44 111 103zM322 93c-42 -66 -99 -107 -173 -107c-81 0 -129 52 -129 148c0 203 151 395 324 395c60 0 91 -26 100 -59c11 20 26 35 41 46h107c-13 -30 -28 -73 -41 -128
l-55 -243c-4 -17 -7 -30 -7 -41c0 -23 12 -32 44 -32c9 0 23 1 31 2l4 -45c-44 -25 -90 -38 -144 -38c-48 0 -77 15 -91 45c-7 15 -11 34 -11 57zM468 693c29 0 57 9 75 47l38 -17c-18 -79 -62 -143 -119 -143c-58 0 -95 32 -139 32c-31 0 -54 -12 -73 -49l-36 16
c10 79 56 149 115 149c58 0 89 -35 139 -35z" />
    <glyph glyph-name="adieresis" unicode="&#xe4;" horiz-adv-x="593" 
d="M338 196l56 237c-11 11 -24 14 -43 14c-84 0 -157 -159 -157 -285c0 -49 11 -69 33 -69c33 0 72 44 111 103zM322 93c-42 -66 -99 -107 -173 -107c-81 0 -129 52 -129 148c0 203 151 395 324 395c60 0 91 -26 100 -59c11 20 26 35 41 46h107c-13 -30 -28 -73 -41 -128
l-55 -243c-4 -17 -7 -30 -7 -41c0 -23 12 -32 44 -32c9 0 23 1 31 2l4 -45c-44 -25 -90 -38 -144 -38c-48 0 -77 15 -91 45c-7 15 -11 34 -11 57zM365 650c0 -49 -41 -89 -92 -89c-50 0 -91 40 -91 89c0 50 42 90 93 90s90 -40 90 -90zM594 650c0 -49 -41 -89 -92 -89
c-50 0 -91 40 -91 89c0 50 42 90 93 90s90 -40 90 -90z" />
    <glyph glyph-name="aring" unicode="&#xe5;" horiz-adv-x="593" 
d="M338 196l56 237c-11 11 -24 14 -43 14c-84 0 -157 -159 -157 -285c0 -49 11 -69 33 -69c33 0 72 44 111 103zM322 93c-42 -66 -99 -107 -173 -107c-81 0 -129 52 -129 148c0 203 151 395 324 395c60 0 91 -26 100 -59c11 20 26 35 41 46h107c-13 -30 -28 -73 -41 -128
l-55 -243c-4 -17 -7 -30 -7 -41c0 -23 12 -32 44 -32c9 0 23 1 31 2l4 -45c-44 -25 -90 -38 -144 -38c-48 0 -77 15 -91 45c-7 15 -11 34 -11 57zM386 563c-73 0 -119 52 -119 116c0 75 54 128 132 128c73 0 117 -53 117 -117c0 -75 -50 -127 -130 -127zM394 745
c-35 0 -56 -27 -56 -63c0 -32 18 -54 49 -54c35 0 58 26 58 60c0 33 -19 57 -51 57z" />
    <glyph glyph-name="ae" unicode="&#xe6;" horiz-adv-x="809" 
d="M799 386c0 -141 -152 -163 -287 -163h-30c-2 -10 -3 -35 -3 -51c0 -50 26 -85 88 -85c55 0 99 13 146 53l33 -46c-61 -72 -141 -108 -231 -108c-83 0 -142 29 -175 80c-31 -39 -86 -80 -164 -80c-92 0 -151 52 -151 141c0 123 105 174 269 174h33l9 50c4 22 7 40 7 54
c0 37 -15 50 -47 50c-46 0 -68 -22 -83 -78h-122l20 108c52 27 119 44 205 44c56 0 113 -14 140 -49c45 31 103 49 158 49c108 0 185 -37 185 -143zM644 410c0 30 -16 47 -41 47c-47 0 -89 -57 -110 -164c90 0 151 26 151 117zM309 186c0 11 1 35 4 47h-15
c-59 0 -100 -18 -100 -80c0 -40 16 -64 53 -64c27 0 49 11 66 25c-6 24 -8 43 -8 72z" />
    <glyph glyph-name="ccedilla" unicode="&#xe7;" horiz-adv-x="483" 
d="M297 -121c0 -62 -49 -85 -126 -85c-50 0 -87 12 -106 25l17 42c22 -14 46 -19 68 -19s34 7 34 25c0 22 -21 30 -55 31l1 21l33 75c-86 23 -133 95 -133 205c0 156 111 330 310 330c77 0 129 -22 153 -42l-21 -116h-114c2 54 1 87 -37 87c-67 0 -116 -127 -116 -268
c0 -70 27 -104 83 -104c53 0 79 17 115 42l35 -50c-39 -48 -97 -92 -209 -92c-7 0 -13 0 -20 1l-13 -29c66 -4 101 -30 101 -79z" />
    <glyph glyph-name="egrave" unicode="&#xe8;" horiz-adv-x="531" 
d="M521 386c0 -144 -157 -171 -294 -171h-23c-2 -10 -3 -27 -3 -43c0 -50 26 -85 88 -85c55 0 99 13 146 53l33 -46c-61 -72 -141 -108 -231 -108c-140 0 -207 74 -207 200c0 190 136 343 306 343c108 0 185 -37 185 -143zM366 410c0 30 -16 47 -41 47
c-47 0 -89 -67 -110 -174c14 0 28 1 41 3c67 10 110 48 110 124zM479 590l-28 -36l-252 97l88 139z" />
    <glyph glyph-name="eacute" unicode="&#xe9;" horiz-adv-x="531" 
d="M521 386c0 -144 -157 -171 -294 -171h-23c-2 -10 -3 -27 -3 -43c0 -50 26 -85 88 -85c55 0 99 13 146 53l33 -46c-61 -72 -141 -108 -231 -108c-140 0 -207 74 -207 200c0 190 136 343 306 343c108 0 185 -37 185 -143zM366 410c0 30 -16 47 -41 47
c-47 0 -89 -67 -110 -174c14 0 28 1 41 3c67 10 110 48 110 124zM252 554l-28 36l192 200l88 -139z" />
    <glyph glyph-name="ecircumflex" unicode="&#xea;" horiz-adv-x="531" 
d="M521 386c0 -144 -157 -171 -294 -171h-23c-2 -10 -3 -27 -3 -43c0 -50 26 -85 88 -85c55 0 99 13 146 53l33 -46c-61 -72 -141 -108 -231 -108c-140 0 -207 74 -207 200c0 190 136 343 306 343c108 0 185 -37 185 -143zM366 410c0 30 -16 47 -41 47
c-47 0 -89 -67 -110 -174c14 0 28 1 41 3c67 10 110 48 110 124zM502 552l-139 77l-170 -75l-22 38l218 183l139 -189z" />
    <glyph glyph-name="edieresis" unicode="&#xeb;" horiz-adv-x="531" 
d="M521 386c0 -144 -157 -171 -294 -171h-23c-2 -10 -3 -27 -3 -43c0 -50 26 -85 88 -85c55 0 99 13 146 53l33 -46c-61 -72 -141 -108 -231 -108c-140 0 -207 74 -207 200c0 190 136 343 306 343c108 0 185 -37 185 -143zM366 410c0 30 -16 47 -41 47
c-47 0 -89 -67 -110 -174c14 0 28 1 41 3c67 10 110 48 110 124zM330 650c0 -49 -41 -89 -92 -89c-50 0 -91 40 -91 89c0 50 42 90 93 90s90 -40 90 -90zM559 650c0 -49 -41 -89 -92 -89c-50 0 -91 40 -91 89c0 50 42 90 93 90s90 -40 90 -90z" />
    <glyph glyph-name="igrave" unicode="&#xec;" horiz-adv-x="313" 
d="M271 386l-57 -241c-4 -17 -7 -31 -7 -41c0 -23 12 -32 44 -32c9 0 19 1 31 2l4 -45c-44 -25 -90 -38 -144 -38c-73 0 -105 35 -105 97c0 18 2 34 8 61l51 208c4 15 6 29 6 38c0 35 -21 49 -67 49l9 42c34 18 83 37 139 37c61 0 95 -26 95 -85c0 -15 -3 -33 -7 -52z
M333 590l-28 -36l-252 97l88 139z" />
    <glyph glyph-name="iacute" unicode="&#xed;" horiz-adv-x="313" 
d="M271 386l-57 -241c-4 -17 -7 -31 -7 -41c0 -23 12 -32 44 -32c9 0 19 1 31 2l4 -45c-44 -25 -90 -38 -144 -38c-73 0 -105 35 -105 97c0 18 2 34 8 61l51 208c4 15 6 29 6 38c0 35 -21 49 -67 49l9 42c34 18 83 37 139 37c61 0 95 -26 95 -85c0 -15 -3 -33 -7 -52z
M109 554l-28 36l192 200l88 -139z" />
    <glyph glyph-name="icircumflex" unicode="&#xee;" horiz-adv-x="313" 
d="M271 386l-57 -241c-4 -17 -7 -31 -7 -41c0 -23 12 -32 44 -32c9 0 19 1 31 2l4 -45c-44 -25 -90 -38 -144 -38c-73 0 -105 35 -105 97c0 18 2 34 8 61l51 208c4 15 6 29 6 38c0 35 -21 49 -67 49l9 42c34 18 83 37 139 37c61 0 95 -26 95 -85c0 -15 -3 -33 -7 -52z
M357 552l-139 77l-170 -75l-22 38l218 183l139 -189z" />
    <glyph glyph-name="idieresis" unicode="&#xef;" horiz-adv-x="313" 
d="M271 386l-57 -241c-4 -17 -7 -31 -7 -41c0 -23 12 -32 44 -32c9 0 19 1 31 2l4 -45c-44 -25 -90 -38 -144 -38c-73 0 -105 35 -105 97c0 18 2 34 8 61l51 208c4 15 6 29 6 38c0 35 -21 49 -67 49l9 42c34 18 83 37 139 37c61 0 95 -26 95 -85c0 -15 -3 -33 -7 -52z
M182 650c0 -49 -41 -89 -92 -89c-50 0 -91 40 -91 89c0 50 42 90 93 90s90 -40 90 -90zM411 650c0 -49 -41 -89 -92 -89c-50 0 -91 40 -91 89c0 50 42 90 93 90s90 -40 90 -90z" />
    <glyph glyph-name="eth" unicode="&#xf0;" horiz-adv-x="567" 
d="M547 359c0 -210 -90 -373 -301 -373c-133 0 -217 82 -217 211c0 157 90 319 283 319c16 0 29 -1 41 -4c-10 29 -24 55 -42 77l-158 -55l-21 52l134 47c-30 22 -66 39 -109 53l26 48c76 -13 139 -34 191 -64l134 47l21 -52l-98 -34c78 -66 116 -158 116 -272zM373 372
c0 23 -1 45 -4 66c-12 4 -28 8 -43 8c-38 0 -65 -21 -80 -65c-24 -69 -43 -174 -43 -260c0 -44 15 -65 48 -65c26 0 54 9 76 69c21 56 46 168 46 247z" />
    <glyph glyph-name="ntilde" unicode="&#xf1;" horiz-adv-x="613" 
d="M347 149l48 194c2 7 3 14 3 20c0 17 -9 28 -29 28c-31 0 -70 -31 -110 -88l-65 -303h-169l81 376c2 8 2 16 2 22c0 30 -18 45 -66 46l9 42c38 19 83 37 138 37c53 0 84 -28 84 -102c0 -8 0 -17 -1 -27c52 87 120 135 200 135c71 0 105 -45 105 -106c0 -15 -2 -30 -6 -46
l-55 -232c-4 -17 -7 -31 -7 -41c0 -24 12 -32 44 -32c9 0 21 1 31 2l4 -45c-44 -25 -90 -38 -144 -38c-72 0 -106 34 -106 96c0 18 3 39 9 62zM453 693c29 0 57 9 75 47l38 -17c-18 -79 -62 -143 -119 -143c-58 0 -95 32 -139 32c-31 0 -54 -12 -73 -49l-36 16
c10 79 56 149 115 149c58 0 89 -35 139 -35z" />
    <glyph glyph-name="ograve" unicode="&#xf2;" horiz-adv-x="567" 
d="M546 316c0 -168 -89 -330 -300 -330c-133 0 -217 82 -217 211c0 157 90 332 296 332c125 0 221 -62 221 -213zM251 56c26 0 54 9 76 69c21 56 44 167 44 256c0 53 -15 77 -50 77c-32 0 -54 -15 -73 -68c-24 -69 -45 -183 -45 -269c0 -44 15 -65 48 -65zM476 590l-28 -36
l-252 97l88 139z" />
    <glyph glyph-name="oacute" unicode="&#xf3;" horiz-adv-x="567" 
d="M546 316c0 -168 -89 -330 -300 -330c-133 0 -217 82 -217 211c0 157 90 332 296 332c125 0 221 -62 221 -213zM251 56c26 0 54 9 76 69c21 56 44 167 44 256c0 53 -15 77 -50 77c-32 0 -54 -15 -73 -68c-24 -69 -45 -183 -45 -269c0 -44 15 -65 48 -65zM249 554l-28 36
l192 200l88 -139z" />
    <glyph glyph-name="ocircumflex" unicode="&#xf4;" horiz-adv-x="567" 
d="M546 316c0 -168 -89 -330 -300 -330c-133 0 -217 82 -217 211c0 157 90 332 296 332c125 0 221 -62 221 -213zM251 56c26 0 54 9 76 69c21 56 44 167 44 256c0 53 -15 77 -50 77c-32 0 -54 -15 -73 -68c-24 -69 -45 -183 -45 -269c0 -44 15 -65 48 -65zM496 552l-139 77
l-170 -75l-22 38l218 183l139 -189z" />
    <glyph glyph-name="otilde" unicode="&#xf5;" horiz-adv-x="567" 
d="M546 316c0 -168 -89 -330 -300 -330c-133 0 -217 82 -217 211c0 157 90 332 296 332c125 0 221 -62 221 -213zM251 56c26 0 54 9 76 69c21 56 44 167 44 256c0 53 -15 77 -50 77c-32 0 -54 -15 -73 -68c-24 -69 -45 -183 -45 -269c0 -44 15 -65 48 -65zM419 693
c29 0 57 9 75 47l38 -17c-18 -79 -62 -143 -119 -143c-58 0 -95 32 -139 32c-31 0 -54 -12 -73 -49l-36 16c10 79 56 149 115 149c58 0 89 -35 139 -35z" />
    <glyph glyph-name="odieresis" unicode="&#xf6;" horiz-adv-x="567" 
d="M546 316c0 -168 -89 -330 -300 -330c-133 0 -217 82 -217 211c0 157 90 332 296 332c125 0 221 -62 221 -213zM251 56c26 0 54 9 76 69c21 56 44 167 44 256c0 53 -15 77 -50 77c-32 0 -54 -15 -73 -68c-24 -69 -45 -183 -45 -269c0 -44 15 -65 48 -65zM329 650
c0 -49 -41 -89 -92 -89c-50 0 -91 40 -91 89c0 50 42 90 93 90s90 -40 90 -90zM558 650c0 -49 -41 -89 -92 -89c-50 0 -91 40 -91 89c0 50 42 90 93 90s90 -40 90 -90z" />
    <glyph glyph-name="divide" unicode="&#xf7;" horiz-adv-x="621" 
d="M50 232l15 78h506l-15 -78h-506zM419 470c0 -45 -34 -78 -74 -78c-42 0 -75 32 -75 76c0 41 33 76 75 76c40 0 74 -34 74 -74zM343 67c0 -44 -34 -77 -74 -77c-42 0 -75 32 -75 75c0 42 33 77 75 77c40 0 74 -34 74 -75z" />
    <glyph glyph-name="oslash" unicode="&#xf8;" horiz-adv-x="567" 
d="M544 529l-50 -62c33 -34 52 -84 52 -151c0 -168 -89 -330 -300 -330c-47 0 -87 10 -120 28l-51 -63l-40 30l51 63c-37 36 -57 89 -57 153c0 157 90 332 296 332c49 0 94 -10 130 -31l49 61zM242 390c-19 -53 -36 -133 -42 -206l175 216c-5 40 -24 58 -54 58
c-32 0 -60 -15 -79 -68zM251 56c26 0 59 9 81 69c16 43 34 119 41 193l-175 -215c5 -32 25 -47 53 -47z" />
    <glyph glyph-name="ugrave" unicode="&#xf9;" horiz-adv-x="591" 
d="M323 88c-45 -69 -104 -102 -179 -102c-74 0 -111 40 -111 107c0 17 2 36 7 56l51 208c4 15 6 29 6 38c0 35 -21 49 -67 49l9 42c34 18 83 37 139 37c61 0 95 -26 95 -86c0 -14 -3 -32 -7 -51l-51 -210c-4 -15 -5 -27 -5 -37c0 -25 11 -34 31 -34c33 0 68 37 101 89
l68 322h166l-77 -371c-4 -17 -6 -31 -6 -40c0 -24 12 -33 45 -33c5 0 20 1 29 2l4 -45c-44 -25 -90 -38 -144 -38c-43 0 -72 11 -88 34c-11 15 -16 36 -16 63zM459 590l-28 -36l-252 97l88 139z" />
    <glyph glyph-name="uacute" unicode="&#xfa;" horiz-adv-x="591" 
d="M323 88c-45 -69 -104 -102 -179 -102c-74 0 -111 40 -111 107c0 17 2 36 7 56l51 208c4 15 6 29 6 38c0 35 -21 49 -67 49l9 42c34 18 83 37 139 37c61 0 95 -26 95 -86c0 -14 -3 -32 -7 -51l-51 -210c-4 -15 -5 -27 -5 -37c0 -25 11 -34 31 -34c33 0 68 37 101 89
l68 322h166l-77 -371c-4 -17 -6 -31 -6 -40c0 -24 12 -33 45 -33c5 0 20 1 29 2l4 -45c-44 -25 -90 -38 -144 -38c-43 0 -72 11 -88 34c-11 15 -16 36 -16 63zM254 554l-28 36l192 200l88 -139z" />
    <glyph glyph-name="ucircumflex" unicode="&#xfb;" horiz-adv-x="591" 
d="M323 88c-45 -69 -104 -102 -179 -102c-74 0 -111 40 -111 107c0 17 2 36 7 56l51 208c4 15 6 29 6 38c0 35 -21 49 -67 49l9 42c34 18 83 37 139 37c61 0 95 -26 95 -86c0 -14 -3 -32 -7 -51l-51 -210c-4 -15 -5 -27 -5 -37c0 -25 11 -34 31 -34c33 0 68 37 101 89
l68 322h166l-77 -371c-4 -17 -6 -31 -6 -40c0 -24 12 -33 45 -33c5 0 20 1 29 2l4 -45c-44 -25 -90 -38 -144 -38c-43 0 -72 11 -88 34c-11 15 -16 36 -16 63zM504 552l-139 77l-170 -75l-22 38l218 183l139 -189z" />
    <glyph glyph-name="udieresis" unicode="&#xfc;" horiz-adv-x="591" 
d="M323 88c-45 -69 -104 -102 -179 -102c-74 0 -111 40 -111 107c0 17 2 36 7 56l51 208c4 15 6 29 6 38c0 35 -21 49 -67 49l9 42c34 18 83 37 139 37c61 0 95 -26 95 -86c0 -14 -3 -32 -7 -51l-51 -210c-4 -15 -5 -27 -5 -37c0 -25 11 -34 31 -34c33 0 68 37 101 89
l68 322h166l-77 -371c-4 -17 -6 -31 -6 -40c0 -24 12 -33 45 -33c5 0 20 1 29 2l4 -45c-44 -25 -90 -38 -144 -38c-43 0 -72 11 -88 34c-11 15 -16 36 -16 63zM332 650c0 -49 -41 -89 -92 -89c-50 0 -91 40 -91 89c0 50 42 90 93 90s90 -40 90 -90zM561 650
c0 -49 -41 -89 -92 -89c-50 0 -91 40 -91 89c0 50 42 90 93 90s90 -40 90 -90z" />
    <glyph glyph-name="yacute" unicode="&#xfd;" horiz-adv-x="505" 
d="M188 18l-75 -3c-2 58 -6 122 -17 203l-22 160c-9 66 -25 69 -69 69l8 43c27 13 75 33 128 33c69 0 88 -41 99 -135l13 -107c4 -29 5 -56 5 -79c0 -53 -7 -89 -9 -99h6l38 85c82 184 91 263 91 335l146 -13v-46l-255 -473c-68 -125 -154 -180 -259 -196l-71 115
c99 15 203 29 243 108zM215 554l-28 36l192 200l88 -139z" />
    <glyph glyph-name="thorn" unicode="&#xfe;" horiz-adv-x="608" 
d="M263 337l-55 -265c7 -12 18 -19 41 -19c101 0 153 176 153 286c0 54 -19 67 -45 67c-29 0 -64 -25 -94 -69zM314 561l-31 -146c42 66 95 114 171 114c79 0 134 -59 134 -158c0 -217 -145 -385 -331 -385c-32 0 -51 3 -66 9l-16 -71c-3 -15 -5 -27 -5 -37
c0 -26 14 -33 48 -33l-12 -50h-286l12 50c47 0 59 13 71 70l137 641c4 17 5 31 5 42c0 34 -16 45 -55 45l12 52l202 26h13c4 -11 9 -33 9 -67c0 -27 -3 -60 -12 -102z" />
    <glyph glyph-name="ydieresis" unicode="&#xff;" horiz-adv-x="505" 
d="M188 18l-75 -3c-2 58 -6 122 -17 203l-22 160c-9 66 -25 69 -69 69l8 43c27 13 75 33 128 33c69 0 88 -41 99 -135l13 -107c4 -29 5 -56 5 -79c0 -53 -7 -89 -9 -99h6l38 85c82 184 91 263 91 335l146 -13v-46l-255 -473c-68 -125 -154 -180 -259 -196l-71 115
c99 15 203 29 243 108zM289 650c0 -49 -41 -89 -92 -89c-50 0 -91 40 -91 89c0 50 42 90 93 90s90 -40 90 -90zM518 650c0 -49 -41 -89 -92 -89c-50 0 -91 40 -91 89c0 50 42 90 93 90s90 -40 90 -90z" />
    <glyph glyph-name="Amacron" unicode="&#x100;" horiz-adv-x="650" 
d="M379 98l-10 77h-207l-32 -68c-5 -12 -8 -21 -8 -29c0 -17 14 -26 51 -28l-9 -50h-224l9 50c41 5 57 13 81 59l304 588h138l100 -588c8 -46 15 -54 48 -59l-9 -50h-304l9 50c52 2 64 13 64 35c0 4 0 5 -1 13zM286 435l-84 -175h155l-22 170c-6 43 -6 64 -6 88h-6
c-8 -20 -17 -41 -37 -83zM561 775h-311l18 87h311z" />
    <glyph glyph-name="amacron" unicode="&#x101;" horiz-adv-x="593" 
d="M338 196l56 237c-11 11 -24 14 -43 14c-84 0 -157 -159 -157 -285c0 -49 11 -69 33 -69c33 0 72 44 111 103zM322 93c-42 -66 -99 -107 -173 -107c-81 0 -129 52 -129 148c0 203 151 395 324 395c60 0 91 -26 100 -59c11 20 26 35 41 46h107c-13 -30 -28 -73 -41 -128
l-55 -243c-4 -17 -7 -30 -7 -41c0 -23 12 -32 44 -32c9 0 23 1 31 2l4 -45c-44 -25 -90 -38 -144 -38c-48 0 -77 15 -91 45c-7 15 -11 34 -11 57zM543 605h-311l18 87h311z" />
    <glyph glyph-name="Abreve" unicode="&#x102;" horiz-adv-x="650" 
d="M379 98l-10 77h-207l-32 -68c-5 -12 -8 -21 -8 -29c0 -17 14 -26 51 -28l-9 -50h-224l9 50c41 5 57 13 81 59l304 588h138l100 -588c8 -46 15 -54 48 -59l-9 -50h-304l9 50c52 2 64 13 64 35c0 4 0 5 -1 13zM286 435l-84 -175h155l-22 170c-6 43 -6 64 -6 88h-6
c-8 -20 -17 -41 -37 -83zM412 744c-106 0 -144 93 -150 178l43 15c20 -56 52 -80 114 -80s107 31 148 83l39 -22c-32 -81 -87 -174 -194 -174z" />
    <glyph glyph-name="abreve" unicode="&#x103;" horiz-adv-x="593" 
d="M338 196l56 237c-11 11 -24 14 -43 14c-84 0 -157 -159 -157 -285c0 -49 11 -69 33 -69c33 0 72 44 111 103zM322 93c-42 -66 -99 -107 -173 -107c-81 0 -129 52 -129 148c0 203 151 395 324 395c60 0 91 -26 100 -59c11 20 26 35 41 46h107c-13 -30 -28 -73 -41 -128
l-55 -243c-4 -17 -7 -30 -7 -41c0 -23 12 -32 44 -32c9 0 23 1 31 2l4 -45c-44 -25 -90 -38 -144 -38c-48 0 -77 15 -91 45c-7 15 -11 34 -11 57zM377 564c-106 0 -144 93 -150 178l43 15c20 -56 52 -80 114 -80s107 31 148 83l39 -22c-32 -81 -87 -174 -194 -174z" />
    <glyph glyph-name="Aogonek" unicode="&#x104;" horiz-adv-x="650" 
d="M390 -128l18 -30c-32 -33 -78 -47 -131 -47c-59 0 -121 22 -121 85s53 97 179 157c33 16 45 27 45 50c0 3 0 6 -1 11l-10 77h-207l-32 -68c-5 -12 -8 -21 -8 -29c0 -17 14 -26 51 -28l-9 -50h-224l9 50c41 5 57 13 81 59l304 588h138l100 -588c8 -46 15 -54 48 -59
l-9 -50h-190c-94 0 -126 -49 -126 -95c0 -35 23 -47 46 -47c18 0 29 3 49 14zM286 435l-84 -175h155l-22 170c-6 43 -6 64 -6 88h-6c-8 -20 -17 -41 -37 -83z" />
    <glyph glyph-name="aogonek" unicode="&#x105;" horiz-adv-x="593" 
d="M501 -128l18 -30c-32 -33 -78 -47 -131 -47c-59 0 -121 22 -121 85c0 53 48 87 124 115c-45 11 -69 44 -69 98c-42 -66 -99 -107 -173 -107c-81 0 -129 52 -129 148c0 203 151 395 324 395c60 0 91 -26 100 -59c11 20 26 35 41 46h107c-13 -30 -28 -73 -41 -128l-55 -243
c-4 -17 -7 -31 -7 -41c0 -24 13 -32 44 -32c9 0 19 1 31 2l4 -45c-50 -29 -162 -53 -162 -127c0 -32 23 -44 46 -44c18 0 29 3 49 14zM338 196l56 237c-11 11 -24 14 -43 14c-84 0 -157 -159 -157 -285c0 -49 11 -69 33 -69c33 0 72 44 111 103z" />
    <glyph glyph-name="Cacute" unicode="&#x106;" horiz-adv-x="634" 
d="M328 -14c-192 0 -284 103 -284 279c0 232 149 444 411 444c92 0 161 -18 209 -51l-29 -146h-125c0 76 -14 116 -73 116c-124 0 -202 -180 -202 -416c0 -114 40 -146 106 -146c69 0 103 42 131 125h126l-30 -151c-49 -33 -151 -54 -240 -54zM356 721l-25 39l211 180
l74 -146z" />
    <glyph glyph-name="cacute" unicode="&#x107;" horiz-adv-x="483" 
d="M340 529c77 0 129 -22 153 -42l-21 -116h-114c2 54 1 87 -37 87c-67 0 -116 -127 -116 -268c0 -70 27 -104 83 -104c53 0 79 17 115 42l35 -50c-39 -48 -97 -92 -209 -92c-127 0 -199 78 -199 213c0 156 111 330 310 330zM242 554l-28 36l192 200l88 -139z" />
    <glyph glyph-name="Ccircumflex" unicode="&#x108;" horiz-adv-x="634" 
d="M328 -14c-192 0 -284 103 -284 279c0 232 149 444 411 444c92 0 161 -18 209 -51l-29 -146h-125c0 76 -14 116 -73 116c-124 0 -202 -180 -202 -416c0 -114 40 -146 106 -146c69 0 103 42 131 125h126l-30 -151c-49 -33 -151 -54 -240 -54zM608 731l-139 77l-170 -75
l-22 38l218 183l139 -189z" />
    <glyph glyph-name="ccircumflex" unicode="&#x109;" horiz-adv-x="483" 
d="M340 529c77 0 129 -22 153 -42l-21 -116h-114c2 54 1 87 -37 87c-67 0 -116 -127 -116 -268c0 -70 27 -104 83 -104c53 0 79 17 115 42l35 -50c-39 -48 -97 -92 -209 -92c-127 0 -199 78 -199 213c0 156 111 330 310 330zM491 552l-139 77l-170 -75l-22 38l218 183
l139 -189z" />
    <glyph glyph-name="Cdotaccent" unicode="&#x10a;" horiz-adv-x="634" 
d="M328 -14c-192 0 -284 103 -284 279c0 232 149 444 411 444c92 0 161 -18 209 -51l-29 -146h-125c0 76 -14 116 -73 116c-124 0 -202 -180 -202 -416c0 -114 40 -146 106 -146c69 0 103 42 131 125h126l-30 -151c-49 -33 -151 -54 -240 -54zM561 836
c0 -51 -43 -93 -96 -93c-52 0 -95 42 -95 93c0 52 44 94 97 94s94 -42 94 -94z" />
    <glyph glyph-name="cdotaccent" unicode="&#x10b;" horiz-adv-x="483" 
d="M340 529c77 0 129 -22 153 -42l-21 -116h-114c2 54 1 87 -37 87c-67 0 -116 -127 -116 -268c0 -70 27 -104 83 -104c53 0 79 17 115 42l35 -50c-39 -48 -97 -92 -209 -92c-127 0 -199 78 -199 213c0 156 111 330 310 330zM442 656c0 -51 -43 -93 -96 -93
c-52 0 -95 42 -95 93c0 52 44 94 97 94s94 -42 94 -94z" />
    <glyph glyph-name="Ccaron" unicode="&#x10c;" horiz-adv-x="634" 
d="M328 -14c-192 0 -284 103 -284 279c0 232 149 444 411 444c92 0 161 -18 209 -51l-29 -146h-125c0 76 -14 116 -73 116c-124 0 -202 -180 -202 -416c0 -114 40 -146 106 -146c69 0 103 42 131 125h126l-30 -151c-49 -33 -151 -54 -240 -54zM315 955l139 -77l170 75
l22 -38l-218 -183l-139 189z" />
    <glyph glyph-name="ccaron" unicode="&#x10d;" horiz-adv-x="483" 
d="M340 529c77 0 129 -22 153 -42l-21 -116h-114c2 54 1 87 -37 87c-67 0 -116 -127 -116 -268c0 -70 27 -104 83 -104c53 0 79 17 115 42l35 -50c-39 -48 -97 -92 -209 -92c-127 0 -199 78 -199 213c0 156 111 330 310 330zM212 775l137 -77l172 75l22 -38l-218 -183
l-139 189z" />
    <glyph glyph-name="Dcaron" unicode="&#x10e;" horiz-adv-x="713" 
d="M494 476c0 107 -23 141 -111 141h-37l-105 -543h33c58 0 107 8 143 63c40 62 77 198 77 339zM115 697h295c185 0 278 -94 278 -264c0 -155 -42 -256 -118 -339c-61 -66 -158 -94 -260 -94h-330l9 50c47 0 67 13 78 70l88 454c2 12 4 23 4 31c0 31 -17 39 -54 39zM279 955
l139 -77l170 75l22 -38l-218 -183l-139 189z" />
    <glyph glyph-name="dcaron" unicode="&#x10f;" horiz-adv-x="613" 
d="M418 512l11 53c5 22 5 31 5 42c0 34 -16 45 -55 45l12 52l202 26h13c3 -10 7 -27 7 -53c0 -28 -4 -67 -15 -116l-90 -416c-4 -17 -6 -30 -6 -40c0 -24 11 -33 43 -33c9 0 19 1 31 2l4 -45c-44 -25 -90 -38 -144 -38c-46 0 -75 15 -90 43c-8 16 -12 35 -12 59
c-42 -66 -109 -107 -183 -107c-81 0 -131 52 -131 148c0 203 156 395 329 395c30 0 53 -6 69 -17zM347 196l52 237c-11 11 -24 14 -43 14c-84 0 -162 -151 -162 -285c0 -49 13 -69 35 -69c38 0 79 44 118 103zM784 728l-79 -172l-67 8l22 176z" />
    <glyph glyph-name="Dcroat" unicode="&#x110;" horiz-adv-x="713" 
d="M35 310l18 85h67l35 179c2 12 4 23 4 31c0 31 -17 39 -54 39l10 53h295c185 0 278 -94 278 -264c0 -155 -42 -256 -118 -339c-61 -66 -158 -94 -260 -94h-330l9 50c47 0 67 13 78 70l37 190h-69zM494 476c0 107 -23 141 -111 141h-37l-43 -222h109l-18 -85h-108l-45 -236
h33c58 0 107 8 143 63c40 62 77 198 77 339z" />
    <glyph glyph-name="dcroat" unicode="&#x111;" horiz-adv-x="613" 
d="M272 567l11 47h157c1 5 2 11 2 16c0 18 -13 25 -63 25l12 49l202 26h13c3 -10 6 -27 6 -53c0 -17 -1 -38 -5 -63h69l-11 -47h-66l-91 -422c-3 -15 -6 -30 -6 -40c0 -24 12 -33 45 -33c6 0 18 1 29 2l4 -45c-44 -25 -90 -38 -144 -38c-42 0 -70 12 -86 36
c-11 17 -16 38 -16 66c-42 -66 -109 -107 -183 -107c-81 0 -131 52 -131 148c0 203 156 395 329 395c30 0 53 -6 69 -17l12 55h-158zM347 196l52 237c-11 11 -24 14 -43 14c-84 0 -162 -151 -162 -285c0 -49 13 -69 35 -69c38 0 79 44 118 103z" />
    <glyph glyph-name="Emacron" unicode="&#x112;" horiz-adv-x="604" 
d="M629 697l-22 -177h-88c-8 76 -13 97 -89 97h-84l-44 -230h48c62 0 79 14 95 71h77l-43 -218h-77c1 7 2 17 2 24c0 35 -16 47 -68 47h-49l-46 -237h105c62 0 93 23 119 116h89l-36 -190h-538l9 50c47 0 67 13 78 70l88 454c2 12 4 23 4 31c0 31 -17 39 -54 39l10 53h514z
M542 775h-311l18 87h311z" />
    <glyph glyph-name="emacron" unicode="&#x113;" horiz-adv-x="531" 
d="M521 386c0 -144 -157 -171 -294 -171h-23c-2 -10 -3 -27 -3 -43c0 -50 26 -85 88 -85c55 0 99 13 146 53l33 -46c-61 -72 -141 -108 -231 -108c-140 0 -207 74 -207 200c0 190 136 343 306 343c108 0 185 -37 185 -143zM366 410c0 30 -16 47 -41 47
c-47 0 -89 -67 -110 -174c14 0 28 1 41 3c67 10 110 48 110 124zM506 605h-311l18 87h311z" />
    <glyph glyph-name="Ebreve" unicode="&#x114;" horiz-adv-x="604" 
d="M629 697l-22 -177h-88c-8 76 -13 97 -89 97h-84l-44 -230h48c62 0 79 14 95 71h77l-43 -218h-77c1 7 2 17 2 24c0 35 -16 47 -68 47h-49l-46 -237h105c62 0 93 23 119 116h89l-36 -190h-538l9 50c47 0 67 13 78 70l88 454c2 12 4 23 4 31c0 31 -17 39 -54 39l10 53h514z
M391 745c-106 0 -144 93 -150 178l43 15c20 -56 52 -80 114 -80s107 31 148 83l39 -22c-32 -81 -87 -174 -194 -174z" />
    <glyph glyph-name="ebreve" unicode="&#x115;" horiz-adv-x="531" 
d="M521 386c0 -144 -157 -171 -294 -171h-23c-2 -10 -3 -27 -3 -43c0 -50 26 -85 88 -85c55 0 99 13 146 53l33 -46c-61 -72 -141 -108 -231 -108c-140 0 -207 74 -207 200c0 190 136 343 306 343c108 0 185 -37 185 -143zM366 410c0 30 -16 47 -41 47
c-47 0 -89 -67 -110 -174c14 0 28 1 41 3c67 10 110 48 110 124zM367 564c-106 0 -144 93 -150 178l43 15c20 -56 52 -80 114 -80s107 31 148 83l39 -22c-32 -81 -87 -174 -194 -174z" />
    <glyph glyph-name="Edotaccent" unicode="&#x116;" horiz-adv-x="604" 
d="M629 697l-22 -177h-88c-8 76 -13 97 -89 97h-84l-44 -230h48c62 0 79 14 95 71h77l-43 -218h-77c1 7 2 17 2 24c0 35 -16 47 -68 47h-49l-46 -237h105c62 0 93 23 119 116h89l-36 -190h-538l9 50c47 0 67 13 78 70l88 454c2 12 4 23 4 31c0 31 -17 39 -54 39l10 53h514z
M492 836c0 -51 -43 -93 -96 -93c-52 0 -95 42 -95 93c0 52 44 94 97 94s94 -42 94 -94z" />
    <glyph glyph-name="edotaccent" unicode="&#x117;" horiz-adv-x="531" 
d="M521 386c0 -144 -157 -171 -294 -171h-23c-2 -10 -3 -27 -3 -43c0 -50 26 -85 88 -85c55 0 99 13 146 53l33 -46c-61 -72 -141 -108 -231 -108c-140 0 -207 74 -207 200c0 190 136 343 306 343c108 0 185 -37 185 -143zM366 410c0 30 -16 47 -41 47
c-47 0 -89 -67 -110 -174c14 0 28 1 41 3c67 10 110 48 110 124zM451 656c0 -51 -43 -93 -96 -93c-52 0 -95 42 -95 93c0 52 44 94 97 94s94 -42 94 -94z" />
    <glyph glyph-name="Eogonek" unicode="&#x118;" horiz-adv-x="604" 
d="M469 -128l18 -30c-32 -33 -78 -47 -131 -47c-59 0 -121 22 -121 85c0 56 57 94 146 120h-401l9 50c47 0 67 13 78 70l88 454c2 12 4 23 4 31c0 31 -17 39 -54 39l10 53h514l-22 -177h-88c-8 76 -13 97 -89 97h-84l-44 -230h48c62 0 79 14 95 71h77l-43 -218h-77
c1 9 2 17 2 24c0 35 -16 47 -68 47h-49l-46 -237h105c62 0 93 23 119 116h89l-36 -190h-6c-84 0 -138 -54 -138 -98c0 -32 23 -44 46 -44c18 0 29 3 49 14z" />
    <glyph glyph-name="eogonek" unicode="&#x119;" horiz-adv-x="531" 
d="M350 -128l18 -30c-32 -33 -78 -47 -131 -47c-59 0 -121 22 -121 85c0 52 41 83 115 110h-5c-134 1 -196 73 -196 196c0 190 136 343 306 343c108 0 185 -37 185 -143c0 -144 -157 -171 -294 -171h-23c-2 -10 -3 -27 -3 -43c0 -50 26 -85 88 -85c55 0 99 13 146 53l33 -46
c-34 -40 -73 -66 -116 -88c-63 -32 -97 -66 -97 -104c0 -32 23 -44 46 -44c18 0 29 3 49 14zM366 410c0 30 -16 47 -41 47c-47 0 -89 -67 -110 -174c14 0 28 1 41 3c67 10 110 48 110 124z" />
    <glyph glyph-name="Ecaron" unicode="&#x11a;" horiz-adv-x="604" 
d="M629 697l-22 -177h-88c-8 76 -13 97 -89 97h-84l-44 -230h48c62 0 79 14 95 71h77l-43 -218h-77c1 7 2 17 2 24c0 35 -16 47 -68 47h-49l-46 -237h105c62 0 93 23 119 116h89l-36 -190h-538l9 50c47 0 67 13 78 70l88 454c2 12 4 23 4 31c0 31 -17 39 -54 39l10 53h514z
M271 955l139 -77l170 75l22 -38l-218 -183l-139 189z" />
    <glyph glyph-name="ecaron" unicode="&#x11b;" horiz-adv-x="531" 
d="M521 386c0 -144 -157 -171 -294 -171h-23c-2 -10 -3 -27 -3 -43c0 -50 26 -85 88 -85c55 0 99 13 146 53l33 -46c-61 -72 -141 -108 -231 -108c-140 0 -207 74 -207 200c0 190 136 343 306 343c108 0 185 -37 185 -143zM366 410c0 30 -16 47 -41 47
c-47 0 -89 -67 -110 -174c14 0 28 1 41 3c67 10 110 48 110 124zM216 775l137 -77l172 75l22 -38l-218 -183l-139 189z" />
    <glyph glyph-name="Gcircumflex" unicode="&#x11c;" horiz-adv-x="710" 
d="M417 78l30 154c2 9 4 23 4 31c0 30 -18 39 -67 39l11 52h315l-10 -52c-49 0 -68 -13 -79 -70l-37 -191c-59 -34 -154 -55 -233 -55c-206 0 -306 98 -306 278c0 226 139 445 424 445c92 0 167 -20 216 -51l-29 -146h-121c0 80 -19 116 -84 116c-128 0 -215 -168 -215 -404
c0 -122 37 -161 114 -161c24 0 51 6 67 15zM640 731l-139 77l-170 -75l-22 38l218 183l139 -189z" />
    <glyph glyph-name="gcircumflex" unicode="&#x11d;" horiz-adv-x="541" 
d="M575 546l36 -108c-29 -18 -54 -20 -82 -20c-22 0 -48 5 -66 16c15 -13 35 -36 35 -85c0 -78 -59 -153 -241 -153c-9 0 -23 1 -28 1c-37 -9 -50 -19 -50 -33c0 -10 4 -17 21 -19l130 -17c84 -11 148 -38 148 -129c0 -151 -140 -202 -295 -202c-146 0 -233 23 -233 100
c0 37 27 62 54 74l122 3c-12 -18 -20 -35 -20 -57c0 -42 33 -53 85 -53c82 0 127 25 127 77c0 38 -31 46 -87 52c-69 7 -117 12 -130 14c-54 8 -77 32 -77 79c0 68 55 106 134 124c-65 15 -110 54 -110 131c0 117 98 188 244 188c72 0 133 -26 176 -26c40 0 76 16 107 43z
M262 262c56 0 78 61 78 136c0 45 -22 63 -49 63c-57 0 -78 -68 -78 -136c0 -46 25 -63 49 -63zM489 552l-139 77l-170 -75l-22 38l218 183l139 -189z" />
    <glyph glyph-name="Gbreve" unicode="&#x11e;" horiz-adv-x="710" 
d="M417 78l30 154c2 9 4 23 4 31c0 30 -18 39 -67 39l11 52h315l-10 -52c-49 0 -68 -13 -79 -70l-37 -191c-59 -34 -154 -55 -233 -55c-206 0 -306 98 -306 278c0 226 139 445 424 445c92 0 167 -20 216 -51l-29 -146h-121c0 80 -19 116 -84 116c-128 0 -215 -168 -215 -404
c0 -122 37 -161 114 -161c24 0 51 6 67 15zM464 744c-106 0 -144 93 -150 178l43 15c20 -56 52 -80 114 -80s107 31 148 83l39 -22c-32 -81 -87 -174 -194 -174z" />
    <glyph glyph-name="gbreve" unicode="&#x11f;" horiz-adv-x="541" 
d="M575 546l36 -108c-29 -18 -54 -20 -82 -20c-22 0 -48 5 -66 16c15 -13 35 -36 35 -85c0 -78 -59 -153 -241 -153c-9 0 -23 1 -28 1c-37 -9 -50 -19 -50 -33c0 -10 4 -17 21 -19l130 -17c84 -11 148 -38 148 -129c0 -151 -140 -202 -295 -202c-146 0 -233 23 -233 100
c0 37 27 62 54 74l122 3c-12 -18 -20 -35 -20 -57c0 -42 33 -53 85 -53c82 0 127 25 127 77c0 38 -31 46 -87 52c-69 7 -117 12 -130 14c-54 8 -77 32 -77 79c0 68 55 106 134 124c-65 15 -110 54 -110 131c0 117 98 188 244 188c72 0 133 -26 176 -26c40 0 76 16 107 43z
M262 262c56 0 78 61 78 136c0 45 -22 63 -49 63c-57 0 -78 -68 -78 -136c0 -46 25 -63 49 -63zM319 564c-106 0 -144 93 -150 178l43 15c20 -56 52 -80 114 -80s107 31 148 83l39 -22c-32 -81 -87 -174 -194 -174z" />
    <glyph glyph-name="Gdotaccent" unicode="&#x120;" horiz-adv-x="710" 
d="M417 78l30 154c2 9 4 23 4 31c0 30 -18 39 -67 39l11 52h315l-10 -52c-49 0 -68 -13 -79 -70l-37 -191c-59 -34 -154 -55 -233 -55c-206 0 -306 98 -306 278c0 226 139 445 424 445c92 0 167 -20 216 -51l-29 -146h-121c0 80 -19 116 -84 116c-128 0 -215 -168 -215 -404
c0 -122 37 -161 114 -161c24 0 51 6 67 15zM573 836c0 -51 -43 -93 -96 -93c-52 0 -95 42 -95 93c0 52 44 94 97 94s94 -42 94 -94z" />
    <glyph glyph-name="gdotaccent" unicode="&#x121;" horiz-adv-x="541" 
d="M575 546l36 -108c-29 -18 -54 -20 -82 -20c-22 0 -48 5 -66 16c15 -13 35 -36 35 -85c0 -78 -59 -153 -241 -153c-9 0 -23 1 -28 1c-37 -9 -50 -19 -50 -33c0 -10 4 -17 21 -19l130 -17c84 -11 148 -38 148 -129c0 -151 -140 -202 -295 -202c-146 0 -233 23 -233 100
c0 37 27 62 54 74l122 3c-12 -18 -20 -35 -20 -57c0 -42 33 -53 85 -53c82 0 127 25 127 77c0 38 -31 46 -87 52c-69 7 -117 12 -130 14c-54 8 -77 32 -77 79c0 68 55 106 134 124c-65 15 -110 54 -110 131c0 117 98 188 244 188c72 0 133 -26 176 -26c40 0 76 16 107 43z
M262 262c56 0 78 61 78 136c0 45 -22 63 -49 63c-57 0 -78 -68 -78 -136c0 -46 25 -63 49 -63zM429 656c0 -51 -43 -93 -96 -93c-52 0 -95 42 -95 93c0 52 44 94 97 94s94 -42 94 -94z" />
    <glyph glyph-name="Gcommaaccent" unicode="&#x122;" horiz-adv-x="710" 
d="M417 78l30 154c2 9 4 23 4 31c0 30 -18 39 -67 39l11 52h315l-10 -52c-49 0 -68 -13 -79 -70l-37 -191c-59 -34 -154 -55 -233 -55c-206 0 -306 98 -306 278c0 226 139 445 424 445c92 0 167 -20 216 -51l-29 -146h-121c0 80 -19 116 -84 116c-128 0 -215 -168 -215 -404
c0 -122 37 -161 114 -161c24 0 51 6 67 15zM393 -129c0 -95 -102 -147 -190 -161l-18 38c54 17 94 33 94 58c0 10 -4 17 -20 24c-19 9 -37 25 -37 62c0 40 33 72 84 72c57 0 87 -45 87 -93z" />
    <glyph glyph-name="gcommaaccent" unicode="&#x123;" horiz-adv-x="541" 
d="M575 546l36 -108c-29 -18 -54 -20 -82 -20c-22 0 -48 5 -66 16c15 -13 35 -36 35 -85c0 -78 -59 -153 -241 -153c-9 0 -23 1 -28 1c-37 -9 -50 -19 -50 -33c0 -10 4 -17 21 -19l130 -17c84 -11 148 -38 148 -129c0 -151 -140 -202 -295 -202c-146 0 -233 23 -233 100
c0 37 27 62 54 74l122 3c-12 -18 -20 -35 -20 -57c0 -42 33 -53 85 -53c82 0 127 25 127 77c0 38 -31 46 -87 52c-69 7 -117 12 -130 14c-54 8 -77 32 -77 79c0 68 55 106 134 124c-65 15 -110 54 -110 131c0 117 98 188 244 188c72 0 133 -26 176 -26c40 0 76 16 107 43z
M262 262c56 0 78 61 78 136c0 45 -22 63 -49 63c-57 0 -78 -68 -78 -136c0 -46 25 -63 49 -63zM246 646c0 96 102 147 190 161l18 -38c-54 -17 -94 -33 -94 -58c0 -10 4 -17 20 -24c19 -9 37 -25 37 -62c0 -40 -33 -72 -84 -72c-57 0 -87 45 -87 93z" />
    <glyph glyph-name="Hcircumflex" unicode="&#x124;" horiz-adv-x="772" 
d="M468 120l37 190h-218l-37 -190c-2 -12 -4 -23 -4 -31c0 -31 17 -39 54 -39l-9 -50h-311l9 50c47 0 67 13 78 70l88 454c2 12 4 23 4 31c0 31 -17 39 -54 39l10 53h311l-10 -53c-47 0 -67 -13 -78 -70l-35 -179h218l35 179c2 12 4 23 4 31c0 31 -17 39 -54 39l10 53h311
l-10 -53c-47 0 -67 -13 -78 -70l-88 -454c-2 -12 -4 -23 -4 -31c0 -31 17 -39 54 -39l-9 -50h-311l9 50c47 0 67 13 78 70zM636 731l-139 77l-170 -75l-22 38l218 183l139 -189z" />
    <glyph glyph-name="hcircumflex" unicode="&#x125;" horiz-adv-x="600" 
d="M334 149l48 194c2 7 3 14 3 20c0 18 -9 28 -29 28c-31 0 -70 -31 -110 -88l-67 -303h-169l123 565c4 17 5 32 5 43c0 33 -16 44 -55 44l12 52l202 26h13c3 -9 6 -27 6 -52c0 -28 -3 -67 -14 -117l-35 -161c49 79 118 129 192 129c71 0 105 -45 105 -106
c0 -15 -2 -30 -6 -46l-55 -232c-4 -17 -7 -32 -7 -41c0 -22 12 -32 44 -32c9 0 19 1 31 2l4 -45c-44 -25 -90 -38 -144 -38c-72 0 -106 34 -106 96c0 18 3 39 9 62zM529 759l-139 77l-170 -75l-22 38l218 183l139 -189z" />
    <glyph glyph-name="Hbar" unicode="&#x126;" horiz-adv-x="772" 
d="M68 482l15 71h68l4 21c2 12 4 23 4 31c0 31 -17 39 -54 39l10 53h311l-10 -53c-47 0 -67 -13 -78 -70l-4 -21h218l4 21c2 12 4 23 4 31c0 31 -17 39 -54 39l10 53h311l-10 -53c-47 0 -67 -13 -78 -70l-4 -21h70l-15 -71h-69l-70 -362c-2 -12 -4 -23 -4 -31
c0 -31 17 -39 54 -39l-9 -50h-311l9 50c47 0 67 13 78 70l37 190h-218l-37 -190c-2 -12 -4 -23 -4 -31c0 -31 17 -39 54 -39l-9 -50h-311l9 50c47 0 67 13 78 70l70 362h-69zM303 395h218l17 87h-218z" />
    <glyph glyph-name="hbar" unicode="&#x127;" horiz-adv-x="600" 
d="M63 567l11 47h70c2 12 2 20 -4 26c-8 8 -25 12 -57 12l12 52l202 26h13c3 -10 6 -27 6 -53c0 -17 -1 -38 -5 -63h156l-11 -47h-153l-36 -167c49 79 118 129 192 129c71 0 105 -45 105 -106c0 -15 -2 -30 -6 -46l-55 -232c-4 -17 -7 -31 -7 -41c0 -23 12 -32 44 -32
c9 0 19 1 31 2l4 -45c-44 -25 -90 -38 -144 -38c-72 0 -106 34 -106 96c0 18 3 39 9 62l48 194c2 7 3 14 3 20c0 18 -9 28 -29 28c-31 0 -70 -31 -110 -88l-67 -303h-169l123 567h-70z" />
    <glyph glyph-name="Itilde" unicode="&#x128;" horiz-adv-x="371" 
d="M67 120l88 454c2 12 4 23 4 31c0 31 -17 39 -54 39l10 53h311l-10 -53c-47 0 -67 -13 -78 -70l-88 -454c-2 -12 -4 -23 -4 -31c0 -31 17 -39 54 -39l-9 -50h-311l9 50c47 0 67 13 78 70zM368 873c29 0 57 9 75 47l38 -17c-18 -79 -62 -143 -119 -143
c-58 0 -95 32 -139 32c-31 0 -54 -12 -73 -49l-36 16c10 79 56 149 115 149c58 0 89 -35 139 -35z" />
    <glyph glyph-name="itilde" unicode="&#x129;" horiz-adv-x="313" 
d="M271 386l-57 -241c-4 -17 -7 -31 -7 -41c0 -23 12 -32 44 -32c9 0 19 1 31 2l4 -45c-44 -25 -90 -38 -144 -38c-73 0 -105 35 -105 97c0 18 2 34 8 61l51 208c4 15 6 29 6 38c0 35 -21 49 -67 49l9 42c34 18 83 37 139 37c61 0 95 -26 95 -85c0 -15 -3 -33 -7 -52z
M286 693c29 0 57 9 75 47l38 -17c-18 -79 -62 -143 -119 -143c-58 0 -95 32 -139 32c-31 0 -54 -12 -73 -49l-36 16c10 79 56 149 115 149c58 0 89 -35 139 -35z" />
    <glyph glyph-name="Imacron" unicode="&#x12a;" horiz-adv-x="371" 
d="M67 120l88 454c2 12 4 23 4 31c0 31 -17 39 -54 39l10 53h311l-10 -53c-47 0 -67 -13 -78 -70l-88 -454c-2 -12 -4 -23 -4 -31c0 -31 17 -39 54 -39l-9 -50h-311l9 50c47 0 67 13 78 70zM441 775h-311l18 87h311z" />
    <glyph glyph-name="imacron" unicode="&#x12b;" horiz-adv-x="313" 
d="M347 605h-294l18 87h294zM271 386l-57 -241c-4 -17 -7 -31 -7 -41c0 -23 12 -32 44 -32c9 0 19 1 31 2l4 -45c-44 -25 -90 -38 -144 -38c-73 0 -105 35 -105 97c0 18 2 34 8 61l51 208c4 15 6 29 6 38c0 35 -21 49 -67 49l9 42c34 18 83 37 139 37c61 0 95 -26 95 -85
c0 -15 -3 -33 -7 -52z" />
    <glyph glyph-name="Ibreve" unicode="&#x12c;" horiz-adv-x="371" 
d="M67 120l88 454c2 12 4 23 4 31c0 31 -17 39 -54 39l10 53h311l-10 -53c-47 0 -67 -13 -78 -70l-88 -454c-2 -12 -4 -23 -4 -31c0 -31 17 -39 54 -39l-9 -50h-311l9 50c47 0 67 13 78 70zM279 744c-106 0 -144 93 -150 178l43 15c20 -56 52 -80 114 -80s107 31 148 83
l39 -22c-32 -81 -87 -174 -194 -174z" />
    <glyph glyph-name="ibreve" unicode="&#x12d;" horiz-adv-x="313" 
d="M271 386l-57 -241c-4 -17 -7 -31 -7 -41c0 -23 12 -32 44 -32c9 0 19 1 31 2l4 -45c-44 -25 -90 -38 -144 -38c-73 0 -105 35 -105 97c0 18 2 34 8 61l51 208c4 15 6 29 6 38c0 35 -21 49 -67 49l9 42c34 18 83 37 139 37c61 0 95 -26 95 -85c0 -15 -3 -33 -7 -52z
M202 564c-106 0 -144 93 -150 178l43 15c20 -56 52 -80 114 -80s107 31 148 83l39 -22c-32 -81 -87 -174 -194 -174z" />
    <glyph glyph-name="Iogonek" unicode="&#x12e;" horiz-adv-x="371" 
d="M249 -128l18 -30c-32 -33 -78 -47 -131 -47c-59 0 -121 24 -121 87c0 56 47 89 134 118h-169l9 50c47 0 67 13 78 70l88 454c2 12 4 23 4 31c0 31 -17 39 -54 39l10 53h311l-10 -53c-47 0 -67 -13 -78 -70l-88 -454c-2 -12 -4 -23 -4 -31c0 -31 17 -39 54 -39l-9 -50h-18
c-72 0 -119 -54 -119 -98c0 -32 23 -44 46 -44c18 0 29 3 49 14z" />
    <glyph glyph-name="iogonek" unicode="&#x12f;" horiz-adv-x="313" 
d="M282 74l4 -45c-46 -27 -151 -57 -151 -127c0 -32 23 -44 46 -44c18 0 29 3 49 14l18 -30c-32 -33 -78 -47 -131 -47c-59 0 -121 22 -121 85c0 52 45 87 120 115c-54 7 -79 41 -79 95c0 18 3 37 8 59l51 208c4 15 6 29 6 38c0 35 -21 49 -67 49l9 42c34 18 83 37 139 37
c61 0 95 -26 95 -85c0 -15 -3 -33 -7 -52l-57 -241c-4 -17 -7 -31 -7 -41c0 -23 12 -32 44 -32c9 0 19 1 31 2zM324 660c0 -51 -43 -92 -95 -92c-51 0 -94 41 -94 92s43 93 96 93c52 0 93 -42 93 -93z" />
    <glyph glyph-name="Idotaccent" unicode="&#x130;" horiz-adv-x="371" 
d="M67 120l88 454c2 12 4 23 4 31c0 31 -17 39 -54 39l10 53h311l-10 -53c-47 0 -67 -13 -78 -70l-88 -454c-2 -12 -4 -23 -4 -31c0 -31 17 -39 54 -39l-9 -50h-311l9 50c47 0 67 13 78 70zM384 836c0 -51 -43 -93 -96 -93c-52 0 -95 42 -95 93c0 52 44 94 97 94
s94 -42 94 -94z" />
    <glyph glyph-name="dotlessi" unicode="&#x131;" horiz-adv-x="313" 
d="M271 386l-57 -241c-4 -17 -7 -31 -7 -41c0 -23 12 -32 44 -32c9 0 19 1 31 2l4 -45c-44 -25 -90 -38 -144 -38c-73 0 -105 35 -105 97c0 18 2 34 8 61l51 208c4 15 6 29 6 38c0 35 -21 49 -67 49l9 42c34 18 83 37 139 37c61 0 95 -26 95 -85c0 -15 -3 -33 -7 -52z" />
    <glyph glyph-name="IJ" unicode="&#x132;" horiz-adv-x="732" 
d="M67 120l88 454c2 12 4 23 4 31c0 31 -17 39 -54 39l10 53h311l-10 -53c-47 0 -67 -13 -78 -70l-88 -454c-2 -12 -4 -23 -4 -31c0 -31 17 -39 54 -39l-9 -50h-311l9 50c47 0 67 13 78 70zM429 100l92 474c2 12 4 23 4 31c0 31 -17 39 -54 39l10 53h311l-10 -53
c-47 0 -67 -13 -78 -70l-94 -484c-32 -164 -131 -230 -322 -237l-14 51c112 31 133 85 155 196z" />
    <glyph glyph-name="ij" unicode="&#x133;" horiz-adv-x="600" 
d="M271 386l-57 -241c-4 -17 -7 -31 -7 -41c0 -23 12 -32 44 -32c9 0 19 1 31 2l4 -45c-44 -25 -90 -38 -144 -38c-73 0 -105 35 -105 97c0 18 2 34 8 61l51 208c4 15 6 29 6 38c0 35 -21 49 -67 49l9 42c34 18 83 37 139 37c61 0 95 -26 95 -85c0 -15 -3 -33 -7 -52z
M324 660c0 -51 -43 -92 -95 -92c-51 0 -94 41 -94 92s43 93 96 93c52 0 93 -42 93 -93zM577 386l-80 -390c-25 -121 -101 -174 -278 -199l-16 61c87 25 110 52 131 157l68 342c3 15 4 27 4 37c0 36 -18 50 -65 50l9 42c34 18 83 37 139 37c62 0 94 -26 94 -86
c0 -15 -2 -32 -6 -51zM630 660c0 -51 -43 -92 -95 -92c-51 0 -94 41 -94 92s43 93 96 93c52 0 93 -42 93 -93z" />
    <glyph glyph-name="Jcircumflex" unicode="&#x134;" horiz-adv-x="366" 
d="M63 100l92 474c2 12 4 23 4 31c0 31 -17 39 -54 39l10 53h311l-10 -53c-47 0 -67 -13 -78 -70l-94 -484c-32 -164 -131 -230 -322 -237l-14 51c112 31 133 85 155 196zM432 731l-139 77l-170 -75l-22 38l218 183l139 -189z" />
    <glyph glyph-name="jcircumflex" unicode="&#x135;" horiz-adv-x="292" 
d="M269 386l-80 -390c-25 -121 -101 -174 -278 -199l-16 61c87 25 110 52 131 157l68 342c3 15 4 27 4 37c0 36 -18 50 -65 50l9 42c34 18 83 37 139 37c62 0 94 -26 94 -86c0 -15 -2 -32 -6 -51zM350 552l-139 77l-170 -75l-22 38l218 183l139 -189z" />
    <glyph glyph-name="Kcommaaccent" unicode="&#x136;" horiz-adv-x="683" 
d="M67 120l88 454c2 12 4 23 4 31c0 31 -17 39 -54 39l10 53h311l-10 -53c-47 0 -67 -13 -78 -70l-88 -454c-2 -12 -4 -23 -4 -31c0 -31 17 -39 54 -39l-9 -50h-311l9 50c47 0 67 13 78 70zM642 588l-174 -180l123 -309c15 -36 33 -46 71 -49l-9 -50h-225l-119 340l226 252
c8 9 12 19 12 28c0 14 -10 26 -34 26l10 51h230l-10 -51c-41 -5 -64 -20 -101 -58zM398 -129c0 -95 -102 -147 -190 -161l-18 38c54 17 94 33 94 58c0 10 -4 17 -20 24c-19 9 -37 25 -37 62c0 40 33 72 84 72c57 0 87 -45 87 -93z" />
    <glyph glyph-name="kcommaaccent" unicode="&#x137;" horiz-adv-x="568" 
d="M393 328l60 -189c17 -54 31 -70 66 -70c8 0 18 1 26 2l4 -42c-40 -26 -91 -38 -132 -38c-72 0 -103 23 -124 103l-47 175l191 247h161l-9 -43c-43 0 -105 -42 -156 -100zM179 0h-169l121 565c4 17 5 31 5 42c0 34 -16 45 -55 45l12 52l202 26h13c3 -10 6 -24 6 -53
c0 -32 -3 -67 -14 -116zM322 -129c0 -95 -102 -147 -190 -161l-18 38c54 17 94 33 94 58c0 10 -4 17 -20 24c-19 9 -37 25 -37 62c0 40 33 72 84 72c57 0 87 -45 87 -93z" />
    <glyph glyph-name="kgreenlandic" unicode="&#x138;" horiz-adv-x="583" 
d="M408 328l60 -189c17 -54 31 -70 66 -70c8 0 16 1 26 2l4 -42c-40 -26 -91 -38 -132 -38c-72 0 -103 23 -124 103l-47 175l191 247h161l-9 -43c-43 0 -105 -42 -156 -100zM276 386l-82 -386h-169l76 357c3 15 5 27 5 38c0 36 -20 49 -66 49l9 42c34 18 83 37 139 37
c62 0 94 -27 94 -87c0 -15 -2 -31 -6 -50z" />
    <glyph glyph-name="Lacute" unicode="&#x139;" horiz-adv-x="574" 
d="M338 574l-97 -500h72c62 0 106 29 143 128h91l-53 -202h-514l9 50c47 0 67 13 78 70l88 454c2 12 4 23 4 31c0 31 -17 39 -54 39l10 53h311l-10 -53c-47 0 -67 -13 -78 -70zM187 721l-25 39l211 180l74 -146z" />
    <glyph glyph-name="lacute" unicode="&#x13a;" horiz-adv-x="312" 
d="M38 149l90 416c4 17 5 31 5 42c0 34 -16 45 -55 45l12 52l202 26h13c3 -10 7 -27 7 -53c0 -23 -4 -67 -15 -116l-90 -416c-4 -17 -6 -30 -6 -40c0 -24 10 -33 45 -33c8 0 20 1 29 2l4 -45c-44 -25 -90 -38 -144 -38c-73 0 -104 34 -104 97c0 18 2 39 7 61zM155 731
l-25 39l211 180l74 -146z" />
    <glyph glyph-name="Lcommaaccent" unicode="&#x13b;" horiz-adv-x="574" 
d="M338 574l-97 -500h72c62 0 106 29 143 128h91l-53 -202h-514l9 50c47 0 67 13 78 70l88 454c2 12 4 23 4 31c0 31 -17 39 -54 39l10 53h311l-10 -53c-47 0 -67 -13 -78 -70zM335 -129c0 -95 -102 -147 -190 -161l-18 38c54 17 94 33 94 58c0 10 -4 17 -20 24
c-19 9 -37 25 -37 62c0 40 33 72 84 72c57 0 87 -45 87 -93z" />
    <glyph glyph-name="lcommaaccent" unicode="&#x13c;" horiz-adv-x="312" 
d="M38 149l90 416c4 17 5 31 5 42c0 34 -16 45 -55 45l12 52l202 26h13c3 -10 7 -27 7 -53c0 -23 -4 -67 -15 -116l-90 -416c-4 -17 -6 -30 -6 -40c0 -24 10 -33 45 -33c8 0 20 1 29 2l4 -45c-44 -25 -90 -38 -144 -38c-73 0 -104 34 -104 97c0 18 2 39 7 61zM171 -129
c0 -95 -102 -147 -190 -161l-18 38c54 17 94 33 94 58c0 10 -4 17 -20 24c-19 9 -37 25 -37 62c0 40 33 72 84 72c57 0 87 -45 87 -93z" />
    <glyph glyph-name="Lcaron" unicode="&#x13d;" horiz-adv-x="574" 
d="M338 574l-97 -500h72c62 0 106 29 143 128h91l-53 -202h-514l9 50c47 0 67 13 78 70l88 454c2 12 4 23 4 31c0 31 -17 39 -54 39l10 53h311l-10 -53c-47 0 -67 -13 -78 -70zM616 728l-89 -172l-67 8l32 176z" />
    <glyph glyph-name="lcaron" unicode="&#x13e;" horiz-adv-x="312" 
d="M38 149l90 416c4 17 5 31 5 42c0 34 -16 45 -55 45l12 52l202 26h13c3 -10 7 -27 7 -53c0 -23 -4 -67 -15 -116l-90 -416c-4 -17 -6 -30 -6 -40c0 -24 10 -33 45 -33c8 0 20 1 29 2l4 -45c-44 -25 -90 -38 -144 -38c-73 0 -104 34 -104 97c0 18 2 39 7 61zM483 728
l-79 -172l-67 8l22 176z" />
    <glyph glyph-name="Ldot" unicode="&#x13f;" horiz-adv-x="574" 
d="M338 574l-97 -500h72c62 0 106 29 143 128h91l-53 -202h-514l9 50c47 0 67 13 78 70l88 454c2 12 4 23 4 31c0 31 -17 39 -54 39l10 53h311l-10 -53c-47 0 -67 -13 -78 -70zM601 382c0 -54 -45 -98 -99 -98s-98 44 -98 98c0 53 44 98 98 98s99 -45 99 -98z" />
    <glyph glyph-name="ldot" unicode="&#x140;" horiz-adv-x="473" 
d="M38 149l90 416c4 17 5 31 5 42c0 34 -16 45 -55 45l12 52l202 26h13c3 -10 7 -27 7 -53c0 -23 -4 -67 -15 -116l-90 -416c-4 -17 -6 -30 -6 -40c0 -24 10 -33 45 -33c8 0 20 1 29 2l4 -45c-44 -25 -90 -38 -144 -38c-73 0 -104 34 -104 97c0 18 2 39 7 61zM496 352
c0 -53 -44 -95 -96 -95s-95 42 -95 95c0 52 43 94 95 94s96 -42 96 -94z" />
    <glyph glyph-name="Lslash" unicode="&#x141;" horiz-adv-x="574" 
d="M338 574l-38 -195l179 59l-13 -63l-178 -59l-47 -242h72c62 0 106 29 143 128h91l-53 -202h-514l9 50c47 0 67 13 78 70l25 132l-71 -23l13 62l70 23l51 260c2 12 4 23 4 31c0 31 -17 39 -54 39l10 53h311l-10 -53c-47 0 -67 -13 -78 -70z" />
    <glyph glyph-name="lslash" unicode="&#x142;" horiz-adv-x="312" 
d="M41 149l36 166l-71 -26l20 65l64 24l41 187c4 17 5 31 5 42c0 34 -16 45 -55 45l12 52l202 26h13c3 -10 7 -27 7 -53c0 -23 -4 -67 -15 -116l-25 -114l84 32l-20 -65l-77 -29l-52 -240c-4 -17 -6 -30 -6 -40c0 -24 10 -33 45 -33c8 0 20 1 29 2l4 -45
c-44 -25 -90 -38 -144 -38c-73 0 -104 34 -104 97c0 18 2 39 7 61z" />
    <glyph glyph-name="Nacute" unicode="&#x143;" horiz-adv-x="710" 
d="M555 395l35 179c2 12 4 23 4 31c0 31 -17 39 -54 39l10 53h220l-10 -53c-47 0 -67 -13 -78 -70l-111 -574h-113l-170 377c-41 90 -50 153 -50 165h-6c-2 -23 -13 -121 -22 -165l-49 -257c-2 -12 -4 -23 -4 -31c0 -31 17 -39 54 -39l-9 -50h-222l9 50c47 0 67 13 78 70
l88 454c2 12 4 23 4 31c0 31 -17 39 -54 39l10 53h243l135 -302c31 -70 35 -128 35 -140h6c1 14 9 76 21 140zM361 721l-25 39l211 180l74 -146z" />
    <glyph glyph-name="nacute" unicode="&#x144;" horiz-adv-x="613" 
d="M347 149l48 194c2 7 3 14 3 20c0 17 -9 28 -29 28c-31 0 -70 -31 -110 -88l-65 -303h-169l81 376c2 8 2 16 2 22c0 30 -18 45 -66 46l9 42c38 19 83 37 138 37c53 0 84 -28 84 -102c0 -8 0 -17 -1 -27c52 87 120 135 200 135c71 0 105 -45 105 -106c0 -15 -2 -30 -6 -46
l-55 -232c-4 -17 -7 -31 -7 -41c0 -24 12 -32 44 -32c9 0 21 1 31 2l4 -45c-44 -25 -90 -38 -144 -38c-72 0 -106 34 -106 96c0 18 3 39 9 62zM274 554l-28 36l192 200l88 -139z" />
    <glyph glyph-name="Ncommaaccent" unicode="&#x145;" horiz-adv-x="710" 
d="M555 395l35 179c2 12 4 23 4 31c0 31 -17 39 -54 39l10 53h220l-10 -53c-47 0 -67 -13 -78 -70l-111 -574h-113l-170 377c-41 90 -50 153 -50 165h-6c-2 -23 -13 -121 -22 -165l-49 -257c-2 -12 -4 -23 -4 -31c0 -31 17 -39 54 -39l-9 -50h-222l9 50c47 0 67 13 78 70
l88 454c2 12 4 23 4 31c0 31 -17 39 -54 39l10 53h243l135 -302c31 -70 35 -128 35 -140h6c1 14 9 76 21 140zM377 -129c0 -95 -102 -147 -190 -161l-18 38c54 17 94 33 94 58c0 10 -4 17 -20 24c-19 9 -37 25 -37 62c0 40 33 72 84 72c57 0 87 -45 87 -93z" />
    <glyph glyph-name="ncommaaccent" unicode="&#x146;" horiz-adv-x="613" 
d="M347 149l48 194c2 7 3 14 3 20c0 17 -9 28 -29 28c-31 0 -70 -31 -110 -88l-65 -303h-169l81 376c2 8 2 16 2 22c0 30 -18 45 -66 46l9 42c38 19 83 37 138 37c53 0 84 -28 84 -102c0 -8 0 -17 -1 -27c52 87 120 135 200 135c71 0 105 -45 105 -106c0 -15 -2 -30 -6 -46
l-55 -232c-4 -17 -7 -31 -7 -41c0 -24 12 -32 44 -32c9 0 21 1 31 2l4 -45c-44 -25 -90 -38 -144 -38c-72 0 -106 34 -106 96c0 18 3 39 9 62zM343 -129c0 -95 -102 -147 -190 -161l-18 38c54 17 94 33 94 58c0 10 -4 17 -20 24c-19 9 -37 25 -37 62c0 40 33 72 84 72
c57 0 87 -45 87 -93z" />
    <glyph glyph-name="Ncaron" unicode="&#x147;" horiz-adv-x="710" 
d="M555 395l35 179c2 12 4 23 4 31c0 31 -17 39 -54 39l10 53h220l-10 -53c-47 0 -67 -13 -78 -70l-111 -574h-113l-170 377c-41 90 -50 153 -50 165h-6c-2 -23 -13 -121 -22 -165l-49 -257c-2 -12 -4 -23 -4 -31c0 -31 17 -39 54 -39l-9 -50h-222l9 50c47 0 67 13 78 70
l88 454c2 12 4 23 4 31c0 31 -17 39 -54 39l10 53h243l135 -302c31 -70 35 -128 35 -140h6c1 14 9 76 21 140zM327 955l139 -77l170 75l22 -38l-218 -183l-139 189z" />
    <glyph glyph-name="ncaron" unicode="&#x148;" horiz-adv-x="613" 
d="M347 149l48 194c2 7 3 14 3 20c0 17 -9 28 -29 28c-31 0 -70 -31 -110 -88l-65 -303h-169l81 376c2 8 2 16 2 22c0 30 -18 45 -66 46l9 42c38 19 83 37 138 37c53 0 84 -28 84 -102c0 -8 0 -17 -1 -27c52 87 120 135 200 135c71 0 105 -45 105 -106c0 -15 -2 -30 -6 -46
l-55 -232c-4 -17 -7 -31 -7 -41c0 -24 12 -32 44 -32c9 0 21 1 31 2l4 -45c-44 -25 -90 -38 -144 -38c-72 0 -106 34 -106 96c0 18 3 39 9 62zM232 775l137 -77l172 75l22 -38l-218 -183l-139 189z" />
    <glyph glyph-name="napostrophe" unicode="&#x149;" horiz-adv-x="866" 
d="M303 600c0 -111 -100 -195 -219 -219l-24 42c74 20 117 57 117 92c0 18 -7 27 -27 36c-25 11 -50 26 -50 70c0 48 39 88 96 88c76 0 107 -53 107 -109zM600 149l48 194c2 7 3 14 3 20c0 17 -9 28 -29 28c-31 0 -70 -31 -110 -88l-65 -303h-169l81 376c2 8 2 16 2 22
c0 30 -18 45 -66 46l9 42c38 19 83 37 138 37c53 0 84 -28 84 -102c0 -8 0 -17 -1 -27c52 87 120 135 200 135c71 0 105 -45 105 -106c0 -15 -2 -30 -6 -46l-55 -232c-4 -17 -7 -31 -7 -41c0 -24 12 -32 44 -32c9 0 21 1 31 2l4 -45c-44 -25 -90 -38 -144 -38
c-72 0 -106 34 -106 96c0 18 3 39 9 62z" />
    <glyph glyph-name="Eng" unicode="&#x14a;" horiz-adv-x="710" 
d="M682 574l-102 -526c-32 -164 -113 -230 -289 -237l-14 51c112 31 133 85 155 196l-144 319c-41 90 -50 153 -50 165h-6c-2 -23 -13 -121 -22 -165l-49 -257c-2 -12 -4 -23 -4 -31c0 -31 17 -39 54 -39l-9 -50h-222l9 50c47 0 67 13 78 70l88 454c2 12 4 23 4 31
c0 31 -17 39 -54 39l10 53h243l135 -302c31 -70 35 -128 35 -140h6c1 14 9 76 21 140l35 179c2 12 4 23 4 31c0 31 -17 39 -54 39l10 53h220l-10 -53c-47 0 -67 -13 -78 -70z" />
    <glyph glyph-name="eng" unicode="&#x14b;" horiz-adv-x="592" 
d="M195 -142c87 25 110 54 131 156l69 329c2 7 3 14 3 20c0 17 -9 28 -29 28c-31 0 -70 -31 -110 -88l-65 -303h-169l81 376c2 8 2 16 2 22c0 30 -18 45 -66 46l9 42c38 19 83 37 138 37c53 0 84 -28 84 -102c0 -8 0 -17 -1 -27c52 87 120 135 200 135
c71 0 105 -45 105 -106c0 -15 -2 -30 -6 -46l-81 -381c-25 -121 -102 -174 -279 -199z" />
    <glyph glyph-name="Omacron" unicode="&#x14c;" horiz-adv-x="716" 
d="M323 -14c-187 0 -279 127 -279 292c0 201 121 431 365 431c173 0 282 -107 282 -293c0 -210 -114 -430 -368 -430zM409 629c-45 0 -71 -19 -91 -51c-60 -97 -83 -252 -83 -369c0 -90 25 -147 87 -147c46 0 73 15 97 50c57 83 80 249 80 362c0 105 -21 155 -90 155z
M586 775h-311l18 87h311z" />
    <glyph glyph-name="omacron" unicode="&#x14d;" horiz-adv-x="567" 
d="M546 316c0 -168 -89 -330 -300 -330c-133 0 -217 82 -217 211c0 157 90 332 296 332c125 0 221 -62 221 -213zM251 56c26 0 54 9 76 69c21 56 44 167 44 256c0 53 -15 77 -50 77c-32 0 -54 -15 -73 -68c-24 -69 -45 -183 -45 -269c0 -44 15 -65 48 -65zM499 605h-311
l18 87h311z" />
    <glyph glyph-name="Obreve" unicode="&#x14e;" horiz-adv-x="716" 
d="M323 -14c-187 0 -279 127 -279 292c0 201 121 431 365 431c173 0 282 -107 282 -293c0 -210 -114 -430 -368 -430zM409 629c-45 0 -71 -19 -91 -51c-60 -97 -83 -252 -83 -369c0 -90 25 -147 87 -147c46 0 73 15 97 50c57 83 80 249 80 362c0 105 -21 155 -90 155z
M421 744c-106 0 -144 93 -150 178l43 15c20 -56 52 -80 114 -80s107 31 148 83l39 -22c-32 -81 -87 -174 -194 -174z" />
    <glyph glyph-name="obreve" unicode="&#x14f;" horiz-adv-x="567" 
d="M546 316c0 -168 -89 -330 -300 -330c-133 0 -217 82 -217 211c0 157 90 332 296 332c125 0 221 -62 221 -213zM251 56c26 0 54 9 76 69c21 56 44 167 44 256c0 53 -15 77 -50 77c-32 0 -54 -15 -73 -68c-24 -69 -45 -183 -45 -269c0 -44 15 -65 48 -65zM335 564
c-106 0 -144 93 -150 178l43 15c20 -56 52 -80 114 -80s107 31 148 83l39 -22c-32 -81 -87 -174 -194 -174z" />
    <glyph glyph-name="Ohungarumlaut" unicode="&#x150;" horiz-adv-x="716" 
d="M323 -14c-187 0 -279 127 -279 292c0 201 121 431 365 431c173 0 282 -107 282 -293c0 -210 -114 -430 -368 -430zM409 629c-45 0 -71 -19 -91 -51c-60 -97 -83 -252 -83 -369c0 -90 25 -147 87 -147c46 0 73 15 97 50c57 83 80 249 80 362c0 105 -21 155 -90 155z
M511 939l-161 -200l-52 21l80 228zM689 905l-181 -176l-46 26l102 224z" />
    <glyph glyph-name="ohungarumlaut" unicode="&#x151;" horiz-adv-x="567" 
d="M546 316c0 -168 -89 -330 -300 -330c-133 0 -217 82 -217 211c0 157 90 332 296 332c125 0 221 -62 221 -213zM251 56c26 0 54 9 76 69c21 56 44 167 44 256c0 53 -15 77 -50 77c-32 0 -54 -15 -73 -68c-24 -69 -45 -183 -45 -269c0 -44 15 -65 48 -65zM422 760
l-161 -200l-52 21l80 228zM600 726l-181 -176l-46 26l102 224z" />
    <glyph glyph-name="OE" unicode="&#x152;" horiz-adv-x="957" 
d="M359 74h53l105 543h-61c-61 0 -112 -13 -151 -78c-44 -74 -70 -199 -70 -316c0 -90 50 -149 124 -149zM871 0h-518c-187 0 -309 94 -309 278c0 232 151 419 395 419h543l-22 -177h-88c-8 76 -13 97 -89 97h-84l-44 -230h48c62 0 79 14 95 71h77l-43 -218h-77
c7 54 -4 71 -66 71h-49l-46 -237h105c62 0 93 23 119 116h89z" />
    <glyph glyph-name="oe" unicode="&#x153;" horiz-adv-x="859" 
d="M849 386c0 -144 -157 -171 -294 -171h-23c-2 -10 -3 -27 -3 -43c0 -50 26 -85 88 -85c55 0 99 13 146 53l33 -46c-61 -72 -141 -108 -231 -108c-66 0 -122 19 -150 53c-40 -34 -100 -53 -169 -53c-133 0 -217 82 -217 211c0 157 90 332 296 332c66 0 128 -23 164 -67
c43 41 107 67 175 67c108 0 185 -37 185 -143zM251 56c26 0 54 9 76 69c21 56 44 167 44 256c0 53 -15 77 -50 77c-32 0 -54 -15 -73 -68c-24 -69 -45 -183 -45 -269c0 -44 15 -65 48 -65zM694 410c0 30 -16 47 -41 47c-47 0 -89 -67 -110 -174c90 0 151 36 151 127z" />
    <glyph glyph-name="Racute" unicode="&#x154;" horiz-adv-x="675" 
d="M444 306v-4c32 -11 74 -39 94 -74c22 -38 31 -62 49 -120c12 -38 23 -58 60 -58l-9 -50h-215c-22 87 -31 121 -54 193c-21 65 -43 80 -88 87l-31 -160c-2 -12 -4 -23 -4 -31c0 -31 17 -39 54 -39l-9 -50h-311l9 50c47 0 67 13 78 70l88 454c2 12 4 23 4 31
c0 31 -17 39 -54 39l10 53h308c150 0 238 -54 238 -173c0 -127 -94 -198 -217 -218zM346 617l-49 -255h42c86 0 135 68 135 164c0 66 -25 91 -89 91h-39zM308 721l-25 39l211 180l74 -146z" />
    <glyph glyph-name="racute" unicode="&#x155;" horiz-adv-x="445" 
d="M484 517l-42 -172c-26 10 -42 13 -66 13c-65 0 -110 -19 -138 -151l-44 -207h-169l81 376c4 20 3 35 -4 46c-9 14 -28 21 -60 22l9 42c38 19 83 37 138 37c52 0 79 -37 79 -112c0 -8 -1 -19 -2 -31c37 86 94 149 164 149c22 0 35 -2 54 -12zM227 554l-28 36l192 200
l88 -139z" />
    <glyph glyph-name="Rcommaaccent" unicode="&#x156;" horiz-adv-x="675" 
d="M444 306v-4c32 -11 74 -39 94 -74c22 -38 31 -62 49 -120c12 -38 23 -58 60 -58l-9 -50h-215c-22 87 -31 121 -54 193c-21 65 -43 80 -88 87l-31 -160c-2 -12 -4 -23 -4 -31c0 -31 17 -39 54 -39l-9 -50h-311l9 50c47 0 67 13 78 70l88 454c2 12 4 23 4 31
c0 31 -17 39 -54 39l10 53h308c150 0 238 -54 238 -173c0 -127 -94 -198 -217 -218zM346 617l-49 -255h42c86 0 135 68 135 164c0 66 -25 91 -89 91h-39zM384 -129c0 -95 -102 -147 -190 -161l-18 38c54 17 94 33 94 58c0 10 -4 17 -20 24c-19 9 -37 25 -37 62
c0 40 33 72 84 72c57 0 87 -45 87 -93z" />
    <glyph glyph-name="rcommaaccent" unicode="&#x157;" horiz-adv-x="445" 
d="M484 517l-42 -172c-26 10 -42 13 -66 13c-65 0 -110 -19 -138 -151l-44 -207h-169l81 376c4 20 3 35 -4 46c-9 14 -28 21 -60 22l9 42c38 19 83 37 138 37c52 0 79 -37 79 -112c0 -8 -1 -19 -2 -31c37 86 94 149 164 149c22 0 35 -2 54 -12zM172 -129
c0 -95 -102 -147 -190 -161l-18 38c54 17 94 33 94 58c0 10 -4 17 -20 24c-19 9 -37 25 -37 62c0 40 33 72 84 72c57 0 87 -45 87 -93z" />
    <glyph glyph-name="Rcaron" unicode="&#x158;" horiz-adv-x="675" 
d="M444 306v-4c32 -11 74 -39 94 -74c22 -38 31 -62 49 -120c12 -38 23 -58 60 -58l-9 -50h-215c-22 87 -31 121 -54 193c-21 65 -43 80 -88 87l-31 -160c-2 -12 -4 -23 -4 -31c0 -31 17 -39 54 -39l-9 -50h-311l9 50c47 0 67 13 78 70l88 454c2 12 4 23 4 31
c0 31 -17 39 -54 39l10 53h308c150 0 238 -54 238 -173c0 -127 -94 -198 -217 -218zM346 617l-49 -255h42c86 0 135 68 135 164c0 66 -25 91 -89 91h-39zM267 955l139 -77l170 75l22 -38l-218 -183l-139 189z" />
    <glyph glyph-name="rcaron" unicode="&#x159;" horiz-adv-x="445" 
d="M484 517l-42 -172c-26 10 -42 13 -66 13c-65 0 -110 -19 -138 -151l-44 -207h-169l81 376c4 20 3 35 -4 46c-9 14 -28 21 -60 22l9 42c38 19 83 37 138 37c52 0 79 -37 79 -112c0 -8 -1 -19 -2 -31c37 86 94 149 164 149c22 0 35 -2 54 -12zM182 775l137 -77l172 75
l22 -38l-218 -183l-139 189z" />
    <glyph glyph-name="Sacute" unicode="&#x15a;" horiz-adv-x="551" 
d="M235 -14c-133 0 -210 36 -240 63l26 143h118c-1 -97 30 -142 104 -142c60 0 107 31 107 107c0 56 -23 80 -87 107l-67 28c-76 32 -126 91 -126 186c0 144 109 231 268 231c133 0 194 -37 222 -53l-28 -147h-114c3 93 -29 130 -95 130c-61 0 -101 -37 -101 -94
c0 -50 33 -75 75 -93l72 -30c90 -37 151 -81 151 -195c0 -159 -125 -241 -285 -241zM257 721l-25 39l211 180l74 -146z" />
    <glyph glyph-name="sacute" unicode="&#x15b;" horiz-adv-x="470" 
d="M181 -14c-96 0 -152 25 -181 47l18 111h103c0 -53 22 -86 75 -86c45 0 84 11 84 61c0 33 -22 47 -61 59l-40 12c-73 22 -120 64 -120 149c0 125 98 190 227 190c86 0 140 -22 175 -39l-19 -113h-100c0 51 -17 83 -69 83c-40 0 -79 -21 -79 -63c0 -27 24 -40 59 -50
l40 -12c93 -28 134 -72 134 -155c0 -122 -89 -194 -246 -194zM199 554l-28 36l192 200l88 -139z" />
    <glyph glyph-name="Scircumflex" unicode="&#x15c;" horiz-adv-x="551" 
d="M235 -14c-133 0 -210 36 -240 63l26 143h118c-1 -97 30 -142 104 -142c60 0 107 31 107 107c0 56 -23 80 -87 107l-67 28c-76 32 -126 91 -126 186c0 144 109 231 268 231c133 0 194 -37 222 -53l-28 -147h-114c3 93 -29 130 -95 130c-61 0 -101 -37 -101 -94
c0 -50 33 -75 75 -93l72 -30c90 -37 151 -81 151 -195c0 -159 -125 -241 -285 -241zM510 731l-139 77l-170 -75l-22 38l218 183l139 -189z" />
    <glyph glyph-name="scircumflex" unicode="&#x15d;" horiz-adv-x="470" 
d="M181 -14c-96 0 -152 25 -181 47l18 111h103c0 -53 22 -86 75 -86c45 0 84 11 84 61c0 33 -22 47 -61 59l-40 12c-73 22 -120 64 -120 149c0 125 98 190 227 190c86 0 140 -22 175 -39l-19 -113h-100c0 51 -17 83 -69 83c-40 0 -79 -21 -79 -63c0 -27 24 -40 59 -50
l40 -12c93 -28 134 -72 134 -155c0 -122 -89 -194 -246 -194zM462 552l-139 77l-170 -75l-22 38l218 183l139 -189z" />
    <glyph glyph-name="Scedilla" unicode="&#x15e;" horiz-adv-x="551" 
d="M326 -121c0 -62 -49 -85 -126 -85c-50 0 -87 12 -106 25l17 42c22 -14 46 -19 68 -19s34 7 34 25c0 22 -21 30 -55 31l1 21l30 69c-105 7 -168 37 -194 61l26 143h118v-12c0 -83 30 -130 104 -130c60 0 107 31 107 107c0 56 -23 80 -87 107l-67 28
c-76 32 -126 91 -126 186c0 144 109 231 268 231c133 0 194 -37 222 -53l-28 -147h-114v12c0 81 -29 118 -95 118c-61 0 -101 -37 -101 -94c0 -50 33 -75 75 -93l72 -30c90 -37 151 -81 151 -195c0 -158 -124 -240 -282 -241l-13 -28c66 -4 101 -30 101 -79z" />
    <glyph glyph-name="scedilla" unicode="&#x15f;" horiz-adv-x="470" 
d="M284 -121c0 -62 -49 -85 -126 -85c-50 0 -87 12 -106 25l17 42c22 -14 46 -19 68 -19s34 7 34 25c0 22 -21 30 -55 31l1 21l30 68c-76 5 -122 26 -147 46l18 111h103c0 -53 22 -86 75 -86c45 0 84 11 84 61c0 33 -22 47 -61 59l-40 12c-73 22 -120 64 -120 149
c0 125 98 190 227 190c86 0 140 -22 175 -39l-19 -113h-100c0 51 -17 83 -69 83c-40 0 -79 -21 -79 -63c0 -27 24 -40 59 -50l40 -12c93 -28 134 -72 134 -155c0 -118 -83 -189 -231 -194l-13 -28c66 -4 101 -30 101 -79z" />
    <glyph glyph-name="Scaron" unicode="&#x160;" horiz-adv-x="551" 
d="M235 -14c-133 0 -210 36 -240 63l26 143h118c-1 -97 30 -142 104 -142c60 0 107 31 107 107c0 56 -23 80 -87 107l-67 28c-76 32 -126 91 -126 186c0 144 109 231 268 231c133 0 194 -37 222 -53l-28 -147h-114c3 93 -29 130 -95 130c-61 0 -101 -37 -101 -94
c0 -50 33 -75 75 -93l72 -30c90 -37 151 -81 151 -195c0 -159 -125 -241 -285 -241zM220 955l139 -77l170 75l22 -38l-218 -183l-139 189z" />
    <glyph glyph-name="scaron" unicode="&#x161;" horiz-adv-x="470" 
d="M181 -14c-96 0 -152 25 -181 47l18 111h103c0 -53 22 -86 75 -86c45 0 84 11 84 61c0 33 -22 47 -61 59l-40 12c-73 22 -120 64 -120 149c0 125 98 190 227 190c86 0 140 -22 175 -39l-19 -113h-100c0 51 -17 83 -69 83c-40 0 -79 -21 -79 -63c0 -27 24 -40 59 -50
l40 -12c93 -28 134 -72 134 -155c0 -122 -89 -194 -246 -194zM165 775l137 -77l172 75l22 -38l-218 -183l-139 189z" />
    <glyph glyph-name="Tcommaaccent" unicode="&#x162;" horiz-adv-x="634" 
d="M110 697h579l-26 -197h-87l-1 13c-6 80 -10 104 -71 104h-29l-96 -497c-2 -12 -3 -22 -3 -30c0 -32 18 -40 63 -40l-9 -50h-139l-20 -42c66 -4 101 -30 101 -79c0 -62 -49 -85 -126 -85c-50 0 -87 12 -106 25l17 42c22 -14 46 -19 68 -19s34 7 34 25c0 22 -21 30 -55 31
l1 21l35 81h-141l9 50c57 0 77 13 88 70l96 497h-29c-66 0 -78 -31 -116 -117h-87z" />
    <glyph glyph-name="tcommaaccent" unicode="&#x163;" horiz-adv-x="372" 
d="M412 516l-31 -80h-106l-56 -260c-4 -20 -6 -35 -6 -49c0 -35 13 -53 50 -53c18 0 46 4 68 12l8 -52c-42 -33 -101 -47 -155 -48l-13 -28c66 -4 101 -30 101 -79c0 -62 -49 -85 -126 -85c-50 0 -87 12 -106 25l17 42c22 -14 46 -19 68 -19s34 7 34 25c0 22 -21 30 -55 31
l1 21l31 71c-65 11 -94 52 -94 105c0 25 3 48 10 81l54 260h-59l12 57l71 23c19 50 48 110 92 142l117 8c-15 -35 -33 -93 -46 -150h119z" />
    <glyph glyph-name="Tcaron" unicode="&#x164;" horiz-adv-x="634" 
d="M110 697h579l-26 -197h-87c-7 94 -12 117 -72 117h-29l-96 -497c-2 -12 -3 -22 -3 -30c0 -32 18 -40 63 -40l-9 -50h-331l9 50c57 0 77 13 88 70l96 497h-29c-66 0 -78 -31 -116 -117h-87zM276 955l139 -77l170 75l22 -38l-218 -183l-139 189z" />
    <glyph glyph-name="tcaron" unicode="&#x165;" horiz-adv-x="372" 
d="M412 516l-31 -80h-106l-56 -260c-4 -20 -6 -35 -6 -49c0 -35 13 -53 50 -53c18 0 46 4 68 12l8 -52c-43 -34 -105 -48 -161 -48c-95 0 -136 46 -136 109c0 25 3 48 10 81l54 260h-59l12 57l71 23c19 50 48 110 92 142l117 8c-15 -35 -33 -93 -46 -150h119zM514 728
l-79 -172l-67 8l22 176z" />
    <glyph glyph-name="Tbar" unicode="&#x166;" horiz-adv-x="634" 
d="M110 697h579l-26 -197h-87c-7 94 -12 117 -72 117h-29l-44 -224h117l-16 -86h-117l-36 -187c-2 -12 -3 -22 -3 -30c0 -32 18 -40 63 -40l-9 -50h-331l9 50c57 0 77 13 88 70l36 187h-107l16 86h107l44 224h-29c-66 0 -78 -31 -116 -117h-87z" />
    <glyph glyph-name="tbar" unicode="&#x167;" horiz-adv-x="372" 
d="M412 516l-31 -80h-106l-20 -91h115l-17 -76h-114l-20 -93c-4 -20 -6 -35 -6 -49c0 -35 13 -53 50 -53c18 0 46 4 68 12l8 -52c-43 -34 -105 -48 -161 -48c-95 0 -136 46 -136 109c0 25 3 48 10 81l19 93h-59l17 76h58l19 91h-59l12 57l71 23c19 50 48 110 92 142l117 8
c-15 -35 -33 -93 -46 -150h119z" />
    <glyph glyph-name="Utilde" unicode="&#x168;" horiz-adv-x="691" 
d="M512 228l67 346c2 12 4 23 4 31c0 31 -17 39 -54 39l10 53h217l-10 -53c-47 0 -67 -13 -78 -70l-67 -346c-30 -154 -106 -242 -269 -242c-172 0 -253 69 -255 192c0 28 3 59 9 92l59 304c2 12 4 23 4 31c0 31 -17 39 -54 39l10 53h311l-10 -53c-47 0 -67 -13 -78 -70
l-62 -317c-6 -33 -9 -61 -9 -84c1 -65 35 -95 112 -95c76 0 123 48 143 150zM545 873c29 0 57 9 75 47l38 -17c-18 -79 -62 -143 -119 -143c-58 0 -95 32 -139 32c-31 0 -54 -12 -73 -49l-36 16c10 79 56 149 115 149c58 0 89 -35 139 -35z" />
    <glyph glyph-name="utilde" unicode="&#x169;" horiz-adv-x="591" 
d="M323 88c-45 -69 -104 -102 -179 -102c-74 0 -111 40 -111 107c0 17 2 36 7 56l51 208c4 15 6 29 6 38c0 35 -21 49 -67 49l9 42c34 18 83 37 139 37c61 0 95 -26 95 -86c0 -14 -3 -32 -7 -51l-51 -210c-4 -15 -5 -27 -5 -37c0 -25 11 -34 31 -34c33 0 68 37 101 89
l68 322h166l-77 -371c-4 -17 -6 -31 -6 -40c0 -24 12 -33 45 -33c5 0 20 1 29 2l4 -45c-44 -25 -90 -38 -144 -38c-43 0 -72 11 -88 34c-11 15 -16 36 -16 63zM433 693c29 0 57 9 75 47l38 -17c-18 -79 -62 -143 -119 -143c-58 0 -95 32 -139 32c-31 0 -54 -12 -73 -49
l-36 16c10 79 56 149 115 149c58 0 89 -35 139 -35z" />
    <glyph glyph-name="Umacron" unicode="&#x16a;" horiz-adv-x="691" 
d="M512 228l67 346c2 12 4 23 4 31c0 31 -17 39 -54 39l10 53h217l-10 -53c-47 0 -67 -13 -78 -70l-67 -346c-30 -154 -106 -242 -269 -242c-172 0 -253 69 -255 192c0 28 3 59 9 92l59 304c2 12 4 23 4 31c0 31 -17 39 -54 39l10 53h311l-10 -53c-47 0 -67 -13 -78 -70
l-62 -317c-6 -33 -9 -61 -9 -84c1 -65 35 -95 112 -95c76 0 123 48 143 150zM617 775h-311l18 87h311z" />
    <glyph glyph-name="umacron" unicode="&#x16b;" horiz-adv-x="591" 
d="M323 88c-45 -69 -104 -102 -179 -102c-74 0 -111 40 -111 107c0 17 2 36 7 56l51 208c4 15 6 29 6 38c0 35 -21 49 -67 49l9 42c34 18 83 37 139 37c61 0 95 -26 95 -86c0 -14 -3 -32 -7 -51l-51 -210c-4 -15 -5 -27 -5 -37c0 -25 11 -34 31 -34c33 0 68 37 101 89
l68 322h166l-77 -371c-4 -17 -6 -31 -6 -40c0 -24 12 -33 45 -33c5 0 20 1 29 2l4 -45c-44 -25 -90 -38 -144 -38c-43 0 -72 11 -88 34c-11 15 -16 36 -16 63zM501 605h-311l18 87h311z" />
    <glyph glyph-name="Ubreve" unicode="&#x16c;" horiz-adv-x="691" 
d="M512 228l67 346c2 12 4 23 4 31c0 31 -17 39 -54 39l10 53h217l-10 -53c-47 0 -67 -13 -78 -70l-67 -346c-30 -154 -106 -242 -269 -242c-172 0 -253 69 -255 192c0 28 3 59 9 92l59 304c2 12 4 23 4 31c0 31 -17 39 -54 39l10 53h311l-10 -53c-47 0 -67 -13 -78 -70
l-62 -317c-6 -33 -9 -61 -9 -84c1 -65 35 -95 112 -95c76 0 123 48 143 150zM471 744c-106 0 -144 93 -150 178l43 15c20 -56 52 -80 114 -80s107 31 148 83l39 -22c-32 -81 -87 -174 -194 -174z" />
    <glyph glyph-name="ubreve" unicode="&#x16d;" horiz-adv-x="591" 
d="M323 88c-45 -69 -104 -102 -179 -102c-74 0 -111 40 -111 107c0 17 2 36 7 56l51 208c4 15 6 29 6 38c0 35 -21 49 -67 49l9 42c34 18 83 37 139 37c61 0 95 -26 95 -86c0 -14 -3 -32 -7 -51l-51 -210c-4 -15 -5 -27 -5 -37c0 -25 11 -34 31 -34c33 0 68 37 101 89
l68 322h166l-77 -371c-4 -17 -6 -31 -6 -40c0 -24 12 -33 45 -33c5 0 20 1 29 2l4 -45c-44 -25 -90 -38 -144 -38c-43 0 -72 11 -88 34c-11 15 -16 36 -16 63zM333 564c-106 0 -144 93 -150 178l43 15c20 -56 52 -80 114 -80s107 31 148 83l39 -22
c-32 -81 -87 -174 -194 -174z" />
    <glyph glyph-name="Uring" unicode="&#x16e;" horiz-adv-x="691" 
d="M512 228l67 346c2 12 4 23 4 31c0 31 -17 39 -54 39l10 53h217l-10 -53c-47 0 -67 -13 -78 -70l-67 -346c-30 -154 -106 -242 -269 -242c-172 0 -253 69 -255 192c0 28 3 59 9 92l59 304c2 12 4 23 4 31c0 31 -17 39 -54 39l10 53h311l-10 -53c-47 0 -67 -13 -78 -70
l-62 -317c-6 -33 -9 -61 -9 -84c1 -65 35 -95 112 -95c76 0 123 48 143 150zM471 723c-73 0 -119 52 -119 116c0 75 54 128 132 128c73 0 117 -53 117 -117c0 -75 -50 -127 -130 -127zM479 905c-35 0 -56 -27 -56 -63c0 -32 18 -54 49 -54c35 0 58 26 58 60
c0 33 -19 57 -51 57z" />
    <glyph glyph-name="uring" unicode="&#x16f;" horiz-adv-x="591" 
d="M323 88c-45 -69 -104 -102 -179 -102c-74 0 -111 40 -111 107c0 17 2 36 7 56l51 208c4 15 6 29 6 38c0 35 -21 49 -67 49l9 42c34 18 83 37 139 37c61 0 95 -26 95 -86c0 -14 -3 -32 -7 -51l-51 -210c-4 -15 -5 -27 -5 -37c0 -25 11 -34 31 -34c33 0 68 37 101 89
l68 322h166l-77 -371c-4 -17 -6 -31 -6 -40c0 -24 12 -33 45 -33c5 0 20 1 29 2l4 -45c-44 -25 -90 -38 -144 -38c-43 0 -72 11 -88 34c-11 15 -16 36 -16 63zM343 563c-73 0 -119 52 -119 116c0 75 54 128 132 128c73 0 117 -53 117 -117c0 -75 -50 -127 -130 -127z
M351 745c-35 0 -56 -27 -56 -63c0 -32 18 -54 49 -54c35 0 58 26 58 60c0 33 -19 57 -51 57z" />
    <glyph glyph-name="Uhungarumlaut" unicode="&#x170;" horiz-adv-x="691" 
d="M512 228l67 346c2 12 4 23 4 31c0 31 -17 39 -54 39l10 53h217l-10 -53c-47 0 -67 -13 -78 -70l-67 -346c-30 -154 -106 -242 -269 -242c-172 0 -253 69 -255 192c0 28 3 59 9 92l59 304c2 12 4 23 4 31c0 31 -17 39 -54 39l10 53h311l-10 -53c-47 0 -67 -13 -78 -70
l-62 -317c-6 -33 -9 -61 -9 -84c1 -65 35 -95 112 -95c76 0 123 48 143 150zM556 939l-161 -200l-52 21l80 228zM734 905l-181 -176l-46 26l102 224z" />
    <glyph glyph-name="uhungarumlaut" unicode="&#x171;" horiz-adv-x="591" 
d="M323 88c-45 -69 -104 -102 -179 -102c-74 0 -111 40 -111 107c0 17 2 36 7 56l51 208c4 15 6 29 6 38c0 35 -21 49 -67 49l9 42c34 18 83 37 139 37c61 0 95 -26 95 -86c0 -14 -3 -32 -7 -51l-51 -210c-4 -15 -5 -27 -5 -37c0 -25 11 -34 31 -34c33 0 68 37 101 89
l68 322h166l-77 -371c-4 -17 -6 -31 -6 -40c0 -24 12 -33 45 -33c5 0 20 1 29 2l4 -45c-44 -25 -90 -38 -144 -38c-43 0 -72 11 -88 34c-11 15 -16 36 -16 63zM430 760l-161 -200l-52 21l80 228zM608 726l-181 -176l-46 26l102 224z" />
    <glyph glyph-name="Uogonek" unicode="&#x172;" horiz-adv-x="691" 
d="M435 -128l18 -30c-32 -33 -78 -47 -131 -47c-59 0 -121 22 -121 85c0 49 45 81 111 106c-143 0 -233 72 -235 192c0 28 3 59 9 92l59 304c2 12 4 23 4 31c0 31 -17 39 -54 39l10 53h311l-10 -53c-47 0 -67 -13 -78 -70l-62 -317c-6 -33 -9 -61 -9 -84
c1 -65 35 -95 112 -95c76 0 123 48 143 150l67 346c2 12 4 23 4 31c0 31 -17 39 -54 39l10 53h217l-10 -53c-47 0 -67 -13 -78 -70l-67 -346c-21 -109 -64 -179 -146 -217l-18 -8c-60 -27 -97 -44 -97 -101c0 -32 23 -44 46 -44c18 0 29 3 49 14z" />
    <glyph glyph-name="uogonek" unicode="&#x173;" horiz-adv-x="591" 
d="M567 74l4 -45c-50 -29 -162 -53 -162 -127c0 -32 23 -44 46 -44c18 0 29 3 49 14l18 -30c-32 -33 -78 -47 -131 -47c-59 0 -121 22 -121 85c0 53 48 87 124 115c-21 5 -37 14 -49 28c-14 16 -22 38 -22 65c-45 -69 -104 -102 -179 -102c-74 0 -111 40 -111 107
c0 17 2 36 7 56l51 208c4 15 6 29 6 38c0 35 -21 49 -67 49l9 42c34 18 83 37 139 37c61 0 95 -26 95 -86c0 -14 -3 -32 -7 -51l-51 -210c-4 -15 -5 -27 -5 -37c0 -25 11 -34 31 -34c33 0 68 37 101 89l68 322h166l-77 -371c-4 -17 -6 -31 -6 -40c0 -24 12 -33 45 -33
c5 0 20 1 29 2z" />
    <glyph glyph-name="Wcircumflex" unicode="&#x174;" horiz-adv-x="948" 
d="M523 0l-15 282c-1 16 -1 32 -1 48c0 50 3 95 5 107h-6c-4 -15 -22 -83 -49 -144l-128 -293h-173l-32 587c-3 47 -16 52 -49 57l10 53h297l-10 -53c-45 0 -62 -17 -62 -47v-3l8 -313v-21c0 -33 -2 -68 -4 -108h6c4 14 21 79 43 132l166 413h131l19 -448
c2 -36 -2 -84 -3 -96h6c8 35 27 95 41 130l119 310c4 10 6 18 6 25c0 21 -20 26 -51 26l10 53h226l-10 -53c-41 -5 -60 -10 -80 -56l-248 -588h-172zM754 731l-139 77l-170 -75l-22 38l218 183l139 -189z" />
    <glyph glyph-name="wcircumflex" unicode="&#x175;" horiz-adv-x="792" 
d="M394 324l-147 -324h-138l-31 362c-6 65 -9 85 -73 85l8 42c27 17 84 34 128 34c54 0 83 -26 90 -91l15 -151c2 -19 3 -38 3 -52c-1 -36 -4 -60 -8 -72h6l148 359h130l17 -234c3 -41 3 -66 3 -87s-1 -34 -1 -38h6c20 41 51 101 61 124c47 105 58 164 60 242l146 -13v-47
l-278 -463h-129l-15 203c-1 17 -2 32 -2 46c0 34 4 67 5 75h-4zM622 552l-139 77l-170 -75l-22 38l218 183l139 -189z" />
    <glyph glyph-name="Ycircumflex" unicode="&#x176;" horiz-adv-x="643" 
d="M375 347h6l145 239c7 12 12 23 12 32c0 15 -12 26 -42 26l10 53h222l-10 -53c-41 -5 -53 -12 -82 -56l-226 -333l-26 -135c-2 -12 -3 -22 -3 -30c0 -32 18 -40 63 -40l-9 -50h-331l9 50c57 0 77 13 88 70l26 134l-95 334c-13 46 -24 51 -57 56l10 53h289l-10 -53
c-36 0 -48 -17 -48 -40c0 -6 1 -12 2 -18zM598 731l-139 77l-170 -75l-22 38l218 183l139 -189z" />
    <glyph glyph-name="ycircumflex" unicode="&#x177;" horiz-adv-x="505" 
d="M188 18l-75 -3c-2 58 -6 122 -17 203l-22 160c-9 66 -25 69 -69 69l8 43c27 13 75 33 128 33c69 0 88 -41 99 -135l13 -107c4 -29 5 -56 5 -79c0 -53 -7 -89 -9 -99h6l38 85c82 184 91 263 91 335l146 -13v-46l-255 -473c-68 -125 -154 -180 -259 -196l-71 115
c99 15 203 29 243 108zM458 552l-139 77l-170 -75l-22 38l218 183l139 -189z" />
    <glyph glyph-name="Ydieresis" unicode="&#x178;" horiz-adv-x="643" 
d="M375 347h6l145 239c7 12 12 23 12 32c0 15 -12 26 -42 26l10 53h222l-10 -53c-41 -5 -53 -12 -82 -56l-226 -333l-26 -135c-2 -12 -3 -22 -3 -30c0 -32 18 -40 63 -40l-9 -50h-331l9 50c57 0 77 13 88 70l26 134l-95 334c-13 46 -24 51 -57 56l10 53h289l-10 -53
c-36 0 -48 -17 -48 -40c0 -6 1 -12 2 -18zM415 830c0 -49 -41 -89 -92 -89c-50 0 -91 40 -91 89c0 50 42 90 93 90s90 -40 90 -90zM644 830c0 -49 -41 -89 -92 -89c-50 0 -91 40 -91 89c0 50 42 90 93 90s90 -40 90 -90z" />
    <glyph glyph-name="Zacute" unicode="&#x179;" horiz-adv-x="579" 
d="M618 641l-411 -567h112c77 0 107 33 145 123h88l-48 -197h-534l10 56l415 569h-95c-67 0 -92 -35 -127 -113h-92l44 185h504zM279 721l-25 39l211 180l74 -146z" />
    <glyph glyph-name="zacute" unicode="&#x17a;" horiz-adv-x="500" 
d="M509 441l-339 -301c24 4 45 6 63 6c49 0 79 -11 104 -11c57 0 74 9 98 63l44 -13c-22 -160 -84 -199 -168 -199c-97 0 -109 48 -183 48c-32 0 -54 -9 -76 -34h-62l15 74l325 293c-70 2 -92 8 -126 8c-39 0 -77 -6 -93 -62l-51 10c6 127 64 200 167 200
c84 0 128 -47 171 -47c27 0 38 8 71 40h56zM220 554l-28 36l192 200l88 -139z" />
    <glyph glyph-name="Zdotaccent" unicode="&#x17b;" horiz-adv-x="579" 
d="M618 641l-411 -567h112c77 0 107 33 145 123h88l-48 -197h-534l10 56l415 569h-95c-67 0 -92 -35 -127 -113h-92l44 185h504zM484 836c0 -51 -43 -93 -96 -93c-52 0 -95 42 -95 93c0 52 44 94 97 94s94 -42 94 -94z" />
    <glyph glyph-name="zdotaccent" unicode="&#x17c;" horiz-adv-x="500" 
d="M509 441l-339 -301c24 4 45 6 63 6c49 0 79 -11 104 -11c57 0 74 9 98 63l44 -13c-22 -160 -84 -199 -168 -199c-97 0 -109 48 -183 48c-32 0 -54 -9 -76 -34h-62l15 74l325 293c-70 2 -92 8 -126 8c-39 0 -77 -6 -93 -62l-51 10c6 127 64 200 167 200
c84 0 128 -47 171 -47c27 0 38 8 71 40h56zM425 656c0 -51 -43 -93 -96 -93c-52 0 -95 42 -95 93c0 52 44 94 97 94s94 -42 94 -94z" />
    <glyph glyph-name="Zcaron" unicode="&#x17d;" horiz-adv-x="579" 
d="M618 641l-411 -567h112c77 0 107 33 145 123h88l-48 -197h-534l10 56l415 569h-95c-67 0 -92 -35 -127 -113h-92l44 185h504zM246 955l139 -77l170 75l22 -38l-218 -183l-139 189z" />
    <glyph glyph-name="zcaron" unicode="&#x17e;" horiz-adv-x="500" 
d="M509 441l-339 -301c24 4 45 6 63 6c49 0 79 -11 104 -11c57 0 74 9 98 63l44 -13c-22 -160 -84 -199 -168 -199c-97 0 -109 48 -183 48c-32 0 -54 -9 -76 -34h-62l15 74l325 293c-70 2 -92 8 -126 8c-39 0 -77 -6 -93 -62l-51 10c6 127 64 200 167 200
c84 0 128 -47 171 -47c27 0 38 8 71 40h56zM193 775l137 -77l172 75l22 -38l-218 -183l-139 189z" />
    <glyph glyph-name="longs" unicode="&#x17f;" horiz-adv-x="372" 
d="M323 616l-133 -653c-22 -108 -100 -151 -195 -151c-48 0 -72 9 -90 18v41c84 5 103 27 118 106l90 459h-63l15 57l66 22l14 59c25 105 115 160 220 160c54 0 112 -9 147 -26l-18 -101h-102c0 39 -7 55 -32 55c-16 0 -29 -9 -37 -46z" />
    <glyph glyph-name="uni018F" unicode="&#x18f;" horiz-adv-x="651" 
d="M20 172c0 196 200 232 388 232h33c3 13 4 36 4 58c0 79 -35 128 -130 128c-69 0 -128 -26 -189 -79l-42 55c79 96 182 144 299 144c181 0 248 -98 248 -265c0 -255 -156 -459 -376 -459c-140 0 -235 49 -235 186zM205 139c0 -52 23 -79 59 -79c69 0 123 85 159 268
c-18 0 -35 -1 -51 -3c-101 -14 -167 -71 -167 -186z" />
    <glyph glyph-name="florin" unicode="&#x192;" horiz-adv-x="453" 
d="M52 361l17 64l76 13l23 76c42 138 121 195 261 195c74 0 123 -13 156 -33l-31 -113h-98c2 14 2 26 2 36c0 29 -8 42 -34 42c-30 0 -52 -18 -70 -84l-34 -122h116l-14 -74h-122l-105 -381c-32 -114 -135 -169 -299 -171l3 44c65 15 98 36 120 117l105 391h-72z" />
    <glyph glyph-name="uni01B5" unicode="&#x1b5;" horiz-adv-x="579" 
d="M618 641l-171 -236h96l-10 -81h-145l-181 -250h112c77 0 107 33 145 123h88l-48 -197h-534l10 56l195 268h-99l10 81h148l161 220h-95c-67 0 -92 -35 -127 -113h-92l44 185h504z" />
    <glyph glyph-name="uni01B6" unicode="&#x1b6;" horiz-adv-x="500" 
d="M509 441l-180 -160h89l-10 -45h-130l-108 -96c24 4 45 6 63 6c49 0 79 -11 104 -11c57 0 74 9 98 63l44 -13c-22 -160 -84 -199 -168 -199c-97 0 -109 48 -183 48c-32 0 -54 -9 -76 -34h-62l15 74l179 162h-79l10 45h119l96 86c-70 2 -92 8 -126 8c-39 0 -77 -6 -93 -62
l-51 10c6 127 64 200 167 200c84 0 128 -47 171 -47c27 0 38 8 71 40h56z" />
    <glyph glyph-name="Aringacute" unicode="&#x1fa;" horiz-adv-x="650" 
d="M379 98l-10 77h-207l-32 -68c-5 -12 -8 -21 -8 -29c0 -17 14 -26 51 -28l-9 -50h-224l9 50c41 5 57 13 81 59l304 588h138l100 -588c8 -46 15 -54 48 -59l-9 -50h-304l9 50c52 2 64 13 64 35c0 4 0 5 -1 13zM286 435l-84 -175h155l-22 170c-6 43 -6 64 -6 88h-6
c-8 -20 -17 -41 -37 -83zM400 723c-73 0 -119 52 -119 116c0 75 54 128 132 128c73 0 117 -53 117 -117c0 -75 -50 -127 -130 -127zM408 905c-35 0 -56 -27 -56 -63c0 -32 18 -54 49 -54c35 0 58 26 58 60c0 33 -19 57 -51 57zM301 967l-25 39l211 180l74 -146z" />
    <glyph glyph-name="aringacute" unicode="&#x1fb;" horiz-adv-x="593" 
d="M338 196l56 237c-11 11 -24 14 -43 14c-84 0 -157 -159 -157 -285c0 -49 11 -69 33 -69c33 0 72 44 111 103zM322 93c-42 -66 -99 -107 -173 -107c-81 0 -129 52 -129 148c0 203 151 395 324 395c60 0 91 -26 100 -59c11 20 26 35 41 46h107c-13 -30 -28 -73 -41 -128
l-55 -243c-4 -17 -7 -30 -7 -41c0 -23 12 -32 44 -32c9 0 23 1 31 2l4 -45c-44 -25 -90 -38 -144 -38c-48 0 -77 15 -91 45c-7 15 -11 34 -11 57zM389 551c-73 0 -119 52 -119 116c0 75 54 128 132 128c73 0 117 -53 117 -117c0 -75 -50 -127 -130 -127zM397 733
c-35 0 -56 -27 -56 -63c0 -32 18 -54 49 -54c35 0 58 26 58 60c0 33 -19 57 -51 57zM297 800l-25 39l211 180l74 -146z" />
    <glyph glyph-name="AEacute" unicode="&#x1fc;" horiz-adv-x="939" 
d="M402 120l21 111h-191l-88 -124c-10 -14 -16 -25 -16 -34c0 -13 13 -21 45 -23l-9 -50h-224l9 50c41 5 65 16 95 59l326 465c11 14 16 26 16 36c0 22 -23 34 -56 34l10 53h624l-22 -177h-88c-8 76 -13 97 -89 97h-84l-44 -230h48c62 0 79 14 95 71h77l-43 -218h-77
c7 54 -4 71 -66 71h-49l-46 -237h105c62 0 93 23 119 116h89l-36 -190h-538l9 50c47 0 67 13 78 70zM507 616l-213 -299h146l16 79c24 125 51 204 57 220h-6zM576 721l-25 39l211 180l74 -146z" />
    <glyph glyph-name="aeacute" unicode="&#x1fd;" horiz-adv-x="809" 
d="M799 386c0 -141 -152 -163 -287 -163h-30c-2 -10 -3 -35 -3 -51c0 -50 26 -85 88 -85c55 0 99 13 146 53l33 -46c-61 -72 -141 -108 -231 -108c-83 0 -142 29 -175 80c-31 -39 -86 -80 -164 -80c-92 0 -151 52 -151 141c0 123 105 174 269 174h33l9 50c4 22 7 40 7 54
c0 37 -15 50 -47 50c-46 0 -68 -22 -83 -78h-122l20 108c52 27 119 44 205 44c56 0 113 -14 140 -49c45 31 103 49 158 49c108 0 185 -37 185 -143zM644 410c0 30 -16 47 -41 47c-47 0 -89 -57 -110 -164c90 0 151 26 151 117zM309 186c0 11 1 35 4 47h-15
c-59 0 -100 -18 -100 -80c0 -40 16 -64 53 -64c27 0 49 11 66 25c-6 24 -8 43 -8 72zM387 554l-28 36l192 200l88 -139z" />
    <glyph glyph-name="Oslashacute" unicode="&#x1fe;" horiz-adv-x="716" 
d="M680 703l-61 -80c46 -51 72 -122 72 -207c0 -210 -114 -430 -368 -430c-65 0 -118 16 -160 43l-59 -77l-47 33l62 82c-50 54 -75 130 -75 211c0 201 121 431 365 431c65 0 122 -17 166 -47l57 74zM409 629c-45 0 -75 -19 -95 -51c-60 -97 -85 -251 -85 -368l267 349
c-12 47 -39 70 -87 70zM423 112c57 83 82 249 82 363l-266 -347c14 -42 40 -66 83 -66c46 0 77 15 101 50zM353 721l-25 39l211 180l74 -146z" />
    <glyph glyph-name="oslashacute" unicode="&#x1ff;" horiz-adv-x="567" 
d="M544 529l-50 -62c33 -34 52 -84 52 -151c0 -168 -89 -330 -300 -330c-47 0 -87 10 -120 28l-51 -63l-40 30l51 63c-37 36 -57 89 -57 153c0 157 90 332 296 332c49 0 94 -10 130 -31l49 61zM242 390c-19 -53 -36 -133 -42 -206l175 216c-5 40 -24 58 -54 58
c-32 0 -60 -15 -79 -68zM251 56c26 0 59 9 81 69c16 43 34 119 41 193l-175 -215c5 -32 25 -47 53 -47zM250 554l-28 36l192 200l88 -139z" />
    <glyph glyph-name="Scommaaccent" unicode="&#x218;" horiz-adv-x="551" 
d="M235 -14c-133 0 -210 36 -240 63l26 143h118c-1 -97 30 -142 104 -142c60 0 107 31 107 107c0 56 -23 80 -87 107l-67 28c-76 32 -126 91 -126 186c0 144 109 231 268 231c133 0 194 -37 222 -53l-28 -147h-114c3 93 -29 130 -95 130c-61 0 -101 -37 -101 -94
c0 -50 33 -75 75 -93l72 -30c90 -37 151 -81 151 -195c0 -159 -125 -241 -285 -241zM300 -129c0 -95 -102 -147 -190 -161l-18 38c54 17 94 33 94 58c0 10 -4 17 -20 24c-19 9 -37 25 -37 62c0 40 33 72 84 72c57 0 87 -45 87 -93z" />
    <glyph glyph-name="scommaaccent" unicode="&#x219;" horiz-adv-x="470" 
d="M181 -14c-96 0 -152 25 -181 47l18 111h103c0 -53 22 -86 75 -86c45 0 84 11 84 61c0 33 -22 47 -61 59l-40 12c-73 22 -120 64 -120 149c0 125 98 190 227 190c86 0 140 -22 175 -39l-19 -113h-100c0 51 -17 83 -69 83c-40 0 -79 -21 -79 -63c0 -27 24 -40 59 -50
l40 -12c93 -28 134 -72 134 -155c0 -122 -89 -194 -246 -194zM260 -129c0 -95 -102 -147 -190 -161l-18 38c54 17 94 33 94 58c0 10 -4 17 -20 24c-19 9 -37 25 -37 62c0 40 33 72 84 72c57 0 87 -45 87 -93z" />
    <glyph glyph-name="uni021A" unicode="&#x21a;" horiz-adv-x="634" 
d="M110 697h579l-26 -197h-87c-7 94 -12 117 -72 117h-29l-96 -497c-2 -12 -3 -22 -3 -30c0 -32 18 -40 63 -40l-9 -50h-331l9 50c57 0 77 13 88 70l96 497h-29c-66 0 -78 -31 -116 -117h-87zM334 -129c0 -95 -102 -147 -190 -161l-18 38c54 17 94 33 94 58
c0 10 -4 17 -20 24c-19 9 -37 25 -37 62c0 40 33 72 84 72c57 0 87 -45 87 -93z" />
    <glyph glyph-name="uni021B" unicode="&#x21b;" horiz-adv-x="372" 
d="M412 516l-31 -80h-106l-56 -260c-4 -20 -6 -35 -6 -49c0 -35 13 -53 50 -53c18 0 46 4 68 12l8 -52c-43 -34 -105 -48 -161 -48c-95 0 -136 46 -136 109c0 25 3 48 10 81l54 260h-59l12 57l71 23c19 50 48 110 92 142l117 8c-15 -35 -33 -93 -46 -150h119zM215 -129
c0 -95 -102 -147 -190 -161l-18 38c54 17 94 33 94 58c0 10 -4 17 -20 24c-19 9 -37 25 -37 62c0 40 33 72 84 72c57 0 87 -45 87 -93z" />
    <glyph glyph-name="uni0237" unicode="&#x237;" horiz-adv-x="292" 
d="M269 386l-80 -390c-25 -121 -101 -174 -278 -199l-16 61c87 25 110 52 131 157l68 342c3 15 4 27 4 37c0 36 -18 50 -65 50l9 42c34 18 83 37 139 37c62 0 94 -26 94 -86c0 -15 -2 -32 -6 -51z" />
    <glyph glyph-name="uni0259" unicode="&#x259;" horiz-adv-x="530" 
d="M18 129c0 144 157 171 294 171h23c2 10 3 27 3 43c0 50 -26 85 -88 85c-55 0 -99 -13 -146 -53l-33 46c61 72 141 108 231 108c140 0 207 -74 207 -200c0 -190 -136 -343 -306 -343c-108 0 -185 37 -185 143zM173 105c0 -30 16 -47 41 -47c47 0 89 67 110 174
c-20 0 -38 -2 -55 -6c-59 -13 -96 -50 -96 -121z" />
    <glyph glyph-name="uni02BB" unicode="&#x2bb;" horiz-adv-x="253" 
d="M60 491c0 111 100 195 219 219l24 -42c-74 -20 -117 -57 -117 -92c0 -18 7 -27 27 -36c25 -11 50 -26 50 -70c0 -48 -39 -88 -96 -88c-76 0 -107 53 -107 109z" />
    <glyph glyph-name="afii57929" unicode="&#x2bc;" horiz-adv-x="253" 
d="M303 600c0 -111 -100 -195 -219 -219l-24 42c74 20 117 57 117 92c0 18 -7 27 -27 36c-25 11 -50 26 -50 70c0 48 39 88 96 88c76 0 107 -53 107 -109z" />
    <glyph glyph-name="circumflex" unicode="&#x2c6;" horiz-adv-x="517" 
d="M411 552l-139 77l-170 -75l-22 38l218 183l139 -189z" />
    <glyph glyph-name="caron" unicode="&#x2c7;" horiz-adv-x="517" 
d="M106 775l137 -77l172 75l22 -38l-218 -183l-139 189z" />
    <glyph glyph-name="breve" unicode="&#x2d8;" horiz-adv-x="504" 
d="M230 564c-106 0 -144 93 -150 178l43 15c20 -56 52 -80 114 -80s107 31 148 83l39 -22c-32 -81 -87 -174 -194 -174z" />
    <glyph glyph-name="dotaccent" unicode="&#x2d9;" horiz-adv-x="351" 
d="M271 656c0 -51 -43 -93 -96 -93c-52 0 -95 42 -95 93c0 52 44 94 97 94s94 -42 94 -94z" />
    <glyph glyph-name="ring" unicode="&#x2da;" horiz-adv-x="410" 
d="M200 563c-73 0 -119 52 -119 116c0 75 54 128 132 128c73 0 117 -53 117 -117c0 -75 -50 -127 -130 -127zM208 745c-35 0 -56 -27 -56 -63c0 -32 18 -54 49 -54c35 0 58 26 58 60c0 33 -19 57 -51 57z" />
    <glyph glyph-name="ogonek" unicode="&#x2db;" horiz-adv-x="415" 
d="M314 -128l18 -30c-32 -33 -78 -47 -131 -47c-59 0 -121 22 -121 85c0 73 80 109 224 146l16 -23c-68 -27 -101 -63 -101 -101c0 -32 23 -44 46 -44c18 0 29 3 49 14z" />
    <glyph glyph-name="tilde" unicode="&#x2dc;" horiz-adv-x="527" 
d="M334 693c29 0 57 9 75 47l38 -17c-18 -79 -62 -143 -119 -143c-58 0 -95 32 -139 32c-31 0 -54 -12 -73 -49l-36 16c10 79 56 149 115 149c58 0 89 -35 139 -35z" />
    <glyph glyph-name="hungarumlaut" unicode="&#x2dd;" horiz-adv-x="551" 
d="M293 760l-161 -200l-52 21l80 228zM471 726l-181 -176l-46 26l102 224z" />
    <glyph glyph-name="gravecomb" unicode="&#x300;" 
d="M-90 590l-28 -36l-252 97l88 139z" />
    <glyph glyph-name="acutecomb" unicode="&#x301;" 
d="M-317 554l-28 36l192 200l88 -139z" />
    <glyph glyph-name="uni0302" unicode="&#x302;" 
d="M-70 552l-139 77l-170 -75l-22 38l218 183l139 -189z" />
    <glyph glyph-name="tildecomb" unicode="&#x303;" 
d="M-147 693c29 0 57 9 75 47l38 -17c-18 -79 -62 -143 -119 -143c-58 0 -95 32 -139 32c-31 0 -54 -12 -73 -49l-36 16c10 79 56 149 115 149c58 0 89 -35 139 -35z" />
    <glyph glyph-name="uni0304" unicode="&#x304;" 
d="M-97 617h-311l18 87h311z" />
    <glyph glyph-name="uni0306" unicode="&#x306;" 
d="M-273 552c-106 0 -144 93 -150 178l43 15c20 -56 52 -80 114 -80s107 31 148 83l39 -22c-32 -81 -87 -174 -194 -174z" />
    <glyph glyph-name="uni0307" unicode="&#x307;" 
d="M12 660c0 -51 -43 -92 -95 -92c-51 0 -94 41 -94 92s43 93 96 93c52 0 93 -42 93 -93z" />
    <glyph glyph-name="uni0308" unicode="&#x308;" 
d="M-308 650c0 -49 -41 -89 -92 -89c-50 0 -91 40 -91 89c0 50 42 90 93 90s90 -40 90 -90zM-79 650c0 -49 -41 -89 -92 -89c-50 0 -91 40 -91 89c0 50 42 90 93 90s90 -40 90 -90z" />
    <glyph glyph-name="uni030A" unicode="&#x30a;" 
d="M-209 563c-73 0 -119 52 -119 116c0 75 54 128 132 128c73 0 117 -53 117 -117c0 -75 -50 -127 -130 -127zM-201 745c-35 0 -56 -27 -56 -63c0 -32 18 -54 49 -54c35 0 58 26 58 60c0 33 -19 57 -51 57z" />
    <glyph glyph-name="uni030B" unicode="&#x30b;" 
d="M-257 764l-161 -200l-52 21l80 228zM-79 730l-181 -176l-46 26l102 224z" />
    <glyph glyph-name="uni030C" unicode="&#x30c;" 
d="M-306 775l137 -77l172 75l22 -38l-218 -183l-139 189z" />
    <glyph glyph-name="uni0312" unicode="&#x312;" 
d="M-284 646c0 96 102 147 190 161l18 -38c-54 -17 -94 -33 -94 -58c0 -10 4 -17 20 -24c19 -9 37 -25 37 -62c0 -40 -33 -72 -84 -72c-57 0 -87 45 -87 93z" />
    <glyph glyph-name="uni0313" unicode="&#x313;" 
d="M-96 728l-79 -172l-67 8l22 176z" />
    <glyph glyph-name="dotbelowcomb" unicode="&#x323;" 
d="M243 -140c0 -54 -45 -98 -101 -98c-54 0 -99 44 -99 98s46 98 102 98c55 0 98 -44 98 -98z" />
    <glyph glyph-name="uni0326" unicode="&#x326;" 
d="M281 -129c0 -95 -102 -147 -190 -161l-18 38c54 17 94 33 94 58c0 10 -4 17 -20 24c-19 9 -37 25 -37 62c0 40 33 72 84 72c57 0 87 -45 87 -93z" />
    <glyph glyph-name="uni0327" unicode="&#x327;" 
d="M-79 -121c0 -62 -49 -85 -126 -85c-50 0 -87 12 -106 25l17 42c22 -14 46 -19 68 -19s34 7 34 25c0 22 -21 30 -55 31l1 21l44 100l48 -6l-26 -55c66 -4 101 -30 101 -79z" />
    <glyph glyph-name="uni0328" unicode="&#x328;" 
d="M-100 -129l18 -30c-32 -33 -78 -47 -131 -47c-59 0 -121 22 -121 85c0 73 80 109 224 146l16 -23c-68 -27 -101 -63 -101 -101c0 -32 23 -44 46 -44c18 0 29 3 49 14z" />
    <glyph glyph-name="uni0335" unicode="&#x335;" 
d="M-97 214h-311l18 87h311z" />
    <glyph glyph-name="uni0336" unicode="&#x336;" 
d="M-58 201h-714l24 113h714z" />
    <glyph glyph-name="uni037E" unicode="&#x37e;" horiz-adv-x="287" 
d="M262 373c0 -57 -47 -103 -103 -103s-102 46 -102 103c0 55 46 101 102 101s103 -46 103 -101zM218 67c0 -111 -100 -195 -219 -219l-24 42c74 20 117 57 117 92c0 18 -7 27 -27 36c-25 11 -50 26 -50 70c0 48 39 88 96 88c72 0 107 -53 107 -109z" />
    <glyph glyph-name="tonos" unicode="&#x384;" horiz-adv-x="392" 
d="M205 557l-100 4l60 214l148 -31z" />
    <glyph glyph-name="dieresistonos" unicode="&#x385;" horiz-adv-x="490" 
d="M169 645c0 -44 -37 -80 -83 -80c-45 0 -81 36 -81 80c0 45 37 81 83 81s81 -36 81 -81zM485 645c0 -44 -37 -80 -82 -80s-82 36 -82 80c0 45 37 81 83 81s81 -36 81 -81zM267 567l-90 4l28 227l136 -40z" />
    <glyph glyph-name="Alphatonos" unicode="&#x386;" horiz-adv-x="650" 
d="M379 98l-10 77h-207l-32 -68c-5 -12 -8 -21 -8 -29c0 -17 14 -26 51 -28l-9 -50h-224l9 50c41 5 57 13 81 59l304 588h138l100 -588c8 -46 15 -54 48 -59l-9 -50h-304l9 50c52 2 64 13 64 35c0 4 0 5 -1 13zM286 435l-84 -175h155l-22 170c-6 43 -6 64 -6 88h-6
c-8 -20 -17 -41 -37 -83zM149 497l-100 4l57 214l148 -31z" />
    <glyph glyph-name="anoteleia" unicode="&#x387;" horiz-adv-x="295" 
d="M255 294c0 -57 -47 -103 -103 -103s-102 46 -102 103c0 55 46 101 102 101s103 -46 103 -101z" />
    <glyph glyph-name="Epsilontonos" unicode="&#x388;" horiz-adv-x="604" 
d="M629 697l-22 -177h-88c-8 76 -13 97 -89 97h-84l-44 -230h48c62 0 79 14 95 71h77l-43 -218h-77c1 7 2 17 2 24c0 35 -16 47 -68 47h-49l-46 -237h105c62 0 93 23 119 116h89l-36 -190h-538l9 50c47 0 67 13 78 70l88 454c2 12 4 23 4 31c0 31 -17 39 -54 39l10 53h514z
M-17 497l-100 4l57 214l148 -31z" />
    <glyph glyph-name="Etatonos" unicode="&#x389;" horiz-adv-x="772" 
d="M468 120l37 190h-218l-37 -190c-2 -12 -4 -23 -4 -31c0 -31 17 -39 54 -39l-9 -50h-311l9 50c47 0 67 13 78 70l88 454c2 12 4 23 4 31c0 31 -17 39 -54 39l10 53h311l-10 -53c-47 0 -67 -13 -78 -70l-35 -179h218l35 179c2 12 4 23 4 31c0 31 -17 39 -54 39l10 53h311
l-10 -53c-47 0 -67 -13 -78 -70l-88 -454c-2 -12 -4 -23 -4 -31c0 -31 17 -39 54 -39l-9 -50h-311l9 50c47 0 67 13 78 70zM-17 497l-100 4l57 214l148 -31z" />
    <glyph glyph-name="Iotatonos" unicode="&#x38a;" horiz-adv-x="371" 
d="M67 120l88 454c2 12 4 23 4 31c0 31 -17 39 -54 39l10 53h311l-10 -53c-47 0 -67 -13 -78 -70l-88 -454c-2 -12 -4 -23 -4 -31c0 -31 17 -39 54 -39l-9 -50h-311l9 50c47 0 67 13 78 70zM-17 497l-100 4l57 214l148 -31z" />
    <glyph glyph-name="Omicrontonos" unicode="&#x38c;" horiz-adv-x="716" 
d="M323 -14c-187 0 -279 127 -279 292c0 201 121 431 365 431c173 0 282 -107 282 -293c0 -210 -114 -430 -368 -430zM409 629c-45 0 -71 -19 -91 -51c-60 -97 -83 -252 -83 -369c0 -90 25 -147 87 -147c46 0 73 15 97 50c57 83 80 249 80 362c0 105 -21 155 -90 155z
M27 497l-100 4l57 214l148 -31z" />
    <glyph glyph-name="Upsilontonos" unicode="&#x38e;" horiz-adv-x="643" 
d="M375 347h6l145 239c7 12 12 23 12 32c0 15 -12 26 -42 26l10 53h222l-10 -53c-41 -5 -53 -12 -82 -56l-226 -333l-26 -135c-2 -12 -3 -22 -3 -30c0 -32 18 -40 63 -40l-9 -50h-331l9 50c57 0 77 13 88 70l26 134l-95 334c-13 46 -24 51 -57 56l10 53h289l-10 -53
c-36 0 -48 -17 -48 -40c0 -6 1 -12 2 -18zM-54 497l-100 4l57 214l148 -31z" />
    <glyph glyph-name="Omegatonos" unicode="&#x38f;" horiz-adv-x="759" 
d="M444 634c-140 0 -184 -193 -184 -351c0 -82 13 -142 56 -185l-20 -98h-296l20 172h71c0 -71 41 -74 103 -74h35c-71 43 -154 139 -154 263c0 184 138 348 376 348c185 0 283 -102 283 -254c0 -182 -167 -314 -275 -357h35c62 0 102 3 134 74h68l-46 -172h-296l20 98
c104 74 175 223 175 415c0 75 -24 121 -105 121zM46 497l-100 4l57 214l148 -31z" />
    <glyph glyph-name="iotadieresistonos" unicode="&#x390;" horiz-adv-x="312" 
d="M285 525l-79 -362c-8 -34 -11 -49 -11 -59c0 -23 12 -32 44 -32c9 0 19 1 31 2l4 -45c-44 -25 -90 -38 -144 -38c-73 0 -105 35 -105 97c0 18 2 34 8 61l48 225c11 52 17 96 20 129l154 22h30zM140 645c0 -44 -37 -80 -83 -80c-45 0 -81 36 -81 80c0 45 37 81 83 81
s81 -36 81 -81zM456 645c0 -44 -37 -80 -82 -80s-82 36 -82 80c0 45 37 81 83 81s81 -36 81 -81zM238 567l-90 4l28 227l136 -40z" />
    <glyph glyph-name="Alpha" unicode="&#x391;" horiz-adv-x="650" 
d="M379 98l-10 77h-207l-32 -68c-5 -12 -8 -21 -8 -29c0 -17 14 -26 51 -28l-9 -50h-224l9 50c41 5 57 13 81 59l304 588h138l100 -588c8 -46 15 -54 48 -59l-9 -50h-304l9 50c52 2 64 13 64 35c0 4 0 5 -1 13zM286 435l-84 -175h155l-22 170c-6 43 -6 64 -6 88h-6
c-8 -20 -17 -41 -37 -83z" />
    <glyph glyph-name="Beta" unicode="&#x392;" horiz-adv-x="656" 
d="M346 617l-44 -229h24c47 0 76 4 98 26c26 25 40 71 40 120c0 70 -30 83 -86 83h-32zM353 311h-66l-46 -237h33c54 0 86 2 113 20c34 23 49 75 49 125c0 70 -27 92 -83 92zM460 355v-4c111 -9 164 -63 164 -144c0 -94 -53 -159 -137 -184c-65 -20 -126 -23 -196 -23h-311
l9 50c47 0 67 13 78 70l88 454c2 12 4 23 4 31c0 31 -17 39 -54 39l10 53h324c131 0 217 -45 217 -157c0 -114 -92 -178 -196 -185z" />
    <glyph glyph-name="Gamma" unicode="&#x393;" horiz-adv-x="577" 
d="M346 617l-96 -493c-3 -14 -5 -25 -5 -33c0 -33 20 -41 74 -41l-9 -50h-330l9 50c46 0 66 13 77 70l88 454c3 15 4 22 4 31c0 31 -17 39 -54 39l10 53h518l-25 -195h-88c-4 90 -9 115 -85 115h-88z" />
    <glyph glyph-name="uni0394" unicode="&#x394;" horiz-adv-x="615" 
d="M550 0h-580l10 55l340 642h134l106 -642zM89 76h281l-46 336c-3 23 -6 44 -7 63c-1 16 -2 32 -2 47h-6c-4 -13 -20 -53 -50 -112z" />
    <glyph glyph-name="Epsilon" unicode="&#x395;" horiz-adv-x="604" 
d="M629 697l-22 -177h-88c-8 76 -13 97 -89 97h-84l-44 -230h48c62 0 79 14 95 71h77l-43 -218h-77c1 7 2 17 2 24c0 35 -16 47 -68 47h-49l-46 -237h105c62 0 93 23 119 116h89l-36 -190h-538l9 50c47 0 67 13 78 70l88 454c2 12 4 23 4 31c0 31 -17 39 -54 39l10 53h514z
" />
    <glyph glyph-name="Zeta" unicode="&#x396;" horiz-adv-x="579" 
d="M618 641l-411 -567h112c77 0 107 33 145 123h88l-48 -197h-534l10 56l415 569h-95c-67 0 -92 -35 -127 -113h-92l44 185h504z" />
    <glyph glyph-name="Eta" unicode="&#x397;" horiz-adv-x="772" 
d="M468 120l37 190h-218l-37 -190c-2 -12 -4 -23 -4 -31c0 -31 17 -39 54 -39l-9 -50h-311l9 50c47 0 67 13 78 70l88 454c2 12 4 23 4 31c0 31 -17 39 -54 39l10 53h311l-10 -53c-47 0 -67 -13 -78 -70l-35 -179h218l35 179c2 12 4 23 4 31c0 31 -17 39 -54 39l10 53h311
l-10 -53c-47 0 -67 -13 -78 -70l-88 -454c-2 -12 -4 -23 -4 -31c0 -31 17 -39 54 -39l-9 -50h-311l9 50c47 0 67 13 78 70z" />
    <glyph glyph-name="Theta" unicode="&#x398;" horiz-adv-x="727" 
d="M330 -14c-173 0 -286 107 -286 293c0 210 108 430 372 430c173 0 286 -107 286 -293c0 -210 -109 -430 -372 -430zM416 629c-51 0 -93 -27 -117 -62c-57 -83 -84 -233 -84 -346c0 -105 51 -159 114 -159c53 0 91 25 115 60c57 83 87 239 87 352c0 105 -46 155 -115 155z
M374 389h13c42 0 53 12 65 51h45l-35 -181h-45c1 6 1 12 1 17c0 28 -11 35 -47 35h-11c-42 0 -50 -10 -62 -52h-45l35 181h45c-2 -11 -2 -16 -2 -20c0 -23 9 -31 43 -31z" />
    <glyph glyph-name="Iota" unicode="&#x399;" horiz-adv-x="371" 
d="M67 120l88 454c2 12 4 23 4 31c0 31 -17 39 -54 39l10 53h311l-10 -53c-47 0 -67 -13 -78 -70l-88 -454c-2 -12 -4 -23 -4 -31c0 -31 17 -39 54 -39l-9 -50h-311l9 50c47 0 67 13 78 70z" />
    <glyph glyph-name="Kappa" unicode="&#x39a;" horiz-adv-x="683" 
d="M67 120l88 454c2 12 4 23 4 31c0 31 -17 39 -54 39l10 53h311l-10 -53c-47 0 -67 -13 -78 -70l-88 -454c-2 -12 -4 -23 -4 -31c0 -31 17 -39 54 -39l-9 -50h-311l9 50c47 0 67 13 78 70zM642 588l-174 -180l123 -309c15 -36 33 -46 71 -49l-9 -50h-225l-119 340l226 252
c8 9 12 19 12 28c0 14 -10 26 -34 26l10 51h230l-10 -51c-41 -5 -64 -20 -101 -58z" />
    <glyph glyph-name="Lambda" unicode="&#x39b;" horiz-adv-x="637" 
d="M367 115l-34 323c-3 26 -5 50 -5 80h-6c-4 -12 -13 -34 -36 -83l-160 -333c-6 -13 -10 -23 -10 -31c0 -17 19 -18 57 -20l-10 -51h-223l10 51c41 5 55 12 79 58l304 588h138l87 -588c6 -42 14 -53 49 -58l-10 -51h-300l10 51c23 1 63 2 63 35c0 3 -1 14 -3 29z" />
    <glyph glyph-name="Mu" unicode="&#x39c;" horiz-adv-x="914" 
d="M954 697l-10 -52c-71 -4 -78 -23 -85 -76l-56 -441c-2 -15 -2 -22 -2 -31c0 -34 13 -45 58 -47l-9 -50h-315l9 50c64 2 70 15 78 71l39 293c7 57 19 129 22 145h-6c-6 -16 -33 -88 -61 -146l-201 -413h-106l-34 399c-2 25 -3 51 -3 74c0 41 2 75 3 86h-6
c-3 -17 -17 -92 -33 -146l-83 -291c-5 -17 -7 -27 -7 -37c0 -27 17 -35 58 -35l-9 -50h-230l9 50c57 2 70 18 87 78l125 441c5 17 8 31 8 41c0 24 -16 32 -63 35l10 52h285l22 -316c3 -45 4 -84 4 -111c0 -19 -1 -31 -1 -37h6c3 13 21 75 50 138l150 326h297z" />
    <glyph glyph-name="Nu" unicode="&#x39d;" horiz-adv-x="710" 
d="M555 395l35 179c2 12 4 23 4 31c0 31 -17 39 -54 39l10 53h220l-10 -53c-47 0 -67 -13 -78 -70l-111 -574h-113l-170 377c-41 90 -50 153 -50 165h-6c-2 -23 -13 -121 -22 -165l-49 -257c-2 -12 -4 -23 -4 -31c0 -31 17 -39 54 -39l-9 -50h-222l9 50c47 0 67 13 78 70
l88 454c2 12 4 23 4 31c0 31 -17 39 -54 39l10 53h243l135 -302c31 -70 35 -128 35 -140h6c1 14 9 76 21 140z" />
    <glyph glyph-name="Xi" unicode="&#x39e;" horiz-adv-x="603" 
d="M522 0h-547l33 210h89c-1 -8 -1 -15 -1 -22c0 -54 25 -69 80 -69h190c62 0 92 18 115 91h89zM435 583h-148c-76 0 -100 -27 -125 -93h-88l49 207h520l-31 -207h-88c0 66 -13 93 -89 93zM277 306c-62 0 -74 -14 -91 -58h-77l41 202h77v-1c0 -46 8 -57 70 -57h56
c62 0 75 11 92 58h77l-41 -202h-77v3c0 42 -8 55 -69 55h-58z" />
    <glyph glyph-name="Omicron" unicode="&#x39f;" horiz-adv-x="716" 
d="M323 -14c-187 0 -279 127 -279 292c0 201 121 431 365 431c173 0 282 -107 282 -293c0 -210 -114 -430 -368 -430zM409 629c-45 0 -71 -19 -91 -51c-60 -97 -83 -252 -83 -369c0 -90 25 -147 87 -147c46 0 73 15 97 50c57 83 80 249 80 362c0 105 -21 155 -90 155z" />
    <glyph glyph-name="Pi" unicode="&#x3a0;" horiz-adv-x="762" 
d="M458 120l96 495h-209l-96 -495c-3 -16 -4 -26 -4 -35c0 -28 14 -35 49 -35l-9 -50h-305l9 50c46 0 66 13 77 70l88 454c2 12 4 23 4 31c0 31 -17 39 -54 39l10 53h703l-10 -53c-47 0 -67 -13 -78 -70l-88 -454c-2 -12 -4 -23 -4 -31c0 -31 17 -39 54 -39l-9 -50h-306
l9 50c47 0 62 13 73 70z" />
    <glyph glyph-name="Rho" unicode="&#x3a1;" horiz-adv-x="628" 
d="M277 258l-27 -138c-2 -11 -3 -21 -3 -29c0 -33 19 -41 73 -41l-9 -50h-331l9 50c47 0 67 13 78 70l88 454c2 12 4 23 4 31c0 31 -17 39 -54 39l10 53h305c152 0 238 -51 238 -191c0 -97 -45 -182 -147 -223c-45 -18 -99 -25 -162 -25h-72zM470 509c0 75 -23 108 -88 108
h-36l-53 -274h34c42 0 71 5 98 30c28 26 45 74 45 136z" />
    <glyph glyph-name="Sigma" unicode="&#x3a3;" horiz-adv-x="588" 
d="M255 341l-159 298l11 58h511l-22 -175h-88c-7 76 -11 102 -87 102h-117l129 -245l-259 -254h166c73 0 89 21 126 97h88l-65 -222h-519l12 65z" />
    <glyph glyph-name="Tau" unicode="&#x3a4;" horiz-adv-x="634" 
d="M110 697h579l-26 -197h-87c-7 94 -12 117 -72 117h-29l-96 -497c-2 -12 -3 -22 -3 -30c0 -32 18 -40 63 -40l-9 -50h-331l9 50c57 0 77 13 88 70l96 497h-29c-66 0 -78 -31 -116 -117h-87z" />
    <glyph glyph-name="Upsilon" unicode="&#x3a5;" horiz-adv-x="643" 
d="M375 347h6l145 239c7 12 12 23 12 32c0 15 -12 26 -42 26l10 53h222l-10 -53c-41 -5 -53 -12 -82 -56l-226 -333l-26 -135c-2 -12 -3 -22 -3 -30c0 -32 18 -40 63 -40l-9 -50h-331l9 50c57 0 77 13 88 70l26 134l-95 334c-13 46 -24 51 -57 56l10 53h289l-10 -53
c-36 0 -48 -17 -48 -40c0 -6 1 -12 2 -18z" />
    <glyph glyph-name="Phi" unicode="&#x3a6;" horiz-adv-x="873" 
d="M30 294c0 211 151 299 377 302c4 37 -9 47 -52 48l10 53h304l-10 -53c-41 0 -61 -10 -73 -48c184 -2 282 -59 282 -189c0 -219 -151 -304 -378 -307c-6 -39 12 -50 53 -50l-9 -50h-304l9 50c41 0 61 9 73 50c-185 2 -282 62 -282 194zM213 273c0 -74 37 -97 114 -101
l68 351c-55 -2 -94 -15 -122 -47c-34 -40 -60 -135 -60 -203zM685 423c0 74 -37 97 -114 100l-68 -351c49 3 85 13 113 39c41 38 69 141 69 212z" />
    <glyph glyph-name="Chi" unicode="&#x3a7;" horiz-adv-x="700" 
d="M636 588l-188 -207l122 -272c18 -40 31 -54 70 -59l-9 -50h-313l9 50c46 0 63 23 48 58l-66 156h-6l-121 -148c-14 -17 -20 -30 -20 -40c0 -17 15 -25 43 -26l-9 -50h-226l9 50c39 5 62 18 96 59l195 234l-107 245c-18 41 -30 51 -61 56l11 53h299l-10 -53
c-36 0 -54 -11 -54 -31c0 -6 2 -13 5 -21l57 -137h6l110 132c12 14 18 26 18 36c0 14 -13 21 -38 21l10 53h226l-10 -53c-39 -5 -61 -17 -96 -56z" />
    <glyph glyph-name="Psi" unicode="&#x3a8;" horiz-adv-x="822" 
d="M554 574l-47 -238c69 11 96 54 133 179c42 145 87 186 230 194l17 -105c-40 -11 -55 -23 -85 -118c-29 -92 -58 -147 -103 -180c-53 -39 -130 -55 -209 -59l-24 -127c-3 -14 -4 -26 -4 -31c0 -31 17 -39 54 -39l-9 -50h-307l9 50c47 0 67 13 78 70l25 128
c-72 4 -128 26 -165 64c-28 29 -47 69 -47 140c0 27 4 58 4 87c0 50 -8 63 -34 72l34 98c108 -7 160 -40 160 -148c0 -35 -6 -69 -6 -111c0 -74 21 -104 71 -114l46 238c3 15 4 27 4 36c0 27 -12 34 -47 34l10 53h293l-10 -53c-47 0 -60 -13 -71 -70z" />
    <glyph glyph-name="uni03A9" unicode="&#x3a9;" horiz-adv-x="759" 
d="M444 634c-140 0 -184 -193 -184 -351c0 -82 13 -142 56 -185l-20 -98h-296l20 172h71c0 -71 41 -74 103 -74h35c-71 43 -154 139 -154 263c0 184 138 348 376 348c185 0 283 -102 283 -254c0 -182 -167 -314 -275 -357h35c62 0 102 3 134 74h68l-46 -172h-296l20 98
c104 74 175 223 175 415c0 75 -24 121 -105 121z" />
    <glyph glyph-name="Iotadieresis" unicode="&#x3aa;" horiz-adv-x="371" 
d="M67 120l88 454c2 12 4 23 4 31c0 31 -17 39 -54 39l10 53h311l-10 -53c-47 0 -67 -13 -78 -70l-88 -454c-2 -12 -4 -23 -4 -31c0 -31 17 -39 54 -39l-9 -50h-311l9 50c47 0 67 13 78 70zM274 830c0 -49 -41 -89 -92 -89c-50 0 -91 40 -91 89c0 50 42 90 93 90
s90 -40 90 -90zM503 830c0 -49 -41 -89 -92 -89c-50 0 -91 40 -91 89c0 50 42 90 93 90s90 -40 90 -90z" />
    <glyph glyph-name="Upsilondieresis" unicode="&#x3ab;" horiz-adv-x="643" 
d="M375 347h6l145 239c7 12 12 23 12 32c0 15 -12 26 -42 26l10 53h222l-10 -53c-41 -5 -53 -12 -82 -56l-226 -333l-26 -135c-2 -12 -3 -22 -3 -30c0 -32 18 -40 63 -40l-9 -50h-331l9 50c57 0 77 13 88 70l26 134l-95 334c-13 46 -24 51 -57 56l10 53h289l-10 -53
c-36 0 -48 -17 -48 -40c0 -6 1 -12 2 -18zM415 830c0 -49 -41 -89 -92 -89c-50 0 -91 40 -91 89c0 50 42 90 93 90s90 -40 90 -90zM644 830c0 -49 -41 -89 -92 -89c-50 0 -91 40 -91 89c0 50 42 90 93 90s90 -40 90 -90z" />
    <glyph glyph-name="alphatonos" unicode="&#x3ac;" horiz-adv-x="590" 
d="M585 480c-30 -59 -69 -131 -112 -199c7 -170 15 -210 67 -210c5 0 20 1 32 3l4 -45c-30 -18 -84 -38 -132 -38c-56 0 -87 23 -90 126h-4c-64 -104 -115 -132 -179 -132c-106 0 -146 74 -146 157c0 190 110 387 295 387c80 0 122 -50 134 -132h4c25 54 38 84 51 130
l73 -13zM232 93c23 0 40 17 114 137c1 26 1 50 1 71c0 114 -13 152 -43 152c-53 0 -105 -168 -105 -291c0 -54 13 -69 33 -69zM363 557l-100 4l60 214l148 -31z" />
    <glyph glyph-name="epsilontonos" unicode="&#x3ad;" horiz-adv-x="508" 
d="M279 84c72 0 117 23 159 46l27 -47c-54 -53 -135 -96 -254 -96c-111 0 -211 38 -211 134s70 143 175 149v6c-65 11 -98 45 -98 90c0 112 111 163 252 163c67 0 138 -16 184 -43l-23 -110h-117c2 12 3 22 3 31c0 39 -20 53 -48 53c-58 0 -81 -58 -81 -114
c0 -26 14 -43 53 -43h45l-15 -72h-46c-54 0 -96 -29 -96 -89c0 -47 43 -58 91 -58zM351 557l-100 4l60 214l148 -31z" />
    <glyph glyph-name="etatonos" unicode="&#x3ae;" horiz-adv-x="613" 
d="M347 149l48 194c2 9 3 14 3 20c0 17 -9 28 -29 28c-31 0 -70 -31 -110 -88l-65 -303h-169v36c14 30 26 84 35 126l45 209c2 10 3 21 3 27c0 30 -18 45 -66 46l9 42c38 19 83 37 138 37c53 0 84 -28 84 -102c0 -8 -1 -22 -2 -28c52 87 121 136 201 136
c71 0 105 -45 105 -106c0 -15 -2 -30 -6 -46l-55 -232c-4 -17 -7 -32 -7 -41c0 -24 12 -32 44 -32c9 0 21 1 31 2l4 -45c-44 -25 -90 -38 -144 -38c-72 0 -106 34 -106 96c0 17 4 40 9 62zM402 557l-100 4l60 214l148 -31z" />
    <glyph glyph-name="iotatonos" unicode="&#x3af;" horiz-adv-x="312" 
d="M285 525l-79 -362c-8 -34 -11 -49 -11 -59c0 -23 12 -32 44 -32c9 0 19 1 31 2l4 -45c-44 -25 -90 -38 -144 -38c-73 0 -105 35 -105 97c0 18 2 34 8 61l48 225c11 52 17 96 20 129l154 22h30zM239 557l-100 4l60 214l148 -31z" />
    <glyph glyph-name="upsilondieresistonos" unicode="&#x3b0;" horiz-adv-x="613" 
d="M390 477l6 29l145 23c19 -25 42 -82 42 -152c0 -221 -121 -390 -363 -390c-100 0 -166 44 -166 124c0 13 2 27 5 42l43 203c2 10 4 28 4 36c0 31 -11 50 -64 52l9 42c39 19 87 39 135 39c76 0 102 -37 102 -89c0 -12 -1 -27 -8 -60l-50 -234c-5 -23 -7 -37 -7 -52
c0 -21 6 -35 29 -35c100 0 151 217 151 322c0 43 -7 80 -13 100zM263 645c0 -44 -37 -80 -83 -80c-45 0 -81 36 -81 80c0 45 37 81 83 81s81 -36 81 -81zM579 645c0 -44 -37 -80 -82 -80s-82 36 -82 80c0 45 37 81 83 81s81 -36 81 -81zM361 567l-90 4l28 227l136 -40z" />
    <glyph glyph-name="alpha" unicode="&#x3b1;" horiz-adv-x="590" 
d="M585 480c-30 -59 -69 -131 -112 -199c7 -170 15 -210 67 -210c5 0 20 1 32 3l4 -45c-30 -18 -84 -38 -132 -38c-56 0 -87 23 -90 126h-4c-64 -104 -115 -132 -179 -132c-106 0 -146 74 -146 157c0 190 110 387 295 387c80 0 122 -50 134 -132h4c25 54 38 84 51 130
l73 -13zM232 93c23 0 40 17 114 137c1 26 1 50 1 71c0 114 -13 152 -43 152c-53 0 -105 -168 -105 -291c0 -54 13 -69 33 -69z" />
    <glyph glyph-name="beta" unicode="&#x3b2;" horiz-adv-x="590" 
d="M289 -13c-39 0 -84 9 -112 27c-2 -29 -11 -88 -24 -148l-11 -50l-182 -24v34c22 53 39 117 54 188l109 516c30 144 108 210 260 210c138 0 202 -65 202 -152c0 -97 -55 -167 -166 -191v-5c83 -8 132 -69 132 -143c0 -158 -85 -262 -262 -262zM288 362l21 65h17
c66 0 91 113 91 195c0 37 -12 54 -36 54c-40 0 -60 -23 -87 -151l-97 -451c16 -14 36 -21 61 -21c92 0 117 156 117 223c0 62 -18 86 -72 86h-15z" />
    <glyph glyph-name="gamma" unicode="&#x3b3;" horiz-adv-x="533" 
d="M152 -6c0 56 -6 84 -46 317c-23 133 -46 136 -90 136l8 43c27 13 75 33 128 33c69 0 99 -41 111 -135c9 -71 14 -132 15 -184c1 -53 -2 -97 -10 -135h6l40 85c80 169 98 236 98 369l141 -13v-46c-68 -172 -144 -323 -253 -473c-92 -127 -176 -193 -293 -211l-17 92v32
c158 11 162 45 162 90z" />
    <glyph glyph-name="delta" unicode="&#x3b4;" horiz-adv-x="588" 
d="M166 564c0 122 104 176 224 176c119 0 183 -45 183 -108c0 -26 -10 -50 -22 -70l-73 -15c-8 65 -41 107 -119 107c-33 0 -81 -10 -81 -48c0 -31 40 -55 143 -116c77 -46 135 -107 135 -201c0 -166 -105 -302 -297 -302c-162 0 -230 65 -230 174c0 153 83 236 196 290
c-42 35 -59 72 -59 113zM208 122c0 -41 11 -68 50 -68c37 0 59 23 74 58c22 52 38 130 38 172c0 59 -19 85 -79 121c-57 -70 -83 -183 -83 -283z" />
    <glyph glyph-name="epsilon" unicode="&#x3b5;" horiz-adv-x="508" 
d="M279 84c72 0 117 23 159 46l27 -47c-54 -53 -135 -96 -254 -96c-111 0 -211 38 -211 134s70 143 175 149v6c-65 11 -98 45 -98 90c0 112 111 163 252 163c67 0 138 -16 184 -43l-23 -110h-117c2 12 3 22 3 31c0 39 -20 53 -48 53c-58 0 -81 -58 -81 -114
c0 -26 14 -43 53 -43h45l-15 -72h-46c-54 0 -96 -29 -96 -89c0 -47 43 -58 91 -58z" />
    <glyph glyph-name="zeta" unicode="&#x3b6;" horiz-adv-x="471" 
d="M260 560c-40 22 -61 72 -61 122c0 12 2 25 5 37l64 24c11 -57 48 -93 110 -102l153 93l65 -19l-4 -28c-38 -101 -122 -148 -222 -148c-82 -57 -157 -214 -157 -317c0 -55 29 -77 104 -101c76 -24 116 -47 116 -106c0 -97 -91 -170 -167 -227l-81 52c27 26 68 66 68 109
c0 23 -18 35 -62 46c-117 30 -166 93 -166 185c0 156 111 284 235 380z" />
    <glyph glyph-name="eta" unicode="&#x3b7;" horiz-adv-x="613" 
d="M347 149l48 194c2 9 3 14 3 20c0 17 -9 28 -29 28c-31 0 -70 -31 -110 -88l-65 -303h-169v36c14 30 26 84 35 126l45 209c2 10 3 21 3 27c0 30 -18 45 -66 46l9 42c38 19 83 37 138 37c53 0 84 -28 84 -102c0 -8 -1 -22 -2 -28c52 87 121 136 201 136
c71 0 105 -45 105 -106c0 -15 -2 -30 -6 -46l-55 -232c-4 -17 -7 -32 -7 -41c0 -24 12 -32 44 -32c9 0 21 1 31 2l4 -45c-44 -25 -90 -38 -144 -38c-72 0 -106 34 -106 96c0 17 4 40 9 62z" />
    <glyph glyph-name="theta" unicode="&#x3b8;" horiz-adv-x="581" 
d="M576 510c0 -195 -83 -523 -327 -523c-130 0 -204 82 -204 233c0 199 77 520 328 520c116 0 203 -71 203 -230zM335 151c12 33 29 102 44 180h-149c-15 -83 -25 -160 -25 -198c0 -53 14 -79 47 -79c32 0 58 30 83 97zM289 583c-14 -34 -32 -104 -47 -185h150
c14 83 25 159 25 198c0 52 -15 74 -46 74c-32 0 -57 -24 -82 -87z" />
    <glyph glyph-name="iota" unicode="&#x3b9;" horiz-adv-x="312" 
d="M285 525l-79 -362c-8 -34 -11 -49 -11 -59c0 -23 12 -32 44 -32c9 0 19 1 31 2l4 -45c-44 -25 -90 -38 -144 -38c-73 0 -105 35 -105 97c0 18 2 34 8 61l48 225c11 52 17 96 20 129l154 22h30z" />
    <glyph glyph-name="kappa" unicode="&#x3ba;" horiz-adv-x="596" 
d="M443 357l-23 -22l58 -174c14 -42 25 -52 71 -61l-31 -109c-164 0 -188 53 -208 137l-22 88l-39 -31c-19 -88 -33 -142 -45 -185h-179v25c17 24 34 74 55 171l37 175c2 10 3 19 3 27c0 30 -18 45 -66 46l9 42c38 19 85 37 140 37c53 0 91 -33 91 -107c0 -12 -3 -36 -7 -54
l-14 -67c46 41 89 82 125 124c56 66 89 108 198 111v-125l-56 -7c-55 -7 -68 -13 -97 -41z" />
    <glyph glyph-name="lambda" unicode="&#x3bb;" horiz-adv-x="550" 
d="M286 438h-5l-201 -448h-30l-85 26c24 22 49 52 87 132l180 381l43 -7l-4 77c-3 45 -40 51 -102 51l8 58c41 21 80 32 128 32c55 0 119 -12 125 -92l41 -521c3 -39 8 -55 35 -55c9 0 17 1 30 4l4 -58c-36 -19 -73 -30 -117 -30c-102 0 -116 70 -120 146z" />
    <glyph glyph-name="uni03BC" unicode="&#x3bc;" horiz-adv-x="605" 
d="M581 74l4 -45c-44 -25 -90 -38 -144 -38c-62 0 -85 26 -90 76c-1 8 -1 17 -1 26c-28 -70 -76 -106 -126 -106c-36 0 -52 9 -64 38l-4 -1c8 -27 13 -55 13 -83c0 -25 -4 -50 -11 -75l-14 -48l-174 -26v34c23 53 38 119 54 188l81 343c4 15 6 29 6 38c0 35 -21 49 -67 49
l9 42c34 18 83 37 139 37c61 0 95 -26 95 -86c0 -14 -3 -32 -7 -51l-51 -210c-4 -15 -6 -27 -6 -37c0 -25 12 -34 32 -34c33 0 68 37 101 89l68 322h166l-76 -366c-4 -19 -7 -36 -7 -45c0 -24 12 -33 45 -33c5 0 20 1 29 2z" />
    <glyph glyph-name="nu" unicode="&#x3bd;" horiz-adv-x="511" 
d="M287 0h-157c-2 43 -5 73 -35 252l-18 108c-14 86 -44 87 -82 87l8 43c27 13 75 33 128 33c69 0 93 -41 106 -135l14 -106c7 -47 11 -95 11 -178h6l45 85c68 128 75 210 76 334l137 -13v-46c-68 -172 -130 -314 -239 -464z" />
    <glyph glyph-name="xi" unicode="&#x3be;" horiz-adv-x="469" 
d="M237 568c-38 21 -57 63 -57 108c0 14 2 29 6 43l64 24c11 -57 42 -88 104 -97l164 87l66 -19l-5 -28c-53 -120 -143 -137 -243 -137c-38 -26 -64 -55 -64 -99c0 -52 45 -73 125 -73h40l-15 -72h-37c-78 0 -190 -19 -190 -107c0 -41 36 -58 129 -80
c80 -19 117 -48 117 -103c0 -100 -95 -175 -167 -227l-81 52c31 32 69 70 69 111c0 23 -18 34 -63 44c-114 25 -189 68 -189 153c0 124 132 183 239 192v6c-97 5 -131 43 -131 88c0 70 68 108 119 134z" />
    <glyph glyph-name="omicron" unicode="&#x3bf;" horiz-adv-x="567" 
d="M546 316c0 -168 -89 -330 -300 -330c-133 0 -217 82 -217 211c0 157 90 332 296 332c125 0 221 -62 221 -213zM251 56c26 0 54 9 76 69c21 56 44 167 44 256c0 53 -15 77 -50 77c-32 0 -54 -15 -73 -68c-24 -69 -45 -183 -45 -269c0 -44 15 -65 48 -65z" />
    <glyph glyph-name="pi" unicode="&#x3c0;" horiz-adv-x="645" 
d="M395 370h-126c-30 -160 -60 -268 -111 -370h-148v35c82 52 133 174 178 335c-52 0 -78 -17 -110 -49l-25 33c34 100 102 162 224 162h264c50 0 81 5 119 19h25l-46 -144c-24 -13 -52 -18 -88 -21l-46 -224c-4 -20 -6 -32 -6 -42c0 -24 11 -32 37 -32c6 0 17 1 27 2l4 -45
c-44 -25 -88 -38 -126 -38c-70 0 -99 36 -99 89c0 21 4 46 9 69z" />
    <glyph glyph-name="rho" unicode="&#x3c1;" horiz-adv-x="619" 
d="M160 -134l-11 -50l-182 -24v34c22 53 37 117 52 188l58 274c31 144 111 241 293 241c137 0 228 -69 228 -190c0 -173 -97 -352 -297 -352c-54 0 -97 19 -114 42l-4 -1c0 -35 -10 -102 -23 -162zM274 55c30 0 56 15 80 61c36 70 64 206 64 274c0 55 -22 70 -57 70
c-44 0 -82 -32 -108 -157l-45 -210c7 -15 31 -38 66 -38z" />
    <glyph glyph-name="sigma1" unicode="&#x3c2;" horiz-adv-x="486" 
d="M299 115c79 -24 119 -45 119 -100c0 -100 -95 -175 -167 -227l-81 52c31 32 69 70 69 111c0 26 -18 35 -63 46c-95 23 -151 94 -151 186c0 185 113 346 310 346c80 0 134 -20 168 -46l-25 -112h-121v34c-2 40 -11 55 -32 55s-48 -12 -73 -57c-31 -54 -46 -131 -46 -185
c0 -58 19 -81 93 -103z" />
    <glyph glyph-name="sigma" unicode="&#x3c3;" horiz-adv-x="613" 
d="M542 305c0 -158 -87 -319 -298 -319c-133 0 -215 82 -215 211c0 157 88 332 294 332c66 0 118 -13 202 -13c36 0 76 5 113 19v-78l-6 -30c-25 -11 -36 -14 -66 -14s-63 19 -77 27l-3 -5c37 -29 56 -76 56 -130zM249 56c26 0 52 9 74 69c21 56 44 167 44 256
c0 53 -13 77 -48 77c-32 0 -52 -15 -71 -68c-24 -69 -45 -183 -45 -269c0 -44 13 -65 46 -65z" />
    <glyph glyph-name="tau" unicode="&#x3c4;" horiz-adv-x="565" 
d="M456 372h-77l-43 -219c-6 -29 -7 -39 -7 -49c0 -23 12 -32 44 -32c9 0 19 1 31 2l7 -45c-44 -25 -90 -38 -144 -38c-73 0 -105 35 -105 97c0 17 3 37 8 62c7 35 19 78 34 125c10 31 22 64 34 97h-82c-41 0 -79 -19 -110 -43l-31 30c41 96 105 157 231 157h217
c45 0 73 2 107 13h30l-46 -136c-23 -13 -62 -21 -98 -21z" />
    <glyph glyph-name="upsilon" unicode="&#x3c5;" horiz-adv-x="613" 
d="M390 477l6 29l145 23c19 -25 42 -82 42 -152c0 -221 -121 -390 -363 -390c-100 0 -166 44 -166 124c0 13 2 27 5 42l43 203c2 10 4 28 4 36c0 31 -11 50 -64 52l9 42c39 19 87 39 135 39c76 0 102 -37 102 -89c0 -12 -1 -27 -8 -60l-50 -234c-5 -23 -7 -37 -7 -52
c0 -21 6 -35 29 -35c100 0 151 217 151 322c0 43 -7 80 -13 100z" />
    <glyph glyph-name="phi" unicode="&#x3c6;" horiz-adv-x="838" 
d="M818 346c0 -180 -74 -356 -373 -359l-36 -171l-179 -24v34c19 47 34 102 47 162c-150 8 -247 66 -247 184c0 141 84 272 204 354l131 -18c-95 -83 -165 -218 -165 -349c0 -64 28 -100 92 -104l50 233c32 148 88 241 260 241c134 0 216 -60 216 -183zM513 303l-53 -248
c49 2 90 23 121 66c47 66 66 201 66 278c0 50 -20 61 -49 61c-41 0 -58 -34 -85 -157z" />
    <glyph glyph-name="chi" unicode="&#x3c7;" horiz-adv-x="578" 
d="M393 285l57 -157c17 -46 29 -56 56 -56c6 0 16 1 26 3l5 -45c-34 -24 -76 -42 -118 -42c-86 0 -108 38 -131 108l-28 87h-5l-168 -193h-30l-82 26c34 20 59 39 122 110l121 136l-44 133c-13 40 -26 51 -56 51c-12 0 -20 -1 -27 -2l8 41c36 19 79 39 128 39
c72 0 84 -26 106 -96l21 -65h5l136 159h30l88 -26c-34 -20 -58 -40 -122 -108z" />
    <glyph glyph-name="psi" unicode="&#x3c8;" horiz-adv-x="835" 
d="M69 203l33 153c2 10 4 28 4 36c0 31 -11 50 -64 52l9 42c39 19 86 39 134 39c76 0 100 -37 100 -89c0 -15 -2 -30 -5 -46l-43 -201c-4 -20 -7 -37 -7 -52c0 -49 25 -74 72 -80l104 487c16 73 27 128 33 169l143 23h30l-145 -680c98 15 161 177 161 321
c0 43 -7 80 -13 100l6 29l142 23c19 -25 42 -82 42 -152c0 -218 -117 -385 -353 -389l-36 -172l-178 -24v34c19 46 35 101 49 161c-137 4 -223 65 -223 174c0 13 2 27 5 42z" />
    <glyph glyph-name="omega" unicode="&#x3c9;" horiz-adv-x="829" 
d="M336 263c3 14 8 55 14 101l148 19h30l-47 -215c-9 -42 -11 -62 -11 -74c0 -32 13 -39 29 -39c25 0 50 22 69 61c34 72 55 163 55 249c0 51 -10 88 -18 109l6 30l143 24c17 -27 45 -102 45 -180c0 -208 -127 -361 -307 -361c-78 0 -125 33 -144 74
c-28 -45 -77 -74 -142 -74c-103 0 -176 52 -176 172c0 146 80 279 209 367l134 -18c-129 -112 -171 -264 -171 -391c0 -37 9 -60 36 -60c39 0 70 57 98 206z" />
    <glyph glyph-name="iotadieresis" unicode="&#x3ca;" horiz-adv-x="312" 
d="M285 525l-79 -362c-8 -34 -11 -49 -11 -59c0 -23 12 -32 44 -32c9 0 19 1 31 2l4 -45c-44 -25 -90 -38 -144 -38c-73 0 -105 35 -105 97c0 18 2 34 8 61l48 225c11 52 17 96 20 129l154 22h30zM195 650c0 -49 -41 -89 -92 -89c-50 0 -91 40 -91 89c0 50 42 90 93 90
s90 -40 90 -90zM424 650c0 -49 -41 -89 -92 -89c-50 0 -91 40 -91 89c0 50 42 90 93 90s90 -40 90 -90z" />
    <glyph glyph-name="upsilondieresis" unicode="&#x3cb;" horiz-adv-x="613" 
d="M390 477l6 29l145 23c19 -25 42 -82 42 -152c0 -221 -121 -390 -363 -390c-100 0 -166 44 -166 124c0 13 2 27 5 42l43 203c2 10 4 28 4 36c0 31 -11 50 -64 52l9 42c39 19 87 39 135 39c76 0 102 -37 102 -89c0 -12 -1 -27 -8 -60l-50 -234c-5 -23 -7 -37 -7 -52
c0 -21 6 -35 29 -35c100 0 151 217 151 322c0 43 -7 80 -13 100zM303 650c0 -49 -41 -89 -92 -89c-50 0 -91 40 -91 89c0 50 42 90 93 90s90 -40 90 -90zM532 650c0 -49 -41 -89 -92 -89c-50 0 -91 40 -91 89c0 50 42 90 93 90s90 -40 90 -90z" />
    <glyph glyph-name="omicrontonos" unicode="&#x3cc;" horiz-adv-x="567" 
d="M546 316c0 -168 -89 -330 -300 -330c-133 0 -217 82 -217 211c0 157 90 332 296 332c125 0 221 -62 221 -213zM251 56c26 0 54 9 76 69c21 56 44 167 44 256c0 53 -15 77 -50 77c-32 0 -54 -15 -73 -68c-24 -69 -45 -183 -45 -269c0 -44 15 -65 48 -65zM379 557l-100 4
l60 214l148 -31z" />
    <glyph glyph-name="upsilontonos" unicode="&#x3cd;" horiz-adv-x="613" 
d="M390 477l6 29l145 23c19 -25 42 -82 42 -152c0 -221 -121 -390 -363 -390c-100 0 -166 44 -166 124c0 13 2 27 5 42l43 203c2 10 4 28 4 36c0 31 -11 50 -64 52l9 42c39 19 87 39 135 39c76 0 102 -37 102 -89c0 -12 -1 -27 -8 -60l-50 -234c-5 -23 -7 -37 -7 -52
c0 -21 6 -35 29 -35c100 0 151 217 151 322c0 43 -7 80 -13 100zM376 557l-100 4l60 214l148 -31z" />
    <glyph glyph-name="omegatonos" unicode="&#x3ce;" horiz-adv-x="829" 
d="M336 263c3 14 8 55 14 101l148 19h30l-47 -215c-9 -42 -11 -62 -11 -74c0 -32 13 -39 29 -39c25 0 50 22 69 61c34 72 55 163 55 249c0 51 -10 88 -18 109l6 30l143 24c17 -27 45 -102 45 -180c0 -208 -127 -361 -307 -361c-78 0 -125 33 -144 74
c-28 -45 -77 -74 -142 -74c-103 0 -176 52 -176 172c0 146 80 279 209 367l134 -18c-129 -112 -171 -264 -171 -391c0 -37 9 -60 36 -60c39 0 70 57 98 206zM530 557l-100 4l60 214l148 -31z" />
    <glyph glyph-name="uni03D0" unicode="&#x3d0;" horiz-adv-x="600" 
d="M590 594c0 -110 -61 -170 -144 -206c70 -27 109 -70 109 -136c0 -171 -101 -265 -294 -265c-136 0 -221 75 -221 232c0 34 4 68 13 110c67 316 179 411 328 411c133 0 209 -55 209 -146zM380 271c0 38 -6 66 -33 87c-25 -5 -51 -9 -77 -12l3 68c106 17 146 90 146 199
c0 41 -12 63 -44 63c-45 0 -79 -45 -142 -339c-19 -87 -28 -147 -28 -192c0 -60 16 -92 56 -92c89 0 119 138 119 218z" />
    <glyph glyph-name="theta1" unicode="&#x3d1;" horiz-adv-x="616" 
d="M36 302l109 40c33 -21 57 -50 57 -105c0 -36 -12 -71 -12 -111c0 -59 26 -73 65 -73c62 0 96 45 143 252c-172 34 -279 87 -279 199c0 149 106 236 268 236c128 0 214 -66 214 -223c0 -47 -7 -98 -20 -165c-53 -266 -148 -365 -325 -365c-146 0 -225 48 -225 156
c0 37 13 74 13 113c0 19 -2 30 -8 46zM292 494c0 -62 30 -97 122 -115c22 110 27 177 27 221c0 64 -26 76 -58 76c-63 0 -91 -104 -91 -182z" />
    <glyph glyph-name="Upsilon1" unicode="&#x3d2;" horiz-adv-x="668" 
d="M133 50c57 0 75 3 86 60l21 110c7 36 11 72 11 107c0 122 -48 227 -186 264l30 118c229 0 286 -119 286 -305c0 -19 -1 -39 -2 -59h4c54 231 172 363 354 363l6 -89c-171 -27 -277 -181 -320 -402l-21 -107c-2 -11 -3 -20 -3 -28c0 -30 19 -32 65 -32l-9 -50h-331z" />
    <glyph glyph-name="uni03D3" unicode="&#x3d3;" horiz-adv-x="668" 
d="M133 50c57 0 75 3 86 60l21 110c7 36 11 72 11 107c0 122 -48 227 -186 264l30 118c229 0 286 -119 286 -305c0 -19 -1 -39 -2 -59h4c54 231 172 363 354 363l6 -89c-171 -27 -277 -181 -320 -402l-21 -107c-2 -11 -3 -20 -3 -28c0 -30 19 -32 65 -32l-9 -50h-331z
M-40 497l-100 4l57 214l148 -31z" />
    <glyph glyph-name="uni03D4" unicode="&#x3d4;" horiz-adv-x="668" 
d="M405 830c0 -49 -41 -89 -92 -89c-50 0 -91 40 -91 89c0 50 42 90 93 90s90 -40 90 -90zM634 830c0 -49 -41 -89 -92 -89c-50 0 -91 40 -91 89c0 50 42 90 93 90s90 -40 90 -90zM133 50c57 0 75 3 86 60l21 110c7 36 11 72 11 107c0 122 -48 227 -186 264l30 118
c229 0 286 -119 286 -305c0 -19 -1 -39 -2 -59h4c54 231 172 363 354 363l6 -89c-171 -27 -277 -181 -320 -402l-21 -107c-2 -11 -3 -20 -3 -28c0 -30 19 -32 65 -32l-9 -50h-331z" />
    <glyph glyph-name="phi1" unicode="&#x3d5;" horiz-adv-x="858" 
d="M617 736l-45 -208c177 -8 265 -72 265 -195c0 -239 -149 -336 -380 -345l-36 -172l-178 -24v34c19 47 35 102 49 162c-176 8 -263 71 -263 195c0 238 148 336 378 345l4 16c16 73 26 128 32 169l144 23h30zM653 354c0 80 -38 101 -95 105l-86 -403c52 5 88 24 118 66
c36 51 63 143 63 232zM213 162c0 -81 37 -102 94 -106l86 403c-52 -5 -88 -23 -117 -65c-36 -51 -63 -143 -63 -232z" />
    <glyph glyph-name="uni0400" unicode="&#x400;" horiz-adv-x="604" 
d="M629 697l-22 -177h-88c-8 76 -13 97 -89 97h-84l-44 -230h48c62 0 79 14 95 71h77l-43 -218h-77c1 7 2 17 2 24c0 35 -16 47 -68 47h-49l-46 -237h105c62 0 93 23 119 116h89l-36 -190h-538l9 50c47 0 67 13 78 70l88 454c2 12 4 23 4 31c0 31 -17 39 -54 39l10 53h514z
M510 760l-25 -39l-260 73l74 146z" />
    <glyph glyph-name="afii10023" unicode="&#x401;" horiz-adv-x="604" 
d="M629 697l-22 -177h-88c-8 76 -13 97 -89 97h-84l-44 -230h48c62 0 79 14 95 71h77l-43 -218h-77c1 7 2 17 2 24c0 35 -16 47 -68 47h-49l-46 -237h105c62 0 93 23 119 116h89l-36 -190h-538l9 50c47 0 67 13 78 70l88 454c2 12 4 23 4 31c0 31 -17 39 -54 39l10 53h514z
M375 830c0 -49 -41 -89 -92 -89c-50 0 -91 40 -91 89c0 50 42 90 93 90s90 -40 90 -90zM604 830c0 -49 -41 -89 -92 -89c-50 0 -91 40 -91 89c0 50 42 90 93 90s90 -40 90 -90z" />
    <glyph glyph-name="afii10051" unicode="&#x402;" horiz-adv-x="845" 
d="M110 697h579l-26 -187h-87c-7 93 -11 107 -72 107h-29l-39 -199c51 28 112 51 178 51c136 0 198 -57 198 -149c0 -15 -2 -31 -5 -48l-10 -59c-28 -165 -149 -229 -320 -261l-11 54c114 48 122 82 144 193l11 60c3 17 4 25 4 36c0 52 -29 69 -83 69
c-39 0 -82 -12 -122 -29l-41 -215c-3 -16 -4 -25 -4 -34c0 -29 18 -36 54 -36l-9 -50h-321l9 50c57 0 77 13 88 70l96 497h-29c-66 0 -78 -31 -116 -117h-87z" />
    <glyph glyph-name="afii10052" unicode="&#x403;" horiz-adv-x="577" 
d="M346 617l-96 -493c-3 -14 -5 -25 -5 -33c0 -33 20 -41 74 -41l-9 -50h-330l9 50c46 0 66 13 77 70l88 454c3 15 4 22 4 31c0 31 -17 39 -54 39l10 53h518l-25 -195h-88c-4 90 -9 115 -85 115h-88zM283 721l-25 39l211 180l74 -146z" />
    <glyph glyph-name="afii10053" unicode="&#x404;" horiz-adv-x="640" 
d="M319 65c79 0 118 44 146 127h122l-27 -147c-50 -33 -144 -58 -241 -58c-172 0 -275 89 -275 256c0 289 172 466 390 466c112 0 171 -20 231 -53l-28 -141h-124c0 76 -20 113 -84 113c-58 0 -104 -32 -139 -124c-13 -34 -24 -71 -32 -109h218l-17 -85h-217
c-6 -44 -9 -89 -9 -131c0 -84 37 -114 86 -114z" />
    <glyph glyph-name="afii10054" unicode="&#x405;" horiz-adv-x="551" 
d="M235 -14c-133 0 -210 36 -240 63l26 143h118c-1 -97 30 -142 104 -142c60 0 107 31 107 107c0 56 -23 80 -87 107l-67 28c-76 32 -126 91 -126 186c0 144 109 231 268 231c133 0 194 -37 222 -53l-28 -147h-114c3 93 -29 130 -95 130c-61 0 -101 -37 -101 -94
c0 -50 33 -75 75 -93l72 -30c90 -37 151 -81 151 -195c0 -159 -125 -241 -285 -241z" />
    <glyph glyph-name="afii10055" unicode="&#x406;" horiz-adv-x="371" 
d="M67 120l88 454c2 12 4 23 4 31c0 31 -17 39 -54 39l10 53h311l-10 -53c-47 0 -67 -13 -78 -70l-88 -454c-2 -12 -4 -23 -4 -31c0 -31 17 -39 54 -39l-9 -50h-311l9 50c47 0 67 13 78 70z" />
    <glyph glyph-name="afii10056" unicode="&#x407;" horiz-adv-x="371" 
d="M67 120l88 454c2 12 4 23 4 31c0 31 -17 39 -54 39l10 53h311l-10 -53c-47 0 -67 -13 -78 -70l-88 -454c-2 -12 -4 -23 -4 -31c0 -31 17 -39 54 -39l-9 -50h-311l9 50c47 0 67 13 78 70zM274 830c0 -49 -41 -89 -92 -89c-50 0 -91 40 -91 89c0 50 42 90 93 90
s90 -40 90 -90zM503 830c0 -49 -41 -89 -92 -89c-50 0 -91 40 -91 89c0 50 42 90 93 90s90 -40 90 -90z" />
    <glyph glyph-name="afii10057" unicode="&#x408;" horiz-adv-x="366" 
d="M63 100l92 474c2 12 4 23 4 31c0 31 -17 39 -54 39l10 53h311l-10 -53c-47 0 -67 -13 -78 -70l-94 -484c-32 -164 -131 -230 -322 -237l-14 51c112 31 133 85 155 196z" />
    <glyph glyph-name="afii10058" unicode="&#x409;" horiz-adv-x="967" 
d="M236 574c2 12 3 19 3 30c0 32 -17 40 -54 40l11 53h576l-11 -53c-47 0 -66 -13 -77 -70l-29 -147h72c125 0 225 -48 225 -167c0 -160 -106 -260 -291 -260h-334l10 50c47 0 65 13 76 70l96 495h-174c-36 -178 -76 -334 -123 -448c-58 -137 -115 -183 -240 -183l-12 114
c51 10 89 24 129 64c57 57 101 177 147 412zM674 347h-34l-51 -264h48c99 0 120 105 120 181c0 58 -27 83 -83 83z" />
    <glyph glyph-name="afii10059" unicode="&#x40a;" horiz-adv-x="1012" 
d="M458 120l41 207h-208l-41 -207c-3 -15 -4 -22 -4 -31c0 -31 13 -39 50 -39l-9 -50h-307l9 50c47 0 67 13 78 70l88 454c2 11 3 22 3 31c0 31 -16 39 -53 39l10 53h307l-10 -53c-47 0 -63 -13 -74 -70l-31 -162h208l31 162c2 13 3 22 3 31c0 31 -12 39 -49 39l10 53h307
l-10 -53c-47 0 -67 -13 -78 -70l-32 -162h71c125 0 229 -47 229 -166c0 -160 -108 -246 -291 -246h-331l9 50c47 0 63 13 74 70zM715 332h-33l-48 -249h48c96 0 120 91 120 167c0 58 -31 82 -87 82z" />
    <glyph glyph-name="afii10060" unicode="&#x40b;" horiz-adv-x="874" 
d="M824 50l-9 -50h-299l9 50c39 0 55 13 66 70l27 140c3 17 4 25 4 36c0 52 -29 69 -83 69c-38 0 -80 -11 -118 -27l-42 -218c-3 -16 -4 -25 -4 -34c0 -29 18 -36 54 -36l-9 -50h-321l9 50c57 0 77 13 88 70l96 497h-29c-66 0 -78 -31 -116 -117h-87l50 197h579l-26 -187
h-87c-7 93 -11 107 -72 107h-29l-38 -196c50 27 110 49 174 49c136 0 198 -57 198 -149c0 -15 -1 -28 -5 -48l-30 -153c-2 -8 -3 -22 -3 -31c0 -31 16 -39 53 -39z" />
    <glyph glyph-name="afii10061" unicode="&#x40c;" horiz-adv-x="697" 
d="M289 330l-41 -210c-3 -17 -4 -24 -4 -32c0 -30 15 -38 52 -38l-9 -50h-307l9 50c46 0 65 13 76 70l89 454c2 11 3 22 3 30c0 32 -17 40 -54 40l10 53h308l-10 -53c-47 0 -63 -13 -74 -70l-32 -164h26c77 0 135 18 180 149c36 104 94 146 221 150l5 -128l-51 -7
c-54 -7 -87 -25 -114 -86c-21 -47 -49 -93 -117 -110v-5c97 -8 129 -61 129 -164c0 -62 14 -102 77 -112l-28 -112c-148 0 -223 51 -226 182c-3 134 -17 163 -67 163h-51zM360 721l-25 39l211 180l74 -146z" />
    <glyph glyph-name="uni040D" unicode="&#x40d;" horiz-adv-x="757" 
d="M528 454h-4c-19 -32 -48 -73 -88 -125l-171 -224c-22 -30 -29 -52 -39 -105h-246l9 50c46 0 66 13 77 70l88 454c2 11 3 22 3 31c0 31 -16 39 -53 39l10 53h309l-10 -53c-47 0 -66 -13 -77 -70l-40 -206c-8 -44 -26 -103 -33 -125h4c19 32 48 73 88 125l171 223
c22 29 29 53 39 106h247l-10 -53c-47 0 -67 -13 -78 -70l-88 -454c-3 -15 -4 -24 -4 -31c0 -31 17 -39 54 -39l-9 -50h-309l9 50c47 0 66 13 77 70l41 209c9 44 26 104 33 125zM570 760l-25 -39l-260 73l74 146z" />
    <glyph glyph-name="afii10062" unicode="&#x40e;" horiz-adv-x="671" 
d="M299 185l-45 -5l-126 411c-13 44 -22 50 -53 55l10 51h298l-10 -51c-27 0 -62 -10 -62 -45c0 -5 1 -11 3 -18l63 -244h20c5 17 33 61 59 100l93 143c11 18 12 25 12 34c0 19 -15 30 -50 30l10 51h235l-10 -51c-41 -5 -54 -14 -82 -58l-264 -408
c-101 -156 -136 -196 -290 -196l-11 116c109 11 162 29 200 85zM448 730c-97 0 -143 67 -145 149l45 22c21 -48 58 -68 116 -68s98 21 141 69l42 -23c-29 -81 -102 -149 -199 -149z" />
    <glyph glyph-name="afii10145" unicode="&#x40f;" horiz-adv-x="760" 
d="M358 -180h-114c11 57 17 98 17 126c0 39 -11 54 -34 54h-247l10 50c46 0 66 13 77 70l88 454c2 12 3 22 3 30c0 32 -17 40 -54 40l11 53h309l-11 -53c-47 0 -64 -13 -75 -70l-96 -492h206l96 492c3 15 4 23 4 31c0 31 -16 39 -53 39l11 53h309l-11 -53
c-47 0 -66 -13 -77 -70l-88 -454c-3 -16 -4 -23 -4 -31c0 -31 17 -39 54 -39l-10 -50h-237c-38 -2 -58 -47 -84 -180z" />
    <glyph glyph-name="afii10017" unicode="&#x410;" horiz-adv-x="650" 
d="M379 98l-10 77h-207l-32 -68c-5 -12 -8 -21 -8 -29c0 -17 14 -26 51 -28l-9 -50h-224l9 50c41 5 57 13 81 59l304 588h138l100 -588c8 -46 15 -54 48 -59l-9 -50h-304l9 50c52 2 64 13 64 35c0 4 0 5 -1 13zM286 435l-84 -175h155l-22 170c-6 43 -6 64 -6 88h-6
c-8 -20 -17 -41 -37 -83z" />
    <glyph glyph-name="afii10018" unicode="&#x411;" horiz-adv-x="631" 
d="M423 621h-77l-37 -194h78c125 0 225 -48 225 -167c0 -160 -106 -260 -291 -260h-341l9 50c46 0 66 13 77 70l88 454c2 9 3 22 3 31c0 31 -16 39 -53 39l10 53h507l-22 -182h-87c-1 87 -18 106 -89 106zM297 83c99 0 120 105 120 181c0 58 -27 83 -83 83h-41l-51 -264h55z
" />
    <glyph glyph-name="afii10019" unicode="&#x412;" horiz-adv-x="656" 
d="M346 617l-44 -229h24c47 0 76 4 98 26c26 25 40 71 40 120c0 70 -30 83 -86 83h-32zM353 311h-66l-46 -237h33c54 0 86 2 113 20c34 23 49 75 49 125c0 70 -27 92 -83 92zM460 355v-4c111 -9 164 -63 164 -144c0 -94 -53 -159 -137 -184c-65 -20 -126 -23 -196 -23h-311
l9 50c47 0 67 13 78 70l88 454c2 12 4 23 4 31c0 31 -17 39 -54 39l10 53h324c131 0 217 -45 217 -157c0 -114 -92 -178 -196 -185z" />
    <glyph glyph-name="afii10020" unicode="&#x413;" horiz-adv-x="577" 
d="M346 617l-96 -493c-3 -14 -5 -25 -5 -33c0 -33 20 -41 74 -41l-9 -50h-330l9 50c46 0 66 13 77 70l88 454c3 15 4 22 4 31c0 31 -17 39 -54 39l10 53h518l-25 -195h-88c-4 90 -9 115 -85 115h-88z" />
    <glyph glyph-name="afii10021" unicode="&#x414;" horiz-adv-x="731" 
d="M161 89v-7h249l104 533h-177c-36 -177 -72 -334 -104 -404c-19 -42 -46 -93 -72 -122zM28 -180h-103l51 262h37c32 18 59 44 91 88c56 79 86 169 132 404c2 12 3 22 3 30c0 32 -17 40 -54 40l11 53h580l-10 -53c-47 0 -66 -13 -77 -70l-79 -408c-6 -30 -10 -50 -10 -54
c0 -20 14 -30 47 -30h30l-16 -82l-63 -180h-98c12 60 19 102 19 131c0 35 -11 49 -36 49h-344c-50 0 -88 -64 -111 -180z" />
    <glyph glyph-name="afii10022" unicode="&#x415;" horiz-adv-x="604" 
d="M629 697l-22 -177h-88c-8 76 -13 97 -89 97h-84l-44 -230h48c62 0 79 14 95 71h77l-43 -218h-77c1 7 2 17 2 24c0 35 -16 47 -68 47h-49l-46 -237h105c62 0 93 23 119 116h89l-36 -190h-538l9 50c47 0 67 13 78 70l88 454c2 12 4 23 4 31c0 31 -17 39 -54 39l10 53h514z
" />
    <glyph glyph-name="afii10024" unicode="&#x416;" horiz-adv-x="1003" 
d="M646 330h-41l-41 -210c-3 -15 -4 -24 -4 -32c0 -30 15 -38 52 -38l-9 -50h-303l9 50c47 0 63 13 74 70l41 210h-46c-50 0 -66 -29 -119 -163c-58 -147 -121 -182 -267 -182l-12 115c66 10 78 38 105 109c39 103 87 155 201 164v5c-59 29 -72 66 -75 110
c-2 29 -9 50 -21 64c-14 16 -34 24 -61 28l-43 5l28 124c63 -2 109 -15 140 -43c27 -24 38 -59 38 -107c0 -132 60 -149 132 -149h16l32 164c3 15 4 23 4 32c0 30 -16 38 -52 38l10 53h303l-10 -53c-47 0 -63 -13 -74 -70l-32 -164h16c77 0 132 19 180 149
c38 104 94 146 221 150l5 -128l-51 -7c-54 -7 -87 -25 -114 -86c-21 -47 -49 -93 -117 -110v-5c97 -8 129 -61 129 -164c0 -62 14 -102 77 -112l-28 -112c-148 0 -223 51 -226 182c-3 134 -17 163 -67 163z" />
    <glyph glyph-name="afii10025" unicode="&#x417;" horiz-adv-x="607" 
d="M270 323h-72l16 83h72c79 0 122 74 122 149c0 43 -19 73 -67 73c-58 0 -93 -34 -122 -112h-119l28 142c59 33 139 51 224 51c176 0 250 -70 250 -154c0 -110 -88 -175 -192 -182v-4c94 -12 161 -61 161 -141c0 -167 -139 -241 -315 -241c-111 0 -196 30 -251 67l27 144
h119c0 -83 19 -133 91 -133c92 0 132 87 132 170c0 62 -37 88 -104 88z" />
    <glyph glyph-name="afii10026" unicode="&#x418;" horiz-adv-x="757" 
d="M528 454h-4c-19 -32 -48 -73 -88 -125l-171 -224c-22 -30 -29 -52 -39 -105h-246l9 50c46 0 66 13 77 70l88 454c2 11 3 22 3 31c0 31 -16 39 -53 39l10 53h309l-10 -53c-47 0 -66 -13 -77 -70l-40 -206c-8 -44 -26 -103 -33 -125h4c19 32 48 73 88 125l171 223
c22 29 29 53 39 106h247l-10 -53c-47 0 -67 -13 -78 -70l-88 -454c-3 -15 -4 -24 -4 -31c0 -31 17 -39 54 -39l-9 -50h-309l9 50c47 0 66 13 77 70l41 209c9 44 26 104 33 125z" />
    <glyph glyph-name="afii10027" unicode="&#x419;" horiz-adv-x="757" 
d="M528 454h-4c-19 -32 -48 -73 -88 -125l-171 -224c-22 -30 -29 -52 -39 -105h-246l9 50c46 0 66 13 77 70l88 454c2 11 3 22 3 31c0 31 -16 39 -53 39l10 53h309l-10 -53c-47 0 -66 -13 -77 -70l-40 -206c-8 -44 -26 -103 -33 -125h4c19 32 48 73 88 125l171 223
c22 29 29 53 39 106h247l-10 -53c-47 0 -67 -13 -78 -70l-88 -454c-3 -15 -4 -24 -4 -31c0 -31 17 -39 54 -39l-9 -50h-309l9 50c47 0 66 13 77 70l41 209c9 44 26 104 33 125zM480 730c-97 0 -143 67 -145 149l45 22c21 -48 58 -68 116 -68s98 21 141 69l42 -23
c-29 -81 -102 -149 -199 -149z" />
    <glyph glyph-name="afii10028" unicode="&#x41a;" horiz-adv-x="697" 
d="M289 330l-41 -210c-3 -17 -4 -24 -4 -32c0 -30 15 -38 52 -38l-9 -50h-307l9 50c46 0 65 13 76 70l89 454c2 11 3 22 3 30c0 32 -17 40 -54 40l10 53h308l-10 -53c-47 0 -63 -13 -74 -70l-32 -164h26c77 0 135 18 180 149c36 104 94 146 221 150l5 -128l-51 -7
c-54 -7 -87 -25 -114 -86c-21 -47 -49 -93 -117 -110v-5c97 -8 129 -61 129 -164c0 -62 14 -102 77 -112l-28 -112c-148 0 -223 51 -226 182c-3 134 -17 163 -67 163h-51z" />
    <glyph glyph-name="afii10029" unicode="&#x41b;" horiz-adv-x="722" 
d="M236 574c2 12 3 22 3 30c0 32 -17 40 -54 40l11 53h581l-11 -53c-47 0 -66 -13 -77 -70l-88 -454c-3 -15 -4 -22 -4 -31c0 -31 17 -39 54 -39l-10 -50h-309l10 50c47 0 65 13 76 70l96 495h-179c-36 -178 -76 -334 -123 -448c-58 -137 -115 -183 -240 -183l-12 114
c51 10 89 24 129 64c57 57 101 177 147 412z" />
    <glyph glyph-name="afii10030" unicode="&#x41c;" horiz-adv-x="914" 
d="M954 697l-10 -52c-71 -4 -78 -23 -85 -76l-56 -441c-2 -15 -2 -22 -2 -31c0 -34 13 -45 58 -47l-9 -50h-315l9 50c64 2 70 15 78 71l39 293c7 57 19 129 22 145h-6c-6 -16 -33 -88 -61 -146l-201 -413h-106l-34 399c-2 25 -3 51 -3 74c0 41 2 75 3 86h-6
c-3 -17 -17 -92 -33 -146l-83 -291c-5 -17 -7 -27 -7 -37c0 -27 17 -35 58 -35l-9 -50h-230l9 50c57 2 70 18 87 78l125 441c5 17 8 31 8 41c0 24 -16 32 -63 35l10 52h285l22 -316c3 -45 4 -84 4 -111c0 -19 -1 -31 -1 -37h6c3 13 21 75 50 138l150 326h297z" />
    <glyph glyph-name="afii10031" unicode="&#x41d;" horiz-adv-x="772" 
d="M468 120l37 190h-218l-37 -190c-2 -12 -4 -23 -4 -31c0 -31 17 -39 54 -39l-9 -50h-311l9 50c47 0 67 13 78 70l88 454c2 12 4 23 4 31c0 31 -17 39 -54 39l10 53h311l-10 -53c-47 0 -67 -13 -78 -70l-35 -179h218l35 179c2 12 4 23 4 31c0 31 -17 39 -54 39l10 53h311
l-10 -53c-47 0 -67 -13 -78 -70l-88 -454c-2 -12 -4 -23 -4 -31c0 -31 17 -39 54 -39l-9 -50h-311l9 50c47 0 67 13 78 70z" />
    <glyph glyph-name="afii10032" unicode="&#x41e;" horiz-adv-x="716" 
d="M323 -14c-187 0 -279 127 -279 292c0 201 121 431 365 431c173 0 282 -107 282 -293c0 -210 -114 -430 -368 -430zM409 629c-45 0 -71 -19 -91 -51c-60 -97 -83 -252 -83 -369c0 -90 25 -147 87 -147c46 0 73 15 97 50c57 83 80 249 80 362c0 105 -21 155 -90 155z" />
    <glyph glyph-name="afii10033" unicode="&#x41f;" horiz-adv-x="762" 
d="M458 120l96 495h-209l-96 -495c-3 -16 -4 -26 -4 -35c0 -28 14 -35 49 -35l-9 -50h-305l9 50c46 0 66 13 77 70l88 454c2 12 4 23 4 31c0 31 -17 39 -54 39l10 53h703l-10 -53c-47 0 -67 -13 -78 -70l-88 -454c-2 -12 -4 -23 -4 -31c0 -31 17 -39 54 -39l-9 -50h-306
l9 50c47 0 62 13 73 70z" />
    <glyph glyph-name="afii10034" unicode="&#x420;" horiz-adv-x="628" 
d="M277 258l-27 -138c-2 -11 -3 -21 -3 -29c0 -33 19 -41 73 -41l-9 -50h-331l9 50c47 0 67 13 78 70l88 454c2 12 4 23 4 31c0 31 -17 39 -54 39l10 53h305c152 0 238 -51 238 -191c0 -97 -45 -182 -147 -223c-45 -18 -99 -25 -162 -25h-72zM470 509c0 75 -23 108 -88 108
h-36l-53 -274h34c42 0 71 5 98 30c28 26 45 74 45 136z" />
    <glyph glyph-name="afii10035" unicode="&#x421;" horiz-adv-x="634" 
d="M328 -14c-192 0 -284 103 -284 279c0 232 149 444 411 444c92 0 161 -18 209 -51l-29 -146h-125c0 76 -14 116 -73 116c-124 0 -202 -180 -202 -416c0 -114 40 -146 106 -146c69 0 103 42 131 125h126l-30 -151c-49 -33 -151 -54 -240 -54z" />
    <glyph glyph-name="afii10036" unicode="&#x422;" horiz-adv-x="634" 
d="M110 697h579l-26 -197h-87c-7 94 -12 117 -72 117h-29l-96 -497c-2 -12 -3 -22 -3 -30c0 -32 18 -40 63 -40l-9 -50h-331l9 50c57 0 77 13 88 70l96 497h-29c-66 0 -78 -31 -116 -117h-87z" />
    <glyph glyph-name="afii10037" unicode="&#x423;" horiz-adv-x="671" 
d="M299 185l-45 -5l-126 411c-13 44 -22 50 -53 55l10 51h298l-10 -51c-27 0 -62 -10 -62 -45c0 -5 1 -11 3 -18l63 -244h20c5 17 33 61 59 100l93 143c11 18 12 25 12 34c0 19 -15 30 -50 30l10 51h235l-10 -51c-41 -5 -54 -14 -82 -58l-264 -408
c-101 -156 -136 -196 -290 -196l-11 116c109 11 162 29 200 85z" />
    <glyph glyph-name="afii10038" unicode="&#x424;" horiz-adv-x="880" 
d="M30 314c0 211 139 313 383 317c5 37 -11 48 -52 48l10 53h304l-10 -53c-40 0 -61 -9 -73 -47c186 -3 283 -83 283 -214c0 -212 -140 -314 -385 -317c-6 -43 16 -51 53 -51l-9 -50h-304l9 50c41 0 61 9 73 50c-185 3 -282 82 -282 214zM692 441c0 75 -33 113 -115 118
l-74 -386c129 9 189 113 189 268zM213 291c0 -75 33 -113 114 -119l74 386c-129 -9 -188 -112 -188 -267z" />
    <glyph glyph-name="afii10039" unicode="&#x425;" horiz-adv-x="700" 
d="M636 588l-188 -207l122 -272c18 -40 31 -54 70 -59l-9 -50h-313l9 50c46 0 63 23 48 58l-66 156h-6l-121 -148c-14 -17 -20 -30 -20 -40c0 -17 15 -25 43 -26l-9 -50h-226l9 50c39 5 62 18 96 59l195 234l-107 245c-18 41 -30 51 -61 56l11 53h299l-10 -53
c-36 0 -54 -11 -54 -31c0 -6 2 -13 5 -21l57 -137h6l110 132c12 14 18 26 18 36c0 14 -13 21 -38 21l10 53h226l-10 -53c-39 -5 -61 -17 -96 -56z" />
    <glyph glyph-name="afii10040" unicode="&#x426;" horiz-adv-x="770" 
d="M637 -180h-98c12 60 19 102 19 131c0 35 -11 49 -38 49h-540l10 50c46 0 66 13 77 70l88 454c3 15 3 22 3 30c0 32 -17 40 -54 40l11 53h309l-11 -53c-47 0 -64 -13 -75 -70l-96 -492h206l96 492c3 15 4 23 4 31c0 31 -16 39 -53 39l11 53h309l-11 -53
c-47 0 -66 -13 -77 -70l-86 -444c-1 -5 -2 -13 -2 -17c0 -20 14 -30 47 -31h29l-15 -82z" />
    <glyph glyph-name="afii10041" unicode="&#x427;" horiz-adv-x="741" 
d="M80 644l10 53h299l-10 -53c-39 0 -55 -13 -66 -70l-32 -167c-3 -17 -4 -25 -4 -36c0 -52 29 -69 83 -69c37 0 79 9 117 24l48 248c3 16 4 24 4 33c0 29 -14 37 -44 37l10 53h301l-10 -53c-47 0 -67 -13 -78 -70l-88 -454c-3 -16 -4 -22 -4 -31c0 -31 17 -39 54 -39
l-9 -50h-311l9 50c47 0 67 13 78 70l23 120c-46 -25 -101 -43 -162 -43c-136 0 -208 57 -208 149c0 15 1 28 5 48l32 165c5 26 6 33 6 46c0 31 -16 39 -53 39z" />
    <glyph glyph-name="afii10042" unicode="&#x428;" horiz-adv-x="1060" 
d="M-20 0l9 50c46 0 66 13 77 70l88 454c3 15 3 22 3 31c0 31 -16 39 -53 39l10 53h297l-10 -53c-36 0 -55 -13 -66 -70l-96 -495h160l96 495c3 16 4 24 4 33c0 29 -14 37 -42 37l10 53h295l-10 -53c-47 0 -67 -13 -78 -70l-96 -495h172l96 495c3 16 4 24 4 33
c0 29 -14 37 -42 37l10 53h297l-10 -53c-47 0 -67 -13 -78 -70l-88 -454c-3 -14 -4 -22 -4 -31c0 -31 17 -39 54 -39l-9 -50h-1000z" />
    <glyph glyph-name="afii10043" unicode="&#x429;" horiz-adv-x="1070" 
d="M938 -180h-98c12 60 19 102 19 131c0 34 -10 49 -33 49h-846l9 50c46 0 66 13 77 70l88 454c2 11 3 22 3 31c0 31 -16 39 -53 39l10 53h297l-10 -53c-36 0 -55 -13 -66 -70l-96 -495h160l96 495c3 16 4 24 4 33c0 29 -14 37 -42 37l10 53h295l-10 -53
c-47 0 -67 -13 -78 -70l-96 -495h172l96 495c3 16 4 24 4 33c0 29 -14 37 -42 37l10 53h297l-10 -53c-47 0 -67 -13 -78 -70l-86 -444c-1 -5 -2 -10 -2 -17c0 -21 13 -30 48 -31h29l-15 -82z" />
    <glyph glyph-name="afii10044" unicode="&#x42a;" horiz-adv-x="775" 
d="M469 0h-341l9 50c46 0 66 13 77 70l97 497h-39c-76 0 -91 -24 -129 -114h-88l49 194h469l-10 -53c-45 0 -66 -11 -78 -70l-28 -147h78c125 0 225 -48 225 -167c0 -160 -106 -260 -291 -260zM445 83c99 0 120 105 120 181c0 58 -27 83 -83 83h-41l-51 -264h55z" />
    <glyph glyph-name="afii10045" unicode="&#x42b;" horiz-adv-x="963" 
d="M311 0h-331l9 50c46 0 66 13 77 70l87 449c3 16 4 22 4 36c0 31 -16 39 -53 39l10 53h311l-10 -53c-45 0 -66 -11 -78 -70l-28 -147h68c125 0 225 -48 225 -167c0 -160 -106 -260 -291 -260zM287 83c99 0 120 105 120 181c0 58 -27 83 -83 83h-31l-51 -264h45zM659 120
l87 449c3 15 4 27 4 36c0 31 -16 39 -53 39l10 53h311l-10 -53c-47 0 -67 -13 -78 -70l-88 -454c-3 -15 -4 -22 -4 -31c0 -31 17 -39 54 -39l-9 -50h-311l9 50c47 0 67 13 78 70z" />
    <glyph glyph-name="afii10046" unicode="&#x42c;" horiz-adv-x="627" 
d="M321 0h-341l9 50c46 0 66 13 77 70l87 449c3 15 4 22 4 36c0 31 -16 39 -53 39l10 53h311l-10 -53c-45 0 -66 -11 -78 -70l-28 -147h78c125 0 225 -48 225 -167c0 -160 -106 -260 -291 -260zM297 83c99 0 120 105 120 181c0 58 -27 83 -83 83h-41l-51 -264h55z" />
    <glyph glyph-name="afii10047" unicode="&#x42d;" horiz-adv-x="656" 
d="M198 310l17 85h213c6 41 9 81 9 117c0 86 -30 116 -86 116c-64 0 -99 -35 -129 -111h-124l29 144c75 34 139 48 233 48c165 0 271 -82 271 -254c0 -248 -115 -468 -385 -468c-119 0 -194 32 -241 66l27 140h115c0 -83 15 -128 94 -128c46 0 88 13 125 98
c18 42 34 93 46 147h-214z" />
    <glyph glyph-name="afii10048" unicode="&#x42e;" horiz-adv-x="1036" 
d="M653 -14c-187 0 -269 127 -269 292c0 10 0 21 1 32h-98l-37 -190c-3 -15 -4 -22 -4 -31c0 -31 17 -39 54 -39l-9 -50h-311l9 50c47 0 67 13 78 70l87 450c3 15 4 22 4 35c0 31 -16 39 -53 39l10 53h311l-10 -53c-47 0 -67 -13 -78 -70l-35 -179h94
c35 164 147 314 342 314c173 0 272 -107 272 -293c0 -210 -107 -430 -358 -430zM739 629c-40 0 -66 -22 -86 -54c-60 -97 -78 -249 -78 -366c0 -90 15 -147 77 -147c39 0 63 18 87 53c57 83 80 246 80 359c0 105 -11 155 -80 155z" />
    <glyph glyph-name="afii10049" unicode="&#x42f;" horiz-adv-x="658" 
d="M226 308v4c-79 7 -150 65 -150 148c0 159 120 237 279 237h358l-10 -53c-47 0 -66 -13 -77 -70l-88 -454c-3 -16 -4 -23 -4 -31c0 -31 17 -39 54 -39l-9 -50h-304l9 50c40 0 60 13 71 70l31 164c-76 0 -80 -6 -132 -120c-67 -146 -134 -179 -281 -179l-13 116
c63 9 81 39 102 83c33 70 64 116 164 124zM395 617c-98 0 -127 -89 -127 -184c0 -53 24 -65 69 -65h66l48 249h-56z" />
    <glyph glyph-name="afii10065" unicode="&#x430;" horiz-adv-x="593" 
d="M338 196l56 237c-11 11 -24 14 -43 14c-84 0 -157 -159 -157 -285c0 -49 11 -69 33 -69c33 0 72 44 111 103zM322 93c-42 -66 -99 -107 -173 -107c-81 0 -129 52 -129 148c0 203 151 395 324 395c60 0 91 -26 100 -59c11 20 26 35 41 46h107c-13 -30 -28 -73 -41 -128
l-55 -243c-4 -17 -7 -30 -7 -41c0 -23 12 -32 44 -32c9 0 23 1 31 2l4 -45c-44 -25 -90 -38 -144 -38c-48 0 -77 15 -91 45c-7 15 -11 34 -11 57z" />
    <glyph glyph-name="afii10066" unicode="&#x431;" horiz-adv-x="563" 
d="M477 598l-108 -24c-157 -34 -176 -66 -196 -187h7c43 83 93 127 182 127c115 0 178 -60 178 -167c0 -197 -86 -361 -289 -361c-144 0 -216 89 -216 216c1 296 123 451 278 491l116 30c43 11 49 17 68 37l92 -79c-26 -40 -54 -70 -112 -83zM319 440c-27 0 -45 -13 -61 -38
c-41 -65 -62 -190 -62 -268c0 -46 13 -78 50 -78c35 0 50 21 68 58c32 65 46 197 46 260c0 45 -8 66 -41 66z" />
    <glyph glyph-name="afii10067" unicode="&#x432;" horiz-adv-x="549" 
d="M518 410c0 -54 -41 -96 -105 -127c61 -9 116 -35 116 -104c0 -127 -150 -193 -278 -193c-140 0 -221 74 -221 200c0 190 126 343 306 343c108 0 182 -41 182 -119zM315 245c-35 -9 -76 -17 -113 -20c-1 -16 -2 -35 -2 -53c0 -76 14 -116 60 -116c51 0 94 39 94 106
c0 43 -14 69 -39 83zM321 459c-45 0 -88 -67 -109 -165c83 12 149 54 149 116c0 30 -15 49 -40 49z" />
    <glyph glyph-name="afii10068" unicode="&#x433;" horiz-adv-x="495" 
d="M241 -13c-155 0 -226 49 -226 128c0 96 46 137 195 177l36 10c51 13 79 41 79 95c0 45 -21 63 -53 63c-43 0 -64 -25 -86 -73h-94l22 108c31 12 98 34 181 34c120 0 205 -40 205 -118c0 -100 -49 -134 -170 -172l-34 -10c-65 -20 -90 -48 -90 -106c0 -28 17 -67 60 -67
c40 0 73 15 96 86h102l-23 -112c-36 -17 -109 -43 -200 -43z" />
    <glyph glyph-name="afii10069" unicode="&#x434;" horiz-adv-x="569" 
d="M278 516c44 0 74 -10 102 -28c0 33 -1 62 -3 76c-9 61 -31 68 -121 68h-77l-16 81c23 11 79 27 121 27c83 0 135 -20 181 -101c36 -63 74 -169 74 -269c0 -194 -77 -384 -281 -384c-132 0 -223 73 -223 204c0 167 102 326 243 326zM260 55c79 0 116 245 120 367
c-22 17 -45 22 -63 22c-74 0 -110 -148 -110 -271c0 -79 8 -118 53 -118z" />
    <glyph glyph-name="afii10070" unicode="&#x435;" horiz-adv-x="531" 
d="M521 386c0 -144 -157 -171 -294 -171h-23c-2 -10 -3 -27 -3 -43c0 -50 26 -85 88 -85c55 0 99 13 146 53l33 -46c-61 -72 -141 -108 -231 -108c-140 0 -207 74 -207 200c0 190 136 343 306 343c108 0 185 -37 185 -143zM366 410c0 30 -16 47 -41 47
c-47 0 -89 -67 -110 -174c14 0 28 1 41 3c67 10 110 48 110 124z" />
    </font>
</defs>
</svg>
